<svg xmlns="http://www.w3.org/2000/svg" viewBox="0 0 500 500"><g id="freepik--background-complete--inject-249"><path d="M283.85,183.57c5.28,0,137-.92,174.15-.92,2.6,0-.69-4.5-2.12-4.82-4.57-1-9.34-1.05-14-1.53A45.73,45.73,0,0,1,428.57,173c-3.66-1.54-7.31-3.33-11.28-4-7.66-1.2-14.38,3-21.57,4.79A16.27,16.27,0,0,1,382.65,172c-3.32-2-6.34-4.38-9.81-6.14a53.82,53.82,0,0,0-43-2,50.28,50.28,0,0,0-9.41,4.81c-3.51,2.31-6.54,5.25-10.06,7.53-7.8,5-17.44,3.4-25.95,6.29C283.92,182.69,283.39,183.57,283.85,183.57Z" style="fill:#ebebeb"></path><path d="M276.28,65.56c7,0,124.38.77,131.76.54.53,0,.81-.8.29-1.06-4.66-2.3-9.93-1.84-14.76-3.47-2.85-1-4.6-2.82-6.57-5a13.53,13.53,0,0,0-6.11-4,12.93,12.93,0,0,0-6.65-.21c-2.38.57-4.45,1.93-6.72,2.79-5.64,2.13-11.12.11-15.15-4.06-3.32-3.44-6.59-6.69-11.1-8.54a14.71,14.71,0,0,0-11.76-.16c-4.31,1.95-7.26,5.87-11.31,8.23-4.79,2.8-10.53,2.14-15.82,3s-9.36,5.31-14,7.88a9.94,9.94,0,0,1-5.06,1.57c-1,0-2.06-.31-3.08-.44-1.6-.2-3.12-.15-4.2,1.18C275.77,64.18,275.83,65.56,276.28,65.56Z" style="fill:#ebebeb"></path><path d="M41.33,126.57c5.09,0,90.8.57,96.19.39.38,0,.59-.58.21-.77-3.4-1.68-7.25-1.34-10.78-2.53-2.08-.7-3.35-2.06-4.79-3.61a10,10,0,0,0-4.46-2.92,9.43,9.43,0,0,0-4.86-.15,42,42,0,0,0-4.91,2c-4.11,1.55-8.11.08-11.05-3-2.43-2.51-4.81-4.88-8.11-6.23a10.72,10.72,0,0,0-8.58-.12c-3.15,1.42-5.31,4.29-8.26,6-3.5,2.05-7.69,1.56-11.55,2.18s-6.84,3.87-10.23,5.75a7.18,7.18,0,0,1-3.7,1.14c-.75,0-1.5-.22-2.25-.31a3.06,3.06,0,0,0-3.06.86C41,125.57,41,126.57,41.33,126.57Z" style="fill:#ebebeb"></path><path d="M359.85,128.8c5.1,0,90.81.57,96.19.39.39,0,.6-.58.21-.77-3.39-1.68-7.24-1.34-10.77-2.53-2.08-.7-3.35-2.06-4.79-3.61a10,10,0,0,0-4.46-2.92,9.43,9.43,0,0,0-4.86-.15,42,42,0,0,0-4.91,2c-4.12,1.55-8.12.08-11.06-3-2.42-2.51-4.81-4.88-8.1-6.23a10.74,10.74,0,0,0-8.59-.12c-3.14,1.42-5.3,4.29-8.25,6-3.5,2-7.69,1.56-11.56,2.18s-6.83,3.87-10.22,5.75A7.21,7.21,0,0,1,365,127a21.37,21.37,0,0,1-2.25-.32,3.07,3.07,0,0,0-3.06.87C359.48,127.79,359.52,128.8,359.85,128.8Z" style="fill:#ebebeb"></path><path d="M125.28,212.22c5.1,0,90.81.57,96.2.39.38,0,.59-.58.21-.77-3.4-1.68-7.25-1.34-10.78-2.53-2.08-.7-3.35-2.06-4.79-3.61a10,10,0,0,0-4.46-2.92,9.43,9.43,0,0,0-4.86-.15,42,42,0,0,0-4.91,2c-4.11,1.55-8.12.08-11-3-2.43-2.51-4.81-4.88-8.11-6.23a10.74,10.74,0,0,0-8.59-.12c-3.14,1.42-5.3,4.29-8.25,6-3.5,2-7.69,1.56-11.55,2.18s-6.84,3.87-10.23,5.75a7.18,7.18,0,0,1-3.7,1.14,21.75,21.75,0,0,1-2.25-.32,3.08,3.08,0,0,0-3.06.87C124.91,211.22,125,212.22,125.28,212.22Z" style="fill:#ebebeb"></path><path d="M87.56,164.05c.1.29,135.1,0,133.39,0-.77,0,1.18-1.16.42-1.54-4.39-2.18-9.2-2.24-14-2.68a21.51,21.51,0,0,1-8.18-2c-2.54-1.33-4.13-3.65-5.93-5.78a25.37,25.37,0,0,0-23.05-8.74c-9.6,1.51-17.17,8.82-26.78,10.16-5.78.81-11.24-1.42-16.89-2.21a20.63,20.63,0,0,0-12.68,2.32c-3,1.51-5.86,2.78-9.3,3-2.64.18-5.29-.12-7.94-.15A17.76,17.76,0,0,0,85,161.15C84.52,161.52,83.16,164.05,87.56,164.05Z" style="fill:#ebebeb"></path></g><g id="freepik--high-school-building--inject-249"><rect x="180.08" y="173.99" width="139.84" height="195.12" style="fill:#FFC727"></rect><rect x="180.08" y="173.99" width="139.84" height="195.12" style="fill:#fff;opacity:0.7000000000000001"></rect><rect x="200.08" y="303.04" width="99.84" height="5.03" style="fill:#FFC727"></rect><rect x="219.5" y="308.07" width="61.06" height="57.05" style="fill:#455a64"></rect><rect x="223.61" y="312.28" width="52.84" height="52.84" style="fill:#37474f"></rect><g style="opacity:0.5"><polygon points="276.45 334.33 276.45 344.14 255.48 365.12 245.67 365.12 276.45 334.33" style="fill:#455a64"></polygon><polygon points="237.41 312.28 223.62 326.07 223.62 316.26 227.59 312.28 237.41 312.28" style="fill:#455a64"></polygon><polygon points="266.89 312.28 223.62 355.56 223.62 350.66 261.99 312.28 266.89 312.28" style="fill:#455a64"></polygon><polygon points="276.45 349.24 276.45 354.15 265.48 365.12 260.57 365.12 276.45 349.24" style="fill:#455a64"></polygon><polygon points="276.45 317.19 276.45 318.08 229.43 365.12 228.51 365.12 276.45 317.19" style="fill:#455a64"></polygon><polygon points="243.13 312.28 223.62 331.79 223.62 330.88 242.22 312.28 243.13 312.28" style="fill:#455a64"></polygon><polygon points="259.77 312.28 223.62 348.43 223.62 347.51 258.85 312.28 259.77 312.28" style="fill:#455a64"></polygon></g><rect x="248.34" y="312.28" width="3.4" height="52.84" style="fill:#455a64"></rect><rect x="201.9" y="195.27" width="21.8" height="33.79" style="fill:#455a64"></rect><rect x="204.15" y="197.75" width="17.31" height="28.84" style="fill:#37474f"></rect><rect x="198.78" y="229.06" width="28.04" height="4.86" style="fill:#FFC727"></rect><g style="opacity:0.5"><polygon points="221.46 197.75 221.46 201.31 204.14 218.63 204.14 212.04 218.44 197.75 221.46 197.75" style="fill:#455a64"></polygon><polygon points="221.46 219.13 221.46 222.42 217.29 226.59 214 226.59 221.46 219.13" style="fill:#455a64"></polygon><polygon points="209.97 197.75 204.14 203.58 204.14 200.28 206.67 197.75 209.97 197.75" style="fill:#455a64"></polygon><polygon points="221.46 213.97 221.46 215.03 209.89 226.59 208.83 226.59 221.46 213.97" style="fill:#455a64"></polygon></g><rect x="201.9" y="214.71" width="21.8" height="2.47" style="fill:#455a64"></rect><rect x="239.1" y="195.27" width="21.8" height="33.79" style="fill:#455a64"></rect><rect x="241.35" y="197.75" width="17.31" height="28.84" style="fill:#37474f"></rect><rect x="235.98" y="229.06" width="28.04" height="4.86" style="fill:#FFC727"></rect><g style="opacity:0.5"><polygon points="258.66 197.75 258.66 201.31 241.34 218.63 241.34 212.04 255.64 197.75 258.66 197.75" style="fill:#455a64"></polygon><polygon points="258.66 219.13 258.66 222.42 254.49 226.59 251.19 226.59 258.66 219.13" style="fill:#455a64"></polygon><polygon points="247.17 197.75 241.34 203.58 241.34 200.28 243.87 197.75 247.17 197.75" style="fill:#455a64"></polygon><polygon points="258.66 213.97 258.66 215.03 247.09 226.59 246.03 226.59 258.66 213.97" style="fill:#455a64"></polygon></g><rect x="239.1" y="214.71" width="21.8" height="2.47" style="fill:#455a64"></rect><rect x="276.3" y="195.27" width="21.8" height="33.79" style="fill:#455a64"></rect><rect x="278.55" y="197.75" width="17.31" height="28.84" style="fill:#37474f"></rect><rect x="273.18" y="229.06" width="28.04" height="4.86" style="fill:#FFC727"></rect><g style="opacity:0.5"><polygon points="295.86 197.75 295.86 201.31 278.54 218.63 278.54 212.04 292.84 197.75 295.86 197.75" style="fill:#455a64"></polygon><polygon points="295.86 219.13 295.86 222.42 291.69 226.59 288.4 226.59 295.86 219.13" style="fill:#455a64"></polygon><polygon points="284.37 197.75 278.54 203.58 278.54 200.28 281.07 197.75 284.37 197.75" style="fill:#455a64"></polygon><polygon points="295.86 213.97 295.86 215.03 284.29 226.59 283.23 226.59 295.86 213.97" style="fill:#455a64"></polygon></g><rect x="276.3" y="214.71" width="21.8" height="2.47" style="fill:#455a64"></rect><rect x="201.9" y="246.3" width="21.8" height="33.79" style="fill:#455a64"></rect><rect x="204.15" y="248.77" width="17.31" height="28.84" style="fill:#37474f"></rect><rect x="198.78" y="280.09" width="28.04" height="4.86" style="fill:#FFC727"></rect><g style="opacity:0.5"><polygon points="221.46 248.77 221.46 252.34 204.14 269.65 204.14 263.07 218.44 248.77 221.46 248.77" style="fill:#455a64"></polygon><polygon points="221.46 270.15 221.46 273.45 217.29 277.62 214 277.62 221.46 270.15" style="fill:#455a64"></polygon><polygon points="209.97 248.77 204.14 254.6 204.14 251.31 206.67 248.77 209.97 248.77" style="fill:#455a64"></polygon><polygon points="221.46 264.99 221.46 266.05 209.89 277.62 208.83 277.62 221.46 264.99" style="fill:#455a64"></polygon></g><rect x="201.9" y="265.74" width="21.8" height="2.47" style="fill:#455a64"></rect><rect x="239.1" y="246.3" width="21.8" height="33.79" style="fill:#455a64"></rect><rect x="241.35" y="248.77" width="17.31" height="28.84" style="fill:#37474f"></rect><rect x="235.98" y="280.09" width="28.04" height="4.86" style="fill:#FFC727"></rect><g style="opacity:0.5"><polygon points="258.66 248.77 258.66 252.34 241.34 269.65 241.34 263.07 255.64 248.77 258.66 248.77" style="fill:#455a64"></polygon><polygon points="258.66 270.15 258.66 273.45 254.49 277.62 251.19 277.62 258.66 270.15" style="fill:#455a64"></polygon><polygon points="247.17 248.77 241.34 254.6 241.34 251.31 243.87 248.77 247.17 248.77" style="fill:#455a64"></polygon><polygon points="258.66 264.99 258.66 266.05 247.09 277.62 246.03 277.62 258.66 264.99" style="fill:#455a64"></polygon></g><rect x="239.1" y="265.74" width="21.8" height="2.47" style="fill:#455a64"></rect><rect x="276.3" y="246.3" width="21.8" height="33.79" style="fill:#455a64"></rect><rect x="278.55" y="248.77" width="17.31" height="28.84" style="fill:#37474f"></rect><rect x="273.18" y="280.09" width="28.04" height="4.86" style="fill:#FFC727"></rect><g style="opacity:0.5"><polygon points="295.86 248.77 295.86 252.34 278.54 269.65 278.54 263.07 292.84 248.77 295.86 248.77" style="fill:#455a64"></polygon><polygon points="295.86 270.15 295.86 273.45 291.69 277.62 288.4 277.62 295.86 270.15" style="fill:#455a64"></polygon><polygon points="284.37 248.77 278.54 254.6 278.54 251.31 281.07 248.77 284.37 248.77" style="fill:#455a64"></polygon><polygon points="295.86 264.99 295.86 266.05 284.29 277.62 283.23 277.62 295.86 264.99" style="fill:#455a64"></polygon></g><rect x="276.3" y="265.74" width="21.8" height="2.47" style="fill:#455a64"></rect><polygon points="319.92 292.92 180.08 292.92 180.08 294.63 319.92 293.77 319.92 292.92" style="fill:#FFC727;opacity:0.5"></polygon><rect x="180.08" y="290.54" width="139.84" height="2.38" style="fill:#fff"></rect><polygon points="319.92 240.34 180.08 240.34 180.08 242.06 319.92 241.2 319.92 240.34" style="fill:#FFC727;opacity:0.5"></polygon><rect x="180.08" y="237.96" width="139.84" height="2.38" style="fill:#fff"></rect><polygon points="319.92 187.77 180.08 187.77 180.08 189.49 319.92 188.63 319.92 187.77" style="fill:#FFC727;opacity:0.5"></polygon><rect x="180.08" y="185.39" width="139.84" height="2.38" style="fill:#fff"></rect><rect x="174.08" y="173.99" width="6" height="195.12" style="fill:#FFC727"></rect><rect x="174.08" y="173.99" width="6" height="195.12" style="fill:#fff;opacity:0.8"></rect><rect x="319.92" y="173.99" width="6" height="195.12" style="fill:#FFC727"></rect><rect x="319.92" y="173.99" width="6" height="195.12" style="fill:#fff;opacity:0.8"></rect><rect x="290.53" y="308.07" width="5.16" height="57.05" style="fill:#FFC727"></rect><rect x="290.53" y="308.07" width="5.16" height="57.05" style="fill:#fff;opacity:0.9"></rect><rect x="204.31" y="308.07" width="5.16" height="57.05" style="fill:#FFC727"></rect><rect x="204.31" y="308.07" width="5.16" height="57.05" style="fill:#fff;opacity:0.9"></rect><rect x="194.26" y="367.13" width="111.47" height="2.01" style="fill:#ebebeb"></rect><rect x="199.7" y="365.12" width="100.6" height="2.01" style="fill:#ebebeb"></rect><polygon points="300.3 366.62 199.7 366.12 199.7 367.13 300.3 367.13 300.3 366.62" style="fill:#dbdbdb"></polygon><rect x="49.63" y="228.05" width="124.46" height="141.07" style="fill:#FFC727"></rect><rect x="49.63" y="228.05" width="124.46" height="141.07" style="fill:#fff;opacity:0.7000000000000001"></rect><rect x="49.63" y="347.79" width="124.46" height="21.33" style="fill:#FFC727;opacity:0.5"></rect><rect x="63.75" y="246.06" width="21.8" height="33.79" style="fill:#455a64"></rect><rect x="66" y="248.53" width="17.31" height="28.84" style="fill:#37474f"></rect><rect x="60.63" y="279.85" width="28.04" height="4.86" style="fill:#FFC727"></rect><g style="opacity:0.5"><polygon points="83.31 248.54 83.31 252.1 66 269.42 66 262.83 80.29 248.54 83.31 248.54" style="fill:#455a64"></polygon><polygon points="83.31 269.92 83.31 273.21 79.14 277.38 75.85 277.38 83.31 269.92" style="fill:#455a64"></polygon><polygon points="71.83 248.54 66 254.37 66 251.07 68.52 248.54 71.83 248.54" style="fill:#455a64"></polygon><polygon points="83.31 264.76 83.31 265.81 71.75 277.38 70.69 277.38 83.31 264.76" style="fill:#455a64"></polygon></g><rect x="63.75" y="265.5" width="21.8" height="2.47" style="fill:#455a64"></rect><rect x="100.95" y="246.06" width="21.8" height="33.79" style="fill:#455a64"></rect><rect x="103.2" y="248.53" width="17.31" height="28.84" style="fill:#37474f"></rect><rect x="97.83" y="279.85" width="28.04" height="4.86" style="fill:#FFC727"></rect><g style="opacity:0.5"><polygon points="120.51 248.54 120.51 252.1 103.2 269.42 103.2 262.83 117.49 248.54 120.51 248.54" style="fill:#455a64"></polygon><polygon points="120.51 269.92 120.51 273.21 116.34 277.38 113.05 277.38 120.51 269.92" style="fill:#455a64"></polygon><polygon points="109.03 248.54 103.2 254.37 103.2 251.07 105.72 248.54 109.03 248.54" style="fill:#455a64"></polygon><polygon points="120.51 264.76 120.51 265.81 108.94 277.38 107.89 277.38 120.51 264.76" style="fill:#455a64"></polygon></g><rect x="100.95" y="265.5" width="21.8" height="2.47" style="fill:#455a64"></rect><rect x="138.15" y="246.06" width="21.8" height="33.79" style="fill:#455a64"></rect><rect x="140.4" y="248.53" width="17.31" height="28.84" style="fill:#37474f"></rect><rect x="135.03" y="279.85" width="28.04" height="4.86" style="fill:#FFC727"></rect><g style="opacity:0.5"><polygon points="157.71 248.54 157.71 252.1 140.4 269.42 140.4 262.83 154.69 248.54 157.71 248.54" style="fill:#455a64"></polygon><polygon points="157.71 269.92 157.71 273.21 153.54 277.38 150.25 277.38 157.71 269.92" style="fill:#455a64"></polygon><polygon points="146.23 248.54 140.4 254.37 140.4 251.07 142.93 248.54 146.23 248.54" style="fill:#455a64"></polygon><polygon points="157.71 264.76 157.71 265.81 146.15 277.38 145.09 277.38 157.71 264.76" style="fill:#455a64"></polygon></g><rect x="138.15" y="265.5" width="21.8" height="2.47" style="fill:#455a64"></rect><rect x="63.75" y="297.08" width="21.8" height="33.79" style="fill:#455a64"></rect><rect x="66" y="299.56" width="17.31" height="28.84" style="fill:#37474f"></rect><rect x="60.63" y="330.88" width="28.04" height="4.86" style="fill:#FFC727"></rect><g style="opacity:0.5"><polygon points="83.31 299.56 83.31 303.13 66 320.44 66 313.86 80.29 299.56 83.31 299.56" style="fill:#455a64"></polygon><polygon points="83.31 320.94 83.31 324.24 79.14 328.4 75.85 328.4 83.31 320.94" style="fill:#455a64"></polygon><polygon points="71.83 299.56 66 305.39 66 302.1 68.52 299.56 71.83 299.56" style="fill:#455a64"></polygon><polygon points="83.31 315.78 83.31 316.84 71.75 328.4 70.69 328.4 83.31 315.78" style="fill:#455a64"></polygon></g><rect x="63.75" y="316.52" width="21.8" height="2.47" style="fill:#455a64"></rect><rect x="100.95" y="297.08" width="21.8" height="33.79" style="fill:#455a64"></rect><rect x="103.2" y="299.56" width="17.31" height="28.84" style="fill:#37474f"></rect><rect x="97.83" y="330.88" width="28.04" height="4.86" style="fill:#FFC727"></rect><g style="opacity:0.5"><polygon points="120.51 299.56 120.51 303.13 103.2 320.44 103.2 313.86 117.49 299.56 120.51 299.56" style="fill:#455a64"></polygon><polygon points="120.51 320.94 120.51 324.24 116.34 328.4 113.05 328.4 120.51 320.94" style="fill:#455a64"></polygon><polygon points="109.03 299.56 103.2 305.39 103.2 302.1 105.72 299.56 109.03 299.56" style="fill:#455a64"></polygon><polygon points="120.51 315.78 120.51 316.84 108.94 328.4 107.89 328.4 120.51 315.78" style="fill:#455a64"></polygon></g><rect x="100.95" y="316.52" width="21.8" height="2.47" style="fill:#455a64"></rect><rect x="138.15" y="297.08" width="21.8" height="33.79" style="fill:#455a64"></rect><rect x="140.4" y="299.56" width="17.31" height="28.84" style="fill:#37474f"></rect><rect x="135.03" y="330.88" width="28.04" height="4.86" style="fill:#FFC727"></rect><g style="opacity:0.5"><polygon points="157.71 299.56 157.71 303.13 140.4 320.44 140.4 313.86 154.69 299.56 157.71 299.56" style="fill:#455a64"></polygon><polygon points="157.71 320.94 157.71 324.24 153.54 328.4 150.25 328.4 157.71 320.94" style="fill:#455a64"></polygon><polygon points="146.23 299.56 140.4 305.39 140.4 302.1 142.93 299.56 146.23 299.56" style="fill:#455a64"></polygon><polygon points="157.71 315.78 157.71 316.84 146.15 328.4 145.09 328.4 157.71 315.78" style="fill:#455a64"></polygon></g><rect x="138.15" y="316.52" width="21.8" height="2.47" style="fill:#455a64"></rect><rect x="45.38" y="221.02" width="128.7" height="7.03" style="fill:#FFC727"></rect><polygon points="174.08 291.33 49.63 291.33 49.63 293.04 174.08 292.18 174.08 291.33" style="fill:#FFC727;opacity:0.5"></polygon><rect x="49.63" y="288.95" width="124.46" height="2.38" style="fill:#fff"></rect><polygon points="164.95 228.05 174.08 228.05 174.08 369.12 171.15 369.12 164.95 228.05" style="fill:#FFC727;opacity:0.5"></polygon><rect x="325.92" y="228.05" width="124.46" height="141.07" transform="translate(776.29 597.17) rotate(180)" style="fill:#FFC727"></rect><rect x="325.92" y="228.05" width="124.46" height="141.07" transform="translate(776.29 597.17) rotate(180)" style="fill:#fff;opacity:0.7000000000000001"></rect><rect x="340.04" y="246.06" width="21.8" height="33.79" style="fill:#455a64"></rect><rect x="342.29" y="248.53" width="17.31" height="28.84" style="fill:#37474f"></rect><rect x="336.92" y="279.85" width="28.04" height="4.86" style="fill:#FFC727"></rect><g style="opacity:0.5"><polygon points="359.6 248.54 359.6 252.1 342.29 269.42 342.29 262.83 356.58 248.54 359.6 248.54" style="fill:#455a64"></polygon><polygon points="359.6 269.92 359.6 273.21 355.43 277.38 352.14 277.38 359.6 269.92" style="fill:#455a64"></polygon><polygon points="348.12 248.54 342.29 254.37 342.29 251.07 344.82 248.54 348.12 248.54" style="fill:#455a64"></polygon><polygon points="359.6 264.76 359.6 265.81 348.04 277.38 346.98 277.38 359.6 264.76" style="fill:#455a64"></polygon></g><rect x="340.04" y="265.5" width="21.8" height="2.47" style="fill:#455a64"></rect><rect x="377.24" y="246.06" width="21.8" height="33.79" style="fill:#455a64"></rect><rect x="379.49" y="248.53" width="17.31" height="28.84" style="fill:#37474f"></rect><rect x="374.12" y="279.85" width="28.04" height="4.86" style="fill:#FFC727"></rect><g style="opacity:0.5"><polygon points="396.8 248.54 396.8 252.1 379.49 269.42 379.49 262.83 393.78 248.54 396.8 248.54" style="fill:#455a64"></polygon><polygon points="396.8 269.92 396.8 273.21 392.63 277.38 389.34 277.38 396.8 269.92" style="fill:#455a64"></polygon><polygon points="385.32 248.54 379.49 254.37 379.49 251.07 382.02 248.54 385.32 248.54" style="fill:#455a64"></polygon><polygon points="396.8 264.76 396.8 265.81 385.24 277.38 384.18 277.38 396.8 264.76" style="fill:#455a64"></polygon></g><rect x="377.24" y="265.5" width="21.8" height="2.47" style="fill:#455a64"></rect><rect x="414.44" y="246.06" width="21.8" height="33.79" style="fill:#455a64"></rect><rect x="416.69" y="248.53" width="17.31" height="28.84" style="fill:#37474f"></rect><rect x="411.32" y="279.85" width="28.04" height="4.86" style="fill:#FFC727"></rect><g style="opacity:0.5"><polygon points="434 248.54 434 252.1 416.69 269.42 416.69 262.83 430.98 248.54 434 248.54" style="fill:#455a64"></polygon><polygon points="434 269.92 434 273.21 429.83 277.38 426.54 277.38 434 269.92" style="fill:#455a64"></polygon><polygon points="422.52 248.54 416.69 254.37 416.69 251.07 419.22 248.54 422.52 248.54" style="fill:#455a64"></polygon><polygon points="434 264.76 434 265.81 422.44 277.38 421.38 277.38 434 264.76" style="fill:#455a64"></polygon></g><rect x="414.44" y="265.5" width="21.8" height="2.47" style="fill:#455a64"></rect><rect x="340.04" y="297.08" width="21.8" height="33.79" style="fill:#455a64"></rect><rect x="342.29" y="299.56" width="17.31" height="28.84" style="fill:#37474f"></rect><rect x="336.92" y="330.88" width="28.04" height="4.86" style="fill:#FFC727"></rect><g style="opacity:0.5"><polygon points="359.6 299.56 359.6 303.13 342.29 320.44 342.29 313.86 356.58 299.56 359.6 299.56" style="fill:#455a64"></polygon><polygon points="359.6 320.94 359.6 324.24 355.43 328.4 352.14 328.4 359.6 320.94" style="fill:#455a64"></polygon><polygon points="348.12 299.56 342.29 305.39 342.29 302.1 344.82 299.56 348.12 299.56" style="fill:#455a64"></polygon><polygon points="359.6 315.78 359.6 316.84 348.04 328.4 346.98 328.4 359.6 315.78" style="fill:#455a64"></polygon></g><rect x="340.04" y="316.52" width="21.8" height="2.47" style="fill:#455a64"></rect><rect x="377.24" y="297.08" width="21.8" height="33.79" style="fill:#455a64"></rect><rect x="379.49" y="299.56" width="17.31" height="28.84" style="fill:#37474f"></rect><rect x="374.12" y="330.88" width="28.04" height="4.86" style="fill:#FFC727"></rect><g style="opacity:0.5"><polygon points="396.8 299.56 396.8 303.13 379.49 320.44 379.49 313.86 393.78 299.56 396.8 299.56" style="fill:#455a64"></polygon><polygon points="396.8 320.94 396.8 324.24 392.63 328.4 389.34 328.4 396.8 320.94" style="fill:#455a64"></polygon><polygon points="385.32 299.56 379.49 305.39 379.49 302.1 382.02 299.56 385.32 299.56" style="fill:#455a64"></polygon><polygon points="396.8 315.78 396.8 316.84 385.24 328.4 384.18 328.4 396.8 315.78" style="fill:#455a64"></polygon></g><rect x="377.24" y="316.52" width="21.8" height="2.47" style="fill:#455a64"></rect><rect x="414.44" y="297.08" width="21.8" height="33.79" style="fill:#455a64"></rect><rect x="416.69" y="299.56" width="17.31" height="28.84" style="fill:#37474f"></rect><rect x="411.32" y="330.88" width="28.04" height="4.86" style="fill:#FFC727"></rect><g style="opacity:0.5"><polygon points="434 299.56 434 303.13 416.69 320.44 416.69 313.86 430.98 299.56 434 299.56" style="fill:#455a64"></polygon><polygon points="434 320.94 434 324.24 429.83 328.4 426.54 328.4 434 320.94" style="fill:#455a64"></polygon><polygon points="422.52 299.56 416.69 305.39 416.69 302.1 419.22 299.56 422.52 299.56" style="fill:#455a64"></polygon><polygon points="434 315.78 434 316.84 422.44 328.4 421.38 328.4 434 315.78" style="fill:#455a64"></polygon></g><rect x="414.44" y="316.52" width="21.8" height="2.47" style="fill:#455a64"></rect><rect x="325.92" y="221.02" width="128.7" height="7.03" transform="translate(780.54 449.07) rotate(180)" style="fill:#FFC727"></rect><rect x="325.92" y="347.79" width="124.46" height="21.33" style="fill:#FFC727;opacity:0.5"></rect><polygon points="450.37 291.33 325.92 291.33 325.92 293.04 450.37 292.18 450.37 291.33" style="fill:#FFC727;opacity:0.5"></polygon><rect x="325.92" y="288.95" width="124.46" height="2.38" style="fill:#fff"></rect><polygon points="335.05 228.05 325.92 228.05 325.92 369.12 328.85 369.12 335.05 228.05" style="fill:#FFC727;opacity:0.5"></polygon><rect x="191.66" y="154.44" width="116.69" height="22.73" style="fill:#FFC727"></rect><rect x="191.65" y="174.44" width="116.69" height="0.5" style="fill:#fff"></rect><rect x="191.65" y="156.67" width="116.69" height="0.5" style="fill:#fff"></rect><path d="M203.12,169.9V162a.75.75,0,0,1,1.49,0v3.22h3.48V162a.73.73,0,0,1,.74-.74.75.75,0,0,1,.75.74v7.92a.74.74,0,0,1-.75.74.73.73,0,0,1-.74-.74v-3.22h-3.48v3.22a.75.75,0,0,1-1.49,0Z" style="fill:#fff"></path><path d="M212.07,162a.73.73,0,0,1,.74-.74.75.75,0,0,1,.75.74v7.92a.75.75,0,0,1-.75.74.73.73,0,0,1-.74-.74Z" style="fill:#fff"></path><path d="M215.65,165.82a4.89,4.89,0,0,1,5-4.84,4.94,4.94,0,0,1,3.06,1,.77.77,0,1,1-.94,1.21,3.52,3.52,0,0,0-2.12-.72,3.33,3.33,0,0,0-2.42,1,3.17,3.17,0,0,0,0,4.64,3.33,3.33,0,0,0,2.42,1,3.71,3.71,0,0,0,1.84-.51v-1.84h-1.92a.77.77,0,0,1-.77-.76.76.76,0,0,1,.77-.76h2.67a.76.76,0,0,1,.78.76v3a1.37,1.37,0,0,1,0,.23.21.21,0,0,0,0,.07h0a.6.6,0,0,1-.26.32,5,5,0,0,1-8-3.77Z" style="fill:#fff"></path><path d="M226.4,169.9V162a.73.73,0,0,1,.74-.74.75.75,0,0,1,.75.74v3.22h3.47V162a.75.75,0,0,1,1.49,0v7.92a.75.75,0,0,1-1.49,0v-3.22h-3.47v3.22a.74.74,0,0,1-.75.74A.73.73,0,0,1,226.4,169.9Z" style="fill:#fff"></path><path d="M239.65,168.3a.71.71,0,0,1,1-.09,4.35,4.35,0,0,0,2.57,1,3,3,0,0,0,1.68-.49,1.21,1.21,0,0,0,.57-1,.8.8,0,0,0-.12-.43,1.26,1.26,0,0,0-.4-.4,5.35,5.35,0,0,0-1.84-.63h0a6.87,6.87,0,0,1-1.73-.53,2.89,2.89,0,0,1-1.25-1,2.07,2.07,0,0,1-.31-1.1,2.46,2.46,0,0,1,1.08-2,3.94,3.94,0,0,1,2.32-.71,5.31,5.31,0,0,1,2.93,1.07.68.68,0,0,1,.18.95.67.67,0,0,1-.95.2,3.92,3.92,0,0,0-2.16-.86,2.55,2.55,0,0,0-1.5.46,1,1,0,0,0-.51.85.6.6,0,0,0,.09.37,1.34,1.34,0,0,0,.36.35,4.63,4.63,0,0,0,1.68.59h0a8,8,0,0,1,1.85.57,3,3,0,0,1,1.34,1.11,2.2,2.2,0,0,1,.33,1.14,2.6,2.6,0,0,1-1.16,2.08,4.16,4.16,0,0,1-2.48.77,5.82,5.82,0,0,1-3.44-1.35A.73.73,0,0,1,239.65,168.3Z" style="fill:#fff"></path><path d="M248.49,165.81a4.92,4.92,0,0,1,4.93-4.83,5,5,0,0,1,3.1,1,.8.8,0,0,1,.13,1.08.78.78,0,0,1-1.07.14,3.36,3.36,0,0,0-2.16-.73,3.55,3.55,0,0,0-2.42,1,3.35,3.35,0,0,0-1,2.34,3.27,3.27,0,0,0,1,2.33,3.56,3.56,0,0,0,2.42,1,3.41,3.41,0,0,0,2.16-.74.81.81,0,0,1,1.07.15.79.79,0,0,1-.13,1.07,5,5,0,0,1-3.1,1A4.91,4.91,0,0,1,248.49,165.81Z" style="fill:#fff"></path><path d="M259.26,169.9V162a.73.73,0,0,1,.74-.74.74.74,0,0,1,.75.74v3.22h3.48V162a.73.73,0,0,1,.74-.74.75.75,0,0,1,.75.74v7.92a.74.74,0,0,1-.75.74.73.73,0,0,1-.74-.74v-3.22h-3.48v3.22a.73.73,0,0,1-.75.74A.73.73,0,0,1,259.26,169.9Z" style="fill:#fff"></path><path d="M275.79,162.41a5,5,0,0,1,1.36,3.4,4.9,4.9,0,0,1-1.36,3.39,4.36,4.36,0,0,1-3.21,1.44,4.51,4.51,0,0,1-3.29-1.44,4.87,4.87,0,0,1-1.33-3.39,4.93,4.93,0,0,1,1.33-3.4,4.5,4.5,0,0,1,3.29-1.43A4.36,4.36,0,0,1,275.79,162.41Zm-.17,3.4a3.49,3.49,0,0,0-.92-2.35,2.9,2.9,0,0,0-4.29,0,3.4,3.4,0,0,0-.92,2.35,3.31,3.31,0,0,0,.92,2.33,2.86,2.86,0,0,0,4.29,0A3.4,3.4,0,0,0,275.62,165.81Z" style="fill:#fff"></path><path d="M287.07,162.41a5,5,0,0,1,1.36,3.4,4.9,4.9,0,0,1-1.36,3.39,4.36,4.36,0,0,1-3.21,1.44,4.5,4.5,0,0,1-3.28-1.44,4.83,4.83,0,0,1-1.33-3.39,4.89,4.89,0,0,1,1.33-3.4,4.49,4.49,0,0,1,3.28-1.43A4.36,4.36,0,0,1,287.07,162.41Zm-.17,3.4a3.48,3.48,0,0,0-.91-2.35,2.91,2.91,0,0,0-4.3,0,3.44,3.44,0,0,0-.91,2.35,3.35,3.35,0,0,0,.91,2.33,2.87,2.87,0,0,0,4.3,0A3.39,3.39,0,0,0,286.9,165.81Z" style="fill:#fff"></path><path d="M291,169.9V162a.74.74,0,0,1,.74-.74.75.75,0,0,1,.75.74v7.17h3.64a.75.75,0,0,1,0,1.49h-4.39A.74.74,0,0,1,291,169.9Z" style="fill:#fff"></path><g style="opacity:0.5"><rect x="58.61" y="339.44" width="8.12" height="2.8" style="fill:#FFC727"></rect><path d="M62.2,345.78c-2.4,0-5.73.11-8.11.11H54v-3h.13c2.39,0,5.76,0,8.11.06h.07V343l-.07,2.81Zm0,0L62.14,343l.06.07c-1.35,0-2.7,0-4.05,0l-4.06,0,.12-.13v2.81l-.11-.12c2.33,0,5.74.07,8.11.12Z" style="fill:#FFC727"></path><path d="M199.59,261.5c-2.41,0-5.74.11-8.12.11h-.11v-3h.13c2.39,0,5.76,0,8.12.06h.06v.06l-.06,2.81Zm0,0-.07-2.81.07.07c-1.36,0-2.71,0-4.06,0l-4.06,0,.12-.13v2.81l-.11-.12c2.33,0,5.75.08,8.12.12Z" style="fill:#FFC727"></path><rect x="186.94" y="262.23" width="8.12" height="2.8" style="fill:#FFC727"></rect><path d="M190.55,261.5c-2.41,0-5.74.11-8.12.11h-.11v-.11l0-2.81v-.12h.13c2.39,0,5.76,0,8.12.06h.06v.06l-.06,2.81Zm0,0-.07-2.81.07.07c-1.36,0-2.71,0-4.06,0l-4.06,0,.12-.13v2.81l-.11-.12c2.33,0,5.75.08,8.12.12Z" style="fill:#FFC727"></path><path d="M441.88,241.2c-2.41,0-5.74.12-8.12.11h-.11v-3h.13c2.39,0,5.76,0,8.12.07h.06v.06l-.06,2.8Zm0,0-.07-2.8.07.06-4.06,0h-4.06l.12-.12v2.8l-.11-.11c2.33,0,5.75.07,8.12.11Z" style="fill:#FFC727"></path><path d="M441.88,298.49c-2.41,0-5.74.12-8.12.12h-.11v-3.05h.13c2.39,0,5.76,0,8.12.07h.06v.06l-.06,2.8Zm0,0-.07-2.8.07.06-4.06.05h-4.06l.12-.12v2.8l-.11-.11c2.33,0,5.75.07,8.12.11Z" style="fill:#FFC727"></path><rect x="438.23" y="234.85" width="8.12" height="2.8" style="fill:#FFC727"></rect><rect x="335.44" y="240.66" width="8.12" height="2.8" style="fill:#FFC727"></rect><path d="M343.59,345.05c-2.41,0-5.74.12-8.12.11h-.11v-.11l0-2.8v-.13h.13c2.39,0,5.76,0,8.12.06h.06v.07l-.06,2.8Zm0,0-.07-2.8.07.06c-1.36,0-2.71,0-4.06,0l-4.06,0,.12-.12v2.8l-.11-.12c2.33,0,5.75.08,8.12.12Z" style="fill:#FFC727"></path><rect x="339.94" y="338.7" width="8.12" height="2.8" style="fill:#FFC727"></rect><path d="M437.33,237.66c-2.4,0-5.73.12-8.11.11h-.12v-3h.13c2.39,0,5.76,0,8.11.06h.07v.06l-.07,2.8Zm0,0-.06-2.8.06.06-4.05.05h-4.06l.12-.12v2.8l-.11-.11c2.33,0,5.74.07,8.11.11Z" style="fill:#FFC727"></path><path d="M102.84,267.14c-2.41,0-5.74.12-8.12.12h-.11v-3h.13c2.39,0,5.76,0,8.12.06h.06v.06l-.06,2.8Zm0,0-.06-2.8.06.06-4.06.05-4.06,0,.13-.13,0,2.8-.11-.11c2.33,0,5.75.07,8.12.11Z" style="fill:#FFC727"></path><path d="M195.09,344.08c-2.41,0-5.74.12-8.12.11h-.11v-3H187c2.39,0,5.76,0,8.12.06h.06v.07l-.06,2.8Zm0,0-.06-2.8.06.06-4.06.05H187l.13-.12,0,2.8L187,344c2.33,0,5.75.07,8.12.11Z" style="fill:#FFC727"></path><path d="M93.8,267.14c-2.41,0-5.74.12-8.12.12h-.11v-3h.12c2.39,0,5.76,0,8.12.06h.06v.06l-.06,2.8Zm0,0-.06-2.8.06.06-4.06.05-4.06,0,.13-.13,0,2.8-.11-.11c2.33,0,5.75.07,8.12.11Z" style="fill:#FFC727"></path><path d="M310.59,315.39c-2.4,0-5.74.11-8.11.11h-.12v-3h.13c2.39,0,5.75,0,8.11.06h.07v.06l-.07,2.81Zm0,0-.06-2.81.06.07c-1.35,0-2.7,0-4.06,0l-4,0,.12-.13v2.81l-.11-.12c2.33,0,5.74.08,8.11.12Z" style="fill:#FFC727"></path><path d="M310.59,200.36c-2.4,0-5.74.12-8.11.11h-.12v-3h.13c2.39,0,5.75,0,8.11.06h.07v.06l-.07,2.8Zm0,0-.06-2.8.06.06-4.06,0h-4l.12-.12v2.8l-.11-.11c2.33,0,5.74.07,8.11.11Z" style="fill:#FFC727"></path><rect x="307" y="201.09" width="8.12" height="2.8" style="fill:#FFC727"></rect><rect x="125.88" y="232.52" width="8.12" height="2.8" style="fill:#FFC727"></rect></g></g><g id="freepik--Floor--inject-249"><path d="M34.57,376.63c138-.61,292.84-.61,430.86,0-138,.62-292.84.62-430.86,0Z" style="fill:#263238"></path><path d="M34.57,459.43c138-.61,292.84-.62,430.86,0-138,.62-292.84.61-430.86,0Z" style="fill:#263238"></path><rect x="41.36" y="369.13" width="417.27" height="7.27" style="fill:#c7c7c7"></rect><path d="M70.62,369.13a13.73,13.73,0,0,1,0,7.27,12,12,0,0,1-.5-3.63A12.34,12.34,0,0,1,70.62,369.13Z" style="fill:#263238"></path><path d="M103.23,369.13a12.34,12.34,0,0,1,.5,3.64,12,12,0,0,1-.5,3.63,13.73,13.73,0,0,1,0-7.27Z" style="fill:#263238"></path><path d="M135.85,369.13a13.73,13.73,0,0,1,0,7.27,12,12,0,0,1-.5-3.63A12.34,12.34,0,0,1,135.85,369.13Z" style="fill:#263238"></path><path d="M168.46,369.13a12.34,12.34,0,0,1,.5,3.64,12,12,0,0,1-.5,3.63,13.73,13.73,0,0,1,0-7.27Z" style="fill:#263238"></path><path d="M201.08,369.13a13.73,13.73,0,0,1,0,7.27,12,12,0,0,1-.5-3.63A12.34,12.34,0,0,1,201.08,369.13Z" style="fill:#263238"></path><path d="M233.69,369.13a12.34,12.34,0,0,1,.5,3.64,12,12,0,0,1-.5,3.63,13.73,13.73,0,0,1,0-7.27Z" style="fill:#263238"></path><path d="M266.31,369.13a13.73,13.73,0,0,1,0,7.27,12,12,0,0,1-.5-3.63A12.34,12.34,0,0,1,266.31,369.13Z" style="fill:#263238"></path><path d="M298.92,369.13a12.34,12.34,0,0,1,.5,3.64,12,12,0,0,1-.5,3.63,13.73,13.73,0,0,1,0-7.27Z" style="fill:#263238"></path><path d="M331.54,369.13a13.73,13.73,0,0,1,0,7.27,12,12,0,0,1-.5-3.63A12.34,12.34,0,0,1,331.54,369.13Z" style="fill:#263238"></path><path d="M364.15,369.13a12.34,12.34,0,0,1,.5,3.64,12,12,0,0,1-.5,3.63,13.73,13.73,0,0,1,0-7.27Z" style="fill:#263238"></path><path d="M396.77,369.13a13.73,13.73,0,0,1,0,7.27,12,12,0,0,1-.5-3.63A12.34,12.34,0,0,1,396.77,369.13Z" style="fill:#263238"></path><path d="M429.38,369.13a12.34,12.34,0,0,1,.5,3.64,12,12,0,0,1-.5,3.63,13.73,13.73,0,0,1,0-7.27Z" style="fill:#263238"></path><polygon points="220.13 376.63 279.87 376.63 392.74 459.43 107.33 459.43 220.13 376.63" style="fill:#ebebeb"></polygon></g><g id="freepik--Plants--inject-249"><path d="M88.42,369.13s-.84-3.92-2.52-4.53-2.71,1.16-2.71,1.16-.39-3.76-2.78-4.88-4.17,1.18-4.17,1.18-1.83-4.76-5.1-4.76-4.91,7-4.91,7-1.93-2.07-3.91-.9-2,5.77-2,5.77Z" style="fill:#37474f"></path><path d="M367.26,369.13s-.84-3.92-2.52-4.53-2.7,1.16-2.7,1.16-.4-3.76-2.78-4.88-4.17,1.18-4.17,1.18-1.83-4.76-5.1-4.76-4.92,7-4.92,7-1.92-2.07-3.9-.9-2,5.77-2,5.77Z" style="fill:#455a64"></path><path d="M162.7,369.13H133.15s1-4.16,2.93-4.46a2.91,2.91,0,0,1,2.88,1.64s-.09-5.81,3.57-6.8,6.72,4.14,6.72,4.14,2.3-2.92,5.42-2.74,3.93,5,3.93,5S161.44,364.26,162.7,369.13Z" style="fill:#37474f"></path><path d="M62.16,369.13H46.61s0-2.31,1.56-2.93a2.09,2.09,0,0,1,2.44.59s.62-4.26,3.47-4.26,4.22,3.67,4.22,3.67a2.18,2.18,0,0,1,2.22-.9C62.1,365.51,62.16,369.13,62.16,369.13Z" style="fill:#455a64"></path><path d="M174.9,369.13H159.35s0-2.31,1.56-2.93a2.09,2.09,0,0,1,2.44.59s.63-4.26,3.48-4.26S171,366.2,171,366.2a2.18,2.18,0,0,1,2.22-.9C174.84,365.51,174.9,369.13,174.9,369.13Z" style="fill:#455a64"></path><path d="M430.7,369.13H415.15s0-2.31,1.56-2.93a2.09,2.09,0,0,1,2.44.59s.62-4.26,3.47-4.26,4.22,3.67,4.22,3.67a2.17,2.17,0,0,1,2.22-.9C430.64,365.51,430.7,369.13,430.7,369.13Z" style="fill:#455a64"></path><path d="M453.39,369.13H427.75s.06-3.81,2.58-4.83a3.44,3.44,0,0,1,4,1s1-7,5.73-7S447,364.3,447,364.3a3.6,3.6,0,0,1,3.66-1.49C453.29,363.15,453.39,369.13,453.39,369.13Z" style="fill:#37474f"></path></g><g id="freepik--Character--inject-249"><path d="M386.16,210.43c.5.77,47.9,7.37,50.23,6.93a1.58,1.58,0,0,0,.33-.11c2.92-1.05,17-11.75,18.09-12.66,2-1.68-8.87-33.7-18.39-53.05-3.18-6.45-8.64-12.16-10.18-14s-31-5.24-36.51-3.33c-2.35.82-8.37,5.91-8.62,6.9v0C380.83,142.59,385.66,209.65,386.16,210.43Z" style="fill:#455a64"></path><path d="M386.16,210.43c.5.77,47.9,7.37,50.23,6.93a1.58,1.58,0,0,0,.33-.11c-3.41-12.76-19.43-72.64-20-73.07s-28.8-2.9-35.6-3C380.83,142.59,385.66,209.65,386.16,210.43Z" style="fill:#263238"></path><path d="M410.54,138.45c.51-.4,1.43-6.84.68-8.21-.84-1.54-12.23-1.88-13-.71s-1.7,7.6-1.38,7.86,2.18.67,2.48.28.77-5.74,1-6,8.2,0,8.44.39-.94,5.78-.64,6S410,138.84,410.54,138.45Z" style="fill:#37474f"></path><path d="M411.77,188.37S388.65,304.49,387,313.06C386.65,315,388,419,388,419H345S340.88,328.16,343,311s28.26-122.66,28.26-122.66Z" style="fill:#f7a9a0"></path><path d="M411.78,188.37s-11.25,56.52-18.62,93.6l-22-93.6Z" style="opacity:0.1"></path><polygon points="356.63 246.43 402.32 251.92 411.77 188.37 371.21 188.37 356.63 246.43" style="fill:#37474f"></polygon><path d="M400.61,243.15c-4.88-1-9.84-1.58-14.78-2.14s-9.8-1.08-14.7-1.59c-2.8-.28-5.62-.56-8.43-.71a.13.13,0,1,0,0,.26c4.89.91,9.86,1.48,14.79,2.13s9.77,1.26,14.67,1.78c2.81.3,5.62.54,8.44.65A.19.19,0,1,0,400.61,243.15Z" style="fill:#263238"></path><path d="M405.45,192.08q-5.08,18.24-9.71,36.63c-.44,1.71-.85,3.44-1.27,5.16a51.59,51.59,0,0,0-1.14,5.33.08.08,0,0,0,.16,0,90.57,90.57,0,0,0,2.67-9.2c.82-3,1.6-6.08,2.39-9.13,1.57-6.09,3.14-12.19,4.62-18.31q1.26-5.22,2.51-10.47C405.72,192,405.5,191.93,405.45,192.08Z" style="fill:#263238"></path><path d="M313.23,458.9c2.37.79,70.13.59,72.71-1,1-.61,1.53-10.49,1.85-22.43.07-2.58.12-5.24.16-7.95.05-3.21.1-6.45.12-9.6.08-14.15-.43-26.61-.43-26.61h-43.8l0,26.61v9.6l.23,7.95s-25.91,11.68-28.54,13.79S310.87,458.12,313.23,458.9Z" style="fill:#f7a9a0"></path><path d="M313.23,458.9c2.37.79,70.13.59,72.71-1,1-.61,1.53-10.49,1.85-22.43.07-2.58.12-5.24.16-7.95.05-3.21.1-6.45.12-9.6H343.86v9.6l.23,7.95s-25.91,11.68-28.54,13.79S310.87,458.12,313.23,458.9Z" style="fill:#dbdbdb"></path><path d="M313,459c1.55.51,30.41.61,51.42.18,4.87-.11,9.31-.24,12.9-.4,4.94-.22,8.26-.49,8.8-.84,1.19-.76,1.76-15.26,2-30.55H343.84l.23,8s-26.05,11.74-28.7,13.86S310.65,458.2,313,459Z" style="fill:#FFC727"></path><path d="M314,456.27c11.43-.31,57.52-.5,68.83.06.09,0,.09.07,0,.07-11.31.56-57.4.37-68.83.06C313.75,456.45,313.75,456.28,314,456.27Z" style="fill:#263238"></path><path d="M342.45,432.86c4.49-.86,10-.18,13.44,3,.13.12-.05.31-.19.27a63.46,63.46,0,0,0-13.23-2.72A.28.28,0,0,1,342.45,432.86Z" style="fill:#263238"></path><path d="M339.21,434.82c4.5-.85,10-.18,13.44,3,.13.13,0,.32-.19.27a63.31,63.31,0,0,0-13.23-2.71A.29.29,0,0,1,339.21,434.82Z" style="fill:#263238"></path><path d="M336,436.78c4.49-.85,10-.17,13.43,3,.13.12,0,.31-.19.26A63.31,63.31,0,0,0,336,437.35.29.29,0,0,1,336,436.78Z" style="fill:#263238"></path><path d="M332.74,438.75c4.49-.85,10-.18,13.43,3,.13.13,0,.31-.19.27a62.71,62.71,0,0,0-13.22-2.71A.29.29,0,0,1,332.74,438.75Z" style="fill:#263238"></path><path d="M336.15,428.88c3.19,2.46,7.33,3.46,11.05,4.82.38.15.69-.22.7-.56a.12.12,0,0,0,.1-.16,24,24,0,0,0-6.95-10.28c-1.88-1.57-5.17-2.65-6.93-.21S334.29,427.44,336.15,428.88ZM335,425.27c-.81-4.93,4.49-2.36,5.83-1.14a24.07,24.07,0,0,1,2.39,2.56,71.82,71.82,0,0,1,4.2,5.91c-1.79-.78-3.62-1.4-5.43-2.11C339.83,429.63,335.44,428,335,425.27Z" style="fill:#263238"></path><path d="M363,426.09c-1.1-2.8-4.55-2.57-6.77-1.52a24,24,0,0,0-9.29,8.21c-.06.08,0,.15.06.19a.55.55,0,0,0,.54.72c3.94-.4,8.19-.33,11.89-1.92C361.58,430.84,364,428.74,363,426.09Zm-9.61,5.78c-1.94.24-3.87.38-5.79.7a72.36,72.36,0,0,1,5.53-4.68,25.56,25.56,0,0,1,3-1.89c1.6-.84,7.38-2,5.36,2.56C360.34,431.08,355.68,431.58,353.38,431.87Z" style="fill:#263238"></path><path d="M388.09,431.67c-.29,13.62-.86,25.58-1.95,26.27-.54.35-3.85.61-8.8.84-3.59.16-8,.3-12.89.39-3.92.08-8.11.15-12.34.19Z" style="opacity:0.1"></path><path d="M399.5,413.6l44.16-.56S435,262.33,431.21,231c0,0,7.17-17-6.25-42.64H371.17s3.6,24.41,9.77,39.89c0,0,4,1.07,11.26,5.08Z" style="fill:#f7a9a0"></path><path d="M393,252.26h42.26L432,231s6.42-21.61-6.12-42.64H371.17s2.27,22.9,9,40.12L387,231.5Z" style="fill:#37474f"></path><path d="M387,231.5c-.06-.27-.61-.26-.56,0,2.23,12.56,5.74,18.64,6,19.21,0,.08.14.08.16,0C392.82,250.12,388,236.72,387,231.5Z" style="fill:#263238"></path><path d="M378.9,227.6a89.55,89.55,0,0,1,14,6.52.16.16,0,0,1-.13.29c-4.72-2-9.53-4-14.13-6.25A.31.31,0,0,1,378.9,227.6Z" style="fill:#263238"></path><path d="M377.4,195.23c0-.16.3-.19.3,0a157.29,157.29,0,0,0,.79,15.76c.22,2.43,2.18,15.86,6.39,14.88.71-.16,1.07-.86,1.18-1.92a17.1,17.1,0,0,0-.56-4.12c-.47-2.81-.85-5.63-1.09-8.47a77.32,77.32,0,0,1,.17-15.88.14.14,0,0,1,.28,0,144.84,144.84,0,0,0,1.28,21.93c.53,3.49,2.28,8.75-1.37,9.29s-6.13-8.26-6.58-10.67A80.42,80.42,0,0,1,377.4,195.23Z" style="fill:#263238"></path><path d="M384.77,226.21a24.61,24.61,0,0,1,1,2.78,6.49,6.49,0,0,1,.39,2.29.16.16,0,0,1-.29.06,7.63,7.63,0,0,1-1-2.22c-.32-.86-.66-1.72-1-2.59A.47.47,0,0,1,384.77,226.21Z" style="fill:#263238"></path><path d="M424,211.66c-4-.4-8.08-.35-11.77-2.13s-6.14-5.36-8-8.93a29.26,29.26,0,0,1-2.65-7c0-.11-.2-.08-.19,0a19.62,19.62,0,0,0,1.62,6.61,29.81,29.81,0,0,0,3.16,5.86,14.39,14.39,0,0,0,4.55,4.27,15.67,15.67,0,0,0,6,1.8,33.63,33.63,0,0,0,7.37,0A.23.23,0,0,0,424,211.66Z" style="fill:#263238"></path><path d="M429.46,235.45a37.64,37.64,0,0,1-1.19-5.94c-.11-2,1-3.71,1.55-5.55,2.34-7.16,1.39-15-1.16-21.94a78.71,78.71,0,0,0-5.5-11.45c-.05-.1-.19,0-.14.09,3.49,6.8,6.57,14.07,7.25,21.76a29.33,29.33,0,0,1-1,11c-.51,1.69-1.49,3.32-1.63,5.1a18.48,18.48,0,0,0,.87,5.55c.51,2.22,2.07,9,2.75,11.21.06.19.4.15.37-.06C431.3,243.24,429.91,237.51,429.46,235.45Z" style="fill:#263238"></path><path d="M432.5,246.74c-5-.36-10-.36-14.94-.31s-9.85.12-14.77.23c-2.82.06-5.65.12-8.46.32-.19,0-.18.25,0,.26,5,.31,10,.27,14.93.31s9.85,0,14.78,0c2.83-.05,5.64-.16,8.46-.39A.2.2,0,1,0,432.5,246.74Z" style="fill:#263238"></path><path d="M368.42,458.58c2.37.81,70.12,1.28,72.72-.33,1-.6,1.63-10.47,2.07-22.41.1-2.58.18-5.24.24-7.95.09-3.2.16-6.45.21-9.6a179.83,179.83,0,0,0-2-27.8l-42,.75-.24,26.61-.08,9.6.15,7.95s-26,11.43-28.68,13.51S366.07,457.78,368.42,458.58Z" style="fill:#f7a9a0"></path><path d="M368.42,458.58c2.37.81,70.12,1.28,72.72-.33,1-.6,1.63-10.47,2.07-22.41.1-2.58.18-5.24.24-7.95.09-3.2.16-6.45.21-9.6l-44.2-.44-.08,9.6.15,7.95s-26,11.43-28.68,13.51S366.07,457.78,368.42,458.58Z" style="fill:#dbdbdb"></path><path d="M368.22,458.68c1.54.52,30.39.91,51.41.68,4.86-.05,9.31-.14,12.9-.26,5-.18,8.27-.42,8.81-.75,1.2-.76,1.91-15.25,2.34-30.53l-44.33-.44.15,8S373.33,446.86,370.66,449,365.85,457.86,368.22,458.68Z" style="fill:#FFC727"></path><path d="M369.21,456c11.43-.2,57.52.07,68.83.74.09,0,.09.07,0,.07-11.32.45-57.41-.2-68.83-.62C369,456.14,369,456,369.21,456Z" style="fill:#263238"></path><path d="M397.9,432.82c4.5-.8,10-.07,13.41,3.15.13.13-.05.31-.2.27a63.2,63.2,0,0,0-13.19-2.85A.29.29,0,0,1,397.9,432.82Z" style="fill:#263238"></path><path d="M394.64,434.76c4.5-.81,10-.08,13.41,3.14.13.13-.05.32-.19.27a63.29,63.29,0,0,0-13.2-2.85A.28.28,0,0,1,394.64,434.76Z" style="fill:#263238"></path><path d="M391.39,436.69c4.5-.81,10-.08,13.4,3.15.13.12-.05.31-.19.26a63.27,63.27,0,0,0-13.2-2.84A.29.29,0,0,1,391.39,436.69Z" style="fill:#263238"></path><path d="M388.13,438.62c4.5-.81,10-.08,13.4,3.15.13.12,0,.31-.19.26a63.27,63.27,0,0,0-13.2-2.84A.29.29,0,0,1,388.13,438.62Z" style="fill:#263238"></path><path d="M391.64,428.79c3.16,2.49,7.3,3.53,11,4.93.38.15.69-.21.71-.56a.11.11,0,0,0,.1-.16,24,24,0,0,0-6.85-10.34c-1.86-1.59-5.14-2.71-6.93-.29S389.8,427.33,391.64,428.79Zm-1.12-3.63c-.75-4.93,4.52-2.31,5.85-1.08a25.17,25.17,0,0,1,2.36,2.59,71.06,71.06,0,0,1,4.14,5.95c-1.78-.8-3.61-1.44-5.41-2.17C395.31,429.58,390.94,427.88,390.52,425.16Z" style="fill:#263238"></path><path d="M418.51,426.26c-1.07-2.81-4.53-2.62-6.76-1.59a23.91,23.91,0,0,0-9.37,8.13c-.06.08,0,.15.06.18a.56.56,0,0,0,.53.73c3.94-.36,8.2-.25,11.91-1.8C417.05,431,419.51,428.92,418.51,426.26ZM408.84,432c-1.94.22-3.87.34-5.8.64,1.84-1.58,3.59-3.23,5.58-4.63a26.07,26.07,0,0,1,3-1.86c1.6-.82,7.39-1.93,5.34,2.62C415.8,431.23,411.14,431.68,408.84,432Z" style="fill:#263238"></path><path d="M376.15,111.24c-.39,3.88-.79,7.77-1,11.66-.14,2.38-.12,4.73,0,7.09a15.91,15.91,0,0,0,2.75,2.32c0-.6-.05-1.2-.07-1.78-.11-2.82,0-5.61.18-8.42,0-.1.14-.07.14,0-.07,2.9.08,5.82.26,8.72,0,.63.1,1.26.16,1.88a22.35,22.35,0,0,0,3,1.53c-.06-.69-.1-1.38-.15-2.06-.12-1.59-.2-3.19-.24-4.79a82.74,82.74,0,0,1,.32-9.45c0-.13.19-.09.18,0-.08,3.24-.06,6.5.07,9.74.07,1.53.15,3.07.27,4.6.06.73.15,1.47.22,2.2a36.13,36.13,0,0,0,5.83,1.71c5.67,1.19,11.72.4,17.29-1.06a31.21,31.21,0,0,0,13.18-7,29.39,29.39,0,0,1-3.58-7.61.07.07,0,0,1,.13,0q1.2,2.53,2.59,5c.44.76.92,1.48,1.39,2.22.05-.06.11-.11.16-.16.37-.36.75-.73,1.12-1.14a47,47,0,0,1-2.44-4.73,42.85,42.85,0,0,1-2.66-7.06c0-.16.16-.25.23-.1,1,2.24,2,4.5,3,6.72.74,1.56,1.57,3.07,2.35,4.61a6.23,6.23,0,0,0,1.79-4.58,11.92,11.92,0,0,0-1.51-4.06,46.66,46.66,0,0,1-1.9-4.42c-1.16-3.1-4.67-27.18-13-26.54,0-.07-13-10.56-20.65-4.43-12.18,9.74-14.17,37.79-13.81,40.94a12.42,12.42,0,0,0,2.59,6.35c-.07-2,0-4,.13-5.93a120,120,0,0,1,1.5-12A.09.09,0,1,1,376.15,111.24Z" style="fill:#263238"></path><path d="M381.6,134.37c-9.14,8.22-42.19,41.74-39.41,52.82,2.58,10.3,12.19,12,18.47,6.45,9.1-8.1,23.51-39.63,27.14-49.32C391.25,135.1,390.59,126.29,381.6,134.37Z" style="fill:#f7a9a0"></path><path d="M378.79,168.45l-27.91-10s24-22.08,32.89-26.59c10-5.06,10.4,1.16,7.17,11.32S378.79,168.45,378.79,168.45Z" style="fill:#FFC727"></path><path d="M356.59,154.89c1,.2,9.76,3.18,11.65,3.87s9.63,3.43,11.51,4.31a.07.07,0,0,1,0,.14c-2-.5-9.82-3.25-11.76-3.91s-10.53-3.81-11.42-4.28C356.45,155,356.52,154.88,356.59,154.89Z" style="fill:#263238"></path><path d="M390.94,143.17c-3.23,10.16-12.15,25.28-12.15,25.28l-18.27-6.55L391,130.36C393.61,131.59,393,136.54,390.94,143.17Z" style="opacity:0.1"></path><path d="M430.59,196.82l-62.85-.19,6-23.25s-5.24-6.56-3.52-13.16C372.67,151,386.43,133,387.6,132c4.71-4,12.22-4.21,15.56-.78C423.08,151.67,430.59,196.82,430.59,196.82Z" style="fill:#FFC727"></path><path d="M392.11,168a58.61,58.61,0,0,0-8.72,1.48c-1.42.37-2.81.81-4.2,1.28-.69.23-1.39.44-2.09.64a9.15,9.15,0,0,1-2.25.44c-.07,0-.06.11,0,.11a15.69,15.69,0,0,0,2.17-.06,14.69,14.69,0,0,0,2.06-.4c1.44-.36,2.87-.79,4.31-1.17,2.9-.76,5.81-1.53,8.76-2.08A.12.12,0,0,0,392.11,168Z" style="fill:#263238"></path><path d="M399.4,170.55a66,66,0,0,0-7.3-.31c-1.22,0-2.43.11-3.64.24l-1.73.2c-.64.09-1.26.26-1.9.33-.06,0-.06.12,0,.11.6-.05,1.21,0,1.81,0l1.82-.06c1.22,0,2.43-.06,3.65-.11,2.43-.1,4.85-.17,7.28-.18C399.53,170.75,399.52,170.56,399.4,170.55Z" style="fill:#263238"></path><path d="M402.19,139.41c3.42,11.81,21.91,57.4,32.16,59.62s18.44.13,18.26-8.28c-.19-9.15-31.62-45.11-38.76-52.59C407.05,131,398.83,127.81,402.19,139.41Z" style="fill:#f7a9a0"></path><path d="M409.21,168.93l28.84-6.87S416.63,137.47,408.3,132c-9.39-6.14-10.48,0-8.38,10.46S409.21,168.93,409.21,168.93Z" style="fill:#FFC727"></path><path d="M432.75,157.69c-1,.08-10.05,2.09-12,2.56s-9.94,2.35-11.92,3a.07.07,0,0,0,0,.14c2-.28,10.12-2.14,12.12-2.59s10.88-2.62,11.83-3C432.88,157.79,432.82,157.69,432.75,157.69Z" style="fill:#263238"></path><path d="M411.8,168.31c-.89.32-1.8.59-2.7.88L409,169a79.16,79.16,0,0,1-7.39-20l3.95,9.89c1.14,2.93,2.77,7,3.84,9.93l-.25-.12c.88-.14,1.75-.3,2.64-.41Z" style="fill:#263238"></path><path d="M400.88,151.22a10.81,10.81,0,0,1,2.74,3.88,5.83,5.83,0,0,1-2.74-3.88Z" style="fill:#263238"></path><path d="M401.74,131.59c-.41,1.15-6.82,8.14-12.14,7.3-1.74-.27-.66-9.8-.66-9.8l-.08-.72-1.14-10.1,12.4-6.17,1.78-.8s.12,2.78.25,6.25c0,.16,0,.32,0,.49s0,.38,0,.57c0,.51.05,1,.07,1.57s0,.79,0,1.21,0,.84,0,1.26A66.17,66.17,0,0,1,401.74,131.59Z" style="fill:#f7a9a0"></path><path d="M402.15,117.55a20.38,20.38,0,0,1-13.29,10.82l-1.14-10.1,12.4-6.17,1.78-.8S402,114.08,402.15,117.55Z" style="fill:#263238"></path><path d="M375.9,101.22c-3.32,17.53,6.8,21.49,10.58,22.21,3.44.64,15.2,2.41,20.32-14.68s-2-24.18-9.76-26.07S379.22,83.69,375.9,101.22Z" style="fill:#f7a9a0"></path><path d="M381.79,98.44c.42,0,.81-.06,1.23-.1a2,2,0,0,0,1.23-.34.64.64,0,0,0,.1-.77,1.56,1.56,0,0,0-1.49-.56,2.25,2.25,0,0,0-1.54.63A.67.67,0,0,0,381.79,98.44Z" style="fill:#263238"></path><path d="M394.18,100.64a10.52,10.52,0,0,1-1.15-.44,2,2,0,0,1-1.09-.68.64.64,0,0,1,.12-.76,1.56,1.56,0,0,1,1.59-.12,2.38,2.38,0,0,1,1.31,1A.68.68,0,0,1,394.18,100.64Z" style="fill:#263238"></path><path d="M390.91,104.46s.09.08.08.12c-.22,1.2-.27,2.61.75,3.17,0,0,0,.08,0,.06C390.43,107.43,390.51,105.56,390.91,104.46Z" style="fill:#263238"></path><path d="M392.17,103.37c2,.15,1.52,4-.29,3.91S390.54,103.25,392.17,103.37Z" style="fill:#263238"></path><path d="M392.92,103.66c.31.26.6.69,1,.78s.87-.27,1.23-.63c0,0,.06,0,.06,0-.07.75-.45,1.48-1.26,1.51s-1.19-.7-1.29-1.48C392.65,103.75,392.79,103.56,392.92,103.66Z" style="fill:#263238"></path><path d="M383.56,103.15c0-.05-.1,0-.1.09-.09,1.22-.39,2.59-1.53,2.88,0,0,0,.07,0,.07C383.29,106.14,383.68,104.31,383.56,103.15Z" style="fill:#263238"></path><path d="M382.62,101.77c-1.93-.35-2.49,3.54-.7,3.86S384.23,102.07,382.62,101.77Z" style="fill:#263238"></path><path d="M381.77,101.91c-.34.16-.69.49-1.06.47s-.69-.5-.9-.94c0,0-.06,0-.07,0-.12.74,0,1.55.7,1.79s1.2-.34,1.49-1.06C382,102.07,381.91,101.85,381.77,101.91Z" style="fill:#263238"></path><path d="M388.93,114.19c-.31.26-.62.63-1.06.64a3.28,3.28,0,0,1-1.29-.39s-.07,0-.05.06a1.64,1.64,0,0,0,1.49.76,1.3,1.3,0,0,0,1-1C389.07,114.18,389,114.15,388.93,114.19Z" style="fill:#263238"></path><path d="M384.46,108.77s-.52,2-.63,2.9a5.48,5.48,0,0,0,4.67-1.1c.07-.07,0-.18-.11-.14a6,6,0,0,1-3.8.69c0-.24.89-3.09.76-3.12a8,8,0,0,0-2,.2c.88-3.71,2.34-7.26,3.16-11a.12.12,0,0,0-.22-.08,62.25,62.25,0,0,0-3.9,11.67C382.27,109.3,384.1,108.87,384.46,108.77Z" style="fill:#263238"></path><path d="M384.56,111.51a5.11,5.11,0,0,0,1.79,1.79,2.22,2.22,0,0,0,1.33.25c1-.13,1.15-1,1.07-1.81a5,5,0,0,0-.29-1.23A6.44,6.44,0,0,1,384.56,111.51Z" style="fill:#263238"></path><path d="M386.35,113.3a2.22,2.22,0,0,0,1.33.25c1-.13,1.15-1,1.07-1.81A2.29,2.29,0,0,0,386.35,113.3Z" style="fill:#ff98b9"></path><path d="M405.59,107.69c-1.86-.34-6.12-6.11-5.16-15.21,0,0-.3,8.23.17,9.5s-2.38-3.25-1.71-10.59a29.7,29.7,0,0,1-8,3c-3.58.54-5.69.25-5.91,0s5.07-1.26,6.64-2.67c0,0-9.72,3.14-14,2.94-.49,0,.16-10.17,7.24-13.65s16.89,2.43,19.35,5.46c0,0,3.22.87,6.18,6.16S407.6,108.06,405.59,107.69Z" style="fill:#263238"></path><path d="M398.82,90.42c.06-.19.37-.15.32.06a24,24,0,0,0,.14,9.91s-.07.06-.08,0C398.23,97,397.77,93.83,398.82,90.42Z" style="fill:#263238"></path><path d="M386.25,95c5,0,9.42-1,13.19-4.45.08-.07.21,0,.13.12-3.22,3.86-8.51,5-13.33,4.52C386.14,95.22,386.14,95,386.25,95Z" style="fill:#263238"></path><path d="M402.75,109s4.43-5.15,6.81-3.52-1.35,9.37-4.42,10.17a3,3,0,0,1-3.86-2Z" style="fill:#f7a9a0"></path><path d="M408.43,107.7a0,0,0,0,1,0,.08c-2.15.63-3.44,2.44-4.4,4.35a1.67,1.67,0,0,1,2.52-.2c.05,0,0,.12-.06.11a1.84,1.84,0,0,0-2.1.44,9.59,9.59,0,0,0-1.14,1.54c-.11.18-.44,0-.35-.16l0,0C403.15,111.17,405.57,107.68,408.43,107.7Z" style="fill:#263238"></path><path d="M402.15,129.57c-5.24,4.45,3.19,44,8.38,53.92,2.65,5,22,23.15,22.31,23s.19-5.38-.66-6.65-13.12-17.06-15.69-22C412,169.24,404.84,139,406.2,130.36,406.27,129.93,402.72,129.08,402.15,129.57Z" style="fill:#263238"></path><path d="M451,191.26c3.22,7.73-6.84,11.06-12.43,9.28-13.13-4.15-33.93-16.75-42.5-25.69-2.76-2.88,16.44-23.08,20.26-21.17C420.31,155.69,444.45,175.59,451,191.26Z" style="fill:#f7a9a0"></path><path d="M396.91,134a4.62,4.62,0,0,0-2.53,4.63,6.87,6.87,0,0,0-4.55,1c-2.31,1.62-.79,5.95-.79,5.95a8.43,8.43,0,0,0-4.63,1.82c-2.05,1.77-1.14,6.37-1.14,6.37A7.42,7.42,0,0,0,380.2,158c-1.12,4.62,3.91,10,7.46,12.94,4.24,3.54,16.32,10.58,18.51,12.05L426.52,162s-10.08-19-14.39-22.42C408.49,136.77,400.19,132.53,396.91,134Z" style="fill:#f7a9a0"></path><path d="M394.55,138.62c4.59,2.11,8.31,5.46,12.21,8.59a.09.09,0,1,1-.11.13c-3.84-3.16-8.26-5.51-12.23-8.51A.13.13,0,0,1,394.55,138.62Z" style="fill:#263238"></path><path d="M389.39,145.4a13.29,13.29,0,0,1,2.73,2.11c.91.81,1.81,1.64,2.69,2.48q2.67,2.52,5.19,5.17c.08.08,0,.22-.11.14-1.77-1.68-3.56-3.32-5.4-4.92-.92-.8-1.85-1.59-2.78-2.38a16,16,0,0,1-2.53-2.34A.18.18,0,0,1,389.39,145.4Z" style="fill:#263238"></path><path d="M383.34,153.85a9.31,9.31,0,0,1,2.36,2l2.39,2.34c1.6,1.55,3.2,3.09,4.85,4.58.08.08,0,.21-.11.14-1.69-1.51-3.39-3-5.07-4.51-.82-.75-1.64-1.5-2.45-2.26a8.74,8.74,0,0,1-2.05-2.24A.06.06,0,0,1,383.34,153.85Z" style="fill:#263238"></path><path d="M446.7,183.69c-4.79-6.07-9.63-12.54-15.4-17.69,6.51,4.45,11.41,11,15.4,17.69Z" style="fill:#263238"></path><path d="M403.87,135c-3.92-1.85-9.84-2-9.34,3.82-1.74-.1-3.93.11-5,1.58s-.52,3.83,0,5.55l-.48,0c-5.18.36-6,3.6-5.19,8.14a6.24,6.24,0,0,0-3.12,3.78c-1.88,9.44,16.45,19.31,23.3,23.79a100.06,100.06,0,0,1-17.18-10.85c-4.95-4-11.46-12.6-3.71-17.39l-.26.51a10.26,10.26,0,0,1,.61-6.12c1.19-1.91,3.46-2.47,5.54-2.58l-.34.48a10.66,10.66,0,0,1-.45-2.85c-.2-3.62,3.09-4.76,6.15-4.36l-.15.15c-.25-5.95,5.64-5.67,9.62-3.68Z" style="fill:#263238"></path><polygon points="423.54 191.42 416.57 144.95 409.52 145.82 416.48 192.29 423.54 191.42" style="fill:#37474f"></polygon><polygon points="416.48 192.29 409.52 145.82 391.11 148.1 398.08 194.57 416.48 192.29" style="fill:#455a64"></polygon><polygon points="422.8 186.49 422.15 182.16 415.09 183.03 415.74 187.36 422.8 186.49" style="fill:#455a64"></polygon><polygon points="421.73 179.31 421.47 177.64 414.42 178.51 414.67 180.19 421.73 179.31" style="fill:#455a64"></polygon><polygon points="412.99 193.84 405.5 143.91 396.68 145 404.17 194.94 412.99 193.84" style="fill:#c7c7c7"></polygon><polygon points="406.7 151.87 405.97 147.02 397.15 148.11 397.88 152.97 406.7 151.87" style="fill:#FFC727"></polygon><polygon points="407.27 155.7 406.97 153.67 398.15 154.77 398.45 156.79 407.27 155.7" style="fill:#FFC727"></polygon><polygon points="412.08 187.77 411.35 182.91 402.53 184.01 403.26 188.86 412.08 187.77" style="fill:#FFC727"></polygon><polygon points="387.5 197.05 404.17 194.98 396.68 145 380.01 147.07 387.5 197.05" style="fill:#ebebeb"></polygon><polygon points="402.37 194.42 395.46 148.32 388.13 149.23 395.04 195.33 402.37 194.42" style="fill:#455a64"></polygon><polygon points="395.04 195.33 388.13 149.23 369.54 151.53 376.45 197.63 395.04 195.33" style="fill:#37474f"></polygon><polygon points="401.61 194.51 394.7 148.41 388.89 149.13 395.8 195.23 401.61 194.51" style="fill:#fff"></polygon><path d="M390.53,152c2.41,13.86,4.7,29.16,6.46,43.11-2.41-13.85-4.7-29.15-6.46-43.11Z" style="fill:#dbdbdb"></path><path d="M391.67,151.83c2.41,13.86,4.7,29.16,6.46,43.11-2.41-13.85-4.7-29.16-6.46-43.11Z" style="fill:#dbdbdb"></path><path d="M392.81,151.69c2.41,13.86,4.7,29.16,6.46,43.11-2.41-13.86-4.7-29.16-6.46-43.11Z" style="fill:#dbdbdb"></path><path d="M394,151.55c2.41,13.85,4.7,29.16,6.46,43.11-2.41-13.86-4.7-29.16-6.46-43.11Z" style="fill:#dbdbdb"></path><path d="M346.66,194.49c-7.11-4.69-.52-14.2,5.21-15.79,13.45-3.75,35.74-3.3,48.06-.53,4,.89,4.06,26.75-.25,27.26C395.16,206,361.08,204,346.66,194.49Z" style="fill:#f7a9a0"></path><path d="M424.66,173.12a4.43,4.43,0,0,1-.84,5,6.59,6.59,0,0,1,2.85,3.45c.8,2.6-2.93,5-2.93,5a8.15,8.15,0,0,1,2.43,4.12c.5,2.57-2.91,5.5-2.91,5.5a7.11,7.11,0,0,1-.15,5c-1.9,4.17-8.88,5.24-13.32,5.37-5.32.17-18.63-1.66-21.17-1.86l-3-27.89s18.92-8.43,24.19-8.43C414.26,168.32,423.06,170,424.66,173.12Z" style="fill:#f7a9a0"></path><path d="M423.71,178c-4.72-1.13-9.53-.8-14.34-.74-.1,0-.1.16,0,.16,4.78-.11,9.53.73,14.31.81A.12.12,0,0,0,423.71,178Z" style="fill:#263238"></path><path d="M423.59,186.19a12.64,12.64,0,0,0-3.31,0c-1.17.07-2.34.17-3.51.28-2.34.22-4.67.49-7,.84-.1,0-.1.17,0,.16,2.33-.21,4.66-.4,7-.51,1.17-.06,2.34-.11,3.52-.15a15.17,15.17,0,0,0,3.3-.27A.17.17,0,0,0,423.59,186.19Z" style="fill:#263238"></path><path d="M423.16,196.18a8.8,8.8,0,0,0-3,.14l-3.2.35c-2.13.22-4.26.44-6.39.59a.09.09,0,0,0,0,.17c2.17-.14,4.34-.25,6.51-.41l3.2-.25a8.13,8.13,0,0,0,2.87-.49A.05.05,0,0,0,423.16,196.18Z" style="fill:#263238"></path><path d="M348.6,180.38c5.55-3.46,12.35-3.71,18.69-4.25s12.88-.47,19.32-.26c6-2.78,14.17-6.53,21.45-7.92a20.59,20.59,0,0,1,5.85.48c3.75.79,8,1.41,10.77,4.28a4.11,4.11,0,0,1-.68,5.67l0-.55c2.58,1.2,4.27,4.87,2,7.14a8.23,8.23,0,0,1-2.16,1.74l0-.29c2.39,2.48,3.51,5.39.86,8.19,2.52-2.91,1.22-5.74-1.28-8.09a8.3,8.3,0,0,0,2.2-1.84c2.08-2.3.07-5.57-2.43-6.5l.43-.33c5.63-6.71-10-8.74-14.11-9.07-4.2.25-8.19,2.1-12.19,3.5-3.63,1.36-7.2,3-10.77,4.48-6.41-.21-12.85-.28-19.26,0s-13,.45-18.72,3.63Z" style="fill:#263238"></path></g></svg>