<svg xmlns="http://www.w3.org/2000/svg" viewBox="0 0 500 500"><g id="freepik--background-complete--inject-5"><rect y="382.4" width="500" height="0.25" style="fill:#ebebeb"></rect><rect x="416.78" y="398.49" width="33.12" height="0.25" style="fill:#ebebeb"></rect><rect x="322.53" y="401.21" width="8.69" height="0.25" style="fill:#ebebeb"></rect><rect x="396.59" y="389.21" width="19.19" height="0.25" style="fill:#ebebeb"></rect><rect x="52.46" y="390.89" width="43.19" height="0.25" style="fill:#ebebeb"></rect><rect x="104.56" y="390.89" width="6.33" height="0.25" style="fill:#ebebeb"></rect><rect x="131.47" y="395.11" width="93.68" height="0.25" style="fill:#ebebeb"></rect><path d="M237,337.8H43.91a5.71,5.71,0,0,1-5.7-5.71V60.66A5.71,5.71,0,0,1,43.91,55H237a5.71,5.71,0,0,1,5.71,5.71V332.09A5.71,5.71,0,0,1,237,337.8ZM43.91,55.2a5.46,5.46,0,0,0-5.45,5.46V332.09a5.46,5.46,0,0,0,5.45,5.46H237a5.47,5.47,0,0,0,5.46-5.46V60.66A5.47,5.47,0,0,0,237,55.2Z" style="fill:#ebebeb"></path><path d="M453.31,337.8H260.21a5.72,5.72,0,0,1-5.71-5.71V60.66A5.72,5.72,0,0,1,260.21,55h193.1A5.71,5.71,0,0,1,459,60.66V332.09A5.71,5.71,0,0,1,453.31,337.8ZM260.21,55.2a5.47,5.47,0,0,0-5.46,5.46V332.09a5.47,5.47,0,0,0,5.46,5.46h193.1a5.47,5.47,0,0,0,5.46-5.46V60.66a5.47,5.47,0,0,0-5.46-5.46Z" style="fill:#ebebeb"></path><polygon points="48.8 382.4 257.62 382.4 120.09 297.79 48.8 382.4" style="fill:#f0f0f0"></polygon><polygon points="142.9 311.82 120.09 297.79 103.94 316.96 116.24 313.36 123.42 321.3 129.18 313.36 135.43 316.56 137.7 313.36 146.5 317.13 142.9 311.82" style="fill:#fafafa"></polygon><polygon points="88.94 382.4 351.03 382.4 229.72 244.31 88.94 382.4" style="fill:#e6e6e6"></polygon><polygon points="194.46 278.9 229.72 244.31 260.1 278.9 245.72 271.49 240.13 283.38 228.77 274.97 222.05 282.14 217.08 277.31 207 285.18 204.87 274.94 194.46 278.9" style="fill:#f0f0f0"></polygon><polygon points="250.16 281.67 260.67 295.36 260.67 285.18 250.16 281.67" style="fill:#f0f0f0"></polygon><polygon points="196.03 294.57 172.13 313.36 179.39 296.81 196.03 294.57" style="fill:#f0f0f0"></polygon><polygon points="186.75 382.4 426.35 382.4 315.2 278.9 186.75 382.4" style="fill:#f5f5f5"></polygon><polygon points="286.05 302.39 315.2 278.9 346.38 307.93 328.84 300.25 326.85 311.82 316.21 303.29 301.57 309.36 301.29 301.01 292.48 304.81 292.77 300.63 286.05 302.39" style="fill:#fafafa"></polygon><polygon points="333.16 306.71 339.16 319.73 343.56 313.84 333.16 306.71" style="fill:#fafafa"></polygon><polygon points="262.21 331.93 279.98 325.23 270.42 323.63 262.21 331.93" style="fill:#fafafa"></polygon><polygon points="306.55 382.4 444.56 382.4 386.77 311.82 306.55 382.4" style="fill:#f5f5f5"></polygon><polygon points="371.6 325.18 386.77 311.82 405.37 334.53 386.77 324.24 385.07 330.65 380.38 326.04 371.6 325.18" style="fill:#fafafa"></polygon><circle cx="311.26" cy="158.71" r="51.9" style="fill:#fafafa"></circle><path d="M114.23,212.8C123.9,202.37,137.15,195,147.47,195c6.47,0,10.6,2.92,12.08,7.68,4.49-2.71,9.15-4.34,13.15-4.34,7,0,10,5,8.21,12.11a35.67,35.67,0,0,1,11.54-2.7c7.16-.32,11.47,2.57,12.31,7.26a13.19,13.19,0,0,1,4.93-1.35c4.12-.18,5.5,2.73,3.08,6.5-.15.24-.31.47-.47.7h-114C99.65,217.11,109.12,213,114.23,212.8Z" style="fill:#f5f5f5"></path><path d="M380.65,213c4.49-4.84,10.63-8.28,15.42-8.28,3,0,4.92,1.36,5.6,3.56a12.41,12.41,0,0,1,6.1-2c3.27,0,4.67,2.33,3.82,5.62a16.85,16.85,0,0,1,5.35-1.26c3.32-.14,5.32,1.2,5.71,3.37a6.19,6.19,0,0,1,2.29-.62c1.91-.09,2.55,1.26,1.43,3l-.22.33H373.27C373.89,215,378.28,213.13,380.65,213Z" style="fill:#fafafa"></path><path d="M329.1,119.72c10.85-11.7,25.71-20,37.29-20,7.26,0,11.89,3.28,13.54,8.61,5.05-3,10.27-4.86,14.76-4.86,7.89,0,11.27,5.63,9.21,13.58a40.37,40.37,0,0,1,12.94-3c8-.36,12.88,2.88,13.82,8.15a14.89,14.89,0,0,1,5.52-1.52c4.63-.2,6.17,3.06,3.46,7.3-.17.26-.35.52-.53.77H311.26C312.74,124.55,323.36,119.93,329.1,119.72Z" style="fill:#f0f0f0"></path><path d="M72,132.71a6.78,6.78,0,0,1,.88-.05c4.06-3.24,8.28-5.31,11.41-5.31,2.26,0,3.59,1.08,4,2.91,7.56-6.28,15.59-10.36,21.45-10.36,4.73,0,7.18,2.65,7.33,7,3.8-2.46,7.51-3.94,10.44-3.94,5.14,0,6.37,4.56,3.65,11h0a25.88,25.88,0,0,1,8.95-2.46c5.29-.29,7.88,2.33,7.58,6.6a9.78,9.78,0,0,1,3.86-1.23c2.89-.15,3.44,2.2,1.38,5.35H55C59.06,137.43,66.46,133.24,72,132.71Z" style="fill:#f5f5f5"></path></g><g id="freepik--Shadow--inject-5"><ellipse id="freepik--path--inject-5" cx="250" cy="416.24" rx="193.89" ry="11.32" style="fill:#f5f5f5"></ellipse></g><g id="freepik--Character--inject-5"><path d="M281.54,230.1H244.92A12.42,12.42,0,0,1,232.44,217l3.22-67.89A13.92,13.92,0,0,1,249.38,136H286a12.4,12.4,0,0,1,12.47,13.09L295.25,217A13.92,13.92,0,0,1,281.54,230.1Z" style="fill:#407BFF"></path><path d="M281.54,230.1H244.92A12.42,12.42,0,0,1,232.44,217l3.22-67.89A13.92,13.92,0,0,1,249.38,136H286a12.4,12.4,0,0,1,12.47,13.09L295.25,217A13.92,13.92,0,0,1,281.54,230.1Z" style="opacity:0.30000000000000004"></path><path d="M244.79,124h44.37a6.92,6.92,0,0,1,6.89,6.9h0a6.91,6.91,0,0,1-6.89,6.9H244.79a6.92,6.92,0,0,1-6.9-6.9h0A6.93,6.93,0,0,1,244.79,124Z" style="fill:#407BFF"></path><path d="M251.15,83.3c-22.31,16.18-21.51,31.38-14.73,38.43,6.24,6.49,19.87,11.81,35.72,5.85,12.73-4.79,3.14-25.42,3-30.91S251.15,83.3,251.15,83.3Z" style="fill:#263238"></path><path d="M244.51,88.72c-10.6,4.89-16,18.56-15.95,24.53,3.28-9,9.44-18.9,17.07-21.65C245.07,90.3,244.51,88.72,244.51,88.72Z" style="fill:#263238"></path><path d="M240.42,84.44c-1.11,3.17,6.76,6.67,11.32,8s4.87-7,4.87-7S241.49,81.37,240.42,84.44Z" style="fill:#407BFF"></path><path d="M240.42,84.44c-1.11,3.17,6.76,6.67,11.32,8s4.87-7,4.87-7S241.49,81.37,240.42,84.44Z" style="opacity:0.30000000000000004"></path><path d="M212.56,396.4c.68,2.14-.45,8.83-2.32,13.79l11.89-13S220.11,394.07,212.56,396.4Z" style="fill:#407BFF"></path><path d="M273.1,397.65c.69,2.15,1.57,8.5-.31,13.45,9.58,1.53,9.06-5,9.88-12.65C282.67,398.45,280.65,395.33,273.1,397.65Z" style="fill:#407BFF"></path><path d="M222.06,327.34l21,4.26c-3.41,34.84-19.45,75.46-19.45,75.46h-9.23S221.73,333.68,222.06,327.34Z" style="fill:#ff8b7b"></path><path d="M214.75,398.5a129,129,0,0,0,2.19-19.76c-.06-1.16-1.39-4.37,2.55-3S235,377.1,234.89,379s-1.58,1.64-2.43,4.36-6.43,21.89-8.18,25C217.42,411.05,212.92,407.05,214.75,398.5Z" style="fill:#e6e6e6"></path><path d="M222.06,327.34c-.06,1.09-.33,4.18-.72,8.53,5,.63,16.23-.41,21.54-2.9.05-.46.1-.91.14-1.37Z" style="opacity:0.2"></path><path d="M272.31,330.58l22.07,1.35c3.41,34.84-7.8,75.13-7.8,75.13h-9.23S277.35,362.67,272.31,330.58Z" style="fill:#ff8b7b"></path><path d="M276.65,400.51a128.07,128.07,0,0,0-.85-19.87c-.23-1.13-2-4.1,2.07-3.33s15.48-1,15.71.83-1.31,1.86-1.73,4.68-3,22.61-4.27,26C281.21,412.5,276.15,409.23,276.65,400.51Z" style="fill:#e6e6e6"></path><path d="M294.38,331.93l-22.07-1.35c.46,2.9.88,5.9,1.25,9a77.59,77.59,0,0,0,21.08-4.5C294.57,334,294.48,333,294.38,331.93Z" style="opacity:0.2"></path><path d="M272.13,412.29c5-3.65,2.09-14.39,2.09-14.39a18,18,0,0,1,8.51.09C285.67,404,281.69,414.05,272.13,412.29Z" style="fill:#407BFF"></path><path d="M272.13,412.29c5-3.65,2.09-14.39,2.09-14.39a18,18,0,0,1,8.51.09C285.67,404,281.69,414.05,272.13,412.29Z" style="opacity:0.2"></path><path d="M289.25,414.57h-25.4c-4.24,0-.08-7,8.27-4.55s9.77-6.12,8.19-12.79c7.45-1.76,11,.82,11,.82C289.6,404.33,288.49,410.17,289.25,414.57Z" style="fill:#407BFF"></path><rect x="262.24" y="413.74" width="27.29" height="2.67" rx="0.75" style="fill:#407BFF"></rect><rect x="262.24" y="413.74" width="27.29" height="2.67" rx="0.75" style="fill:#fff;opacity:0.5"></rect><path d="M208.55,410.63C214,407.5,214,396.8,214,396.8s2-1,7,.67C223.32,403.78,218.19,413.34,208.55,410.63Z" style="fill:#407BFF"></path><path d="M208.55,410.63C214,407.5,214,396.8,214,396.8s2-1,7,.67C223.32,403.78,218.19,413.34,208.55,410.63Z" style="opacity:0.2"></path><path d="M225.9,414.62l-26.08-2.56c-4.36-.43.65-7,9-3.69s12.14-5,11.21-11.76c7.83-1,9.72,1.78,9.72,1.78C227.32,404.47,225.58,410.17,225.9,414.62Z" style="fill:#407BFF"></path><path d="M225.22,416.42l-26.49-2.61A.76.76,0,0,1,198,413l.13-1.18a.76.76,0,0,1,.84-.67l26.49,2.61a.76.76,0,0,1,.69.81l-.13,1.18A.76.76,0,0,1,225.22,416.42Z" style="fill:#407BFF"></path><path d="M225.22,416.42l-26.49-2.61A.76.76,0,0,1,198,413l.13-1.18a.76.76,0,0,1,.84-.67l26.49,2.61a.76.76,0,0,1,.69.81l-.13,1.18A.76.76,0,0,1,225.22,416.42Z" style="fill:#fff;opacity:0.5"></path><path d="M255.64,263.32c-2.85,9.35-6.42,19.63-10.92,30.72a206.2,206.2,0,0,1-1.32,38.68c-6.74,2.43-23.75,1-24.54-1.07,1-13.61,2-27.1,2.88-37.61-.64-36,8.49-92.76,8.49-92.76h36.31S267.45,224.38,255.64,263.32Z" style="fill:#407BFF"></path><path d="M260.08,247.09c-1.8,7.39-4.12,15.59-7.07,24.5-.87-18-5.72-42-5.89-42.82Z" style="opacity:0.2"></path><path d="M295,335.15c-10.65,2.24-25.16,1.33-26-.95-.46-12.84-3.2-25.61-5.66-37.44-1.92-9.18-4.68-21.12-7.64-33.44-7.19-29.91-15.52-62-15.52-62h32S292.8,220,286.26,298.22C292,308.39,294.28,321.73,295,335.15Z" style="fill:#407BFF"></path><path d="M244.22,149.34c-.22.87-.4,1.51-.6,2.25s-.41,1.4-.63,2.09c-.43,1.38-.89,2.75-1.39,4.1-1,2.71-2.06,5.35-3.22,8A109.72,109.72,0,0,1,230.06,181c-.83,1.21-1.66,2.41-2.53,3.59l-1.35,1.75a21.81,21.81,0,0,1-1.81,2.2,12.3,12.3,0,0,1-3.66,2.61,12,12,0,0,1-4.37,1,14.35,14.35,0,0,1-6.73-1.4,27.69,27.69,0,0,1-8-5.91,38.91,38.91,0,0,1-3-3.38,38.12,38.12,0,0,1-2.59-3.68,3.84,3.84,0,0,1,5.35-5.26l.29.19,3.16,2.07c1.07.68,2.13,1.34,3.19,1.93a21.45,21.45,0,0,0,5.87,2.48c.77.13,1.34.06,1.23-.08a.67.67,0,0,0-.48,0c-.22.05-.39.15-.45.15-.21.2.32-.58.62-1.06l1-1.57,1.9-3.23a126.69,126.69,0,0,0,6.56-13.69q1.45-3.54,2.74-7.14c.42-1.21.84-2.41,1.24-3.61l.58-1.79.52-1.66.09-.29a7.66,7.66,0,0,1,14.74,4.13Z" style="fill:#ff8b7b"></path><path d="M237.07,136c-7.82,2.22-11.43,9.36-18,24.18,2.3,5.1,15.12,9,15.12,9S251.13,145.1,237.07,136Z" style="fill:#263238"></path><path d="M226.34,149.31a173.82,173.82,0,0,0,.29,18.64c.33,8.09,4.34,20.3,4.27,33.63,4.15,3,27.64,2.38,42,.53-.87-11.48-.22-29.39,7.56-55.21,1.8-6-2.22-11.74-8.64-12.35-1.71-.16-3.53-.3-5.4-.39a146.51,146.51,0,0,0-19.67,0c-2.13.18-4.35.43-6.47.71C232.61,135.88,226.58,142.14,226.34,149.31Z" style="fill:#263238"></path><path d="M258.91,152.61c-6.43,2.45-18.19,2.1-26.43-.93v2.06c13.21,6.43,26.43,1.15,26.43,1.15S261.27,154.65,258.91,152.61Z" style="fill:#407BFF"></path><path d="M238.88,152.26c-1.1.31-1.92,4.6.12,5.21s7.82,1.57,11.31.44c1.91-.61,2.11-4.46.51-5C247.82,151.74,240.85,151.72,238.88,152.26Z" style="fill:#407BFF"></path><path d="M265,112c-1.71,6.33-3.81,17.92.3,22.15,0,0-2.64,6.76-17.68,5.85-11-.67-2-5.85-2-5.85,7.18-1.69,7.39-6.92,6.53-11.84Z" style="fill:#ff8b7b"></path><path d="M259.78,116.25l-7.6,6.09a19.94,19.94,0,0,1,.34,3.5c2.73-.39,6.65-3.35,7.15-6.18A9.61,9.61,0,0,0,259.78,116.25Z" style="opacity:0.2"></path><path d="M270.41,99.34c-1.92,10.22-2.51,14.57-8.34,19.47-8.77,7.37-20.82,3.48-22-6.94-1-9.38,2.28-24.51,12.8-27.88S272.33,89.13,270.41,99.34Z" style="fill:#ff8b7b"></path><path d="M262.67,94.81c-3.21,4.25-1.76,10.63,4.79,11.2s7.36-7.38,6.32-10.23S262.67,94.81,262.67,94.81Z" style="fill:#263238"></path><path d="M252.18,83.43c-8.38,3.64-3.7,6.91-1.24,8.23a9.57,9.57,0,0,1,.8-2.77s4.66,7.28,12.57,8.09c10,1,8.59-2.59,8.59-2.59S267.65,79.11,252.18,83.43Z" style="fill:#263238"></path><path d="M253,82.78c-4.64.57-12,2.3-12.61,7.41,2.3-1.29,8-1.68,8-1.68Z" style="fill:#263238"></path><path d="M267.55,100.92c-2.6,1.42-6.52,4.14-5.71,7.29,1.06-1.29,4.29-2.84,4.29-2.84Z" style="fill:#263238"></path><path d="M254.23,101.05c-.13.86-.67,1.53-1.23,1.49s-.9-.78-.78-1.64.68-1.53,1.23-1.49S254.35,100.18,254.23,101.05Z" style="fill:#263238"></path><path d="M243.79,100.43c-.12.86-.67,1.53-1.22,1.49s-.91-.77-.78-1.64.67-1.53,1.23-1.49S243.92,99.57,243.79,100.43Z" style="fill:#263238"></path><path d="M243.25,98.86l-1.94-.75S242.12,99.81,243.25,98.86Z" style="fill:#263238"></path><path d="M246.49,102.06a25.6,25.6,0,0,1-3.81,5.3c1,1.14,2.94.8,2.94.8Z" style="fill:#ff5652"></path><path d="M250,111.71a7.62,7.62,0,0,1-1.44,0,.23.23,0,0,1-.21-.27.27.27,0,0,1,.28-.24,7.23,7.23,0,0,0,5.86-2.27.26.26,0,0,1,.35,0,.25.25,0,0,1,0,.36A7.59,7.59,0,0,1,250,111.71Z" style="fill:#263238"></path><path d="M271.36,108.53a7.13,7.13,0,0,1-4.63,3.44c-2.42.44-3.23-2.36-2.22-5,.9-2.38,3.25-5.49,5.52-4.71S272.75,106.24,271.36,108.53Z" style="fill:#ff8b7b"></path><path d="M256.94,96.66a.46.46,0,0,1-.33-.2,3.74,3.74,0,0,0-3.08-1.75.47.47,0,0,1-.5-.48.56.56,0,0,1,.53-.53,4.67,4.67,0,0,1,3.91,2.17.53.53,0,0,1-.53.79Z" style="fill:#263238"></path><path d="M241.81,93.71a.47.47,0,0,1-.35-.12.5.5,0,0,1,0-.71A5.38,5.38,0,0,1,245.77,91a.47.47,0,0,1,.4.56.55.55,0,0,1-.59.45,4.26,4.26,0,0,0-3.4,1.56A.58.58,0,0,1,241.81,93.71Z" style="fill:#263238"></path><path d="M253.69,99.47l-1.95-.75S252.55,100.42,253.69,99.47Z" style="fill:#263238"></path><path d="M193.84,164.26l3.19.49a3.75,3.75,0,0,1,2.79,2l2.56,5.06a7,7,0,0,1,0,6.44l-.65,1.24c-5.36-.44-10.82-4.87-10.82-4.87l-1.69-1.08a3.13,3.13,0,0,1-1-4.33l2.11-3.39A3.61,3.61,0,0,1,193.84,164.26Z" style="fill:#ff8b7b"></path><path d="M230.15,204.37a195.2,195.2,0,0,0,43.49-.09,1,1,0,0,0,.75-1.38c-.35-.83-.71-1.67-1.05-2.5a.91.91,0,0,0-.94-.58,191,191,0,0,1-41.81,0,.94.94,0,0,0-1,.87c-.08.87-.17,1.73-.26,2.6A1,1,0,0,0,230.15,204.37Z" style="fill:#263238"></path><path d="M230.17,193.4a195,195,0,0,0,43.27,0c.63-.07.88-.76.49-1.36-.52-.82.36-1.82-.15-2.65a1.18,1.18,0,0,0-1.06-.57,204.49,204.49,0,0,1-43,0,.75.75,0,0,0-.85.86l.24,2.56A1.23,1.23,0,0,0,230.17,193.4Z" style="fill:#407BFF"></path><path d="M240.35,210l-.52,0a2.27,2.27,0,0,1-2.16-2.46c-.2-5.1,7.83-16.33,13.47-17.34a.26.26,0,0,1,.29.14.26.26,0,0,1,0,.31c-3.43,3.63-4.73,8.27-5.77,12C244.47,206.69,243.55,210,240.35,210Zm10-19.06c-5.27,1.87-12.33,12-12.16,16.55a1.75,1.75,0,0,0,1.68,1.94c3.15.32,4-2.73,5.2-7C246.09,198.88,247.31,194.51,250.37,190.91Z" style="fill:#fff"></path><polygon points="319.42 407.06 316.98 407.79 256.61 211.66 261.14 210.29 319.42 407.06" style="fill:#407BFF"></polygon><polygon points="319.42 407.06 316.98 407.79 256.61 211.66 261.14 210.29 319.42 407.06" style="fill:#fff;opacity:0.7000000000000001"></polygon><path d="M256.47,190.15l-.16-.51a1.08,1.08,0,0,0-1.35-.72l-5,1.52a1.09,1.09,0,0,0-.73,1.35l.16.51a1.08,1.08,0,0,0,1.35.72l.19-.05a.13.13,0,0,0,0,.06l5.39,17.82-.18.06a1.09,1.09,0,0,0-.72,1.35l.15.51a1.09,1.09,0,0,0,1.35.72l5-1.52a1.08,1.08,0,0,0,.72-1.35l-.15-.51a1.09,1.09,0,0,0-1.35-.73l-.21.07-5.4-17.83a.14.14,0,0,1,0-.06l.21-.06A1.09,1.09,0,0,0,256.47,190.15Z" style="fill:#407BFF"></path><path d="M256.47,190.15l-.16-.51a1.08,1.08,0,0,0-1.35-.72l-5,1.52a1.09,1.09,0,0,0-.73,1.35l.16.51a1.08,1.08,0,0,0,1.35.72l.19-.05a.13.13,0,0,0,0,.06l5.39,17.82-.18.06a1.09,1.09,0,0,0-.72,1.35l.15.51a1.09,1.09,0,0,0,1.35.72l5-1.52a1.08,1.08,0,0,0,.72-1.35l-.15-.51a1.09,1.09,0,0,0-1.35-.73l-.21.07-5.4-17.83a.14.14,0,0,1,0-.06l.21-.06A1.09,1.09,0,0,0,256.47,190.15Z" style="opacity:0.30000000000000004"></path><path d="M179.85,174.88a4,4,0,0,1-1.85-.49,2.28,2.28,0,0,1-1.11-3.09c1.68-4.82,13.26-12.33,18.88-11.21a.27.27,0,0,1,.22.23.28.28,0,0,1-.16.28c-4.51,2.12-7.42,6-9.75,9.05C183.92,172.5,182.13,174.88,179.85,174.88Zm14.7-14.36c-5.63,0-15.66,6.71-17.14,11a1.74,1.74,0,0,0,.84,2.42c2.83,1.46,4.74-1.07,7.39-4.58,2.23-2.94,5-6.56,9.13-8.8Z" style="fill:#e0e0e0"></path><polygon points="180.05 386.95 177.51 386.75 193 182.12 197.71 182.5 180.05 386.95" style="fill:#407BFF"></polygon><polygon points="180.05 386.95 177.51 386.75 193 182.12 197.71 182.5 180.05 386.95" style="fill:#fff;opacity:0.7000000000000001"></polygon><path d="M200.72,162l.05-.53a1.1,1.1,0,0,0-1-1.17l-5.24-.42a1.09,1.09,0,0,0-1.17,1l0,.54a1.08,1.08,0,0,0,1,1.16l.2,0s0,0,0,.06L193,181.25h-.19a1.08,1.08,0,0,0-1.16,1l0,.53a1.09,1.09,0,0,0,1,1.17l5.24.42a1.09,1.09,0,0,0,1.17-1l0-.53a1.09,1.09,0,0,0-1-1.17l-.22,0,1.49-18.56V163h.23A1.08,1.08,0,0,0,200.72,162Z" style="fill:#407BFF"></path><path d="M200.72,162l.05-.53a1.1,1.1,0,0,0-1-1.17l-5.24-.42a1.09,1.09,0,0,0-1.17,1l0,.54a1.08,1.08,0,0,0,1,1.16l.2,0s0,0,0,.06L193,181.25h-.19a1.08,1.08,0,0,0-1.16,1l0,.53a1.09,1.09,0,0,0,1,1.17l5.24.42a1.09,1.09,0,0,0,1.17-1l0-.53a1.09,1.09,0,0,0-1-1.17l-.22,0,1.49-18.56V163h.23A1.08,1.08,0,0,0,200.72,162Z" style="opacity:0.30000000000000004"></path><path d="M203.14,174.2c.52-3.83-2.59-7-3.26-10.08-.12-.51-.9-.54-1.23-.14-.64.77-.17,3.19.14,3.86.45.93-4.14,4.72,1.67,8.23A5.41,5.41,0,0,0,203.14,174.2Z" style="fill:#ff8b7b"></path><path d="M250.46,198.44l1.87-2.63a3.77,3.77,0,0,1,3.06-1.58h5.68a7,7,0,0,1,5.72,2.95l.81,1.15c-2.81,4.57-9.22,7.45-9.22,7.45l-1.73,1a3.12,3.12,0,0,1-4.33-1l-2.08-3.41A3.61,3.61,0,0,1,250.46,198.44Z" style="fill:#ff8b7b"></path><path d="M284.6,145.75c.38.84.65,1.44.94,2.14s.54,1.35.8,2c.52,1.35,1,2.71,1.4,4.07a81.13,81.13,0,0,1,2.13,8.32c.29,1.4.53,2.83.76,4.25s.38,2.87.48,4.33a64.69,64.69,0,0,1,.2,8.82l0,.48a4.54,4.54,0,0,1-.14,1,15.5,15.5,0,0,1-2.63,5.44,24.28,24.28,0,0,1-3.21,3.48,30.89,30.89,0,0,1-3.3,2.61c-1.11.77-2.21,1.49-3.34,2.13a60.58,60.58,0,0,1-6.81,3.37,58.82,58.82,0,0,1-7.09,2.5,3.84,3.84,0,0,1-3.38-6.75l.17-.12c1.73-1.34,3.61-2.73,5.35-4.12s3.48-2.8,5-4.25a35.22,35.22,0,0,0,4.15-4.31,11,11,0,0,0,1.27-1.95c.27-.56.34-1,.25-.95l-.15,1.46c-.2-2.33-.44-4.65-.87-7s-.92-4.69-1.53-7-1.28-4.67-2.05-7c-.38-1.16-.79-2.3-1.19-3.43l-.62-1.68-.58-1.52-.15-.39a7.66,7.66,0,0,1,14.11-5.93Z" style="fill:#ff8b7b"></path><path d="M272.2,134.65c7.05,1.09,9.87,3.23,15.63,17.4-2.61,5.28-14.85,10.34-14.85,10.34S264.87,144,272.2,134.65Z" style="fill:#263238"></path><path d="M265.64,133.31c-4.21.46-9.24,13.52-8,26.56s14.12,20.85,16.11,18.43a7.81,7.81,0,0,0,.35-2.76c-1.55-.55-7.45-4.82-8.3-13.79s8.5-25.8,7.95-27.1S268.16,133,265.64,133.31Z" style="fill:#407BFF"></path><path d="M244.94,133.83c-4.82.21-7.82.8-8.91,2.19s-12.8,14.86-9.82,34.76c.29,1.92,1.13,7.07,1.83,7.27,1,.27-.69-11.48,5.8-25.44S246.35,134.49,244.94,133.83Z" style="fill:#407BFF"></path><path d="M247.69,83.3c9.13,2.29,21,9.58,28,16.38C277,96.06,278,87,269.13,81.78A18.42,18.42,0,0,0,247.69,83.3Z" style="fill:#407BFF"></path><path d="M268.8,93.94c-8.72-.46-10.28-3.88-13.51-6.8a15.69,15.69,0,0,0-14.87-2.7C240.78,82.14,254.06,79.13,268.8,93.94Z" style="fill:#407BFF"></path></g></svg>
