<svg xmlns="http://www.w3.org/2000/svg" viewBox="0 0 750 500"><g id="freepik--background-complete--inject-7"><path d="M616,109.31c.59-4.28-5.45-7.8-10-8.17-2.17-.17-4.41.16-6.46-.55C595.07,99,593.29,93.3,589,91.48c-3.24-1.37-7-.15-10.11,1.43s-6.24,3.57-9.75,3.79c-3.05.2-6.37-.94-9,.55-2,1.11-3,3.41-4.87,4.76s-4.13,1.6-6.36,1.72-4.53.15-6.56,1.08-3.7,3.07-3.28,5.26Z" style="fill:#ebebeb"></path><path d="M443.12,348.91c.81-1.09-34.4-56.61-34.4-56.61l-25.2-4-25.94,33.9-11-5.16-77,30.09-54-68.8-8.24,8.57-21.64-32.17L171.8,285.52l-21.42,53.09L135.89,327.8,95.65,368.73H480.56S442.3,350,443.12,348.91Z" style="fill:#f5f5f5"></path><path d="M582.74,367.76c0,.14-114.95.26-256.72.26s-256.76-.12-256.76-.26S184.2,367.5,326,367.5,582.74,367.62,582.74,367.76Z" style="fill:#e0e0e0"></path><path d="M564.09,382.53c0,.15-25,.27-55.89.27s-55.89-.12-55.89-.27,25-.26,55.89-.26S564.09,382.39,564.09,382.53Z" style="fill:#e0e0e0"></path><path d="M176.41,152.71c.87-6.25-8-11.4-14.6-11.93-3.16-.26-6.44.23-9.44-.82-6.49-2.26-9.09-10.65-15.42-13.32-4.74-2-10.19-.22-14.79,2.09S113,134,107.9,134.28c-4.46.28-9.31-1.37-13.21.81-2.91,1.62-4.43,5-7.11,6.95s-6,2.35-9.3,2.53-6.63.21-9.59,1.56-5.42,4.49-4.8,7.7Z" style="fill:#ebebeb"></path><path d="M633.59,256.43c.75-5.44-6.93-9.92-12.7-10.38-2.75-.23-5.61.2-8.21-.71-5.65-2-7.91-9.27-13.42-11.59-4.12-1.74-8.87-.19-12.86,1.82s-7.94,4.54-12.41,4.82c-3.88.25-8.09-1.19-11.49.71-2.53,1.41-3.86,4.33-6.19,6.05s-5.26,2-8.09,2.19-5.76.18-8.34,1.36-4.71,3.91-4.18,6.7Z" style="fill:#f5f5f5"></path><path d="M444.65,85.62c.53-3.84-4.89-7-9-7.33-1.95-.16-4,.14-5.8-.5-4-1.39-5.58-6.54-9.47-8.18-2.91-1.23-6.26-.13-9.08,1.28s-5.61,3.21-8.76,3.41c-2.73.18-5.71-.84-8.11.5-1.78,1-2.72,3-4.37,4.27a10.41,10.41,0,0,1-5.71,1.55,16.17,16.17,0,0,0-5.88,1c-1.82.83-3.33,2.76-2.95,4.72Z" style="fill:#f5f5f5"></path><path d="M724,455c-1.4-27.61-.79-18-2.19-45.62l-49.22-27.42-44.25,17.4-7.78,12.61a57.65,57.65,0,0,1-18.82,18.72c-9.46,5.83-22.22,15-26.84,24.31Z" style="fill:#e0e0e0"></path><polygon points="30.86 387.59 81.4 404.34 140.91 454.97 30.86 454.97 30.86 387.59" style="fill:#e0e0e0"></polygon><path d="M638.17,320.45l10.5,74.79,2.73.08C649.66,369.93,647.8,344,638.17,320.45Z" style="fill:#e0e0e0"></path><path d="M667.33,317c-7.33,8-10.28,19.09-12.14,29.81-2.64,15.2-2.88,33.15-2.09,48.56l3.84.09A210.78,210.78,0,0,1,667.33,317Z" style="fill:#e0e0e0"></path><path d="M640.1,364.7c-.85-3.71-1.81-7.48-3.92-10.63-2.86-4.27-7.52-7-12.2-9.06s-9.61-3.78-13.84-6.68c4.72,7.74,15.44,9.8,20.89,17,2.72,3.6,3.85,8.12,4.91,12.5,2.32,9.56,3.75,17.83,6.07,27.39h3.1A244.83,244.83,0,0,0,640.1,364.7Z" style="fill:#e0e0e0"></path><path d="M659.74,395.32s2.63-29.7,4.58-35.15,20.38-20.52,20.2-19.81-13.82,17.19-15.77,20.56-5.32,34.4-5.32,34.4Z" style="fill:#e0e0e0"></path><path d="M547.93,390.2a3.2,3.2,0,0,1-.64.05l-1.81.05-6.68.08-22,.08-22-.08-6.67-.08-1.82-.05a3.15,3.15,0,0,1-.63-.05,2.42,2.42,0,0,1,.63-.05l1.82,0,6.67-.08,22-.08,22,.08,6.68.08,1.81,0A2.46,2.46,0,0,1,547.93,390.2Z" style="fill:#e0e0e0"></path></g><g id="freepik--Plants--inject-7"><path d="M585.7,405a5.89,5.89,0,0,1,2.4,3.94,10.39,10.39,0,0,1-.42,4.69,18.48,18.48,0,0,1-5.38,7.72c-2.13-2.65-2-6.59-1.85-8.59.29-3.16,2.71-8.69,5.25-7.76" style="fill:#FF725E"></path><path d="M584.35,426.8a5,5,0,0,1,2.44-4.42,6.63,6.63,0,0,1,5.12-.65,2.8,2.8,0,0,1,2,1.33,2.16,2.16,0,0,1-.35,2.16,4.45,4.45,0,0,1-1.87,1.28c-2.43,1-5,1.48-7.3.3" style="fill:#FF725E"></path><path d="M579.48,435.41a3,3,0,0,1,.2-.6c.15-.42.35-1,.6-1.61a17.59,17.59,0,0,1,2.66-5,10.8,10.8,0,0,1,4.54-3.37,7.13,7.13,0,0,1,1.68-.41c.2,0,.36,0,.47,0h.16a10.83,10.83,0,0,0-2.25.59,11,11,0,0,0-4.43,3.36,19.47,19.47,0,0,0-2.69,4.93c-.27.67-.5,1.21-.66,1.58A5.33,5.33,0,0,1,579.48,435.41Z" style="fill:#263238"></path><path d="M584.22,409.35a1.17,1.17,0,0,1,0,.28q0,.3-.09.78c-.08.68-.21,1.65-.39,2.86-.35,2.42-.88,5.74-1.55,9.41s-1.35,7-1.88,9.34c-.26,1.2-.48,2.16-.64,2.82-.08.31-.15.57-.19.76a1.1,1.1,0,0,1-.09.27s0-.1,0-.28.09-.45.15-.77l.58-2.83c.48-2.39,1.14-5.69,1.81-9.35s1.22-7,1.61-9.39c.2-1.19.35-2.15.47-2.85.05-.32.1-.58.13-.78A1.16,1.16,0,0,1,584.22,409.35Z" style="fill:#263238"></path><path d="M579.66,427.85a11.79,11.79,0,0,0-4.81-9.62c-.77-.56-1.83-1-2.63-.51s-.85,1.66-.67,2.59a10,10,0,0,0,8,7.77" style="fill:#FF725E"></path><path d="M574.75,421.14a3.87,3.87,0,0,1,.49.33,5.3,5.3,0,0,1,.55.43,8.93,8.93,0,0,1,.68.62c.24.25.51.51.77.82a10.89,10.89,0,0,1,.78,1A13.09,13.09,0,0,1,579.4,427a13.52,13.52,0,0,1,.7,2.86,11.65,11.65,0,0,1,.07,1.29,9.93,9.93,0,0,1,0,1.12,7.21,7.21,0,0,1-.12.91,6.39,6.39,0,0,1-.14.69,3.54,3.54,0,0,1-.17.56c-.05,0,.18-.82.27-2.17a10,10,0,0,0,0-1.11,11.41,11.41,0,0,0-.1-1.26,13,13,0,0,0-.7-2.81,13.48,13.48,0,0,0-1.34-2.57,10.79,10.79,0,0,0-.75-1c-.25-.31-.51-.58-.74-.83C575.42,421.66,574.72,421.18,574.75,421.14Z" style="fill:#263238"></path><path d="M117.77,453.91l.42-.05c-.87-13-7.4-26.94-12.14-39.13-4.87-12.55-9.44-25.43-20.53-33.05a764.44,764.44,0,0,1,32.25,72.23" style="fill:#455a64"></path><path d="M125.55,387.83s0,.06,0,.17l-.15.48-.62,1.86c-.13.4-.28.85-.45,1.33l-.48,1.61c-.34,1.15-.77,2.46-1.13,3.93-.19.73-.4,1.5-.61,2.3s-.38,1.64-.58,2.51c-.42,1.73-.76,3.6-1.14,5.57-.68,4-1.27,8.31-1.62,12.92s-.37,9-.28,13c.09,2,.14,3.9.3,5.67.07.89.11,1.75.2,2.57s.17,1.62.24,2.37c.14,1.51.36,2.86.51,4.06l.23,1.66c.09.51.17,1,.24,1.39.13.82.23,1.47.31,1.93l.07.5a1.06,1.06,0,0,1,0,.17s-.84-3.66-1.57-9.69c-.08-.75-.17-1.54-.26-2.37s-.14-1.68-.22-2.57c-.17-1.78-.23-3.68-.32-5.69-.11-4-.06-8.43.26-13.05s1-9,1.65-12.94c.38-2,.73-3.85,1.16-5.58.21-.87.39-1.71.6-2.51s.42-1.57.62-2.3c.38-1.47.82-2.77,1.17-3.93l.51-1.6.47-1.33c.28-.78.51-1.4.66-1.83q.12-.3.18-.48Z" style="fill:#455a64"></path><rect x="113.4" y="386.09" width="22.32" height="6.65" rx="2.98" transform="translate(-284.06 403.09) rotate(-74.18)" style="fill:#f5f5f5"></rect><path d="M121.86,400.25s.18.05.53.07a2.92,2.92,0,0,0,1.48-.27,2.86,2.86,0,0,0,1.54-1.72c.26-.9.54-1.95.87-3.1.64-2.31,1.41-5.05,2.26-8.09.42-1.52.87-3.12,1.34-4.77a2.85,2.85,0,0,0-.44-2.38,2.74,2.74,0,0,0-.95-.84,5.34,5.34,0,0,0-1.26-.43A2.84,2.84,0,0,0,124,380.1a5.65,5.65,0,0,0-.41,1.2c-.47,1.65-.93,3.25-1.36,4.77-.87,3-1.66,5.76-2.32,8.07-.17.57-.32,1.12-.47,1.64a5.07,5.07,0,0,0-.3,1.46,3,3,0,0,0,.93,2.12,3.18,3.18,0,0,0,1.32.72l.38.12.13.05-.14,0-.39-.1a3.11,3.11,0,0,1-1.37-.69,3.08,3.08,0,0,1-1-2.2,5.51,5.51,0,0,1,.29-1.51c.14-.52.29-1.07.45-1.64.65-2.31,1.42-5,2.27-8.09.42-1.52.87-3.12,1.34-4.77a5.69,5.69,0,0,1,.43-1.26,3.18,3.18,0,0,1,.9-1,3.13,3.13,0,0,1,2.69-.49,6.6,6.6,0,0,1,1.31.46,3.06,3.06,0,0,1,1,.92,3.12,3.12,0,0,1,.48,2.61c-.47,1.65-.93,3.25-1.36,4.77l-2.32,8.07c-.33,1.15-.62,2.18-.91,3.1a3,3,0,0,1-3.17,2A2,2,0,0,1,121.86,400.25Z" style="fill:#263238"></path><path d="M120.57,453.86c-.41-10.05-.42-21.11,5.28-29.41,3.23-4.69,8.09-8.08,13.29-10.41A93.1,93.1,0,0,1,155.45,409c-6.17,8.64-20.14,8.74-26,17.56-1.76,2.62-2.58,5.73-3.37,8.78-1.65,6.3-3.09,12.28-4.74,18.59" style="fill:#455a64"></path><path d="M76.52,418.56h.14l.4,0c.35.05.87.09,1.53.22a36.34,36.34,0,0,1,5.51,1.38,39.47,39.47,0,0,1,7.67,3.51,43,43,0,0,1,4.1,2.82,39,39,0,0,1,4,3.61,34.23,34.23,0,0,1,3.4,4.14c.52.69,1,1.42,1.42,2.11s.86,1.41,1.23,2.11a42.45,42.45,0,0,1,3.32,7.75,35.91,35.91,0,0,1,1.31,5.53c.12.66.15,1.18.19,1.53l0,.4c0,.09,0,.14,0,.14l0-.13c0-.11,0-.24-.06-.4-.07-.35-.11-.87-.25-1.52a38.75,38.75,0,0,0-1.39-5.49,43.09,43.09,0,0,0-3.35-7.69c-.37-.7-.81-1.38-1.23-2.09s-.9-1.41-1.41-2.1a35.58,35.58,0,0,0-3.39-4.1,38.34,38.34,0,0,0-3.92-3.58,44,44,0,0,0-4.07-2.82,39.55,39.55,0,0,0-13.07-5c-.66-.15-1.17-.2-1.52-.27l-.4-.07Z" style="fill:#455a64"></path><rect x="73.19" y="406.1" width="6.65" height="22.32" rx="2.98" transform="translate(-332.69 305.4) rotate(-64.32)" style="fill:#f5f5f5"></rect><path d="M86.73,421.78s.08-.17.16-.51A2.93,2.93,0,0,0,85.44,418c-.84-.42-1.83-.87-2.9-1.39L75,413l-4.48-2.14a2.85,2.85,0,0,0-2.42,0,2.94,2.94,0,0,0-1,.8,6.11,6.11,0,0,0-.64,1.16,2.86,2.86,0,0,0,0,2.49,3,3,0,0,0,.78,1,5.24,5.24,0,0,0,1.12.61L72.81,419l7.56,3.67,1.53.74a5.08,5.08,0,0,0,1.39.55,3,3,0,0,0,2.25-.56,3.16,3.16,0,0,0,.93-1.17l.19-.36a.86.86,0,0,1,.07-.12.44.44,0,0,1,0,.13l-.16.37a3.15,3.15,0,0,1-.92,1.24,3.06,3.06,0,0,1-2.34.62,5.17,5.17,0,0,1-1.44-.54l-1.54-.73-7.58-3.61c-1.42-.69-2.92-1.4-4.47-2.14a5.59,5.59,0,0,1-1.16-.65,3.2,3.2,0,0,1-.87-1.06,3.11,3.11,0,0,1,0-2.73,5.78,5.78,0,0,1,.67-1.21,3.09,3.09,0,0,1,3.74-.89l4.46,2.15,7.56,3.67c1.07.52,2,1,2.9,1.42A3,3,0,0,1,87,419.75a2.83,2.83,0,0,1,0,1.54A1.71,1.71,0,0,1,86.73,421.78Z" style="fill:#263238"></path></g><g id="freepik--Route--inject-7"><path d="M659.2,188.94a8.94,8.94,0,0,1,3-.26,9.06,9.06,0,0,1,3,.26,9.06,9.06,0,0,1-3,.26A8.94,8.94,0,0,1,659.2,188.94Z" style="fill:#263238"></path><path d="M635.22,188.94a69.25,69.25,0,0,1,12,0,69.25,69.25,0,0,1-12,0Z" style="fill:#263238"></path><path d="M611.25,188.94a69.13,69.13,0,0,1,12,0,69.13,69.13,0,0,1-12,0Z" style="fill:#263238"></path><path d="M587.27,188.94a69.25,69.25,0,0,1,12,0,69.25,69.25,0,0,1-12,0Z" style="fill:#263238"></path><path d="M563.3,188.94a69.13,69.13,0,0,1,12,0,69.13,69.13,0,0,1-12,0Z" style="fill:#263238"></path><path d="M539.34,188.41a54.61,54.61,0,0,1,6,.16,44.45,44.45,0,0,1,6,.37,28.41,28.41,0,0,1-6,.15A25.13,25.13,0,0,1,539.34,188.41Z" style="fill:#263238"></path><path d="M518.14,178.71c.13-.11,1.79,2,4.46,3.93s5.16,2.93,5.09,3.09a5.16,5.16,0,0,1-1.68-.55,19.92,19.92,0,0,1-3.72-2.12A13.57,13.57,0,0,1,518.14,178.71Z" style="fill:#263238"></path><path d="M511.59,156.05c.13,0,.3,2.67.71,5.94s1,5.89.82,5.93a20.35,20.35,0,0,1-1.34-5.86A21.57,21.57,0,0,1,511.59,156.05Z" style="fill:#263238"></path><path d="M502.86,134.22a19.24,19.24,0,0,1,3.75,4.7,18.19,18.19,0,0,1,2.51,5.47c-.14.06-1.21-2.4-2.95-5.2S502.74,134.32,502.86,134.22Z" style="fill:#263238"></path><path d="M483.18,121.05a19.38,19.38,0,0,1,5.66,2,19.85,19.85,0,0,1,5.08,3.22c-.08.13-2.34-1.31-5.3-2.75S483.13,121.19,483.18,121.05Z" style="fill:#263238"></path><path d="M459.46,120.13a19.63,19.63,0,0,1,5.91-1.11,34.6,34.6,0,0,1,4.26,0,6.59,6.59,0,0,1,1.75.17,5.36,5.36,0,0,1-1.75.2c-1.09,0-2.58.07-4.22.2C462.13,119.78,459.49,120.28,459.46,120.13Z" style="fill:#263238"></path><path d="M438.63,131.34a18.72,18.72,0,0,1,4.39-4.12,19,19,0,0,1,5.22-3c.07.14-2.27,1.45-4.91,3.41S438.74,131.45,438.63,131.34Z" style="fill:#263238"></path><path d="M428.16,152.43A23.51,23.51,0,0,1,431.63,141c.14.07-1,2.48-2,5.64S428.32,152.45,428.16,152.43Z" style="fill:#263238"></path><path d="M427.61,176.39a35.2,35.2,0,0,1-.17-6,34.08,34.08,0,0,1,.35-6,35.28,35.28,0,0,1,.17,6A34.08,34.08,0,0,1,427.61,176.39Z" style="fill:#263238"></path><path d="M427.27,200.36a34.38,34.38,0,0,1-.18-6,35.16,35.16,0,0,1,.35-6,34.38,34.38,0,0,1,.18,6A35.28,35.28,0,0,1,427.27,200.36Z" style="fill:#263238"></path><path d="M426.92,224.33a35,35,0,0,1-.17-6,34.08,34.08,0,0,1,.35-6,35.12,35.12,0,0,1,.17,6A33.91,33.91,0,0,1,426.92,224.33Z" style="fill:#263238"></path><path d="M420.31,246.93c-.13-.09,1.38-2.31,2.82-5.27s2.23-5.51,2.38-5.47a17.8,17.8,0,0,1-1.92,5.7A18.16,18.16,0,0,1,420.31,246.93Z" style="fill:#263238"></path><path d="M401.51,261.24c-.05-.14,2.44-1.14,5.32-2.73s5.06-3.15,5.15-3a19.08,19.08,0,0,1-4.9,3.48A19.3,19.3,0,0,1,401.51,261.24Z" style="fill:#263238"></path><path d="M377.87,264a38.59,38.59,0,0,1,6-.25l2.33,0,1.9,0a6.07,6.07,0,0,1,1.76.11,5.82,5.82,0,0,1-1.75.26l-1.91.14c-.71,0-1.5,0-2.33,0A31.63,31.63,0,0,1,377.87,264Z" style="fill:#263238"></path><path d="M355.22,257.12c.09-.13,2.36,1.29,5.35,2.66s5.53,2.22,5.49,2.37a19.21,19.21,0,0,1-5.71-1.9A19.56,19.56,0,0,1,355.22,257.12Z" style="fill:#263238"></path><path d="M340.27,238.87c.15-.05,1.15,2.44,2.82,5.27s3.33,4.93,3.21,5a18.43,18.43,0,0,1-3.66-4.77A18.18,18.18,0,0,1,340.27,238.87Z" style="fill:#263238"></path><path d="M338,215.17a35.15,35.15,0,0,1,.26,6,35.22,35.22,0,0,1-.26,6,34.12,34.12,0,0,1-.26-6A34,34,0,0,1,338,215.17Z" style="fill:#263238"></path><path d="M338,191.2a35.15,35.15,0,0,1,.26,6,35.15,35.15,0,0,1-.26,6,34,34,0,0,1-.26-6A34,34,0,0,1,338,191.2Z" style="fill:#263238"></path><path d="M338,167.22a35.32,35.32,0,0,1,.26,6,35.15,35.15,0,0,1-.26,6,34,34,0,0,1-.26-6A34.12,34.12,0,0,1,338,167.22Z" style="fill:#263238"></path><path d="M338,143.25a35.15,35.15,0,0,1,.26,6,35.32,35.32,0,0,1-.26,6,34.12,34.12,0,0,1-.26-6A34,34,0,0,1,338,143.25Z" style="fill:#263238"></path><path d="M338,119.27a6.36,6.36,0,0,1,.23,1.76c.05,1.08.08,2.58.08,4.24a35.15,35.15,0,0,1-.26,6,34,34,0,0,1-.26-6c0-1.66,0-3.16.07-4.24A6.18,6.18,0,0,1,338,119.27Z" style="fill:#263238"></path><path d="M328.9,97.55a18.64,18.64,0,0,1,3.82,4.65,18.14,18.14,0,0,1,2.55,5.45c-.15.06-1.23-2.4-3-5.17S328.78,97.65,328.9,97.55Z" style="fill:#263238"></path><path d="M308.76,85.16a26.58,26.58,0,0,1,11,4.73c-.08.13-2.4-1.22-5.42-2.51S308.72,85.31,308.76,85.16Z" style="fill:#263238"></path><path d="M285,84.38a19.77,19.77,0,0,1,5.93-1c1.67-.09,3.17,0,4.26,0a6,6,0,0,1,1.75.19,5.86,5.86,0,0,1-1.75.18c-1.09.06-2.59,0-4.23.14C287.64,84.1,285,84.53,285,84.38Z" style="fill:#263238"></path><path d="M263.85,95.05a25.93,25.93,0,0,1,9.79-6.85c.07.14-2.3,1.39-5,3.28S264,95.16,263.85,95.05Z" style="fill:#263238"></path><path d="M252.76,115.82a17.76,17.76,0,0,1,1.18-5.9,17.65,17.65,0,0,1,2.64-5.4c.14.07-1.1,2.45-2.15,5.57S252.91,115.84,252.76,115.82Z" style="fill:#263238"></path><path d="M252.35,139.77a34,34,0,0,1-.26-6,34,34,0,0,1,.26-6,35.15,35.15,0,0,1,.26,6A35.15,35.15,0,0,1,252.35,139.77Z" style="fill:#263238"></path><path d="M252.35,163.75a34,34,0,0,1-.26-6,34.12,34.12,0,0,1,.26-6,35.32,35.32,0,0,1,.26,6A35.15,35.15,0,0,1,252.35,163.75Z" style="fill:#263238"></path><path d="M251.74,187.69c-.15,0,.3-2.68.34-6a34.39,34.39,0,0,1,.27-6,34.6,34.6,0,0,1,.25,6A17.65,17.65,0,0,1,251.74,187.69Z" style="fill:#263238"></path><path d="M240,208.1c-.1-.12,1.87-1.94,4-4.49s3.48-4.83,3.62-4.75A24.84,24.84,0,0,1,240,208.1Z" style="fill:#263238"></path><path d="M218.58,218.17c0-.15,2.61-.63,5.76-1.6s5.6-2,5.67-1.9a19.69,19.69,0,0,1-5.52,2.4A19.33,19.33,0,0,1,218.58,218.17Z" style="fill:#263238"></path><path d="M194.63,219a36,36,0,0,1,6-.34,33.39,33.39,0,0,1,6,.18,36,36,0,0,1-6,.34A33.47,33.47,0,0,1,194.63,219Z" style="fill:#263238"></path><path d="M170.66,219.31a34.72,34.72,0,0,1,6-.34,35.2,35.2,0,0,1,6,.17,34.08,34.08,0,0,1-6,.35A35.77,35.77,0,0,1,170.66,219.31Z" style="fill:#263238"></path><path d="M146.69,219.65a34.08,34.08,0,0,1,6-.35,34.62,34.62,0,0,1,6,.18,34.72,34.72,0,0,1-6,.34A35.2,35.2,0,0,1,146.69,219.65Z" style="fill:#263238"></path><path d="M122.72,220a34.72,34.72,0,0,1,6-.34,35,35,0,0,1,6,.17,33.87,33.87,0,0,1-6,.35A34.46,34.46,0,0,1,122.72,220Z" style="fill:#263238"></path><path d="M104.66,220.23a9.27,9.27,0,0,1,3-.3,9,9,0,0,1,3,.22,9,9,0,0,1-3,.3A8.46,8.46,0,0,1,104.66,220.23Z" style="fill:#263238"></path><path d="M304.1,68.69a7.13,7.13,0,1,0-13.27,3.61h0l0,0c.28.46.62.79,1,1.28L296,79.08a1.29,1.29,0,0,0,2.05,0l4.07-5.39a16.93,16.93,0,0,0,1-1.37v0h0A7.12,7.12,0,0,0,304.1,68.69ZM297,71.8a3.14,3.14,0,1,1,3.14-3.14A3.14,3.14,0,0,1,297,71.8Z" style="fill:#FF725E"></path><path d="M574.42,174.25a7.13,7.13,0,1,0-13.28,3.6h0l0,0c.27.46.61.79,1,1.27l4.14,5.48a1.28,1.28,0,0,0,2,0l4.07-5.39a16.93,16.93,0,0,0,1-1.37l0,0h0A7.12,7.12,0,0,0,574.42,174.25Zm-7.13,3.1a3.14,3.14,0,1,1,3.13-3.14A3.13,3.13,0,0,1,567.29,177.35Z" style="fill:#FF725E"></path><path d="M474.23,103.65a7.13,7.13,0,1,0-13.27,3.6h0l0,0c.27.46.61.79,1,1.28l4.14,5.48a1.29,1.29,0,0,0,2.05,0l4.07-5.39a16.93,16.93,0,0,0,1-1.37v0h0A7.11,7.11,0,0,0,474.23,103.65Zm-7.12,3.1a3.14,3.14,0,1,1,3.13-3.14A3.14,3.14,0,0,1,467.11,106.75Z" style="fill:#455a64"></path><path d="M180.38,198.55A8.81,8.81,0,1,0,164,203h0l0,0a19.13,19.13,0,0,0,1.19,1.57l5.11,6.78a1.58,1.58,0,0,0,2.54,0l5-6.66a18.47,18.47,0,0,0,1.28-1.7l0,0h0A8.77,8.77,0,0,0,180.38,198.55Zm-8.82,3.84a3.88,3.88,0,1,1,3.88-3.88A3.88,3.88,0,0,1,171.56,202.39Z" style="fill:#455a64"></path></g><g id="freepik--Character--inject-7"><path d="M340,171.11a31.53,31.53,0,0,0-15.83,3.3c-5.23,2.44-10.17,6.05-12.77,11.2s-2.31,12,1.79,16.08c-7.88,2.09-13.81,9.1-16.29,16.86s-1.95,16.2-.38,24.2c.75,3.78,2.08,8,5.57,9.62,2.24,1,5,.8,7.1,2.09s3.06,3.65,4.39,5.66a17,17,0,0,0,24.26,4.32L354,178.56C350.83,174.12,345.43,171.57,340,171.11Z" style="fill:#455a64"></path><path d="M350.86,180.36a11.08,11.08,0,0,1-1.11,1.34c-.75.84-1.84,2-3.22,3.5a68.8,68.8,0,0,1-11.84,10.29,34.23,34.23,0,0,1-14.6,5.62,23.21,23.21,0,0,1-4.77.1c-.56,0-1-.12-1.29-.16a1.5,1.5,0,0,1-.44-.1s.63,0,1.74.06a26.74,26.74,0,0,0,4.71-.26,35.52,35.52,0,0,0,14.36-5.69A76.85,76.85,0,0,0,346.27,185l3.33-3.39A11,11,0,0,1,350.86,180.36Z" style="fill:#263238"></path><path d="M319.36,206.09c-.06,0-.32-.4-.54-1.16a7.81,7.81,0,0,1-.15-3.1,7.64,7.64,0,0,1,1.1-2.9c.44-.67.82-1,.87-1a15.06,15.06,0,0,0-1.45,3.93A14.82,14.82,0,0,0,319.36,206.09Z" style="fill:#263238"></path><path d="M324.8,209.28a2.15,2.15,0,0,1,.22.47c.13.31.33.77.54,1.39a43.42,43.42,0,0,1,1.53,5.26,39.1,39.1,0,0,1,0,18,30.1,30.1,0,0,1-9.31,15.29,23.82,23.82,0,0,1-4.53,3.1c-.56.32-1,.49-1.34.64a2.83,2.83,0,0,1-.49.18,18.32,18.32,0,0,1,1.74-1,26.69,26.69,0,0,0,4.38-3.19,30.75,30.75,0,0,0,9.05-15.15,40.17,40.17,0,0,0,.17-17.77c-.46-2.26-1-4-1.35-5.28A15.77,15.77,0,0,1,324.8,209.28Z" style="fill:#263238"></path><path d="M327.58,222.81a5.76,5.76,0,0,1-1.22-.27c-.78-.21-1.91-.49-3.31-.82a79.5,79.5,0,0,0-22.25-2c-1.43.07-2.59.15-3.39.22a5.41,5.41,0,0,1-1.25,0,5.51,5.51,0,0,1,1.23-.25c.79-.13,1.95-.26,3.39-.38a66.84,66.84,0,0,1,22.36,2c1.4.37,2.51.71,3.27,1A5,5,0,0,1,327.58,222.81Z" style="fill:#263238"></path><g style="opacity:0.30000000000000004"><path d="M314.29,201h0c5.44,3.5,12.78,3.1,18.54.15s10-8.42,12.23-14.49C337.53,195.36,326.35,201.67,314.29,201Z"></path></g><g style="opacity:0.30000000000000004"><path d="M311.38,253.59a15.39,15.39,0,0,0,11.44-6.4A27.75,27.75,0,0,0,327,234.77a58.83,58.83,0,0,1-5.48,10.79,26.74,26.74,0,0,1-4.31,4.33,28.53,28.53,0,0,1-5.84,3.7"></path></g><path d="M317,220.23a9,9,0,0,1,.71,2.6c.17.82.36,1.77.65,2.83a3.27,3.27,0,0,1,0,1.84,1.68,1.68,0,0,1-1.61,1.23,1.87,1.87,0,0,1-1.54-1.33,3.34,3.34,0,0,1,0-1.83c.29-1.09.6-2,.85-2.81a14.3,14.3,0,0,1,.91-2.53,13.75,13.75,0,0,1-.56,2.64c-.22.85-.47,1.79-.73,2.8a3,3,0,0,0,0,1.57,1.4,1.4,0,0,0,1.09,1,1.17,1.17,0,0,0,1.1-.88,3.05,3.05,0,0,0,0-1.56,25.32,25.32,0,0,1-.55-2.87C317.16,221.25,317,220.25,317,220.23Z" style="fill:#263238"></path><path d="M340.67,188.09a29.75,29.75,0,0,1-3.2-1.86,73.5,73.5,0,0,0-7.83-4.24,35.6,35.6,0,0,0-8.43-2.7c-2.24-.41-3.66-.42-3.66-.51a3.74,3.74,0,0,1,1-.06,19.68,19.68,0,0,1,2.71.2,31.54,31.54,0,0,1,8.6,2.59,55.67,55.67,0,0,1,7.81,4.41c.95.63,1.71,1.16,2.23,1.54A4,4,0,0,1,340.67,188.09Z" style="fill:#263238"></path><path d="M339.17,187.42c.06,0,.11.34-.17.77a1.74,1.74,0,0,1-1.77.74h0l-.33-.06.15-.31a2.46,2.46,0,0,1,1.41-1.23c.46-.15.76-.09.77,0s-.26.16-.62.37a2.68,2.68,0,0,0-1.09,1.12l-.17-.37h0a1.56,1.56,0,0,0,1.38-.46C339,187.68,339.09,187.41,339.17,187.42Z" style="fill:#263238"></path><path d="M423.64,185.5s-4-5.26-4-7.39l1.66-12.38s.72-1.25,1.84.82c1,1.9.44,4.84.44,4.84l.7,2.91,1.51-2.2,1.7-8.27s1.08-6,2-5.35,1.2,2.36.73,4.94-1.07,5.85-1.07,5.85-.12,1,.84-.69,2-8.93,2.39-9.9.51-3.55,2-3.41.62,3.43.62,3.43l-1.42,10.66s1.38-4.29,1.64-5,.67-3.07,1.17-4.35,1.24-1.94,1.89-1.86a1.22,1.22,0,0,1,1.15,1.22l-2.18,9.12s-1.21,4.15-1.13,4.42,1.61-1.73,1.61-1.73l1.18-3s1-4.19,2.1-4.31,1.16.73,1.16.73l-1.85,7.66L436.93,181l-3.21,6.57s-4.48-.7-4.65-.47S423.64,185.5,423.64,185.5Z" style="fill:#ffbe9d"></path><path d="M431.58,181.81a13.3,13.3,0,0,1-.92-1.92,6.66,6.66,0,0,0-3.32-3.54,3.58,3.58,0,0,0-2.35-.18l-.26.07-.06-.28c-.29-1.27-.69-2.44-.87-3.24a3.17,3.17,0,0,1-.21-1.33,6.52,6.52,0,0,1,.5,1.23,33.7,33.7,0,0,1,1.08,3.27l-.33-.21a4,4,0,0,1,2.7.16,5.64,5.64,0,0,1,2.33,1.81,9.3,9.3,0,0,1,1.14,2.08A6.29,6.29,0,0,1,431.58,181.81Z" style="fill:#eb996e"></path><path d="M389,179.51l22.15,33.11,10-28.86,13.62,3.35s-5.56,38.8-7.68,42.65-8.77,9.41-17,8.29-24.62-23.19-24.62-23.19Z" style="fill:#FF725E"></path><path d="M413.88,225.91a23,23,0,0,0-3-13.92,6,6,0,0,1,1.26,1.74A16.8,16.8,0,0,1,414,218.6a17.16,17.16,0,0,1,.34,5.2A6.17,6.17,0,0,1,413.88,225.91Z" style="fill:#263238"></path><g style="opacity:0.30000000000000004"><path d="M390.67,221.9a5.17,5.17,0,0,0,2.7-3.86,15.05,15.05,0,0,0-.15-4.87c-.89-6.53-2.14-13.33-3-19.86l.35,27.91"></path></g><g style="opacity:0.30000000000000004"><path d="M414.11,224.3a2.71,2.71,0,0,0,2-1.6,5.14,5.14,0,0,0,.35-2.64,10,10,0,0,0-5.46-8,22.28,22.28,0,0,1,3.08,12.22"></path></g><path d="M414.46,395.23l12.66,28.82,36.2-15.24c-1.67-3.36-24.77-1.65-24.77-1.65l-8-19.57Z" style="fill:#FF725E"></path><g style="opacity:0.6000000000000001"><path d="M428.14,409.55a1.61,1.61,0,0,0-.31,2.12,1.55,1.55,0,0,0,2.1.32,1.69,1.69,0,0,0,.31-2.24,1.6,1.6,0,0,0-2.21-.1" style="fill:#fff"></path></g><g style="opacity:0.6000000000000001"><path d="M427.12,424.05l-1.14-3,35.13-13.5s1.91,0,2.21,1.23Z" style="fill:#fff"></path></g><path d="M439.23,407.25c.07.18-.78.64-1.41,1.57s-.78,1.87-1,1.87-.36-1.13.43-2.25S439.2,407.08,439.23,407.25Z" style="fill:#263238"></path><path d="M444.66,406.9c.12.15-.52.77-.81,1.77s-.12,1.87-.3,1.93-.72-.88-.34-2.12S444.59,406.73,444.66,406.9Z" style="fill:#263238"></path><path d="M448.58,410.39c-.14.1-.76-.68-.71-1.83s.71-1.89.84-1.78-.15.85-.18,1.8S448.75,410.3,448.58,410.39Z" style="fill:#263238"></path><path d="M436.91,402.53c0,.19-.92.29-1.89.78s-1.62,1.13-1.78,1,.33-1.06,1.48-1.62S436.93,402.36,436.91,402.53Z" style="fill:#263238"></path><path d="M287.6,423.5l-1.55-15.39,12.84-16.17-15.74-10.12-.42.62-8,12.08-10.39,8.2,16.5,27.11,16.07-1.08S295.47,425,287.6,423.5Z" style="fill:#FF725E"></path><g style="opacity:0.6000000000000001"><polygon points="264.32 402.72 280.82 429.83 296.89 428.75 294.92 426.46 281.8 426.62 266.53 400.98 264.32 402.72" style="fill:#fff"></polygon></g><path d="M287,416.44c-.1.17-1.07-.29-2.31-.17s-2.12.69-2.25.54.68-1.13,2.2-1.25S287.16,416.31,287,416.44Z" style="fill:#263238"></path><path d="M286.51,412.63c-.16.13-.94-.77-2.23-.93s-2.29.49-2.4.33.11-.35.54-.63a3,3,0,0,1,1.95-.41,3,3,0,0,1,1.78.9C286.49,412.27,286.58,412.58,286.51,412.63Z" style="fill:#263238"></path><path d="M286.28,407.71c-.17.11-.78-.79-1.92-1.1s-2.13.12-2.22-.05.14-.32.57-.51a2.79,2.79,0,0,1,3.35.93C286.33,407.37,286.36,407.67,286.28,407.71Z" style="fill:#263238"></path><path d="M290.33,403.62c-.19.08-.7-.81-1.74-1.38s-2-.61-2.07-.81,1.16-.54,2.42.19S290.52,403.58,290.33,403.62Z" style="fill:#263238"></path><path d="M292.2,400.18c-.08.06-.65-.55-1.51-1.59-.49-.6-1-1.21-1.49-1.84a4.77,4.77,0,0,1-.83-1.24,1.24,1.24,0,0,1,0-1,1,1,0,0,1,.93-.58,3,3,0,0,1,1.56.68,5.4,5.4,0,0,1,2.05,3.31,3,3,0,0,1-.22,2.22,19.6,19.6,0,0,0-.27-2.11,5.51,5.51,0,0,0-1-2,5,5,0,0,0-.94-.89,2.63,2.63,0,0,0-1.15-.53.31.31,0,0,0-.3.17.69.69,0,0,0,0,.45,5.18,5.18,0,0,0,.7,1.08c.46.66.92,1.3,1.37,1.93A6.65,6.65,0,0,1,292.2,400.18Z" style="fill:#263238"></path><path d="M292.81,400.62c-.08,0-.07-.85.73-1.87a4,4,0,0,1,4.71-1.18.7.7,0,0,1,.29.55,1,1,0,0,1-.16.53,2.74,2.74,0,0,1-.54.54,7.14,7.14,0,0,1-3.17,1.46,3.35,3.35,0,0,1-2,0c0-.12.76-.11,1.89-.44a7.77,7.77,0,0,0,2.83-1.5,2.13,2.13,0,0,0,.4-.39c.06-.15,0-.11,0-.15a1.39,1.39,0,0,0-.48-.14,4,4,0,0,0-.6-.05,3.53,3.53,0,0,0-1.14.16,3.85,3.85,0,0,0-1.67,1C293.11,399.9,292.92,400.66,292.81,400.62Z" style="fill:#263238"></path><g style="opacity:0.6000000000000001"><path d="M277.11,401.38a1.91,1.91,0,1,1-2-1.78A1.91,1.91,0,0,1,277.11,401.38Z" style="fill:#fff"></path></g><path d="M362.06,127.77a33.28,33.28,0,0,1,3.52-9.43,13.8,13.8,0,0,1,7.62-6.29,18.43,18.43,0,0,1,10.2.25,16.73,16.73,0,0,1,6.25,3.83c3,2.59,4.53,6.63,5.79,10.38" style="fill:#FF725E"></path><path d="M397.56,126.77a14.41,14.41,0,0,0-5.46-9.15A19,19,0,0,0,382,114.2c-5.61-.43-12.17,1.1-16,5.2s-6.09,9.68-5.61,14.68c.21,2.25,2.39,8.34,4.12,9.81l32.14-.83C398.57,140,398.14,130.36,397.56,126.77Z" style="fill:#FF725E"></path><path d="M397,133.5a17.75,17.75,0,0,0-17.67-16.37h-.92c-9.92.56-15,9.29-14.15,19.19L366,182.06h22.73l-.2-14.89s9.54-1.46,9.67-11C398.26,151.57,397.62,142.08,397,133.5Z" style="fill:#ffbe9d"></path><path d="M388.6,167.16a23.15,23.15,0,0,1-12.48-3.68s2.92,6.86,12.43,6Z" style="fill:#eb996e"></path><path d="M393.24,141a1.37,1.37,0,0,1-1.32,1.37,1.3,1.3,0,0,1-1.4-1.23,1.37,1.37,0,0,1,1.32-1.37A1.3,1.3,0,0,1,393.24,141Z" style="fill:#263238"></path><path d="M394.89,138.16c-.17.18-1.2-.59-2.66-.59s-2.54.73-2.7.55.09-.39.56-.73a3.77,3.77,0,0,1,2.16-.67,3.62,3.62,0,0,1,2.12.69C394.82,137.76,395,138.08,394.89,138.16Z" style="fill:#263238"></path><path d="M379.15,141.69a1.36,1.36,0,0,1-1.31,1.37,1.31,1.31,0,0,1-1.4-1.23,1.36,1.36,0,0,1,1.31-1.38A1.31,1.31,0,0,1,379.15,141.69Z" style="fill:#263238"></path><path d="M380.47,138.89c-.16.18-1.2-.59-2.66-.58s-2.54.73-2.7.55.1-.4.57-.74a3.67,3.67,0,0,1,2.16-.66,3.58,3.58,0,0,1,2.12.68C380.4,138.49,380.56,138.81,380.47,138.89Z" style="fill:#263238"></path><path d="M385.79,149.28a9.85,9.85,0,0,1,2.38-.43c.37,0,.72-.11.79-.36a1.9,1.9,0,0,0-.25-1.11l-1.1-2.85c-1.53-4.06-2.63-7.4-2.47-7.46s1.54,3.18,3.06,7.24c.37,1,.72,2,1.06,2.87a2.18,2.18,0,0,1,.19,1.47.92.92,0,0,1-.62.54,2.22,2.22,0,0,1-.63.09A9.54,9.54,0,0,1,385.79,149.28Z" style="fill:#263238"></path><path d="M381.47,150.28c.24,0,.24,1.58,1.6,2.71s3.05,1,3.06,1.18-.37.31-1.09.33a4,4,0,0,1-2.56-.9,3.41,3.41,0,0,1-1.23-2.27C381.19,150.67,381.36,150.27,381.47,150.28Z" style="fill:#263238"></path><path d="M381.23,135.57c-.14.4-1.61.23-3.32.46s-3.1.7-3.34.35c-.1-.17.14-.55.69-.94a5.83,5.83,0,0,1,5.07-.61C381,135.07,381.29,135.38,381.23,135.57Z" style="fill:#263238"></path><path d="M395.25,133.93c-.28.36-1.55.14-3,.27s-2.7.5-3,.19c-.14-.16,0-.51.54-.88a4.91,4.91,0,0,1,2.4-.79,4.77,4.77,0,0,1,2.48.42C395.16,133.43,395.37,133.75,395.25,133.93Z" style="fill:#263238"></path><path d="M365.63,143.38c-.16-.07-6.54-1.95-6.35,4.57s6.7,5,6.71,4.79S365.63,143.38,365.63,143.38Z" style="fill:#ffbe9d"></path><path d="M364.5,150.33s-.12.08-.31.18a1.11,1.11,0,0,1-.84,0,2.81,2.81,0,0,1-1.38-2.48,3.8,3.8,0,0,1,.27-1.64,1.3,1.3,0,0,1,.83-.89.58.58,0,0,1,.68.29c.09.18.05.31.09.32s.13-.11.07-.38a.73.73,0,0,0-.26-.4.86.86,0,0,0-.64-.15,1.59,1.59,0,0,0-1.15,1.05,3.73,3.73,0,0,0-.34,1.82,2.94,2.94,0,0,0,1.74,2.77,1.19,1.19,0,0,0,1-.2C364.49,150.49,364.52,150.34,364.5,150.33Z" style="fill:#eb996e"></path><path d="M369.91,124l3.22-2.78,10.24,1.57,7.2-1.85,1.89,2.07c-.81,1.09.91-3.56-.73-4.8-3.53-2.68-6.51-2.58-11-2.66s-13.45,5.32-16.66,8.38c-2.57,2.45-2.55,4.56-2.55,4.56-.41,3.53,1.56,7.53,2.34,11,.41,1.78,1.19,7.18,1.19,7.18h0c1.5,0,2-1.19,1.83-2.67l-.28-5.81a8.78,8.78,0,0,0,2.68-10.25C368.94,127.42,368.11,125,369.91,124Z" style="fill:#263238"></path><path d="M368.58,125.56a4.66,4.66,0,0,1,4.55-3,8,8,0,0,1,5.18,2.37,6.72,6.72,0,0,0,1.17,1,1.51,1.51,0,0,0,1.44.08c.14-.07.28-.18.43-.14a.47.47,0,0,1,.24.22,4.06,4.06,0,0,0,1.51,1.43,1.67,1.67,0,0,0,1.93-.29,2.5,2.5,0,0,0,4.19-1.85,2.36,2.36,0,0,0,2.37-.9,4.84,4.84,0,0,0-1.2-7.39,8.74,8.74,0,0,0-3.15-.91,40.59,40.59,0,0,0-5.16-.39,6.53,6.53,0,0,0-2.25.27c-1,.36-1.82,1.17-2.86,1.3a5,5,0,0,1-2-.32,7.81,7.81,0,0,0-2.87-.42c-1.91.17-3.49,1.54-4.75,3a7.92,7.92,0,0,0-2,3.46,3.41,3.41,0,0,0,1.27,3.58,1.69,1.69,0,0,0,1.52.2,1,1,0,0,0,.54-1.31" style="fill:#263238"></path><path d="M364.07,140.48c-.7-5,.14-11,3.77-15.27s10.05-6.88,14.3-6.07c3.31.63,10.51.89,13.14,7.82l-.37-5.72s-3.2-6.5-12.65-6.3-13.57,1.3-18.14,6.86a12.83,12.83,0,0,0-2.61,12.7A33.92,33.92,0,0,0,364.07,140.48Z" style="fill:#FF725E"></path><path d="M390.1,116.35a1.7,1.7,0,0,1-.35-.12c-.22-.08-.54-.22-1-.36a23.31,23.31,0,0,0-3.7-1,26.45,26.45,0,0,0-5.64-.33,23,23,0,0,0-6.76,1.35,21.86,21.86,0,0,0-6,3.45,16,16,0,0,0-2.15,2.12c-.32.35-.58.72-.85,1.07s-.5.7-.7,1.05a20.07,20.07,0,0,0-1.68,3.43c-.17.41-.27.75-.35,1a1.51,1.51,0,0,1-.14.34l.09-.35c.08-.23.16-.57.32-1a18.45,18.45,0,0,1,1.62-3.48c.2-.35.45-.7.69-1.07s.53-.74.85-1.1a17,17,0,0,1,2.17-2.15,21.61,21.61,0,0,1,6-3.5,22.56,22.56,0,0,1,6.83-1.34,24.71,24.71,0,0,1,5.68.38,22.06,22.06,0,0,1,3.7,1c.43.16.74.32,1,.41Z" style="fill:#263238"></path><path d="M364.7,132.11a1,1,0,0,1-.29-.13,5.55,5.55,0,0,1-.71-.52,5.81,5.81,0,0,1-1.94-5.24,5,5,0,0,1,.21-.85c.07-.2.12-.3.13-.29s-.11.44-.18,1.16a6.39,6.39,0,0,0,.35,2.77,6.29,6.29,0,0,0,1.54,2.33C364.33,131.84,364.72,132.08,364.7,132.11Z" style="fill:#263238"></path><path d="M367.46,126.39a2.4,2.4,0,0,1-.82-.59,5.28,5.28,0,0,1-1.31-2.08,4.76,4.76,0,0,1-.19-2.45,2.48,2.48,0,0,1,.33-1s-.09.38-.18,1a5.37,5.37,0,0,0,.25,2.35,5.82,5.82,0,0,0,1.21,2C367.16,126.14,367.48,126.36,367.46,126.39Z" style="fill:#263238"></path><path d="M371.93,122.22a2.38,2.38,0,0,1-.69-.48,5.7,5.7,0,0,1-1.26-1.61,5,5,0,0,1-.53-2,2,2,0,0,1,.07-.84,7.57,7.57,0,0,0,.66,2.71A10.25,10.25,0,0,0,371.93,122.22Z" style="fill:#263238"></path><path d="M376.24,114.84a1.94,1.94,0,0,1,.41.63,8,8,0,0,1,.65,1.68,8.64,8.64,0,0,1,.26,1.79,2.22,2.22,0,0,1-.06.75c-.07,0-.07-1.14-.42-2.48S376.18,114.87,376.24,114.84Z" style="fill:#263238"></path><path d="M384.54,114.68a1.8,1.8,0,0,1,.33.67,4.86,4.86,0,0,1,.23,1.79,4.76,4.76,0,0,1-.43,1.75,1.68,1.68,0,0,1-.41.63,8,8,0,0,0,.62-2.39A8.28,8.28,0,0,0,384.54,114.68Z" style="fill:#263238"></path><path d="M389.87,116.18a2.13,2.13,0,0,1,.44.68,5,5,0,0,1,.45,1.92,4.72,4.72,0,0,1-.35,1.93,2,2,0,0,1-.4.71,7.64,7.64,0,0,0,.52-2.64A7.55,7.55,0,0,0,389.87,116.18Z" style="fill:#263238"></path><path d="M395,120.67a1.41,1.41,0,0,1,.11.64,4.37,4.37,0,0,1-1,2.94c-.27.31-.48.45-.49.43a8.84,8.84,0,0,0,1.07-1.88A8.55,8.55,0,0,0,395,120.67Z" style="fill:#263238"></path><path d="M397.59,126.26a2.55,2.55,0,0,1-.52,1.54,2.45,2.45,0,0,1-1.21,1.07,12.51,12.51,0,0,0,1-1.2C397.37,127,397.52,126.25,397.59,126.26Z" style="fill:#263238"></path><path d="M397.94,132.55c.05,0,0,.39-.35.69s-.72.33-.72.27.29-.18.57-.44S397.87,132.53,397.94,132.55Z" style="fill:#263238"></path><path d="M364,137.74a4.86,4.86,0,0,1-3.57-2.44,8.57,8.57,0,0,0,3.57,2.44Z" style="fill:#263238"></path><path d="M364.55,140.89c0,.05-.32.38-.9.41s-1-.25-.94-.3.42.11.93.07S364.52,140.84,364.55,140.89Z" style="fill:#263238"></path><g style="opacity:0.30000000000000004"><path d="M389.32,116.13a18.25,18.25,0,0,0-14-2.55,18.75,18.75,0,0,0-11.55,8.71s5.89-7.45,14.33-7.71S389.32,116.13,389.32,116.13Z"></path></g><path d="M382.8,141.24a9.51,9.51,0,0,0-.19-1.17,4.84,4.84,0,0,0-1.77-2.62,4.73,4.73,0,0,0-2-.88,4.81,4.81,0,0,0-2.5.21,4.76,4.76,0,0,0-2.2,1.66,4.74,4.74,0,0,0,0,5.61,4.76,4.76,0,0,0,2.2,1.66,4.79,4.79,0,0,0,4.51-.67,4.87,4.87,0,0,0,1.77-2.62,9.16,9.16,0,0,0,.19-1.18,3.75,3.75,0,0,1-.11,1.2,4.82,4.82,0,0,1-1.75,2.73,5,5,0,0,1-2.08.93,4.87,4.87,0,0,1-2.6-.2,4.64,4.64,0,0,1-1.26-.67,4.75,4.75,0,0,1-1.05-1,4.93,4.93,0,0,1,0-5.87,4.75,4.75,0,0,1,1.05-1.05,4.64,4.64,0,0,1,1.26-.67,4.89,4.89,0,0,1,4.68.73,4.82,4.82,0,0,1,1.75,2.73A3.7,3.7,0,0,1,382.8,141.24Z" style="fill:#455a64"></path><path d="M397.32,140.67s0-.43-.2-1.17a4.84,4.84,0,0,0-1.77-2.62,4.67,4.67,0,0,0-2-.88,4.81,4.81,0,0,0-2.5.21,4.68,4.68,0,0,0-1.2.65,4.76,4.76,0,0,0,0,7.63,4.68,4.68,0,0,0,1.2.65,4.79,4.79,0,0,0,4.51-.67,4.87,4.87,0,0,0,1.77-2.62c.19-.74.16-1.18.2-1.18a4.17,4.17,0,0,1-.11,1.2,4.9,4.9,0,0,1-1.76,2.73,5,5,0,0,1-2.08.93,4.87,4.87,0,0,1-2.6-.2,4.79,4.79,0,0,1-1.26-.67,4.93,4.93,0,0,1-1.05-6.92,4.93,4.93,0,0,1,2.31-1.72,4.89,4.89,0,0,1,4.68.73,4.9,4.9,0,0,1,1.76,2.73A4.11,4.11,0,0,1,397.32,140.67Z" style="fill:#455a64"></path><path d="M387.77,138.82s-.28-.19-.76-.42a4,4,0,0,0-4,.23c-.46.29-.69.54-.71.51a1.83,1.83,0,0,1,.62-.64,3.74,3.74,0,0,1,2-.74,3.81,3.81,0,0,1,2.1.5A2,2,0,0,1,387.77,138.82Z" style="fill:#455a64"></path><path d="M373.42,140.34c0,.06-1.93.72-4.36,1.48s-4.41,1.31-4.42,1.26,1.93-.72,4.35-1.48S373.4,140.28,373.42,140.34Z" style="fill:#455a64"></path><path d="M377.77,145.27a2.1,2.1,0,0,1-.85-.11,4.47,4.47,0,0,1-1.79-1,4.57,4.57,0,0,1-1.16-1.72,2,2,0,0,1-.17-.84,7.57,7.57,0,0,1,.32.78A5.12,5.12,0,0,0,377,145,7.68,7.68,0,0,1,377.77,145.27Z" style="fill:#fff"></path><path d="M389.67,143.68s-.31-.06-.65-.43a3.54,3.54,0,0,1-.79-1.71,4.66,4.66,0,0,1,0-1.89,1.47,1.47,0,0,1,.31-.71s-.08.28-.16.75a5.85,5.85,0,0,0,0,1.81,4,4,0,0,0,.69,1.65A5.27,5.27,0,0,0,389.67,143.68Z" style="fill:#fff"></path><path d="M382.64,150.62c0-.05.14-.3.42-.57s.52-.46.57-.41-.14.3-.42.57S382.69,150.66,382.64,150.62Z" style="fill:#263238"></path><path d="M383.34,151.05s.14-.35.41-.69.53-.6.57-.56-.13.35-.4.69S383.39,151.09,383.34,151.05Z" style="fill:#263238"></path><path d="M384.06,151.58c-.06,0,.06-.35.25-.72s.4-.64.46-.62-.06.36-.26.73S384.11,151.61,384.06,151.58Z" style="fill:#263238"></path><path d="M385.15,151.59c-.06,0-.09-.23-.07-.5s.09-.49.15-.49.09.23.07.5S385.22,151.59,385.15,151.59Z" style="fill:#263238"></path><path d="M386.2,151.76c-.07,0-.12-.2-.12-.44s.05-.45.12-.45.11.2.11.45S386.26,151.76,386.2,151.76Z" style="fill:#263238"></path><path d="M387.18,151.85c-.06,0-.17-.23-.25-.55s-.08-.6,0-.61.17.24.24.56S387.24,151.84,387.18,151.85Z" style="fill:#263238"></path><path d="M364.64,153a1.58,1.58,0,0,1-.29,1.11,1.52,1.52,0,0,1-1.06.72,1.5,1.5,0,0,1-1.42-.62,2,2,0,0,1-.34-1.52,1.75,1.75,0,0,1,.73-1.05,1.39,1.39,0,0,1,1.11-.27,2.54,2.54,0,0,0-1,.4,1.67,1.67,0,0,0-.62,1,1.88,1.88,0,0,0,.32,1.35,1.32,1.32,0,0,0,1.22.54,1.34,1.34,0,0,0,.94-.6A3,3,0,0,0,364.64,153Z" style="fill:#263238"></path><path d="M351.17,300c1.21,0,51.17,52,51.17,55.61s7.42,40.24,11,45.88,5.73,4.32,5.73,4.32l16.61-7.74s-9.2-57-11.22-63.41-40.12-56.82-40.12-56.82l-36,6.85Z" style="fill:#263238"></path><path d="M332.72,274,322.34,338.1s-32.47,32.51-34.49,36.13c0,0-3.62-1.21-4.83,2a67.65,67.65,0,0,0-2.25,9.23L296.89,399s42.59-35.31,46.62-40.55,20.91-39.79,24.14-48.65,7-28.51,7-28.51Z" style="fill:#263238"></path><path d="M410.71,344a7.21,7.21,0,0,1-.72,2,27.87,27.87,0,0,1-2.56,4.46,24.07,24.07,0,0,1-3.36,3.91,5.89,5.89,0,0,1-1.73,1.26,16.57,16.57,0,0,1,1.47-1.52,35.41,35.41,0,0,0,3.19-4C409.3,346.91,410.56,343.91,410.71,344Z" style="fill:#455a64"></path><path d="M328.16,342.54a5.59,5.59,0,0,1-3.42-1.48,5.69,5.69,0,0,1-2.16-3,29.72,29.72,0,0,0,2.49,2.63A29.18,29.18,0,0,0,328.16,342.54Z" style="fill:#455a64"></path><path d="M294.65,382.6a11.45,11.45,0,0,1-6.13-8.53,29.22,29.22,0,0,0,2.46,4.7A27.53,27.53,0,0,0,294.65,382.6Z" style="fill:#455a64"></path><path d="M346.12,283.48a2.47,2.47,0,0,1-.21.72,14.32,14.32,0,0,1-.84,1.86,20.76,20.76,0,0,1-9.71,9.08,14.15,14.15,0,0,1-1.91.72,2.08,2.08,0,0,1-.73.16c0-.09,1-.44,2.48-1.21a24.15,24.15,0,0,0,5.4-3.79,24.41,24.41,0,0,0,4.15-5.14C345.62,284.42,346,283.44,346.12,283.48Z" style="fill:#455a64"></path><path d="M371.58,299.86a11.93,11.93,0,0,1-.56,1.64c-.44,1.12-1,2.6-1.71,4.4-1.48,3.69-3.56,8.79-6.05,14.34s-4.92,10.5-6.7,14.06l-2.14,4.2a11.2,11.2,0,0,1-.85,1.51,11.76,11.76,0,0,1,.67-1.6l2-4.27c1.7-3.61,4.07-8.57,6.55-14.11s4.62-10.61,6.18-14.28c.77-1.76,1.4-3.22,1.87-4.33A11.35,11.35,0,0,1,371.58,299.86Z" style="fill:#455a64"></path><path d="M362.82,169.9s-11,4.43-13.55,12.16c-1.3,3.91-8.88,32.5-8.88,32.5s-10,54.9-8.62,60.13L389,283.48h0a8.81,8.81,0,0,0,2-6.13l-.93-16.45.67-70.51a9.14,9.14,0,0,0-.11-1.57l-2-13,.64-5.61-25.65-6.78Z" style="fill:#FF725E"></path><path d="M361.28,165.48h0a3.17,3.17,0,0,1,3.94-2.57l23.45,6.19a3.18,3.18,0,0,1,2.36,3.24l-.06,1a3.17,3.17,0,0,1-4.1,2.84L363.48,169A3.16,3.16,0,0,1,361.28,165.48Z" style="fill:#FF725E"></path><path d="M389,175.9a6.22,6.22,0,0,1-1.22-.23l-3.25-.82c-2.75-.72-6.53-1.74-10.69-2.9l-5.58-1.58h0a14.56,14.56,0,0,1-2.07-.48,5.11,5.11,0,0,1-.93-.4,1.6,1.6,0,0,1-.43-.32,2.62,2.62,0,0,1-.28-.43,3.12,3.12,0,0,1-.22-1.75,5.61,5.61,0,0,1,.39-1.43,6.27,6.27,0,0,1,1.08-1.76c.33-.35.55-.49.56-.47a8.22,8.22,0,0,0-1.37,2.34,4,4,0,0,0-.08,2.89c.22.5.8.69,1.42.9a13.32,13.32,0,0,0,2,.43h0l5.59,1.54c4.16,1.16,7.93,2.24,10.65,3l3.21,1A6.81,6.81,0,0,1,389,175.9Z" style="fill:#263238"></path><path d="M389.23,179.9a2.08,2.08,0,0,1,.1.52c.05.4.11.89.18,1.49.14,1.3.32,3.18.49,5.51.37,4.66.74,11.1.95,18.22s.19,13.58,0,18.25c-.07,2.33-.17,4.22-.26,5.52-.05.61-.1,1.1-.13,1.5a1.71,1.71,0,0,1-.08.52,2.09,2.09,0,0,1,0-.52c0-.41,0-.9,0-1.51,0-1.3.08-3.19.1-5.52.07-4.66,0-11.11-.18-18.23s-.52-13.55-.79-18.2c-.14-2.28-.25-4.14-.34-5.52,0-.6-.05-1.1-.07-1.5A2.36,2.36,0,0,1,389.23,179.9Z" style="fill:#263238"></path><path d="M372.59,165.21a19.13,19.13,0,0,0-.93,2.9,20.74,20.74,0,0,0,0,3,4,4,0,0,1-.52-3.12A4.06,4.06,0,0,1,372.59,165.21Z" style="fill:#263238"></path><path d="M379.25,166.74c.05,0,.29.28.49.86a4.84,4.84,0,0,1-.9,4.55c-.4.46-.74.65-.78.6a10,10,0,0,0,1.3-2.86A10.52,10.52,0,0,0,379.25,166.74Z" style="fill:#263238"></path><path d="M385.74,168.54c.05,0,.32.24.56.8a4.32,4.32,0,0,1-.73,4.51c-.41.46-.75.63-.79.58a5.83,5.83,0,0,0,1-5.89Z" style="fill:#263238"></path><path d="M382.36,184.41c-2.16-6.38-7.4-11.95-14-13.26s-12.8.09-17.51,5.58l-6,12.75c2.66-1.48,6.92-10.13,11.88-13.07s10.48-3,14.56,1.09c3,3,5.25,7.36,5.18,11.64-.14,8.38-3.63,16.24-6.17,24.24-3.26,10.26-5.84,21.2-13.37,28.91-6.05,6.19-14.15,9.88-22,13.43-1.86,1.53-6.16,7.09-3.94,8s10.29-2,12.58-2.71c5.71-1.74,11.64-3.61,16-7.71,4-3.81,6.22-9.12,8.3-14.26,4-9.92,6.62-20.26,10.63-30.19C381.9,200.4,385.28,193.05,382.36,184.41Z" style="fill:#455a64"></path><path d="M373.23,291.18l-4.56-7.7-15.26,5.32h0s1,13.56,3,13.95a4.19,4.19,0,0,0,3.41-.92s1.14,3.54,3.42,3.69l1.27.06c.41.32,2.73,2,4.65,1.38,0,0,1.76,3.82,3.18,3.42s2.34-5,2.34-5Z" style="fill:#ffbe9d"></path><path d="M359.45,174.57a16,16,0,0,0-10.38,11.84c-3,14.37-10.16,52-9.87,57.3.37,6.74,13.22,46.68,13.22,46.68l18-5.42-8.17-45S375,197.87,376,191.47C377.1,184.48,371,170.57,359.45,174.57Z" style="fill:#FF725E"></path><path d="M359.45,174.6a11,11,0,0,1,1.4-.45,10,10,0,0,1,4.26-.22,10.73,10.73,0,0,1,5.95,3.3,20.48,20.48,0,0,1,5.23,13.49,14.08,14.08,0,0,1-.37,2.93c-.2,1-.45,2-.69,3-1,4-2.24,8.33-3.56,12.91-2.65,9.16-5.73,19.41-9.15,30.48v-.11l8.19,45,0,.23-.22.07-8.44,2.53-9.6,2.89-.25.07-.07-.24c-2.67-8.19-5.19-16.19-7.51-23.93-1.15-3.87-2.27-7.67-3.28-11.42-.5-1.87-1-3.72-1.43-5.57-.23-.92-.42-1.85-.6-2.77A20.12,20.12,0,0,1,339,244a44.29,44.29,0,0,1,.49-5.48c.25-1.78.5-3.53.78-5.26.54-3.45,1.13-6.78,1.7-10,1.15-6.44,2.29-12.41,3.34-17.84l2.89-14.64a55.55,55.55,0,0,1,1.36-6,17.43,17.43,0,0,1,2.36-4.56,16,16,0,0,1,5.29-4.67,12,12,0,0,1,2.26-1s-.19.1-.57.26a14,14,0,0,0-1.64.81,16.11,16.11,0,0,0-5.18,4.69,17.56,17.56,0,0,0-2.3,4.52,59.62,59.62,0,0,0-1.31,5.94c-.83,4.31-1.77,9.22-2.82,14.65s-2.14,11.42-3.27,17.85c-.56,3.22-1.13,6.55-1.67,10-.28,1.72-.53,3.47-.77,5.25a46.28,46.28,0,0,0-.47,5.4,19.76,19.76,0,0,0,.38,2.72c.17.92.37,1.83.6,2.75.42,1.84.93,3.69,1.43,5.55,1,3.74,2.14,7.54,3.29,11.4,2.33,7.73,4.85,15.73,7.52,23.92l-.32-.17,9.6-2.88,8.44-2.54-.18.3c-2.9-16-5.65-31.23-8.15-45v-.06l0-.06c3.43-11.07,6.54-21.3,9.22-30.45,1.33-4.57,2.57-8.87,3.6-12.88a28.66,28.66,0,0,0,1.09-5.82,20.45,20.45,0,0,0-5.08-13.34,10.65,10.65,0,0,0-5.82-3.3,10.1,10.1,0,0,0-4.22.15,9.62,9.62,0,0,0-1.05.28A3.53,3.53,0,0,1,359.45,174.6Z" style="fill:#263238"></path><path d="M362.47,239.73a17.62,17.62,0,0,0-9.8-3.31,11,11,0,0,1,9.8,3.31Z" style="fill:#263238"></path><g style="opacity:0.30000000000000004"><path d="M348.07,277.79c-8.39-12.44-12.8-29.83-8-42.2-1.31,7.41-.06,14.18,2.15,21.37s4.85,14.36,5.28,21.87"></path></g></g><g id="freepik--Rocks--inject-7"><polyline points="322.25 454.97 297.41 428.76 277.05 429.91 262.63 435.61 253.48 454.97" style="fill:#f5f5f5"></polyline><polygon points="277.05 429.91 298.14 454.97 322.25 454.97 297.41 428.76 277.05 429.91" style="fill:#e0e0e0"></polygon><path d="M253.48,455a1.87,1.87,0,0,1,.14-.37l.45-1.05c.44-.95,1-2.27,1.8-3.94l6.56-14.09,0-.08.09,0,14.4-5.74H277l9.78-.56,10.59-.59h.12l.08.09,17.7,18.8,5.14,5.54c.57.62,1,1.12,1.36,1.5a3,3,0,0,1,.45.54,5.91,5.91,0,0,1-.51-.48l-1.43-1.44-5.25-5.44c-4.48-4.68-10.7-11.2-17.83-18.67l.2.08-10.59.6-9.78.54h.08l-14.43,5.66.11-.11c-2.77,5.79-5.08,10.61-6.72,14l-1.91,3.89-.51,1A1.83,1.83,0,0,1,253.48,455Z" style="fill:#263238"></path><polyline points="141.28 454.97 150.76 438.51 168.05 433.69 184.22 447.44 184.22 454.97" style="fill:#ebebeb"></polyline><polygon points="150.76 438.51 184.22 447.44 168.05 433.69 150.76 438.51" style="fill:#e0e0e0"></polygon><path d="M184.22,455a2.15,2.15,0,0,1-.05-.52c0-.38,0-.87,0-1.47,0-1.36,0-3.22-.07-5.54l.05.12-16.23-13.68.24.05L164.18,435l-13.36,3.7.14-.11L144,450.46c-.84,1.4-1.51,2.52-2,3.34l-.54.88a2.34,2.34,0,0,1-.21.29,1.44,1.44,0,0,1,.14-.33l.48-.91,1.89-3.41,6.76-11.92,0-.09.1,0L164,434.53l3.94-1.09.13,0,.1.09,16.12,13.82.06.05v.08c0,2.32-.06,4.18-.08,5.54,0,.6,0,1.09,0,1.47A2.15,2.15,0,0,1,184.22,455Z" style="fill:#263238"></path><polygon points="484.56 425.38 460.56 411.71 418.42 427.06 384.38 454.97 504.8 454.35 484.56 425.38" style="fill:#f5f5f5"></polygon><polygon points="384.38 454.97 427.56 429.91 484.56 425.38 459.6 410.61 418.42 427.06 384.38 454.97" style="fill:#e0e0e0"></polygon><polygon points="446.42 454.65 467.99 439.87 487.66 438.47 471.2 442.13 462.68 454.57 446.42 454.65" style="fill:#e0e0e0"></polygon><path d="M384.38,455s0-.06.15-.15l.46-.41,1.82-1.54,6.94-5.77,24.52-20.22,0,0h0l30-12.2,11.08-4.48.12-.05.11.07,25,15,0,0,0,0,14.62,21.08,4.05,5.9,1,1.57a6.15,6.15,0,0,1,.34.54s-.14-.16-.39-.51l-1.11-1.52c-1-1.37-2.37-3.34-4.15-5.83l-14.77-21,.07.06-25-14.95.22,0-11.07,4.49-30.06,12.15.06,0-24.64,20.08-7,5.67L385,454.47l-.49.38Z" style="fill:#263238"></path><path d="M488.33,438.42a8.46,8.46,0,0,1-1.56.21l-4.29.38L468,440.13l.13,0-2.37,1.62c-5.3,3.63-10.11,6.9-13.61,9.24L448,453.7l-1.15.73c-.26.16-.41.24-.42.22a2.16,2.16,0,0,1,.36-.31l1.09-.81,4.07-2.88c3.45-2.42,8.23-5.74,13.53-9.37l2.37-1.62.06,0H468l14.48-.94,4.31-.23A11,11,0,0,1,488.33,438.42Z" style="fill:#263238"></path><polygon points="598.03 440.6 583.61 434.89 559.57 439.26 547.92 454.92 604.97 454.97 598.03 440.6" style="fill:#f5f5f5"></polygon><path d="M559.57,439.26c.7-.13,38.46,1.34,38.46,1.34l-14.42-5.7Z" style="fill:#e0e0e0"></path><path d="M547.93,454.92a1.27,1.27,0,0,1,.18-.31l.6-.86,2.32-3.23,8.36-11.4.05-.07h.09l17.89-3.28,6.15-1.12h.07l.07,0,14.4,5.74.08,0,0,.07,5,10.5,1.34,2.92.34.77a1.27,1.27,0,0,1,.1.28,1,1,0,0,1-.16-.25l-.39-.75c-.36-.7-.85-1.67-1.45-2.87-1.26-2.54-3-6.11-5.13-10.41l.11.1-14.43-5.66.14,0-6.15,1.12-17.89,3.21.14-.08c-3.5,4.63-6.42,8.51-8.52,11.28l-2.42,3.15-.65.82Q547.94,454.93,547.93,454.92Z" style="fill:#263238"></path></g><g id="freepik--Floor--inject-7"><path d="M705.1,455c0,.14-150,.26-335.08.26S34.9,455.11,34.9,455s150-.26,335.12-.26S705.1,454.82,705.1,455Z" style="fill:#263238"></path><path d="M293.6,462.91c0,.15-21.49.26-48,.26s-48-.11-48-.26,21.48-.26,48-.26S293.6,462.77,293.6,462.91Z" style="fill:#263238"></path><path d="M258,469.17c0,.14-6.79.26-15.15.26s-15.16-.12-15.16-.26,6.79-.26,15.16-.26S258,469,258,469.17Z" style="fill:#263238"></path></g></svg>
