<svg xmlns="http://www.w3.org/2000/svg" viewBox="0 0 500 500"><g id="freepik--background-complete--inject-144"><rect x="416.78" y="398.49" width="33.12" height="0.25" style="fill:#ebebeb"></rect><rect x="322.53" y="401.21" width="8.69" height="0.25" style="fill:#ebebeb"></rect><rect x="396.59" y="389.21" width="19.19" height="0.25" style="fill:#ebebeb"></rect><rect x="52.46" y="390.89" width="43.19" height="0.25" style="fill:#ebebeb"></rect><rect x="104.56" y="390.89" width="6.33" height="0.25" style="fill:#ebebeb"></rect><rect x="131.47" y="395.11" width="93.68" height="0.25" style="fill:#ebebeb"></rect><path d="M238.4,337.8H45.3a5.71,5.71,0,0,1-5.71-5.71V60.66A5.71,5.71,0,0,1,45.3,55H238.4a5.71,5.71,0,0,1,5.71,5.71V332.09A5.71,5.71,0,0,1,238.4,337.8ZM45.3,55.2a5.47,5.47,0,0,0-5.46,5.46V332.09a5.47,5.47,0,0,0,5.46,5.46H238.4a5.47,5.47,0,0,0,5.46-5.46V60.66a5.47,5.47,0,0,0-5.46-5.46Z" style="fill:#ebebeb"></path><path d="M454.7,337.8H261.6a5.71,5.71,0,0,1-5.71-5.71V60.66A5.71,5.71,0,0,1,261.6,55H454.7a5.71,5.71,0,0,1,5.71,5.71V332.09A5.71,5.71,0,0,1,454.7,337.8ZM261.6,55.2a5.47,5.47,0,0,0-5.46,5.46V332.09a5.47,5.47,0,0,0,5.46,5.46H454.7a5.47,5.47,0,0,0,5.46-5.46V60.66a5.47,5.47,0,0,0-5.46-5.46Z" style="fill:#ebebeb"></path><rect y="382.4" width="500" height="0.25" style="fill:#ebebeb"></rect><rect x="275.4" y="217.97" width="86.66" height="149.85" style="fill:#ebebeb"></rect><polygon points="345.42 197.03 345.42 217.97 338.58 217.97 298.87 217.97 292.04 217.97 292.04 197.03 345.42 197.03" style="fill:#ebebeb"></polygon><rect x="345.41" y="223.51" width="11.09" height="11.09" transform="translate(701.92 458.12) rotate(180)" style="fill:#fafafa"></rect><rect x="323.92" y="223.51" width="11.09" height="11.09" transform="translate(658.94 458.12) rotate(180)" style="fill:#fafafa"></rect><rect x="302.43" y="223.51" width="11.09" height="11.09" transform="translate(615.96 458.12) rotate(180)" style="fill:#fafafa"></rect><rect x="280.94" y="223.51" width="11.09" height="11.09" transform="translate(572.98 458.12) rotate(180)" style="fill:#fafafa"></rect><rect x="345.41" y="243.67" width="11.09" height="11.09" transform="translate(701.92 498.44) rotate(180)" style="fill:#fafafa"></rect><rect x="323.92" y="243.67" width="11.09" height="11.09" transform="translate(658.94 498.44) rotate(180)" style="fill:#fafafa"></rect><rect x="302.43" y="243.67" width="11.09" height="11.09" transform="translate(615.96 498.44) rotate(180)" style="fill:#fafafa"></rect><rect x="280.94" y="243.67" width="11.09" height="11.09" transform="translate(572.98 498.44) rotate(180)" style="fill:#fafafa"></rect><rect x="345.41" y="263.83" width="11.09" height="11.09" transform="translate(701.92 538.76) rotate(180)" style="fill:#fafafa"></rect><rect x="323.92" y="263.83" width="11.09" height="11.09" transform="translate(658.94 538.76) rotate(180)" style="fill:#fafafa"></rect><rect x="302.43" y="263.83" width="11.09" height="11.09" transform="translate(615.96 538.76) rotate(180)" style="fill:#fafafa"></rect><rect x="323.92" y="206.09" width="11.09" height="11.09" transform="translate(658.94 423.28) rotate(180)" style="fill:#fafafa"></rect><rect x="302.43" y="206.09" width="11.09" height="11.09" transform="translate(615.96 423.28) rotate(180)" style="fill:#fafafa"></rect><rect x="280.94" y="263.83" width="11.09" height="11.09" transform="translate(572.98 538.76) rotate(180)" style="fill:#fafafa"></rect><rect x="345.41" y="283.99" width="11.09" height="11.09" transform="translate(701.92 579.08) rotate(180)" style="fill:#fafafa"></rect><rect x="323.92" y="283.99" width="11.09" height="11.09" transform="translate(658.94 579.08) rotate(180)" style="fill:#fafafa"></rect><rect x="302.43" y="283.99" width="11.09" height="11.09" transform="translate(615.96 579.08) rotate(180)" style="fill:#fafafa"></rect><rect x="280.94" y="283.99" width="11.09" height="11.09" transform="translate(572.98 579.08) rotate(180)" style="fill:#fafafa"></rect><rect x="345.41" y="304.15" width="11.09" height="11.09" transform="translate(701.92 619.39) rotate(180)" style="fill:#fafafa"></rect><rect x="323.92" y="304.15" width="11.09" height="11.09" transform="translate(658.94 619.39) rotate(180)" style="fill:#fafafa"></rect><rect x="302.43" y="304.15" width="11.09" height="11.09" transform="translate(615.96 619.39) rotate(180)" style="fill:#fafafa"></rect><rect x="280.94" y="304.15" width="11.09" height="11.09" transform="translate(572.98 619.39) rotate(180)" style="fill:#fafafa"></rect><rect x="345.41" y="324.31" width="11.09" height="11.09" transform="translate(701.92 659.71) rotate(180)" style="fill:#fafafa"></rect><rect x="323.92" y="324.31" width="11.09" height="11.09" transform="translate(658.94 659.71) rotate(180)" style="fill:#fafafa"></rect><rect x="302.43" y="324.31" width="11.09" height="11.09" transform="translate(615.96 659.71) rotate(180)" style="fill:#fafafa"></rect><rect x="280.94" y="324.31" width="11.09" height="11.09" transform="translate(572.98 659.71) rotate(180)" style="fill:#fafafa"></rect><rect x="345.41" y="344.47" width="11.09" height="11.09" transform="translate(701.92 700.03) rotate(180)" style="fill:#fafafa"></rect><rect x="323.92" y="344.47" width="11.09" height="11.09" transform="translate(658.94 700.03) rotate(180)" style="fill:#fafafa"></rect><rect x="302.43" y="344.47" width="11.09" height="11.09" transform="translate(615.96 700.03) rotate(180)" style="fill:#fafafa"></rect><rect x="280.94" y="344.47" width="11.09" height="11.09" transform="translate(572.98 700.03) rotate(180)" style="fill:#fafafa"></rect><polyline points="273.61 218.08 273.61 215.82 363.85 215.82 363.85 218.08" style="fill:#f5f5f5"></polyline><rect x="49.69" y="183.37" width="106.67" height="184.44" style="fill:#e6e6e6"></rect><polygon points="135.88 157.59 135.88 183.37 127.47 183.37 78.59 183.37 70.18 183.37 70.18 157.59 135.88 157.59" style="fill:#e6e6e6"></polygon><rect x="47.49" y="180.72" width="111.07" height="2.79" style="fill:#f5f5f5"></rect><rect x="67.39" y="154.81" width="71.28" height="2.79" style="fill:#f5f5f5"></rect><rect x="71.93" y="183.37" width="106.67" height="184.44" style="fill:#f0f0f0"></rect><polygon points="158.12 157.59 158.12 183.37 149.71 183.37 100.83 183.37 92.42 183.37 92.42 157.59 158.12 157.59" style="fill:#f0f0f0"></polygon><rect x="158.12" y="190.2" width="13.66" height="13.66" transform="translate(329.89 394.05) rotate(180)" style="fill:#fff"></rect><rect x="131.67" y="190.2" width="13.66" height="13.66" transform="translate(276.99 394.05) rotate(180)" style="fill:#fff"></rect><rect x="105.21" y="190.2" width="13.66" height="13.66" transform="translate(224.08 394.05) rotate(180)" style="fill:#fff"></rect><rect x="78.76" y="190.2" width="13.66" height="13.66" transform="translate(171.18 394.05) rotate(180)" style="fill:#fff"></rect><rect x="158.12" y="215.01" width="13.66" height="13.66" transform="translate(329.89 443.68) rotate(180)" style="fill:#fff"></rect><rect x="131.67" y="215.01" width="13.66" height="13.66" transform="translate(276.99 443.68) rotate(180)" style="fill:#fff"></rect><rect x="105.21" y="215.01" width="13.66" height="13.66" transform="translate(224.08 443.68) rotate(180)" style="fill:#fff"></rect><rect x="78.76" y="215.01" width="13.66" height="13.66" transform="translate(171.18 443.68) rotate(180)" style="fill:#fff"></rect><rect x="158.12" y="239.82" width="13.66" height="13.66" transform="translate(329.89 493.3) rotate(180)" style="fill:#fff"></rect><rect x="131.67" y="239.82" width="13.66" height="13.66" transform="translate(276.99 493.3) rotate(180)" style="fill:#fff"></rect><rect x="105.21" y="239.82" width="13.66" height="13.66" transform="translate(224.08 493.3) rotate(180)" style="fill:#fff"></rect><rect x="131.67" y="168.75" width="13.66" height="13.66" transform="translate(276.99 351.16) rotate(180)" style="fill:#fff"></rect><rect x="105.21" y="168.75" width="13.66" height="13.66" transform="translate(224.08 351.16) rotate(180)" style="fill:#fff"></rect><rect x="78.76" y="239.82" width="13.66" height="13.66" transform="translate(171.18 493.3) rotate(180)" style="fill:#fff"></rect><rect x="158.12" y="264.64" width="13.66" height="13.66" transform="translate(329.89 542.93) rotate(180)" style="fill:#fff"></rect><rect x="131.67" y="264.64" width="13.66" height="13.66" transform="translate(276.99 542.93) rotate(180)" style="fill:#fff"></rect><rect x="105.21" y="264.64" width="13.66" height="13.66" transform="translate(224.08 542.93) rotate(180)" style="fill:#fff"></rect><rect x="78.76" y="264.64" width="13.66" height="13.66" transform="translate(171.18 542.93) rotate(180)" style="fill:#fff"></rect><rect x="158.12" y="289.45" width="13.66" height="13.66" transform="translate(329.89 592.56) rotate(180)" style="fill:#fff"></rect><rect x="131.67" y="289.45" width="13.66" height="13.66" transform="translate(276.99 592.56) rotate(180)" style="fill:#fff"></rect><rect x="105.21" y="289.45" width="13.66" height="13.66" transform="translate(224.08 592.56) rotate(180)" style="fill:#fff"></rect><rect x="78.76" y="289.45" width="13.66" height="13.66" transform="translate(171.18 592.56) rotate(180)" style="fill:#fff"></rect><rect x="158.12" y="314.26" width="13.66" height="13.66" transform="translate(329.89 642.18) rotate(180)" style="fill:#fff"></rect><rect x="131.67" y="314.26" width="13.66" height="13.66" transform="translate(276.99 642.18) rotate(180)" style="fill:#fff"></rect><rect x="105.21" y="314.26" width="13.66" height="13.66" transform="translate(224.08 642.18) rotate(180)" style="fill:#fff"></rect><rect x="78.76" y="314.26" width="13.66" height="13.66" transform="translate(171.18 642.18) rotate(180)" style="fill:#fff"></rect><rect x="158.12" y="339.08" width="13.66" height="13.66" transform="translate(329.89 691.81) rotate(180)" style="fill:#fff"></rect><rect x="131.67" y="339.08" width="13.66" height="13.66" transform="translate(276.99 691.81) rotate(180)" style="fill:#fff"></rect><rect x="105.21" y="339.08" width="13.66" height="13.66" transform="translate(224.08 691.81) rotate(180)" style="fill:#fff"></rect><rect x="78.76" y="339.08" width="13.66" height="13.66" transform="translate(171.18 691.81) rotate(180)" style="fill:#fff"></rect><rect x="69.73" y="180.72" width="111.07" height="2.79" style="fill:#f5f5f5"></rect><rect x="89.63" y="154.81" width="71.28" height="2.79" style="fill:#f5f5f5"></rect><polygon points="232.28 273.24 292 273.24 292 367.02 196.71 367.02 196.71 273.24 196.71 231.66 232.28 273.24" style="fill:#f5f5f5"></polygon><rect x="178.92" y="231.65" width="17.78" height="135.37" style="fill:#e6e6e6"></rect><rect x="273.37" y="292.25" width="14.18" height="14.18" style="fill:#e0e0e0"></rect><rect x="273.37" y="292.25" width="12.6" height="14.18" style="fill:#fff;isolation:isolate;opacity:0.30000000000000004"></rect><rect x="273.37" y="316.11" width="14.18" height="14.18" style="fill:#e0e0e0"></rect><rect x="273.37" y="316.11" width="12.6" height="14.18" style="fill:#fff;isolation:isolate;opacity:0.30000000000000004"></rect><rect x="273.37" y="339.97" width="14.18" height="14.18" style="fill:#e0e0e0"></rect><rect x="273.37" y="339.97" width="12.6" height="14.18" style="fill:#fff;isolation:isolate;opacity:0.30000000000000004"></rect><rect x="271.79" y="339.97" width="14.18" height="14.18" style="fill:#fff;isolation:isolate;opacity:0.2"></rect><rect x="249.46" y="292.25" width="14.18" height="14.18" style="fill:#e0e0e0"></rect><rect x="249.46" y="292.25" width="12.6" height="14.18" style="fill:#fff;isolation:isolate;opacity:0.30000000000000004"></rect><rect x="249.46" y="316.11" width="14.18" height="14.18" style="fill:#e0e0e0"></rect><rect x="249.46" y="316.11" width="12.6" height="14.18" style="fill:#fff;isolation:isolate;opacity:0.30000000000000004"></rect><rect x="249.46" y="339.97" width="14.18" height="14.18" style="fill:#e0e0e0"></rect><rect x="249.46" y="339.97" width="12.6" height="14.18" style="fill:#fff;isolation:isolate;opacity:0.30000000000000004"></rect><rect x="247.89" y="339.97" width="14.18" height="14.18" style="fill:#fff;isolation:isolate;opacity:0.2"></rect><rect x="225.56" y="292.25" width="14.18" height="14.18" style="fill:#e0e0e0"></rect><rect x="225.56" y="292.25" width="12.6" height="14.18" style="fill:#fff;isolation:isolate;opacity:0.30000000000000004"></rect><rect x="225.56" y="316.11" width="14.18" height="14.18" style="fill:#e0e0e0"></rect><rect x="225.56" y="316.11" width="12.6" height="14.18" style="fill:#fff;isolation:isolate;opacity:0.30000000000000004"></rect><rect x="225.56" y="339.97" width="14.18" height="14.18" style="fill:#e0e0e0"></rect><rect x="225.56" y="339.97" width="12.6" height="14.18" style="fill:#fff;isolation:isolate;opacity:0.30000000000000004"></rect><rect x="223.98" y="339.97" width="14.18" height="14.18" style="fill:#fff;isolation:isolate;opacity:0.2"></rect><rect x="201.65" y="292.25" width="14.18" height="14.18" style="fill:#e0e0e0"></rect><rect x="201.65" y="292.25" width="12.6" height="14.18" style="fill:#fff;isolation:isolate;opacity:0.30000000000000004"></rect><rect x="201.65" y="316.11" width="14.18" height="14.18" style="fill:#e0e0e0"></rect><rect x="201.65" y="316.11" width="12.6" height="14.18" style="fill:#fff;isolation:isolate;opacity:0.30000000000000004"></rect><rect x="201.65" y="339.97" width="14.18" height="14.18" style="fill:#e0e0e0"></rect><rect x="201.65" y="339.97" width="12.6" height="14.18" style="fill:#fff;isolation:isolate;opacity:0.30000000000000004"></rect><rect x="200.08" y="339.97" width="14.18" height="14.18" style="fill:#fff;isolation:isolate;opacity:0.2"></rect><rect x="374.54" y="272.38" width="12.1" height="22.46" transform="translate(761.18 567.22) rotate(180)" style="fill:#ebebeb"></rect><rect x="377.91" y="272.38" width="12.1" height="22.46" transform="translate(767.93 567.22) rotate(180)" style="fill:#f5f5f5"></rect><rect x="373.55" y="267.49" width="18.05" height="4.89" style="fill:#f5f5f5"></rect><rect x="373.55" y="267.49" width="2.78" height="4.89" style="fill:#ebebeb"></rect><rect x="363.66" y="306.4" width="82.04" height="60.89" transform="translate(809.35 673.69) rotate(180)" style="fill:#fafafa"></rect><polygon points="403.98 259.99 450.39 306.4 357.57 306.4 403.98 259.99" style="fill:#f5f5f5"></polygon><rect x="357.57" y="306.4" width="92.82" height="5.36" transform="translate(807.96 618.15) rotate(180)" style="fill:#e0e0e0"></rect><rect x="391.11" y="316.89" width="23.09" height="23.09" style="fill:#e0e0e0"></rect><rect x="391.96" y="316.89" width="23.09" height="23.09" style="fill:#f0f0f0"></rect><rect x="393.08" y="317.83" width="20.79" height="20.79" style="fill:#fff"></rect><rect x="413.14" y="317.83" width="0.73" height="20.79" style="fill:#e0e0e0"></rect><rect x="402.75" y="319.13" width="0.73" height="20.21" transform="translate(73.89 732.35) rotate(-90)" style="fill:#e0e0e0"></rect><rect x="392.69" y="327.64" width="21.19" height="1.23" style="fill:#f0f0f0"></rect><path d="M127.18,123c12.16,0,45.79,5.63,47.6-15,1.54-17.58-15.25-16.28-15.25-16.28s1.81-15.23-12.86-17.25c-15.06-2.08-18.8,14.37-18.8,14.37s-25.53-10.47-23.8,15.81c0,0-14.41-2.92-15.45,8.92C87.47,126.7,115.4,122.93,127.18,123Z" style="fill:#f0f0f0"></path><path d="M150.17,140.61c12.17,0,45.79,5.63,47.6-15.05,1.54-17.58-15.25-16.28-15.25-16.28S184.34,94.05,169.66,92c-15.06-2.08-18.8,14.37-18.8,14.37s-25.53-10.47-23.8,15.81c0,0-14.41-2.92-15.44,8.92C110.46,144.35,138.39,140.58,150.17,140.61Z" style="fill:#f5f5f5"></path><path d="M354.11,149.76c12.68,0,47.73,5.86,49.61-15.69,1.6-18.32-15.89-17-15.89-17s1.89-15.87-13.41-18c-15.69-2.17-19.58,15-19.58,15S328.23,103.19,330,130.58c0,0-15-3-16.1,9.29C312.73,153.65,341.83,149.72,354.11,149.76Z" style="fill:#f5f5f5"></path><path d="M391.58,155.41c-7,0-27,3.24-25.93-8.68.89-10.13,10.44-9.39,10.44-9.39s.49-8.77,9.15-9.94c8.89-1.2,9.39,8.29,9.39,8.29s15.78-6,12.13,9.11c0,0,8.6-1.68,8,5.14C414.1,157.56,398.38,155.39,391.58,155.41Z" style="fill:#ebebeb"></path></g><g id="freepik--Shadow--inject-144"><ellipse id="freepik--path--inject-144" cx="250" cy="415.69" rx="193.89" ry="11.32" style="fill:#f5f5f5"></ellipse></g><g id="freepik--Plants--inject-144"><path d="M365.2,276.37c9-1.62,24.63,14.84,33.29,11.42,6.66-2.63,9.37-20,14.85-24.73,7.5-6.5,32.54-6.09,36.2-15.15,7.54-18.7-16.47-62.14-35.08-66.89-13.35-3.41-37.36,23.66-51,28.55-12.63,4.54-42.66-.49-52.17,9.28-11,11.29-12.27,47.64-5.28,60.38,4.49,8.2,24.06,18.41,33.75,16.48C347.41,294.2,357.55,277.75,365.2,276.37Z" style="fill:#407BFF"></path><path d="M365.2,276.37c9-1.62,24.63,14.84,33.29,11.42,6.66-2.63,9.37-20,14.85-24.73,7.5-6.5,32.54-6.09,36.2-15.15,7.54-18.7-16.47-62.14-35.08-66.89-13.35-3.41-37.36,23.66-51,28.55-12.63,4.54-42.66-.49-52.17,9.28-11,11.29-12.27,47.64-5.28,60.38,4.49,8.2,24.06,18.41,33.75,16.48C347.41,294.2,357.55,277.75,365.2,276.37Z" style="fill:#fff;opacity:0.5"></path><path d="M350.44,252.18c-3.16-3.75-14.07-12.47-14.07-12.47l.55-1.37,15.62,11.22L361,229.7l1,.92s-6.69,14.7-6.3,19.88c.83,11.22,22.09,36.21,22.09,36.21h0s18.48-19.2,22.29-27c3.16-6.43,6-27.51,6-27.51l1.09.18-3.62,24.66,26.59-20.39.31,1.37S409,254,403,260.5c-4.64,5-13.76,19.13-18.38,26.42a20,20,0,0,0-3.1,9.52l-4.11,69.86H365.75l7.82-67.17c.52-4.36-1.3-8.68-3.19-12.44C365.61,277.21,356.05,258.8,350.44,252.18Z" style="fill:#263238"></path><path d="M350.44,252.18c-3.16-3.75-14.07-12.47-14.07-12.47l.55-1.37,15.62,11.22L361,229.7l1,.92s-6.69,14.7-6.3,19.88c.83,11.22,22.09,36.21,22.09,36.21h0s18.48-19.2,22.29-27c3.16-6.43,6-27.51,6-27.51l1.09.18-3.62,24.66,26.59-20.39.31,1.37S409,254,403,260.5c-4.64,5-13.76,19.13-18.38,26.42a20,20,0,0,0-3.1,9.52l-4.11,69.86H365.75l7.82-67.17c.52-4.36-1.3-8.68-3.19-12.44C365.61,277.21,356.05,258.8,350.44,252.18Z" style="fill:#fff;opacity:0.30000000000000004"></path><path d="M114.76,309.27s-40.82-4.79-44.08-16.08C68,284,89.63,268.56,92.8,259.07c2.45-7.34-1.07-23,1.81-30.23,2.55-6.4,15.62-15.11,17.71-21.64,1-3.09-2.16-9.4-1.13-12.48,2.35-7,12.72-23.88,19.74-22.74,11.08,1.79,13.31,31.06,12.71,42.43-.22,4.28-6.54,12.11-6.48,16.37.1,7.62,13.28,19.24,12.34,26.9-.39,3.21-7.5,7.61-7.88,10.82-.67,5.8,11.6,14.64,9.6,20.25C147.76,298.48,114.76,309.27,114.76,309.27Z" style="fill:#407BFF"></path><path d="M114.76,309.27s-40.82-4.79-44.08-16.08C68,284,89.63,268.56,92.8,259.07c2.45-7.34-1.07-23,1.81-30.23,2.55-6.4,15.62-15.11,17.71-21.64,1-3.09-2.16-9.4-1.13-12.48,2.35-7,12.72-23.88,19.74-22.74,11.08,1.79,13.31,31.06,12.71,42.43-.22,4.28-6.54,12.11-6.48,16.37.1,7.62,13.28,19.24,12.34,26.9-.39,3.21-7.5,7.61-7.88,10.82-.67,5.8,11.6,14.64,9.6,20.25C147.76,298.48,114.76,309.27,114.76,309.27Z" style="fill:#fff;opacity:0.5"></path><path d="M142.64,250.53l-1.41.27-4.31,2.81L129.6,255l2.46-1.47-.95-.81-6.36,3.67-3.53.81.58-9.26.08-1.31,2.36-37.95,8.59-4.94c-.44,0-.54-.22-.67-.64-1.31.5-2.53.87-3.84,1.37a5,5,0,0,1,.41-2.62c-.4,0-.61-.08-1-.06-.3.85-.63,1.82-.93,2.66L124.4,206l.35-5.52-1.68.1L119.5,232.5l-3.09-2.1c-.31-1-.65-2.09-1-3.06-.45,0-.71.07-1.16,0a5.61,5.61,0,0,1,.37,3c-1.47-.62-2.85-1.09-4.32-1.71-.17.48-.29.73-.79.7q4.82,3,9.64,6l-4.78,42.75s-12.35-5.51-15.48-5.51c-2.59,0-11.62.83-11.62.83l0,1.23,12,.07-2.32,4.08,1.54.81,2.35-4.33,13.26,7.12-8.88,83.93h9.22L121.05,260l17.68-5.24Z" style="fill:#263238"></path><path d="M142.64,250.53l-1.41.27-4.31,2.81L129.6,255l2.46-1.47-.95-.81-6.36,3.67-3.53.81.58-9.26.08-1.31,2.36-37.95,8.59-4.94c-.44,0-.54-.22-.67-.64-1.31.5-2.53.87-3.84,1.37a5,5,0,0,1,.41-2.62c-.4,0-.61-.08-1-.06-.3.85-.63,1.82-.93,2.66L124.4,206l.35-5.52-1.68.1L119.5,232.5l-3.09-2.1c-.31-1-.65-2.09-1-3.06-.45,0-.71.07-1.16,0a5.61,5.61,0,0,1,.37,3c-1.47-.62-2.85-1.09-4.32-1.71-.17.48-.29.73-.79.7q4.82,3,9.64,6l-4.78,42.75s-12.35-5.51-15.48-5.51c-2.59,0-11.62.83-11.62.83l0,1.23,12,.07-2.32,4.08,1.54.81,2.35-4.33,13.26,7.12-8.88,83.93h9.22L121.05,260l17.68-5.24Z" style="fill:#fff;opacity:0.30000000000000004"></path></g><g id="freepik--Sidewalk--inject-144"><rect x="45.76" y="367.09" width="408.48" height="15.56" style="fill:#407BFF"></rect><g style="opacity:0.7000000000000001"><rect x="45.76" y="367.09" width="408.48" height="15.56" style="fill:#fff"></rect></g><rect x="66.82" y="367.09" width="0.97" height="16.31" style="fill:#fff"></rect><rect x="158.19" y="367.09" width="0.97" height="16.31" style="fill:#fff"></rect><rect x="249.56" y="367.09" width="0.97" height="16.31" style="fill:#fff"></rect><rect x="340.92" y="367.09" width="0.97" height="16.31" style="fill:#fff"></rect><rect x="432.29" y="367.09" width="0.97" height="16.31" style="fill:#fff"></rect><rect x="53.03" y="321.74" width="263.29" height="2" style="fill:#263238"></rect><rect x="53.03" y="321.74" width="263.29" height="2" style="fill:#fff;opacity:0.1"></rect><rect x="53.03" y="353.58" width="263.29" height="2" style="fill:#263238"></rect><rect x="53.03" y="353.58" width="263.29" height="2" style="fill:#fff;opacity:0.1"></rect><rect x="309.91" y="312.9" width="11.75" height="4.52" style="fill:#263238"></rect><rect x="311.24" y="317.42" width="9.04" height="45.19" style="fill:#407BFF"></rect><rect x="309.91" y="360.39" width="11.75" height="5.95" style="fill:#263238"></rect><polygon points="321.64 360.43 309.9 360.43 310.24 359.06 321.3 359.06 321.64 360.43" style="fill:#263238"></polygon><polygon points="321.66 317.42 321.66 312.9 309.91 312.9 309.91 317.42 311.25 317.42 311.25 359.06 310.24 359.06 309.9 360.43 309.91 360.43 309.91 366.34 321.66 366.34 321.66 360.39 321.63 360.39 321.3 359.06 320.28 359.06 320.28 317.42 321.66 317.42" style="fill:#fff;opacity:0.1"></polygon><rect x="244.33" y="312.9" width="11.75" height="4.52" style="fill:#263238"></rect><rect x="245.66" y="317.42" width="9.04" height="45.19" style="fill:#407BFF"></rect><rect x="244.33" y="360.39" width="11.75" height="5.95" style="fill:#263238"></rect><polygon points="256.05 360.43 244.32 360.43 244.65 359.06 255.72 359.06 256.05 360.43" style="fill:#263238"></polygon><polygon points="256.08 317.42 256.08 312.9 244.33 312.9 244.33 317.42 245.66 317.42 245.66 359.06 244.65 359.06 244.32 360.43 244.33 360.43 244.33 366.34 256.08 366.34 256.08 360.39 256.04 360.39 255.72 359.06 254.7 359.06 254.7 317.42 256.08 317.42" style="fill:#fff;opacity:0.1"></polygon><rect x="178.75" y="312.9" width="11.75" height="4.52" style="fill:#263238"></rect><rect x="180.08" y="317.42" width="9.04" height="45.19" style="fill:#407BFF"></rect><rect x="178.75" y="360.39" width="11.75" height="5.95" style="fill:#263238"></rect><polygon points="190.47 360.43 178.73 360.43 179.07 359.06 190.13 359.06 190.47 360.43" style="fill:#263238"></polygon><polygon points="190.5 317.42 190.5 312.9 178.75 312.9 178.75 317.42 180.08 317.42 180.08 359.06 179.07 359.06 178.73 360.43 178.75 360.43 178.75 366.34 190.5 366.34 190.5 360.39 190.46 360.39 190.13 359.06 189.11 359.06 189.11 317.42 190.5 317.42" style="fill:#fff;opacity:0.1"></polygon><rect x="113.16" y="312.9" width="11.75" height="4.52" style="fill:#263238"></rect><rect x="114.49" y="317.42" width="9.04" height="45.19" style="fill:#407BFF"></rect><rect x="113.16" y="360.39" width="11.75" height="5.95" style="fill:#263238"></rect><polygon points="124.89 360.43 113.15 360.43 113.49 359.06 124.55 359.06 124.89 360.43" style="fill:#263238"></polygon><polygon points="124.91 317.42 124.91 312.9 113.16 312.9 113.16 317.42 114.49 317.42 114.49 359.06 113.49 359.06 113.15 360.43 113.16 360.43 113.16 366.34 124.91 366.34 124.91 360.39 124.88 360.39 124.55 359.06 123.53 359.06 123.53 317.42 124.91 317.42" style="fill:#fff;opacity:0.1"></polygon><rect x="47.58" y="312.9" width="11.75" height="4.52" style="fill:#263238"></rect><rect x="48.91" y="317.42" width="9.04" height="45.19" style="fill:#407BFF"></rect><rect x="47.58" y="360.39" width="11.75" height="5.95" style="fill:#263238"></rect><polygon points="59.3 360.43 47.56 360.43 47.9 359.06 58.97 359.06 59.3 360.43" style="fill:#263238"></polygon><polygon points="59.33 317.42 59.33 312.9 47.58 312.9 47.58 317.42 48.91 317.42 48.91 359.06 47.9 359.06 47.56 360.43 47.58 360.43 47.58 366.34 59.33 366.34 59.33 360.39 59.29 360.39 58.97 359.06 57.95 359.06 57.95 317.42 59.33 317.42" style="fill:#fff;opacity:0.1"></polygon><rect x="249.18" y="321.74" width="200.72" height="2" style="fill:#263238"></rect><rect x="249.18" y="321.74" width="200.72" height="2" style="fill:#fff;opacity:0.1"></rect><rect x="249.18" y="353.58" width="198.69" height="2" style="fill:#263238"></rect><rect x="249.18" y="353.58" width="198.69" height="2" style="fill:#fff;opacity:0.1"></rect><rect x="440.48" y="312.9" width="11.75" height="4.52" style="fill:#263238"></rect><rect x="441.81" y="317.42" width="9.04" height="45.19" style="fill:#407BFF"></rect><rect x="440.48" y="360.39" width="11.75" height="5.95" style="fill:#263238"></rect><polygon points="452.2 360.43 440.47 360.43 440.8 359.06 451.87 359.06 452.2 360.43" style="fill:#263238"></polygon><polygon points="452.23 317.42 452.23 312.9 440.48 312.9 440.48 317.42 441.81 317.42 441.81 359.06 440.8 359.06 440.47 360.43 440.48 360.43 440.48 366.34 452.23 366.34 452.23 360.39 452.19 360.39 451.87 359.06 450.85 359.06 450.85 317.42 452.23 317.42" style="fill:#fff;opacity:0.1"></polygon><rect x="374.9" y="312.9" width="11.75" height="4.52" style="fill:#263238"></rect><rect x="376.23" y="317.42" width="9.04" height="45.19" style="fill:#407BFF"></rect><rect x="374.9" y="360.39" width="11.75" height="5.95" style="fill:#263238"></rect><polygon points="386.62 360.43 374.88 360.43 375.22 359.06 386.28 359.06 386.62 360.43" style="fill:#263238"></polygon><polygon points="386.64 317.42 386.64 312.9 374.89 312.9 374.89 317.42 376.23 317.42 376.23 359.06 375.22 359.06 374.88 360.43 374.89 360.43 374.89 366.34 386.64 366.34 386.64 360.39 386.61 360.39 386.28 359.06 385.26 359.06 385.26 317.42 386.64 317.42" style="fill:#fff;opacity:0.1"></polygon><rect x="309.31" y="312.9" width="11.75" height="4.52" style="fill:#263238"></rect><rect x="310.64" y="317.42" width="9.04" height="45.19" style="fill:#407BFF"></rect><rect x="309.31" y="360.39" width="11.75" height="5.95" style="fill:#263238"></rect><polygon points="321.04 360.43 309.3 360.43 309.63 359.06 320.7 359.06 321.04 360.43" style="fill:#263238"></polygon><polygon points="321.06 317.42 321.06 312.9 309.31 312.9 309.31 317.42 310.64 317.42 310.64 359.06 309.63 359.06 309.3 360.43 309.31 360.43 309.31 366.34 321.06 366.34 321.06 360.39 321.02 360.39 320.7 359.06 319.68 359.06 319.68 317.42 321.06 317.42" style="fill:#fff;opacity:0.1"></polygon><rect x="243.73" y="312.9" width="11.75" height="4.52" style="fill:#263238"></rect><rect x="245.06" y="317.42" width="9.04" height="45.19" style="fill:#407BFF"></rect><rect x="243.73" y="360.39" width="11.75" height="5.95" style="fill:#263238"></rect><polygon points="255.45 360.43 243.71 360.43 244.05 359.06 255.11 359.06 255.45 360.43" style="fill:#263238"></polygon><polygon points="255.48 317.42 255.48 312.9 243.73 312.9 243.73 317.42 245.06 317.42 245.06 359.06 244.05 359.06 243.71 360.43 243.73 360.43 243.73 366.34 255.48 366.34 255.48 360.39 255.44 360.39 255.11 359.06 254.09 359.06 254.09 317.42 255.48 317.42" style="fill:#fff;opacity:0.1"></polygon></g><g id="freepik--Character--inject-144"><g id="freepik--freepik--character-3--inject-67--inject-144"><path d="M256.43,263.15l15.29,10.76s-20.68,18.24-22,17.95c-.65-.15-12.89-2.15-23.67-7.36-13.79-6.66-15.41-25.68-3.11-34.78l6.11-4.52Z" style="fill:#263238"></path><g style="isolation:isolate;opacity:0.2"><path d="M257.65,263.92l14.07,10s-20.68,18.24-22,17.95c-.65-.15-12.89-2.15-23.67-7.36-13.79-6.66-15.41-25.68-3.11-34.78l6.11-4.52Z"></path></g><path d="M259.36,264.94s26.59,17,47.11,33.47a10.81,10.81,0,0,1,4.07,7.4c1.79,19.55-12.8,78.35-17.65,84.61l-7.84-.77S282.62,337.53,292,317c-74.26-30.71-53.12-39.25-53.12-39.25Z" style="fill:#263238"></path><g style="opacity:0.1"><path d="M259.36,264.94s26.59,17,47.11,33.47a10.81,10.81,0,0,1,4.07,7.4c1.79,19.55-12.8,78.35-17.65,84.61l-7.84-.77S282.62,337.53,292,317c-74.26-30.71-53.12-39.25-53.12-39.25Z"></path></g></g><path d="M228.76,245.2s6.43,6.25,18.44,19.52c10,11,23.24,21.52,38.83,37.81,13,8.92-19.41,66.28-23.75,84.27h-10s2.7-49.29,13-69.4c-24.35-11.43-37.87-13.3-46.87-21.09a25.23,25.23,0,0,1-2.76-2.8c-12.28-14.42-7.76-36.61,8.77-45.85Z" style="fill:#263238"></path><path d="M292,250.59l5.27,2.86-7.07,4.69s-6.29-3-4.35-7.37l1-.44A5.92,5.92,0,0,1,292,250.59Z" style="fill:#b25b52"></path><path d="M297.67,260.7l-2,1a2.81,2.81,0,0,1-3.54-.86l-1.95-2.68,7.07-4.69L299,257A2.82,2.82,0,0,1,297.67,260.7Z" style="fill:#b25b52"></path><path d="M277.82,205.92l-.59.37-.51.34-1,.66c-.63.46-1.22.92-1.82,1.38-1.16,1-2.31,1.92-3.39,2.93a58,58,0,0,0-11.07,14c-.7,1.34-1.43,2.65-2,4l-.45,1-.23.51-.08.28,0,.19-.11.43a7.19,7.19,0,0,0-.36,3.38,8.09,8.09,0,0,0,.76,2.46,11.46,11.46,0,0,0,2,2.87,19.94,19.94,0,0,0,2,1.82,35.75,35.75,0,0,0,3.8,2.69,74.32,74.32,0,0,0,7.63,4.06c5.07,2.34,8.39,3.15,13.73,4.79l3.95-4.26v-.44c-4.64-2.64-17.94-10.37-19.89-11.9a28.59,28.59,0,0,1-2.65-2.27,11.62,11.62,0,0,1-.93-1.05c-.22-.3-.36-.59-.27-.5a1.48,1.48,0,0,1,.17.54,3.08,3.08,0,0,1-.14,1.38l-.05.18h0l0,0,.1-.2.22-.4.44-.8c.55-1.09,1.28-2.08,1.9-3.14a62.65,62.65,0,0,1,4.44-5.83,67.67,67.67,0,0,1,5.17-5.27c.9-.84,1.83-1.63,2.79-2.4.47-.38.94-.76,1.42-1.11l.7-.52.59-.42.34-.25a5.74,5.74,0,0,0-6.42-9.51Z" style="fill:#263238"></path><path d="M278.87,237A324,324,0,0,1,259.5,264.5c-3.56,1.74-17.07-7.21-30.74-19.3,6.84-7.95,14-23.18,19.4-46.43a9.32,9.32,0,0,1,11.19-6.94c.32.08.64.17.95.28,1.4.48,2.86,1,4.33,1.63a118.89,118.89,0,0,1,15.18,7.07c1.57.91,3.17,1.91,4.7,2.9C290,207.25,288.65,234.94,278.87,237Z" style="fill:#407BFF"></path><path d="M264.68,193.75a51.17,51.17,0,0,1,8.25,11.78c2.44,4.83,9.82,1.25,7.51-3.65a8.36,8.36,0,0,0-.58-1.06c-4.38-3.47-3.16-7-.85-10.18.23-.33.48-.65.74-1l-5.64-12.32a51.16,51.16,0,0,1-3.24,9.27C269.28,190,267.2,192.87,264.68,193.75Z" style="fill:#b25b52"></path><path d="M276.39,182.36l3.32,7.27a17,17,0,0,0-1.72,2.49c-1.94-1.28-3.74-4.89-2.93-7.2A8.22,8.22,0,0,1,276.39,182.36Z" style="isolation:isolate;opacity:0.2"></path><path d="M290.86,166.56a13.13,13.13,0,0,0-3.5,2.52,4.47,4.47,0,0,0-1.19,4c.33,1.25,1.35,2.21,1.76,3.43.68,2.07-.58,4.3-2.14,5.82s-3.49,2.72-4.69,4.54-1.39,4.63.39,5.9" style="fill:none;stroke:#263238;stroke-linecap:round;stroke-linejoin:round"></path><path d="M269.52,168.31c0,9-.18,12.82,4,17.69,6.28,7.33,17.13,5.32,19.76-3.5,2.37-8,2-21.34-6.44-25.43S269.52,159.31,269.52,168.31Z" style="fill:#b25b52"></path><path d="M288.05,181.4a44.48,44.48,0,0,0-8.25-2.51c.27,2,1.26,3.85,4.42,4.61a3,3,0,0,0,3.76-1.84A2.5,2.5,0,0,0,288.05,181.4Z" style="fill:#263238"></path><path d="M283.12,181.66a6,6,0,0,1,3.23,1.74,3.54,3.54,0,0,1-2.11.08,5.85,5.85,0,0,1-3.22-1.74A3.42,3.42,0,0,1,283.12,181.66Z" style="fill:#9d2724"></path><path d="M287.78,181.28a1.3,1.3,0,0,1-1.19.69,34.64,34.64,0,0,1-5.35-1.79,1.8,1.8,0,0,1-1.16-1.25A53,53,0,0,1,287.78,181.28Z" style="fill:#fff"></path><path d="M276.34,163.26c-.36,6.79-6.66,10.91-6.66,10.91s-6-6.42-1.75-10.83C275.49,159.89,276.34,163.26,276.34,163.26Z" style="fill:#263238"></path><path d="M283.13,171.54c0,.73.32,1.32.79,1.37s.89-.54.95-1.27-.33-1.32-.79-1.37S283.17,170.81,283.13,171.54Z" style="fill:#263238"></path><path d="M291.51,172c0,.73.32,1.33.79,1.37s.9-.54.94-1.27-.31-1.32-.79-1.37S291.55,171.27,291.51,172Z" style="fill:#263238"></path><path d="M292.24,170.76l1.79-.42S293,171.67,292.24,170.76Z" style="fill:#263238"></path><path d="M288.75,173.18a19.69,19.69,0,0,0,3.23,4.26,3.14,3.14,0,0,1-2.51.85Z" style="fill:#9d2724"></path><path d="M292.35,160.9a1.78,1.78,0,0,0,.72-1.66,4.55,4.55,0,0,0-.64-1.77,14.76,14.76,0,0,0-7.78-6.95,9.91,9.91,0,0,0-10,1.91,16.34,16.34,0,0,0,.93-8.44c-.06-.52-.31-1.18-.83-1.15a1.05,1.05,0,0,0-.71.55,9.43,9.43,0,0,0-1.39,3.32,66.19,66.19,0,0,0-2.8-6.94c-.38-.85-.91-1.78-1.82-2a2.43,2.43,0,0,0-2.37,1.56,5.79,5.79,0,0,0,.67,6.19,5.41,5.41,0,0,0-4.23-1,7.94,7.94,0,0,0-3.45,1.76,3.76,3.76,0,0,0-1.6,2.5,2.86,2.86,0,0,0,2,2.6,8.46,8.46,0,0,0,3.51.23c-1.48-.67-3.8,1.63-3.76,3.25a2.31,2.31,0,0,0,.51,1.4,3,3,0,0,0,3.25.66,8.91,8.91,0,0,0,2.87-2,11.73,11.73,0,0,0-2.59,3,2.53,2.53,0,0,0,.37,2.89,1.55,1.55,0,0,0,2.49-.64,14.21,14.21,0,0,0-2.09,4.26,3.82,3.82,0,0,0-.14,2.06,1.64,1.64,0,0,0,1.5,1.25,10.35,10.35,0,0,0,.6,7.35,8.77,8.77,0,0,0,5.07,4.47c-.51-3.82,2-7.08,3.4-10.66C279.17,156.29,292.36,162.41,292.35,160.9Z" style="fill:#263238"></path><path d="M266,174.34a5.8,5.8,0,0,0,3.31,3.36c2,.67,3.08-1.46,2.65-3.71-.39-2-1.87-4.82-3.89-4.51S265.16,172.32,266,174.34Z" style="fill:#b25b52"></path><path d="M278.46,163c-1.19.41-4.41,3.16-5.4,3.93a3.87,3.87,0,0,0-1.65,3.23c.09,1.11.81,2.09,1,3.2.26,1.88-1.17,3.59-2.74,4.65s-3.41,1.78-4.73,3.14-1.91,3.75-.59,5.11" style="fill:none;stroke:#263238;stroke-linecap:round;stroke-linejoin:round"></path><path d="M293,164c-21.45-5.36-28.59,7.36-28.4,7.1a4.92,4.92,0,0,1-.66-1.47,6,6,0,0,1-.18-.92,3.85,3.85,0,0,1,.54-2.71,19.54,19.54,0,0,1,4.26-4.16c7.4-4.86,15.68-4.92,24.56-1.85a3.54,3.54,0,0,0-.36,1.19,1.12,1.12,0,0,0,.1.66,2.94,2.94,0,0,1,.28.69A1.58,1.58,0,0,1,293,164Z" style="fill:#407BFF"></path><path d="M293.09,162.48c-3.33-.48-11.61-1.62-14.62-1.22-2.36.3-6.86.36-14.58,8.32a6,6,0,0,1-.18-.92c1.62-2,7.36-8.74,14.76-8.85a72.79,72.79,0,0,1,14.24,1.32,1.12,1.12,0,0,0,.1.66A2.94,2.94,0,0,1,293.09,162.48Z" style="fill:#fff"></path><path d="M284.45,166.19a.42.42,0,0,1-.31.11,3.43,3.43,0,0,0-2.88,1.17.43.43,0,0,1-.6.09.44.44,0,0,1-.09-.61,4.27,4.27,0,0,1,3.61-1.51.43.43,0,0,1,.38.47v0A.43.43,0,0,1,284.45,166.19Z" style="fill:#263238"></path><path d="M295,167.6a.42.42,0,0,0,.43-.42.47.47,0,0,0-.12-.3,4.28,4.28,0,0,0-3.67-1.39.44.44,0,1,0,0,.88l.11,0a3.36,3.36,0,0,1,2.89,1.12A.48.48,0,0,0,295,167.6Z" style="fill:#263238"></path><path d="M283.86,170.3l1.79-.42S284.66,171.21,283.86,170.3Z" style="fill:#263238"></path><path d="M204,223l-4.43,7.2L193.16,223s4.38-4.38,9-5.12l1.16.61C204.54,220.2,204.79,221.06,204,223Z" style="fill:#b25b52"></path><path d="M193.12,231.17l-2.26-3.48a2.4,2.4,0,0,1,.5-3.21l1.88-1.47,6.36,7.21L196.24,232A2.44,2.44,0,0,1,193.12,231.17Z" style="fill:#b25b52"></path><path d="M253.16,190.65c-5.38.31-6.56.94-11.88,1.76-2.68.41-5.31.9-8,1.56-1.39.3-2.72.65-4.13,1.07a30.11,30.11,0,0,0-4.49,1.72,20.56,20.56,0,0,0-2.31,1.36c-.59.42-1.23.85-1.8,1.27-1.12.85-2.16,1.7-3.2,2.55-2.07,1.69-4,3.49-6,5.22-3.89,3.56-7.64,7.22-11.26,11.07-1.14,1.22,2.63,5.35,3.79,4.64h0c4.43-2.75,8.8-5.6,13.09-8.46l6.42-4.25c1.06-.69,2.12-1.37,3.15-2l1.49-.89a10.57,10.57,0,0,1,1.1-.51A25.43,25.43,0,0,1,232,206c1.11-.23,2.29-.45,3.48-.65,2.41-.38,4.89-.69,7.4-1,5-.56,6.11-1.12,11.1-1.59l.07,0a6.06,6.06,0,0,0-.93-12.07Z" style="fill:#263238"></path><path d="M255.76,190.8A51.29,51.29,0,0,0,235.93,192L242,207.23l14.35-2.31a7.72,7.72,0,0,0,5.41-5.69,7.46,7.46,0,0,0-.12-3.49A7,7,0,0,0,255.76,190.8Z" style="fill:#407BFF"></path><path d="M283.32,399.68s.78.35.78.37c12.07,4.68,24.33,6.18,37.26,5.94l1.19,0c.75-4.73-3.17-7.08-5.07-7.69s-3.89-.92-5.79-1.53a18.84,18.84,0,0,1-10.25-8.17c-2.29-3.83-3.43-5.58-2.62-10a1.8,1.8,0,0,0-1.47-.91,4.09,4.09,0,0,0-1.75.35,10.3,10.3,0,0,0-4,3c-1.54,1.85-5.16,1.76-7.53,1.36a12.13,12.13,0,0,1,.5,2.11C285,387.89,282.1,396.67,283.32,399.68Z" style="fill:#407BFF"></path><g style="opacity:0.1"><path d="M283.32,399.68s.78.35.78.37c12.07,4.68,24.33,6.18,37.26,5.94l1.19,0c.75-4.73-3.17-7.08-5.07-7.69s-3.89-.92-5.79-1.53a18.84,18.84,0,0,1-10.25-8.17c-2.29-3.83-3.43-5.58-2.62-10a1.8,1.8,0,0,0-1.47-.91,4.09,4.09,0,0,0-1.75.35,10.3,10.3,0,0,0-4,3c-1.54,1.85-5.16,1.76-7.53,1.36a12.13,12.13,0,0,1,.5,2.11C285,387.89,282.1,396.67,283.32,399.68Z"></path></g><path d="M303.12,388.81a4.39,4.39,0,0,0,2.84,0,1.71,1.71,0,0,0,1-1.15.83.83,0,0,0-.13-.83c-1-1.19-6.53-.08-7.17.05a.25.25,0,0,0-.18.21.26.26,0,0,0,.13.25A18,18,0,0,0,303.12,388.81Zm2.76-1.93a1.05,1.05,0,0,1,.52.25.39.39,0,0,1,.05.35,1.27,1.27,0,0,1-.73.86c-1.33.59-4-.47-5.35-1.13a16.47,16.47,0,0,1,5.51-.29Z" style="fill:#263238"></path><path d="M299.56,387.38h.09c1.64-.27,5.36-2.07,5.51-3.41,0-.29-.1-.68-.73-.93-2.6-1.06-4.93,3.77-5.07,4a.28.28,0,0,0,0,.25A.34.34,0,0,0,299.56,387.38Zm4.53-4,.18.08c.45.17.44.35.42.42-.08.86-2.81,2.42-4.63,2.88.62-1.1,2.31-3.8,4-3.38Z" style="fill:#263238"></path><polygon points="319.33 406.75 321.55 410.5 322.49 409.93 320.53 406.69 319.33 406.75" style="fill:#263238"></polygon><polygon points="319.33 406.75 321.55 410.5 322.49 409.93 320.53 406.69 319.33 406.75"></polygon><rect x="319.47" y="408.45" width="4.83" height="3.09" rx="0.67" transform="translate(-161.87 215.87) rotate(-30)" style="fill:#263238"></rect><path d="M283.06,396.65s-1.14,8,2,10.2l38.27.4v-1.84s-16.29.78-29.77-6.92C289.92,396.42,286.4,396.38,283.06,396.65Z" style="fill:#263238"></path><path d="M293.92,406.85v-5s7.1,5.3,15.87,5.19Z"></path><rect x="287.35" y="409.74" width="26.83" height="2.79" style="fill:#263238"></rect><rect x="287.35" y="409.74" width="26.83" height="2.79" style="opacity:0.2"></rect><path d="M292.81,411.43a4.4,4.4,0,1,1-4.39-4.4A4.39,4.39,0,0,1,292.81,411.43Z" style="fill:#407BFF"></path><path d="M290.39,411.43a2,2,0,1,1-2-2A2,2,0,0,1,290.39,411.43Z"></path><path d="M318.58,411.61a4.4,4.4,0,1,1-4.4-4.4A4.4,4.4,0,0,1,318.58,411.61Z" style="fill:#407BFF"></path><path d="M316.15,411.61a2,2,0,1,1-2-2A2,2,0,0,1,316.15,411.61Z"></path><path d="M289,411.43a.63.63,0,1,1-.62-.63A.62.62,0,0,1,289,411.43Z" style="fill:#fff"></path><path d="M314.8,411.61a.62.62,0,0,1-.62.62.62.62,0,1,1,0-1.24A.62.62,0,0,1,314.8,411.61Z" style="fill:#fff"></path><path d="M250.24,399.68s.78.35.79.37c12.07,4.68,24.32,6.18,37.25,5.94l1.2,0c.74-4.73-3.18-7.08-5.08-7.69s-3.89-.92-5.79-1.53a18.84,18.84,0,0,1-10.25-8.17c-2.28-3.83-3.43-5.58-2.62-10a1.77,1.77,0,0,0-1.46-.91,4.06,4.06,0,0,0-1.75.35,10.26,10.26,0,0,0-4,3c-1.53,1.85-5.16,1.76-7.53,1.36a11.29,11.29,0,0,1,.5,2.11C252,387.89,249,396.67,250.24,399.68Z" style="fill:#407BFF"></path><path d="M270.05,388.81a4.36,4.36,0,0,0,2.83,0,1.68,1.68,0,0,0,1-1.15.81.81,0,0,0-.12-.83c-1-1.19-6.54-.08-7.17.05a.25.25,0,0,0-.06.46A18.38,18.38,0,0,0,270.05,388.81Zm2.75-1.93a1,1,0,0,1,.52.25.37.37,0,0,1,.06.35,1.28,1.28,0,0,1-.74.86c-1.33.59-4-.47-5.35-1.13a16.52,16.52,0,0,1,5.52-.29Z" style="fill:#263238"></path><path d="M266.48,387.38h.1c1.63-.27,5.36-2.07,5.51-3.41,0-.29-.1-.68-.74-.93-2.6-1.06-4.93,3.77-5.06,4a.28.28,0,0,0,0,.25A.39.39,0,0,0,266.48,387.38Zm4.53-4,.19.08c.45.17.43.35.41.42-.08.86-2.8,2.42-4.62,2.88.61-1.1,2.3-3.8,4-3.38Z" style="fill:#263238"></path><polygon points="286.26 406.75 288.47 410.5 289.41 409.93 287.46 406.69 286.26 406.75" style="fill:#263238"></polygon><polygon points="286.26 406.75 288.47 410.5 289.41 409.93 287.46 406.69 286.26 406.75"></polygon><rect x="286.4" y="408.45" width="4.83" height="3.09" rx="0.67" transform="translate(-166.3 199.34) rotate(-30)" style="fill:#263238"></rect><path d="M250,396.65s-1.13,8,2,10.2l38.26.4v-1.84s-16.29.78-29.76-6.92C256.84,396.42,253.33,396.38,250,396.65Z" style="fill:#263238"></path><path d="M260.84,406.85v-5s7.11,5.3,15.87,5.19Z"></path><rect x="254.28" y="409.74" width="26.83" height="2.79" style="fill:#263238"></rect><rect x="254.28" y="409.74" width="26.83" height="2.79" style="opacity:0.2"></rect><path d="M259.74,411.43a4.4,4.4,0,1,1-4.4-4.4A4.39,4.39,0,0,1,259.74,411.43Z" style="fill:#407BFF"></path><path d="M257.31,411.43a2,2,0,1,1-2-2A2,2,0,0,1,257.31,411.43Z"></path><path d="M285.5,411.61a4.4,4.4,0,1,1-4.39-4.4A4.39,4.39,0,0,1,285.5,411.61Z" style="fill:#407BFF"></path><path d="M283.08,411.61a2,2,0,1,1-2-2A2,2,0,0,1,283.08,411.61Z"></path><path d="M256,411.43a.62.62,0,1,1-.62-.63A.62.62,0,0,1,256,411.43Z" style="fill:#fff"></path><path d="M281.73,411.61a.63.63,0,1,1-.62-.62A.62.62,0,0,1,281.73,411.61Z" style="fill:#fff"></path><path d="M143.61,306.9h59.65a.5.5,0,0,0,.5-.5.5.5,0,0,0-.5-.5H143.61a.5.5,0,0,0-.5.5A.51.51,0,0,0,143.61,306.9Z" style="fill:#407BFF"></path><path d="M207.9,306.9H213a.51.51,0,0,0,.5-.5.5.5,0,0,0-.5-.5H207.9a.5.5,0,0,0-.5.5A.5.5,0,0,0,207.9,306.9Z" style="fill:#407BFF"></path><path d="M162.73,392.35h59.66a.5.5,0,0,0,.5-.5.51.51,0,0,0-.5-.5H162.73a.51.51,0,0,0-.5.5A.5.5,0,0,0,162.73,392.35Z" style="fill:#407BFF"></path><path d="M227,392.35h5.11a.5.5,0,0,0,.5-.5.51.51,0,0,0-.5-.5H227a.5.5,0,0,0-.5.5A.5.5,0,0,0,227,392.35Z" style="fill:#407BFF"></path><path d="M236.16,392.35h5.11a.5.5,0,0,0,.5-.5.5.5,0,0,0-.5-.5h-5.11a.51.51,0,0,0-.5.5A.5.5,0,0,0,236.16,392.35Z" style="fill:#407BFF"></path><path d="M181.3,186.76H241a.5.5,0,0,0,.5-.5.5.5,0,0,0-.5-.5H181.3a.51.51,0,0,0-.5.5A.5.5,0,0,0,181.3,186.76Z" style="fill:#407BFF"></path><path d="M245.59,186.76h5.11a.5.5,0,0,0,.5-.5.51.51,0,0,0-.5-.5h-5.11a.5.5,0,0,0-.5.5A.5.5,0,0,0,245.59,186.76Z" style="fill:#407BFF"></path><path d="M254.73,186.76h5.11a.5.5,0,0,0,.5-.5.5.5,0,0,0-.5-.5h-5.11a.51.51,0,0,0-.5.5A.5.5,0,0,0,254.73,186.76Z" style="fill:#407BFF"></path></g></svg>