<svg xmlns="http://www.w3.org/2000/svg" viewBox="0 0 500 500"><g id="freepik--background-complete--inject-155"><path d="M261.58,56.26c.72-5.23-6.66-9.53-12.2-10-2.64-.21-5.39.19-7.9-.68-5.42-1.89-7.59-8.91-12.89-11.14-4-1.67-8.51-.18-12.35,1.75s-7.63,4.36-11.92,4.64c-3.73.23-7.78-1.15-11,.67-2.44,1.36-3.71,4.16-5.95,5.82s-5.05,2-7.77,2.1-5.54.18-8,1.31-4.53,3.76-4,6.43Z" style="fill:#f5f5f5"></path><rect x="358.37" y="339.45" width="10.85" height="65.13" style="fill:#e0e0e0"></rect><rect x="375.81" y="339.45" width="10.85" height="65.13" style="fill:#e0e0e0"></rect><rect x="393.26" y="339.45" width="10.85" height="65.13" style="fill:#e0e0e0"></rect><rect x="410.7" y="339.45" width="10.85" height="65.13" style="fill:#e0e0e0"></rect><rect x="428.15" y="339.45" width="10.86" height="65.13" style="fill:#e0e0e0"></rect><rect x="445.59" y="339.45" width="10.85" height="65.13" style="fill:#e0e0e0"></rect><rect x="463.04" y="339.45" width="10.85" height="65.13" style="fill:#e0e0e0"></rect><rect x="351.78" y="346.81" width="120.57" height="3.49" rx="0.97" style="fill:#e0e0e0"></rect><rect x="351.78" y="396.74" width="120.57" height="3.49" rx="0.97" style="fill:#e0e0e0"></rect><rect x="163.02" y="339.45" width="10.85" height="65.13" style="fill:#e0e0e0"></rect><rect x="180.46" y="339.45" width="10.85" height="65.13" style="fill:#e0e0e0"></rect><rect x="197.91" y="339.45" width="10.85" height="65.13" style="fill:#e0e0e0"></rect><rect x="215.35" y="339.45" width="10.85" height="65.13" style="fill:#e0e0e0"></rect><rect x="232.8" y="339.45" width="10.85" height="65.13" style="fill:#e0e0e0"></rect><rect x="250.24" y="339.45" width="10.85" height="65.13" style="fill:#e0e0e0"></rect><rect x="267.69" y="339.45" width="10.85" height="65.13" style="fill:#e0e0e0"></rect><rect x="156.42" y="346.81" width="120.57" height="3.49" rx="0.97" style="fill:#e0e0e0"></rect><rect x="156.42" y="396.74" width="120.57" height="3.49" rx="0.97" style="fill:#e0e0e0"></rect><rect x="41.1" y="339.45" width="10.85" height="65.13" style="fill:#e0e0e0"></rect><rect x="58.55" y="339.45" width="10.85" height="65.13" style="fill:#e0e0e0"></rect><rect x="75.99" y="339.45" width="10.85" height="65.13" style="fill:#e0e0e0"></rect><rect x="93.44" y="339.45" width="10.85" height="65.13" style="fill:#e0e0e0"></rect><rect x="110.88" y="339.45" width="10.85" height="65.13" style="fill:#e0e0e0"></rect><rect x="128.33" y="339.45" width="10.85" height="65.13" style="fill:#e0e0e0"></rect><rect x="145.77" y="339.45" width="10.85" height="65.13" style="fill:#e0e0e0"></rect><rect x="34.51" y="346.81" width="120.57" height="3.49" rx="0.97" style="fill:#e0e0e0"></rect><rect x="34.51" y="396.74" width="120.57" height="3.49" rx="0.97" style="fill:#e0e0e0"></rect><path d="M417,132.33c-4.86-6.39-13.88-9.85-21.33-6.86,3.62-5.77,7.33-11.79,8.12-18.56S401.54,92.42,395.15,90c-3.66-1.37-7.94-.84-11.34-2.8-5.57-3.21-5.86-11-5.22-17.42.7-7.09,1.7-14.25.85-21.33S375.65,34.24,369.91,30c-6.52-4.81-15.32-5-23.38-4.1-33.76,3.9-64.41,24.87-83.3,53.13s-28.83,62.07-27.25,96c.7,15.11,5.6,31.73,14.06,44.27,7.92,11.74,18.6,22.27,31.78,27.42,8.25,3.21,12.12,4.66,17.27,5.87a88.54,88.54,0,0,0,20.39,2.28h5.65c21.55-.95,35.61-10.56,51.72-24.89s26.42-33.21,36.4-52.33c3.72-7.11,7.21-14.49,8.49-22.41S421.87,138.71,417,132.33Z" style="fill:#ebebeb"></path><path d="M414,133.36c-4.86-6.39-13.89-9.85-21.33-6.86,3.61-5.77,7.32-11.8,8.11-18.56s-2.25-14.5-8.63-16.87c-3.67-1.37-7.95-.85-11.34-2.8-5.57-3.21-5.87-11-5.23-17.42.7-7.1,1.7-14.25.86-21.33s-3.8-14.25-9.54-18.49c-6.52-4.81-15.32-5-23.37-4.1-33.77,3.9-64.42,24.87-83.31,53.13s-28.83,62.07-27.25,96c.7,15.11,5.61,31.73,14.06,44.27,7.92,11.73,18.6,22.27,31.79,27.41,8.24,3.22,12.11,4.67,17.27,5.88a88.39,88.39,0,0,0,20.38,2.28h5.65c21.55-1,35.61-10.56,51.72-24.89s26.42-33.21,36.41-52.33c3.71-7.11,7.2-14.49,8.48-22.41S418.85,139.74,414,133.36Z" style="fill:#ebebeb"></path><path d="M275.18,208.08c-1.67,6.1,19.9,49.26,29.56,55.06L307,379l-3.24,25.62h20.08l-5.15-103.1,25.87-82.34-6.81-3.26-22.64,73.85-8.65-72.28-5.4-1.57,4.32,33.56S286,231.49,282.19,208.08Z" style="fill:#e0e0e0"></path><rect x="289.54" y="385.51" width="2.97" height="19.07" style="fill:#ebebeb"></rect><rect x="312.61" y="385.51" width="2.97" height="19.07" style="fill:#ebebeb"></rect><rect x="335.68" y="385.51" width="2.97" height="19.07" style="fill:#ebebeb"></rect><rect x="285.68" y="388.31" width="54.86" height="3.37" style="fill:#ebebeb"></rect><path d="M123,166.61c.59-4.25-5.42-7.76-9.94-8.12-2.15-.17-4.39.16-6.43-.56-4.41-1.54-6.18-7.24-10.49-9.06-3.23-1.36-6.94-.15-10.06,1.42s-6.22,3.55-9.71,3.78c-3,.19-6.33-.94-9,.55-2,1.1-3,3.39-4.84,4.73s-4.12,1.6-6.33,1.72-4.51.14-6.53,1.06-3.68,3.06-3.26,5.24Z" style="fill:#ebebeb"></path><path d="M147.34,229.51c.48-3.45-4.39-6.29-8.05-6.58-1.74-.14-3.55.12-5.21-.45-3.58-1.25-5-5.88-8.5-7.35-2.61-1.1-5.62-.12-8.15,1.15s-5,2.88-7.86,3.06c-2.46.16-5.13-.75-7.29.45-1.6.9-2.44,2.74-3.92,3.83A9.25,9.25,0,0,1,93.23,225a14.43,14.43,0,0,0-5.28.87c-1.64.75-3,2.47-2.65,4.24Z" style="fill:#ebebeb"></path><path d="M455.53,246.52c.48-3.45-4.39-6.29-8-6.58-1.74-.14-3.55.13-5.21-.45-3.58-1.25-5-5.87-8.5-7.35-2.61-1.1-5.62-.12-8.15,1.16s-5,2.87-7.86,3.06c-2.46.15-5.13-.76-7.29.44-1.6.9-2.44,2.75-3.92,3.84a9.41,9.41,0,0,1-5.13,1.39,14.21,14.21,0,0,0-5.28.86c-1.64.75-3,2.48-2.65,4.24Z" style="fill:#ebebeb"></path><path d="M473.75,99.33c.43-3.13-4-5.7-7.31-6-1.58-.13-3.22.11-4.72-.41-3.25-1.13-4.55-5.33-7.72-6.66-2.37-1-5.09-.11-7.39,1s-4.57,2.61-7.13,2.78c-2.24.14-4.66-.69-6.61.4-1.46.81-2.22,2.49-3.56,3.48a8.47,8.47,0,0,1-4.65,1.26,13.12,13.12,0,0,0-4.8.79c-1.48.67-2.71,2.24-2.4,3.84Z" style="fill:#f5f5f5"></path></g><g id="freepik--Floor--inject-155"><path d="M457,474.26c0,.14-92.61.26-206.82.26s-206.84-.12-206.84-.26,92.59-.26,206.84-.26S457,474.11,457,474.26Z" style="fill:#263238"></path><path d="M454.45,450.49c0,.15-91.68.26-204.74.26s-204.77-.11-204.77-.26,91.66-.26,204.77-.26S454.45,450.35,454.45,450.49Z" style="fill:#263238"></path></g><g id="freepik--Lines--inject-155"><path d="M369,458.92c0,.15-21.9.26-48.91.26s-48.92-.11-48.92-.26,21.9-.26,48.92-.26S369,458.78,369,458.92Z" style="fill:#263238"></path><path d="M460.43,367.07c0,.14-13.74.26-30.69.26s-30.7-.12-30.7-.26,13.74-.26,30.7-.26S460.43,366.93,460.43,367.07Z" style="fill:#263238"></path><path d="M468.11,362c0,.15-13,.26-29.1.26s-29.09-.11-29.09-.26,13-.26,29.09-.26S468.11,361.81,468.11,362Z" style="fill:#263238"></path></g><g id="freepik--Birds--inject-155"><path d="M103.9,77.17s-.8-.27-2.27-.6a18.31,18.31,0,0,0-6.35-.25A17.23,17.23,0,0,0,86.72,80a17.78,17.78,0,0,0-6,9.59l0,.11-.18.68-.26-.65A19.14,19.14,0,0,0,73,81a18.47,18.47,0,0,0-8.83-2.94,19.43,19.43,0,0,0-6.31.58c-1.46.38-2.23.72-2.24.68a2.28,2.28,0,0,1,.55-.27,14.36,14.36,0,0,1,1.64-.59,19.07,19.07,0,0,1,6.38-.73,18.6,18.6,0,0,1,9,2.92,19.35,19.35,0,0,1,7.43,8.91l-.44,0,0-.11a18,18,0,0,1,6.22-9.82A17.3,17.3,0,0,1,95.23,76a17.48,17.48,0,0,1,6.44.39,13.54,13.54,0,0,1,1.67.53A3.51,3.51,0,0,1,103.9,77.17Z" style="fill:#263238"></path><path d="M130.67,57.75s-.32-.09-.91-.21a7.16,7.16,0,0,0-2.49-.08,6.75,6.75,0,0,0-3.34,1.46,7,7,0,0,0-2.36,3.75v0l-.12.5-.19-.47a7.48,7.48,0,0,0-2.83-3.42A7.28,7.28,0,0,0,115,58.15a7.85,7.85,0,0,0-2.48.21c-.58.14-.88.26-.9.24a.85.85,0,0,1,.22-.12,4.77,4.77,0,0,1,.64-.25,7.47,7.47,0,0,1,6.14.83,7.7,7.7,0,0,1,3,3.55l-.31,0v0a7.17,7.17,0,0,1,2.49-3.92,6.92,6.92,0,0,1,6-1.27,5,5,0,0,1,.66.22C130.6,57.7,130.67,57.73,130.67,57.75Z" style="fill:#263238"></path><path d="M130.63,97.2s-.32-.13-.91-.31a5,5,0,0,0-2.49-.11,6,6,0,0,0-3.34,2.16,11.74,11.74,0,0,0-2.36,5.55v.06l-.12.73-.19-.69a11.19,11.19,0,0,0-2.83-5.06,5.86,5.86,0,0,0-3.45-1.72,5.38,5.38,0,0,0-2.48.3,8,8,0,0,1-.9.35,1,1,0,0,1,.22-.17,3.4,3.4,0,0,1,.64-.37,5.09,5.09,0,0,1,2.53-.46,5.82,5.82,0,0,1,3.61,1.69,11.42,11.42,0,0,1,3,5.26l-.31,0v-.07a11.91,11.91,0,0,1,2.49-5.79,5.85,5.85,0,0,1,3.5-2.15,4.66,4.66,0,0,1,2.55.27,2.85,2.85,0,0,1,.66.33A.83.83,0,0,1,130.63,97.2Z" style="fill:#263238"></path></g><g id="freepik--Plants--inject-155"><path d="M425.18,438a6.74,6.74,0,0,1,3.5,4,12,12,0,0,1,.47,5.37c-.4,3.49-2.38,7-4.52,9.8-2.94-2.56-3.61-7-3.81-9.33-.32-3.62,1.31-10.35,4.36-9.81" style="fill:#FF725E"></path><path d="M428.05,462.88a5.77,5.77,0,0,1,1.86-5.48,7.69,7.69,0,0,1,5.65-1.77,3.21,3.21,0,0,1,2.48,1.12,2.46,2.46,0,0,1,0,2.5,5.12,5.12,0,0,1-1.85,1.82c-2.55,1.6-5.3,2.67-8.18,1.81" style="fill:#FF725E"></path><path d="M424.28,473.58a3.78,3.78,0,0,1,.1-.72c.1-.5.22-1.15.36-1.93a20.05,20.05,0,0,1,2-6.19,12.48,12.48,0,0,1,4.44-4.73,8.44,8.44,0,0,1,1.81-.8c.22-.07.41-.1.52-.13l.19,0a13.78,13.78,0,0,0-2.43,1.12,12.74,12.74,0,0,0-4.31,4.69,21.86,21.86,0,0,0-2,6.1c-.18.81-.33,1.47-.44,1.92A3.42,3.42,0,0,1,424.28,473.58Z" style="fill:#263238"></path><path d="M424.39,443.22a1.44,1.44,0,0,1,0,.31c0,.23,0,.53.05.9,0,.78.09,1.91.13,3.31.09,2.79.16,6.66.15,10.93s-.13,8.13-.24,10.92c-.06,1.4-.11,2.53-.16,3.31q0,.56-.06.9a1.3,1.3,0,0,1,0,.31,1,1,0,0,1,0-.31c0-.23,0-.53,0-.9,0-.81,0-1.94.08-3.31.07-2.8.14-6.66.16-10.92s0-8.13-.07-10.93c0-1.37,0-2.5-.05-3.31v-.9A1.43,1.43,0,0,1,424.39,443.22Z" style="fill:#263238"></path><path d="M423,465a13.48,13.48,0,0,0-7.36-9.88c-1-.47-2.27-.78-3.08-.05s-.62,2.05-.23,3.06a11.54,11.54,0,0,0,10.6,7.16" style="fill:#FF725E"></path><path d="M416.07,458.43a3.06,3.06,0,0,1,.63.27,5.69,5.69,0,0,1,.7.38,10.3,10.3,0,0,1,.9.56c.32.23.67.47,1,.77a14,14,0,0,1,1.09,1,14.78,14.78,0,0,1,2.08,2.67,15,15,0,0,1,1.37,3.09,12.38,12.38,0,0,1,.34,1.44,10.75,10.75,0,0,1,.18,1.27c.05.39,0,.75.05,1.06a6.12,6.12,0,0,1,0,.79,3.42,3.42,0,0,1-.07.68c-.06,0,0-1-.13-2.51-.05-.39-.1-.81-.2-1.25a12.31,12.31,0,0,0-.37-1.41,15.09,15.09,0,0,0-1.36-3,15.57,15.57,0,0,0-2-2.63,13.79,13.79,0,0,0-1.06-1,12,12,0,0,0-1-.78C416.93,458.88,416.05,458.48,416.07,458.43Z" style="fill:#263238"></path><path d="M74.54,474.22c-.14.07-1.07-2.11-2.88-4.35s-3.72-3.63-3.63-3.76a11.33,11.33,0,0,1,4,3.44A11.21,11.21,0,0,1,74.54,474.22Z" style="fill:#263238"></path><path d="M89.09,459.92c.07.06-.54.71-1.31,1.89a16.35,16.35,0,0,0-2.61,10.46c.13,1.4.36,2.26.27,2.28a6.36,6.36,0,0,1-.64-2.24,14.59,14.59,0,0,1,.28-5.62,14.21,14.21,0,0,1,2.4-5.09A6.19,6.19,0,0,1,89.09,459.92Z" style="fill:#263238"></path><path d="M75.08,459.73a59.74,59.74,0,0,1,2.78,7.39,61.87,61.87,0,0,1,2.28,7.55,59.74,59.74,0,0,1-2.78-7.39A61.87,61.87,0,0,1,75.08,459.73Z" style="fill:#263238"></path><path d="M144,433.44a11.86,11.86,0,0,1,1.56,2.23,50.27,50.27,0,0,1,5.28,12,12.25,12.25,0,0,1,.59,2.65,16.85,16.85,0,0,1-.94-2.54c-.55-1.57-1.35-3.73-2.38-6.06s-2.08-4.37-2.87-5.84A17.58,17.58,0,0,1,144,433.44Z" style="fill:#263238"></path><path d="M153.8,428.07a25.53,25.53,0,0,1-.13,3.27c-.12,2-.22,4.79-.17,7.87s.24,5.85.42,7.86a24.94,24.94,0,0,1,.24,3.26,16.63,16.63,0,0,1-.61-3.22,71.61,71.61,0,0,1-.58-7.89,70.09,70.09,0,0,1,.33-7.91A16.47,16.47,0,0,1,153.8,428.07Z" style="fill:#263238"></path><path d="M162.39,437.19a54.13,54.13,0,0,0-2.93,6.41,55.4,55.4,0,0,0-1.55,6.86,6.78,6.78,0,0,1,0-2.09,22,22,0,0,1,1.06-4.94,21.61,21.61,0,0,1,2.15-4.57A6.18,6.18,0,0,1,162.39,437.19Z" style="fill:#263238"></path></g><g id="freepik--Bench--inject-155"><polygon points="237.49 371.56 219.21 450.93 226.94 450.91 245.26 372.31 237.49 371.56" style="fill:#455a64"></polygon><polygon points="264.89 371.56 283.23 450.93 290.57 450.93 272.82 371.56 264.89 371.56" style="fill:#455a64"></polygon><polygon points="228.5 311.96 238.91 366.6 250.74 366.6 239.62 311.96 228.5 311.96" style="fill:#455a64"></polygon><polygon points="56.49 371.56 41.58 450.93 49.17 450.93 64.75 371.56 56.49 371.56" style="fill:#455a64"></polygon><polygon points="87.84 371.56 104.88 450.49 112.38 450.49 95.92 371.56 87.84 371.56" style="fill:#455a64"></polygon><polygon points="44.15 311.96 54.56 366.6 66.39 366.6 55.27 311.96 44.15 311.96" style="fill:#455a64"></polygon><polygon points="28.92 307.06 30.87 317 249.01 317 246.46 307.06 28.92 307.06" style="fill:#455a64"></polygon><polygon points="33.09 326.35 35.39 336.29 252.05 336.29 250.08 326.35 33.09 326.35" style="fill:#455a64"></polygon><polygon points="37.39 346.32 39.54 356.26 255.53 356.26 253.49 346.32 37.39 346.32" style="fill:#455a64"></polygon><rect x="47.94" y="366.6" width="237.62" height="9.93" style="fill:#455a64"></rect><path d="M255.53,356.26c0,.14-47.65.3-106.41.35s-106.43,0-106.43-.16,47.64-.3,106.43-.36S255.53,356.12,255.53,356.26Z" style="fill:#263238"></path><path d="M253.49,346.33c0,.14-47.19.33-105.39.42s-105.41.05-105.41-.09,47.18-.34,105.4-.43S253.49,346.18,253.49,346.33Z" style="fill:#263238"></path><path d="M251.31,336.29c0,.14-46.69.26-104.26.26s-104.28-.12-104.28-.26S89.45,336,147.05,336,251.31,336.14,251.31,336.29Z" style="fill:#263238"></path><path d="M250.08,326.35c0,.15-46.41.29-103.65.33s-103.66-.06-103.66-.2,46.4-.29,103.66-.32S250.08,326.21,250.08,326.35Z" style="fill:#263238"></path><path d="M249,317l-.53,0-1.57,0-6,.05-22.1.08-72.91.08L73,317.18l-22.1-.08-6-.05-1.57,0-.53,0,.53,0,1.57,0,6-.05,22.1-.08,72.93-.08,72.91.08,22.1.08,6,.05,1.57,0Z" style="fill:#263238"></path><path d="M285.56,366.6c0,.14-53.15.26-118.7.26s-118.7-.12-118.7-.26,53.14-.26,118.7-.26S285.56,366.45,285.56,366.6Z" style="fill:#263238"></path><path d="M285.56,376.53c0,.14-53.15.26-118.7.26s-118.7-.12-118.7-.26,53.14-.26,118.7-.26S285.56,376.39,285.56,376.53Z" style="fill:#263238"></path></g><g id="freepik--Character--inject-155"><path d="M224.77,287.86s32.6,57.22,40.38,66.25c9,10.45,13.31,12,33,11.12,24.21-1.11,56.57-1.66,56.57-1.66l6.74-16S325.25,336.66,310,336.06c-14-.55-20.21-2.52-20.21-2.52s-7.84-24-9.65-36.86c-1.48-10.45-.36-22.64-4.29-32.95-5-13.16-14.48-16.05-14.48-16.05l-41.79,28.55Z" style="fill:#263238"></path><path d="M215,353.82l9.11-73,40.4,30.66s-20.28,45.08-18.28,53.1,9.83,15,11,29.87,9,40.41,9,40.41L248,438.05s-22.46-46.2-30.81-67.08A34.72,34.72,0,0,1,215,353.82Z" style="fill:#263238"></path><path d="M261.61,348.36a5.38,5.38,0,0,1-.44-.65c-.27-.44-.67-1.09-1.21-1.91-1.06-1.66-2.66-4-4.75-6.83s-4.65-6.15-7.16-10.08c-1.26-2-2.44-4.11-3.73-6.28s-2.65-4.41-4-6.71c-5.62-9.14-10.63-17.49-13.75-23.8-1.59-3.14-2.71-5.77-3.48-7.58l-.81-2.12a3.9,3.9,0,0,1-.25-.75,4.32,4.32,0,0,1,.35.71c.22.52.52,1.21.9,2.08.82,1.78,2,4.38,3.62,7.49,3.2,6.26,8.24,14.56,13.87,23.7,1.4,2.29,2.75,4.53,4,6.72s2.46,4.32,3.7,6.28c2.46,3.93,5,7.26,7,10.12s3.62,5.25,4.63,6.94c.51.84.89,1.51,1.13,2A3.47,3.47,0,0,1,261.61,348.36Z" style="fill:#455a64"></path><polygon points="179.28 286.23 199.8 248.03 183.31 241.23 169.81 283.05 179.28 286.23" style="fill:#c0645a"></polygon><path d="M165.78,312.86l-4.88-7.63.49-9.08,8.67-13.06,9.37,1.28s.64,5.31-.14,7.43-2.29,6.83-2.29,6.83l-1.45,5.14.8,2.33,1.62,2.2a1.34,1.34,0,0,1-1.93,1,11.33,11.33,0,0,1-3.18-3l-1-3.63-.47,3.43,3.36,4.38s-.62,1.77-2,1.08l-1.39-.68s-.44,1.42-2.07.71a18.13,18.13,0,0,1-2.91-1.64A2.42,2.42,0,0,1,165.78,312.86Z" style="fill:#b5675e"></path><path d="M168.18,296.71a11.45,11.45,0,0,0-.66,2.36c-.17.73-.36,1.6-.56,2.58-.1.5-.2,1-.3,1.54a11.32,11.32,0,0,0-.24,1.72,6.67,6.67,0,0,0,1.65,2.89,13.54,13.54,0,0,0,1.93,1.85,16.27,16.27,0,0,0,1.94,1.49,9.27,9.27,0,0,0-1.72-1.74,18.37,18.37,0,0,1-1.8-1.88,6.67,6.67,0,0,1-1.52-2.66c0-.46.14-1.08.22-1.59s.19-1,.27-1.54c.17-.93.32-1.8.47-2.6A13.58,13.58,0,0,0,168.18,296.71Z" style="fill:#894943"></path><path d="M164.27,296.41a9.56,9.56,0,0,0-.82,2.14c-.22.67-.47,1.47-.74,2.36-.13.46-.27.93-.4,1.41a11.51,11.51,0,0,0-.37,1.6,6.24,6.24,0,0,0,1.31,2.84,13.67,13.67,0,0,0,1.66,1.89,14.47,14.47,0,0,0,1.7,1.53,8.53,8.53,0,0,0-1.45-1.77,14.67,14.67,0,0,1-1.53-1.9,6.13,6.13,0,0,1-1.2-2.6c.06-.42.22-1,.33-1.46l.38-1.41.64-2.4A11.21,11.21,0,0,0,164.27,296.41Z" style="fill:#894943"></path><path d="M199.71,91a5.7,5.7,0,0,1,4.37-2.6,3.26,3.26,0,0,0,2-.47,4.42,4.42,0,0,0,.76-1.32A2.9,2.9,0,0,1,211,85.7a3.36,3.36,0,0,0,1,.64c1.5.44,2.5-2.4,4-1.94a3.3,3.3,0,0,0-1.28,1.49,1.48,1.48,0,0,0,.52,1.76c1.48.87,3.08-2,4.68-1.39.86.35,1.22,1.63,2.14,1.67a3,3,0,0,0,1-.28,2.38,2.38,0,0,1,2.87,1.52c.3,1,0,2.32.92,2.84a2.23,2.23,0,0,0,1.85-.09,6.17,6.17,0,0,1-.14,2.8,3.72,3.72,0,0,1,2.19,4.68,8.17,8.17,0,0,1,2.54,1.75,2.78,2.78,0,0,1,.58,2.88,2.24,2.24,0,0,0-.27.64,1.36,1.36,0,0,0,.14.74,12.75,12.75,0,0,1,1.13,2.71c.16,1-.35,2.16-1.33,2.27-.22,0-.48,0-.65.15a.64.64,0,0,0-.14.49,6.44,6.44,0,0,0,.54,2,2.88,2.88,0,0,1,.08,2.06,1.2,1.2,0,0,1-1.74.56l1.45,3.06c.29.6.57,1.35.19,1.9-.48.73-1.68.47-2.28-.17s-.9-1.52-1.52-2.14a5.45,5.45,0,0,1-.75-.77c-.16-.23-.25-.54-.5-.67-.5-.27-1,.46-.88,1s.69.89,1.12,1.25.85.93.65,1.47c-.09.26-.31.46-.39.72-.3.9,1.05,1.46,1.37,2.36a2.31,2.31,0,0,1-.53,2c-.48.71-1.54,1.41-2.06.73a7.48,7.48,0,0,1-.35-.82,2.17,2.17,0,0,0-.82-.64,4.37,4.37,0,0,1-1.71-1.9c.88.74,1.85,1.76,1.54,2.86a4.42,4.42,0,0,1-.72,1.24c-.51.79-.74,1.74-1.24,2.54a2.21,2.21,0,0,1-2.35,1.17,2.12,2.12,0,0,1-3.08,2.75,1.93,1.93,0,0,0-.67-.4,1.55,1.55,0,0,0-.81.18,4.59,4.59,0,0,1-4.7-.89l.77-.46a10.68,10.68,0,0,1-4.94-.46c-1.53-.66-2.76-2.33-2.35-4,.18-.7.64-1.47.24-2.08a1.77,1.77,0,0,0-1.32-.6l-6.19-.91a5.37,5.37,0,0,1-2.83-1,1.9,1.9,0,0,1-.37-2.67,5.42,5.42,0,0,0-2.44-1.78c-1.07-.39-2.25-.43-3.34-.77a3.1,3.1,0,0,1-2.33-2.26c-.15-1.14,1.23-2.31,2.16-1.64-.48-1.66-3.51-1.18-4.1-2.81-.47-1.32,1.13-2.36,1.82-3.58-.27-.44-.82-.65-1.1-1.08-.61-.9.22-2.08,1.09-2.72s1.95-1.34,2-2.42-1.11-2.14-.73-3.18a1.22,1.22,0,0,1,1.5-.7c.4-2.1,4.35-1.35,5.06-3.36a.79.79,0,0,0,0-.5.86.86,0,0,0-.26-.34,8.71,8.71,0,0,0-1.86-.92c-.62-.31-1.21-.92-1.09-1.6s1.33-.9,1.45-.22a1.53,1.53,0,0,1,2.4.13,1.64,1.64,0,0,1,2-.58,4.79,4.79,0,0,1,1.77,1.37" style="fill:#263238"></path><path d="M213.13,110.7c-1.21-2.65-3.75-4.45-6.4-5.68a7.38,7.38,0,0,0-3.51-.89,3.17,3.17,0,0,0-2.85,2l.6,2c.45,3.21,3.47,5.34,5.29,8,.78,1.17,1.54,2.62,2.92,2.89a3,3,0,0,0,2.12-.49C213.78,117,214.35,113.35,213.13,110.7Z" style="fill:#FF725E"></path><path d="M216.64,125.25a6.5,6.5,0,0,0-2.48-8c.82-1.73-.13-3.88-1.64-5a12.76,12.76,0,0,0-5.34-2,8.76,8.76,0,0,0-11.41-3.89c-3-2.72-7.79-2.13-11.3-.14a10.58,10.58,0,0,1-2.65,1.27,17.34,17.34,0,0,1-2.16.2c-3.95.39-7.12,4-7.78,7.9a7.12,7.12,0,0,1-.42,1.85,9.64,9.64,0,0,1-1.54,2,6.36,6.36,0,0,0-1.28,5.08c.29,1.51,1.14,3,.83,4.47-.15.75-.59,1.43-.67,2.2-.23,2.21,2.53,3.77,2.61,6,0,.45-.08.9-.1,1.35a3.85,3.85,0,0,0,.85,2.59,5.77,5.77,0,0,1,1.28,1.7,6.26,6.26,0,0,1,.05,1.62c0,1.33,3.93,5.58,5.18,6l32.8-7.42a6.27,6.27,0,0,0,3.49-6.38,2.32,2.32,0,0,1,0-1.28,2.85,2.85,0,0,1,.76-.79c1.84-1.62,1.41-4.58.63-6.91a3.15,3.15,0,0,1-.22-1A3.71,3.71,0,0,1,216.64,125.25Z" style="fill:#263238"></path><path d="M207.27,127.51a18,18,0,0,0-12.89-13.09,22.15,22.15,0,0,0-8.83,0,13.66,13.66,0,0,0-7.34,3.43c-1.71.85-6.89,8.46-5.69,15.11,1.34,7.39,3.27,16.35,5.47,21.57,4.42,10.48,13.13,9.8,13.13,9.8l3.5,18.34,21-16.61Z" style="fill:#b5675e"></path><path d="M193.89,149.24a2.21,2.21,0,0,0-1-1.2,2.27,2.27,0,0,0-2.72.36,2.5,2.5,0,0,0-.27,2.73h0c.57.54,1,1.1,1.81,1a2.2,2.2,0,0,0,.37-.06,2.53,2.53,0,0,0,1.51-1A2.23,2.23,0,0,0,193.89,149.24Z" style="fill:#894943"></path><path d="M179.24,140.47a1.44,1.44,0,0,0,1.7,1.07,1.37,1.37,0,0,0,1.13-1.61,1.44,1.44,0,0,0-1.7-1.08A1.37,1.37,0,0,0,179.24,140.47Z" style="fill:#263238"></path><path d="M176.06,136.48c.22.14,1.09-.91,2.6-1.27s2.79.11,2.91-.12-.2-.38-.77-.61a3.94,3.94,0,0,0-4.39,1.1C176,136.05,176,136.42,176.06,136.48Z" style="fill:#263238"></path><path d="M187.81,146.2a10,10,0,0,0-2.55.16c-.4.06-.78.07-.91-.18a2,2,0,0,1,0-1.2c.14-1,.27-2.09.42-3.21.55-4.56.85-8.27.66-8.29s-.78,3.66-1.33,8.22c-.12,1.12-.25,2.19-.36,3.21a2.33,2.33,0,0,0,.17,1.56,1,1,0,0,0,.78.41,3.21,3.21,0,0,0,.67-.07A10.63,10.63,0,0,0,187.81,146.2Z" style="fill:#263238"></path><path d="M191.12,164.28a28.62,28.62,0,0,0,13.7-7.51s-2,8.65-13.16,10.33Z" style="fill:#894943"></path><path d="M175,133.25c.34.3,1.44-.23,2.81-.45s2.58-.14,2.79-.54c.1-.2-.14-.52-.7-.77a4.18,4.18,0,0,0-2.37-.24,4.13,4.13,0,0,0-2.14,1C175,132.72,174.88,133.1,175,133.25Z" style="fill:#263238"></path><path d="M196,136.13a1.44,1.44,0,0,1-1.07,1.7,1.37,1.37,0,0,1-1.72-1,1.44,1.44,0,0,1,1.06-1.7A1.39,1.39,0,0,1,196,136.13Z" style="fill:#263238"></path><path d="M196.81,132c-.13.22-1.37-.35-2.89,0s-2.47,1.31-2.67,1.15,0-.43.42-.89a4,4,0,0,1,2.1-1.15,3.8,3.8,0,0,1,2.34.25C196.65,131.58,196.88,131.88,196.81,132Z" style="fill:#263238"></path><path d="M195.42,126.07c-.23.4-1.47.29-2.89.56s-2.55.78-2.9.47c-.16-.15,0-.53.41-1a4.51,4.51,0,0,1,2.23-1,4.43,4.43,0,0,1,2.44.22C195.28,125.55,195.52,125.87,195.42,126.07Z" style="fill:#263238"></path><path d="M208.07,138.28c-.2-.81.27-3,1-3.28,2.06-.86,6-1.65,7.34,3.79,1.89,7.43-6,7.79-6,7.58S208.75,141.09,208.07,138.28Z" style="fill:#b5675e"></path><path d="M211.78,143.13s.16.06.4.11a1.37,1.37,0,0,0,1-.23c.72-.49,1.06-1.9.76-3.25a4.44,4.44,0,0,0-.84-1.76,1.53,1.53,0,0,0-1.22-.75.69.69,0,0,0-.68.55c0,.24,0,.37,0,.39s-.2-.08-.21-.4a.81.81,0,0,1,.17-.54,1,1,0,0,1,.67-.37,1.86,1.86,0,0,1,1.64.81,4.44,4.44,0,0,1,1,1.95c.33,1.51-.08,3.11-1.08,3.69a1.41,1.41,0,0,1-1.23.1C211.84,143.31,211.76,143.15,211.78,143.13Z" style="fill:#894943"></path><path d="M170.9,133.42a4.48,4.48,0,0,0,1.39-4.57c1.07.05,1.76-1.48,2.13-2.49s1-1.61.67-2.64a1.32,1.32,0,0,1-.07-.62c.08-.33.41-.51.7-.68a5.15,5.15,0,0,0,2.43-4.27,11,11,0,0,0,5.3-.41,4.16,4.16,0,0,0,6.75-2,3.73,3.73,0,0,0,2.86,1.19,11.19,11.19,0,0,0,3.12-.6,4.41,4.41,0,0,0,4,4.15,1.05,1.05,0,0,1,.8.24c.19.22.12.56.09.85a3.46,3.46,0,0,0,3.3,3.73,2.58,2.58,0,0,0,1.19,3.87c.31.09.71.2.75.53a.73.73,0,0,1-.09.35,5.06,5.06,0,0,0-.56,2.75,1.85,1.85,0,0,0,2,1.63,2.43,2.43,0,0,0-.54,1.86c.14.65,1,1.15,1.51.77.23-.17,3.75-1.81,3.86-2.07,1.4-3.37-2-5.88-3.1-9.37a23.67,23.67,0,0,0-5.69-9.26,17.14,17.14,0,0,0-3.53-2.94,23.2,23.2,0,0,0-4.83-2,21.12,21.12,0,0,0-6.67-1.38c-4.25,0-8.06,2.53-11.38,5.18a18.17,18.17,0,0,0-3.46,3.38,16.43,16.43,0,0,0-2.31,5.28,20.45,20.45,0,0,0-.82,8.28" style="fill:#263238"></path><path d="M168.8,131.18a3,3,0,0,1,.2-.9c.1-.29.25-.63.37-1.05a3.44,3.44,0,0,0,.08-1.49,11.59,11.59,0,0,0-.48-1.83,8.3,8.3,0,0,1-.49-2.23,6.42,6.42,0,0,1,.41-2.58,6.17,6.17,0,0,1,.65-1.28,9.62,9.62,0,0,1,1-1.16,4.87,4.87,0,0,0,.89-1.26,6.1,6.1,0,0,0,.36-1.57,10.29,10.29,0,0,1,3.44-6.25,9.75,9.75,0,0,1,1.63-1.11,8.32,8.32,0,0,1,1.9-.7,8.83,8.83,0,0,1,1-.16l1-.07a4.93,4.93,0,0,0,2-.48c.63-.3,1.23-.7,1.87-1a14,14,0,0,1,2-.88,13.41,13.41,0,0,1,2.18-.56,11.55,11.55,0,0,1,2.28-.13,7.57,7.57,0,0,1,4.35,1.56l.37.29h-.13a8.87,8.87,0,0,1,11.56,3.94l-.07-.06a25.79,25.79,0,0,1,2.94.74,8.12,8.12,0,0,1,2.6,1.38,5.35,5.35,0,0,1,1.6,2.34,3.67,3.67,0,0,1-.1,2.69l0-.13a6.34,6.34,0,0,1,2.65,3.41,6.49,6.49,0,0,1,.13,3.89,5.71,5.71,0,0,1-.31.85,7.65,7.65,0,0,0-.35.79,1.71,1.71,0,0,0-.09.8,5.51,5.51,0,0,0,.21.77,12.3,12.3,0,0,1,.61,2.84,5.93,5.93,0,0,1-.21,2.33,3.64,3.64,0,0,1-.86,1.49c-.32.35-.64.53-.79.71a2.59,2.59,0,0,0-.22.29,1.09,1.09,0,0,1,.2-.31c.15-.19.46-.38.77-.73a3.78,3.78,0,0,0,.82-1.47,6,6,0,0,0,.18-2.3,12.29,12.29,0,0,0-.63-2.81,4.82,4.82,0,0,1-.22-.79,1.69,1.69,0,0,1,.09-.86,8.24,8.24,0,0,1,.35-.81,5.56,5.56,0,0,0,.3-.84,6.33,6.33,0,0,0-.14-3.79,6.21,6.21,0,0,0-2.59-3.29l-.07,0,0-.07a3.5,3.5,0,0,0,.08-2.55,5.2,5.2,0,0,0-1.54-2.24,8.13,8.13,0,0,0-2.54-1.34,24,24,0,0,0-2.92-.72h0l0,0a8.29,8.29,0,0,0-4.71-4.1,8.39,8.39,0,0,0-6.55.26l-.06,0-.07,0-.35-.29a7.26,7.26,0,0,0-4.22-1.51,11,11,0,0,0-2.23.13,14,14,0,0,0-2.14.54,13.62,13.62,0,0,0-2,.87c-.63.33-1.23.74-1.89,1a5.06,5.06,0,0,1-1,.36,6.42,6.42,0,0,1-1.06.14c-.34,0-.69,0-1,.06s-.67.08-1,.16a7.46,7.46,0,0,0-1.85.68,8.39,8.39,0,0,0-1.59,1.08A9.68,9.68,0,0,0,173,112.6a9.8,9.8,0,0,0-1.09,3.26,6.31,6.31,0,0,1-.39,1.61,4.92,4.92,0,0,1-.92,1.3,8.53,8.53,0,0,0-1,1.14,6.12,6.12,0,0,0-.65,1.24,6.32,6.32,0,0,0-.41,2.52,8.17,8.17,0,0,0,.46,2.2,10.79,10.79,0,0,1,.47,1.86,3.73,3.73,0,0,1-.1,1.52c-.13.43-.29.76-.39,1.05a3.93,3.93,0,0,0-.2.65A1.93,1.93,0,0,0,168.8,131.18Z" style="fill:#455a64"></path><path d="M191.88,105.61s-.23-.07-.63-.16a5.19,5.19,0,0,0-1.74-.07,4.77,4.77,0,0,0-2.36,1,5,5,0,0,0-1.74,2.56,5.18,5.18,0,0,0-.16.93.94.94,0,0,0,.25.77l.24.21h-.32a3.16,3.16,0,0,0-2.24.84,3,3,0,0,0-.92,1.68,3.28,3.28,0,0,0,0,1.3,3.17,3.17,0,0,1,.11.46s0,0-.06-.1a3.06,3.06,0,0,1-.12-.34,3.18,3.18,0,0,1,.86-3.15,3.34,3.34,0,0,1,2.38-.91l-.08.19a1.16,1.16,0,0,1-.33-.94,4.66,4.66,0,0,1,.17-1,5.13,5.13,0,0,1,1.83-2.67,4.91,4.91,0,0,1,2.47-1,4.75,4.75,0,0,1,1.78.16,2.36,2.36,0,0,1,.46.16C191.83,105.57,191.88,105.6,191.88,105.61Z" style="fill:#455a64"></path><path d="M206,111.21a1.08,1.08,0,0,1-.19.33,5.9,5.9,0,0,1-.7.79,3.88,3.88,0,0,1-1.38.81,2.79,2.79,0,0,1-2-.11l.15-.07-.14.36c-.05.12-.12.24-.18.36a4.76,4.76,0,0,1-3.3,2.26,4,4,0,0,1-1.24,0,1.68,1.68,0,0,1-.44-.11,6.73,6.73,0,0,0,1.65-.07,4.9,4.9,0,0,0,1.64-.67,4.72,4.72,0,0,0,1.49-1.55c.06-.11.12-.22.17-.33s.09-.23.14-.34l.05-.12.11,0a2.52,2.52,0,0,0,1.82.12,3.71,3.71,0,0,0,1.34-.73C205.71,111.64,206,111.18,206,111.21Z" style="fill:#455a64"></path><path d="M211.66,117.15s0,0,0,.14a1.47,1.47,0,0,1-.08.4,2,2,0,0,1-1,1.09,3.82,3.82,0,0,1-2.18.29,12.73,12.73,0,0,1-1.29-.17,2.07,2.07,0,0,1-1.25-.69l-.08-.11H206a8.79,8.79,0,0,1-1.89,1.87,3.85,3.85,0,0,1-2,.72,2.79,2.79,0,0,1-1.44-.27,1.92,1.92,0,0,1-.33-.21c-.07-.06-.11-.09-.1-.1s.16.1.47.23a3,3,0,0,0,1.38.19,3.92,3.92,0,0,0,1.93-.74A9.05,9.05,0,0,0,205.8,118l.09-.12.1.13.06.09a1.85,1.85,0,0,0,1.12.6,12,12,0,0,0,1.26.19,3.87,3.87,0,0,0,2.09-.22,2,2,0,0,0,1-1A3,3,0,0,0,211.66,117.15Z" style="fill:#455a64"></path><path d="M213.15,88.62s-.13,0-.34.15a1.68,1.68,0,0,0-.7.74,2.36,2.36,0,0,0-.21,1.56,6.85,6.85,0,0,0,.77,2l.06.11-.13,0a4.38,4.38,0,0,0-2.38,1.42,3.39,3.39,0,0,0-.78,3,3.15,3.15,0,0,0,1.69,2.21l.3.14-.32.07a4,4,0,0,0-2.52,1.93,3.84,3.84,0,0,0-.39,2.52,4.09,4.09,0,0,0,.65,1.58c.23.34.39.49.38.5s0,0-.13-.1a3.2,3.2,0,0,1-.31-.35,4.06,4.06,0,0,1-.73-1.6,4,4,0,0,1,.36-2.64,4.14,4.14,0,0,1,2.64-2l0,.21a3.36,3.36,0,0,1-1.82-2.37,3.41,3.41,0,0,1,.05-1.71,3.87,3.87,0,0,1,.78-1.44A4.6,4.6,0,0,1,212.56,93l-.06.14a6.68,6.68,0,0,1-.76-2,2.48,2.48,0,0,1,.27-1.63,1.76,1.76,0,0,1,.77-.74,1.19,1.19,0,0,1,.27-.09Z" style="fill:#455a64"></path><path d="M230.37,101.51l-.1.1c-.08.06-.18.16-.33.26a5.59,5.59,0,0,1-1.42.71,6.09,6.09,0,0,1-2.41.29,5.84,5.84,0,0,1-2.91-1l.17-.06a4.88,4.88,0,0,1-2.79,3.12,3.69,3.69,0,0,1-4.19-1.07l.19,0a3.09,3.09,0,0,1-.59,1.48,4.08,4.08,0,0,1-1.05,1,5.54,5.54,0,0,1-2.21.79,10,10,0,0,1-1.52.12,2.82,2.82,0,0,1-.54,0,4,4,0,0,1,.54-.06,13.59,13.59,0,0,0,1.5-.18,5.61,5.61,0,0,0,2.13-.81,3.35,3.35,0,0,0,1.53-2.34l0-.27.17.21a3.47,3.47,0,0,0,3.93,1,4.67,4.67,0,0,0,2.67-3l.05-.14.12.08a5.66,5.66,0,0,0,2.8,1,6.1,6.1,0,0,0,2.35-.24A7.34,7.34,0,0,0,230.37,101.51Z" style="fill:#455a64"></path><path d="M225.22,114.31s0,.06-.05.15a.76.76,0,0,1-.38.29,3.53,3.53,0,0,1-1.71.13,4.11,4.11,0,0,1-2.28-1.12,4.22,4.22,0,0,1-1.27-2.82v0l.19.09a5,5,0,0,1-2.88,1.14,5.58,5.58,0,0,1-2.5-.43,6.21,6.21,0,0,1-1.48-.86,2.11,2.11,0,0,1-.45-.43,8.67,8.67,0,0,0,2,1.14,5.47,5.47,0,0,0,2.42.36,4.88,4.88,0,0,0,2.75-1.1l.17-.15,0,.23v0a4.14,4.14,0,0,0,1.19,2.68,4.05,4.05,0,0,0,2.16,1.11,3.76,3.76,0,0,0,1.65,0A.77.77,0,0,0,225.22,114.31Z" style="fill:#455a64"></path><path d="M196.94,92.87a6.65,6.65,0,0,0,.22,2.37,5.45,5.45,0,0,0,1.3,2.19,5.39,5.39,0,0,0,2.75,1.43,5,5,0,0,0,1.81,0l.14,0V99a6.92,6.92,0,0,0,.32,2.47,7.11,7.11,0,0,0,.88,1.79,5.29,5.29,0,0,0,.47.59.56.56,0,0,0,.47.2.42.42,0,0,0,.28-.16c0-.07,0-.11,0-.11s0,0,0,.13a.41.41,0,0,1-.3.22.66.66,0,0,1-.56-.2,4.4,4.4,0,0,1-.5-.59,6.64,6.64,0,0,1-1-1.81,6.83,6.83,0,0,1-.35-2.54l.13.11a5.22,5.22,0,0,1-1.89,0,5.5,5.5,0,0,1-2.86-1.51,5.4,5.4,0,0,1-1.3-2.3,5.33,5.33,0,0,1-.19-1.77c0-.21.05-.37.07-.48S196.93,92.87,196.94,92.87Z" style="fill:#455a64"></path><path d="M192.53,147.1c-.22,0-.06,1.48-1.2,2.66s-2.72,1.2-2.71,1.4.38.25,1,.19a3.69,3.69,0,0,0,2.27-1.08,3.18,3.18,0,0,0,.91-2.22C192.83,147.43,192.63,147.08,192.53,147.1Z" style="fill:#263238"></path><path d="M240.26,422.62s3.55,5.29,3.55,9.15-2.31,6.48-5,8.73-9.59,4.38-11.75,7.08c-1.83,2.29-1.87,4.19,0,6.49,0,0,4.39,4.69,15.13-.14s13.71-7.51,19.37-9.48c7-2.44,6.73-4.42,6.73-4.42s-.67-7.34-3.15-10.82c-1.87-2.63-2.36-7.38-2.48-9.58a1.36,1.36,0,0,0-1.25-1.29c-2.59-.22-8.76-.6-12.8.12C247.59,418.64,239.64,420.36,240.26,422.62Z" style="fill:#FF725E"></path><path d="M246.48,459.87a5.8,5.8,0,1,1-7.22-3.9A5.81,5.81,0,0,1,246.48,459.87Z" style="fill:#263238"></path><path d="M243.15,460.75a2.32,2.32,0,1,1-2.89-1.56A2.32,2.32,0,0,1,243.15,460.75Z" style="fill:#e0e0e0"></path><path d="M243.15,460.75s-.12-.18-.32-.47a2.26,2.26,0,0,0-1.15-.86,2.13,2.13,0,0,0-2,.32,2.09,2.09,0,0,0,1.11,3.75,2.16,2.16,0,0,0,1.85-.82,2.29,2.29,0,0,0,.49-1.35c0-.36,0-.56,0-.57s.14.17.19.56a2.33,2.33,0,0,1-.39,1.58,2.52,2.52,0,0,1-2.17,1.08,2.55,2.55,0,0,1-1.38-4.61,2.49,2.49,0,0,1,2.41-.29,2.28,2.28,0,0,1,1.19,1.11C243.17,460.53,243.18,460.74,243.15,460.75Z" style="fill:#455a64"></path><path d="M240.62,462.45c-.14,0-.13-.58.1-1.2s.57-1,.7-1,0,.57-.21,1.15S240.76,462.48,240.62,462.45Z" style="fill:#263238"></path><path d="M242.28,461.92c-.06.13-.67,0-1.37-.32s-1.21-.66-1.15-.79.67,0,1.36.31S242.34,461.79,242.28,461.92Z" style="fill:#263238"></path><path d="M270.24,450.34l-.34-2h0l-1.17-6.9-10,3.83,1.61,4.11-33.22,7.29.8,2.66-1.46,4.84a5.34,5.34,0,0,0,4.1,1.78c3.23-.05,4-1,4-1l-.85-6.49c8.05-1.72,22.11-4.73,25.31-5.52C263.53,451.76,270.24,450.34,270.24,450.34Z" style="fill:#e0e0e0"></path><path d="M270.24,450.34a4.67,4.67,0,0,1-.66.18l-2,.48-7.54,1.79-26.35,5.85.18-.27c.27,2.06.56,4.25.86,6.5V465l-.06.07a4.06,4.06,0,0,1-2.09.93,11,11,0,0,1-2.22.2,5.6,5.6,0,0,1-4.18-1.87l-.08-.09,0-.14c.46-1.54.95-3.19,1.45-4.85v.15l-.44-1.48c-.12-.4-.24-.79-.35-1.18l-.08-.27.27-.06,33.22-7.24-.15.28-1.59-4.11-.07-.18.18-.07,10.06-3.78.16-.06,0,.16c.45,2.83.8,5.06,1.05,6.61.11.74.19,1.32.25,1.75a3.72,3.72,0,0,1,.07.58,6.12,6.12,0,0,1-.14-.61l-.33-1.7c-.27-1.55-.67-3.76-1.17-6.58l.18.1-10,3.89.11-.25c.52,1.31,1.06,2.67,1.62,4.1l.09.23-.24.05-33.2,7.34.19-.33.36,1.18.44,1.48,0,.08,0,.07c-.5,1.66-1,3.31-1.46,4.85l0-.24a5.09,5.09,0,0,0,3.77,1.68,10.59,10.59,0,0,0,2.12-.19,3.9,3.9,0,0,0,1.79-.74l-.05.18c-.29-2.24-.57-4.44-.83-6.49l0-.22.21-.05L260,452.51l7.51-1.62,2-.42.53-.1C270.17,450.34,270.23,450.33,270.24,450.34Z" style="fill:#263238"></path><path d="M238.47,445.17c-.12.08-.64-.56-1.36-1.26s-1.36-1.21-1.29-1.34.89.21,1.65,1S238.6,445.1,238.47,445.17Z" style="fill:#FF725E"></path><path d="M270.51,453.85a5.8,5.8,0,1,1-7.22-3.9A5.81,5.81,0,0,1,270.51,453.85Z" style="fill:#263238"></path><path d="M267.18,454.73a2.32,2.32,0,1,1-2.89-1.56A2.32,2.32,0,0,1,267.18,454.73Z" style="fill:#e0e0e0"></path><path d="M267.18,454.73s-.12-.18-.32-.47a2.31,2.31,0,0,0-1.15-.86,2.16,2.16,0,0,0-2,.32,2.09,2.09,0,0,0,1.11,3.75,2.16,2.16,0,0,0,1.85-.82,2.29,2.29,0,0,0,.49-1.35c0-.35,0-.56,0-.57s.14.18.19.56a2.32,2.32,0,0,1-.39,1.58,2.5,2.5,0,0,1-2.17,1.08,2.55,2.55,0,0,1-1.38-4.61,2.52,2.52,0,0,1,2.41-.29,2.28,2.28,0,0,1,1.19,1.11C267.2,454.51,267.21,454.72,267.18,454.73Z" style="fill:#455a64"></path><path d="M264.65,456.43c-.14,0-.13-.58.1-1.19s.57-1.05.7-1,0,.57-.21,1.15S264.79,456.46,264.65,456.43Z" style="fill:#263238"></path><path d="M266.31,455.9c-.06.13-.67,0-1.37-.32s-1.21-.66-1.15-.79.67,0,1.36.32S266.37,455.77,266.31,455.9Z" style="fill:#263238"></path><path d="M267.86,454.07c-.08,0-.22-.25-.54-.62a3.15,3.15,0,0,0-3.33-1c-.46.13-.74.29-.78.23s.16-.33.65-.57a2.92,2.92,0,0,1,3.76,1.13C267.9,453.71,267.92,454.06,267.86,454.07Z" style="fill:#455a64"></path><path d="M267,451.77c-.07.13-.55,0-1.11-.13s-1.05-.24-1.06-.39.53-.27,1.18-.12S267.11,451.65,267,451.77Z" style="fill:#455a64"></path><path d="M268.31,439.91c-3.46,1.13-7.13,2.06-10.29,3.92s-6.22,3.9-9.55,5.54a70.86,70.86,0,0,1-10.15,4.1c-3.42,1.08-7.71,1.62-11.1,0-1.82-.87-2.89,1.92-1.06,2.8a16,16,0,0,0,11.32.73,67.28,67.28,0,0,0,10.88-4.09,83.85,83.85,0,0,0,10-5.58c3.32-2.14,7-3.16,10.77-4.38,1.91-.63,1.09-3.66-.84-3Z" style="fill:#e0e0e0"></path><path d="M268.31,439.91a1.32,1.32,0,0,1,1,0,1.52,1.52,0,0,1,.86.91,1.77,1.77,0,0,1-.19,1.69,1.8,1.8,0,0,1-.87.6l-1.06.35-2.38.79a38.34,38.34,0,0,0-5.63,2.34c-1,.52-2,1.2-3,1.85s-2.16,1.33-3.33,2a77.89,77.89,0,0,1-7.65,3.81,58.44,58.44,0,0,1-8.92,3.14,16.44,16.44,0,0,1-10.1-.42,8.86,8.86,0,0,1-1.22-.57,1.83,1.83,0,0,1-.82-1.2,1.85,1.85,0,0,1,.29-1.41,1.51,1.51,0,0,1,1.29-.7,1.9,1.9,0,0,1,.71.17l.57.24a9.3,9.3,0,0,0,1.16.39,12,12,0,0,0,2.38.37,23.12,23.12,0,0,0,9.1-1.72,71.67,71.67,0,0,0,7.84-3.29c2.39-1.17,4.52-2.45,6.46-3.63a50.55,50.55,0,0,1,5.36-3,41.37,41.37,0,0,1,4.37-1.58l2.81-.83.73-.21a.94.94,0,0,1,.25,0s-.07,0-.23.1l-.72.26-2.78.93a43.65,43.65,0,0,0-4.31,1.64,51.65,51.65,0,0,0-5.29,3.05c-1.93,1.19-4.06,2.5-6.46,3.7a72.16,72.16,0,0,1-7.87,3.35,23.38,23.38,0,0,1-9.29,1.78,12.64,12.64,0,0,1-2.49-.39,9.15,9.15,0,0,1-1.22-.4l-.58-.25a1.58,1.58,0,0,0-.51-.12,1.21,1.21,0,0,0-1.06,1.5,1.29,1.29,0,0,0,.59.85,8.4,8.4,0,0,0,1.13.52,16,16,0,0,0,9.79.42,59.77,59.77,0,0,0,8.85-3.09,79.83,79.83,0,0,0,7.63-3.74c1.16-.66,2.27-1.31,3.33-2s2-1.31,3.07-1.83a36.13,36.13,0,0,1,5.71-2.29l2.4-.76c.73-.25,1.48-.34,1.84-.83a1.61,1.61,0,0,0,.21-1.51,1.4,1.4,0,0,0-.76-.87A1.92,1.92,0,0,0,268.31,439.91Z" style="fill:#263238"></path><path d="M240.92,443.87c-.12.09-.78-.57-1.63-1.34s-1.57-1.35-1.49-1.48,1,.29,1.84,1.1S241,443.79,240.92,443.87Z" style="fill:#263238"></path><path d="M245.19,439.86c-.11.1-.85-.54-1.9-1.08s-2-.83-1.95-1a3.06,3.06,0,0,1,2.2.51C244.67,438.91,245.29,439.77,245.19,439.86Z" style="fill:#263238"></path><path d="M248,433.44s0,0,0,0,.06,0,.09,0,0,.14-.06.14a.16.16,0,0,1-.14,0c-.13,0-.28-.11-.48-.19a7.78,7.78,0,0,0-1.58-.5c-1.26-.28-2.33-.1-2.37-.25a3.09,3.09,0,0,1,2.48-.26,4.45,4.45,0,0,1,1.65.69,2.69,2.69,0,0,1,.41.35s0,0,0,.06h0v0h0s0,0,0,0S248,433.43,248,433.44Z" style="fill:#263238"></path><path d="M248.2,427.25c0,.15-1.13.11-2.44.42s-2.3.84-2.38.71a3.56,3.56,0,0,1,2.26-1.22A3.66,3.66,0,0,1,248.2,427.25Z" style="fill:#263238"></path><path d="M243.33,427.76a5.2,5.2,0,0,1-2.42.37,8.69,8.69,0,0,1-2.64-.5,8.6,8.6,0,0,1-1.45-.68,1.76,1.76,0,0,1-.71-.62.77.77,0,0,1-.08-.6.87.87,0,0,1,.35-.48,1.7,1.7,0,0,1,1-.25l.83,0a10.27,10.27,0,0,1,1.59.11,5.48,5.48,0,0,1,2.52,1,3.61,3.61,0,0,1,1.18,1.4c.18.4.19.64.16.65a4.78,4.78,0,0,0-1.55-1.74,5.44,5.44,0,0,0-2.38-.8,12.46,12.46,0,0,0-1.52-.06,3.7,3.7,0,0,0-1.48.17c-.16.13-.2.26-.12.41a1.35,1.35,0,0,0,.52.43,7.78,7.78,0,0,0,1.36.67,8.94,8.94,0,0,0,2.49.58C242.4,427.89,243.32,427.67,243.33,427.76Z" style="fill:#263238"></path><path d="M243.57,427.8a11.66,11.66,0,0,1-.73-5.43,6.19,6.19,0,0,1,.48-1.67,2.65,2.65,0,0,1,.55-.81,1.14,1.14,0,0,1,1.09-.31,1.3,1.3,0,0,1,.8.77,2.44,2.44,0,0,1,.13,1c0,.6-.1,1.15-.18,1.69a14.53,14.53,0,0,1-.7,2.79,5.86,5.86,0,0,1-1.3,2.3c-.07-.05.48-.89.95-2.42a16.58,16.58,0,0,0,.57-2.74c.07-.52.12-1.08.15-1.64s-.14-1.1-.57-1.23-.82.35-1,.83a6,6,0,0,0-.48,1.54,9.94,9.94,0,0,0-.05,2.76A19.83,19.83,0,0,1,243.57,427.8Z" style="fill:#263238"></path><path d="M264.83,428.77c0,.08-1,.42-2.51,1.38a13,13,0,0,0-4.52,5,13.14,13.14,0,0,0-1.31,6.63c.12,1.76.5,2.81.41,2.84a2,2,0,0,1-.32-.72,9.91,9.91,0,0,1-.45-2.08,12.23,12.23,0,0,1,6-12,10.57,10.57,0,0,1,1.94-.9A2.18,2.18,0,0,1,264.83,428.77Z" style="fill:#263238"></path><path d="M341.45,364.34s6.52-1.79,10.2-1.1,5.79,3.37,7.45,6.32,2.47,9.94,4.65,12.49c1.86,2.16,3.68,2.54,6.21,1.16,0,0,5.26-3.34,2.57-14.47s-4.7-14.44-5.58-20.2c-1.07-7.09-3-7.22-3-7.22s-7.13-.67-10.9,1.07-12.09-.33-12.09-.33-1.1,9-1.14,14.19C339.8,357.27,339.17,364.52,341.45,364.34Z" style="fill:#FF725E"></path><path d="M379,365.74a5.64,5.64,0,1,1-5,6.19A5.64,5.64,0,0,1,379,365.74Z" style="fill:#263238"></path><path d="M379.21,369.07a2.26,2.26,0,1,1-2,2.48A2.26,2.26,0,0,1,379.21,369.07Z" style="fill:#e0e0e0"></path><path d="M379.21,369.07s-.19.08-.5.22a2.25,2.25,0,0,0-1,.95,2.08,2.08,0,0,0,0,1.95,2,2,0,0,0,3.76-.39,2.08,2.08,0,0,0-.44-1.9,2.37,2.37,0,0,0-1.2-.72c-.34-.07-.54-.07-.55-.11s.2-.11.57-.09a2.24,2.24,0,0,1,1.44.66,2.43,2.43,0,0,1,.65,2.27,2.48,2.48,0,0,1-4.66.49,2.4,2.4,0,0,1,.16-2.35,2.23,2.23,0,0,1,1.27-.95C379,369,379.21,369,379.21,369.07Z" style="fill:#455a64"></path><path d="M380.38,371.79c-.06.13-.58,0-1.12-.3s-.89-.74-.81-.85.55.09,1.07.4S380.44,371.66,380.38,371.79Z" style="fill:#263238"></path><path d="M380.17,370.11c.12.08-.12.64-.54,1.25s-.85,1-1,1,.13-.64.54-1.25S380.06,370,380.17,370.11Z" style="fill:#263238"></path><path d="M381.63,378.07l-6.36-.36c-.19-8-.55-22-.72-25.16-.26-4.55-.42-11.22-.42-11.22l-2,0-6.76-.12,1.86,10.28,4.23,0,1,32.26,2.68-.28,4.36,2.25a5.17,5.17,0,0,0,2.44-3.59C382.44,379,381.63,378.07,381.63,378.07Z" style="fill:#e0e0e0"></path><path d="M381.63,378.07a3.12,3.12,0,0,1,.53,2.15,9.86,9.86,0,0,1-.36,2.68,5.24,5.24,0,0,1-2.26,2.87l-.06,0-.07,0L375,383.55h.09l-2.67.3-.2,0v-.2c-.28-8.36-.65-19.61-1.06-32.25l.26.25-4.23,0H367l0-.22c-.27-1.45-.55-3-.83-4.58l-1-5.69,0-.31h.31l8.79.17h.23v.24c.14,4,.28,7.83.4,11.43s.18,7,.27,10.08c.14,6.18.26,11.26.34,14.87l-.11-.11,4.75.33,1.2.09a2,2,0,0,1,.4.06h-.42L380,378l-4.71-.21h-.11v-.11c-.13-3.61-.3-8.69-.52-14.86-.1-3.11-.21-6.48-.32-10.08s-.29-7.43-.44-11.43l.25.24-8.78-.15.25-.31q.51,2.82,1,5.7c.28,1.57.57,3.12.83,4.58l-.26-.21,4.23,0h.26v.25c.36,12.64.67,23.89.91,32.25l-.2-.17,2.68-.27h.05l0,0,4.36,2.28h-.13a5.06,5.06,0,0,0,2.19-2.7,9.48,9.48,0,0,0,.41-2.61,5.19,5.19,0,0,0-.17-1.63A2.4,2.4,0,0,0,381.63,378.07Z" style="fill:#263238"></path><path d="M363.5,370.74c.05.14-.65.52-1.45,1.08s-1.4,1.09-1.51,1,.36-.82,1.21-1.41S363.45,370.61,363.5,370.74Z" style="fill:#FF725E"></path><path d="M377.54,341.71a5.64,5.64,0,1,1-5,6.19A5.63,5.63,0,0,1,377.54,341.71Z" style="fill:#263238"></path><path d="M377.78,345a2.26,2.26,0,1,1-2,2.48A2.26,2.26,0,0,1,377.78,345Z" style="fill:#e0e0e0"></path><path d="M377.78,345s-.2.08-.51.22a2.3,2.3,0,0,0-1,.95,2,2,0,1,0,3.72,1.56,2.08,2.08,0,0,0-.45-1.9,2.3,2.3,0,0,0-1.2-.72c-.34-.07-.54-.07-.54-.11s.19-.1.57-.09a2.27,2.27,0,0,1,1.44.66,2.46,2.46,0,0,1,.64,2.28,2.48,2.48,0,0,1-4.66.48,2.4,2.4,0,0,1,.16-2.35,2.29,2.29,0,0,1,1.27-.95C377.57,345,377.78,345,377.78,345Z" style="fill:#455a64"></path><path d="M379,347.76c-.06.13-.58,0-1.13-.3s-.89-.74-.8-.85.55.09,1.07.4S379,347.63,379,347.76Z" style="fill:#263238"></path><path d="M378.74,346.08c.12.08-.13.64-.54,1.25s-.86,1-1,1,.12-.64.54-1.25S378.62,346,378.74,346.08Z" style="fill:#263238"></path><path d="M377.27,344.27c0,.08-.28.17-.69.41a3.07,3.07,0,0,0-1.55,3c0,.47.14.76.07.8s-.28-.22-.43-.73a2.92,2.92,0,0,1,.22-2,2.88,2.88,0,0,1,1.54-1.36C376.93,344.17,377.27,344.21,377.27,344.27Z" style="fill:#455a64"></path><path d="M374.93,344.65c.11.09-.1.52-.32,1s-.42.95-.57.93-.17-.56.09-1.15S374.82,344.55,374.93,344.65Z" style="fill:#455a64"></path><path d="M363.83,341.3c.46,3.51.68,7.18,1.9,10.53s2.6,6.65,3.58,10.11a71.33,71.33,0,0,1,2.09,10.43c.42,3.46.16,7.66-2,10.61-1.16,1.57,1.31,3.1,2.48,1.51a15.54,15.54,0,0,0,2.73-10.68,65.55,65.55,0,0,0-1.95-11.12,81.45,81.45,0,0,0-3.54-10.57c-1.44-3.56-1.75-7.3-2.25-11.08-.25-1.94-3.3-1.7-3,.26Z" style="fill:#e0e0e0"></path><path d="M363.83,341.3a1.3,1.3,0,0,1,.14-1,1.45,1.45,0,0,1,1-.66,1.62,1.62,0,0,1,2,1.43c.05.34.1.69.15,1.07l.33,2.42a35.75,35.75,0,0,0,1.23,5.79c.31,1.05.78,2.1,1.22,3.23s.88,2.3,1.3,3.53a74.52,74.52,0,0,1,2.27,8,59.26,59.26,0,0,1,1.4,9.08,16,16,0,0,1-2.22,9.58,8,8,0,0,1-.76,1.06,1.77,1.77,0,0,1-1.3.58,1.85,1.85,0,0,1-1.3-.54,1.49,1.49,0,0,1-.44-1.36,2,2,0,0,1,.29-.65l.34-.5a10.5,10.5,0,0,0,.57-1,11.64,11.64,0,0,0,.79-2.21,22.3,22.3,0,0,0,0-9,70.24,70.24,0,0,0-1.73-8.08c-.69-2.49-1.53-4.75-2.3-6.82a45.34,45.34,0,0,1-1.9-5.66,38,38,0,0,1-.72-4.45c-.13-1.2-.22-2.14-.29-2.83,0-.3,0-.54-.07-.74a.78.78,0,0,1,0-.25.81.81,0,0,1,.06.24c0,.2.06.44.11.73.1.69.22,1.63.39,2.82a41,41,0,0,0,.8,4.41,49.49,49.49,0,0,0,2,5.6c.79,2.06,1.66,4.33,2.38,6.84a70.06,70.06,0,0,1,1.79,8.11,23,23,0,0,1,0,9.2,11.8,11.8,0,0,1-.82,2.31,10.62,10.62,0,0,1-.6,1.09l-.34.51a1.46,1.46,0,0,0-.21.46,1.18,1.18,0,0,0,1.23,1.28,1.25,1.25,0,0,0,.92-.41,7.56,7.56,0,0,0,.7-1,15.46,15.46,0,0,0,2.15-9.27,57.44,57.44,0,0,0-1.36-9,73.53,73.53,0,0,0-2.21-8c-.41-1.23-.84-2.4-1.27-3.53s-.88-2.19-1.2-3.26a36.48,36.48,0,0,1-1.16-5.87c-.1-.86-.2-1.67-.29-2.42s-.06-1.48-.46-1.91a1.59,1.59,0,0,0-1.41-.47,1.36,1.36,0,0,0-1,.56A1.89,1.89,0,0,0,363.83,341.3Z" style="fill:#263238"></path><path d="M362.69,368.17c.07.13-.68.65-1.56,1.32s-1.58,1.26-1.69,1.16.45-.87,1.37-1.57S362.63,368.05,362.69,368.17Z" style="fill:#263238"></path><path d="M359.63,363.38c.08.12-.66.72-1.37,1.62s-1.14,1.74-1.28,1.68.09-1,.87-2S359.56,363.26,359.63,363.38Z" style="fill:#263238"></path><path d="M354,359.53s0,0,0,0,0-.06,0-.08.14,0,.13.08a.29.29,0,0,1,0,.14,5,5,0,0,1-.28.42,8.61,8.61,0,0,0-.76,1.42c-.49,1.15-.5,2.2-.66,2.21a3,3,0,0,1,.18-2.41,4.24,4.24,0,0,1,1-1.45,2.24,2.24,0,0,1,.41-.33s0,0,.06,0h0v0S354,359.5,354,359.53Z" style="fill:#263238"></path><path d="M348.13,358.23a22.26,22.26,0,0,1,0,2.42c0,1.3.38,2.34.24,2.39a3.39,3.39,0,0,1-.76-2.37A3.58,3.58,0,0,1,348.13,358.23Z" style="fill:#263238"></path><path d="M347.74,363a5,5,0,0,1-.07,2.39,8.26,8.26,0,0,1-1.86,3.69,1.73,1.73,0,0,1-.73.57.72.72,0,0,1-.59,0,.86.86,0,0,1-.4-.42,1.71,1.71,0,0,1-.07-1c.05-.26.09-.53.14-.79a9.68,9.68,0,0,1,.38-1.5,5.23,5.23,0,0,1,1.38-2.24,2.67,2.67,0,0,1,2.2-.91,4.76,4.76,0,0,0-1.94,1.17,5.35,5.35,0,0,0-1.19,2.13,13.89,13.89,0,0,0-.33,1.44,3.51,3.51,0,0,0-.1,1.44c.09.18.21.23.36.18a1.39,1.39,0,0,0,.51-.41,8.51,8.51,0,0,0,.87-1.18,9,9,0,0,0,1-2.27C347.69,363.89,347.65,363,347.74,363Z" style="fill:#263238"></path><path d="M347.83,362.75a8.45,8.45,0,0,1-2.55.2,9.14,9.14,0,0,1-2.78-.46,6.34,6.34,0,0,1-1.51-.77,2.54,2.54,0,0,1-.68-.67,1.15,1.15,0,0,1-.1-1.1,1.29,1.29,0,0,1,.89-.63,2.52,2.52,0,0,1,1,.05c.57.15,1.08.31,1.58.48a13.8,13.8,0,0,1,2.54,1.17,5.6,5.6,0,0,1,2,1.65c-.06.07-.76-.61-2.14-1.33a16.2,16.2,0,0,0-2.51-1c-.48-.16-1-.31-1.54-.44a1.09,1.09,0,0,0-1.27.32c-.19.35.19.83.61,1.12a6.26,6.26,0,0,0,1.37.73,9.69,9.69,0,0,0,2.64.54A22.91,22.91,0,0,1,347.83,362.75Z" style="fill:#263238"></path><path d="M352.56,342.63c.09,0,.22,1.06.87,2.64a12.37,12.37,0,0,0,10.1,7.65c1.7.21,2.77,0,2.78.13a2,2,0,0,1-.74.18,10.05,10.05,0,0,1-2.08.06,11.9,11.9,0,0,1-10.4-7.88,10,10,0,0,1-.5-2A1.86,1.86,0,0,1,352.56,342.63Z" style="fill:#263238"></path><path d="M182.1,176.49A17.23,17.23,0,0,0,178.8,190c1.29,8.32,5.75,38.41,5.75,38.41l-17.5,53.47,16.51,7s18.77-38.82,21.61-50.7c2.05-8.62,1.12-28.39.46-38.58-.25-3.84-.46-6.32-.46-6.32S188.62,174.68,182.1,176.49Z" style="fill:#455a64"></path><path d="M270.81,250.57c-5.42-5.39-20.23-22.11-25-26.55,0,0-2.81-30.57-4.53-44.69-1.75-14.45-25.95-22.77-25.95-22.77l-3.28,6.62L207,165.45l-7.65,2-15.14,6.16-2.1,2.9,4.64,1.31,6.53,26.11,8,41.93,15.23,33.24a4.41,4.41,0,0,0,5.59,2.48,182.71,182.71,0,0,0,25.69-12.17c7.89-4.68,16.08-8.27,20.41-11.68C270.71,255.74,272.38,252.13,270.81,250.57Z" style="fill:#455a64"></path><path d="M237.46,167.72s26.52,33.37,29.35,40.75,1.9,39.93,1.9,39.93l-15.55-15.14-1.82-16.83L236.6,202.2l.86-35.41" style="fill:#455a64"></path><path d="M183.56,288.82a.84.84,0,0,1,.09-.25l.3-.73,1.23-2.77,4.57-10.17c3.84-8.6,9.25-20.44,14.73-33.71.66-1.67,1.34-3.31,1.91-4.95l.43-1.23c.14-.41.22-.82.33-1.22a4.32,4.32,0,0,0,.17-1.24,8.8,8.8,0,0,0,0-1.26c-.06-3.37-.35-6.63-.62-9.72-.56-6.2-1.19-11.77-1.72-16.45s-1-8.42-1.28-11.08c-.14-1.27-.26-2.28-.34-3,0-.32,0-.58-.07-.79a.82.82,0,0,1,0-.27,1,1,0,0,1,.06.27c0,.2.07.46.13.78.1.72.25,1.72.43,3,.37,2.6.87,6.38,1.45,11.06s1.24,10.24,1.83,16.44c.29,3.11.58,6.36.65,9.77a9.3,9.3,0,0,1,0,1.29,4.86,4.86,0,0,1-.17,1.31c-.12.42-.21.86-.35,1.28l-.43,1.24c-.58,1.66-1.25,3.3-1.92,5-5.48,13.29-11,25.1-14.87,33.66l-4.72,10.1-1.32,2.74c-.14.28-.26.52-.36.7S183.57,288.83,183.56,288.82Z" style="fill:#263238"></path><path d="M270.81,250.57a5,5,0,0,1-.6-.53c-.4-.41-.94-.94-1.62-1.62l-5.86-6-8.6-9-5-5.37-2.63-2.87-.66-.75a4.91,4.91,0,0,1-.33-.41.79.79,0,0,1-.26-.48,7.71,7.71,0,0,1-.17-1.06l-.11-1c-1-10.8-1.61-20.58-2.09-27.66-.21-3.5-.38-6.35-.5-8.39-.05-.95-.08-1.71-.11-2.28a4.08,4.08,0,0,1,0-.8,5,5,0,0,1,.11.79c0,.57.12,1.33.2,2.28.16,2,.39,4.88.67,8.37.57,7.08,1.24,16.86,2.23,27.64l.12,1a9.25,9.25,0,0,0,.13.92,6.64,6.64,0,0,0,1.15,1.49l2.63,2.87,5,5.39,8.52,9.1,5.74,6.13,1.55,1.68A5.94,5.94,0,0,1,270.81,250.57Z" style="fill:#263238"></path><path d="M244,165.92c-.38-5.28-8.33-6.81-14.15-7.65s-11-1.86-16.8-3l.17.77c.73,4.46-1.36,7.21-5,9.53s-9.53,1.58-13.79,2.25a14.39,14.39,0,0,0-10.21,5.79,68.56,68.56,0,0,1,21.18,8.34c5.23,3.16,10.11,7,15.87,9.1s12.88,1.85,17.18-2.49c2.95-3,4-7.31,5-11.41A39,39,0,0,0,244,165.92Z" style="fill:#455a64"></path><path d="M242,162.18a1.51,1.51,0,0,1,.19.14c.11.1.3.23.51.44a5.86,5.86,0,0,1,1.25,2.3c.69,2.21.57,5.56,0,9.56-.13,1-.27,2-.42,3.14a21.38,21.38,0,0,1-.65,3.4,17.67,17.67,0,0,1-1.39,3.45,16.48,16.48,0,0,1-2.15,3.32,9.84,9.84,0,0,1-3.38,2.45,12.39,12.39,0,0,1-4.25.92,15.23,15.23,0,0,1-8.65-2.5,50.65,50.65,0,0,1-7.12-5.56c-2.17-1.94-4.23-3.84-6.34-5.46-4.32-3.06-8.38-5.79-12.27-6.8a14.21,14.21,0,0,0-5.34-.45,6.8,6.8,0,0,0-1.14.17,10.05,10.05,0,0,0-1,.21c-.65.21-1.27.34-1.78.56l-1.39.56-1,.49-.61.3-.21.08.19-.13.58-.34,1-.54,1.38-.61c.52-.24,1.14-.39,1.79-.61a10.34,10.34,0,0,1,1.06-.24,8.36,8.36,0,0,1,1.15-.19,14.35,14.35,0,0,1,5.47.38c4,1,8.1,3.71,12.47,6.78,2.15,1.62,4.22,3.53,6.39,5.46a51.05,51.05,0,0,0,7.05,5.5,14.85,14.85,0,0,0,8.36,2.43,11.93,11.93,0,0,0,4.07-.87,9.18,9.18,0,0,0,3.22-2.31,15.83,15.83,0,0,0,2.1-3.21,17.13,17.13,0,0,0,1.38-3.36,21.35,21.35,0,0,0,.67-3.33c.16-1.09.31-2.14.46-3.14.61-4,.78-7.28.17-9.46a6.56,6.56,0,0,0-1.13-2.28A6.88,6.88,0,0,1,242,162.18Z" style="fill:#263238"></path><path d="M213.21,155.68a5.06,5.06,0,0,1,.85.19l2.4.62,8.8,2.39,6.07,1.68a20.13,20.13,0,0,1,3.36,1.13,5.46,5.46,0,0,1,2.8,2.57,4.76,4.76,0,0,1-.14,4,6.51,6.51,0,0,1-2.93,3,12.61,12.61,0,0,1-4.09,1.29,24.49,24.49,0,0,1-4.38.29c-6-.18-11.35-2-16.25-3.33s-9.45-2.12-13.27-1.75a18.46,18.46,0,0,0-8.53,2.74,20,20,0,0,0-2.6,2.07,6.18,6.18,0,0,1,.57-.65,13.24,13.24,0,0,1,1.91-1.59,18.2,18.2,0,0,1,8.61-2.93c3.89-.43,8.52.32,13.43,1.64s10.29,3.11,16.14,3.28a24.42,24.42,0,0,0,4.29-.28,12.34,12.34,0,0,0,3.93-1.22A6.09,6.09,0,0,0,236.9,168a4.36,4.36,0,0,0,.16-3.58,5.07,5.07,0,0,0-2.56-2.36,21.58,21.58,0,0,0-3.28-1.13l-6.06-1.73-8.76-2.55L214,156A5,5,0,0,1,213.21,155.68Z" style="fill:#263238"></path><g style="opacity:0.30000000000000004"><path d="M200,167.5a36,36,0,0,1,11.62,2.17,66.67,66.67,0,0,0,11.47,3c3.92.5,8.11.09,11.46-2,2-1.24,3.7-3.53,3-5.75-.59-1.85-2.59-2.8-4.4-3.5a119.21,119.21,0,0,0-20-5.77,7.83,7.83,0,0,1-2.9,8.32c-3.09,2.2-6.86,2-10.36,3.49"></path></g><g style="opacity:0.30000000000000004"><path d="M210.28,178.42l-.64-.49Z"></path></g><g style="opacity:0.30000000000000004"><path d="M231.2,191.34c-3.95.1-7.41-2.44-10.53-4.86l-10.39-8.06c6.1,5,7.38,13,14.66,17.79,2.46,1.62,5.51,2.73,8.37,2a9.63,9.63,0,0,0,5.9-5.4,26.85,26.85,0,0,0,1.93-8C238.83,188.22,235.32,191.23,231.2,191.34Z"></path></g><g style="opacity:0.30000000000000004"><path d="M208.72,177.26c.32.21.62.44.92.67l-.4-.31Z"></path></g><path d="M203.47,250.57s8.51-13.13,7.87-19.17-7.49-37.2-7.49-37.2,4.6,36.07,3.68,39.15-5.38,14.33-5.38,14.33Z" style="opacity:0.30000000000000004"></path><path d="M269.15,249.32a3.43,3.43,0,0,1-.48.37l-1.43,1c-1.25.83-3.08,2-5.36,3.45-4.54,2.87-10.9,6.72-18.06,10.74s-13.75,7.44-18.57,9.83c-2.41,1.2-4.36,2.15-5.73,2.78l-1.57.72a3.28,3.28,0,0,1-.57.22,2.18,2.18,0,0,1,.52-.32l1.53-.8,5.66-2.92c4.77-2.48,11.33-5.95,18.48-10s13.53-7.81,18.12-10.59c2.25-1.37,4.09-2.5,5.44-3.31l1.48-.89A2.41,2.41,0,0,1,269.15,249.32Z" style="fill:#263238"></path><path d="M236.4,275.19a5.08,5.08,0,0,1-4.18-4.11,26.15,26.15,0,0,0,1.8,2.35A25,25,0,0,0,236.4,275.19Z" style="fill:#263238"></path><path d="M245.11,270.5a9.44,9.44,0,0,1-2-2.41,9.31,9.31,0,0,1-1.56-2.71,9.59,9.59,0,0,1,2,2.41A9.7,9.7,0,0,1,245.11,270.5Z" style="fill:#263238"></path><path d="M254.47,266.11a27,27,0,0,1-1.2-3.3,26.74,26.74,0,0,1-1.23-3.3,11.8,11.8,0,0,1,2.43,6.6Z" style="fill:#263238"></path><path d="M263.62,259.5c-.15,0-.32-1.26-.88-2.71s-1.25-2.53-1.13-2.62a4.79,4.79,0,0,1,1.62,2.43A4.69,4.69,0,0,1,263.62,259.5Z" style="fill:#263238"></path><path d="M227.42,280.36a2.26,2.26,0,0,1-1.25.11,6.54,6.54,0,0,1-2.88-1,6.68,6.68,0,0,1-2.17-2.13,2.35,2.35,0,0,1-.46-1.17,12.52,12.52,0,0,0,2.9,2.86A12.27,12.27,0,0,0,227.42,280.36Z" style="fill:#263238"></path><path d="M201.59,183.88c-.07.05-.73-1-2.16-2.41a16.07,16.07,0,0,0-14.27-4.33c-2,.36-3.1.88-3.14.79a2.72,2.72,0,0,1,.78-.42,14,14,0,0,1,2.29-.74,15.37,15.37,0,0,1,14.6,4.44,12.39,12.39,0,0,1,1.49,1.89A2.31,2.31,0,0,1,201.59,183.88Z" style="fill:#263238"></path><path d="M186,283.73a14.73,14.73,0,0,1-2.55-1l-6.05-2.6-6.07-2.55a17.67,17.67,0,0,1-2.49-1.13,12.93,12.93,0,0,1,2.62.79c1.6.56,3.78,1.4,6.15,2.41s4.49,2,6,2.75A13.5,13.5,0,0,1,186,283.73Z" style="fill:#263238"></path><path d="M181.85,281.44a9.42,9.42,0,0,1-1.11,3,9.86,9.86,0,0,1-1.58,2.78,19.5,19.5,0,0,1,2.69-5.77Z" style="fill:#263238"></path><path d="M176.16,279.72a15.91,15.91,0,0,1-1.88,5.35,15.36,15.36,0,0,1,1.88-5.35Z" style="fill:#263238"></path><path d="M171.43,277.22a8.68,8.68,0,0,1-.6,2.93,8.91,8.91,0,0,1-1.09,2.79,8.84,8.84,0,0,1,.59-2.94A8.66,8.66,0,0,1,171.43,277.22Z" style="fill:#263238"></path></g><g id="freepik--speech-bubble--inject-155"><path d="M259.9,135.43a24.27,24.27,0,1,1,5,5.29l-7.44,1.56Z" style="fill:#fff"></path><path d="M259.9,135.43s-.07.15-.19.45-.28.76-.5,1.31c-.43,1.18-1.06,2.87-1.86,5.05l-.07.18.19,0,7.45-1.52-.12,0a24.29,24.29,0,0,0,11.39,5,24.91,24.91,0,0,0,3.62.29,27.52,27.52,0,0,0,3.79-.31,23.49,23.49,0,0,0,7.68-2.49A24.55,24.55,0,0,0,302,110.9a24.24,24.24,0,0,0-11.3-11.35,23.06,23.06,0,0,0-7.38-2.25,23.8,23.8,0,0,0-7.4.09l-.9.14c-.29.06-.58.15-.87.22-.58.16-1.16.28-1.72.46a26.17,26.17,0,0,0-3.22,1.32,27,27,0,0,0-2.94,1.67c-.46.32-.89.66-1.33,1l-.65.49-.6.55a25.1,25.1,0,0,0-4.1,4.65,24.82,24.82,0,0,0-4.11,14.76,24,24,0,0,0,1.48,7.25,23.45,23.45,0,0,0,2.05,4.2c.29.46.51.79.67,1a2.49,2.49,0,0,0,.26.33,2.17,2.17,0,0,0-.21-.35c-.15-.23-.36-.59-.63-1a25.64,25.64,0,0,1-1.95-4.22,24.66,24.66,0,0,1-1.38-7.19,25.25,25.25,0,0,1,1.58-9.52,23.27,23.27,0,0,1,6.63-9.56l.59-.53.64-.48c.43-.32.86-.66,1.3-1a28.13,28.13,0,0,1,2.9-1.63,24.69,24.69,0,0,1,3.17-1.28c.55-.18,1.12-.3,1.68-.45.29-.07.57-.15.86-.21l.87-.13a23.22,23.22,0,0,1,7.26-.08,22.67,22.67,0,0,1,7.23,2.22,23.72,23.72,0,0,1,11.05,11.12,24.08,24.08,0,0,1-10.42,31.75,23.44,23.44,0,0,1-7.54,2.48,28,28,0,0,1-3.72.32A24.35,24.35,0,0,1,265,140.6l-.05,0-.07,0-7.43,1.6.12.14q1.15-3.31,1.77-5.12l.45-1.31A4.25,4.25,0,0,0,259.9,135.43Z" style="fill:#263238"></path><path d="M269.32,120a6.53,6.53,0,0,1,1.53-3.62,6.33,6.33,0,0,1,3.2-2.16,5.1,5.1,0,0,1,5.71,2.39,5.13,5.13,0,0,1,1.44-1.7,5.18,5.18,0,0,1,3.94-.94,6.25,6.25,0,0,1,3.37,1.88,6.62,6.62,0,0,1,1.83,3.49,8,8,0,0,1-.8,5,11.14,11.14,0,0,1-3.74,3.8c-2.47,1.64-5.74,3.69-5.74,3.69s-2.91-2-5.52-3.43a11.29,11.29,0,0,1-4-3.48A7.93,7.93,0,0,1,269.32,120Z" style="fill:#FF725E"></path></g></svg>