<svg xmlns="http://www.w3.org/2000/svg" viewBox="0 0 500 500"><g id="freepik--City--inject-132"><path id="freepik--city--inject-132" d="M481.84,146.74,467,138.16v-26.8s-16.45-9.19-16.75-9.19-16.74,9.19-16.74,9.19v7.46l-16.75-9.67L400,118.82v9.74l-16.75,9.67v-49l-8.37-4.83-8.37,4.83v19.34l-8.38-4.83-16.75,9.67V98.65L333,93.82l-16.75,9.66v24.4l-8.37-4.83v-9.67l-16.75-9.67-16.75,9.67V103.7L249.24,89.2,232.5,98.87V79.53l-16.75-9.67L199,79.53v26.88l-8.37,4.83V91.9l-16.75-9.67L157.13,91.9v29L132,106.41V87.07L115.26,77.4,98.52,87.07v29l-8.38-4.84L73.4,120.91v11.8l-16.75,9.67v-18L39.9,114.7,18.1,127.29v179H481.84Z" style="fill:#f5f5f5"></path></g><g id="freepik--Streetlights--inject-132"><g id="freepik--street-light--inject-132"><path d="M459.83,306.25a1.09,1.09,0,0,1-1.23-1.05V57.6a14.53,14.53,0,0,0-6.47-11.2L433.37,35.54c-1.49-.86-2.84-1-3.78-.49s-1.46,1.79-1.46,3.52V61.06a1.23,1.23,0,1,1-2.45,0V38.57c0-2.64,1-4.65,2.69-5.65s3.94-.82,6.23.5l18.76,10.86a16.77,16.77,0,0,1,7.69,13.32V305.2A1.08,1.08,0,0,1,459.83,306.25Z"></path><path d="M431,55.82a9.79,9.79,0,0,0-8.85,0,3.12,3.12,0,0,0-1.83,2.56v1.8a3.12,3.12,0,0,0,1.83,2.56,9.79,9.79,0,0,0,8.85,0,3.11,3.11,0,0,0,1.84-2.56v-1.8A3.11,3.11,0,0,0,431,55.82Z" style="fill:#455a64"></path><path d="M431,57.63c2.45,1.41,2.45,3.7,0,5.11a9.79,9.79,0,0,1-8.85,0c-2.44-1.41-2.44-3.7,0-5.11A9.79,9.79,0,0,1,431,57.63Z" style="fill:#37474f"></path><path d="M432.63,75H420.44V60.8a3,3,0,0,1,1.79-2.49,9.49,9.49,0,0,1,8.62,0,3,3,0,0,1,1.78,2.49h0Z" style="fill:#BA68C8"></path><path d="M432.63,75H420.44V60.8a3,3,0,0,1,1.79-2.49,9.49,9.49,0,0,1,8.62,0,3,3,0,0,1,1.78,2.49h0Z" style="fill:#fff;opacity:0.7000000000000001"></path><path d="M422.23,77.49c-2.38-1.38-2.38-3.61,0-5a9.49,9.49,0,0,1,8.62,0c2.38,1.37,2.38,3.6,0,5A9.55,9.55,0,0,1,422.23,77.49Z" style="fill:#BA68C8"></path><path d="M422.23,77.49c-2.38-1.38-2.38-3.61,0-5a9.49,9.49,0,0,1,8.62,0c2.38,1.37,2.38,3.6,0,5A9.55,9.55,0,0,1,422.23,77.49Z" style="fill:#fff;opacity:0.5"></path><path d="M430.2,62.85a3.66,3.66,0,1,0-3.66,3.66A3.66,3.66,0,0,0,430.2,62.85Z" style="fill:#fff;opacity:0.2"></path><path d="M432.63,67.21a7.49,7.49,0,0,1-12.19,0V60.8a3,3,0,0,1,1.79-2.49,9.49,9.49,0,0,1,8.62,0,3,3,0,0,1,1.78,2.49Z" style="fill:#fff;opacity:0.2"></path><path d="M428.24,62.85a1.7,1.7,0,1,0-1.7,1.7A1.71,1.71,0,0,0,428.24,62.85Z" style="fill:#fff;opacity:0.4"></path><path d="M431,71.91a9.79,9.79,0,0,0-8.85,0,3.1,3.1,0,0,0-1.83,2.55v1.81a3.1,3.1,0,0,0,1.83,2.55,9.73,9.73,0,0,0,8.85,0,3.1,3.1,0,0,0,1.84-2.55V74.46A3.1,3.1,0,0,0,431,71.91Z" style="fill:#455a64"></path><path d="M431,73.72c2.45,1.41,2.45,3.69,0,5.1a9.73,9.73,0,0,1-8.85,0c-2.44-1.41-2.44-3.69,0-5.1A9.73,9.73,0,0,1,431,73.72Z" style="fill:#37474f"></path></g><g id="freepik--street-light--inject-132"><path d="M40.17,306.25a1.09,1.09,0,0,0,1.23-1.05V57.6a14.53,14.53,0,0,1,6.47-11.2L66.63,35.54c1.49-.86,2.84-1,3.78-.49s1.46,1.79,1.46,3.52V61.06a1.23,1.23,0,1,0,2.45,0V38.57c0-2.64-1-4.65-2.69-5.65s-3.94-.82-6.23.5L46.64,44.28A16.77,16.77,0,0,0,39,57.6V305.2A1.08,1.08,0,0,0,40.17,306.25Z"></path><path d="M69,55.82a9.79,9.79,0,0,1,8.85,0,3.12,3.12,0,0,1,1.83,2.56v1.8a3.12,3.12,0,0,1-1.83,2.56,9.79,9.79,0,0,1-8.85,0,3.11,3.11,0,0,1-1.84-2.56v-1.8A3.11,3.11,0,0,1,69,55.82Z" style="fill:#455a64"></path><path d="M69,57.63c-2.45,1.41-2.45,3.7,0,5.11a9.79,9.79,0,0,0,8.85,0c2.44-1.41,2.44-3.7,0-5.11A9.79,9.79,0,0,0,69,57.63Z" style="fill:#37474f"></path><path d="M67.37,75H79.56V60.8a3,3,0,0,0-1.79-2.49,9.49,9.49,0,0,0-8.62,0,3,3,0,0,0-1.78,2.49h0Z" style="fill:#BA68C8"></path><path d="M67.37,75H79.56V60.8a3,3,0,0,0-1.79-2.49,9.49,9.49,0,0,0-8.62,0,3,3,0,0,0-1.78,2.49h0Z" style="fill:#fff;opacity:0.7000000000000001"></path><path d="M77.77,77.49c2.38-1.38,2.38-3.61,0-5a9.49,9.49,0,0,0-8.62,0c-2.38,1.37-2.38,3.6,0,5A9.55,9.55,0,0,0,77.77,77.49Z" style="fill:#BA68C8"></path><path d="M77.77,77.49c2.38-1.38,2.38-3.61,0-5a9.49,9.49,0,0,0-8.62,0c-2.38,1.37-2.38,3.6,0,5A9.55,9.55,0,0,0,77.77,77.49Z" style="fill:#fff;opacity:0.5"></path><path d="M69.8,62.85a3.66,3.66,0,1,1,3.66,3.66A3.66,3.66,0,0,1,69.8,62.85Z" style="fill:#fff;opacity:0.2"></path><path d="M67.37,67.21a7.49,7.49,0,0,0,12.19,0V60.8a3,3,0,0,0-1.79-2.49,9.49,9.49,0,0,0-8.62,0,3,3,0,0,0-1.78,2.49Z" style="fill:#fff;opacity:0.2"></path><path d="M71.76,62.85a1.7,1.7,0,1,1,1.7,1.7A1.71,1.71,0,0,1,71.76,62.85Z" style="fill:#fff;opacity:0.4"></path><path d="M69,71.91a9.79,9.79,0,0,1,8.85,0,3.1,3.1,0,0,1,1.83,2.55v1.81a3.1,3.1,0,0,1-1.83,2.55,9.73,9.73,0,0,1-8.85,0,3.1,3.1,0,0,1-1.84-2.55V74.46A3.1,3.1,0,0,1,69,71.91Z" style="fill:#455a64"></path><path d="M69,73.72c-2.45,1.41-2.45,3.69,0,5.1a9.73,9.73,0,0,0,8.85,0c2.44-1.41,2.44-3.69,0-5.1A9.73,9.73,0,0,0,69,73.72Z" style="fill:#37474f"></path></g></g><g id="freepik--Shrubbery--inject-132"><g id="freepik--shrubbery--inject-132"><path d="M16.81,301.4a3.56,3.56,0,0,0-.41.3.61.61,0,0,1,.16-.12Z" style="fill:#BA68C8"></path><path d="M11.49,295.77a7.25,7.25,0,0,0,.2,1.25,1.82,1.82,0,0,0,.07.25,4.19,4.19,0,0,0,.22.59l0,0a2.3,2.3,0,0,0,.15.32l.12.21a5,5,0,0,0,.53.73l.09.09.27.27s.05.05.08.06l.24.2.23.17.07.05a5.86,5.86,0,0,0,1.46.73l.62.2c.4.11.84.21,1.3.29a3.87,3.87,0,0,0,.87,5H482.87c3.62-2.78,3.29-9.08-.39-12.36l.52-.23a2.55,2.55,0,0,0,.33-.17,7.41,7.41,0,0,0,.87-.52l.37-.28a8.69,8.69,0,0,0,2.79-3.9c1.42-3.92.25-8.59-2.57-9.93,3.9-2.78,5.49-8.18,4.36-12.69-.1-.39-.21-.77-.34-1.14a10.54,10.54,0,0,0-.74-1.6,10.37,10.37,0,0,0-1-1.43,3.28,3.28,0,0,0-.4-.43,2.44,2.44,0,0,0-.37-.35,7.54,7.54,0,0,0-1.58-1.13l-.39-.2-.29-.14-.4-.17c-.22-.09-.43-.16-.66-.23,5.79-5.8,4-18.29-4.35-19.06,2.06-5.12,1-12.14-5.54-13.44,2.09-6.28-3.72-10.63-9.56-8.38-.25-6.62-9.62-7-11.74-2.35.12-2.55-3.73-7.3-6.19-7.31,4.26-3.33,3.08-10-.57-10.89,5-3.76,2.3-12.35-3.63-12.27a6,6,0,0,0,.92-4.54l-.09-.38c0-.07-.05-.14-.07-.22a1.83,1.83,0,0,0-.08-.25,8,8,0,0,0-.59-1.26c-.07-.11-.12-.21-.19-.3a2.43,2.43,0,0,0-.2-.28,10.91,10.91,0,0,0-1.19-1.37l-.28-.23a8.92,8.92,0,0,0-.85-.67,8.83,8.83,0,0,0-.9-.56l0,0a6.27,6.27,0,0,0-.58-.29,8.63,8.63,0,0,0-1.41-.53l-.34-.09-.35-.08a6.43,6.43,0,0,0-3.52.19c3-7-10.95-12.64-14-5.18-5.33-8.78-23.64-3.61-21.18,7.81a4.35,4.35,0,0,0-3.25,7.75,6.29,6.29,0,0,0-8.57,1.87,3.39,3.39,0,0,0-2.83-4.4c5.8-2.35,1.74-11-3.62-10.64,5.06-6.49-5.2-14-10.65-8.89-2.54-6-11.6-4.71-11,2.29-2-3.65-6-3.4-9.2-1.45-4.49,2.7-3.88,7.48-1.43,11.36-1.85-2.22-7.52-3.43-8.38.24a4.41,4.41,0,0,0-6.39-.73c-1.68-6-12.45-6.81-14.49.6a4.77,4.77,0,0,0-5.91.94c.15-1.37.7-2.36.2-3.94s-1.45-3.07-3-3.21c-2-.21-4.94,1.21-5.78,3.29-.48-1.32-.86-2.12-2.23-2.55a3.1,3.1,0,0,0-4.17,2,8.45,8.45,0,0,0-1.39-3.75,5.06,5.06,0,0,0-2.4-1.75,9.75,9.75,0,0,0-11.53,7,4.85,4.85,0,0,0-3.6-2.4,3.38,3.38,0,0,0-3.49,2.24c-.65-2.19-2-4.63-4.22-4.88a5.87,5.87,0,0,0-3.47,1.07c-1.34.8-2.73,1.85-3.05,3.39a11.57,11.57,0,0,0-8.19-7.53,12.12,12.12,0,0,0-10.82,2.84,12.75,12.75,0,0,0-4,10.49,3,3,0,0,0-5.3,1.79,7.39,7.39,0,0,0-6.13-4.13,5.68,5.68,0,0,0-5.69,4.31A5.8,5.8,0,0,0,221,177.8a6.85,6.85,0,0,0-3.81-1.94,5.92,5.92,0,0,0-2.14,0,3.41,3.41,0,0,0-.55.14c-.45.15-.79-.1-1.24-.2a5.18,5.18,0,0,0-3,.12,5.41,5.41,0,0,0-1.3.69c-.24.18-.92.62-1,.93.79-3.12-.11-6-3.53-7.07a6.29,6.29,0,0,0-6.71,2.45,3.37,3.37,0,0,0-.53-.71,4.46,4.46,0,0,0-.82-.74,6.43,6.43,0,0,0-2-1,7.78,7.78,0,0,0-3-.3,8.4,8.4,0,0,0-1.38.41,4.92,4.92,0,0,0-3.15,2.2,10.28,10.28,0,0,0-1.14,4.55,12.59,12.59,0,0,0-3.16-1.9,4.4,4.4,0,0,0-3.59.09c-1.39.77-2,2.45-2.32,4-.24-2.26-2.58-3.86-4.86-4a11.71,11.71,0,0,0-6.41,2.05c.21-.13.25-.73.36-1a1.17,1.17,0,0,0,.12-.48,7,7,0,0,0-.12-1.38,10.36,10.36,0,0,0-.79-2.61,9.43,9.43,0,0,0-3.46-4.09l-.32-.21a8.49,8.49,0,0,0-9.67.81,24.67,24.67,0,0,0-2.2,2.48,6.3,6.3,0,0,0-11.19.91,11.59,11.59,0,0,0-1.26-.28l-.44,0-.9,0a9.88,9.88,0,0,0-1.8.16,5.1,5.1,0,0,0-2.77,1.47,6.18,6.18,0,0,0-1.09,2,6.25,6.25,0,0,0-.32,1,2.39,2.39,0,0,1-.12.46s-.12.26,0,.31a7.06,7.06,0,0,0-11.07,7.36,6.58,6.58,0,0,0-9.78,6.65A5.84,5.84,0,0,0,98,190.05c-.08-2.81-.37-6-2.64-7.7-2.48-1.81-5.87-.8-8.5.07,0-.16-2.14-6.31-10.56-6.33s-11.42,2.8-12.44,6.18c-5.18-3.18-9.94-1.27-12.49.18-2,1.17-6.71,5-5.91,10.4a11.57,11.57,0,0,0-8.81,2.25l0,0,0,0a8.11,8.11,0,0,0-.65.51c-.21.17-.41.35-.61.53h0c-.16.16-.33.33-.47.5a8.84,8.84,0,0,0-1.88,3.38,8,8,0,0,0-.35,1.6c0,.09,0,.19,0,.29s0,.34,0,.5,0,.39,0,.59,0,.43,0,.65a7.19,7.19,0,0,0,.1.92,1,1,0,0,1,0,.18l.09.43c0,.13.06.24.1.37a8.69,8.69,0,0,0,.58,1.55h0c-4.2-.36-7.42,1.93-9.59,5.57a8.51,8.51,0,0,0-.53,1.12l-.21.6c-.07.22-.14.46-.2.7v0a12.39,12.39,0,0,0-.29,1.45.5.5,0,0,0,0,.12l0,.2c0,.21-.05.43-.07.65v0c0,.28,0,.57,0,.85s0,.39,0,.59a4.75,4.75,0,0,0,0,.53s0,.05,0,.08a5.34,5.34,0,0,0,.09.53s0,0,0,0a2.74,2.74,0,0,0,.09.39,3,3,0,0,0,.11.43l0,.12c0,.11.08.23.13.34l.13.33a5.15,5.15,0,0,0,1.06,1.55c-.2.05-.39.11-.59.18l-.36.14a3.67,3.67,0,0,0-.47.2,8.19,8.19,0,0,0-1.22.73l-.95.75,0,.05a9.9,9.9,0,0,0-.73.72c-.11.14-.23.27-.35.41l-.33.43a10.15,10.15,0,0,0-.88,1.39l-.19.38,0,.06c-.09.21-.18.42-.26.63s-.11.29-.16.45a7.8,7.8,0,0,0-.27,1.16,8.5,8.5,0,0,0-.11,1.4c0,.15,0,.31,0,.47s0,.26,0,.39.08.53.14.78a6.22,6.22,0,0,0,.31,1l.15.35a4.09,4.09,0,0,0,.23.47,7,7,0,0,0,.57.93,5,5,0,0,0,.36.48l.32.38a5.14,5.14,0,0,0,.38.42c.27.28.55.56.85.82l-.81.4a5.06,5.06,0,0,0-.46.27l-.12.08-.39.27-.05,0-.33.28a3,3,0,0,0-.25.25,1.7,1.7,0,0,0-.29.31,3.47,3.47,0,0,0-.35.43l-.08.09a4.53,4.53,0,0,0-.26.4l-.05.07c-.09.15-.18.3-.26.46s-.16.33-.23.5a.25.25,0,0,0,0,.07,5,5,0,0,0-.18.5,5.4,5.4,0,0,0-.18.57,9.5,9.5,0,0,0-.3,1.86,10.46,10.46,0,0,0,0,1.77,6.05,6.05,0,0,0,.41,1.8l0,.05c.09.2.17.4.27.58s.21.39.33.56l0,.05a6.25,6.25,0,0,0,.78,1,3.72,3.72,0,0,0,.65.56l.23.16a2.65,2.65,0,0,0,.4.22,2.54,2.54,0,0,0,.45.17,5.91,5.91,0,0,0-.4,1.17,2.21,2.21,0,0,0-.07.46,3.91,3.91,0,0,0,0,.49,4.37,4.37,0,0,0,.44,1.91,5.19,5.19,0,0,0,.57.91,4.39,4.39,0,0,0,.33.4c1.67,1.81,4.39,2.21,6.86,2.09a5.57,5.57,0,0,0-.41.45l-.1.15a2,2,0,0,0-.22.32,1.92,1.92,0,0,0-.14.33.51.51,0,0,0-.07.17.75.75,0,0,0-.05.16,1.4,1.4,0,0,0-.06.28.58.58,0,0,0,0,.19.81.81,0,0,1,0,.16c0,.08,0,.16,0,.24s0,.11,0,.16a2.08,2.08,0,0,0,.05.36,2.21,2.21,0,0,0,.05.25v0a2,2,0,0,1,.07.26l.09.25c0,.09.06.19.1.28l0,.1a3.59,3.59,0,0,0,.17.34l.14.27,0,0,.17.26.15.23.18.25.18.24,0,0,.26.3a1.13,1.13,0,0,0,.1.13c.06,0,.11.11.17.17a3,3,0,0,0,.25.25l.14.14a2.26,2.26,0,0,0,.29.26l.11.09a2.16,2.16,0,0,0,.33.27l-.25-.15a2.61,2.61,0,0,0-.28-.17h0a6.71,6.71,0,0,0-1.5-.66h-.06a6.27,6.27,0,0,0-1.69-.23h-.05a5.67,5.67,0,0,0-.91.07,6.19,6.19,0,0,0-.7.14l-.29.07-.37.12c-.21.06-.42.14-.65.23s-.39.17-.58.27-.38.21-.56.32a4.71,4.71,0,0,0-.45.33,5.17,5.17,0,0,0-.51.42l-.16.16a2.43,2.43,0,0,0-.26.29.7.7,0,0,0-.14.16,3,3,0,0,0-.3.4,1.81,1.81,0,0,0-.2.33,2.69,2.69,0,0,0-.16.29,1.61,1.61,0,0,0-.15.36,2.84,2.84,0,0,0-.13.38c0,.13-.07.25-.1.38a4.42,4.42,0,0,0,0,1.54,3.9,3.9,0,0,0,.22.77l-1.4.35-.32.11-.31.13-.49.25a2.14,2.14,0,0,0-.39.24,2.74,2.74,0,0,0-.43.3l-.07.05a2.91,2.91,0,0,0-.37.33,3.41,3.41,0,0,0-.38.38,4.16,4.16,0,0,0-.32.39,7.41,7.41,0,0,0-.49.71c-.09.15-.18.32-.27.49s-.2.44-.3.68-.17.43-.24.66c0,0,0,.05,0,.07a0,0,0,0,1,0,0l0,.2c-.05.19-.1.38-.13.56,0,0,0,.05,0,.07a5.9,5.9,0,0,0-.1.7.25.25,0,0,0,0,.08,6.23,6.23,0,0,0,0,.74c0,.18,0,.35,0,.53s0,.27,0,.41l.06.42s0,0,0,.06,0,.24.07.35.11.39.16.58l.14.39a6.86,6.86,0,0,0,.38.83,7.25,7.25,0,0,0,1.4,1.83c.13.11.26.22.38.34a6.51,6.51,0,0,0,1.22.82,3.09,3.09,0,0,0,.44.24,6.55,6.55,0,0,0-.63.19l-.4.16a3.52,3.52,0,0,0-.39.16l-1.33.81-.26.21a3.17,3.17,0,0,0-.34.3c-.16.14-.3.3-.45.45s-.29.37-.42.55a2.51,2.51,0,0,0-.2.29,2.81,2.81,0,0,0-.32.55c-.11.19-.21.4-.3.6h0c-.08.21-.16.44-.23.66a4.94,4.94,0,0,0-.15.55c0,.12-.05.25-.07.38a4.67,4.67,0,0,0-.08.52,6.11,6.11,0,0,0,0,.73h0c0,.19,0,.38,0,.57S11.48,295.65,11.49,295.77Z" style="fill:#e6e6e6"></path><g style="opacity:0.1"><path d="M423.13,189.53a6.72,6.72,0,0,0-9.48-.56,6.47,6.47,0,0,0-1.24,1.49,6.71,6.71,0,0,0-10.88,3.86,8,8,0,0,1,13.29,1.58,5.61,5.61,0,0,0,0-1.15,6.72,6.72,0,0,0-.9-2.59,6.72,6.72,0,0,1,.69-.73,8,8,0,0,1,9.24-1A5.8,5.8,0,0,0,423.13,189.53Z"></path><path d="M353.26,178a5.19,5.19,0,0,1,7.32-.44,4.94,4.94,0,0,1,.95,1.16,5.17,5.17,0,0,1,8.39,3,6.16,6.16,0,0,0-10.25,1.22,4.35,4.35,0,0,1,0-.88,5.29,5.29,0,0,1,.7-2,4.68,4.68,0,0,0-.53-.56,6.15,6.15,0,0,0-7.13-.76A4.3,4.3,0,0,1,353.26,178Z"></path><path d="M432.51,215.6c2.18-.94,5.76-1.19,7.75,2.27a5.61,5.61,0,0,1,.31,4.47,11.28,11.28,0,0,1-.75,1.52,1.12,1.12,0,0,0-.18.42c0,.62.89.71,1.34.93a6.77,6.77,0,0,1,3.11,9.08,8.12,8.12,0,0,1,13.33,7.49c2.55-2.82,7.13-3.06,10.51-1.32a7.61,7.61,0,0,1,3.41,3.2,5.9,5.9,0,0,1-4,8.05,10.25,10.25,0,0,1,8,5.47,7.69,7.69,0,0,1-2,9.15c-2.85,2.17-6.89,1.68-10.35.72a3.83,3.83,0,0,1-.44,4.83,5.73,5.73,0,0,1-3.09,1.62,9.85,9.85,0,0,1,5.49,1.06c2.22,1.25,3,3.49,3,5.92a3.4,3.4,0,0,1-1.37,2.39c-1,1-2.17,1.89-3.12,3,2.74,1.81,5.49,3,6.43,6.62,1.16,4.45-2.47,6.48-5.3,8.92a8.27,8.27,0,0,1,6.88,4.87h11.33c3.61-2.78,3.28-9.08-.41-12.36l.54-.23.33-.17a6.78,6.78,0,0,0,.86-.52l.37-.28a8.37,8.37,0,0,0,2.8-3.91c1.41-3.91.24-8.58-2.58-9.92,3.9-2.78,5.48-8.18,4.37-12.66a6.58,6.58,0,0,0-.35-1.17,8.6,8.6,0,0,0-.74-1.6,7.46,7.46,0,0,0-1-1.43,5.76,5.76,0,0,0-.41-.44c-.12-.12-.24-.24-.37-.35a8.18,8.18,0,0,0-1.58-1.12c-.13-.07-.25-.14-.39-.2l-.29-.14-.4-.17c-.21-.08-.43-.16-.66-.23,5.79-5.81,4.05-18.29-4.35-19.06,2.06-5.12,1-12.14-5.54-13.43,2.09-6.29-3.72-10.64-9.55-8.39-.26-6.62-9.64-7-11.74-2.34.11-2.56-3.73-7.31-6.2-7.32,4.26-3.33,3.08-10-.57-10.89,5-3.76,2.3-12.35-3.62-12.27a6.06,6.06,0,0,0,.91-4.53l-.09-.38c0-.08-.05-.15-.07-.23a2.41,2.41,0,0,0-.08-.25,8,8,0,0,0-.59-1.26,2.2,2.2,0,0,0-.19-.3,2.75,2.75,0,0,0-.19-.28,9.07,9.07,0,0,0-1.21-1.36l-.27-.24a10.69,10.69,0,0,0-1.75-1.23l0,0c-.19-.11-.39-.2-.58-.29a8.09,8.09,0,0,0-1.42-.53,2.14,2.14,0,0,0-.34-.09l-.34-.08c1.72,1.91,3.27,4.44,2,7.06C436,184,433,184.4,431,185.38c4.75,1.6,6.94,6.38,3.4,10.56,4.84.61,5.47,7,3.53,9.66-1.19-1-3.66-1.27-5.46-.92-2.44.46-3.74,1.68-5.93,4.13C430.87,205.48,435.24,211.85,432.51,215.6Z"></path><path d="M11.49,295.77a7.25,7.25,0,0,0,.2,1.25,1.82,1.82,0,0,0,.07.25,4.19,4.19,0,0,0,.22.59l0,0a2.3,2.3,0,0,0,.15.32l.06.12.06.09a5,5,0,0,0,.53.73l0,0,.06.05.27.27s.05.05.08.06l.24.2.23.17.07.05a5.86,5.86,0,0,0,1.46.73c.19.07.4.14.62.2.4.11.84.21,1.3.29a3.87,3.87,0,0,0,.87,5H48.44c-3.24-1.43-5.76-3.89-5.9-7.47-5.44,1.13-11.43,2-12.2-5.53-.5-4.86,2.47-7.36,6.18-9.57-3.66.71-3.45-4.14-2.75-6.41,1-3.09,4.66-5.19,7.93-5-2.1-5.51-.89-11.87,6.27-12.55-2.3-2.16-2.49-7.4-.45-9.88s9.5-4,11.56-.93c-.13-6.38,1.81-8.27,7.3-10.75-3.29.25-9.19-.69-8.8-5.07-1.95,2.63-4.59,5.76-8.47,4.75-1.88-.5-3.45-1.7-3.17-3.83-4.66,5.11-13.27,1.32-8.8-4.88-8.55.2-2.46-10.64,4.22-10.26-3.1-1.79-5.57-3.92-4.43-7.74a9.32,9.32,0,0,1,7-5.91c-5.33-2.76-8.44-6.52-6-11a12.52,12.52,0,0,0-1.36.86l0,0a8.11,8.11,0,0,0-.65.51c-.21.17-.41.35-.61.53l-.48.5a8.92,8.92,0,0,0-1.16,1.67,9.84,9.84,0,0,0-.72,1.71,9.72,9.72,0,0,0-.35,1.6c0,.09,0,.19,0,.29s0,.34,0,.5,0,.39,0,.59,0,.43,0,.65a7.19,7.19,0,0,0,.1.92,1,1,0,0,1,0,.18l.09.43c0,.13.06.24.1.37a8.69,8.69,0,0,0,.58,1.55h0c-4.2-.36-7.42,1.93-9.59,5.57a8.51,8.51,0,0,0-.53,1.12l-.21.6c-.07.22-.13.46-.2.7v0a12.39,12.39,0,0,0-.29,1.45.5.5,0,0,0,0,.12l0,.2c0,.21-.05.43-.07.65v0c0,.28,0,.57,0,.85s0,.39,0,.59a4.75,4.75,0,0,0,0,.53s0,.05,0,.08a5.34,5.34,0,0,0,.09.53s0,0,0,0a2.74,2.74,0,0,0,.09.39,3,3,0,0,0,.11.43l0,.12c0,.11.08.23.13.34l.13.33a5.15,5.15,0,0,0,1.06,1.55c-.2.05-.39.11-.59.18l-.36.14a3.67,3.67,0,0,0-.47.2,9.59,9.59,0,0,0-1.22.73l-.95.75,0,.05a9.9,9.9,0,0,0-.73.72c-.11.14-.23.27-.35.41l-.33.43a10.15,10.15,0,0,0-.88,1.39l-.19.38,0,.06c-.09.21-.18.42-.26.63s-.11.29-.16.45a7.8,7.8,0,0,0-.27,1.16,8.5,8.5,0,0,0-.11,1.4c0,.15,0,.31,0,.47s0,.26,0,.39.08.53.14.78a8.2,8.2,0,0,0,.31,1l.15.35a4.09,4.09,0,0,0,.23.47,7.48,7.48,0,0,0,.57.93,5,5,0,0,0,.36.48l.32.38a5.14,5.14,0,0,0,.38.42c.27.28.55.56.85.82l-.81.4a5.06,5.06,0,0,0-.46.27l-.12.08-.39.27-.05,0-.33.28a3,3,0,0,0-.25.25,1.7,1.7,0,0,0-.29.31,3.47,3.47,0,0,0-.35.43l-.08.09a4.53,4.53,0,0,0-.26.4l-.05.07c-.09.15-.18.3-.26.46s-.16.33-.23.5a.25.25,0,0,0,0,.07,5,5,0,0,0-.18.5,5.4,5.4,0,0,0-.18.57,10.31,10.31,0,0,0-.3,1.86,10.46,10.46,0,0,0,0,1.77,6.05,6.05,0,0,0,.41,1.8l0,.05c.09.2.17.4.27.58s.21.39.33.56l0,.05a7.69,7.69,0,0,0,.78,1,5.4,5.4,0,0,0,.65.56l.23.16a2.65,2.65,0,0,0,.4.22,2.54,2.54,0,0,0,.45.17,5.91,5.91,0,0,0-.4,1.17,2.21,2.21,0,0,0-.07.46,3.91,3.91,0,0,0,0,.49,4.37,4.37,0,0,0,.44,1.91,5.19,5.19,0,0,0,.57.91,4.39,4.39,0,0,0,.33.4c1.67,1.81,4.39,2.21,6.86,2.09a5.57,5.57,0,0,0-.41.45l-.1.15-.14.2a.83.83,0,0,0-.08.12,1.92,1.92,0,0,0-.14.33.51.51,0,0,0-.07.17.75.75,0,0,0-.05.16l0,.15a.61.61,0,0,0,0,.13.14.14,0,0,0,0,.06s0,.09,0,.13a.81.81,0,0,1,0,.16c0,.08,0,.16,0,.24s0,.11,0,.16a.43.43,0,0,1,0,.11,1,1,0,0,0,0,.25,2.21,2.21,0,0,0,.05.25v0a2,2,0,0,1,.07.26l.09.25c0,.09.06.19.1.28l0,.1.06.14c0,.07.07.14.11.2l0,.07.11.2,0,0,.17.26.15.23.18.25.18.24,0,0,.15.18.11.12a1.13,1.13,0,0,0,.1.13c.06,0,.11.11.17.17a3,3,0,0,0,.25.25l.14.14a2.26,2.26,0,0,0,.29.26l.11.09a2.16,2.16,0,0,0,.33.27l.32.25a6.58,6.58,0,0,0-.57-.4,2.61,2.61,0,0,0-.28-.17c-.15-.09-.33-.18-.49-.26l-.27-.13-.54-.2-.26-.09a3.75,3.75,0,0,0-.6-.13l-.24,0c-.21,0-.42,0-.64-.05h-.26a5,5,0,0,0-.66.05l-.27,0a6.19,6.19,0,0,0-.7.14l-.29.07-.37.12-.37.13-.28.1c-.19.08-.39.17-.58.27s-.38.21-.56.32a4.71,4.71,0,0,0-.45.33,5.17,5.17,0,0,0-.51.42l-.16.16a2.43,2.43,0,0,0-.26.29.7.7,0,0,0-.14.16,3,3,0,0,0-.3.4,1.81,1.81,0,0,0-.2.33,2.69,2.69,0,0,0-.16.29,1.61,1.61,0,0,0-.15.36.54.54,0,0,0-.05.11,1.73,1.73,0,0,0-.08.27c0,.13-.07.25-.1.38a4,4,0,0,0,0,1.54,3.9,3.9,0,0,0,.22.77l-1.4.35-.32.11-.31.13-.49.25a2.14,2.14,0,0,0-.39.24,2.74,2.74,0,0,0-.43.3l-.07.05a3.8,3.8,0,0,0-.37.33,3.41,3.41,0,0,0-.38.38,4.16,4.16,0,0,0-.32.39,7.41,7.41,0,0,0-.49.71c-.09.15-.18.32-.27.49s-.2.44-.3.68-.17.43-.24.66c0,0,0,.05,0,.07a0,0,0,0,1,0,0l0,.2c-.05.19-.1.38-.13.56,0,0,0,.05,0,.07a5.9,5.9,0,0,0-.1.7.25.25,0,0,0,0,.08,6.23,6.23,0,0,0,0,.74c0,.18,0,.35,0,.53s0,.27,0,.41l.06.42s0,0,0,.06,0,.24.07.35.11.39.16.58l.14.39a6.86,6.86,0,0,0,.38.83,8,8,0,0,0,1.4,1.83c.13.11.26.22.38.34a8.93,8.93,0,0,0,.8.57,3.58,3.58,0,0,0,.42.25,3.09,3.09,0,0,0,.44.24,6.55,6.55,0,0,0-.63.19l-.4.16a3.52,3.52,0,0,0-.39.16l-1.33.81-.26.21a3.17,3.17,0,0,0-.34.3c-.16.14-.3.3-.45.45s-.29.37-.42.55a2.51,2.51,0,0,0-.2.29,2.81,2.81,0,0,0-.32.55c-.11.19-.21.4-.3.6h0c-.08.21-.16.44-.23.66a4.94,4.94,0,0,0-.15.55c0,.12-.05.25-.07.38a4.67,4.67,0,0,0-.08.52,6.11,6.11,0,0,0,0,.73h0c0,.19,0,.38,0,.57S11.48,295.65,11.49,295.77Z"></path><path d="M135.83,208.12a6.72,6.72,0,0,0-9.33-1.79,6.89,6.89,0,0,0-1.42,1.32,6.71,6.71,0,0,0-11.28,2.41,8,8,0,0,1,13,3.3,6.15,6.15,0,0,0,.1-1.15,6.66,6.66,0,0,0-.56-2.68,6.3,6.3,0,0,1,.79-.64,8,8,0,0,1,9.28.24A5.23,5.23,0,0,0,135.83,208.12Z"></path><path d="M141.53,184.52a5.39,5.39,0,0,1,7-2.91,5.29,5.29,0,0,1,1.34.8,5.38,5.38,0,0,1,9.25.08,6.49,6.49,0,0,0-4.6-.79,6.4,6.4,0,0,0-5.06,5.47,4.1,4.1,0,0,1-.27-.88,5.26,5.26,0,0,1,0-2.2,4.89,4.89,0,0,0-.72-.37,6.38,6.38,0,0,0-7.26,1.68A4.06,4.06,0,0,1,141.53,184.52Z"></path><path d="M194.42,184.72a4.12,4.12,0,0,1,5.82-.28,3.88,3.88,0,0,1,.75.93,4.11,4.11,0,0,1,6.65,2.44,4.91,4.91,0,0,0-8.17.88,3.42,3.42,0,0,1,0-.71,4,4,0,0,1,.57-1.58,4.47,4.47,0,0,0-.42-.45,4.9,4.9,0,0,0-5.67-.66A3.28,3.28,0,0,1,194.42,184.72Z"></path></g></g></g><g id="freepik--Floor--inject-132"><g id="freepik--floor--inject-132"><g id="freepik--floor--inject-132"><path d="M421,439.46C326.55,494,173.46,494,79,439.46s-94.42-142.9,0-197.41,247.51-54.51,341.93,0S515.38,384.94,421,439.46Z" style="fill:#BA68C8"></path><path d="M421,439.46C326.55,494,173.46,494,79,439.46s-94.42-142.9,0-197.41,247.51-54.51,341.93,0S515.38,384.94,421,439.46Z" style="fill:#fff;opacity:0.7000000000000001"></path></g><path d="M67.2,249.39C16.4,283.2-1.57,327.74,13.27,369.16L200.8,477.42c71.73,8.57,148.88-1.8,207.44-31.13Z" style="fill:#fafafa"></path><path d="M65.09,250.82,74,256l-41.75,24.1q-3.88,4.65-7.16,9.44l53.5-30.89,154.1,89-126.09,72.8L12.16,365.86c.71,2.24,1.51,4.48,2.41,6.7L194.9,476.68c3.85.51,7.72,1,11.6,1.38l-95.34-55,126.09-72.8,154.1,89-55.64,32.12q8-1.76,15.85-3.84l44.38-25.63,9.82,5.67c1.66-.8,3.3-1.63,4.93-2.46L69.35,248C67.91,248.92,66.48,249.87,65.09,250.82Z" style="fill:#f0f0f0"></path></g></g><g id="freepik--Clouds--inject-132"><path id="freepik--Cloud--inject-132" d="M352.57,48c0-3.51,3.85-6,8.21-6.37,5.13-.48,8.78,1.81,8.9,5.85,3.36-1.37,6.9-.49,6.63,3.2.88-1,4.15-1,5.32-.7a4.63,4.63,0,0,1,2.93,2.5,3.46,3.46,0,0,1,.3,1.89c2-.64,6.41-1,7.53.76,2,3.2-5.94,3.3-7.54,2.33-.34,2.49-8.85,2.9-10.91.6-1.61,1.62-3.92,2-6.42,2.13-4.21.25-6.79-1.18-10.08-2.85-3.57,3-9.75,3.08-13-.38-.82.77-3.08,1-4.89.58-1.19-.29-1.46-.79-1.46-.79a10.42,10.42,0,0,1-2.19.65c-2.33.49-6.68,0-4.86-2.13a5.55,5.55,0,0,1,3.86-1c1-2,5.11-3.9,7.45-2.2.09-2.43,2.31-4.33,5.44-4.81C348.86,47.19,351.37,47.05,352.57,48Z" style="fill:#f5f5f5"></path><path id="freepik--cloud--inject-132" d="M134.44,48c0-3.51,3.85-6,8.21-6.37,5.14-.48,8.78,1.81,8.9,5.85,3.36-1.37,6.9-.49,6.64,3.2.87-1,4.14-1,5.31-.7a4.63,4.63,0,0,1,2.93,2.5,3.37,3.37,0,0,1,.3,1.89c2-.64,6.42-1,7.53.76,2,3.2-5.94,3.3-7.54,2.33-.33,2.49-8.85,2.9-10.91.6-1.61,1.62-3.92,2-6.41,2.13-4.22.25-6.8-1.18-10.08-2.85-3.57,3-9.75,3.08-13-.38-.82.77-3.08,1-4.9.58-1.19-.29-1.46-.79-1.46-.79a10.42,10.42,0,0,1-2.19.65c-2.33.49-6.67,0-4.85-2.13a5.52,5.52,0,0,1,3.86-1c1-2,5.1-3.9,7.45-2.2.09-2.43,2.31-4.33,5.43-4.81C130.74,47.19,133.25,47.05,134.44,48Z" style="fill:#f5f5f5"></path><path id="freepik--cloud--inject-132" d="M223,30.74c0-4.64,5.09-7.87,10.86-8.41,6.79-.64,11.6,2.39,11.77,7.74,4.44-1.83,9.12-.66,8.77,4.22,1.15-1.33,5.47-1.29,7-.92a6.06,6.06,0,0,1,3.87,3.3,4.39,4.39,0,0,1,.4,2.5c2.59-.85,8.48-1.37,9.95,1,2.62,4.23-7.85,4.36-10,3.09-.45,3.28-11.7,3.82-14.42.79-2.13,2.14-5.19,2.62-8.49,2.81-5.56.33-9-1.55-13.32-3.77-4.72,4-12.89,4.08-17.15-.5-1.08,1-4.07,1.34-6.47.77-1.57-.38-1.93-1-1.93-1a14,14,0,0,1-2.89.87c-3.09.65-8.83,0-6.42-2.82.82-.94,3.82-1.54,5.1-1.25,1.34-2.65,6.75-5.16,9.85-2.92.12-3.21,3-5.72,7.18-6.36C218.08,29.62,221.4,29.43,223,30.74Z" style="fill:#f5f5f5"></path></g><g id="freepik--Shadows--inject-132"><path id="freepik--Shadow--inject-132" d="M121.68,411.93c-10.42-1.58-21.9-7.64-29.74-15-7.56-7.11-15.55-16.43-15-28.09A23.91,23.91,0,0,1,87.19,350.2c5.14-3.39,11.34-4.31,17.35-4.83,40.73-3.54,82.5,8.38,116.25,33.16a53.53,53.53,0,0,1,10.34,9.33c2.9,3.62,6.16,10.81,3,14.16-2.73,2.91-8.72,5.08-17.72,3.73-15.54-2.32-22.79-6.29-38.06-10.25-9.95-2.59-24.89-7.06-32.92,2.44-2.58,3.07-3.62,7.39-6.32,10.35C134.81,413,127.78,412.85,121.68,411.93Z" style="opacity:0.2"></path><path id="freepik--shadow--inject-132" d="M238.55,292.89l166.58,96.18a6.78,6.78,0,0,0,6.14,0l51.44-29.7c1.69-1,1.69-2.56,0-3.54L296.12,259.65a6.76,6.76,0,0,0-6.13,0l-51.44,29.7C236.85,290.33,236.85,291.91,238.55,292.89Z" style="fill:#BA68C8;opacity:0.25"></path></g><g id="freepik--Bench--inject-132"><g id="freepik--bench--inject-132"><path d="M452.27,318.19c4.35-2.52,7.83-6.3,8.46-10.68l6.74-47.2c.26-1.78-1.22-3.29-3.29-3.38A4,4,0,0,0,460,260l-6.75,47.2c-.3,2.09-1.69,3.36-4.44,4.94l-37.61,21.72a3.49,3.49,0,0,0,1.75,6.51,3.45,3.45,0,0,0,1.74-.47Z" style="fill:#263238"></path><path d="M375.48,274.83c4.36-2.51,7.83-6.29,8.46-10.67l6.75-47.2c.25-1.78-1.22-3.3-3.3-3.38a4,4,0,0,0-4.22,3.07l-6.74,47.2c-.3,2.09-1.7,3.36-4.44,4.94l-37.62,21.72a3.49,3.49,0,1,0,3.49,6Z" style="fill:#263238"></path><path d="M301.33,231.15c4.35-2.51,7.83-6.29,8.46-10.67l6.74-47.2c.26-1.78-1.22-3.29-3.29-3.38A4,4,0,0,0,309,173l-6.75,47.2c-.3,2.09-1.69,3.36-4.44,4.94l-37.61,21.72a3.49,3.49,0,0,0,1.75,6.51,3.45,3.45,0,0,0,1.74-.47Z" style="fill:#263238"></path><path d="M406.4,336.05v40.06a2,2,0,0,0,1.16,1.62,6.23,6.23,0,0,0,5.61,0,2,2,0,0,0,1.16-1.62V336.05Z" style="fill:#263238"></path><path d="M439.58,317.15v40.06a2,2,0,0,0,1.16,1.62,6.21,6.21,0,0,0,5.6,0,2,2,0,0,0,1.17-1.62V317.15Z" style="fill:#263238"></path><path d="M255.59,249V289a2,2,0,0,0,1.16,1.61,6.17,6.17,0,0,0,5.61,0,2,2,0,0,0,1.16-1.61V249Z" style="fill:#263238"></path><path d="M288.77,230.07v40.07a2,2,0,0,0,1.16,1.62,6.23,6.23,0,0,0,5.61,0,2,2,0,0,0,1.16-1.62V230.07Z" style="fill:#263238"></path><path d="M460,322.93v.81a4.47,4.47,0,0,1-2,3.49l-5.42,3.13a4.47,4.47,0,0,1-4,0L282.71,234.64a4.44,4.44,0,0,1-2-3.49v-.81a4.48,4.48,0,0,1,2-3.49l5.43-3.13a4.47,4.47,0,0,1,4,0L458,319.44A4.49,4.49,0,0,1,460,322.93Z" style="fill:#37474f"></path><path d="M450.51,320.61v10.23a4.16,4.16,0,0,0,2-.48l5.42-3.13a4.47,4.47,0,0,0,2-3.49v-.81a4.49,4.49,0,0,0-2-3.49l-2.71-1.56Z" style="fill:#263238"></path><path d="M448.5,324.9,282.7,229.18a1.23,1.23,0,0,1,0-2.33l5.43-3.13a4.47,4.47,0,0,1,4,0L458,319.44a1.23,1.23,0,0,1,0,2.33l-5.42,3.13A4.47,4.47,0,0,1,448.5,324.9Z" style="fill:#455a64"></path><path d="M442.09,333.26v.8a4.43,4.43,0,0,1-2,3.49l-5.42,3.13a4.41,4.41,0,0,1-4,0L264.83,245a4.43,4.43,0,0,1-2-3.49v-.8a4.43,4.43,0,0,1,2-3.49l5.42-3.13a4.47,4.47,0,0,1,4,0l165.79,95.72A4.43,4.43,0,0,1,442.09,333.26Z" style="fill:#37474f"></path><path d="M432.64,330.93v10.23a4.09,4.09,0,0,0,2-.48l5.42-3.13a4.43,4.43,0,0,0,2-3.49v-.8a4.43,4.43,0,0,0-2-3.49l-2.71-1.57Z" style="fill:#263238"></path><path d="M430.62,335.23,264.83,239.51a1.23,1.23,0,0,1,0-2.33l5.42-3.13a4.47,4.47,0,0,1,4,0l165.79,95.72a1.22,1.22,0,0,1,0,2.32l-5.42,3.14A4.47,4.47,0,0,1,430.62,335.23Z" style="fill:#455a64"></path><path d="M424,343.73v.81a4.47,4.47,0,0,1-2,3.49l-5.42,3.13a4.47,4.47,0,0,1-4,0L246.72,255.44a4.44,4.44,0,0,1-2-3.49v-.8a4.46,4.46,0,0,1,2-3.5l5.42-3.13a4.47,4.47,0,0,1,4,0L422,340.24A4.49,4.49,0,0,1,424,343.73Z" style="fill:#37474f"></path><path d="M414.52,341.41v10.23a4.16,4.16,0,0,0,2-.48L422,348a4.47,4.47,0,0,0,2-3.49v-.81a4.49,4.49,0,0,0-2-3.49l-2.71-1.56Z" style="fill:#263238"></path><path d="M412.51,345.7,246.72,250a1.23,1.23,0,0,1,0-2.33l5.42-3.13a4.47,4.47,0,0,1,4,0L422,340.24a1.23,1.23,0,0,1,0,2.33l-5.42,3.13A4.47,4.47,0,0,1,412.51,345.7Z" style="fill:#455a64"></path><path d="M444.68,315.67a.69.69,0,0,1,0,1.31,2.48,2.48,0,0,1-2.28,0,.69.69,0,0,1,0-1.31A2.54,2.54,0,0,1,444.68,315.67Z" style="fill:#37474f"></path><path d="M426.76,326.07a.7.7,0,0,1,0,1.32,2.54,2.54,0,0,1-2.28,0,.7.7,0,0,1,0-1.32A2.54,2.54,0,0,1,426.76,326.07Z" style="fill:#37474f"></path><path d="M408.6,336.63a.69.69,0,0,1,0,1.31,2.48,2.48,0,0,1-2.28,0,.69.69,0,0,1,0-1.31A2.48,2.48,0,0,1,408.6,336.63Z" style="fill:#37474f"></path><path d="M293.87,228.65a.69.69,0,0,1,0,1.31,2.48,2.48,0,0,1-2.28,0,.69.69,0,0,1,0-1.31A2.48,2.48,0,0,1,293.87,228.65Z" style="fill:#37474f"></path><path d="M276,239.05a.7.7,0,0,1,0,1.32,2.54,2.54,0,0,1-2.28,0,.7.7,0,0,1,0-1.32A2.54,2.54,0,0,1,276,239.05Z" style="fill:#37474f"></path><path d="M257.79,249.61a.69.69,0,0,1,0,1.31,2.54,2.54,0,0,1-2.28,0,.69.69,0,0,1,0-1.31A2.48,2.48,0,0,1,257.79,249.61Z" style="fill:#37474f"></path><path d="M469.09,310.71l.16-.06a4.66,4.66,0,0,0,2.63-3.14l.83-5.78a3.57,3.57,0,0,0-1.71-3.31L305.21,202.7a5.44,5.44,0,0,0-4.34-.18l-.16.06a4.65,4.65,0,0,0-2.63,3.13l-.83,5.79a3.58,3.58,0,0,0,1.71,3.31l165.79,95.72A5.52,5.52,0,0,0,469.09,310.71Z" style="fill:#455a64"></path><path d="M462.76,303.92l9.58-4.05a3.22,3.22,0,0,1,.37,1.86l-.83,5.78a4.66,4.66,0,0,1-2.63,3.14l-.16.06a5.52,5.52,0,0,1-4.34-.18L462,309Z" style="fill:#263238"></path><path d="M466.19,300.45,300.4,204.73c-1.11-.64-2.15-.2-2.32,1l-.83,5.79a3.58,3.58,0,0,0,1.71,3.31l165.79,95.72c1.11.64,2.15.2,2.32-1l.83-5.78A3.57,3.57,0,0,0,466.19,300.45Z" style="fill:#37474f"></path><path d="M472,290.59l.17-.06a4.65,4.65,0,0,0,2.63-3.13l.83-5.79a3.6,3.6,0,0,0-1.71-3.31l-165.8-95.72a5.5,5.5,0,0,0-4.33-.18l-.17.06a4.66,4.66,0,0,0-2.63,3.14l-.83,5.78a3.59,3.59,0,0,0,1.71,3.31l165.79,95.72A5.44,5.44,0,0,0,472,290.59Z" style="fill:#455a64"></path><path d="M465.63,283.81l9.57-4.06a3.14,3.14,0,0,1,.37,1.86l-.82,5.79a4.65,4.65,0,0,1-2.63,3.13l-.17.06a5.44,5.44,0,0,1-4.34-.18l-2.71-1.56Z" style="fill:#263238"></path><path d="M469.06,280.33,303.27,184.61c-1.12-.64-2.16-.2-2.33,1l-.83,5.78a3.59,3.59,0,0,0,1.71,3.31l165.79,95.72c1.12.65,2.16.21,2.33-1l.83-5.78A3.61,3.61,0,0,0,469.06,280.33Z" style="fill:#37474f"></path><path d="M474.7,271l.16-.06a4.65,4.65,0,0,0,2.63-3.13l.83-5.79a3.6,3.6,0,0,0-1.71-3.31L310.82,163a5.53,5.53,0,0,0-4.34-.18l-.16.06a4.65,4.65,0,0,0-2.64,3.14l-.82,5.78a3.58,3.58,0,0,0,1.7,3.31l165.8,95.73A5.48,5.48,0,0,0,474.7,271Z" style="fill:#455a64"></path><path d="M468.37,264.23l9.57-4.06a3.23,3.23,0,0,1,.38,1.86l-.83,5.79a4.65,4.65,0,0,1-2.63,3.13l-.16.06a5.48,5.48,0,0,1-4.34-.17l-2.71-1.57Z" style="fill:#263238"></path><path d="M471.8,260.75,306,165c-1.12-.64-2.16-.2-2.33,1l-.82,5.78a3.58,3.58,0,0,0,1.7,3.31l165.8,95.73c1.11.64,2.15.2,2.32-1l.83-5.78A3.61,3.61,0,0,0,471.8,260.75Z" style="fill:#37474f"></path><path d="M464.73,260.62a2.32,2.32,0,0,1,1.1,2.13c-.11.77-.78,1.05-1.5.64a2.31,2.31,0,0,1-1.1-2.13C463.34,260.49,464,260.21,464.73,260.62Z" style="fill:#455a64"></path><path d="M461.38,279.5a2.31,2.31,0,0,1,1.09,2.13c-.1.77-.77,1.05-1.49.64a2.32,2.32,0,0,1-1.1-2.14C460,279.37,460.66,279.09,461.38,279.5Z" style="fill:#455a64"></path><path d="M458.47,299.65a2.3,2.3,0,0,1,1.1,2.13.91.91,0,0,1-1.49.64,2.32,2.32,0,0,1-1.1-2.14C457.09,299.52,457.76,299.24,458.47,299.65Z" style="fill:#455a64"></path><path d="M313.76,173.63a2.29,2.29,0,0,1,1.1,2.13.91.91,0,0,1-1.49.63,2.29,2.29,0,0,1-1.1-2.13A.91.91,0,0,1,313.76,173.63Z" style="fill:#455a64"></path><path d="M310.41,192.51a2.29,2.29,0,0,1,1.1,2.13.91.91,0,0,1-1.49.63,2.3,2.3,0,0,1-1.1-2.13A.91.91,0,0,1,310.41,192.51Z" style="fill:#455a64"></path><path d="M307.51,212.66a2.29,2.29,0,0,1,1.1,2.13c-.11.76-.78,1.05-1.5.63a2.31,2.31,0,0,1-1.09-2.13A.91.91,0,0,1,307.51,212.66Z" style="fill:#455a64"></path><path d="M387.58,216.6a2.32,2.32,0,0,1,1.1,2.14c-.11.76-.78,1-1.5.63a2.32,2.32,0,0,1-1.1-2.13C386.19,216.47,386.86,216.19,387.58,216.6Z" style="fill:#455a64"></path><path d="M384.23,235.48a2.33,2.33,0,0,1,1.1,2.13c-.11.77-.78,1-1.5.64a2.33,2.33,0,0,1-1.1-2.13C382.84,235.35,383.51,235.07,384.23,235.48Z" style="fill:#455a64"></path><path d="M381.33,255.63a2.32,2.32,0,0,1,1.09,2.13c-.1.77-.77,1.05-1.49.64a2.3,2.3,0,0,1-1.1-2.13C379.94,255.5,380.61,255.22,381.33,255.63Z" style="fill:#455a64"></path><path d="M368,272.33a.69.69,0,0,1,0,1.31,2.48,2.48,0,0,1-2.28,0c-.63-.36-.64-.95,0-1.31A2.48,2.48,0,0,1,368,272.33Z" style="fill:#37474f"></path><path d="M350.1,282.73a.7.7,0,0,1,0,1.32,2.54,2.54,0,0,1-2.28,0,.7.7,0,0,1,0-1.32A2.54,2.54,0,0,1,350.1,282.73Z" style="fill:#37474f"></path><path d="M331.94,293.28a.7.7,0,0,1,0,1.32,2.54,2.54,0,0,1-2.28,0,.7.7,0,0,1,0-1.32A2.54,2.54,0,0,1,331.94,293.28Z" style="fill:#37474f"></path></g></g><g id="freepik--Character--inject-132"><g id="freepik--character--inject-132"><g id="freepik--Bottom--inject-132"><path d="M198.9,209.57c.86,5.57.24,8.18.24,8.18s10.86,16.56,15.61,25.07c7.56,13.53,10.38,19.88,11.6,24.06s3.89,8.87.23,19.82-12.88,46-14.1,52.24-4.34,14.43-1.38,21.11c2.24,5.07,9.06,15.44,16.1,19.37,5.77,3.22,4.17,7.22.82,8.5-4.55,1.74-11.53,3.93-17.33.34-2.66-1.63-5.7-5.87-9-10-2.4-3-6.59-5.33-8.55-6.5a9,9,0,0,1-3.23-12.35c4-6,4.28-8.94,3.79-25.13-.28-9.24-.85-20-.85-30.42s5.92-22.09,5.92-22.09c0-1.73-2.13-5-5.4-9.16-4.92-6.31-15.29-17.61-19.12-24.22,0,0-18.38-8.21-23.82-24.51-2.26-6.78,0-15.13,0-15.13Z" style="fill:#ffa8a7"></path><path d="M192.51,213.79s.35,11.93-14.86,19.4c0,20.1-1.86,42.18-4.63,51s-5.71,10.72-23.59,22.56-36.57,26.85-41.22,32.08c-3.08,3.46-3.87,8.23-3.37,17.8.29,5.48,3.91,13.49,3.62,17.52s-9,6-14.1-.69c-6.69-8.8-2.65-15.91-6.81-21-5.1-6.28-5.84-10.19-4.91-13.89,1.43-5.69,6.94-5.46,12-9.8,4.81-4.12,8.69-9.13,12.25-13.43,7.31-8.81,14.15-19.7,19.36-26.7,7.66-10.28,16.63-12.6,17.89-14.11s-.62-11.62-1.72-17.33c-1.25-6.54-2-11.7-4-18.8-3-11-3.69-22.15,7.73-36.17Z" style="fill:#ffa8a7"></path><path d="M144,310.41c-9.36-1.31-18.74-13-18.36-21-5.14,7-11.74,17.41-18.77,25.89-3.56,4.3-7.44,9.31-12.25,13.43-5.06,4.34-10.57,4.11-12,9.8-.93,3.7-.19,7.61,4.91,13.89,4.16,5.12.12,12.23,6.81,21,5.1,6.71,13.82,4.72,14.1.69s-3.33-12-3.62-17.52c-.5-9.57.29-14.34,3.37-17.8C112.39,334.13,127.93,321.51,144,310.41Z" style="fill:#455a64"></path><path d="M115.3,304.2l-1.45,2A24.93,24.93,0,0,0,129,321.3c.66-.51,1.33-1,2-1.52A23.07,23.07,0,0,1,115.3,304.2Z" style="fill:#fafafa"></path><path d="M120.51,296.73l-1.61,2.34c2,7.22,7,14.71,16.33,17.59.7-.52,1.41-1,2.13-1.55C126.49,312.54,122,303.61,120.51,296.73Z" style="fill:#fafafa"></path><path d="M193.14,371.75c2,1.17,6.15,3.49,8.55,6.5,3.3,4.14,6.34,8.38,9,10,5.8,3.59,12.78,1.4,17.33-.34,3.35-1.28,4.95-5.28-.82-8.5-7-3.93-13.86-14.3-16.1-19.37-3-6.68.16-14.85,1.38-21.11.78-4,4.89-20,8.69-33.73-6.4,3.4-23,1.88-28.13-4.61h0a32.34,32.34,0,0,0-.18,3.25c0,10.43.57,21.18.85,30.42.49,16.19.22,19.17-3.79,25.13A9,9,0,0,0,193.14,371.75Z" style="fill:#455a64"></path><path d="M216.71,321.82q.3-1.14.6-2.31c-9.12,2.88-18.61.83-24.23-2.81,0,.79,0,1.59.08,2.38a32.53,32.53,0,0,0,23.55,2.74Z" style="fill:#fafafa"></path><path d="M218.88,313.62l.69-2.58c-9.43,4.57-20.52,1.42-26.69-3.1,0,.83,0,1.66.05,2.5a31.32,31.32,0,0,0,16.57,5A24.89,24.89,0,0,0,218.88,313.62Z" style="fill:#fafafa"></path><path d="M229.87,394.08h0l-2.35-4.78h0a2.32,2.32,0,0,0-1.64-1.15,7,7,0,0,0-6.09,1.71,2.33,2.33,0,0,0-.8,1.84h0l.48,5.31h0a1.57,1.57,0,0,0,0,.3,2.71,2.71,0,0,0,2.14,1.72,8.54,8.54,0,0,0,7.44-2.09,2.72,2.72,0,0,0,.93-2.58A1,1,0,0,0,229.87,394.08Z" style="fill:#BA68C8"></path><path d="M221.2,395.06c1.42,0,5.54-.43,8.18-2l-1.86-3.75h0a2.32,2.32,0,0,0-1.64-1.15,7,7,0,0,0-6.09,1.71,2.33,2.33,0,0,0-.8,1.84h0l.48,5.31h0a1.57,1.57,0,0,0,0,.3,2.71,2.71,0,0,0,2.14,1.72,7,7,0,0,0,2.35.13C220.82,399.24,219.71,395.06,221.2,395.06Z" style="opacity:0.2"></path><path d="M193.87,372.23a2.92,2.92,0,0,0-3-.28c-.74.44-3.43,2-4.18,2.42a2.93,2.93,0,0,0-1.2,2.69,9.26,9.26,0,0,0,4.17,7.24,3,3,0,0,0,3,.29l4.18-2.41a3,3,0,0,0,1.22-2.71A9.26,9.26,0,0,0,193.87,372.23Z" style="fill:#BA68C8"></path><path d="M193.87,372.23a2.92,2.92,0,0,0-3-.28c-.74.44-3.43,2-4.18,2.42a2.93,2.93,0,0,0-1.2,2.69,9.26,9.26,0,0,0,4.17,7.24,3,3,0,0,0,3,.29l4.18-2.41a3,3,0,0,0,1.22-2.71A9.26,9.26,0,0,0,193.87,372.23Z" style="opacity:0.2"></path><path d="M189.69,374.65a9.22,9.22,0,0,1,4.18,7.23,2.55,2.55,0,0,1-4.18,2.42,9.26,9.26,0,0,1-4.17-7.24,2.93,2.93,0,0,1,1.2-2.69A2.89,2.89,0,0,1,189.69,374.65Z" style="fill:#BA68C8"></path><path d="M189.69,377.61a3.54,3.54,0,0,1,1.62,2.8,1,1,0,0,1-1.62.93,3.58,3.58,0,0,1-1.61-2.8,1.13,1.13,0,0,1,.46-1A1.09,1.09,0,0,1,189.69,377.61Z" style="opacity:0.2"></path><path d="M189.69,377.61a1.23,1.23,0,0,0-.4-.17,1.44,1.44,0,0,0-.06.43,3.55,3.55,0,0,0,1.62,2.8,1.23,1.23,0,0,0,.4.17,1.44,1.44,0,0,0,.06-.43A3.54,3.54,0,0,0,189.69,377.61Z" style="opacity:0.2"></path><path d="M191.26,379.91a3.84,3.84,0,0,0-1.13-2,1.15,1.15,0,0,0-.43.88,1.18,1.18,0,0,0,1.17,1.18A1.29,1.29,0,0,0,191.26,379.91Z" style="fill:#fafafa"></path><path d="M210.59,386.71a3,3,0,0,0-3-.29c-.75.44-3.43,2-4.19,2.42a3,3,0,0,0-1.2,2.69,9.22,9.22,0,0,0,4.18,7.24,2.93,2.93,0,0,0,3,.29l4.17-2.41a2.93,2.93,0,0,0,1.23-2.7A9.22,9.22,0,0,0,210.59,386.71Z" style="fill:#BA68C8"></path><path d="M210.59,386.71a3,3,0,0,0-3-.29c-.75.44-3.43,2-4.19,2.42a3,3,0,0,0-1.2,2.69,9.22,9.22,0,0,0,4.18,7.24,2.93,2.93,0,0,0,3,.29l4.17-2.41a2.93,2.93,0,0,0,1.23-2.7A9.22,9.22,0,0,0,210.59,386.71Z" style="opacity:0.2"></path><path d="M206.41,389.12a9.22,9.22,0,0,1,4.18,7.24,2.55,2.55,0,0,1-4.18,2.41,9.22,9.22,0,0,1-4.18-7.24,2.55,2.55,0,0,1,4.18-2.41Z" style="fill:#BA68C8"></path><path d="M206.41,392.08a3.58,3.58,0,0,1,1.62,2.8,1.14,1.14,0,0,1-.48,1.05,1.15,1.15,0,0,1-1.14-.12,3.58,3.58,0,0,1-1.62-2.8,1,1,0,0,1,1.62-.93Z" style="opacity:0.2"></path><path d="M206.41,392.08a1.78,1.78,0,0,0-.41-.17,1.9,1.9,0,0,0-.05.44,3.58,3.58,0,0,0,1.61,2.8,2,2,0,0,0,.41.17,2,2,0,0,0,.06-.44A3.58,3.58,0,0,0,206.41,392.08Z" style="opacity:0.2"></path><path d="M208,394.38a3.75,3.75,0,0,0-1.13-2,1.18,1.18,0,0,0-.42.89,1.17,1.17,0,0,0,1.17,1.17A1,1,0,0,0,208,394.38Z" style="fill:#fafafa"></path><path d="M187.67,367.55a8.15,8.15,0,0,0,.41,3.4,10.4,10.4,0,0,0,4.3,4.58,37.69,37.69,0,0,1,9.4,7.39c2.2,2.37,5,6.79,10.51,9.3a21.83,21.83,0,0,0,15,.75c3.78-1.13,4.82-3.21,4.82-4.25Z" style="fill:#263238"></path><path d="M222.71,376.08c-5,2.25-7,4.7-11.29,0s-11-14.61-11.73-19.54c-.51-3.54-.93-8.23.94-10.89,1.63-2.32,12.24-3.63,13.27-1.24s-2,8.4-2.07,11.51S216,368.13,222.71,376.08Z" style="fill:#37474f"></path><path d="M213.68,348.49c.41-1.66.63-3.15.22-4.08-1-2.39-11.64-1.08-13.27,1.24a9.18,9.18,0,0,0-1.34,4.76c.64-3.35,3.78-4.69,6.09-5.27s6.23-.9,7.56,0A3.19,3.19,0,0,1,213.68,348.49Z" style="fill:#BA68C8"></path><path d="M203.21,360.24c-1.42-4.78-1.33-5.84-1.06-8.14s-.62-3.09-3.8-4a8.52,8.52,0,0,1-4.49-2.65l0-2.33s-1.64-.15-1.81,1.89a23.79,23.79,0,0,1-.71,5.83c-.71,2.39-4.2,10.34-3.67,17a15.13,15.13,0,0,0,5.75,6.8,43.5,43.5,0,0,1,10.92,9.4c2.47,2.9,6.54,7.61,14.86,8.4s12.91-3.71,12.91-3.71,3.63-5.94-1.86-10-10.13-8.28-13.46-13.23a32.59,32.59,0,0,1-3.89-6.92,13.39,13.39,0,0,1-.68-5.05s-1.36,3.49-.06,6.48a61.73,61.73,0,0,0,8.21,13.59c1,1.19-4.34,3.22-5.84,2S205.24,365.37,203.21,360.24Z" style="fill:#BA68C8"></path><path d="M223.06,375.48c.71-1.17.16-2.22-1-3.63a42.25,42.25,0,0,1-5.28-6.32,32.59,32.59,0,0,1-3.89-6.92,13.39,13.39,0,0,1-.68-5.05s-1.36,3.49-.06,6.48a61.73,61.73,0,0,0,8.21,13.59c1,1.19-4.34,3.22-5.84,2s-9.31-10.24-11.34-15.37c-1.42-4.78-1.33-5.84-1.06-8.14s-.62-3.09-3.8-4l-.18-.06,1.09,8.13c.6,3.95,1.94,7.38,6.42,13.3s5.77,7.55,8,8.61C217.05,379.72,222.14,377,223.06,375.48Z" style="fill:#f5f5f5;opacity:0.30000000000000004"></path><path d="M202,353.84c0-.56.07-1.1.15-1.74.26-2.3-.62-3.09-3.8-4a8.52,8.52,0,0,1-4.49-2.65l0-2.33s-1.64-.15-1.81,1.89a23.79,23.79,0,0,1-.71,5.83c-.71,2.39-4.2,10.34-3.67,17a15.13,15.13,0,0,0,5.75,6.8A35.23,35.23,0,0,1,197,377h0c1.32-2.71.3-8.45-1-11.51s-2.39-4.58-1.51-6.13S200.72,356.13,202,353.84Z" style="fill:#BA68C8"></path><path d="M202,353.84c0-.56.07-1.1.15-1.74.26-2.3-.62-3.09-3.8-4a8.52,8.52,0,0,1-4.49-2.65l0-2.33s-1.64-.15-1.81,1.89a23.79,23.79,0,0,1-.71,5.83c-.71,2.39-4.2,10.34-3.67,17a15.13,15.13,0,0,0,5.75,6.8A35.23,35.23,0,0,1,197,377h0c1.32-2.71.3-8.45-1-11.51s-2.39-4.58-1.51-6.13S200.72,356.13,202,353.84Z" style="opacity:0.2"></path><circle cx="199.77" cy="351.11" r="0.82" style="fill:#263238"></circle><path d="M194.28,375.14c.93-6-2.4-13.35-5.65-15.79a27.13,27.13,0,0,0-.94,8.48,15.13,15.13,0,0,0,5.75,6.8Z" style="fill:#37474f"></path><path d="M229.41,385.94a18.12,18.12,0,0,1-14.36.35c-4.34-2-5.32-1.25-6.62,1.85a19.69,19.69,0,0,0,10.79,4.29c8.31.8,12.91-3.71,12.91-3.71s2.05-3.36.74-6.73C232.88,382,232.62,384.35,229.41,385.94Z" style="fill:#37474f"></path><path d="M220.67,372.05a12.34,12.34,0,0,0-4.37.84,11.56,11.56,0,0,0-3.93,2.35c-.31.28.32.83.63.61a15.75,15.75,0,0,1,3.79-2.09,14.55,14.55,0,0,1,4-.79C221.46,372.92,221.22,372.06,220.67,372.05Z" style="fill:#BA68C8"></path><path d="M221,372.33a5.74,5.74,0,0,0-2.68-1.17,16.28,16.28,0,0,0-2.19-.32c.2-.27.4-.54.62-.8a9.2,9.2,0,0,1,.68-.72,2.51,2.51,0,0,0,.71-.78c.09-.21-.18-.55-.4-.48a3.77,3.77,0,0,0-1.6,1.26,14,14,0,0,0-1.1,1.44,23.82,23.82,0,0,0-2.53-.07,5.05,5.05,0,0,0-3,.76c-.17.15.07.55.28.51a19.94,19.94,0,0,1,2.88-.39c.58,0,1.17,0,1.76.06l-.84,1.34a24.86,24.86,0,0,0-1.37,2.27c-.2.42.49.91.78.51.49-.67.89-1.41,1.32-2.11s.78-1.3,1.19-1.94h0a19.13,19.13,0,0,1,2.37.28,10.1,10.1,0,0,1,1.61.44c.36.14.7.34,1.07.47S221.34,372.65,221,372.33Z" style="fill:#BA68C8"></path><path d="M218,368.19a5.83,5.83,0,0,0-2.69-1.17,16.05,16.05,0,0,0-2.19-.32c.2-.27.4-.54.62-.8s.45-.49.68-.72a3,3,0,0,0,.72-.78c.08-.21-.18-.55-.41-.48a3.83,3.83,0,0,0-1.6,1.26,14,14,0,0,0-1.1,1.44,23.75,23.75,0,0,0-2.53-.07,5,5,0,0,0-2.95.75c-.18.16.07.56.28.52a18.51,18.51,0,0,1,2.87-.39c.59,0,1.18,0,1.77.05-.29.45-.57.9-.85,1.35a26,26,0,0,0-1.36,2.26c-.2.43.48.92.78.52.48-.67.88-1.41,1.31-2.11s.79-1.3,1.2-1.94h0a18.91,18.91,0,0,1,2.37.28,9.82,9.82,0,0,1,1.61.44c.37.14.7.34,1.07.47S218.3,368.51,218,368.19Z" style="fill:#BA68C8"></path><path d="M215,364a11.28,11.28,0,0,0-3.76-1.37c.24-.26.47-.52.7-.79s.49-.62.71-.95.48-.65.42-1c0-.14-.18-.43-.37-.31a3,3,0,0,0-.71.94,12.14,12.14,0,0,1-.77,1c-.29.33-.59.66-.89,1-.34-.06-.68-.12-1-.16a21.47,21.47,0,0,0-2.89-.19,8.05,8.05,0,0,0-2.94.28c-.19.08-.11.43.08.45a22.47,22.47,0,0,0,2.72,0,24.46,24.46,0,0,1,2.84.17c.22,0,.43.06.64.09l-.21.23c-.56.62-1.11,1.25-1.65,1.9l-.81,1a5.23,5.23,0,0,0-.77,1c-.12.26.25.75.52.51a7.44,7.44,0,0,0,.86-1l.88-1.05c.57-.67,1.14-1.34,1.73-2l.39-.42c.36.07.72.14,1.08.23,1.08.28,2.1.73,3.17,1C215.27,364.62,215.16,364.13,215,364Z" style="fill:#BA68C8"></path><path d="M212.86,359.56c-1.19-.16-2.36-.37-3.53-.62a18.63,18.63,0,0,0,1.42-1.39,12.82,12.82,0,0,0,.88-1.07,2.59,2.59,0,0,0,.6-1.22c0-.18-.17-.41-.35-.29a3.8,3.8,0,0,0-.8,1,14.16,14.16,0,0,1-.93,1.12,19.62,19.62,0,0,1-1.7,1.59c-.52-.12-1-.26-1.54-.42-.94-.28-1.86-.6-2.77-1s-1.61-.75-2.44-1c-.23-.09-.23.29-.12.4A7.84,7.84,0,0,0,204,358c1,.4,2,.74,3,1,.28.09.56.16.84.23-.6.5-1.2,1-1.82,1.46-.38.29-.77.57-1.17.83s-.91.47-1.36.73c-.28.15.06.66.33.58a8.48,8.48,0,0,0,2.57-1.48c.79-.6,1.56-1.23,2.32-1.87l0,0a30.46,30.46,0,0,0,4.34.72C213.45,360.26,213.17,359.61,212.86,359.56Z" style="fill:#BA68C8"></path><path d="M101.08,383.89h0l.86-5.25h0a2.35,2.35,0,0,0-.66-1.89,7,7,0,0,0-6-2.15,2.34,2.34,0,0,0-1.72,1h0l-2.7,4.59h0a2.44,2.44,0,0,0-.14.28,2.73,2.73,0,0,0,.75,2.64,8.56,8.56,0,0,0,7.26,2.63A2.75,2.75,0,0,0,101,384.2,2.82,2.82,0,0,0,101.08,383.89Z" style="fill:#BA68C8"></path><path d="M93.46,379.64c1.15.82,4.75,2.88,7.81,3.13l.67-4.13h0a2.35,2.35,0,0,0-.66-1.89,7,7,0,0,0-6-2.15,2.34,2.34,0,0,0-1.72,1h0l-2.7,4.59h0a2.44,2.44,0,0,0-.14.28,2.73,2.73,0,0,0,.75,2.64,7.11,7.11,0,0,0,1.83,1.48C90.71,382.82,92.24,378.78,93.46,379.64Z" style="opacity:0.2"></path><path d="M84.52,345.18a3,3,0,0,0-2.25-2c-.87-.08-3.94-.4-4.82-.47a2.92,2.92,0,0,0-2.54,1.49,9.23,9.23,0,0,0-.81,8.31,2.91,2.91,0,0,0,2.23,2l4.8.47a2.91,2.91,0,0,0,2.57-1.49A9.23,9.23,0,0,0,84.52,345.18Z" style="fill:#BA68C8"></path><path d="M84.52,345.18a3,3,0,0,0-2.25-2c-.87-.08-3.94-.4-4.82-.47a2.92,2.92,0,0,0-2.54,1.49,9.23,9.23,0,0,0-.81,8.31,2.91,2.91,0,0,0,2.23,2l4.8.47a2.91,2.91,0,0,0,2.57-1.49A9.23,9.23,0,0,0,84.52,345.18Z" style="opacity:0.2"></path><path d="M79.71,344.71A9.2,9.2,0,0,1,78.9,353a2.54,2.54,0,0,1-4.8-.47,9.23,9.23,0,0,1,.81-8.31,2.55,2.55,0,0,1,4.8.47Z" style="fill:#BA68C8"></path><path d="M78,347.11a3.56,3.56,0,0,1-.31,3.22,1,1,0,0,1-1.86-.18,3.56,3.56,0,0,1,.31-3.22,1.16,1.16,0,0,1,1-.58A1.13,1.13,0,0,1,78,347.11Z" style="opacity:0.2"></path><path d="M78,347.11a1.81,1.81,0,0,0-.23-.37,1.85,1.85,0,0,0-.3.32,3.6,3.6,0,0,0-.32,3.22,1.48,1.48,0,0,0,.24.37,2.34,2.34,0,0,0,.3-.32A3.56,3.56,0,0,0,78,347.11Z" style="opacity:0.2"></path><path d="M77.92,349.89a3.73,3.73,0,0,0,.23-2.26,1.14,1.14,0,0,0-.86.47,1.18,1.18,0,0,0,.27,1.63A1,1,0,0,0,77.92,349.89Z" style="fill:#fafafa"></path><path d="M89.69,366.67a2.92,2.92,0,0,0-2.25-1.95l-4.82-.48a3,3,0,0,0-2.54,1.49,9.22,9.22,0,0,0-.81,8.32,2.93,2.93,0,0,0,2.23,2l4.8.47A2.91,2.91,0,0,0,88.87,375,9.25,9.25,0,0,0,89.69,366.67Z" style="fill:#BA68C8"></path><path d="M89.69,366.67a2.92,2.92,0,0,0-2.25-1.95l-4.82-.48a3,3,0,0,0-2.54,1.49,9.22,9.22,0,0,0-.81,8.32,2.93,2.93,0,0,0,2.23,2l4.8.47A2.91,2.91,0,0,0,88.87,375,9.25,9.25,0,0,0,89.69,366.67Z" style="opacity:0.2"></path><path d="M84.88,366.2a9.24,9.24,0,0,1-.81,8.32,2.54,2.54,0,0,1-4.8-.47,9.22,9.22,0,0,1,.81-8.32,2.55,2.55,0,0,1,4.8.47Z" style="fill:#BA68C8"></path><path d="M83.16,368.61a3.56,3.56,0,0,1-.31,3.22,1,1,0,0,1-1.86-.18,3.56,3.56,0,0,1,.31-3.22,1,1,0,0,1,1.86.18Z" style="opacity:0.2"></path><path d="M83.16,368.61a1.81,1.81,0,0,0-.23-.37,1.32,1.32,0,0,0-.3.32,3.6,3.6,0,0,0-.32,3.22,2.6,2.6,0,0,0,.23.37,1.89,1.89,0,0,0,.31-.32A3.56,3.56,0,0,0,83.16,368.61Z" style="opacity:0.2"></path><path d="M83.09,371.39a3.73,3.73,0,0,0,.23-2.26,1.11,1.11,0,0,0-.86.47,1.17,1.17,0,0,0,.27,1.63A1,1,0,0,0,83.09,371.39Z" style="fill:#fafafa"></path><path d="M82.2,337.75a8.14,8.14,0,0,0-1.65,3,10.38,10.38,0,0,0,.83,6.23,37.52,37.52,0,0,1,3.35,11.48c.4,3.21.14,8.46,3.13,13.67a21.77,21.77,0,0,0,11.78,9.35c3.73,1.29,5.78.21,6.39-.64Z" style="fill:#263238"></path><path d="M105.73,365.09c-5.35-1.07-8.47-.28-9.19-6.58s-.45-18.29,1.84-22.71c1.65-3.17,4-7.24,7.1-8.31,2.68-.93,12.07,4.17,11.52,6.72s-6.49,5.68-8.39,8.15S104.86,354.69,105.73,365.09Z" style="fill:#37474f"></path><path d="M114.44,337.39c1.3-1.1,2.35-2.19,2.56-3.18.55-2.55-8.84-7.65-11.52-6.72a9.09,9.09,0,0,0-3.85,3.1c2.46-2.36,5.79-1.62,8-.75s5.59,2.89,6.15,4.41A3.15,3.15,0,0,1,114.44,337.39Z" style="fill:#BA68C8"></path><path d="M99.09,340.86c1.63-4.71,2.32-5.52,3.87-7.24s1.3-2.88-.77-5.45a8.53,8.53,0,0,1-2.11-4.76l1.49-1.72a1.81,1.81,0,0,0-2.69.31,24.1,24.1,0,0,1-4,4.33c-2,1.53-9.43,6-12.86,11.67a15.1,15.1,0,0,0,.72,8.87,43.26,43.26,0,0,1,3.41,14c.32,3.79.89,10,7.19,15.48s12.66,4.5,12.66,4.5,6.41-2.72,4.29-9.18-3.43-12.63-3.25-18.59a32.8,32.8,0,0,1,.86-7.9,13.42,13.42,0,0,1,2.39-4.5s-3.13,2.05-3.82,5.23a61.64,61.64,0,0,0-1.23,15.84c.1,1.54-5.4.08-5.91-1.8S97.76,346.21,99.09,340.86Z" style="fill:#BA68C8"></path><path d="M106.36,364.8c1.26-.54,1.42-1.71,1.33-3.51a42.59,42.59,0,0,1-.62-8.21,32.8,32.8,0,0,1,.86-7.9,13.42,13.42,0,0,1,2.39-4.5s-3.13,2.05-3.82,5.23a61.64,61.64,0,0,0-1.23,15.84c.1,1.54-5.4.08-5.91-1.8s-1.6-13.74-.27-19.09c1.63-4.71,2.32-5.52,3.87-7.24s1.3-2.88-.77-5.45l-.11-.15-3.85,7.24c-1.8,3.56-2.72,7.14-2.51,14.56s.3,9.49,1.49,11.66C99,364.75,104.73,365.5,106.36,364.8Z" style="fill:#f5f5f5;opacity:0.30000000000000004"></path><path d="M101.83,335c.34-.44.7-.85,1.13-1.33,1.56-1.71,1.3-2.88-.77-5.45a8.53,8.53,0,0,1-2.11-4.76l1.49-1.72a1.81,1.81,0,0,0-2.69.31,24.1,24.1,0,0,1-4,4.33c-2,1.53-9.43,6-12.86,11.67a15.1,15.1,0,0,0,.72,8.87,35.71,35.71,0,0,1,1.5,4h0c2.65-1.43,5.16-6.7,5.85-10s.73-5.11,2.34-5.87S99.46,336.06,101.83,335Z" style="fill:#BA68C8"></path><path d="M101.83,335c.34-.44.7-.85,1.13-1.33,1.56-1.71,1.3-2.88-.77-5.45a8.53,8.53,0,0,1-2.11-4.76l1.49-1.72a1.81,1.81,0,0,0-2.69.31,24.1,24.1,0,0,1-4,4.33c-2,1.53-9.43,6-12.86,11.67a15.1,15.1,0,0,0,.72,8.87,35.71,35.71,0,0,1,1.5,4h0c2.65-1.43,5.16-6.7,5.85-10s.73-5.11,2.34-5.87S99.46,336.06,101.83,335Z" style="opacity:0.2"></path><path d="M102.27,331.91a.82.82,0,1,1-.19-1.14A.82.82,0,0,1,102.27,331.91Z" style="fill:#263238"></path><path d="M83.15,347.78c4.24-4.32,5.82-12.26,4.61-16.13A26.89,26.89,0,0,0,82.05,338a15.1,15.1,0,0,0,.72,8.87C82.9,347.17,83,347.47,83.15,347.78Z" style="fill:#37474f"></path><path d="M105.44,377a18.19,18.19,0,0,1-11.89-8.08c-2.38-4.12-3.59-4.11-6.45-2.35a19.63,19.63,0,0,0,6.27,9.77c6.3,5.49,12.66,4.5,12.66,4.5s3.62-1.54,4.52-5.05C110.53,375.85,109,377.57,105.44,377Z" style="fill:#37474f"></path><path d="M106.41,360.62a12.49,12.49,0,0,0-4-1.86,11.56,11.56,0,0,0-4.57-.37c-.41.05-.21.85.17.85a16,16,0,0,1,4.29.52,14,14,0,0,1,3.74,1.7C106.55,361.79,106.85,361,106.41,360.62Z" style="fill:#BA68C8"></path><path d="M106.53,361.05a5.78,5.78,0,0,0-1.5-2.51,15.5,15.5,0,0,0-1.6-1.54l1-.29c.32-.08.65-.14,1-.19a2.57,2.57,0,0,0,1-.22c.19-.12.17-.55,0-.62a3.8,3.8,0,0,0-2,.09,13.41,13.41,0,0,0-1.74.53,23.28,23.28,0,0,0-2-1.53,5,5,0,0,0-2.84-1.1c-.23,0-.26.49-.07.58a18.94,18.94,0,0,1,2.56,1.35c.48.34,1,.71,1.41,1.08l-1.47.6a23.74,23.74,0,0,0-2.43,1.05c-.41.23-.14,1,.34.87.78-.26,1.54-.63,2.3-.95s1.39-.6,2.1-.89h0a19.32,19.32,0,0,1,1.77,1.61,9.47,9.47,0,0,1,1.05,1.3c.21.32.37.68.59,1S106.61,361.5,106.53,361.05Z" style="fill:#BA68C8"></path><path d="M106.47,355.92a5.82,5.82,0,0,0-1.5-2.52,16.52,16.52,0,0,0-1.6-1.53c.32-.11.65-.21,1-.29s.65-.14,1-.19a2.71,2.71,0,0,0,1-.22.4.4,0,0,0,0-.63,3.9,3.9,0,0,0-2,.09,15.22,15.22,0,0,0-1.74.54,21.42,21.42,0,0,0-2-1.53,5,5,0,0,0-2.83-1.11c-.24,0-.27.49-.08.59a17.87,17.87,0,0,1,2.56,1.35c.49.34,1,.7,1.41,1.07l-1.47.61a24.65,24.65,0,0,0-2.43,1c-.41.23-.13,1,.34.87.78-.25,1.54-.63,2.3-.95s1.39-.6,2.1-.88h0a17.87,17.87,0,0,1,1.77,1.6,9.33,9.33,0,0,1,1,1.3c.22.33.37.68.6,1S106.55,356.37,106.47,355.92Z" style="fill:#BA68C8"></path><path d="M106.47,350.8a11.19,11.19,0,0,0-2.25-3.3c.35-.07.69-.15,1-.24a11.34,11.34,0,0,0,1.13-.35,1.54,1.54,0,0,0,.93-.58c.06-.13.11-.46-.11-.47a3,3,0,0,0-1.14.35,11.44,11.44,0,0,1-1.18.34l-1.3.28-.72-.72a22.93,22.93,0,0,0-2.24-1.83,7.88,7.88,0,0,0-2.56-1.49c-.2,0-.34.29-.2.42a23.44,23.44,0,0,0,2.24,1.55,23.67,23.67,0,0,1,2.21,1.79l.46.45-.3.07c-.82.18-1.63.37-2.44.58-.42.1-.83.21-1.25.33a5.05,5.05,0,0,0-1.2.37c-.25.14-.24.75.12.72a8.38,8.38,0,0,0,1.29-.32l1.32-.34c.85-.22,1.71-.42,2.57-.62l.57-.12c.25.27.5.54.74.82.72.86,1.28,1.82,2,2.7C106.35,351.44,106.54,351,106.47,350.8Z" style="fill:#BA68C8"></path><path d="M107.33,345.92c-.87-.82-1.71-1.67-2.51-2.56a18.16,18.16,0,0,0,2-.3,11.48,11.48,0,0,0,1.34-.37,2.3,2.3,0,0,0,1.2-.64c.11-.13.1-.43-.11-.43A4.07,4.07,0,0,0,108,342a10.1,10.1,0,0,1-1.41.37,20.19,20.19,0,0,1-2.32.31c-.34-.4-.68-.81-1-1.24-.6-.77-1.16-1.57-1.69-2.4s-.87-1.55-1.37-2.28c-.14-.2-.36.11-.33.26a7.81,7.81,0,0,0,1.2,2.48c.56.88,1.16,1.74,1.81,2.57.18.23.36.45.55.67-.78.05-1.56.1-2.33.13a13.83,13.83,0,0,1-1.44,0c-.52,0-1-.14-1.53-.2-.31,0-.33.58-.07.67a8.36,8.36,0,0,0,3,.29c1,0,2-.09,3-.17h0a30.44,30.44,0,0,0,3.11,3.11C107.4,346.83,107.56,346.14,107.33,345.92Z" style="fill:#BA68C8"></path><path d="M147.23,199.27c-6.83,4.93-11.86,16.26-11.86,24.12s3.14,17.09,3.38,19.31a40.52,40.52,0,0,1,.25,4.07,65.3,65.3,0,0,0,6.08,2.41c.85-5.13-.13-10.76-.23-13.23a64.45,64.45,0,0,1,3.05,14.9,44.31,44.31,0,0,0,17.88,3.83c9.64-.15,11.24-.67,11.24-.67l1.9,2.41a42.07,42.07,0,0,1,1.84-4,35.71,35.71,0,0,1,13.11-14.57c9.23-5.67,16-3.18,16-3.18s-5.13-9.63-9.46-16.87a34.41,34.41,0,0,0-1-7Z" style="fill:#37474f"></path><path d="M178.92,256.42s.35-.92,1-2.37l-1-1.14,2.34-17s11-5.19,12.53-14c-5.11,8-15.87,12-15.87,12,.33,5.64-1,20.1-1,20.1Z" style="fill:#263238"></path><path d="M156.51,200.56a40.6,40.6,0,0,0-9.59,29.15c.21,3.72.66,7.32,1.1,10.81a87.22,87.22,0,0,1,.92,10.78l1,.41a81.57,81.57,0,0,0-.93-11.32c-.44-3.47-.88-7-1.09-10.74-.62-11,3-21.46,9.8-28.92Z" style="fill:#fafafa"></path><path d="M143.86,248.78c0-2.9-.36-6.23-.74-9.82s-.75-7.07-.89-10.76a39.54,39.54,0,0,1,9.9-28.25l-1.24-.17a40.7,40.7,0,0,0-9.69,28.46c.14,3.72.53,7.33.9,10.82s.69,6.58.73,9.33Z" style="fill:#fafafa"></path><path d="M226.89,266.88c-.22-.75-.51-1.57-.85-2.48-10.64-1.27-26.59,10-29.73,13.07h0c1.22,1.84,1.95,3.31,1.95,4.29a64.37,64.37,0,0,0-3.15,7.37s14.9,7.24,29.39,5.9h0c1-3.39,1.93-6.28,2.64-8.33C230.93,275.75,228.15,271.05,226.89,266.88Z" style="fill:#455a64"></path><path d="M230,281.89a13.54,13.54,0,0,1-15.42,11.35c-4-1.43-7.9-7.49-6.69-14.94s6.92-12.73,11.07-12.06A13.54,13.54,0,0,1,230,281.89Z" style="fill:#263238"></path><path d="M173.8,282.77c.24-1.06.51-2,.79-3-7.67-7.48-26.21-10.33-30.57-9.79,0,0,.32,3.68-.49,4.49s-5.27,2-7.71,4.47c0,0,7.16,16.49,19.48,24.23h0c3.42-2.07,5.73-3.6,7.49-4.87C171.61,291.93,172.82,287,173.8,282.77Z" style="fill:#455a64"></path><path d="M168.18,296.64a13.55,13.55,0,0,1-19.15-.37c-2.33-3.58-1.72-10.74,3.78-15.93s13.23-5.9,16.12-2.84A13.55,13.55,0,0,1,168.18,296.64Z" style="fill:#263238"></path></g><g id="freepik--Top--inject-132"><g id="freepik--Arm--inject-132"><path d="M229.26,206.07c-2.17,5.43-7.43,7.35-12.86,5.17s-9-7.62-6.81-13.05a10.59,10.59,0,0,1,19.67,7.88Z" style="fill:#263238"></path><path d="M205.12,136.75c12,1.66,17.57,12.33,18.88,20.79,1,6.33,5.15,36.17,5.41,41.23,0,0-14.61,7.08-14.78,6.79-2.14-3.77-12.78-42.32-12.78-42.32Z" style="fill:#ffa8a7"></path><path d="M223.75,187c9.22-5.63,16.16-7.33,22.55-12.13,1.43-1.07,1.5-2.42,2-4.2s2.65-5.87,3.45-7.68a51.64,51.64,0,0,0,2.23-5.59,1.8,1.8,0,0,1,.16-.38c.37-.53,1.23-.29,1.69.17a4.43,4.43,0,0,1,.94,3.56,38.4,38.4,0,0,0-.47,4c1,.28,3.56-2.45,5.19-4.86a25.14,25.14,0,0,0,2.18-3.89,15.84,15.84,0,0,1,2.37-4.38A2.11,2.11,0,0,1,268,151a.72.72,0,0,1,.38.13.8.8,0,0,1,.13.7c-.2,1.46-.21,1.06-.41,2.52a1.85,1.85,0,0,0,0,.62,2.3,2.3,0,0,0,.44.83,4.79,4.79,0,0,1,.6,3.8,5.48,5.48,0,0,0-.33,1.37,3.68,3.68,0,0,0,.37,1.37,4.9,4.9,0,0,1,.58,3c-.16.66-.59,1.24-.75,1.9a11.72,11.72,0,0,0-.08,2,8.05,8.05,0,0,1-2.41,5,59.48,59.48,0,0,1-6.4,5.72,60.81,60.81,0,0,0-5.54,4.13c-1.08.94-2.19,1.75-3.27,2.68-4.29,3.66-7.68,6.89-12,10.54-5.18,4.4-6.25,5.42-8.35,7-2.51,1.87-7.54,4.81-13.15,4C212.05,207.39,212.26,194,223.75,187Z" style="fill:#ffa8a7"></path><path d="M256.94,168s.14,5.93-6.56,10.63C253.75,177.27,258.72,174.53,256.94,168Z" style="fill:#f28f8f"></path><path d="M227.06,179.29s.75.16.81,1.51.26,3.21.26,3.21,2.7-1.37,2.64-.91c-2,1.82-6.87,7.08-5.15,13.5s6.93,6.41,6.93,6.41l.74-.69s.46.37-2,2.16-7,5.18-11.25,5-5.4-2.21-7.42-7A102.32,102.32,0,0,1,208.44,189c-.49-1.93.07-2.34.07-2.34l.48,1.62a11.87,11.87,0,0,0,9.89,0c5-2.47,8.29-8.19,8.29-8.19Z" style="fill:#455a64"></path><path d="M228.13,184l-.12-1.28c-7.42,4.94-8.69,9.44-8.8,12.43C220.62,189.67,226.34,185.28,228.13,184Z" style="fill:#37474f"></path></g><g id="freepik--Chest--inject-132"><path d="M147.23,199.27c3.43-3.56,7.88-8,8.62-12.33a84,84,0,0,0,.76-14.7c-.22-5.93.47-21,2.5-26s14.19-8.32,28.37-10.23,20,2,22.8,7.46,6.84,20,6.24,29.52-8.82,13.57-8.82,13.57-6.37,7.69-7.83,11.63c-1,2.73-.41,6.51-.4,12.58,0,0-8.29,4.72-23.49,2.9C155.82,211.26,147.23,199.27,147.23,199.27Z" style="fill:#ffa8a7"></path><path d="M205,190.3l.19-.26h0l2.56-3.48s9.7-4.47,11.32-15.71c1.34-9.4-4.07-20.31-7.17-25.58s-5.7-7.87-6.73-8.52a92.71,92.71,0,0,0-15.89-.49c-7.39.35-11.74.63-18.6,1.5a15.16,15.16,0,0,0-11.52,8.48c-2,5-3.15,19-2.93,24.95.08,2,.1,6.43,0,8.76,0,0,4,14.1,28.76,16.08,11.1.89,19.31-4.93,20-5.73" style="fill:#f5f5f5"></path><path d="M205,190.3l.19-.26h0l2.54-3.5h0a21.73,21.73,0,0,0,5.71-4.38,20.64,20.64,0,0,0,4-6,20.29,20.29,0,0,0,1.64-7,27.89,27.89,0,0,0-.59-7.17,52.83,52.83,0,0,0-5-13.5,62.65,62.65,0,0,0-3.69-6.21c-.69-1-1.4-2-2.17-2.87A14.44,14.44,0,0,0,205,137l.1,0a87.6,87.6,0,0,0-10.38-.57c-3.47,0-6.94.2-10.41.4s-6.93.47-10.38.87a38.19,38.19,0,0,0-5.1.78,14.16,14.16,0,0,0-4.57,2.18,13.34,13.34,0,0,0-5.63,8.22A78.5,78.5,0,0,0,157,159.13c-.34,3.45-.57,6.92-.59,10.39s0,7,0,10.44v-.07a17.52,17.52,0,0,0,3.62,5.8,26.87,26.87,0,0,0,5.35,4.39,39.15,39.15,0,0,0,13,4.85,66.58,66.58,0,0,0,6.9,1,28.31,28.31,0,0,0,6.94-.3,31.25,31.25,0,0,0,6.71-1.87A23.11,23.11,0,0,0,205,190.3a23.32,23.32,0,0,1-6,3.51,31.16,31.16,0,0,1-6.71,2,28.71,28.71,0,0,1-7,.4,62.63,62.63,0,0,1-6.95-.91,39.59,39.59,0,0,1-13.11-4.84c-3.94-2.48-7.53-5.89-9.2-10.41v-.08c0-3.47,0-6.92,0-10.42s.22-7,.55-10.44A77.21,77.21,0,0,1,158,148.73a23.15,23.15,0,0,1,.77-2.54,10.69,10.69,0,0,1,1.32-2.33,15.9,15.9,0,0,1,3.75-3.75,14.66,14.66,0,0,1,4.78-2.29,39.47,39.47,0,0,1,5.21-.77c3.46-.38,6.94-.64,10.42-.83a112.18,112.18,0,0,1,20.89.28h.05l0,0a14.68,14.68,0,0,1,2.64,2.58,36.46,36.46,0,0,1,2.18,2.93,61.73,61.73,0,0,1,3.7,6.27,53.4,53.4,0,0,1,5,13.63,28.08,28.08,0,0,1,.56,7.26,20.5,20.5,0,0,1-5.84,13.05,21.4,21.4,0,0,1-5.8,4.33h0L205.14,190h0Z" style="fill:#e0e0e0"></path><path d="M198,184.5c-3.54,3.84-17.36,6.06-25.14-3.2C174.09,189.11,190.41,195,198,184.5Z" style="fill:#e0e0e0"></path><path d="M146.56,199.78l6.51-7.08a39.2,39.2,0,0,0,9.52,9.08c11,7,19.71,7.41,25.5,7,7.91-.62,11.25-3.45,11.25-3.45l.8,9.49s-5,3.35-14.15,3.66c-8.3.29-20.38-1.45-30.93-9.36A37.09,37.09,0,0,1,146.56,199.78Z" style="fill:#BA68C8"></path></g><g id="freepik--Head--inject-132"><path d="M177.33,118.92c-2.83.11-3.53,2.78-3.83,5.53a2.9,2.9,0,0,0-2.91.86,6.53,6.53,0,0,0-1.76,3.25c-2.76-.43-3.52-.06-4.85.64a9.86,9.86,0,0,0-2.11,1.85,8.71,8.71,0,0,0-5.3-1.05,4.14,4.14,0,0,0-3,1.8,4.65,4.65,0,0,0-3.24-2.14,5.48,5.48,0,0,0-3.37.46,2.42,2.42,0,0,0-1.59-2c-1.77-.53-2.54.28-3.63.1a2.51,2.51,0,0,1-2-1.59,4.74,4.74,0,0,0,6.47,4.59c-.52,2.31,3.73,3.15,5.09,1.93a5.42,5.42,0,0,0,8,.79c1.9,2.87,7.17,1.8,8.09-1,2.06,1.42,5.12,1.57,5.9-1.21,1.83.3,4.52.89,5.33-1.76a3.82,3.82,0,0,0,4-.6c1.17-1,1-2.77,1.2-4.25C184.1,122.57,180.75,117.07,177.33,118.92Z" style="fill:#37474f"></path><path d="M188.22,113.63c-2.81-.3-3.89,2.25-4.57,4.93a2.9,2.9,0,0,0-3,.44,6.48,6.48,0,0,0-2.2,3c-2.68-.82-3.48-.56-4.89,0a9.78,9.78,0,0,0-2.36,1.53,8.71,8.71,0,0,0-5.09-1.79,4.2,4.2,0,0,0-3.24,1.35,4.64,4.64,0,0,0-2.9-2.57,5.48,5.48,0,0,0-3.4,0,2.45,2.45,0,0,0-1.3-2.21c-1.67-.77-2.55-.08-3.6-.41a2.45,2.45,0,0,1-1.75-1.86,4.73,4.73,0,0,0,5.75,5.46c-.84,2.22,3.24,3.65,4.76,2.63a5.43,5.43,0,0,0,7.8,1.92c1.48,3.1,6.85,2.79,8.15.13,1.85,1.7,4.85,2.28,6-.36,1.77.56,4.36,1.53,5.53-1a3.81,3.81,0,0,0,4,0c1.3-.8,1.41-2.59,1.8-4C194.41,118.2,191.87,112.28,188.22,113.63Z" style="fill:#37474f"></path><path d="M186.47,136c-1.77-1.88-5.47-7.23-9.66-11.46-5.82-5.88-10.05-20-.67-23.09.33-14.11,19.19-17.09,28.27-15,24.91,5.61,13.48,25.09,13.48,25.09Z" style="fill:#37474f"></path><path d="M215.17,101.79c2.64,3.31,3.65,6.92,1.71,21.18-1.52,11.14-5.09,12.79-8.91,13.84a20.24,20.24,0,0,1-8.53-.28l-1.95,4.82s7.16,7.62,3.63,20.3c-20.73-11.25-23-22.84-23-22.84l5.22-17.16c-1,1.41-5.08,2.55-7.67-1.27-2.9-4.28-1.55-9.14,1.45-10.63s6.28.55,7.23,4c.68,2.31,2.95,2.88,4.39.25,1.28-2.34,1.76-7.42,2.23-13C198.29,98.12,207.85,96.85,215.17,101.79Z" style="fill:#ffa8a7"></path><polygon points="205.22 111.43 206.19 123.58 212.34 121.32 205.22 111.43" style="fill:#f28f8f"></polygon><path d="M214.12,95.63c1.87,5-1.48,13-8.59,16.39,1.27-3.39.56-9.49.56-9.49S203.4,116.34,187,114.39L184.88,101C191.62,95.1,205,90.73,214.12,95.63Z" style="fill:#37474f"></path><path d="M199.44,136.53c-8.62-2.26-14.54-7.27-15.11-11.17a12.63,12.63,0,0,0,2.84,6.9c3.4,3.94,11.51,6.15,11.51,6.15Z" style="fill:#f28f8f"></path><path d="M206.84,127l-6.59-2.43a3.34,3.34,0,0,0,1.94,4.47A3.7,3.7,0,0,0,206.84,127Z" style="fill:#b16668"></path><path d="M203.69,129.2a3.52,3.52,0,0,1-1.5-.2,3.34,3.34,0,0,1-2.18-2.83A4.06,4.06,0,0,1,203.69,129.2Z" style="fill:#f28f8f"></path><path d="M197.66,115.08a1.91,1.91,0,1,0,1.91-1.9A1.89,1.89,0,0,0,197.66,115.08Z" style="fill:#263238"></path><path d="M211.45,114.74a1.91,1.91,0,1,0,1.91-1.9A1.91,1.91,0,0,0,211.45,114.74Z" style="fill:#263238"></path><path d="M216.41,111.85,212,110.34a2.23,2.23,0,0,1,2.88-1.47A2.43,2.43,0,0,1,216.41,111.85Z" style="fill:#263238"></path><path d="M195.5,111l4.31-1.86a2.27,2.27,0,0,0-3-1.27A2.45,2.45,0,0,0,195.5,111Z" style="fill:#263238"></path><path d="M197.88,119.88c-.11,1.63-2,2.84-4.22,2.69s-3.94-1.58-3.83-3.21,2-2.83,4.22-2.69S198,118.25,197.88,119.88Z" style="fill:#f28f8f"></path><path d="M221.93,117.91c.39,1.58-1,3.3-3.21,3.84s-4.23-.31-4.62-1.9,1-3.3,3.2-3.84S221.53,116.32,221.93,117.91Z" style="fill:#f28f8f"></path></g><g id="freepik--arm--inject-132"><path d="M144.37,226.05c-1.65-2.49-2.86-4.3-3-5.25,0-1.52,3,1.77,4.21,2.31a4.18,4.18,0,0,0,3.12.39c.68-.13,1.63-1,1.41-1.71,0-.14-.17-.2-.28-.29a39.49,39.49,0,0,1-4.57-4.9,21.49,21.49,0,0,0-4.1-3.88,11.39,11.39,0,0,1-4.13-5.93c-2.22-9.1-3-16.14-4-25.06,8.28-4.57,21.15-11.18,24.38-12.84a35.21,35.21,0,0,0,7.15-4.56,22.75,22.75,0,0,0,6.62-11.6c1.11-4.51,2-11-.58-15-12.29.27-14.47,3.93-20.1,8-3.9,2.8-10.07,7.69-16.62,12A137.88,137.88,0,0,0,118,170c-1.81,1.67-4.05,3.47-2.89,8.75A140,140,0,0,0,119,193.46c1.21,3.86,2,5.52,4.07,11.78.4,1.21,1,3.11,1.68,5.36s1.32,5.44,1.79,7.75a43.4,43.4,0,0,0,2,7c.82,2,3.51,6.61,5.22,7.76.6.41,1.24.42,1.81.83s.91,1,1.52,1.38c.92.57,1.57.24,2.76-.08a2.33,2.33,0,0,1,1.43,0,7,7,0,0,1,1.19.78,4.14,4.14,0,0,0,4.42-.15l3.28,1.75a.94.94,0,0,0,.67.13.52.52,0,0,0,.3-.32,2.67,2.67,0,0,0,.13-2,7.25,7.25,0,0,0-2.09-3.24A75.9,75.9,0,0,1,144.37,226.05Z" style="fill:#ffa8a7"></path><path d="M137.69,179.21c-6.18.73-12.43-13.74-11.86-15.71l1.18-.88c-.55-1-8.88,6-11.43,8.74s-1.35,5.77-.78,8.84a40.29,40.29,0,0,0,2.38,7.16,17.57,17.57,0,0,0,8.66,2.65,13.57,13.57,0,0,0,7.91-2.25l-.64-5.59,2.84-1.52c2.84-1.52,2.87-2,2.87-2Z" style="fill:#455a64"></path><path d="M124,163c2.81,8.12-1.53,20-8.17,22.75C107.25,178.52,112.51,162.62,124,163Z" style="fill:#263238"></path></g></g></g></g><g id="freepik--speech-bubble--inject-132"><g id="freepik--speech-bubble--inject-132"><g id="freepik--speech-bubble--inject-132"><path d="M286.53,117.65a25.17,25.17,0,0,1-20.36,4.13l-2.78-.8a25.24,25.24,0,0,1,12.75-48.67L279,73a25.24,25.24,0,0,1,7.57,44.67Z" style="fill:#fafafa"></path><path id="freepik--Heart--inject-132" d="M271.75,112.72c-17.82-9.5-19.26-19.68-14.07-24.66,4.64-4.46,13.13-1.52,14.07,4.85.95-6.37,9.44-9.31,14.08-4.85C291,93,289.58,103.22,271.75,112.72Z" style="fill:#BA68C8"></path><path d="M295.4,83.34a27.39,27.39,0,0,0-49.26,23.53l-5.3,6.66a1.59,1.59,0,0,0,1.5,2.56l8.4-1.35a27.39,27.39,0,0,0,44.66-31.4ZM284.5,119a25.17,25.17,0,0,1-18.33,2.81l-2.78-.8a25.24,25.24,0,0,1,12.75-48.67L279,73a25.24,25.24,0,0,1,5.54,46Z" style="fill:#455a64"></path></g></g></g></svg>