<svg xmlns="http://www.w3.org/2000/svg" viewBox="0 0 500 500"><g id="freepik--background-simple--inject-150"><path d="M439.56,104.47a170.77,170.77,0,0,0-25.47-29.83C362.73,27,279.46.87,211.59,24.8,164.09,41.55,124,81.11,108.46,129.26c-1.77,5.49-2.73,11.27-4.78,16.66-10,26.36-39.45,44.18-57.26,65.23-20.59,24.34-32,53.44-31.34,85.51,1.75,90.21,80.31,167,245,161.79s229.3-72.75,218.24-161.21c-5.4-43.24-5.35-86.84-13-129.83A165.52,165.52,0,0,0,439.56,104.47Z" style="fill:#92E3A9"></path><path d="M439.56,104.47a170.77,170.77,0,0,0-25.47-29.83C362.73,27,279.46.87,211.59,24.8,164.09,41.55,124,81.11,108.46,129.26c-1.77,5.49-2.73,11.27-4.78,16.66-10,26.36-39.45,44.18-57.26,65.23-20.59,24.34-32,53.44-31.34,85.51,1.75,90.21,80.31,167,245,161.79s229.3-72.75,218.24-161.21c-5.4-43.24-5.35-86.84-13-129.83A165.52,165.52,0,0,0,439.56,104.47Z" style="fill:#fff;opacity:0.8"></path></g><g id="freepik--Clouds--inject-150"><path d="M421.44,54.27s-3.39-17.53-18.65-23.74-24.87,1.69-27.13,7.34-2.83,15.27-11.31,11.31-11.87-8.48-22.61-4-7.35,14.14-15.26,15.83-5.09-2.82-13.57-1.69-7.92,6.21-10.18,9-2.26.57-10.17,1.7a25,25,0,0,0-13,6.21H454.23s4.52-9-7.35-15.82S424.83,61.05,421.44,54.27Z" style="fill:none;stroke:#000;stroke-linecap:round;stroke-linejoin:round;opacity:0.30000000000000004"></path><path d="M184.91,91.81s-2.2-11.35-12.09-15.38-16.11,1.1-17.58,4.76-1.83,9.89-7.32,7.33S140.23,83,133.27,86s-4.76,9.16-9.89,10.26-3.29-1.83-8.79-1.1-5.13,4-6.59,5.86-1.47.37-6.59,1.1a16.18,16.18,0,0,0-8.43,4H206.15s2.93-5.86-4.76-10.26S187.11,96.21,184.91,91.81Z" style="fill:none;stroke:#000;stroke-linecap:round;stroke-linejoin:round;opacity:0.30000000000000004"></path><path d="M112.22,168.13s-1.26-6.51-6.93-8.82S96,159.94,95.2,162s-1,5.67-4.2,4.2-4.41-3.15-8.4-1.47-2.73,5.25-5.67,5.88-1.89-1.05-5-.63-2.94,2.32-3.78,3.37-.84.21-3.78.63a9.28,9.28,0,0,0-4.83,2.31h64.9s1.68-3.36-2.73-5.89S113.48,170.65,112.22,168.13Z" style="fill:none;stroke:#000;stroke-linecap:round;stroke-linejoin:round;opacity:0.30000000000000004"></path></g><g id="freepik--Buildings--inject-150"><g style="opacity:0.30000000000000004"><polyline points="44.18 349.62 87.83 349.62 87.83 203.54 126.24 203.54 126.24 307.72 141.37 307.72 141.37 173.28 169.88 173.28 169.88 148.84 189.09 148.84 189.09 310.05 219.35 310.05 219.35 119.74 310.14 119.74 310.14 301.32 347.97 301.32 347.97 322.27 367.18 322.27 367.18 214.02 426.85 214.02 426.85 189.58 449.24 189.58 449.24 325.76 477.75 325.76 477.75 351.95 486.48 351.95" style="fill:none;stroke:#000;stroke-miterlimit:10"></polyline><rect x="95.39" y="326.92" width="6.98" height="16.88" style="fill:none;stroke:#000;stroke-miterlimit:10"></rect><rect x="108.78" y="311.21" width="6.98" height="16.88" style="fill:none;stroke:#000;stroke-miterlimit:10"></rect><rect x="148.35" y="187.83" width="6.98" height="16.88" style="fill:none;stroke:#000;stroke-miterlimit:10"></rect><rect x="148.35" y="211.11" width="6.98" height="16.88" style="fill:none;stroke:#000;stroke-miterlimit:10"></rect><rect x="148.35" y="234.39" width="6.98" height="16.88" style="fill:none;stroke:#000;stroke-miterlimit:10"></rect><rect x="148.35" y="257.67" width="6.98" height="16.88" style="fill:none;stroke:#000;stroke-miterlimit:10"></rect><rect x="148.35" y="280.95" width="6.98" height="16.88" style="fill:none;stroke:#000;stroke-miterlimit:10"></rect><rect x="148.35" y="304.23" width="6.98" height="16.88" style="fill:none;stroke:#000;stroke-miterlimit:10"></rect><rect x="148.35" y="327.51" width="6.98" height="16.88" style="fill:none;stroke:#000;stroke-miterlimit:10"></rect><rect x="317.13" y="332.45" width="6.98" height="16.88" style="fill:none;stroke:#000;stroke-miterlimit:10"></rect><rect x="338.08" y="332.45" width="6.98" height="16.88" style="fill:none;stroke:#000;stroke-miterlimit:10"></rect><rect x="95.39" y="290.84" width="6.98" height="16.88" style="fill:none;stroke:#000;stroke-miterlimit:10"></rect><rect x="108.78" y="275.13" width="6.98" height="16.88" style="fill:none;stroke:#000;stroke-miterlimit:10"></rect><rect x="95.39" y="254.76" width="6.98" height="16.88" style="fill:none;stroke:#000;stroke-miterlimit:10"></rect><rect x="108.78" y="239.04" width="6.98" height="16.88" style="fill:none;stroke:#000;stroke-miterlimit:10"></rect><line x1="159.41" y1="203.54" x2="181.52" y2="203.54" style="fill:none;stroke:#000;stroke-miterlimit:10"></line><line x1="159.41" y1="226.82" x2="181.52" y2="226.82" style="fill:none;stroke:#000;stroke-miterlimit:10"></line><line x1="159.41" y1="250.1" x2="181.52" y2="250.1" style="fill:none;stroke:#000;stroke-miterlimit:10"></line><line x1="159.41" y1="273.38" x2="181.52" y2="273.38" style="fill:none;stroke:#000;stroke-miterlimit:10"></line><line x1="159.41" y1="296.66" x2="181.52" y2="296.66" style="fill:none;stroke:#000;stroke-miterlimit:10"></line><line x1="159.41" y1="319.94" x2="181.52" y2="319.94" style="fill:none;stroke:#000;stroke-miterlimit:10"></line><line x1="375.32" y1="296.08" x2="441.67" y2="296.08" style="fill:none;stroke:#000;stroke-miterlimit:10"></line><line x1="375.32" y1="307.72" x2="441.67" y2="307.72" style="fill:none;stroke:#000;stroke-miterlimit:10"></line><line x1="375.32" y1="319.36" x2="441.67" y2="319.36" style="fill:none;stroke:#000;stroke-miterlimit:10"></line><line x1="375.32" y1="331" x2="441.67" y2="331" style="fill:none;stroke:#000;stroke-miterlimit:10"></line><line x1="375.32" y1="249.52" x2="441.67" y2="249.52" style="fill:none;stroke:#000;stroke-miterlimit:10"></line><line x1="375.32" y1="261.16" x2="441.67" y2="261.16" style="fill:none;stroke:#000;stroke-miterlimit:10"></line><line x1="375.32" y1="272.8" x2="441.67" y2="272.8" style="fill:none;stroke:#000;stroke-miterlimit:10"></line><line x1="375.32" y1="284.44" x2="441.67" y2="284.44" style="fill:none;stroke:#000;stroke-miterlimit:10"></line><line x1="375.32" y1="226.24" x2="441.67" y2="226.24" style="fill:none;stroke:#000;stroke-miterlimit:10"></line><line x1="375.32" y1="237.88" x2="441.67" y2="237.88" style="fill:none;stroke:#000;stroke-miterlimit:10"></line><line x1="226.92" y1="129.63" x2="292.68" y2="129.63" style="fill:none;stroke:#000;stroke-miterlimit:10"></line><line x1="226.92" y1="145.35" x2="292.68" y2="145.35" style="fill:none;stroke:#000;stroke-miterlimit:10"></line><line x1="226.92" y1="161.06" x2="292.68" y2="161.06" style="fill:none;stroke:#000;stroke-miterlimit:10"></line><line x1="226.92" y1="176.77" x2="292.68" y2="176.77" style="fill:none;stroke:#000;stroke-miterlimit:10"></line><line x1="226.92" y1="192.49" x2="292.68" y2="192.49" style="fill:none;stroke:#000;stroke-miterlimit:10"></line><line x1="226.92" y1="208.2" x2="292.68" y2="208.2" style="fill:none;stroke:#000;stroke-miterlimit:10"></line><line x1="226.92" y1="223.91" x2="292.68" y2="223.91" style="fill:none;stroke:#000;stroke-miterlimit:10"></line><line x1="226.92" y1="239.63" x2="292.68" y2="239.63" style="fill:none;stroke:#000;stroke-miterlimit:10"></line><line x1="226.92" y1="255.34" x2="292.68" y2="255.34" style="fill:none;stroke:#000;stroke-miterlimit:10"></line><line x1="226.92" y1="271.05" x2="292.68" y2="271.05" style="fill:none;stroke:#000;stroke-miterlimit:10"></line><line x1="226.92" y1="286.77" x2="292.68" y2="286.77" style="fill:none;stroke:#000;stroke-miterlimit:10"></line><line x1="226.92" y1="302.48" x2="292.68" y2="302.48" style="fill:none;stroke:#000;stroke-miterlimit:10"></line><line x1="226.92" y1="318.19" x2="292.68" y2="318.19" style="fill:none;stroke:#000;stroke-miterlimit:10"></line><line x1="226.92" y1="333.91" x2="292.68" y2="333.91" style="fill:none;stroke:#000;stroke-miterlimit:10"></line><line x1="226.92" y1="349.62" x2="292.68" y2="349.62" style="fill:none;stroke:#000;stroke-miterlimit:10"></line></g></g><g id="freepik--Trees--inject-150"><path d="M464.32,217.76c0,37.75-32.3,68.35-72.14,68.35S320,255.51,320,217.76s32.3-92.41,72.14-92.41S464.32,180,464.32,217.76Z" style="fill:#92E3A9"></path><path d="M464.32,217.76c0,37.75-32.3,68.35-72.14,68.35S320,255.51,320,217.76s32.3-92.41,72.14-92.41S464.32,180,464.32,217.76Z" style="fill:#fff;opacity:0.32"></path><polygon points="386.04 422.3 387.19 275.38 365.34 242.45 387.17 266.75 387.17 241.46 375.26 202.77 388.16 233.52 390.4 183.24 391.63 237.98 392.13 246.91 426.85 214.67 393.62 253.85 393.12 266.75 407.5 254.85 421.88 233.02 411.74 253.49 434.29 252.37 409.98 256.07 394.11 271.45 395.1 422.26 386.04 422.3" style="fill:#787878"></polygon><path d="M276.07,230.33c0,35.43-30.32,64.15-67.71,64.15s-67.71-28.72-67.71-64.15S171,143.6,208.36,143.6,276.07,194.89,276.07,230.33Z" style="fill:#92E3A9"></path><path d="M276.07,230.33c0,35.43-30.32,64.15-67.71,64.15s-67.71-28.72-67.71-64.15S171,143.6,208.36,143.6,276.07,194.89,276.07,230.33Z" style="fill:#fff;opacity:0.32"></path><polygon points="202.6 422.3 203.67 284.41 183.17 253.5 203.65 276.31 203.65 252.57 192.48 216.26 204.58 245.12 206.69 197.94 207.84 249.31 208.31 257.69 240.89 227.43 209.7 264.21 209.24 276.31 222.74 265.14 236.24 244.66 226.72 263.87 247.88 262.81 225.06 266.29 210.17 280.72 211.1 422.27 202.6 422.3" style="fill:#787878"></polygon><path d="M119.25,283.41c0,25.63-21.93,46.41-49,46.41s-49-20.78-49-46.41,21.93-62.75,49-62.75S119.25,257.77,119.25,283.41Z" style="fill:#92E3A9"></path><path d="M119.25,283.41c0,25.63-21.93,46.41-49,46.41s-49-20.78-49-46.41,21.93-62.75,49-62.75S119.25,257.77,119.25,283.41Z" style="fill:#fff;opacity:0.32"></path><polygon points="66.1 422.3 66.87 322.54 52.04 300.17 66.86 316.68 66.86 299.5 58.78 273.23 67.53 294.11 69.06 259.97 69.89 297.14 70.23 303.2 93.81 281.31 71.24 307.92 70.9 316.68 80.67 308.59 90.44 293.77 83.55 307.67 98.86 306.91 82.35 309.43 71.58 319.87 72.25 422.27 66.1 422.3" style="fill:#787878"></polygon></g><g id="freepik--Hill--inject-150"><path d="M464,422.7c-13.6-8.5-66.51-35.83-150.32-44-147.72-14.36-224.28,31.6-258,44Z" style="fill:#92E3A9"></path><path d="M229.25,422.37c32-7,41.9-9.9,40.15-22.12s-28.51-14-15.71-18.62c7.4-2.69,43.76-2.27,73.14-1.44q-6.46-.81-13.2-1.47a554.27,554.27,0,0,0-71-2.5c-20.07,4.5-33.25,9.66-23.3,13,21,7,30.85,8.14.59,16.29S80.4,422.27,80.4,422.27l3.58.43H227.7Z" style="fill:#e0e0e0"></path></g><g id="freepik--Plants--inject-150"><line x1="403.69" y1="422.7" x2="403.71" y2="389.22" style="fill:none;stroke:#263238;stroke-linecap:round;stroke-linejoin:round"></line><polyline points="388.66 397.18 403.41 408.79 413.73 395.68" style="fill:none;stroke:#263238;stroke-linecap:round;stroke-linejoin:round"></polyline><path d="M403.47,394.35a17.43,17.43,0,0,1-4.87-7.86c-1.36-4.85,5.21-13.67,5.21-13.67s4.3,9,4.76,13.18S403.47,394.35,403.47,394.35Z" style="fill:#263238;stroke:#263238;stroke-linecap:round;stroke-miterlimit:10"></path><path d="M410,400.27a57.1,57.1,0,0,1,.53-7.54c.5-2.7,4.32-4.41,7.09-5.08s8.1.12,8.1.12a14.32,14.32,0,0,1-5,8.76C416.38,400,410,400.27,410,400.27Z" style="fill:#263238;stroke:#263238;stroke-linecap:round;stroke-miterlimit:10"></path><path d="M395.94,402.33s1.47-2.55-4-8.12-14.6-1-14.6-1,4.39,6.39,7.14,8.49S395.94,402.33,395.94,402.33Z" style="fill:#263238;stroke:#263238;stroke-linecap:round;stroke-miterlimit:10"></path><path d="M403.27,415.6a15.25,15.25,0,0,0-8.48-5.52,20.69,20.69,0,0,0-8.86-.33s3.48,7.15,7.49,8.14S403.27,415.6,403.27,415.6Z" style="fill:#263238;stroke:#263238;stroke-linecap:round;stroke-miterlimit:10"></path><path d="M403.27,415.6a7.28,7.28,0,0,1,2.92-3c2.3-1.44,8.39-1.82,8.39-1.82a5.93,5.93,0,0,1-3.77,4.69A10.92,10.92,0,0,1,403.27,415.6Z" style="fill:#263238;stroke:#263238;stroke-linecap:round;stroke-miterlimit:10"></path><line x1="395.94" y1="402.33" x2="382.28" y2="393.98" style="fill:none;stroke:#263238;stroke-linecap:round;stroke-miterlimit:10"></line><line x1="403.47" y1="394.35" x2="403.47" y2="380.14" style="fill:none;stroke:#263238;stroke-linecap:round;stroke-miterlimit:10"></line><line x1="410.01" y1="400.27" x2="417.43" y2="392" style="fill:none;stroke:#263238;stroke-linecap:round;stroke-miterlimit:10"></line><polyline points="394.99 414.16 403.27 415.6 408.26 414.02" style="fill:none;stroke:#263238;stroke-linecap:round;stroke-miterlimit:10"></polyline><line x1="357.18" y1="422.7" x2="357.19" y2="397.47" style="fill:none;stroke:#263238;stroke-linecap:round;stroke-linejoin:round"></line><polyline points="345.85 403.47 356.97 412.22 364.75 402.35" style="fill:none;stroke:#263238;stroke-linecap:round;stroke-linejoin:round"></polyline><path d="M357,401.34a13.25,13.25,0,0,1-3.67-5.92c-1-3.65,3.93-10.3,3.93-10.3s3.24,6.75,3.59,9.93S357,401.34,357,401.34Z" style="fill:#263238;stroke:#263238;stroke-linecap:round;stroke-miterlimit:10"></path><path d="M361.94,405.8a42.42,42.42,0,0,1,.4-5.68c.38-2,3.25-3.32,5.34-3.83s6.1.09,6.1.09A10.78,10.78,0,0,1,370,403C366.74,405.62,361.94,405.8,361.94,405.8Z" style="fill:#263238;stroke:#263238;stroke-linecap:round;stroke-miterlimit:10"></path><path d="M351.34,407.35s1.11-1.92-3-6.12-11-.74-11-.74,3.31,4.82,5.39,6.39S351.34,407.35,351.34,407.35Z" style="fill:#263238;stroke:#263238;stroke-linecap:round;stroke-miterlimit:10"></path><path d="M356.86,417.35a11.45,11.45,0,0,0-6.39-4.16,15.62,15.62,0,0,0-6.67-.25s2.62,5.39,5.64,6.14S356.86,417.35,356.86,417.35Z" style="fill:#263238;stroke:#263238;stroke-linecap:round;stroke-miterlimit:10"></path><path d="M356.86,417.35a5.5,5.5,0,0,1,2.21-2.28c1.72-1.09,6.31-1.37,6.31-1.37a4.44,4.44,0,0,1-2.83,3.53A8.29,8.29,0,0,1,356.86,417.35Z" style="fill:#263238;stroke:#263238;stroke-linecap:round;stroke-miterlimit:10"></path><line x1="351.34" y1="407.35" x2="341.05" y2="401.06" style="fill:none;stroke:#263238;stroke-linecap:round;stroke-miterlimit:10"></line><line x1="357.01" y1="401.34" x2="357.01" y2="390.64" style="fill:none;stroke:#263238;stroke-linecap:round;stroke-miterlimit:10"></line><line x1="361.94" y1="405.8" x2="367.53" y2="399.57" style="fill:none;stroke:#263238;stroke-linecap:round;stroke-miterlimit:10"></line><polyline points="350.62 416.27 356.86 417.35 360.62 416.16" style="fill:none;stroke:#263238;stroke-linecap:round;stroke-miterlimit:10"></polyline><line x1="101.13" y1="422.7" x2="101.14" y2="402.16" style="fill:none;stroke:#263238;stroke-linecap:round;stroke-linejoin:round"></line><polyline points="91.91 407.04 100.96 414.17 107.29 406.13" style="fill:none;stroke:#263238;stroke-linecap:round;stroke-linejoin:round"></polyline><path d="M101,405.31a10.73,10.73,0,0,1-3-4.82c-.83-3,3.19-8.38,3.19-8.38s2.64,5.49,2.92,8.08S101,405.31,101,405.31Z" style="fill:#263238;stroke:#263238;stroke-linecap:round;stroke-miterlimit:10"></path><path d="M105,408.94a34,34,0,0,1,.32-4.62c.31-1.66,2.65-2.7,4.35-3.12a17.83,17.83,0,0,1,5,.07,8.79,8.79,0,0,1-3.05,5.38A12.69,12.69,0,0,1,105,408.94Z" style="fill:#263238;stroke:#263238;stroke-linecap:round;stroke-miterlimit:10"></path><path d="M96.38,410.21s.9-1.57-2.48-5-9-.6-9-.6,2.69,3.92,4.38,5.2S96.38,410.21,96.38,410.21Z" style="fill:#263238;stroke:#263238;stroke-linecap:round;stroke-miterlimit:10"></path><path d="M100.87,418.34a9.34,9.34,0,0,0-5.2-3.38,12.81,12.81,0,0,0-5.43-.21s2.13,4.39,4.59,5S100.87,418.34,100.87,418.34Z" style="fill:#263238;stroke:#263238;stroke-linecap:round;stroke-miterlimit:10"></path><path d="M100.87,418.34a4.48,4.48,0,0,1,1.8-1.85c1.4-.89,5.14-1.12,5.14-1.12a3.65,3.65,0,0,1-2.31,2.88A6.73,6.73,0,0,1,100.87,418.34Z" style="fill:#263238;stroke:#263238;stroke-linecap:round;stroke-miterlimit:10"></path><line x1="96.38" y1="410.21" x2="88" y2="405.08" style="fill:none;stroke:#263238;stroke-linecap:round;stroke-miterlimit:10"></line><line x1="100.99" y1="405.31" x2="100.99" y2="396.6" style="fill:none;stroke:#263238;stroke-linecap:round;stroke-miterlimit:10"></line><line x1="105.01" y1="408.94" x2="109.56" y2="403.87" style="fill:none;stroke:#263238;stroke-linecap:round;stroke-miterlimit:10"></line><polyline points="95.79 417.46 100.87 418.34 103.93 417.38" style="fill:none;stroke:#263238;stroke-linecap:round;stroke-miterlimit:10"></polyline></g><g id="freepik--Floor--inject-150"><line x1="26.14" y1="422.7" x2="484.15" y2="422.7" style="fill:none;stroke:#263238;stroke-miterlimit:10"></line></g><g id="freepik--Character--inject-150"><path d="M251.6,246.93s8,8.22,12.43,10.22,5,3.81,3.81,5.61-3.41,6.62-5.21,7.22a8.24,8.24,0,0,1-6.42-1c-1.8-1.21-4.81-6.22-4.81-6.22Z" style="fill:#263238;stroke:#263238;stroke-miterlimit:10"></path><path d="M258.62,258.75s-3,1-2,3.81,2.41,6.22,2.81,7.22,2,1.4,3.21.2.2-3.21.2-5S261.83,258.15,258.62,258.75Z" style="fill:#fff;stroke:#263238;stroke-miterlimit:10"></path><path d="M266.44,208.64s.6,2.41-4.81,10.83-8,11.62-8.42,15.83,2,38.29,2,38.29,8.36,9.86,15,29.66c3.18,9.45,2.6,9.63,2.6,9.63s3.21,2,4.41,8.81a157.06,157.06,0,0,1,1.6,16.8s.41,7.82,1,16.44,4.61,33.27,4.61,33.27l-12.83.6s.6-9.42-4-17.24-8.22-11-9.22-18.64a154,154,0,0,1-1-17.81c0-1-4.23-12.61-5.44-14S234.37,298,231.36,294L216.53,323.3s-1,9.22-5,14.43-7.61,6.21-7.61,6.21-11.43,12.23-17.64,20.25-13.43,18.44-13.63,19.64a15.46,15.46,0,0,1-1.2,3.21s-2,1.6-5.82-.4A16.68,16.68,0,0,1,160,382a89.77,89.77,0,0,0,8-20c3-11.42,5.41-19.84,11.62-25.25s11-8.82,13-11.63,3.21-12.63,3.21-12.63l2.81-35.68s-5-7.81.4-23.05,20.64-28.46,20.64-28.46l2.41-16s-1.41-16,2.2-29.06,16.24-17.64,25.66-16.64,10.82,10,12.23,19.85S266.44,208.64,266.44,208.64Z" style="fill:#fff;stroke:#263238;stroke-miterlimit:10"></path><path d="M231.36,294a56.39,56.39,0,0,0,2.58-9.28" style="fill:none;stroke:#263238;stroke-miterlimit:10"></path><path d="M256,274.81c-.47-.78-.75-1.22-.75-1.22s-.87-12.35-1.48-23.1c-7.56-.78-28.55-3.73-44.88-13.55a61.54,61.54,0,0,0-9.76,16.8,37.58,37.58,0,0,0-2.44,15.3c4.63,3.49,21,15.88,37.29,15.71l-.74,3.73S247.24,277.78,256,274.81Z" style="fill:#263238;stroke:#263238;stroke-miterlimit:10"></path><path d="M232.79,264.09c.58.79,1.09,1.55,1.52,2.24" style="fill:none;stroke:#7d7d7d;stroke-miterlimit:10"></path><path d="M223.62,253.16s4.28,4.6,7.71,9" style="fill:none;stroke:#7d7d7d;stroke-miterlimit:10"></path><path d="M229.92,256.6s6.49,9.16,7.25,10.88" style="fill:none;stroke:#7d7d7d;stroke-miterlimit:10"></path><path d="M253.83,252.19c-.45-7.76-.8-15.08-.62-16.89.4-4.21,3-7.41,8.42-15.83s4.81-10.83,4.81-10.83-2.81-15.43-4.21-25.25-2.81-18.84-12.23-19.85-22.05,3.61-25.66,16.64-2.2,29.06-2.2,29.06l-2.41,16a94.56,94.56,0,0,0-12.9,14.34C212.22,244,227.85,254.34,253.83,252.19Z" style="fill:#92E3A9;stroke:#263238;stroke-miterlimit:10"></path><path d="M268.45,155s7.74,10.07,7.16,18.39S271.16,181,272.52,187s3.67,5.61,3.48,10.06-3.29,5.42-3.1,7.16,2.52,1.74,2.52,1.74a4.92,4.92,0,0,1-7.16,2.52c-5.23-2.52-6.77-3.87-5.61-8.71s-.58-12.19-3.29-16.06-.58-13.75,1-19.36-1-11.42-1-11.42S264.78,151.33,268.45,155Z" style="fill:#263238;stroke:#263238;stroke-miterlimit:10"></path><path d="M277.74,128.11a46.61,46.61,0,0,1,.37,5.54c0,2.83.86,5.29,2.34,6.15s3.56,2.46,2.7,4.06-4.43,3.07-4.43,3.07-3.19,9.35-4.42,11.19-9.6-1.23-10.46-1.35-5.53-3.32-5.53-3.32-3.08-7.38-.25-13,5.17-12.17,5.41-12.67S277.74,128.11,277.74,128.11Z" style="fill:#fff;stroke:#263238;stroke-miterlimit:10"></path><path d="M275.4,137c0,.95-.36,1.72-.8,1.72s-.8-.77-.8-1.72.36-1.72.8-1.72S275.4,136,275.4,137Z" style="fill:#263238"></path><path d="M272.45,132.66s2.95-1.47,4.31-.24" style="fill:none;stroke:#263238;stroke-miterlimit:10"></path><path d="M276.14,148.9s-5.9-.12-7-4.67" style="fill:none;stroke:#263238;stroke-miterlimit:10"></path><path d="M234.39,135a20.42,20.42,0,0,1-1.1,10.12c-2,4.79-14,6.63-16.76,13.81s.74,13.81.18,15.29-11.23,1.47-11.41,11.41,4.79,10.31,6.81,13.44,1.47,6.63,3.32,8.84,6.62,3,6.62,3,4.42-28.17,13.81-35.17,15.47-1.47,17.86,6.07,1.84,12.71,1.84,21.18,2.58,10.68,6.45,10.49a9.14,9.14,0,0,0,6.26-3.31s-3.68-.92-2.39-5,7-5.34,5.52-15.28-9-12.16-8.1-17.31,5.15-10.13,2.94-16.39-7.91-10.49-6.07-15.83,6.26-5.9,5.71-12.16a43.68,43.68,0,0,0-17.5.37C239.55,130.76,233.84,133.34,234.39,135Z" style="fill:#263238;stroke:#263238;stroke-miterlimit:10"></path><path d="M233.83,127.62a29.35,29.35,0,0,1,5.78-12.42c4.92-6.4,9.1-7.5,9.1-7.5s-2.09-1.6.13-2.71,2.33.49,4.42,1,11.57,1.48,16.61,4.68,6.27,12,6.27,12a35.77,35.77,0,0,0-23.49-.37c-13.16,4.18-18.94,7-18.94,7Z" style="fill:#92E3A9;stroke:#263238;stroke-miterlimit:10"></path><path d="M234.57,138s4.92-6.76,22-8,20.91.61,21.53.24,1.35-.24.61-3.56.25-4.68-1.47-6.4-14.64-4.3-28.29-.61-16.85,6.64-16.85,8.11S232.48,138.08,234.57,138Z" style="fill:#92E3A9;stroke:#263238;stroke-miterlimit:10"></path><path d="M247.53,171.15a10.08,10.08,0,0,0-10.3,5.49,29.43,29.43,0,0,0-2.66,10.56c-1.21,14,5.61,20.24,5.61,20.24s2.8,23.85,5,26.06,41.49,18.44,45.5,20,11.23,5.82,15.23,7.22a44.12,44.12,0,0,0,9.43,1.8s0,2.21,1.4,2.61,5.81-.2,6.61-2.21,3.81-6.81,3-9.42-3.41-6.21-5.61-6.41-13.83.6-13.83.6a25.21,25.21,0,0,1-6.82-2.2c-3-1.61-40.49-24.26-40.49-24.26l-.35-27.34a42.82,42.82,0,0,0-1.84-12.11A28.7,28.7,0,0,0,255,176a10.1,10.1,0,0,0-7.47-4.88Z" style="fill:#fff;stroke:#263238;stroke-miterlimit:10"></path><path d="M320.76,247.13c-2.21-.2-13.83.6-13.83.6a25.21,25.21,0,0,1-6.82-2.2c-.52-.28-2.06-1.18-4.25-2.48a73.51,73.51,0,0,0-5.59,10.32l.42.17c4,1.61,11.23,5.82,15.23,7.22a44.12,44.12,0,0,0,9.43,1.8s4.6-11,6.52-15.07A2.94,2.94,0,0,0,320.76,247.13Z" style="fill:#263238;stroke:#263238;stroke-miterlimit:10"></path><line x1="315.35" y1="262.56" x2="319.76" y2="262.96" style="fill:none;stroke:#263238;stroke-miterlimit:10"></line><line x1="318.15" y1="257.15" x2="323.76" y2="261.36" style="fill:none;stroke:#263238;stroke-miterlimit:10"></line><line x1="319.35" y1="253.14" x2="325.37" y2="257.75" style="fill:none;stroke:#263238;stroke-miterlimit:10"></line><line x1="321.16" y1="249.94" x2="326.17" y2="255.35" style="fill:none;stroke:#263238;stroke-miterlimit:10"></line><polygon points="301.31 246.93 297.91 255.35 302.72 257.35 306.93 247.73 301.31 246.93" style="fill:#fff;stroke:#263238;stroke-miterlimit:10"></polygon><path d="M240.18,207.44s-.8-19-.4-24.05" style="fill:none;stroke:#263238;stroke-miterlimit:10"></path><path d="M278.75,337.41c-.19-1.71-.64-10.89-1.49-15.72-1.2-6.81-4.41-8.81-4.41-8.81l0-.08-20.66,8.49c1.27,1.48,5.27,12.86,5.27,13.82,0,.48.15,2.67.19,6C270.1,340.91,276.71,338.6,278.75,337.41Z" style="fill:#263238;stroke:#263238;stroke-miterlimit:10"></path><path d="M271.65,388.8s.6-9.42-4-17.24c-2.48-4.2-4.67-7.07-6.32-10a24.67,24.67,0,0,1-1.65-3.48,23.49,23.49,0,0,1-1.06-3.86c-.07-.42-.13-.84-.19-1.28-.1-.76-.2-1.56-.32-2.4-.19-1.54,0-3-.23-4.63,3.85-.07,13.2-.72,21.19-3.84.08,1.33.17,3,.29,4.84.06,1.17.14,2.43.23,3.73s.16,2.63.27,4c0,.1,0,.2,0,.3.07,1,.18,2.11.32,3.4,1.12,10.38,4.3,29.88,4.3,29.88Z" style="fill:#263238;stroke:#263238;stroke-miterlimit:10"></path><path d="M279.35,346.89l-21.25,3.63c.12.84.22,1.64.32,2.4.06.44.12.86.19,1.28l21-3.58C279.49,349.32,279.41,348.06,279.35,346.89Zm.51,8c0-.1,0-.2,0-.3l-20.18,3.44a24.67,24.67,0,0,0,1.65,3.48l18.86-3.22C280,357,279.93,355.88,279.86,354.92Z" style="fill:#92E3A9;stroke:#263238;stroke-miterlimit:10"></path><path d="M281.77,384.55l.17-2.21s4.58-.17,5.77.34,1.7,12.73,1.7,12.73A17,17,0,0,1,281.77,384.55Z" style="fill:#4c4c4c;stroke:#263238;stroke-miterlimit:10"></path><path d="M313.8,419.24a5,5,0,1,0-5,5A5,5,0,0,0,313.8,419.24Z" style="fill:#92E3A9;stroke:#263238;stroke-miterlimit:10"></path><path d="M300.9,419.24a5,5,0,1,0-5,5A5,5,0,0,0,300.9,419.24Z" style="fill:#92E3A9;stroke:#263238;stroke-miterlimit:10"></path><path d="M288,419.24a5,5,0,1,0-5,5A5,5,0,0,0,288,419.24Z" style="fill:#92E3A9;stroke:#263238;stroke-miterlimit:10"></path><path d="M275.09,419.24a5,5,0,1,0-5,5A5,5,0,0,0,275.09,419.24Z" style="fill:#92E3A9;stroke:#263238;stroke-miterlimit:10"></path><path d="M309.32,418.75l-6.48-5.85c-7.15-2.72-30.85-3.22-30.85-3.22l-3.64,8.65a1.4,1.4,0,0,0,.74,1.8,1.77,1.77,0,0,0,1.63,0l6.72-3.79,3,.05,1.11,2.26a1.5,1.5,0,0,0,1.37.86,1.53,1.53,0,0,0,1.52-1.45l.08-1.61,8.76.15.95,1.94a1.68,1.68,0,0,0,3.19-.67l.05-1.2h.63l9.86,3.88a1.33,1.33,0,0,0,1,0A1,1,0,0,0,309.32,418.75Z" style="fill:#7d7d7d;stroke:#263238;stroke-miterlimit:10"></path><path d="M283.13,384.55H269.89v12.9s-2.55,3.06-2.21,6.28-.51,7.47,3.39,7.64,7.81-.51,14.6-.17,15.11,2.38,17.83,1.7,4.93-4.75,3.74-6.79-2.21-2-4.59-3.06a163.32,163.32,0,0,1-14.43-7.81c-1.53-1.18-3.39-5.09-3.39-5.09Z" style="fill:#7d7d7d;stroke:#263238;stroke-miterlimit:10"></path><path d="M269.89,384.55s-4.42-1-3.57-1.7S267.85,381.15,269.89,384.55Z" style="fill:#fff;stroke:#263238;stroke-miterlimit:10"></path><path d="M267.68,403.73c.34,3.23-.51,7.47,3.39,7.64s7.81-.51,14.6-.17,15.12,2.38,17.83,1.7,4.93-4.75,3.74-6.79c-.1-.17-.2-.31-.3-.46-.58,1.05-2,2.25-5.82,3.35-4.75,1.35-4.41.51-11.2-.51s-13.24-2.21-13.24-2.21a29,29,0,0,0-3.4-6.45c-2-2.72-3.39-2.38-3.39-2.38S267.34,400.51,267.68,403.73Z" style="fill:#4c4c4c;stroke:#263238;stroke-miterlimit:10"></path><path d="M289.41,395.41s-5.09,4.08-6.79,9.68l6.11,2.21s2.72-7.3,5.43-8.66Z" style="fill:#4c4c4c;stroke:#263238;stroke-miterlimit:10"></path><path d="M270.05,389.47l-.16.21v7.77a11.77,11.77,0,0,0-1.67,2.89l4,1.19,3.23,1.52a56.89,56.89,0,0,0,.34-9.16C275.49,390.66,270.05,389.47,270.05,389.47Z" style="fill:#4c4c4c;stroke:#263238;stroke-miterlimit:10"></path><path d="M187.15,330.43A110.85,110.85,0,0,0,203,344.9l.89-1s3.61-1,7.61-6.21,5-14.43,5-14.43l1.15-2.28c-7.05-2.79-21.8-8.55-21.8-8.55s-1.2,9.83-3.21,12.63A33.51,33.51,0,0,1,187.15,330.43Z" style="fill:#263238;stroke:#263238;stroke-miterlimit:10"></path><path d="M200,348.15c-1,1.11-2.16,2.39-3.39,3.76l-2.46,2.78c-.86,1-1.74,2-2.6,3s-1.63,1.91-2.39,2.84c-1.06,1.27-2,2.51-2.94,3.65-6.21,8-13.43,18.44-13.63,19.64a16.16,16.16,0,0,1-1.21,3.21s-2,1.6-5.81-.4A16.68,16.68,0,0,1,160,382a89.48,89.48,0,0,0,8-20,116.36,116.36,0,0,1,4.66-15,35.53,35.53,0,0,1,1.65-3.45,26.32,26.32,0,0,1,2.14-3.39,21.06,21.06,0,0,1,2.47-2.77q.34-.34.72-.66c1-.86,1.92-1.65,2.82-2.42C187.05,337.94,195.66,344.75,200,348.15Z" style="fill:#263238;stroke:#263238;stroke-miterlimit:10"></path><path d="M178.93,337.39a21.06,21.06,0,0,0-2.47,2.77l17.73,14.53,2.46-2.78Zm-4.61,6.16a35.53,35.53,0,0,0-1.65,3.45l16.53,13.54c.76-.93,1.57-1.88,2.39-2.84Z" style="fill:#92E3A9;stroke:#263238;stroke-miterlimit:10"></path><path d="M186,422.63c.47,3.29-1.53,6.3-4.45,6.71s-5.67-1.92-6.14-5.22,1.53-6.3,4.45-6.71S185.49,419.33,186,422.63Z" style="fill:#92E3A9;stroke:#263238;stroke-miterlimit:10"></path><path d="M174.42,418.89c.46,3.3-1.53,6.3-4.46,6.72s-5.67-1.93-6.14-5.22,1.53-6.3,4.46-6.72S174,415.6,174.42,418.89Z" style="fill:#92E3A9;stroke:#263238;stroke-miterlimit:10"></path><path d="M163,415.33c.47,3.29-1.53,6.3-4.45,6.71s-5.67-1.92-6.14-5.22,1.53-6.3,4.45-6.71S162.57,412,163,415.33Z" style="fill:#92E3A9;stroke:#263238;stroke-miterlimit:10"></path><path d="M151.5,411.42c.46,3.3-1.53,6.3-4.46,6.72s-5.67-1.93-6.14-5.22,1.53-6.31,4.46-6.72S151,408.12,151.5,411.42Z" style="fill:#92E3A9;stroke:#263238;stroke-miterlimit:10"></path><path d="M181.93,413.61v-1.7s-2.9.51-9.07-.5-24.13-7.64-24.13-7.64l-3,6a1.76,1.76,0,0,0,.15,1.82,2.06,2.06,0,0,0,2.26.74l2.56-.76,4.33.89,1.38,3.06a1.45,1.45,0,0,0,1.31.85h0a1.45,1.45,0,0,0,1.43-1.21l.3-1.78,1.05.22L167,415.3l.82,3.31a1.35,1.35,0,0,0,.94.95,1.3,1.3,0,0,0,1.57-.88l.71-2.32,3.8,1,4.71,6a1.42,1.42,0,0,0,1,.53,1.36,1.36,0,0,0,1.51-1.33Z" style="fill:#7d7d7d;stroke:#263238;stroke-miterlimit:10"></path><path d="M168.36,384.41s4.24-2.38,9.84.68a19.35,19.35,0,0,1-4.07,10.19l-7.64,1.52-2.55-3.56Z" style="fill:#4c4c4c;stroke:#263238;stroke-miterlimit:10"></path><path d="M158.17,379.83l10.19,4.58s-1,6.45-1.19,8.66l-.17,2.21s5.43-.85,7.13,0,.68,0,4.07,4.41,10.87,8.49,10.53,10.87-2,3.05-6.79,3.05-19-3.39-24.62-5.77-8.83-3.4-9.51-5.94.68-7,2.38-9a31.32,31.32,0,0,1,3.06-3.23S156.47,379.66,158.17,379.83Z" style="fill:#7d7d7d;stroke:#263238;stroke-miterlimit:10"></path><path d="M174.13,395.28s-7-.34-11,1.52a34,34,0,0,0-5.43,2.89l2.72,3.57s10.69-6.8,17.82-3.57" style="fill:#4c4c4c;stroke:#263238;stroke-miterlimit:10"></path><path d="M156.3,382.37s3.91.85,3.57,3.06-3.91,9.51-3.91,9.51l-3.9-2.72Z" style="fill:#4c4c4c;stroke:#263238;stroke-miterlimit:10"></path><path d="M150.19,392.9c-1.7,2-3.06,6.45-2.38,9s3.91,3.56,9.51,5.94,19.86,5.77,24.62,5.77,6.45-.68,6.79-3.05a1.7,1.7,0,0,0-.26-1,6.72,6.72,0,0,1-4,1.21c-4.25.17-10.36.68-20.55-3.74s-8.49-5.26-8.49-5.26a21.82,21.82,0,0,0,.51-6.79,7.59,7.59,0,0,0-2.71-5.27A31.32,31.32,0,0,0,150.19,392.9Z" style="fill:#4c4c4c;stroke:#263238;stroke-miterlimit:10"></path></g></svg>