<svg xmlns="http://www.w3.org/2000/svg" viewBox="0 0 500 500"><g id="freepik--background-complete--inject-70"><path d="M444.71,330.2H264a5.87,5.87,0,0,1-5.86-5.86V61.06A5.87,5.87,0,0,1,264,55.2H444.71a5.87,5.87,0,0,1,5.86,5.86V324.34A5.87,5.87,0,0,1,444.71,330.2ZM264,55.45a5.62,5.62,0,0,0-5.61,5.61V324.34A5.62,5.62,0,0,0,264,330H444.71a5.62,5.62,0,0,0,5.61-5.61V61.06a5.62,5.62,0,0,0-5.61-5.61Z" style="fill:#e0e0e0"></path><path d="M236.28,330.2H55.53a5.87,5.87,0,0,1-5.86-5.86V61.06a5.87,5.87,0,0,1,5.86-5.86H236.28a5.87,5.87,0,0,1,5.86,5.86V324.34A5.87,5.87,0,0,1,236.28,330.2ZM55.53,55.45a5.62,5.62,0,0,0-5.61,5.61V324.34A5.62,5.62,0,0,0,55.53,330H236.28a5.61,5.61,0,0,0,5.61-5.61V61.06a5.61,5.61,0,0,0-5.61-5.61Z" style="fill:#e0e0e0"></path><rect x="0.79" y="391.27" width="500" height="0.25" style="fill:#e0e0e0"></rect><rect x="52.46" y="405.53" width="16.06" height="0.25" style="fill:#e0e0e0"></rect><rect x="171.14" y="402.82" width="53.53" height="0.25" style="fill:#e0e0e0"></rect><rect x="69.52" y="414.82" width="36.25" height="0.25" style="fill:#e0e0e0"></rect><rect x="379.14" y="402.69" width="43.19" height="0.25" style="fill:#e0e0e0"></rect><rect x="431.24" y="402.69" width="6.33" height="0.25" style="fill:#e0e0e0"></rect><rect x="317" y="408.92" width="53.89" height="0.25" style="fill:#e0e0e0"></rect><path d="M434.57,285.7c-.26-6.21-4.43-11.75-9.63-15.15a15.22,15.22,0,0,0-5.8-2.47,7.87,7.87,0,0,0-6,1.31,5.41,5.41,0,0,0-2,5.61c.56,1.87,2.22,3.16,3.27,4.8s1.51,3.76,2.41,5.58,2.6,3.52,4.62,3.39a15.82,15.82,0,0,0-1.84,3.82,6.37,6.37,0,0,0,.1,4.18A6,6,0,0,0,426,300a9.81,9.81,0,0,0,6.25-4.09c1.53-2.06,1.6-4.58,2.54-7Z" style="fill:#f0f0f0"></path><path d="M431.73,283.66A16.28,16.28,0,0,0,424,273a1,1,0,0,0-.48-.16c-.4,0-.61.51-.61.92a4.66,4.66,0,0,0,1.24,2.74,22.63,22.63,0,0,0,3.89,3.81c1.36,1,2.9,2,3.72,3.5" style="fill:#fafafa"></path><path d="M422.44,275.64l-2.95-1.23a3,3,0,0,1-.92-.51,1.06,1.06,0,0,1-.39-.93,1,1,0,0,1,.77-.76,1.82,1.82,0,0,1,1.12.18,5.62,5.62,0,0,1,2.26,2.93" style="fill:#fafafa"></path><path d="M426.92,280.86c-3.09-.74-6.2-1.66-9.3-2.31a6.16,6.16,0,0,1-2.56-1,2.08,2.08,0,0,1-.77-2.43,2,2,0,0,1,1.76-1,4.79,4.79,0,0,1,2.05.52c3.3,1.45,6.09,3.83,8.82,6.18" style="fill:#fafafa"></path><path d="M431.76,284.87a52.33,52.33,0,0,0-7.07.29c-2.35.1-4.87-.19-6.73-1.64a2.78,2.78,0,0,1-.86-1,1.27,1.27,0,0,1,.12-1.28,1.9,1.9,0,0,1,1.42-.48,21.57,21.57,0,0,1,13.12,4.12" style="fill:#fafafa"></path><path d="M414.31,271.12a1.57,1.57,0,1,0,1.64-1.51A1.57,1.57,0,0,0,414.31,271.12Z" style="fill:#fafafa"></path><path d="M430,286.2a12.1,12.1,0,0,0-8.35,5.09.62.62,0,0,0-.15.34c0,.3.34.48.64.51a3.47,3.47,0,0,0,2.11-.76,16.85,16.85,0,0,0,3.06-2.66,9.13,9.13,0,0,1,2.81-2.56" style="fill:#fafafa"></path><path d="M423.94,292.26l-1.08,2.12a2.37,2.37,0,0,1-.43.65.82.82,0,0,1-.72.24.75.75,0,0,1-.51-.62,1.26,1.26,0,0,1,.2-.82,4.14,4.14,0,0,1,2.3-1.51" style="fill:#fafafa"></path><path d="M427.27,289.44c-.38,1.9-.87,3.83-1.2,5.74a3.84,3.84,0,0,1-.53,1.59,1.28,1.28,0,0,1-1.47.52,1.25,1.25,0,0,1-.65-1.06,3.07,3.07,0,0,1,.27-1.26,22.11,22.11,0,0,1,3.58-5.53" style="fill:#fafafa"></path><path d="M431.34,286.43a37.44,37.44,0,0,0-.62,5.09,7.46,7.46,0,0,1-2,4.64,2,2,0,0,1-.83.5.9.9,0,0,1-.9-.24,1.4,1.4,0,0,1-.18-1.07,15.61,15.61,0,0,1,4.49-8.92" style="fill:#fafafa"></path><path d="M434.53,286.08c-2.68-5.61-1.59-12.45,1.42-17.89a15.13,15.13,0,0,1,4-4.9,7.94,7.94,0,0,1,5.95-1.66,5.4,5.4,0,0,1,4.42,4c.38,1.91-.48,3.83-.65,5.77s.43,4,.49,6-.65,4.34-2.51,5.16a15.5,15.5,0,0,1,3.42,2.52,6.32,6.32,0,0,1,1.87,3.74,6,6,0,0,1-4.1,5.84,9.86,9.86,0,0,1-7.44-.7c-2.31-1.1-3.55-3.29-5.5-5Z" style="fill:#f0f0f0"></path><path d="M434.17,280.8a1.52,1.52,0,1,1-.95-1.93A1.51,1.51,0,0,1,434.17,280.8Z" style="fill:#e0e0e0"></path><path d="M434.2,286a33.34,33.34,0,0,0,0,3.74,2.66,2.66,0,0,0,.23,1,.88.88,0,0,0,1.68-.13,2.47,2.47,0,0,0,.06-1.18,31.31,31.31,0,0,0-2-7,2.25,2.25,0,0,0-.49-.88.76.76,0,0,0-.93-.12c-.31.24-.28.71-.21,1.1a6,6,0,0,0,.3,1.47,4.87,4.87,0,0,0,1.32,2" style="fill:#e0e0e0"></path><path d="M433.21,279.35a8,8,0,0,1-1.62-4.65,2.53,2.53,0,0,1,.66-2,.75.75,0,0,1,.51-.21.39.39,0,0,1,.38.34.67.67,0,0,1-.16.39,4.83,4.83,0,0,0-.64,3.37,14.14,14.14,0,0,0,1.07,3.34" style="fill:#e0e0e0"></path><path d="M432.56,279.57a7.51,7.51,0,0,1-2.86-2.73,4,4,0,0,1-.1-3.83.88.88,0,0,1,.31-.35.39.39,0,0,1,.45,0c.2.2,0,.52-.11.76a3.79,3.79,0,0,0,.13,3.62,11.18,11.18,0,0,0,2.47,2.85" style="fill:#e0e0e0"></path><path d="M437.75,278.29a22.42,22.42,0,0,0,1.65-5.19,4.65,4.65,0,0,0-.19-3c-.19-.36-.6-.7-1-.52a.87.87,0,0,0-.34.37,16.25,16.25,0,0,0-1.82,13v.17C436.11,281.41,437,279.85,437.75,278.29Z" style="fill:#fafafa"></path><path d="M443.15,268.17a1.09,1.09,0,0,0-.09-1,1,1,0,0,0-1-.3,1.73,1.73,0,0,0-.9.68,5.64,5.64,0,0,0-.64,3.64l.06.33,2-2.46A3.2,3.2,0,0,0,443.15,268.17Z" style="fill:#fafafa"></path><path d="M447.52,267.28a2,2,0,0,0-2-.06,4.91,4.91,0,0,0-1.56,1.42c-2.24,2.82-3.6,6.23-4.9,9.59,2.38-2.1,4.7-4.37,7.13-6.4a6.21,6.21,0,0,0,1.82-2A2.08,2.08,0,0,0,447.52,267.28Z" style="fill:#fafafa"></path><path d="M446.29,274.26a21.5,21.5,0,0,0-9.67,9.78A51.89,51.89,0,0,1,443,281c2.13-1,4.21-2.45,5.18-4.6a2.6,2.6,0,0,0,.29-1.3,1.26,1.26,0,0,0-.7-1.07A1.87,1.87,0,0,0,446.29,274.26Z" style="fill:#fafafa"></path><path d="M445,265.87a1.57,1.57,0,1,0-2.15-.57A1.58,1.58,0,0,0,445,265.87Z" style="fill:#fafafa"></path><path d="M448.48,286c.26-.16.49-.49.34-.75a.71.71,0,0,0-.3-.24,12.12,12.12,0,0,0-9.76-.58l-.13,0a9.16,9.16,0,0,1,3.69.94,16.21,16.21,0,0,0,3.95.92A3.41,3.41,0,0,0,448.48,286Z" style="fill:#fafafa"></path><path d="M447.23,286.85l-.24.06,1.94,1.36a2.23,2.23,0,0,0,.69.38.78.78,0,0,0,.74-.13.72.72,0,0,0,.17-.78,1.32,1.32,0,0,0-.56-.63A4.19,4.19,0,0,0,447.23,286.85Z" style="fill:#fafafa"></path><path d="M442.72,286c1.23,1.51,2.57,3,3.75,4.51a3.82,3.82,0,0,0,1.21,1.16,1.27,1.27,0,0,0,1.54-.22,1.25,1.25,0,0,0,.09-1.24,3,3,0,0,0-.84-1A22.2,22.2,0,0,0,442.72,286Z" style="fill:#fafafa"></path><path d="M437.72,285.21a37.74,37.74,0,0,1,2.93,4.22,7.43,7.43,0,0,0,3.91,3.18,2,2,0,0,0,1,.05.91.91,0,0,0,.68-.62,1.37,1.37,0,0,0-.34-1A15.66,15.66,0,0,0,437.72,285.21Z" style="fill:#fafafa"></path><path d="M448.48,162.83c4.61-4.17,6.2-10.92,5.49-17.09a15.15,15.15,0,0,0-1.82-6,7.85,7.85,0,0,0-4.86-3.79,5.4,5.4,0,0,0-5.62,2c-1.08,1.62-1,3.73-1.6,5.59s-1.92,3.56-2.74,5.41-1.05,4.26.35,5.72a16,16,0,0,0-4.11,1,6.42,6.42,0,0,0-3.15,2.75,6,6,0,0,0,1.57,7,9.85,9.85,0,0,0,7.15,2.19c2.55-.14,4.53-1.7,7-2.5Z" style="fill:#f0f0f0"></path><path d="M448.23,159.35a16.3,16.3,0,0,0,3.27-12.72,1,1,0,0,0-.18-.48c-.27-.3-.78-.14-1.1.12a4.6,4.6,0,0,0-1.31,2.71,22.4,22.4,0,0,0-.45,5.42c.07,1.72.33,3.51-.3,5.1" style="fill:#fafafa"></path><path d="M448.45,147.07c-.31-1-.62-2-.94-3a3.3,3.3,0,0,1-.2-1,1.11,1.11,0,0,1,.47-.9,1,1,0,0,1,1.08.11,1.76,1.76,0,0,1,.57,1,5.61,5.61,0,0,1-.8,3.62" style="fill:#fafafa"></path><path d="M447.31,153.86c-1.41-2.85-2.69-5.83-4.17-8.63a6.11,6.11,0,0,1-.91-2.58,2.09,2.09,0,0,1,1.38-2.15,2,2,0,0,1,1.89.72,4.85,4.85,0,0,1,.92,1.91c1,3.46.95,7.12.89,10.73" style="fill:#fafafa"></path><path d="M447.32,160.15a51.17,51.17,0,0,0-4.74-5.25c-1.58-1.75-3-3.87-3-6.23a2.67,2.67,0,0,1,.22-1.31,1.28,1.28,0,0,1,1.06-.72,1.87,1.87,0,0,1,1.27.78,21.54,21.54,0,0,1,5.23,12.73" style="fill:#fafafa"></path><path d="M446.73,137.94a1.57,1.57,0,1,0,2.2.29A1.56,1.56,0,0,0,446.73,137.94Z" style="fill:#fafafa"></path><path d="M445.2,159.68a12.07,12.07,0,0,0-9.25-3.17.72.72,0,0,0-.36.1c-.24.19-.15.58,0,.82a3.44,3.44,0,0,0,1.93,1.14,17,17,0,0,0,4,.65,9.16,9.16,0,0,1,3.77.52" style="fill:#fafafa"></path><path d="M436.64,158.87l-2.32.52a2.49,2.49,0,0,1-.77.08.79.79,0,0,1-.64-.4.73.73,0,0,1,.14-.79,1.33,1.33,0,0,1,.76-.37,4.15,4.15,0,0,1,2.63.81" style="fill:#fafafa"></path><path d="M440.94,159.62c-1.71.92-3.5,1.78-5.18,2.74a3.69,3.69,0,0,1-1.56.62,1.28,1.28,0,0,1-1.34-.8,1.2,1.2,0,0,1,.4-1.17,2.84,2.84,0,0,1,1.14-.6,22.09,22.09,0,0,1,6.54-.79" style="fill:#fafafa"></path><path d="M445.86,160.81a37.74,37.74,0,0,0-4.31,2.79,7.41,7.41,0,0,1-4.82,1.46,1.88,1.88,0,0,1-.92-.32.91.91,0,0,1-.39-.84,1.33,1.33,0,0,1,.71-.82,15.63,15.63,0,0,1,9.73-2.27" style="fill:#fafafa"></path><path d="M448.16,163.05c2.6-5.65,8.56-9.19,14.67-10.36a15.2,15.2,0,0,1,6.3-.08,7.91,7.91,0,0,1,5.08,3.5,5.4,5.4,0,0,1-.25,6c-1.22,1.52-3.25,2.08-4.85,3.2s-2.82,2.9-4.34,4.24-3.75,2.27-5.57,1.38a15.42,15.42,0,0,1,.25,4.23,6.32,6.32,0,0,1-1.67,3.83,6,6,0,0,1-7.11.59,9.81,9.81,0,0,1-4.23-6.17c-.64-2.48.26-4.83.29-7.39Z" style="fill:#f0f0f0"></path><path d="M452,159.39a1.52,1.52,0,1,1,.88-2A1.52,1.52,0,0,1,452,159.39Z" style="fill:#e0e0e0"></path><path d="M448,162.76a32.88,32.88,0,0,0-2.88,2.39,2.65,2.65,0,0,0-.63.82.88.88,0,0,0,1.18,1.21,2.6,2.6,0,0,0,.94-.71,31.26,31.26,0,0,0,4.11-6,2.17,2.17,0,0,0,.36-.94.74.74,0,0,0-.5-.79c-.39-.08-.72.24-1,.54a5.61,5.61,0,0,0-.94,1.18,4.93,4.93,0,0,0-.7,2.29" style="fill:#e0e0e0"></path><path d="M452.49,157.73a8,8,0,0,1,2.54-4.22,2.51,2.51,0,0,1,2-.76.74.74,0,0,1,.48.26.39.39,0,0,1,0,.51.73.73,0,0,1-.41.12,4.76,4.76,0,0,0-3,1.67,14.67,14.67,0,0,0-1.89,2.95" style="fill:#e0e0e0"></path><path d="M451.91,157.37a7.42,7.42,0,0,1,.27-3.94,4,4,0,0,1,2.87-2.53.87.87,0,0,1,.48,0,.4.4,0,0,1,.26.37c0,.28-.39.35-.66.4a3.78,3.78,0,0,0-2.7,2.42,11.27,11.27,0,0,0-.6,3.71" style="fill:#e0e0e0"></path><path d="M456.21,160.54a22.79,22.79,0,0,0,5-2,4.64,4.64,0,0,0,2.19-2.07c.15-.38.16-.91-.21-1.08a1,1,0,0,0-.51,0,16.26,16.26,0,0,0-11.16,6.93l-.12.12C452.77,161.27,454.55,161,456.21,160.54Z" style="fill:#fafafa"></path><path d="M467.44,158.21a1.07,1.07,0,0,0,.72-.71,1,1,0,0,0-.43-1,1.73,1.73,0,0,0-1.1-.25,5.56,5.56,0,0,0-3.2,1.84l-.22.26,3.19,0A3,3,0,0,0,467.44,158.21Z" style="fill:#fafafa"></path><path d="M470.93,161a2,2,0,0,0-1.26-1.59,4.77,4.77,0,0,0-2.09-.3c-3.6.09-7.08,1.23-10.5,2.37,3.13.49,6.36.82,9.48,1.39a6.16,6.16,0,0,0,2.73.09A2.1,2.1,0,0,0,470.93,161Z" style="fill:#fafafa"></path><path d="M464.78,164.52a21.53,21.53,0,0,0-13.71-1.17,52.43,52.43,0,0,1,6.43,3c2.14,1,4.58,1.67,6.85,1a2.72,2.72,0,0,0,1.18-.61,1.24,1.24,0,0,0,.37-1.22A1.84,1.84,0,0,0,464.78,164.52Z" style="fill:#fafafa"></path><path d="M470.42,158.19a1.57,1.57,0,1,0-.93-2A1.57,1.57,0,0,0,470.42,158.19Z" style="fill:#fafafa"></path><path d="M457.17,173.71c.29.09.69.06.79-.23a.67.67,0,0,0,0-.37,12.1,12.1,0,0,0-5.79-7.88l-.1-.08a9.23,9.23,0,0,1,1.63,3.43,16.6,16.6,0,0,0,1.82,3.62A3.42,3.42,0,0,0,457.17,173.71Z" style="fill:#fafafa"></path><path d="M455.7,173.3l-.2-.15c.06.79.13,1.58.19,2.37a2.84,2.84,0,0,0,.15.77.82.82,0,0,0,.58.49.74.74,0,0,0,.71-.38,1.31,1.31,0,0,0,.12-.83A4.14,4.14,0,0,0,455.7,173.3Z" style="fill:#fafafa"></path><path d="M453.49,169.28c-.37,1.9-.65,3.87-1.07,5.76a3.79,3.79,0,0,0-.11,1.67,1.28,1.28,0,0,0,1.16,1,1.24,1.24,0,0,0,1-.73,3.07,3.07,0,0,0,.23-1.28A22.16,22.16,0,0,0,453.49,169.28Z" style="fill:#fafafa"></path><path d="M450.87,164.94a37.42,37.42,0,0,1-1.36,4.95,7.45,7.45,0,0,0,.05,5,2,2,0,0,0,.58.77.91.91,0,0,0,.92.13,1.37,1.37,0,0,0,.57-.93A15.55,15.55,0,0,0,450.87,164.94Z" style="fill:#fafafa"></path><path d="M140.51,232.08a6.09,6.09,0,0,0-6.57-.38,11.67,11.67,0,0,0-15.36-4.92,13.25,13.25,0,0,0-25.84.31,5.14,5.14,0,0,1-1,2.62c-1.08,1.1-2.87.73-4.4.61a10.89,10.89,0,0,0-11,7.67l66.42-.24A5.32,5.32,0,0,0,140.51,232.08Z" style="fill:#f0f0f0"></path><path d="M108,439.79a86.58,86.58,0,0,0-19-45.44c-.61-.74-1.67.32-1.06,1.07a84.83,84.83,0,0,1,18.55,44.37c.1.95,1.6,1,1.5,0Z" style="fill:#e0e0e0"></path><path d="M91,396.57c-5.93,4.05-12,8.16-18.86,10.26s-14.81,1.9-20.69-2.22a2.21,2.21,0,0,1-.91-1,1.51,1.51,0,0,1,.53-1.53,3.89,3.89,0,0,1,1.53-.74A44.55,44.55,0,0,1,59.46,400c9.48-1.26,22-3.08,31.51-3.45" style="fill:#e6e6e6"></path><path d="M47.14,382.44a6.65,6.65,0,0,1,4.3-2.34c3.59-.54,7.1,1.11,10.36,2.72l27.41,13.57,1.31.9a148.47,148.47,0,0,1-16.61-1.66c-8.32-1.12-16.83-2.26-24.31-6.08a6.75,6.75,0,0,1-3-2.39A4.4,4.4,0,0,1,47.14,382.44Z" style="fill:#e6e6e6"></path><path d="M67.44,364.28c1.69-1.29,4.12-.84,6.07,0,6.12,2.56,10.63,8.12,13.1,14.28s3.1,12.88,3.18,19.51l-.3.14c-5.82-9.67-16.53-15.66-22.11-25.47a10.62,10.62,0,0,1-1.55-4.31A4.69,4.69,0,0,1,67.44,364.28Z" style="fill:#e6e6e6"></path><path d="M90.28,396.91a61.8,61.8,0,0,1,18.09-6.55c1.11-.22,2.45-.33,3.2.52s.45,2.28-.08,3.34a13.36,13.36,0,0,1-22.3,2.54Z" style="fill:#e6e6e6"></path><path d="M88,398.13a62.22,62.22,0,0,0,4.25-27.29,15.77,15.77,0,0,1,.11-4.9,4.6,4.6,0,0,1,3.09-3.51,5.1,5.1,0,0,1,2.83.3,12,12,0,0,1,7.19,8.21A17.18,17.18,0,0,1,104.37,382a31,31,0,0,1-6.5,9.23,51.84,51.84,0,0,1-10.13,8.05Z" style="fill:#e6e6e6"></path><path d="M76.54,407.7a13.22,13.22,0,0,1,2.52-2.18c3.73-2.72,8.06-6.94,11.85-9.6.13,3.71.17,7.15-1.08,10.67s-4.18,6.76-8.09,7.45a6.72,6.72,0,0,1-4-.42,3.88,3.88,0,0,1-2.29-2.95A4.13,4.13,0,0,1,76.54,407.7Z" style="fill:#e6e6e6"></path><path d="M92.44,395.71a4.24,4.24,0,0,0-1.7-2,2.49,2.49,0,0,0-2.54,0,2.72,2.72,0,0,0-1,2.08,8,8,0,0,0,.33,2.38,6.17,6.17,0,0,0,5-2.47" style="fill:#fff"></path><path d="M110,406.83a19.31,19.31,0,0,1,13.69-.84c-4.11,7.95-14.42,11.91-23.28,10.65A19.27,19.27,0,0,1,110,406.83Z" style="fill:#ebebeb"></path><path d="M98.66,421.24a10.58,10.58,0,0,1,5.88,4.71c-4.6,1.72-10.26-.48-13.39-4.26A10.53,10.53,0,0,1,98.66,421.24Z" style="fill:#ebebeb"></path><path d="M421.92,443.44a62,62,0,0,1,13.53-32.37c.6-.74-.45-1.8-1.06-1.06a63.73,63.73,0,0,0-14,33.43c-.1,1,1.4.95,1.5,0Z" style="fill:#e0e0e0"></path><path d="M433.08,411.78c4.34,3,8.78,6,13.81,7.51s10.85,1.4,15.16-1.62a1.55,1.55,0,0,0,.66-.75,1.12,1.12,0,0,0-.38-1.12,3,3,0,0,0-1.12-.53,32.15,32.15,0,0,0-5-1c-6.94-.91-16.09-2.25-23.08-2.52" style="fill:#e6e6e6"></path><path d="M465.19,401.43a4.86,4.86,0,0,0-3.15-1.71c-2.63-.4-5.21.81-7.59,2l-20.08,9.94-1,.65a107.54,107.54,0,0,0,12.17-1.21c6.09-.82,12.32-1.66,17.8-4.45a4.87,4.87,0,0,0,2.16-1.76A3.22,3.22,0,0,0,465.19,401.43Z" style="fill:#e6e6e6"></path><path d="M450.31,388.12c-1.24-.94-3-.61-4.44,0-4.48,1.87-7.79,5.94-9.6,10.45s-2.27,9.44-2.33,14.3l.22.1c4.26-7.08,12.11-11.47,16.2-18.66a7.72,7.72,0,0,0,1.14-3.16A3.46,3.46,0,0,0,450.31,388.12Z" style="fill:#e6e6e6"></path><path d="M433.58,412a45,45,0,0,0-13.24-4.8,2.47,2.47,0,0,0-2.35.38,2.25,2.25,0,0,0,.06,2.45,9.79,9.79,0,0,0,16.34,1.86Z" style="fill:#e6e6e6"></path><path d="M435.27,412.92a45.81,45.81,0,0,1-3.11-20,12,12,0,0,0-.07-3.59,3.36,3.36,0,0,0-2.27-2.56,3.67,3.67,0,0,0-2.07.21,8.79,8.79,0,0,0-5.27,6,12.57,12.57,0,0,0,.78,8.12,22.64,22.64,0,0,0,4.76,6.76,38.3,38.3,0,0,0,7.42,5.89Z" style="fill:#e6e6e6"></path><path d="M443.65,419.93a9.46,9.46,0,0,0-1.85-1.59c-2.73-2-5.9-5.09-8.67-7a20.36,20.36,0,0,0,.78,7.81,8.15,8.15,0,0,0,5.93,5.45,4.82,4.82,0,0,0,2.91-.3,2.86,2.86,0,0,0,1.68-2.16A3,3,0,0,0,443.65,419.93Z" style="fill:#e6e6e6"></path><path d="M432,411.15a3.1,3.1,0,0,1,1.25-1.47,1.8,1.8,0,0,1,1.86,0,2,2,0,0,1,.77,1.53,6.15,6.15,0,0,1-.25,1.74,4.54,4.54,0,0,1-3.63-1.81" style="fill:#fff"></path><path d="M419.15,419.3a14.12,14.12,0,0,0-10-.63c3,5.83,10.56,8.73,17.06,7.81A14.1,14.1,0,0,0,419.15,419.3Z" style="fill:#ebebeb"></path><path d="M427.44,429.85a7.79,7.79,0,0,0-4.3,3.45c3.37,1.26,7.51-.35,9.81-3.12A7.76,7.76,0,0,0,427.44,429.85Z" style="fill:#ebebeb"></path><path d="M112.8,307.06c1.59-4.33.31-9.31-2.29-13.13a11.2,11.2,0,0,0-3.27-3.34,5.91,5.91,0,0,0-4.51-.82,4,4,0,0,0-3,3.27c-.15,1.44.62,2.8.88,4.22a42.35,42.35,0,0,1,.06,4.51c.1,1.5.78,3.15,2.2,3.63a12.06,12.06,0,0,0-2.35,2.1,4.74,4.74,0,0,0-1.12,2.89,4.47,4.47,0,0,0,3.43,4,7.33,7.33,0,0,0,5.45-1c1.63-1,2.4-2.68,3.72-4Z" style="fill:#f0f0f0"></path><path d="M111.44,304.86a12.07,12.07,0,0,0-2.25-9.49.62.62,0,0,0-.28-.25c-.28-.11-.56.18-.67.45a3.45,3.45,0,0,0,.06,2.24,17.33,17.33,0,0,0,1.58,3.71,9.15,9.15,0,0,1,1.56,3.46" style="fill:#fafafa"></path><path d="M107.35,296.71,105.68,295a2.58,2.58,0,0,1-.49-.61.8.8,0,0,1,0-.75.74.74,0,0,1,.75-.3,1.34,1.34,0,0,1,.71.44,4.23,4.23,0,0,1,.72,2.65" style="fill:#fafafa"></path><path d="M108.93,301.56c-1.9-1.38-3.77-2.9-5.71-4.23a4.59,4.59,0,0,1-1.49-1.38,1.57,1.57,0,0,1,.17-1.89,1.5,1.5,0,0,1,1.49-.18,3.72,3.72,0,0,1,1.26.94,26.87,26.87,0,0,1,4.28,6.74" style="fill:#fafafa"></path><path d="M111.11,305.69a39.6,39.6,0,0,0-4.92-1.81,7.52,7.52,0,0,1-4.15-3,1.9,1.9,0,0,1-.3-.94.93.93,0,0,1,.44-.84,1.4,1.4,0,0,1,1.11.07,16,16,0,0,1,7.82,6.56" style="fill:#fafafa"></path><path d="M103.07,291.3a1.16,1.16,0,1,0,1.54-.57A1.17,1.17,0,0,0,103.07,291.3Z" style="fill:#fafafa"></path><path d="M109.56,306.12a9,9,0,0,0-7.18,1.1.48.48,0,0,0-.2.2c-.09.2.1.42.3.53a2.54,2.54,0,0,0,1.66.07,11.65,11.65,0,0,0,2.85-.95,6.76,6.76,0,0,1,2.66-.95" style="fill:#fafafa"></path><path d="M103.65,308.53l-1.34,1.14a1.71,1.71,0,0,1-.48.33.61.61,0,0,1-.56,0,.56.56,0,0,1-.18-.57,1,1,0,0,1,.37-.51,3.19,3.19,0,0,1,2-.38" style="fill:#fafafa"></path><path d="M106.74,307.55c-.81,1.19-1.69,2.37-2.46,3.59a2.83,2.83,0,0,1-.82.93.83.83,0,0,1-1.3-1,2.17,2.17,0,0,1,.55-.79,16,16,0,0,1,4-2.77" style="fill:#fafafa"></path><path d="M110.38,306.64a27,27,0,0,0-1.87,3.32,5.54,5.54,0,0,1-2.67,2.61,1.35,1.35,0,0,1-.71.11.69.69,0,0,1-.55-.42,1,1,0,0,1,.19-.78,11.52,11.52,0,0,1,5.61-4.84" style="fill:#fafafa"></path><path d="M112.67,307.31c-.25-4.61,2.45-9,6.06-11.86a11.22,11.22,0,0,1,4.11-2.23,5.91,5.91,0,0,1,4.55.55,4,4,0,0,1,1.9,4c-.29,1.42-1.43,2.49-2.09,3.77a41.3,41.3,0,0,0-1.39,4.29c-.54,1.41-1.68,2.78-3.18,2.82a11.59,11.59,0,0,1,1.62,2.7,4.7,4.7,0,0,1,.22,3.09,4.46,4.46,0,0,1-4.47,2.84,7.32,7.32,0,0,1-4.91-2.59c-1.27-1.41-1.49-3.27-2.35-5Z" style="fill:#f0f0f0"></path><path d="M113.92,303.59a1.13,1.13,0,1,1-.1-1.6A1.14,1.14,0,0,1,113.92,303.59Z" style="fill:#e0e0e0"></path><path d="M112.45,307.18a23.85,23.85,0,0,0-1.07,2.56,2,2,0,0,0-.13.76.65.65,0,0,0,1.19.39,1.91,1.91,0,0,0,.38-.8,23.28,23.28,0,0,0,.63-5.34,1.54,1.54,0,0,0-.08-.74.57.57,0,0,0-.6-.35c-.28.08-.39.41-.46.69a4.19,4.19,0,0,0-.21,1.1,3.68,3.68,0,0,0,.33,1.75" style="fill:#e0e0e0"></path><path d="M113.68,302.32a5.85,5.85,0,0,1,.21-3.65,1.89,1.89,0,0,1,1-1.17.61.61,0,0,1,.4,0,.29.29,0,0,1,.17.34c0,.11-.14.17-.23.23a3.59,3.59,0,0,0-1.39,2.13,10.67,10.67,0,0,0-.22,2.59" style="fill:#e0e0e0"></path><path d="M113.17,302.28A5.5,5.5,0,0,1,112,299.6a3,3,0,0,1,1-2.65.81.81,0,0,1,.32-.16.3.3,0,0,1,.3.16c.08.19-.13.36-.3.48a2.83,2.83,0,0,0-.93,2.52,8.17,8.17,0,0,0,.88,2.66" style="fill:#e0e0e0"></path><path d="M117.09,302.88a16,16,0,0,0,2.6-3.08,3.42,3.42,0,0,0,.73-2.11c0-.3-.21-.65-.51-.64a.63.63,0,0,0-.34.16,12,12,0,0,0-4.95,8.4l0,.12A9.19,9.19,0,0,1,117.09,302.88Z" style="fill:#fafafa"></path><path d="M123.67,297.48a.77.77,0,0,0,.22-.71.73.73,0,0,0-.62-.51,1.37,1.37,0,0,0-.81.21,4.15,4.15,0,0,0-1.47,2.32l-.06.24,2.09-1.11A2.2,2.2,0,0,0,123.67,297.48Z" style="fill:#fafafa"></path><path d="M126.92,298.12a1.51,1.51,0,0,0-1.37-.62,3.61,3.61,0,0,0-1.48.53A27,27,0,0,0,118,303.2c2.23-.76,4.47-1.65,6.71-2.35a4.58,4.58,0,0,0,1.83-.88A1.54,1.54,0,0,0,126.92,298.12Z" style="fill:#fafafa"></path><path d="M124.09,302.55a16,16,0,0,0-9.41,3.95,38.09,38.09,0,0,1,5.24-.27,7.53,7.53,0,0,0,4.86-1.68,1.91,1.91,0,0,0,.57-.81.92.92,0,0,0-.18-.93A1.39,1.39,0,0,0,124.09,302.55Z" style="fill:#fafafa"></path><path d="M125.62,296.44a1.16,1.16,0,0,0,1-1.31,1.17,1.17,0,1,0-1,1.31Z" style="fill:#fafafa"></path><path d="M122.26,311.21c.22,0,.47-.2.44-.42a.47.47,0,0,0-.13-.24,9,9,0,0,0-6.53-3.18l-.09,0a7,7,0,0,1,2.26,1.7,12.36,12.36,0,0,0,2.44,1.75A2.54,2.54,0,0,0,122.26,311.21Z" style="fill:#fafafa"></path><path d="M121.15,311.45l-.18,0,.94,1.49a1.78,1.78,0,0,0,.37.45.6.6,0,0,0,.54.13.55.55,0,0,0,.34-.5,1,1,0,0,0-.2-.58A3.09,3.09,0,0,0,121.15,311.45Z" style="fill:#fafafa"></path><path d="M118.31,309.57c.42,1.38.91,2.76,1.29,4.15a2.67,2.67,0,0,0,.5,1.14,1,1,0,0,0,1.12.29.93.93,0,0,0,.41-.83,2.12,2.12,0,0,0-.29-.91A16.25,16.25,0,0,0,118.31,309.57Z" style="fill:#fafafa"></path><path d="M115.1,307.62a27.51,27.51,0,0,1,.81,3.73,5.46,5.46,0,0,0,1.77,3.28,1.47,1.47,0,0,0,.65.32.68.68,0,0,0,.64-.24,1,1,0,0,0,.06-.8A11.6,11.6,0,0,0,115.1,307.62Z" style="fill:#fafafa"></path><path d="M187.89,118.73c.62-7.63-3.64-15-9.49-20a18.7,18.7,0,0,0-6.72-3.89,9.74,9.74,0,0,0-7.58.69,6.67,6.67,0,0,0-3.33,6.56c.4,2.37,2.23,4.2,3.27,6.36s1.28,4.83,2.1,7.19,2.66,4.7,5.15,4.83a19.65,19.65,0,0,0-2.83,4.4A7.84,7.84,0,0,0,168,130c.85,3,4.13,5,7.28,4.92a12.07,12.07,0,0,0,8.26-4.07c2.18-2.27,2.65-5.35,4.16-8.11Z" style="fill:#f0f0f0"></path><path d="M184.73,115.81a20,20,0,0,0-7.8-14.18,1.22,1.22,0,0,0-.56-.27c-.5,0-.82.53-.89,1a5.72,5.72,0,0,0,1.11,3.54,27.37,27.37,0,0,0,4.17,5.24c1.51,1.49,3.25,2.88,4,4.85" style="fill:#fafafa"></path><path d="M174.57,104.6l-3.42-1.95a3.91,3.91,0,0,1-1.05-.76,1.34,1.34,0,0,1-.34-1.2,1.23,1.23,0,0,1,1.07-.8,2.13,2.13,0,0,1,1.33.38c1.3.85,1.86,2.44,2.33,3.92" style="fill:#fafafa"></path><path d="M179.26,111.66c-3.66-1.37-7.33-3-11-4.23a7.59,7.59,0,0,1-3-1.56,2.58,2.58,0,0,1-.57-3.09,2.48,2.48,0,0,1,2.31-1,6.15,6.15,0,0,1,2.42.94c3.82,2.27,6.87,5.6,9.85,8.89" style="fill:#fafafa"></path><path d="M184.58,117.3c-2.84-.64-5.79-.47-8.68-.71s-5.93-1-8-3a3.28,3.28,0,0,1-.9-1.37,1.54,1.54,0,0,1,.34-1.53,2.3,2.3,0,0,1,1.81-.38,26.49,26.49,0,0,1,15.42,7" style="fill:#fafafa"></path><path d="M165.32,97.85a1.94,1.94,0,1,0,2.22-1.6A1.93,1.93,0,0,0,165.32,97.85Z" style="fill:#fafafa"></path><path d="M182.28,118.66a14.9,14.9,0,0,0-11,5,.88.88,0,0,0-.24.4c-.06.37.35.64.71.72a4.28,4.28,0,0,0,2.7-.61,20.66,20.66,0,0,0,4.13-2.79c1.19-1,2.33-2.25,3.84-2.71" style="fill:#fafafa"></path><path d="M173.91,125.16c-.55.8-1.1,1.61-1.64,2.42a3,3,0,0,1-.63.73,1,1,0,0,1-.91.18.9.9,0,0,1-.54-.83,1.6,1.6,0,0,1,.37-1,5.18,5.18,0,0,1,3-1.5" style="fill:#fafafa"></path><path d="M178.4,122.21c-.75,2.26-1.64,4.54-2.33,6.83a4.63,4.63,0,0,1-.89,1.87,1.56,1.56,0,0,1-1.87.41,1.5,1.5,0,0,1-.64-1.38,3.73,3.73,0,0,1,.52-1.51,27.4,27.4,0,0,1,5.21-6.22" style="fill:#fafafa"></path><path d="M183.83,119.13a45.88,45.88,0,0,0-1.52,6.14,9.17,9.17,0,0,1-3.1,5.38,2.38,2.38,0,0,1-1.09.48,1.11,1.11,0,0,1-1.06-.42,1.68,1.68,0,0,1-.06-1.34,19.24,19.24,0,0,1,6.83-10.24" style="fill:#fafafa"></path><path d="M187.78,119.19c-2.43-7.26-.06-15.47,4.44-21.67a18.61,18.61,0,0,1,5.59-5.38A9.69,9.69,0,0,1,205.33,91a6.66,6.66,0,0,1,4.81,5.57c.18,2.39-1.17,4.61-1.66,7s-.08,5-.32,7.48-1.45,5.19-3.84,5.92a19.38,19.38,0,0,1,3.8,3.6,7.87,7.87,0,0,1,1.72,4.85c-.1,3.15-2.81,5.83-5.89,6.53a12.18,12.18,0,0,1-9-2c-2.66-1.69-3.84-4.56-6-6.89Z" style="fill:#f0f0f0"></path><path d="M188.14,112.68a1.87,1.87,0,1,1-.86-2.5A1.87,1.87,0,0,1,188.14,112.68Z" style="fill:#e0e0e0"></path><path d="M187.39,119.08a39.24,39.24,0,0,0-.57,4.58,3.15,3.15,0,0,0,.12,1.26,1.09,1.09,0,0,0,2.08.1,3.2,3.2,0,0,0,.25-1.44,38.38,38.38,0,0,0-1.36-8.82,2.64,2.64,0,0,0-.47-1.16.9.9,0,0,0-1.11-.28c-.42.24-.45.82-.43,1.3a7.24,7.24,0,0,0,.15,1.86,6.18,6.18,0,0,0,1.31,2.65" style="fill:#e0e0e0"></path><path d="M187.19,110.76a9.75,9.75,0,0,1-1.28-5.93,3.09,3.09,0,0,1,1.1-2.32,1,1,0,0,1,.65-.18.48.48,0,0,1,.42.47.83.83,0,0,1-.26.46,5.89,5.89,0,0,0-1.28,4,17.62,17.62,0,0,0,.79,4.24" style="fill:#e0e0e0"></path><path d="M186.36,110.93a9.31,9.31,0,0,1-3.09-3.76,4.93,4.93,0,0,1,.45-4.7,1.17,1.17,0,0,1,.44-.39.48.48,0,0,1,.55.11c.2.27-.05.64-.26.91a4.68,4.68,0,0,0-.38,4.45,13.79,13.79,0,0,0,2.59,3.85" style="fill:#e0e0e0"></path><path d="M192.89,110.15a27.52,27.52,0,0,0,2.8-6.09,5.7,5.7,0,0,0,.23-3.7c-.18-.47-.63-1-1.11-.79a1.14,1.14,0,0,0-.47.4,20.06,20.06,0,0,0-4.19,15.63v.22C190.42,113.72,191.78,112,192.89,110.15Z" style="fill:#fafafa"></path><path d="M201,98.59a1.35,1.35,0,0,0,0-1.25,1.24,1.24,0,0,0-1.23-.53,2.14,2.14,0,0,0-1.2.7c-1.06,1.13-1.22,2.81-1.33,4.36l0,.41,2.86-2.7A3.94,3.94,0,0,0,201,98.59Z" style="fill:#fafafa"></path><path d="M206.51,98.16a2.47,2.47,0,0,0-2.47-.38,6,6,0,0,0-2.13,1.5c-3.17,3.11-5.34,7.08-7.44,11,3.22-2.2,6.4-4.62,9.69-6.74a7.67,7.67,0,0,0,2.53-2.23A2.56,2.56,0,0,0,206.51,98.16Z" style="fill:#fafafa"></path><path d="M204,106.51a26.51,26.51,0,0,0-13.3,10.5c2.61-1.3,5.51-1.84,8.26-2.77s5.52-2.36,7-4.85a3.22,3.22,0,0,0,.55-1.54,1.55,1.55,0,0,0-.7-1.41A2.28,2.28,0,0,0,204,106.51Z" style="fill:#fafafa"></path><path d="M203.69,96.06a1.94,1.94,0,1,0-2.55-1A1.93,1.93,0,0,0,203.69,96.06Z" style="fill:#fafafa"></path><path d="M204.87,121.17c.33-.16.66-.52.52-.87a1,1,0,0,0-.33-.33,14.92,14.92,0,0,0-11.85-2.18h-.16a11.37,11.37,0,0,1,4.37,1.71,20.44,20.44,0,0,0,4.69,1.72A4.27,4.27,0,0,0,204.87,121.17Z" style="fill:#fafafa"></path><path d="M203.2,122.05l-.31,0,2.18,2a3.09,3.09,0,0,0,.78.56,1,1,0,0,0,.93,0,.91.91,0,0,0,.32-.94,1.54,1.54,0,0,0-.59-.85A5.14,5.14,0,0,0,203.2,122.05Z" style="fill:#fafafa"></path><path d="M197.82,120.3c1.28,2,2.69,4,3.91,6.08A4.58,4.58,0,0,0,203,128a1.56,1.56,0,0,0,1.92,0,1.51,1.51,0,0,0,.29-1.5,3.66,3.66,0,0,0-.87-1.33A27,27,0,0,0,197.82,120.3Z" style="fill:#fafafa"></path><path d="M191.82,118.61a45.87,45.87,0,0,1,2.94,5.6,9.17,9.17,0,0,0,4.3,4.47,2.29,2.29,0,0,0,1.17.22,1.12,1.12,0,0,0,.93-.67,1.65,1.65,0,0,0-.26-1.31A19.28,19.28,0,0,0,191.82,118.61Z" style="fill:#fafafa"></path><path d="M371.48,95.31a8.25,8.25,0,0,0-8.92-.53c-3.62-7.3-13.7-10.53-20.89-6.68a18,18,0,0,0-35.12.42,6.84,6.84,0,0,1-1.34,3.56c-1.46,1.49-3.9,1-6,.83a14.81,14.81,0,0,0-14.93,10.42l90.28-.33C375.36,99.94,374,97.21,371.48,95.31Z" style="fill:#f0f0f0"></path><path d="M164.54,57.71a6.09,6.09,0,0,0-6.57-.39,11.67,11.67,0,0,0-15.36-4.91,13.24,13.24,0,0,0-25.84.31,5.17,5.17,0,0,1-1,2.62c-1.08,1.09-2.87.73-4.4.61a10.89,10.89,0,0,0-11,7.66l66.42-.24A5.3,5.3,0,0,0,164.54,57.71Z" style="fill:#f0f0f0"></path></g><g id="freepik--Shadow--inject-70"><path d="M460.54,444.67c0,3.38-93.51,6.13-208.87,6.13s-208.88-2.75-208.88-6.13,93.52-6.14,208.88-6.14S460.54,441.28,460.54,444.67Z" style="fill:#f5f5f5"></path></g><g id="freepik--Leaves--inject-70"><path d="M377.29,317.08c15.38-8.13,33.58-11.7,50.91-11.32a84.33,84.33,0,0,1,14,1.42c.94.18,1.35-1.27.4-1.45-17.37-3.32-36.11-1.21-52.78,4.41a89.88,89.88,0,0,0-13.29,5.65c-.85.45-.1,1.75.76,1.29Z" style="fill:#263238"></path><path d="M403.51,307.54c6.62-3.73,13.56-6.92,20.89-8.35s15.09-1,21.89,2.33c1.81.88,3.79,2.38,3.74,4.55a4,4,0,0,1-2.74,3.53,9.76,9.76,0,0,1-4.47.18c-12.2-1.51-24.42-4.88-36.6-3.17" style="fill:#263238"></path><path d="M382.41,297a85.73,85.73,0,0,1,20.8-19.41,108.48,108.48,0,0,1,26.2-13.14A81.4,81.4,0,0,1,444,260.89c1-.14.54-1.58-.4-1.45a92.09,92.09,0,0,0-26.95,8.63,107.25,107.25,0,0,0-24.75,16.41,78.24,78.24,0,0,0-10.82,11.75c-.57.78.73,1.52,1.3.76Z" style="fill:#263238"></path><path d="M404.69,278.09a62.74,62.74,0,0,1,21.81-31,18.46,18.46,0,0,1,3.73-2.24c2.8-1.18,5.6,1.7,4.61,4.79a10.42,10.42,0,0,1-2.23,3.83c-2.15,2.37-5,3.74-7.74,5.29a62.08,62.08,0,0,0-20,18.46" style="fill:#263238"></path><path d="M403,278.53l34.88,11.55a9.12,9.12,0,0,0,4.28.7,3.54,3.54,0,0,0,3-2.94c.16-1.71-1.13-3.15-2.44-4.1a26.25,26.25,0,0,0-9.5-3.93,81.91,81.91,0,0,0-29.63-1.69" style="fill:#263238"></path><path d="M462.63,256.62a4.67,4.67,0,0,0-2.76-3.29,10.17,10.17,0,0,0-4.2-.64c-14.36.12-27.82,7.5-39.82,16.11L412.74,272c13.69-7.31,30.43-3.14,44.74-8.88a10.21,10.21,0,0,0,3.72-2.26A5,5,0,0,0,462.63,256.62Z" style="fill:#263238"></path><path d="M385.75,284.48A119.25,119.25,0,0,0,377,258.72a147.39,147.39,0,0,0-13.74-23.88,94.17,94.17,0,0,0-8.3-10.17c-.67-.7-1.73.36-1.06,1.06a107.62,107.62,0,0,1,14.48,19.77,147.58,147.58,0,0,1,11.92,25.19,104.32,104.32,0,0,1,4,14.19c.19.95,1.64.55,1.45-.4Z" style="fill:#263238"></path><path d="M339.18,438.68c2.26-5.61,4.28-11.32,6.25-17,2.64-7.7,5.16-15.44,7.62-23.2q4.38-13.85,8.54-27.76,4.61-15.36,9-30.77,4.61-16.07,9-32.19t8.56-32q3.93-15.13,7.65-30.32c2.18-9,4.3-18,6.28-27,1.61-7.35,3.14-14.72,4.45-22.13.92-5.23,1.79-10.49,2.19-15.78.07-.9.12-1.81.14-2.71a.75.75,0,0,0-1.5,0,102.85,102.85,0,0,1-1.56,13.89c-1.13,6.94-2.5,13.83-3.95,20.7-1.85,8.7-3.84,17.37-5.9,26q-3.56,14.88-7.37,29.69-4.06,15.84-8.35,31.62-4.37,16.17-8.94,32.3-4.43,15.65-9.05,31.24-4.23,14.28-8.65,28.49c-2.55,8.18-5.16,16.33-7.89,24.45-2.09,6.23-4.24,12.45-6.59,18.6-.45,1.18-.91,2.37-1.38,3.54-.36.9,1.09,1.29,1.44.4Z" style="fill:#263238"></path><path d="M393.83,253.09A177,177,0,0,0,437,222.68a142.57,142.57,0,0,0,10.24-10.76c.63-.73-.43-1.79-1.06-1.06a171.16,171.16,0,0,1-40.58,34q-6.1,3.74-12.51,6.93c-.87.43-.11,1.72.76,1.29Z" style="fill:#263238"></path><path d="M482.13,235.77a5,5,0,0,0-2.82-4.46,12.37,12.37,0,0,0-5.15-1l-46.06-2.08,1.09.25a77.78,77.78,0,0,0,45.72,12.08,11.16,11.16,0,0,0,4.53-1A4.85,4.85,0,0,0,482.13,235.77Z" style="fill:#263238"></path><path d="M434.68,225.38c12.26-8.95,24.62-20,32.78-37.7,1.05-2.28,1.52-5.61,0-7.5a3.5,3.5,0,0,0-4.39-.48,10.86,10.86,0,0,0-3.33,3.62C450.6,197,441.54,210,434.45,225" style="fill:#263238"></path><path d="M431,208.74a14,14,0,0,0,1-5.43c-.13-1.86-1.15-3.77-2.79-4.29a4,4,0,0,0-3.89,1.2,11.2,11.2,0,0,0-2.29,3.83c-4.38,10.66-4.13,22.9-7.32,34.06l-1.29,3.08A123.66,123.66,0,0,0,431,208.74Z" style="fill:#263238"></path><path d="M368.11,344.48a165.69,165.69,0,0,1-31-39.17q-3.6-6.29-6.66-12.84c-.41-.87-1.7-.11-1.29.76A170.75,170.75,0,0,0,357,335.36q4.8,5.31,10.06,10.18c.7.66,1.77-.4,1.06-1.06Z" style="fill:#263238"></path><path d="M289.62,305.09a4.68,4.68,0,0,1,3.83-3.44,12.36,12.36,0,0,1,5.2.6l44.81,11.85-1.11-.1a76.56,76.56,0,0,1-47-2.12,11.62,11.62,0,0,1-4.12-2.29A5.1,5.1,0,0,1,289.62,305.09Z" style="fill:#263238"></path><path d="M337.79,309.9c-9.54-12.28-18.63-26.65-22-46.09-.44-2.51,0-5.85,1.94-7.19,1.34-.91,3.19-.34,4.34.85a11.68,11.68,0,0,1,2.28,4.48c5.31,15.86,10.73,31.15,13.76,47.7" style="fill:#263238"></path><path d="M345.56,295a14.25,14.25,0,0,1,.4-5.53c.6-1.74,2.05-3.27,3.76-3.28a4.21,4.21,0,0,1,3.44,2.32,11.78,11.78,0,0,1,1.24,4.37c1.52,11.57-1.8,23.26-1.55,34.94l.47,3.35A129.58,129.58,0,0,1,345.56,295Z" style="fill:#263238"></path><path d="M430.83,177.8c.22-1.53.05-3.32-1.07-4.26-1.82-1.53-4.38.29-6,2.08A101.07,101.07,0,0,0,404,209.11l-.17,2.21a111.37,111.37,0,0,0,22.83-24.38C428.51,184.19,430.35,181.21,430.83,177.8Z" style="fill:#263238"></path><path d="M409.08,185.58c2.19-11.74,3.18-23.93,1.06-35.68a19.17,19.17,0,0,0-2-6.23,6.89,6.89,0,0,0-4.83-3.64c-2.92-.36-5.66,2.12-6.74,5.1s-.85,6.33-.35,9.49c1.88,12,7.21,23.08,12.58,33.8" style="fill:#263238"></path><path d="M399.26,222.36a123.25,123.25,0,0,0-16.72-25.93,10.27,10.27,0,0,0-2.72-2.51,3.38,3.38,0,0,0-3.43-.11,4.21,4.21,0,0,0-1.45,4.21,11.24,11.24,0,0,0,2,4.23,80.3,80.3,0,0,0,23,22.49" style="fill:#263238"></path><path d="M374.14,251.41a85.37,85.37,0,0,0,3.13-33.07,9.24,9.24,0,0,0-1-4,2.82,2.82,0,0,0-3.25-1.47c-1.43.58-1.87,2.52-2.05,4.18a79.84,79.84,0,0,0,3.34,32.78" style="fill:#263238"></path><path d="M362.44,232.29c-7.21-14.95-22.8-24.57-38.25-23.62-2.17.13-4.8.87-5.36,3.17s1.46,4.41,3.36,5.63c11.68,7.42,27.43,6,37.51,15.79" style="fill:#263238"></path><path d="M372.59,250.68a35.79,35.79,0,0,0-40.93,4.51c-1.93,1.71-3.87,4.43-2.79,6.88a4.07,4.07,0,0,0,3.5,2.26,11.45,11.45,0,0,0,4.18-.8l37.38-12.25" style="fill:#263238"></path><path d="M354.63,393.14a110,110,0,0,1,18.68-17.66,123.54,123.54,0,0,1,21.56-13.2,75.16,75.16,0,0,1,11.62-4.43.75.75,0,0,0-.4-1.45A90.33,90.33,0,0,0,384.82,366,129.51,129.51,0,0,0,363.6,381.6a100.29,100.29,0,0,0-10,10.48c-.61.74.45,1.81,1.06,1.06Z" style="fill:#263238"></path><path d="M378,370.69a82.53,82.53,0,0,1,12.1-30.51,8.38,8.38,0,0,1,2.65-2.91,2.74,2.74,0,0,1,3.49.46c1,1.27.5,3.2-.08,4.74-3.91,10.24-10.53,20.9-18.16,28.22" style="fill:#263238"></path><path d="M438.58,359.92c-13.05-9.1-31.84-8.2-44.83,1l2,1c13.19-3.17,27.15,7,40.66,6.73,2.2,0,4.89-.77,5.45-3.1S440.41,361.2,438.58,359.92Z" style="fill:#263238"></path><path d="M379,369.61c14.5.51,28.3,11.09,33.66,25.82.92,2.52,1.39,5.93-.65,7.49a3.81,3.81,0,0,1-4.07.1,12.64,12.64,0,0,1-3.28-2.93c-9-10.23-17.63-19.18-26.67-29.4" style="fill:#263238"></path><path d="M397,310.49a122.32,122.32,0,0,1,30.45,21.89c1.08,1.06,2.28,2.2,3.73,2.22,2.08,0,3.61-2.47,3.47-4.74A10.22,10.22,0,0,0,431.8,324a37.51,37.51,0,0,0-16.49-10.51c-6.14-2.09-12.55-3-18.93-4" style="fill:#263238"></path></g><g id="freepik--flower-3--inject-70"><path d="M279.57,438.54a94.75,94.75,0,0,1,20.74-49.61c.6-.74-.45-1.81-1.06-1.06a95.56,95.56,0,0,0-21.18,50.67c-.1,1,1.4.95,1.5,0Z" style="fill:#263238"></path><path d="M297,390.28c6.63,4.52,13.39,9.11,21.06,11.45s16.54,2.13,23.11-2.48a2.4,2.4,0,0,0,1-1.13,1.71,1.71,0,0,0-.59-1.71,4.43,4.43,0,0,0-1.71-.81,49,49,0,0,0-7.69-1.47c-10.58-1.4-24.53-3.44-35.19-3.85" style="fill:#407BFF"></path><path d="M345.92,374.51a7.39,7.39,0,0,0-4.81-2.62c-4-.61-7.93,1.24-11.56,3l-30.61,15.15-1.46,1A162.79,162.79,0,0,0,316,389.22c9.29-1.24,18.79-2.52,27.14-6.78a7.43,7.43,0,0,0,3.3-2.67A4.92,4.92,0,0,0,345.92,374.51Z" style="fill:#407BFF"></path><path d="M323.25,354.22c-1.89-1.43-4.6-.94-6.78,0-6.83,2.85-11.87,9.06-14.63,15.93s-3.46,14.39-3.55,21.8l.33.15c6.5-10.8,18.47-17.49,24.7-28.44a11.92,11.92,0,0,0,1.73-4.81A5.25,5.25,0,0,0,323.25,354.22Z" style="fill:#407BFF"></path><path d="M297.74,390.66a69.15,69.15,0,0,0-20.19-7.32c-1.24-.24-2.74-.36-3.58.58s-.5,2.55.09,3.74A14.93,14.93,0,0,0,299,390.5Z" style="fill:#407BFF"></path><path d="M300.32,392a69.7,69.7,0,0,1-4.75-30.47,17.58,17.58,0,0,0-.11-5.47,5.13,5.13,0,0,0-3.46-3.91,5.6,5.6,0,0,0-3.15.33,13.33,13.33,0,0,0-8,9.16A19.19,19.19,0,0,0,282,374.05a34.44,34.44,0,0,0,7.26,10.3,57.79,57.79,0,0,0,11.31,9Z" style="fill:#407BFF"></path><path d="M313.08,402.71a15.24,15.24,0,0,0-2.8-2.44c-4.17-3-9-7.75-13.23-10.71-.16,4.13-.2,8,1.2,11.91s4.67,7.54,9,8.31a7.36,7.36,0,0,0,4.43-.46,4.32,4.32,0,0,0,2.56-3.29A4.64,4.64,0,0,0,313.08,402.71Z" style="fill:#407BFF"></path><path d="M295.33,389.31a4.71,4.71,0,0,1,1.9-2.23,2.78,2.78,0,0,1,2.84,0,3,3,0,0,1,1.17,2.32,9.17,9.17,0,0,1-.37,2.65c-1.88,0-4.54-1-5.54-2.76" style="fill:#fff"></path><path d="M275.74,401.74a21.53,21.53,0,0,0-15.29-.95c4.59,8.88,16.11,13.31,26,11.9A21.53,21.53,0,0,0,275.74,401.74Z" style="fill:#263238"></path><path d="M288.38,417.83a11.84,11.84,0,0,0-6.56,5.26c5.14,1.91,11.46-.54,15-4.77A11.88,11.88,0,0,0,288.38,417.83Z" style="fill:#263238"></path></g><g id="freepik--flowers-1--inject-70"><path d="M97.85,157.07a450,450,0,0,0,9.85,55.14c4.37,18.3,9.6,36.37,15.08,54.37s11.24,36,16.67,54,10.48,36.05,14.62,54.36a413.29,413.29,0,0,1,9,55.73c.2,2.32.37,4.65.53,7,.06,1,1.56,1,1.5,0a394.15,394.15,0,0,0-7.86-55.33c-3.86-18.36-8.74-36.48-14-54.47s-11-36-16.59-54-10.93-36-15.53-54.27A475,475,0,0,1,100.18,164c-.3-2.31-.57-4.63-.83-7-.1-.95-1.6-1-1.5,0Z" style="fill:#263238"></path><path d="M129.39,283.32a362.09,362.09,0,0,1,19.43-67.54q3.69-9.34,7.86-18.48c.4-.87-.9-1.64-1.29-.76A376,376,0,0,0,132.2,263q-2.41,9.92-4.25,20c-.18.94,1.27,1.35,1.44.4Z" style="fill:#263238"></path><path d="M121,259c-7.08-12.2-14.26-24.54-24-34.48-1.93-2-4-3.9-6.61-4.72s-5.7-.26-7.3,2-1.23,5.66.19,8.09,3.68,4.15,5.88,5.8l32.32,24.28Z" style="fill:#263238"></path><path d="M158.2,258.89c-1.62-.46-5.5.7-6.81,1.82-6.48,5.57-9.84,12-12.6,20.4s-2.74,18.59-2.82,27.46l1.23,4.92a83.63,83.63,0,0,1,14.34-32.13c3.63-4.93,8-9.73,9.12-15.88C161.15,262.92,160.57,259.55,158.2,258.89Z" style="fill:#263238"></path><path d="M177.4,322.9c-1.62-.46-5.51.69-6.81,1.82-6.48,5.57-9.84,12-12.6,20.4s-2.75,18.59-2.82,27.46l1.22,4.92a83.78,83.78,0,0,1,14.34-32.13c3.63-4.94,8-9.74,9.13-15.88C180.34,326.92,179.77,323.56,177.4,322.9Z" style="fill:#263238"></path><path d="M121.76,366.11c1.11-1.11,4.69-2,6.19-1.69,7.46,1.47,12.79,5.09,18.41,10.52s9.76,13.62,13.44,20.69l1,4.51A69.86,69.86,0,0,0,136.25,381c-4.92-2.27-10.34-4.12-13.78-8.5C121,370.7,120.13,367.74,121.76,366.11Z" style="fill:#263238"></path><path d="M169.47,224.61c-1-1-4.3-1.79-5.67-1.51-6.82,1.39-11.67,4.72-16.79,9.72s-8.86,12.5-12.19,19l-.91,4.12a63.91,63.91,0,0,1,22.38-17.6c4.48-2.1,9.43-3.82,12.56-7.84C170.15,228.81,171,226.09,169.47,224.61Z" style="fill:#263238"></path><path d="M125.18,183.44c-1.38-.18-4.46,1.25-5.42,2.33-4.74,5.4-6.82,11.14-8.2,18.38s-.26,15.67.64,23l1.54,3.91a70.71,70.71,0,0,1,8.37-28.26c2.46-4.52,5.51-9,5.81-14.23C128.05,186.4,127.21,183.69,125.18,183.44Z" style="fill:#263238"></path><path d="M158.82,164.73c-.32-2.71-1.12-5.78-3.32-6.62s-4.43.94-5.52,3.24a16.56,16.56,0,0,0-1.09,7.57c.27,8.74,0,24.62,5.42,30.24l.45-1C156.28,190.8,159.6,171.53,158.82,164.73Z" style="fill:#407BFF"></path><g style="opacity:0.30000000000000004"><path d="M158.82,164.73c-.32-2.71-1.12-5.78-3.32-6.62s-4.43.94-5.52,3.24a16.56,16.56,0,0,0-1.09,7.57c.27,8.74,0,24.62,5.42,30.24l.45-1C156.28,190.8,159.6,171.53,158.82,164.73Z"></path></g><path d="M185,186.24c1.94-1.79,3.89-4.2,3.33-6.61-.53-2.25-3.19-3.41-5.59-3.1s-4.57,1.74-6.52,3.23c-6.68,5.08-19.25,13.61-20.62,21.57l1-.16C163.24,198.44,180.13,190.71,185,186.24Z" style="fill:#407BFF"></path><g style="opacity:0.30000000000000004"><path d="M185,186.24c1.94-1.79,3.89-4.2,3.33-6.61-.53-2.25-3.19-3.41-5.59-3.1s-4.57,1.74-6.52,3.23c-6.68,5.08-19.25,13.61-20.62,21.57l1-.16C163.24,198.44,180.13,190.71,185,186.24Z"></path></g><path d="M188.61,192.41c-.72-2.39-3.44-3.32-5.79-3.43a24.75,24.75,0,0,0-12.94,3.39c-2.38,1.29-6.77,3.08-10.7,4.91a178.39,178.39,0,0,0,15.12-20.35c2.78-4.24,2.73-8.67,2-10.68a4.7,4.7,0,0,0-2.79-2.81,7.46,7.46,0,0,0-3.92-.29c-5.95.94-9.93,7.7-12.13,13.66a95,95,0,0,0-4.31,20.67,75.39,75.39,0,0,0-3.54-24.63c-.91-2.84-2.48-6-5.26-6.48-2.6-.47-5.1,1.8-5.93,4.46s-.38,5.58.22,8.31c2.08,9.31,6.38,18.6,14,23.64,5,1.87,10.69,2,16,1.92A35.72,35.72,0,0,0,179,203.39a15.94,15.94,0,0,0,8.48-6A6.07,6.07,0,0,0,188.61,192.41Z" style="fill:#407BFF"></path><path d="M168.09,199.41a2.76,2.76,0,0,0-2.68-1.59,11.55,11.55,0,0,0-6,1.57c-1.1.6-3.13,1.42-4.95,2.27a81.34,81.34,0,0,0,7-9.4,6.15,6.15,0,0,0,1-4.93,2.18,2.18,0,0,0-1.29-1.3,3.49,3.49,0,0,0-1.81-.14c-2.75.44-4.59,3.56-5.61,6.31a44.25,44.25,0,0,0-2,9.55,34.74,34.74,0,0,0-1.63-11.37c-.42-1.32-1.15-2.77-2.43-3a2.68,2.68,0,0,0-2.74,2.06,7.59,7.59,0,0,0,.1,3.84c1,4.3,2.95,8.59,6.47,10.92a20.53,20.53,0,0,0,7.4.88,16.33,16.33,0,0,0,4.73-.6,7.32,7.32,0,0,0,3.92-2.76A2.82,2.82,0,0,0,168.09,199.41Z" style="fill:#263238"></path><path d="M67.83,116.71c-2.82-1.79-6.35-3.34-8.87-1.63-2.35,1.59-2.6,5.5-1.27,8.48s3.83,5.19,6.32,7.12c8.49,6.56,23.29,19.37,32.9,17.91l-.6-1.28C90.53,139.9,74.89,121.2,67.83,116.71Z" style="fill:#407BFF"></path><g style="opacity:0.30000000000000004"><path d="M67.83,116.71c-2.82-1.79-6.35-3.34-8.87-1.63-2.35,1.59-2.6,5.5-1.27,8.48s3.83,5.19,6.32,7.12c8.49,6.56,23.29,19.37,32.9,17.91l-.6-1.28C90.53,139.9,74.89,121.2,67.83,116.71Z"></path></g><path d="M108.77,105.42c-.17-3.49-.92-7.48-3.65-8.77-2.54-1.2-5.74.75-7.32,3.58s-1.94,6.27-2.06,9.55c-.42,11.17-2.22,31.39,4.25,39.11l.67-1.25C103.24,138.42,109.18,114.17,108.77,105.42Z" style="fill:#407BFF"></path><g style="opacity:0.30000000000000004"><path d="M108.77,105.42c-.17-3.49-.92-7.48-3.65-8.77-2.54-1.2-5.74.75-7.32,3.58s-1.94,6.27-2.06,9.55c-.42,11.17-2.22,31.39,4.25,39.11l.67-1.25C103.24,138.42,109.18,114.17,108.77,105.42Z"></path></g><path d="M117.44,106.39c-2.83-1.09-5.84,1.1-7.79,3.54-3.74,4.65-5.87,10.57-7,16.58-.64,3.57-2.4,9.7-3.75,15.37-1.5-10.81-4.61-22.56-7.41-32.24C89.71,103.3,85.47,99.89,83,99a5.57,5.57,0,0,0-4.86.79,10.78,10.78,0,0,0-3.35,4c-3.78,7.14-.5,16.73,3.42,23.78,3.37,6.05,10.48,15.13,16.19,20.87a84,84,0,0,0-26.1-15.54c-3.42-1.25-7.62-2-10.28.57-2.48,2.43-2.29,6.9-.42,9.88s5,4.8,8,6.29c10.45,5.07,22.63,7.75,33.39,3.49,5.73-3.94,10.29-9.93,14.4-15.73a51.93,51.93,0,0,0,6.8-12,23,23,0,0,0,1-13.8C120.66,109.39,119.46,107.17,117.44,106.39Z" style="fill:#407BFF"></path><g style="opacity:0.6000000000000001"><path d="M117.44,106.39c-2.83-1.09-5.84,1.1-7.79,3.54-3.74,4.65-5.87,10.57-7,16.58-.64,3.57-2.4,9.7-3.75,15.37-1.5-10.81-4.61-22.56-7.41-32.24C89.71,103.3,85.47,99.89,83,99a5.57,5.57,0,0,0-4.86.79,10.78,10.78,0,0,0-3.35,4c-3.78,7.14-.5,16.73,3.42,23.78,3.37,6.05,10.48,15.13,16.19,20.87a84,84,0,0,0-26.1-15.54c-3.42-1.25-7.62-2-10.28.57-2.48,2.43-2.29,6.9-.42,9.88s5,4.8,8,6.29c10.45,5.07,22.63,7.75,33.39,3.49,5.73-3.94,10.29-9.93,14.4-15.73a51.93,51.93,0,0,0,6.8-12,23,23,0,0,0,1-13.8C120.66,109.39,119.46,107.17,117.44,106.39Z" style="fill:#fff"></path></g><path d="M108,134c-1.3-.51-2.69.51-3.6,1.63a17.05,17.05,0,0,0-3.21,7.66c-.29,1.65-1.1,4.48-1.73,7.1A111.05,111.05,0,0,0,96,135.46a7.31,7.31,0,0,0-3.93-4.9,2.57,2.57,0,0,0-2.24.37,5,5,0,0,0-1.55,1.84c-1.74,3.3-.23,7.73,1.58,11a52.91,52.91,0,0,0,7.48,9.63,38.68,38.68,0,0,0-12.06-7.17c-1.57-.58-3.52-.94-4.75.26s-1,3.19-.19,4.57a8.64,8.64,0,0,0,3.72,2.9c4.82,2.34,10.45,3.58,15.42,1.61a28.89,28.89,0,0,0,6.65-7.26,24,24,0,0,0,3.14-5.56,10.65,10.65,0,0,0,.46-6.38A3.4,3.4,0,0,0,108,134Z" style="fill:#263238"></path><path d="M42.82,297.23c-3.26.38-7,1.41-8,4.39-1,2.78,1,6.06,3.78,7.59s6,1.68,9.07,1.62c10.49-.21,29.54.51,36.39-6.84l-1.21-.63C74.06,301.16,51,296.28,42.82,297.23Z" style="fill:#407BFF"></path><g style="opacity:0.30000000000000004"><path d="M42.82,297.23c-3.26.38-7,1.41-8,4.39-1,2.78,1,6.06,3.78,7.59s6,1.68,9.07,1.62c10.49-.21,29.54.51,36.39-6.84l-1.21-.63C74.06,301.16,51,296.28,42.82,297.23Z"></path></g><path d="M69.1,261.93c-2.1-2.67-5-5.38-7.86-4.65-2.72.67-4.16,4.28-3.83,7.56s2,6.24,3.77,8.94c6,9.18,16,26.48,25.51,28.48l-.18-1.42C83.36,291.82,74.38,268.66,69.1,261.93Z" style="fill:#407BFF"></path><g style="opacity:0.30000000000000004"><path d="M69.1,261.93c-2.1-2.67-5-5.38-7.86-4.65-2.72.67-4.16,4.28-3.83,7.56s2,6.24,3.77,8.94c6,9.18,16,26.48,25.51,28.48l-.18-1.42C83.36,291.82,74.38,268.66,69.1,261.93Z"></path></g><path d="M76.58,257.13c-2.88.95-4,4.63-4.23,7.83a37.55,37.55,0,0,0,3.84,17.7c1.51,3.26,3.57,9.28,5.71,14.67-7.31-7.66-16.44-15-24.16-21-5-3.88-10.35-3.88-12.78-3a6.07,6.07,0,0,0-3.42,3.76,11.42,11.42,0,0,0-.42,5.33c1,8.12,9.06,13.67,16.18,16.78,6.1,2.67,16.92,5.34,24.72,6.25a80.6,80.6,0,0,0-29.62,4.37c-3.43,1.19-7.23,3.27-7.88,7.06-.6,3.53,2.07,7,5.26,8.15s6.68.63,10-.15c11.2-2.66,22.44-8.35,28.62-18.65,2.34-6.83,2.6-14.53,2.6-21.8a54.56,54.56,0,0,0-1.39-14c-1.19-4.52-3.48-8.85-7-11.65C80.84,257.46,78.63,256.46,76.58,257.13Z" style="fill:#407BFF"></path><g style="opacity:0.6000000000000001"><path d="M76.58,257.13c-2.88.95-4,4.63-4.23,7.83a37.55,37.55,0,0,0,3.84,17.7c1.51,3.26,3.57,9.28,5.71,14.67-7.31-7.66-16.44-15-24.16-21-5-3.88-10.35-3.88-12.78-3a6.07,6.07,0,0,0-3.42,3.76,11.42,11.42,0,0,0-.42,5.33c1,8.12,9.06,13.67,16.18,16.78,6.1,2.67,16.92,5.34,24.72,6.25a80.6,80.6,0,0,0-29.62,4.37c-3.43,1.19-7.23,3.27-7.88,7.06-.6,3.53,2.07,7,5.26,8.15s6.68.63,10-.15c11.2-2.66,22.44-8.35,28.62-18.65,2.34-6.83,2.6-14.53,2.6-21.8a54.56,54.56,0,0,0-1.39-14c-1.19-4.52-3.48-8.85-7-11.65C80.84,257.46,78.63,256.46,76.58,257.13Z" style="fill:#fff"></path></g><path d="M84.6,285.22c-1.32.44-1.86,2.14-1.95,3.62A17.28,17.28,0,0,0,84.43,297c.69,1.51,1.65,4.29,2.63,6.78a100,100,0,0,0-11.15-9.69A6.67,6.67,0,0,0,70,292.72a2.8,2.8,0,0,0-1.58,1.73,5.28,5.28,0,0,0-.19,2.47c.47,3.75,4.18,6.31,7.47,7.75a47.49,47.49,0,0,0,11.42,2.88,37.17,37.17,0,0,0-13.68,2c-1.59.55-3.34,1.51-3.64,3.26a3.65,3.65,0,0,0,2.43,3.77,8,8,0,0,0,4.6-.07c5.18-1.23,10.37-3.86,13.22-8.62a31.45,31.45,0,0,0,1.2-10.07,25.33,25.33,0,0,0-.64-6.45A10.08,10.08,0,0,0,87.37,286,3.09,3.09,0,0,0,84.6,285.22Z" style="fill:#263238"></path><path d="M87.34,307.67c18,6.79,35.49,15.46,50,28.3,3.13,2.77,6.1,5.7,9,8.74a.76.76,0,0,0,1.18-.15l15.76-24.08,24.9-38.05,5.67-8.66c.53-.81-.77-1.56-1.29-.75l-15.76,24.07-24.91,38.05-5.67,8.66,1.18-.15a129.79,129.79,0,0,0-17.3-15.5A145.76,145.76,0,0,0,106,313.91c-6-2.84-12-5.36-18.22-7.69-.91-.34-1.3,1.11-.4,1.45Z" style="fill:#263238"></path><path d="M197.84,235c-.31-2.71-1.11-5.78-3.31-6.62s-4.44.94-5.52,3.24a16.58,16.58,0,0,0-1.09,7.58c.27,8.73,0,24.61,5.42,30.23l.45-1C195.31,261,198.63,241.77,197.84,235Z" style="fill:#407BFF"></path><g style="opacity:0.30000000000000004"><path d="M197.84,235c-.31-2.71-1.11-5.78-3.31-6.62s-4.44.94-5.52,3.24a16.58,16.58,0,0,0-1.09,7.58c.27,8.73,0,24.61,5.42,30.23l.45-1C195.31,261,198.63,241.77,197.84,235Z"></path></g><path d="M224,256.48c1.95-1.78,3.9-4.19,3.33-6.61-.52-2.25-3.19-3.41-5.59-3.1s-4.56,1.74-6.52,3.23c-6.67,5.09-19.25,13.61-20.61,21.57l1-.16C202.27,268.68,219.16,261,224,256.48Z" style="fill:#407BFF"></path><g style="opacity:0.30000000000000004"><path d="M224,256.48c1.95-1.78,3.9-4.19,3.33-6.61-.52-2.25-3.19-3.41-5.59-3.1s-4.56,1.74-6.52,3.23c-6.67,5.09-19.25,13.61-20.61,21.57l1-.16C202.27,268.68,219.16,261,224,256.48Z"></path></g><path d="M227.64,262.65c-.73-2.39-3.44-3.31-5.79-3.43a24.84,24.84,0,0,0-12.94,3.39c-2.38,1.3-6.78,3.08-10.71,4.92a177,177,0,0,0,15.12-20.36c2.79-4.24,2.73-8.67,2.06-10.68a4.7,4.7,0,0,0-2.79-2.81,7.57,7.57,0,0,0-3.92-.29c-5.95.94-9.93,7.7-12.13,13.67a95.4,95.4,0,0,0-4.32,20.66,75.29,75.29,0,0,0-3.53-24.62c-.92-2.85-2.48-6-5.27-6.49-2.6-.47-5.09,1.8-5.92,4.47s-.39,5.57.22,8.3c2.07,9.31,6.37,18.6,14,23.64,5,1.87,10.69,2,16,1.92A35.37,35.37,0,0,0,218,273.63a15.81,15.81,0,0,0,8.47-6A6.1,6.1,0,0,0,227.64,262.65Z" style="fill:#407BFF"></path><path d="M207.12,269.65a2.77,2.77,0,0,0-2.68-1.59,11.53,11.53,0,0,0-6,1.57c-1.1.6-3.13,1.42-4.95,2.27a82.51,82.51,0,0,0,7-9.4,6.19,6.19,0,0,0,1-4.93,2.18,2.18,0,0,0-1.29-1.3,3.63,3.63,0,0,0-1.82-.14c-2.74.44-4.58,3.56-5.6,6.32a44,44,0,0,0-2,9.54,35,35,0,0,0-1.63-11.37c-.43-1.32-1.15-2.77-2.44-3a2.68,2.68,0,0,0-2.73,2.06,7.58,7.58,0,0,0,.1,3.84c1,4.3,2.94,8.59,6.47,10.92a20.74,20.74,0,0,0,7.4.89,16.79,16.79,0,0,0,4.73-.61,7.26,7.26,0,0,0,3.91-2.76A2.79,2.79,0,0,0,207.12,269.65Z" style="fill:#263238"></path><path d="M163.78,423.33c2.58-15.61,8.72-30.76,16.79-44.31a117.29,117.29,0,0,1,7.2-10.72c.58-.77-.72-1.52-1.3-.76A133.47,133.47,0,0,0,165.35,410a106.5,106.5,0,0,0-3,13c-.16.94,1.29,1.35,1.44.4Z" style="fill:#263238"></path><path d="M194.87,349.81c.18-1.45.15-3.16-.89-3.91s-2.42-.14-3.27.9a8.7,8.7,0,0,0-1.51,3.77c-1,4.57-3.11,12.77-1,16.46l.36-.46C190.29,363,194.43,353.45,194.87,349.81Z" style="fill:#407BFF"></path><g style="opacity:0.30000000000000004"><path d="M194.87,349.81c.18-1.45.15-3.16-.89-3.91s-2.42-.14-3.27.9a8.7,8.7,0,0,0-1.51,3.77c-1,4.57-3.11,12.77-1,16.46l.36-.46C190.29,363,194.43,353.45,194.87,349.81Z"></path></g><path d="M205.77,364.69c1.23-.65,2.55-1.62,2.55-2.95a2.72,2.72,0,0,0-2.51-2.41,7.54,7.54,0,0,0-3.79.75c-4.09,1.69-11.69,4.33-13.39,8.27l.56.06C193,367.93,202.68,366.32,205.77,364.69Z" style="fill:#407BFF"></path><g style="opacity:0.30000000000000004"><path d="M205.77,364.69c1.23-.65,2.55-1.62,2.55-2.95a2.72,2.72,0,0,0-2.51-2.41,7.54,7.54,0,0,0-3.79.75c-4.09,1.69-11.69,4.33-13.39,8.27l.56.06C193,367.93,202.68,366.32,205.77,364.69Z"></path></g><path d="M206.87,368.4c-.08-1.34-1.37-2.2-2.58-2.6a13.21,13.21,0,0,0-7.14-.08c-1.39.34-3.9.64-6.17,1a91.25,91.25,0,0,0,10.4-8.41,7,7,0,0,0,2.4-5.25,2.63,2.63,0,0,0-1.1-1.86,4.08,4.08,0,0,0-2-.7c-3.21-.36-6.12,2.58-8,5.36A49.41,49.41,0,0,0,187.86,366a40.6,40.6,0,0,0,1.25-13.28c-.12-1.6-.54-3.46-1.93-4.11s-2.86.21-3.63,1.47a8.66,8.66,0,0,0-.92,4.35c-.09,5.12,1,10.55,4.3,14.25A24.13,24.13,0,0,0,195,372a18.89,18.89,0,0,0,5.47.78,8.22,8.22,0,0,0,5.15-1.89A3.22,3.22,0,0,0,206.87,368.4Z" style="fill:#407BFF"></path><g style="opacity:0.6000000000000001"><path d="M206.87,368.4c-.08-1.34-1.37-2.2-2.58-2.6a13.21,13.21,0,0,0-7.14-.08c-1.39.34-3.9.64-6.17,1a91.25,91.25,0,0,0,10.4-8.41,7,7,0,0,0,2.4-5.25,2.63,2.63,0,0,0-1.1-1.86,4.08,4.08,0,0,0-2-.7c-3.21-.36-6.12,2.58-8,5.36A49.41,49.41,0,0,0,187.86,366a40.6,40.6,0,0,0,1.25-13.28c-.12-1.6-.54-3.46-1.93-4.11s-2.86.21-3.63,1.47a8.66,8.66,0,0,0-.92,4.35c-.09,5.12,1,10.55,4.3,14.25A24.13,24.13,0,0,0,195,372a18.89,18.89,0,0,0,5.47.78,8.22,8.22,0,0,0,5.15-1.89A3.22,3.22,0,0,0,206.87,368.4Z" style="fill:#fff"></path></g><path d="M195.34,369.12c0-.62-.63-1-1.19-1.2a6,6,0,0,0-3.29,0c-.65.15-1.81.29-2.85.48a42.38,42.38,0,0,0,4.8-3.89,3.25,3.25,0,0,0,1.11-2.42,1.23,1.23,0,0,0-.51-.86,1.93,1.93,0,0,0-.92-.33c-1.48-.16-2.83,1.2-3.7,2.48a23,23,0,0,0-2.23,4.67,18.7,18.7,0,0,0,.58-6.13c-.06-.75-.25-1.6-.89-1.9a1.38,1.38,0,0,0-1.68.68,4,4,0,0,0-.42,2,9.59,9.59,0,0,0,2,6.59,11.09,11.09,0,0,0,3.72,1.51,9.1,9.1,0,0,0,2.53.36,3.84,3.84,0,0,0,2.38-.88A1.44,1.44,0,0,0,195.34,369.12Z" style="fill:#263238"></path></g><g id="freepik--flowers-2--inject-70"><path d="M238.26,438.48a789,789,0,0,1,6-187q4-26.07,9.7-51.83c.21-.94-1.23-1.34-1.44-.4A790.08,790.08,0,0,0,234,385.82q.53,26.37,2.81,52.66c.08,1,1.58,1,1.5,0Z" style="fill:#263238"></path><path d="M298.24,205.36c-1.75-3.58-6.08-5-10-5.68a45.85,45.85,0,0,0-16.8-.24c-5.53,1.08-11.11,2.18-15,6.28a65.16,65.16,0,0,0-1.79,18.87c.14,2.57.47,5.28,2,7.35,2.18,2.95,6.23,3.85,9.9,3.7,11-.44,20.38-8.14,27.49-16.55a23.41,23.41,0,0,0,4.16-6.34A9.26,9.26,0,0,0,298.24,205.36Z" style="fill:#407BFF"></path><g style="opacity:0.5"><path d="M298.24,205.36c-1.75-3.58-6.08-5-10-5.68a45.85,45.85,0,0,0-16.8-.24c-5.53,1.08-11.11,2.18-15,6.28a65.16,65.16,0,0,0-1.79,18.87c.14,2.57.47,5.28,2,7.35,2.18,2.95,6.23,3.85,9.9,3.7,11-.44,20.38-8.14,27.49-16.55a23.41,23.41,0,0,0,4.16-6.34A9.26,9.26,0,0,0,298.24,205.36Z" style="fill:#fff"></path></g><path d="M256.56,206.14l-9.2-11.56c-6.15-5.94-13.29-2.79-21.26-.73-6.13,1.59-12.2,5.53-15.28,11.07s-1.57,12.75,2.34,17.7,9.83,7.93,15.83,9.86c5.69,1.84,12.09,2.82,17.52.31,6.18-2.85,9.46-9,9.71-15.8S256.56,206.14,256.56,206.14Z" style="fill:#407BFF"></path><g style="opacity:0.5"><path d="M256.56,206.14l-9.2-11.56c-6.15-5.94-13.29-2.79-21.26-.73-6.13,1.59-12.2,5.53-15.28,11.07s-1.57,12.75,2.34,17.7,9.83,7.93,15.83,9.86c5.69,1.84,12.09,2.82,17.52.31,6.18-2.85,9.46-9,9.71-15.8S256.56,206.14,256.56,206.14Z" style="fill:#fff"></path></g><path d="M232.45,166.49c-4.13-2.05-8.89-3.29-13.36-2.18-5.64,1.4-9.82,6.29-12.21,11.58-2.18,4.81-3.15,10.46-1.19,15.36,2,5.11,7.08,8.65,12.47,9.78s11.05.08,16.15-2,9.74-5.11,14.34-8.13l2.42-1.45A36.09,36.09,0,0,0,232.45,166.49Z" style="fill:#407BFF"></path><g style="opacity:0.5"><path d="M232.45,166.49c-4.13-2.05-8.89-3.29-13.36-2.18-5.64,1.4-9.82,6.29-12.21,11.58-2.18,4.81-3.15,10.46-1.19,15.36,2,5.11,7.08,8.65,12.47,9.78s11.05.08,16.15-2,9.74-5.11,14.34-8.13l2.42-1.45A36.09,36.09,0,0,0,232.45,166.49Z" style="fill:#fff"></path></g><path d="M259.54,147.15a19,19,0,0,0-18.8,4.34,19.63,19.63,0,0,0-5.19,18.65c1.34,5.21,4.75,9.64,8.58,13.4,3.15,3.1,7.07,6,11.48,5.83l8.4-5.76c4.33-6.48,8.58-13.82,7.68-21.56A18.33,18.33,0,0,0,259.54,147.15Z" style="fill:#407BFF"></path><g style="opacity:0.5"><path d="M259.54,147.15a19,19,0,0,0-18.8,4.34,19.63,19.63,0,0,0-5.19,18.65c1.34,5.21,4.75,9.64,8.58,13.4,3.15,3.1,7.07,6,11.48,5.83l8.4-5.76c4.33-6.48,8.58-13.82,7.68-21.56A18.33,18.33,0,0,0,259.54,147.15Z" style="fill:#fff"></path></g><path d="M296.71,163.07c-3.83-1.56-8.2-1.23-12.16-.07-12.19,3.58-23.1,15-23.85,27.69h0c.31,4.35-.26,9.59,3.85,11.05s12.78-.52,17.05-1.41c5.86-1.22,11.62-3.47,16.16-7.36s7.77-9.56,7.85-15.54S302.25,165.33,296.71,163.07Z" style="fill:#407BFF"></path><g style="opacity:0.5"><path d="M296.71,163.07c-3.83-1.56-8.2-1.23-12.16-.07-12.19,3.58-23.1,15-23.85,27.69h0c.31,4.35-.26,9.59,3.85,11.05s12.78-.52,17.05-1.41c5.86-1.22,11.62-3.47,16.16-7.36s7.77-9.56,7.85-15.54S302.25,165.33,296.71,163.07Z" style="fill:#fff"></path></g><g style="opacity:0.30000000000000004"><path d="M279.33,196.72a20,20,0,0,0-6.68.71A50.07,50.07,0,0,0,262,201.36l2-.17a50.76,50.76,0,0,1,21-1.68A8.18,8.18,0,0,0,279.33,196.72Z"></path></g><g style="opacity:0.30000000000000004"><path d="M246.62,175.11a19.89,19.89,0,0,0-9.88-6.79,11.31,11.31,0,0,0-1.28-.3l-.35-.06A65.91,65.91,0,0,1,250.78,187,20,20,0,0,0,246.62,175.11Z"></path></g><g style="opacity:0.30000000000000004"><path d="M263.32,175.52a13.25,13.25,0,0,0-2.27,10.14l.19-.12c1.8-6.16,4.37-9.64,9.55-14.57C267.25,171.41,265.42,172.63,263.32,175.52Z"></path></g><path d="M265.81,200.67c2.15-3.79,2.24-9.26-.29-12.81A11.78,11.78,0,0,0,254,183.25c-4.29.81-8.33,6-9.4,10.18l10.44,16.19Z" style="fill:#263238"></path><path d="M248.68,196.15a28.91,28.91,0,0,0-8.5-3c-4.09-.79-7.18-.13-10.27.53-7,1.48-10.09,3.8-16.17,7.34a30.15,30.15,0,0,1,13.14-8.52C236.31,189.5,244.9,190.6,248.68,196.15Z" style="opacity:0.30000000000000004"></path><g style="opacity:0.30000000000000004"><path d="M256.41,205.35c1.52,7.47,1.18,13.61-1.79,20.25l.37,2.31c3.57-2.42,4.94-6.09,5.11-10.39A21.11,21.11,0,0,0,256.41,205.35Z"></path></g><path d="M260.71,201.73a17.4,17.4,0,0,1,6.72,11.84c.05.47.8.48.75,0a18.26,18.26,0,0,0-7.09-12.49c-.39-.29-.76.36-.38.65Z" style="fill:#263238"></path><path d="M266.59,193.43a18.25,18.25,0,0,1,6.29-7c.41-.27,0-.92-.38-.65a18.91,18.91,0,0,0-6.55,7.31c-.22.43.43.81.64.38Z" style="fill:#263238"></path><path d="M274.64,185.19a.38.38,0,0,0,0-.75.38.38,0,0,0,0,.75Z" style="fill:#263238"></path><path d="M265.42,190.51a13.5,13.5,0,0,1,3.07-7.38c.31-.36-.22-.9-.53-.53a14.39,14.39,0,0,0-3.29,7.91c-.05.48.7.47.75,0Z" style="fill:#263238"></path><path d="M257.1,186.25a44.28,44.28,0,0,1-1.43-10.43.38.38,0,0,0-.75,0,44.87,44.87,0,0,0,1.46,10.63.37.37,0,0,0,.72-.2Z" style="fill:#263238"></path><path d="M295.38,197.46a.25.25,0,0,1-.12-.47,23.75,23.75,0,0,0,11.38-14.42.25.25,0,1,1,.48.14,24.26,24.26,0,0,1-11.62,14.72A.27.27,0,0,1,295.38,197.46Z" style="fill:#407BFF"></path><path d="M235.28,369.66a119.28,119.28,0,0,1,13-42.09,123.92,123.92,0,0,1,27-34.66,117,117,0,0,1,20.33-14.61.75.75,0,0,0-.76-1.3,121,121,0,0,0-34.15,29.05,125.43,125.43,0,0,0-21.48,39,118.73,118.73,0,0,0-5.45,24.64c-.11,1,1.39.95,1.5,0Z" style="fill:#263238"></path><path d="M342.79,274.72a14,14,0,0,0-7.38-5.42c-9-3.21-20.71-1.07-26.78,6.32h0c-1.74,2.79-4.4,5.73-2.54,8.43s8,5.34,11,6.69a27,27,0,0,0,13.1,2.67,16.15,16.15,0,0,0,11.66-6C344.56,283.8,345.16,278.55,342.79,274.72Z" style="fill:#407BFF"></path><g style="opacity:0.30000000000000004"><path d="M317.31,287.54a15.15,15.15,0,0,0-4.38-2.53,38.57,38.57,0,0,0-8.21-2.31l1.3.79a38.19,38.19,0,0,1,13.52,8.26A6.13,6.13,0,0,0,317.31,287.54Z"></path></g><path d="M327.19,248.58a14.33,14.33,0,0,0-13.38-5.68A14.8,14.8,0,0,0,302.4,252c-1.49,3.76-1.37,8-.7,12,.55,3.27,1.65,6.78,4.42,8.62l7.66.21c5.51-2,11.34-4.62,14.22-9.74A13.82,13.82,0,0,0,327.19,248.58Z" style="fill:#407BFF"></path><path d="M302.13,248.38c-1.61-3.08-4-5.94-7.18-7.24-4.05-1.64-8.76-.52-12.56,1.65-3.45,2-6.55,5-7.52,8.83-1,4,.49,8.41,3.27,11.48A21.24,21.24,0,0,0,288.86,269a62.87,62.87,0,0,0,12.33,1.39l2.12.19A27.13,27.13,0,0,0,302.13,248.38Z" style="fill:#407BFF"></path><g style="opacity:0.30000000000000004"><path d="M307,259.9a15,15,0,0,0-3-8.51,9.19,9.19,0,0,0-.65-.75l-.18-.19A49.53,49.53,0,0,1,304.2,269,15,15,0,0,0,307,259.9Z"></path></g><g style="opacity:0.30000000000000004"><path d="M316.94,267.53a10,10,0,0,0-5.87,5.18h.17c3.82-3,6.92-3.94,12.26-4.65A7.18,7.18,0,0,0,316.94,267.53Z"></path></g><path d="M307.33,284a9.45,9.45,0,0,0,5.49-7.93,8.9,8.9,0,0,0-5-7.9c-3-1.4-7.71-.05-10.23,2.05l-.8,14.48Z" style="fill:#263238"></path><path d="M299.28,283.2l-.5-11.11c-1.12-6.34-6.86-7.58-12.62-9.85-4.44-1.75-9.89-2-14.21,0s-6.6,7.07-6.4,11.82,2.47,9.17,5.27,13c2.66,3.64,6.12,7.07,10.54,7.94,5,1,9.74-1.3,12.91-5.33S299.28,283.2,299.28,283.2Z" style="fill:#407BFF"></path><path d="M325,301.17c.52-3-1.5-5.73-3.58-7.9a34.64,34.64,0,0,0-10.14-7.57c-3.84-1.79-7.73-3.59-11.9-2.81A49.14,49.14,0,0,0,290,293.6a10,10,0,0,0-2,5.37c0,2.76,2.09,5.1,4.39,6.63,6.9,4.6,16,4.06,24.07,2.08a18.07,18.07,0,0,0,5.34-2A7,7,0,0,0,325,301.17Z" style="fill:#407BFF"></path><path d="M298.89,273.63a21.92,21.92,0,0,0-3.83-5.62,18.05,18.05,0,0,0-6.49-4.22c-4.9-2.17-7.83-2.14-13.1-2.68a22.78,22.78,0,0,1,11.77.62C294.3,264.1,299,268.58,298.89,273.63Z" style="opacity:0.30000000000000004"></path><g style="opacity:0.30000000000000004"><path d="M299.53,282.65c-2.38,5.23-5.3,8.81-10,11.55l-.8,1.57c3.24.1,5.7-1.53,7.71-4.07A15.93,15.93,0,0,0,299.53,282.65Z"></path></g><path d="M303.65,282.34a13,13,0,0,1-1.14,10.17c-.23.42.41.8.65.38a13.79,13.79,0,0,0,1.21-10.75.37.37,0,0,0-.72.2Z" style="fill:#263238"></path><path d="M311.09,280a13.74,13.74,0,0,1,6.89-1.48c.49,0,.49-.72,0-.75a14.43,14.43,0,0,0-7.27,1.58c-.43.22,0,.87.38.65Z" style="fill:#263238"></path><path d="M321.83,279.24a.38.38,0,0,0,0-.75.38.38,0,0,0,0,.75Z" style="fill:#263238"></path><path d="M311.62,277.69a10.2,10.2,0,0,1,5.15-3.14.38.38,0,0,0-.19-.73,10.89,10.89,0,0,0-5.49,3.34c-.31.37.21.9.53.53Z" style="fill:#263238"></path><path d="M308.5,271.32a32.88,32.88,0,0,1,3.74-7c.28-.39-.37-.77-.64-.38a33.6,33.6,0,0,0-3.82,7.14c-.18.45.55.65.72.2Z" style="fill:#263238"></path><path d="M235.82,395.09A90.94,90.94,0,0,1,255.72,352a89.89,89.89,0,0,1,9.4-9.62c.72-.65-.34-1.7-1.06-1.07a92.28,92.28,0,0,0-26.35,40,89,89,0,0,0-3.33,13.45c-.16.94,1.28,1.35,1.44.4Z" style="fill:#263238"></path><path d="M236.11,405.37c-6.6-25.18-15.32-49.74-22.85-74.64-2.08-6.87-4.07-13.77-5.89-20.71a.75.75,0,0,0-1.45.4c6.61,25.18,15.32,49.74,22.86,74.64,2.08,6.87,4.07,13.77,5.89,20.71a.75.75,0,0,0,1.44-.4Z" style="fill:#263238"></path><path d="M212.23,333.73c-2.53-2-3.93-3.57-6.89-6.33s-5.92-5.63-7.82-9.19-2.63-8-.93-11.67a12,12,0,0,1,6.8-6c2.19-.81,4.79-1,6.74.24,2.54,1.67,3,5.16,3.12,8.21a221.59,221.59,0,0,1-1,24.7" style="fill:#407BFF"></path><path d="M214.93,318.3a14.78,14.78,0,0,0-3.67,6.57,21,21,0,0,0-4.79-6.81,40.84,40.84,0,0,0,2.12,9.25,12.36,12.36,0,0,0-8.32-3.19c1.82,2.4,4.45,4,6.87,5.84s4.78,4,5.66,6.86l1.87,1.47A58.6,58.6,0,0,1,214.93,318.3Z" style="fill:#263238"></path><path d="M259.66,347.19c2.61-.56,4.24-1.25,7.45-2.23a30.68,30.68,0,0,0,9.2-4c2.72-2,4.86-5,4.93-8.38a10,10,0,0,0-2.91-6.92,6.3,6.3,0,0,0-5.12-2.28c-2.52.33-4.14,2.76-5.32,5a183.23,183.23,0,0,0-8.23,18.84" style="fill:#407BFF"></path><g style="opacity:0.5"><path d="M259.66,347.19c2.61-.56,4.24-1.25,7.45-2.23a30.68,30.68,0,0,0,9.2-4c2.72-2,4.86-5,4.93-8.38a10,10,0,0,0-2.91-6.92,6.3,6.3,0,0,0-5.12-2.28c-2.52.33-4.14,2.76-5.32,5a183.23,183.23,0,0,0-8.23,18.84" style="fill:#fff"></path></g><path d="M263.26,334.67a12.38,12.38,0,0,1,.35,6.25,17.26,17.26,0,0,1,6.06-3.35,34.42,34.42,0,0,1-4.95,6.14,10.27,10.27,0,0,1,7.37.64c-2.23,1.13-4.79,1.4-7.25,1.87s-5,1.23-6.73,3.07l-1.93.42A48.91,48.91,0,0,0,263.26,334.67Z" style="fill:#263238"></path></g><g id="freepik--Butterflies--inject-70"><path d="M404.91,92.38a31.7,31.7,0,0,1,7.94-31,4.82,4.82,0,0,1,2.21-1.48c1.61-.36,3.12.87,4.25,2.06a22.5,22.5,0,0,1,5.46,8.7,12,12,0,0,1-1.11,10,2.85,2.85,0,0,0-.75,1.82c.09.75.82,1.24,1.46,1.66a21.73,21.73,0,0,1,7.4,8.21,2.86,2.86,0,0,1,.39,2.32c-.43,1-1.73,1.22-2.81,1.27a77.43,77.43,0,0,1-23.76-2.57" style="fill:#407BFF"></path><g style="opacity:0.30000000000000004"><path d="M404.91,92.38a31.7,31.7,0,0,1,7.94-31,4.82,4.82,0,0,1,2.21-1.48c1.61-.36,3.12.87,4.25,2.06a22.5,22.5,0,0,1,5.46,8.7,12,12,0,0,1-1.11,10,2.85,2.85,0,0,0-.75,1.82c.09.75.82,1.24,1.46,1.66a21.73,21.73,0,0,1,7.4,8.21,2.86,2.86,0,0,1,.39,2.32c-.43,1-1.73,1.22-2.81,1.27a77.43,77.43,0,0,1-23.76-2.57"></path></g><path d="M406,94.12a31.73,31.73,0,0,1,17-27.06,4.82,4.82,0,0,1,2.56-.72c1.64.15,2.7,1.77,3.41,3.26a22.5,22.5,0,0,1,2.54,10,11.91,11.91,0,0,1-4.12,9.14c-.52.42-1.13.85-1.26,1.5a2.66,2.66,0,0,0,.88,2,21.74,21.74,0,0,1,4.53,10.09,2.81,2.81,0,0,1-.35,2.33c-.71.81-2,.62-3.05.34a77.64,77.64,0,0,1-21.83-9.72" style="fill:#407BFF"></path><path d="M403.89,91.79a1.82,1.82,0,1,1-2-1.62A1.83,1.83,0,0,1,403.89,91.79Z" style="fill:#263238"></path><path d="M406.7,96.78a39.9,39.9,0,0,0,1.89,4.09,3.16,3.16,0,0,0,.76,1,1.05,1.05,0,0,0,1.76-1,3.05,3.05,0,0,0-.53-1.31,37.47,37.47,0,0,0-5.67-6.6,2.6,2.6,0,0,0-1-.71.91.91,0,0,0-1.08.34c-.21.42.06.91.32,1.3a7.06,7.06,0,0,0,1.09,1.45,5.85,5.85,0,0,0,2.45,1.52" style="fill:#263238"></path><path d="M402.42,90.41A9.44,9.44,0,0,1,401,84.67a3,3,0,0,1,1-2.29.9.9,0,0,1,.63-.2.47.47,0,0,1,.42.45.83.83,0,0,1-.24.45,5.75,5.75,0,0,0-1.12,4,16.64,16.64,0,0,0,.91,4.1" style="fill:#263238"></path><path d="M401.62,90.6A8.83,8.83,0,0,1,398.49,87a4.77,4.77,0,0,1,.28-4.58,1.08,1.08,0,0,1,.42-.4.47.47,0,0,1,.53.09c.21.26,0,.63-.22.9a4.54,4.54,0,0,0-.23,4.34,13.42,13.42,0,0,0,2.65,3.67" style="fill:#263238"></path><g style="opacity:0.30000000000000004"><path d="M426.5,74a2.92,2.92,0,0,0-2.72-1.34,6.7,6.7,0,0,0-3,1c-6.48,3.68-12.36,12.84-14.3,20,1.59-3.2,6.23-7.66,9.33-9.44s6.38-3.29,9-5.68a6.45,6.45,0,0,0,1.65-2.06A2.91,2.91,0,0,0,426.5,74Z" style="fill:#fff"></path></g><g style="opacity:0.30000000000000004"><path d="M409.78,92.64c3.21-2.17,7.42-1.93,11.2-2.83a4.75,4.75,0,0,0,2.11-.94,1.94,1.94,0,0,0,.63-2.09,1.25,1.25,0,0,0-1.9-.54,1.4,1.4,0,0,0,.32-2,2.18,2.18,0,0,0-2-.73,5.53,5.53,0,0,0-2.08.84c-3.35,2-8.89,6.75-10.87,10.13" style="fill:#fff"></path></g><g style="opacity:0.30000000000000004"><path d="M425.18,98.29a8,8,0,0,0-6.74-3.48c-2.63,0-4.89-.57-9,.29,3.86,1.05,7.6,3.66,11.09,5.61a7.47,7.47,0,0,0,2.71,1.09,2.3,2.3,0,0,0,2.43-1.26A2.71,2.71,0,0,0,425.18,98.29Z" style="fill:#fff"></path></g><path d="M78.64,196.49a32.72,32.72,0,0,0-11.49-31,4.87,4.87,0,0,0-2.43-1.28c-1.69-.19-3.11,1.22-4.14,2.58a23.28,23.28,0,0,0-4.68,9.52,12.32,12.32,0,0,0,2.22,10.12,3,3,0,0,1,1,1.79c0,.79-.71,1.37-1.32,1.86A22.39,22.39,0,0,0,51,199.35a2.91,2.91,0,0,0-.15,2.42c.55,1,1.9,1.07,3,1A80.18,80.18,0,0,0,78,197.58" style="fill:#407BFF"></path><g style="opacity:0.30000000000000004"><path d="M78.64,196.49a32.72,32.72,0,0,0-11.49-31,4.87,4.87,0,0,0-2.43-1.28c-1.69-.19-3.11,1.22-4.14,2.58a23.28,23.28,0,0,0-4.68,9.52,12.32,12.32,0,0,0,2.22,10.12,3,3,0,0,1,1,1.79c0,.79-.71,1.37-1.32,1.86A22.39,22.39,0,0,0,51,199.35a2.91,2.91,0,0,0-.15,2.42c.55,1,1.9,1.07,3,1A80.18,80.18,0,0,0,78,197.58"></path></g><path d="M77.7,198.4a32.77,32.77,0,0,0-20.42-26,4.9,4.9,0,0,0-2.7-.47c-1.68.33-2.59,2.11-3.16,3.72a23.19,23.19,0,0,0-1.54,10.5,12.31,12.31,0,0,0,5.21,8.95c.59.37,1.26.75,1.46,1.41a2.77,2.77,0,0,1-.69,2.18,22.43,22.43,0,0,0-3.56,10.84,2.93,2.93,0,0,0,.6,2.36c.82.77,2.13.43,3.18,0a80.25,80.25,0,0,0,21.38-12.33" style="fill:#407BFF"></path><path d="M79.63,195.78a1.88,1.88,0,1,0,1.88-1.88A1.88,1.88,0,0,0,79.63,195.78Z" style="fill:#263238"></path><path d="M77.27,201.21a40.72,40.72,0,0,1-1.5,4.4,3.31,3.31,0,0,1-.67,1.09,1.1,1.1,0,0,1-1.93-.84,3.42,3.42,0,0,1,.41-1.41,39.25,39.25,0,0,1,5.12-7.38,2.76,2.76,0,0,1,.93-.84.93.93,0,0,1,1.14.23c.27.41,0,.94-.19,1.37a7.19,7.19,0,0,1-1,1.61,6.14,6.14,0,0,1-2.36,1.83" style="fill:#263238"></path><path d="M81,194.2a9.79,9.79,0,0,0,.86-6,3.12,3.12,0,0,0-1.27-2.25.93.93,0,0,0-.67-.13.49.49,0,0,0-.39.5.87.87,0,0,0,.3.44,6,6,0,0,1,1.58,3.95,18,18,0,0,1-.5,4.32" style="fill:#263238"></path><path d="M81.83,194.31a9.27,9.27,0,0,0,2.84-4,5,5,0,0,0-.79-4.69,1.08,1.08,0,0,0-.47-.35.48.48,0,0,0-.54.15c-.19.28.1.64.32.89a4.69,4.69,0,0,1,.7,4.44,13.68,13.68,0,0,1-2.33,4.05" style="fill:#263238"></path><g style="opacity:0.30000000000000004"><path d="M54.48,179.91a3,3,0,0,1,2.66-1.68,7.15,7.15,0,0,1,3.19.75c7,3.08,14.07,11.87,16.83,19.05-2-3.11-7.22-7.2-10.59-8.69s-6.91-2.7-9.89-4.87a6.66,6.66,0,0,1-1.91-1.94A3,3,0,0,1,54.48,179.91Z" style="fill:#fff"></path></g><g style="opacity:0.30000000000000004"><path d="M73.66,197.29c-3.53-1.9-7.83-1.2-11.81-1.71a5,5,0,0,1-2.26-.74,2,2,0,0,1-.88-2.08A1.29,1.29,0,0,1,60.6,192a1.43,1.43,0,0,1-.53-2,2.24,2.24,0,0,1,2-1,5.55,5.55,0,0,1,2.23.64c3.66,1.72,9.85,6,12.25,9.24" style="fill:#fff"></path></g><g style="opacity:0.30000000000000004"><path d="M58.45,204.74a8.21,8.21,0,0,1,6.54-4.3c2.71-.3,5-1.11,9.32-.67-3.85,1.49-7.41,4.58-10.79,6.95a7.59,7.59,0,0,1-2.66,1.41,2.36,2.36,0,0,1-2.63-1A2.78,2.78,0,0,1,58.45,204.74Z" style="fill:#fff"></path></g><path d="M348.22,155.75c1.5-6-1-12.52-5-17.24a15.26,15.26,0,0,0-4.88-4,7.93,7.93,0,0,0-6.16-.43,5.39,5.39,0,0,0-3.52,4.82c0,2,1.24,3.66,1.79,5.52s.4,4,.76,6,1.51,4.11,3.49,4.54a16.07,16.07,0,0,0-2.84,3.16,6.41,6.41,0,0,0-1.07,4,6,6,0,0,0,5.19,4.89,9.81,9.81,0,0,0,7.15-2.18c2-1.55,2.81-3.95,4.38-6Z" style="fill:#407BFF"></path><g style="opacity:0.30000000000000004"><path d="M346.07,153a16.24,16.24,0,0,0-4.41-12.37.93.93,0,0,0-.41-.3c-.4-.1-.73.32-.84.71a4.63,4.63,0,0,0,.42,3,22.19,22.19,0,0,0,2.67,4.75c1,1.38,2.23,2.72,2.59,4.4" style="fill:#fff"></path></g><g style="opacity:0.30000000000000004"><path d="M339.39,142.69l-2.49-2a3.29,3.29,0,0,1-.74-.75,1.1,1.1,0,0,1-.11-1,1,1,0,0,1,.95-.5,1.68,1.68,0,0,1,1,.48,5.62,5.62,0,0,1,1.36,3.44" style="fill:#fff"></path></g><g style="opacity:0.30000000000000004"><path d="M342.23,149c-2.75-1.57-5.48-3.32-8.28-4.82a6.14,6.14,0,0,1-2.19-1.63,2.09,2.09,0,0,1-.06-2.55,2,2,0,0,1,2-.46,4.74,4.74,0,0,1,1.82,1.07c2.77,2.31,4.78,5.37,6.74,8.39" style="fill:#fff"></path></g><g style="opacity:0.30000000000000004"><path d="M345.76,154.17a51.3,51.3,0,0,0-6.86-1.7,10.2,10.2,0,0,1-6-3.46,2.65,2.65,0,0,1-.54-1.21,1.25,1.25,0,0,1,.47-1.19,1.88,1.88,0,0,1,1.49-.06,21.5,21.5,0,0,1,11.45,7.62" style="fill:#fff"></path></g><path d="M332.85,136.09a1.57,1.57,0,1,0,3,1,1.57,1.57,0,1,0-3-1Z" style="fill:#fff;opacity:0.30000000000000004"></path><g style="opacity:0.30000000000000004"><path d="M343.74,155a12.13,12.13,0,0,0-9.44,2.54.67.67,0,0,0-.24.29c-.1.29.19.56.48.67a3.43,3.43,0,0,0,2.23-.14,17.07,17.07,0,0,0,3.68-1.7,9.09,9.09,0,0,1,3.42-1.67" style="fill:#fff"></path></g><g style="opacity:0.30000000000000004"><path d="M336.19,159.08l-1.63,1.73a2.34,2.34,0,0,1-.59.5.79.79,0,0,1-.76,0,.73.73,0,0,1-.32-.74,1.24,1.24,0,0,1,.42-.72,4.14,4.14,0,0,1,2.63-.81" style="fill:#fff"></path></g><g style="opacity:0.30000000000000004"><path d="M340.18,157.3c-.9,1.72-1.91,3.43-2.76,5.17a3.83,3.83,0,0,1-.95,1.38,1.27,1.27,0,0,1-1.56.09,1.23,1.23,0,0,1-.33-1.19,3,3,0,0,1,.62-1.14,22.15,22.15,0,0,1,5-4.31" style="fill:#fff"></path></g><g style="opacity:0.30000000000000004"><path d="M344.92,155.54a37.79,37.79,0,0,0-2,4.72,7.45,7.45,0,0,1-3.18,3.91,2.09,2.09,0,0,1-.94.25.93.93,0,0,1-.79-.48,1.33,1.33,0,0,1,.12-1.08,15.68,15.68,0,0,1,6.8-7.32" style="fill:#fff"></path></g><path d="M348.08,156.1c-1-6.13,2-12.4,6.36-16.79a15.25,15.25,0,0,1,5.18-3.58,7.89,7.89,0,0,1,6.18.06,5.41,5.41,0,0,1,3.13,5.08c-.17,1.94-1.54,3.55-2.23,5.37s-.72,4-1.23,5.94-1.84,4-3.85,4.26a15.32,15.32,0,0,1,2.58,3.37,6.38,6.38,0,0,1,.75,4.11,6,6,0,0,1-5.56,4.46,9.86,9.86,0,0,1-7-2.74c-1.91-1.7-2.49-4.16-3.89-6.3Z" style="fill:#407BFF"></path><path d="M349.21,150.93a1.52,1.52,0,1,1-.36-2.12A1.51,1.51,0,0,1,349.21,150.93Z" style="fill:#263238"></path><path d="M347.78,156a30.08,30.08,0,0,0-1,3.59,2.76,2.76,0,0,0-.07,1,.89.89,0,0,0,1.66.35,2.58,2.58,0,0,0,.38-1.12,30.83,30.83,0,0,0,.06-7.25,2.2,2.2,0,0,0-.22-1,.75.75,0,0,0-.86-.37c-.37.14-.47.6-.51,1a5.4,5.4,0,0,0-.12,1.5,5,5,0,0,0,.7,2.3" style="fill:#263238"></path><path d="M348.7,149.27a7.89,7.89,0,0,1-.26-4.92,2.47,2.47,0,0,1,1.19-1.71.73.73,0,0,1,.54-.06.4.4,0,0,1,.28.43.66.66,0,0,1-.27.33,4.77,4.77,0,0,0-1.55,3.06,14.15,14.15,0,0,0,.09,3.5" style="fill:#263238"></path><path d="M348,149.3a7.34,7.34,0,0,1-2-3.42,4,4,0,0,1,1-3.7.9.9,0,0,1,.4-.26.39.39,0,0,1,.42.16c.13.25-.12.51-.32.7a3.77,3.77,0,0,0-.88,3.51,11.18,11.18,0,0,0,1.57,3.42" style="fill:#263238"></path><g style="opacity:0.30000000000000004"><path d="M350.45,153.53a16.25,16.25,0,0,1,5.37-12,1,1,0,0,1,.44-.26c.4-.07.7.38.78.78a4.59,4.59,0,0,1-.66,2.93,22.19,22.19,0,0,1-3,4.52c-1.13,1.3-2.44,2.54-2.94,4.18" style="fill:#fff"></path></g><g style="opacity:0.30000000000000004"><path d="M357.93,143.79l2.63-1.79a3.11,3.11,0,0,0,.8-.69,1.08,1.08,0,0,0,.2-1,1,1,0,0,0-.91-.58,1.68,1.68,0,0,0-1.06.4,5.64,5.64,0,0,0-1.63,3.32" style="fill:#fff"></path></g><g style="opacity:0.30000000000000004"><path d="M354.6,149.82c2.87-1.35,5.73-2.88,8.63-4.15a6.15,6.15,0,0,0,2.32-1.46,2.08,2.08,0,0,0,.26-2.53,2,2,0,0,0-1.93-.62,4.8,4.8,0,0,0-1.9.92c-2.94,2.09-5.19,5-7.38,7.84" style="fill:#fff"></path></g><g style="opacity:0.30000000000000004"><path d="M350.66,154.72a52.62,52.62,0,0,1,7-1.14c2.33-.38,4.73-1.18,6.26-3a2.75,2.75,0,0,0,.64-1.17,1.25,1.25,0,0,0-.37-1.22,1.91,1.91,0,0,0-1.49-.19,21.56,21.56,0,0,0-12,6.69" style="fill:#fff"></path></g><path d="M365,137.72a1.57,1.57,0,1,1-1.91-1.14A1.58,1.58,0,0,1,365,137.72Z" style="fill:#fff;opacity:0.30000000000000004"></path><g style="opacity:0.30000000000000004"><path d="M352.61,155.68a12.06,12.06,0,0,1,9.21,3.29.62.62,0,0,1,.22.31c.07.29-.24.54-.53.62a3.4,3.4,0,0,1-2.22-.32,16.55,16.55,0,0,1-3.53-2,9.13,9.13,0,0,0-3.27-1.94" style="fill:#fff"></path></g><g style="opacity:0.30000000000000004"><path d="M359.81,160.38l1.49,1.85a2.09,2.09,0,0,0,.56.55.81.81,0,0,0,.75.09.74.74,0,0,0,.37-.71,1.21,1.21,0,0,0-.36-.76,4.18,4.18,0,0,0-2.56-1" style="fill:#fff"></path></g><g style="opacity:0.30000000000000004"><path d="M356,158.29c.76,1.78,1.63,3.57,2.34,5.38a3.85,3.85,0,0,0,.84,1.44,1.26,1.26,0,0,0,1.54.22,1.2,1.2,0,0,0,.43-1.16,3.09,3.09,0,0,0-.52-1.19,22.37,22.37,0,0,0-4.63-4.69" style="fill:#fff"></path></g><g style="opacity:0.30000000000000004"><path d="M351.39,156.16A36.66,36.66,0,0,1,353,161a7.37,7.37,0,0,0,2.86,4.14,1.88,1.88,0,0,0,.91.32.93.93,0,0,0,.83-.41,1.38,1.38,0,0,0,0-1.09,15.63,15.63,0,0,0-6.2-7.83" style="fill:#fff"></path></g></g></svg>
