<svg xmlns="http://www.w3.org/2000/svg" viewBox="0 0 500 500"><g id="freepik--background-complete--inject-211"><rect x="411.36" y="243.49" width="2.96" height="28.45" style="fill:#ebebeb"></rect><rect x="394.61" y="279.48" width="36.46" height="67.53" style="fill:#f5f5f5"></rect><rect x="402.05" y="270.02" width="22.2" height="9.45" style="fill:#f5f5f5"></rect><rect x="371.4" y="221.41" width="79.92" height="42.74" style="fill:#ebebeb"></rect><path d="M430.91,279.48c0,.15-8.09.28-18.07.28s-18.07-.13-18.07-.28,8.09-.29,18.07-.29S430.91,279.32,430.91,279.48Z" style="fill:#e0e0e0"></path><rect x="358.65" y="347.32" width="104.83" height="34.54" style="fill:#ebebeb"></rect><path d="M459.66,379.16s0-.18,0-.51,0-.85,0-1.49c0-1.32,0-3.25-.05-5.73,0-5-.06-12.27-.1-21.42l.18.18-97.19.1h0l.29-.28c0,10.08,0,19.88,0,29.15l-.28-.27,69.43.13,20.37.07,5.48,0,1.43,0h.49a3.92,3.92,0,0,1-.46,0l-1.39,0-5.42,0-20.31.07-69.62.13h-.27v-.28c0-9.27,0-19.07,0-29.15v-.29h.29l97.19.1h.18V350c0,9.2-.07,16.5-.1,21.52,0,2.47,0,4.38,0,5.7,0,.62,0,1.11,0,1.45A4.12,4.12,0,0,1,459.66,379.16Z" style="fill:#e0e0e0"></path><polygon points="362.45 454.78 370.03 381.85 380.18 381.85 368.36 454.81 362.45 454.78" style="fill:#ebebeb"></polygon><polygon points="466.8 454.76 455.42 381.85 445.26 381.85 460.89 454.8 466.8 454.76" style="fill:#ebebeb"></polygon><rect x="369.3" y="419.79" width="88.21" height="7.86" style="fill:#ebebeb"></rect><path d="M404.3,350a6.76,6.76,0,0,0,13.52,0Z" style="fill:#e0e0e0"></path><path d="M461.51,382.14c0,.16-23.12.28-51.62.28s-51.63-.12-51.63-.28,23.11-.29,51.63-.29S461.51,382,461.51,382.14Z" style="fill:#e0e0e0"></path><rect x="377.25" y="57.26" width="77.26" height="80.54" style="fill:#e0e0e0"></rect><rect x="372.02" y="57.26" width="77.26" height="80.54" style="fill:#fafafa"></rect><path d="M449.3,137.82H372V57.24H449.3Zm-77.26,0h77.22V57.28H372Z" style="fill:#e0e0e0"></path><rect x="382.4" y="68.09" width="56.49" height="58.88" style="fill:#fff"></rect><path d="M382.4,127.36A8.56,8.56,0,0,1,381,129c-.9,1-2.17,2.24-3.59,3.64s-2.73,2.65-3.69,3.54a9.69,9.69,0,0,1-1.63,1.36,8.58,8.58,0,0,1,1.38-1.62c.91-1,2.18-2.24,3.6-3.65s2.74-2.65,3.7-3.53A9.15,9.15,0,0,1,382.4,127.36Z" style="fill:#e0e0e0"></path><path d="M438.89,127.22a8.56,8.56,0,0,1,1.62,1.39c1,.9,2.24,2.17,3.64,3.59s2.65,2.73,3.54,3.69a9.33,9.33,0,0,1,1.36,1.64,9.49,9.49,0,0,1-1.62-1.39c-.95-.9-2.24-2.17-3.65-3.6s-2.65-2.73-3.53-3.7A9.15,9.15,0,0,1,438.89,127.22Z" style="fill:#e0e0e0"></path><path d="M438.74,68.24a8.94,8.94,0,0,1,1.39-1.62c.9-1,2.17-2.24,3.59-3.64s2.73-2.64,3.69-3.53a9.33,9.33,0,0,1,1.64-1.36,9.71,9.71,0,0,1-1.39,1.61c-.9,1-2.17,2.25-3.6,3.65s-2.73,2.66-3.7,3.54A8.26,8.26,0,0,1,438.74,68.24Z" style="fill:#e0e0e0"></path><path d="M382.25,68.39a9.32,9.32,0,0,1-1.62-1.4c-.95-.9-2.24-2.17-3.64-3.59s-2.65-2.72-3.53-3.69a8.58,8.58,0,0,1-1.36-1.63,8.61,8.61,0,0,1,1.61,1.39c1,.9,2.24,2.17,3.65,3.6s2.65,2.73,3.54,3.69A9.12,9.12,0,0,1,382.25,68.39Z" style="fill:#e0e0e0"></path><path d="M438.74,127a1.29,1.29,0,0,1,0-.29c0-.2,0-.47,0-.82,0-.74,0-1.8,0-3.18,0-2.79,0-6.84-.06-12,0-10.31-.06-25-.11-42.59l.22.21-56.33,0h0l.25-.25c0,21.61,0,41.83,0,58.88l-.22-.21,40.79.11,11.46,0,3,0h.81l-.76,0-3,0-11.41.06-40.93.11h-.21V127c0-17,0-37.27,0-58.88v-.25h.26l56.33,0H439v.22c0,17.65-.09,32.39-.11,42.73,0,5.13-.05,9.18-.06,12,0,1.36,0,2.41,0,3.14,0,.34,0,.6,0,.8A2.17,2.17,0,0,1,438.74,127Z" style="fill:#e0e0e0"></path><rect x="401.22" y="88.1" width="18.85" height="18.85" style="fill:#ebebeb"></rect><rect x="49.04" y="42.24" width="98.54" height="163.12" style="fill:#e0e0e0"></rect><rect x="45.77" y="42.24" width="98.54" height="163.12" style="fill:#ebebeb"></rect><rect x="49.96" y="45.55" width="90.15" height="156.5" style="fill:#fff"></rect><rect x="67.12" y="65.88" width="55.44" height="115.83" style="fill:#f5f5f5"></rect><path d="M67.12,140.73c-.12-10.82,9.6-21.39,20.32-22.9,5.11-.72,10.54.3,15.31-1.66,8.52-3.5,11.23-14.82,19.81-18.18l.39,83.72H67.12Z" style="fill:#ebebeb"></path><path d="M56.37,394.19A21,21,0,0,0,43.62,391c-2.4.09-4.93.48-6.76,2s-2.52,4.63-.88,6.38a6.18,6.18,0,0,0,3.91,1.53c3.42.4,7.3.28,9.77,2.69,1.41,1.37,2.2,3.46,4,4.27a4.44,4.44,0,0,0,5.13-1.54A7.6,7.6,0,0,0,60,400.85,8.56,8.56,0,0,0,56.37,394.19Z" style="fill:#ebebeb"></path><path d="M67.61,377.92c-2.84,3.14-7.38,1.4-9.28-1s-2.44-5.53-2.9-8.54c-1.06-6.87-2.1-14.07.18-20.64a11.37,11.37,0,0,1,3.3-5.2,5.94,5.94,0,0,1,5.83-1.15c2.28.92,3.45,3.42,4.23,5.76a48.74,48.74,0,0,1,2.14,21.41c-.41,3.35-1.26,6.82-3.5,9.34" style="fill:#ebebeb"></path><path d="M73.6,383.7c-2.22-3.44-2.14-8-.48-11.76a22.24,22.24,0,0,1,8.08-9,36.9,36.9,0,0,1,13.13-5.65,13.15,13.15,0,0,1,5.61-.24,5.82,5.82,0,0,1,4.26,3.38c1,2.62-.64,5.43-2.28,7.69a93.77,93.77,0,0,1-9.58,11.2c-2.8,2.79-5.94,5.5-9.79,6.43s-7.63.29-9.25-2.5" style="fill:#ebebeb"></path><path d="M61.17,429.83a7,7,0,0,1,0-1.59c0-1.15.07-2.6.12-4.32a62.71,62.71,0,0,0-.16-6.38,48.86,48.86,0,0,0-1.33-7.67,27.31,27.31,0,0,0-2.92-7.16,14.14,14.14,0,0,0-4.26-4.57,13.4,13.4,0,0,0-3.86-1.77,8.6,8.6,0,0,1-1.53-.42,7.73,7.73,0,0,1,1.59.18,12.09,12.09,0,0,1,4.05,1.62,14.16,14.16,0,0,1,4.52,4.64,27,27,0,0,1,3,7.31,45.86,45.86,0,0,1,1.3,7.79,53.51,53.51,0,0,1,0,6.45c-.09,1.82-.23,3.3-.33,4.31A8.46,8.46,0,0,1,61.17,429.83Z" style="fill:#e0e0e0"></path><path d="M61.29,426.51a3.63,3.63,0,0,1,.05-.73c.07-.55.16-1.23.27-2.07.23-1.8.56-4.41.88-7.64.66-6.45,1-13.44,1.16-23.34.16-9.3.16-20.16-.39-27.28-.11-1.62-.24-3.08-.37-4.37s-.22-2.38-.34-3.28-.17-1.53-.23-2.08a2.69,2.69,0,0,1,0-.73,3.58,3.58,0,0,1,.16.71c.09.54.21,1.23.35,2.06s.3,2,.45,3.29.33,2.74.46,4.36a235.6,235.6,0,0,1,.84,25.38c-.17,9.91-.83,18.88-1.6,25.33-.38,3.23-.78,5.83-1.09,7.62-.16.84-.29,1.52-.39,2.06A3.61,3.61,0,0,1,61.29,426.51Z" style="fill:#e0e0e0"></path><path d="M63.43,409.33a15.7,15.7,0,0,1,.3-2.17,57.08,57.08,0,0,1,1.41-5.78,79.51,79.51,0,0,1,3-8.31A70.9,70.9,0,0,1,73,383.41a54.35,54.35,0,0,1,12.58-15,28.37,28.37,0,0,1,2.77-2c.42-.27.79-.55,1.17-.76l1-.54a13.53,13.53,0,0,1,2-.93,65,65,0,0,0-6.66,4.57,57.23,57.23,0,0,0-12.31,15,79.76,79.76,0,0,0-4.87,9.57,87.11,87.11,0,0,0-3.11,8.2c-.76,2.39-1.27,4.35-1.61,5.71A12.54,12.54,0,0,1,63.43,409.33Z" style="fill:#e0e0e0"></path><polygon points="45.77 424.79 47.51 448.56 78.05 448.56 79.78 424.79 45.77 424.79" style="fill:#e0e0e0"></polygon><rect x="42.83" y="415.42" width="40.6" height="9.37" style="fill:#e0e0e0"></rect><polygon points="42.83 447.65 42.83 450.25 44.73 450.25 82.75 450.25 82.75 447.65 42.83 447.65" style="fill:#ebebeb"></polygon><polygon points="46.6 454.81 44.73 450.25 81.3 450.25 79.12 454.81 46.6 454.81" style="fill:#e0e0e0"></polygon><path d="M79.21,432.56a1,1,0,0,1-.14.22l-.46.6-1.77,2.28-.08.1-.08-.11-4.37-6h.25l-4.3,6.09-.14.19-.15-.18-5.1-6.07h.29l-.28.35-4.56,5.72-.15.19-.14-.2-4.31-6.09H54l-5.3,6-.09.11-.07-.12-1.66-2.79-.43-.74a1.13,1.13,0,0,1-.13-.27,1.47,1.47,0,0,1,.18.24l.47.71,1.74,2.74h-.16l5.21-6.12.13-.15.12.17,4.35,6.06H58l4.56-5.73.28-.35.14-.18.15.18,5.09,6.08H68l4.35-6.06.13-.18.12.18c1.72,2.46,3.18,4.55,4.28,6.11h-.16l1.85-2.21.5-.58C79.14,432.61,79.21,432.55,79.21,432.56Z" style="fill:#f5f5f5"></path><path d="M80.2,424.63c0,.11-7.65.19-17.08.19S46,424.74,46,424.63s7.65-.19,17.09-.19S80.2,424.53,80.2,424.63Z" style="fill:#f5f5f5"></path><path d="M81.75,450.5c0,.11-8.32.19-18.57.19s-18.57-.08-18.57-.19,8.31-.19,18.57-.19S81.75,450.4,81.75,450.5Z" style="fill:#f5f5f5"></path></g><g id="freepik--Floor--inject-211"><path d="M461.6,454.82c0,.14-94.74.26-211.59.26S38.4,455,38.4,454.82s94.72-.27,211.61-.27S461.6,454.67,461.6,454.82Z" style="fill:#263238"></path></g><g id="freepik--speech-bubble--inject-211"><path d="M167.51,78.08A27.15,27.15,0,1,0,157,99.54h0l9.11,1.2-2.59-8.46A27,27,0,0,0,167.51,78.08Z" style="fill:#fff"></path><path d="M167.51,78.08a20.54,20.54,0,0,1-.2,3.91,27,27,0,0,1-3.69,10.38v-.12l2.62,8.45a.17.17,0,0,1-.12.22h-.07L157,99.75a.22.22,0,0,1-.18-.23.25.25,0,0,1,0-.09v0l.29.29a27.65,27.65,0,0,1-11,5.15,25.72,25.72,0,0,1-6.66.56l-1.73-.09c-.58-.06-1.15-.16-1.73-.25a26.76,26.76,0,0,1-3.48-.77,27.31,27.31,0,0,1-6.66-3l-.8-.49-.75-.56c-.5-.38-1-.74-1.5-1.15A27.8,27.8,0,0,1,120,96.38a28.59,28.59,0,0,1-2.41-3,29,29,0,0,1-1.94-3.44,29.26,29.26,0,0,1-1.48-3.71,29,29,0,0,1-.88-4,26.92,26.92,0,0,1,.14-9.18,28.11,28.11,0,0,1,3-8.38,27,27,0,0,1,5.36-6.73,25.42,25.42,0,0,1,6.84-4.61l.91-.43c.31-.14.63-.24.94-.36.63-.22,1.24-.47,1.87-.66a28.57,28.57,0,0,1,3.79-.83,26.75,26.75,0,0,1,3.76-.32c.62,0,1.23,0,1.84.05a17.49,17.49,0,0,1,1.8.14,27.14,27.14,0,0,1,19.83,12.61,30.83,30.83,0,0,1,2.09,4,29,29,0,0,1,1.16,3.59c.14.55.28,1.07.38,1.56l.2,1.39c.06.43.12.83.17,1.2s0,.7,0,1l.05,1.35c0,.31,0,.47,0,.47s0-.16,0-.46-.05-.78-.09-1.35c0-.3,0-.63-.07-1l-.19-1.18c-.07-.43-.14-.89-.22-1.39s-.26-1-.4-1.54a31.67,31.67,0,0,0-1.2-3.55,30.34,30.34,0,0,0-2.1-3.92,27.63,27.63,0,0,0-7.47-7.76,27,27,0,0,0-12.17-4.58,17.35,17.35,0,0,0-1.77-.13c-.6,0-1.21-.1-1.81,0a30,30,0,0,0-7.42,1.16c-.62.19-1.22.44-1.84.66-.31.11-.62.21-.92.35l-.89.43a24.55,24.55,0,0,0-6.72,4.53,26.45,26.45,0,0,0-5.25,6.62,27.73,27.73,0,0,0-3,8.23,26.13,26.13,0,0,0-.13,9,29.78,29.78,0,0,0,.85,3.88,28.79,28.79,0,0,0,1.46,3.64A30.06,30.06,0,0,0,118,93a29.14,29.14,0,0,0,5,5.63c.47.41,1,.75,1.48,1.13l.74.56.78.48a27,27,0,0,0,6.53,3,26.13,26.13,0,0,0,3.41.77c.57.08,1.14.19,1.7.25l1.7.09a25.75,25.75,0,0,0,6.55-.53,27.17,27.17,0,0,0,10.88-5,.2.2,0,0,1,.28.28h0l-.13-.32,9.1,1.23-.19.22-2.55-8.47a.11.11,0,0,1,0-.11A27.31,27.31,0,0,0,167.16,82c.19-1.25.25-2.23.3-2.89l0-.74C167.5,78.16,167.51,78.08,167.51,78.08Z" style="fill:#263238"></path><polygon points="144.72 63.23 131.68 81.62 141.17 81.62 134.74 95.58 149.56 76 140.62 76.18 144.72 63.23" style="fill:#FF725E"></polygon></g><g id="freepik--character-3--inject-211"><path d="M356.49,169.88s2.9,45.48-6.15,51.17S337,199.81,337,199.81l8.12-38.06Z" style="fill:#ffbf9d"></path><path d="M264.82,136.54c-.14,0,0-10.82.34-24.16s.72-24.15.87-24.14,0,10.82-.35,24.16S265,136.54,264.82,136.54Z" style="fill:#e0e0e0"></path><path d="M260.87,133.85c-.15,0,0-9.62.27-21.49s.65-21.48.8-21.48,0,9.63-.28,21.5S261,133.86,260.87,133.85Z" style="fill:#e0e0e0"></path><path d="M257.17,130.37c-.14,0-.06-8.07.18-18s.55-18,.69-18,.07,8.08-.17,18S257.32,130.38,257.17,130.37Z" style="fill:#e0e0e0"></path><path d="M254.22,125.64c-.14,0-.11-6,.07-13.5s.44-13.49.59-13.49.11,6-.07,13.5S254.37,125.64,254.22,125.64Z" style="fill:#e0e0e0"></path><path d="M268.55,137.32c-.14,0,0-11.18.37-25s.73-25,.88-25,0,11.18-.36,25S268.7,137.32,268.55,137.32Z" style="fill:#e0e0e0"></path><path d="M272.21,139.47c-.14,0,0-12,.28-26.84s.65-26.83.79-26.83,0,12-.27,26.84S272.36,139.48,272.21,139.47Z" style="fill:#e0e0e0"></path><path d="M276.34,140.4c-.15,0,.06-12.73.45-28.42s.82-28.42,1-28.42-.06,12.73-.45,28.43S276.48,140.41,276.34,140.4Z" style="fill:#e0e0e0"></path><path d="M280.28,141.14c-.15,0,0-12.9.34-28.8s.71-28.78.86-28.78,0,12.89-.34,28.8S280.42,141.14,280.28,141.14Z" style="fill:#e0e0e0"></path><path d="M283.94,142.08c-.15,0,0-13.11.36-29.26s.74-29.26.88-29.26,0,13.1-.36,29.27S284.08,142.08,283.94,142.08Z" style="fill:#e0e0e0"></path><path d="M287.68,142.84a2.39,2.39,0,0,1,0-.58c0-.44,0-1,0-1.67,0-1.51,0-3.59.05-6.12.09-5.23.22-12.34.35-20.2s.37-15,.5-20.2c.08-2.53.14-4.6.19-6.11,0-.68.06-1.23.08-1.66s.06-.57,0-.59c0,.17,0,.34.05.58,0,.44,0,1,0,1.67,0,1.52,0,3.59,0,6.12-.05,5.17-.17,12.31-.33,20.2s-.35,15-.51,20.2c-.09,2.53-.16,4.6-.21,6.12,0,.67-.07,1.22-.09,1.66A2.23,2.23,0,0,1,287.68,142.84Z" style="fill:#e0e0e0"></path><path d="M291.26,141.7c-.15,0,0-12.06.36-26.92s.74-26.92.88-26.92,0,12.06-.36,26.93S291.4,141.71,291.26,141.7Z" style="fill:#e0e0e0"></path><path d="M294.92,139.93c-.15,0,0-11.18.36-25s.74-25,.88-25,0,11.17-.36,25S295.06,139.93,294.92,139.93Z" style="fill:#e0e0e0"></path><path d="M298.58,142.08c-.15,0,0-11.18.36-25s.74-25,.88-25,0,11.18-.36,25S298.72,142.08,298.58,142.08Z" style="fill:#e0e0e0"></path><path d="M302.29,142.08c-.14,0,0-10.7.33-23.89s.72-23.87.86-23.87,0,10.7-.34,23.89S302.43,142.08,302.29,142.08Z" style="fill:#e0e0e0"></path><path d="M305.9,141.71c-.15,0,0-10.13.36-22.62s.74-22.62.88-22.62,0,10.13-.36,22.63S306,141.71,305.9,141.71Z" style="fill:#e0e0e0"></path><path d="M309.34,142.48c-.15,0,0-9.21.3-20.57s.68-20.55.83-20.55,0,9.21-.31,20.57S309.48,142.49,309.34,142.48Z" style="fill:#e0e0e0"></path><path d="M313.07,143.52a7.39,7.39,0,0,1-.07-1.47V124.84c0-5.16,0-9.84.15-13.22.05-1.69.11-3.06.16-4a7,7,0,0,1,.14-1.47,9.56,9.56,0,0,1,.06,1.47c0,1,0,2.39,0,4v13.21c0,5.16,0,9.83-.15,13.21-.06,1.69-.11,3.06-.17,4A8.71,8.71,0,0,1,313.07,143.52Z" style="fill:#e0e0e0"></path><path d="M316.61,144a6,6,0,0,1-.07-1.23c0-.9,0-2,0-3.34,0-2.94,0-6.77,0-11s0-8.21.13-11c.05-1.41.11-2.55.16-3.34a5.25,5.25,0,0,1,.13-1.22,6,6,0,0,1,.07,1.23c0,.89,0,2,0,3.34,0,2.93,0,6.77,0,11s0,8.2-.14,11c0,1.41-.1,2.56-.15,3.34A5.41,5.41,0,0,1,316.61,144Z" style="fill:#e0e0e0"></path><path d="M327.15,140.25c0,.15-16.26-2.43-36.26-5.75s-36.19-6.13-36.17-6.27S271,130.66,291,134,327.17,140.11,327.15,140.25Z" style="fill:#e0e0e0"></path><path d="M318.25,142.5a2.1,2.1,0,0,1-.6,0l-1.71-.23-6.29-.89-20.73-2.9c-8.1-1.14-15.43-2.21-20.72-3.06-2.65-.42-4.79-.79-6.26-1l-1.7-.33a2.5,2.5,0,0,1-.58-.15,3.36,3.36,0,0,1,.6.05l1.71.23,6.28.89,20.74,2.9c8.1,1.14,15.43,2.21,20.72,3.06,2.65.42,4.79.78,6.26,1.05l1.7.33A4.3,4.3,0,0,1,318.25,142.5Z" style="fill:#e0e0e0"></path><path d="M295.21,142.86c0,.14-6.28-.77-14-2.05s-13.91-2.41-13.89-2.56,6.28.78,14,2.05S295.24,142.72,295.21,142.86Z" style="fill:#e0e0e0"></path><path d="M324.59,136.54c0,.14-15.76-2.47-35.13-5.83s-35.06-6.19-35-6.33,15.75,2.46,35.13,5.82S324.61,136.4,324.59,136.54Z" style="fill:#e0e0e0"></path><path d="M321.7,132.34c0,.14-15.35-2.35-34.23-5.56s-34.18-5.93-34.16-6.07,15.35,2.34,34.24,5.56S321.73,132.2,321.7,132.34Z" style="fill:#e0e0e0"></path><path d="M319.85,127.77c0,.14-15.3-2.39-34.11-5.65s-34.05-6-34-6.16,15.29,2.39,34.11,5.65S319.88,127.63,319.85,127.77Z" style="fill:#e0e0e0"></path><path d="M318.89,123.79c0,.15-15-2.32-33.37-5.5s-33.31-5.87-33.28-6,15,2.32,33.37,5.5S318.91,123.65,318.89,123.79Z" style="fill:#e0e0e0"></path><path d="M318,119.2c0,.14-14.65-2.12-32.66-5s-32.61-5.41-32.59-5.55,14.65,2.11,32.67,5S318,119.06,318,119.2Z" style="fill:#e0e0e0"></path><path d="M316.87,115.2a2.81,2.81,0,0,1-.64,0l-1.84-.24-6.72-1-22.16-3.52-22.14-3.65-6.7-1.16-1.81-.33a5.17,5.17,0,0,0-.64-.14l.64,0,1.84.23,6.73,1c5.68.86,13.51,2.1,22.16,3.5l22.14,3.66,6.7,1.18,1.81.34A3.64,3.64,0,0,1,316.87,115.2Z" style="fill:#e0e0e0"></path><path d="M315.25,111.69c0,.14-13.56-2-30.23-4.88s-30.17-5.25-30.15-5.39,13.56,2,30.24,4.88S315.27,111.55,315.25,111.69Z" style="fill:#e0e0e0"></path><path d="M313.67,107.44c0,.14-12.69-1.85-28.29-4.44s-28.23-4.8-28.21-5,12.69,1.85,28.3,4.44S313.7,107.29,313.67,107.44Z" style="fill:#e0e0e0"></path><path d="M312.57,103.49c0,.14-12.11-1.75-27-4.22s-26.92-4.59-26.9-4.73,12.11,1.75,27,4.22S312.59,103.35,312.57,103.49Z" style="fill:#e0e0e0"></path><path d="M308.1,98.36c0,.14-10.19-1.42-22.72-3.48s-22.65-3.86-22.63-4,10.19,1.42,22.72,3.48S308.12,98.22,308.1,98.36Z" style="fill:#e0e0e0"></path><path d="M304.79,94.77c0,.14-8.14-1.11-18.14-2.8s-18.08-3.17-18-3.31,8.14,1.11,18.14,2.8S304.82,94.63,304.79,94.77Z" style="fill:#e0e0e0"></path><path d="M298.21,89.47a25.92,25.92,0,0,1-3.58-.39c-2.2-.3-5.23-.76-8.6-1.06s-6.42-.83-8.61-1.22c-1.1-.19-2-.37-2.59-.5a3.87,3.87,0,0,1-.93-.25,24.23,24.23,0,0,1,3.58.39c2.2.29,5.23.76,8.6,1.06s6.42.83,8.61,1.21c1.09.2,2,.37,2.58.5A3.28,3.28,0,0,1,298.21,89.47Z" style="fill:#e0e0e0"></path><path d="M337.48,149.39a7.46,7.46,0,0,1-2-1.34,69.45,69.45,0,0,1-5.28-4.58,67.27,67.27,0,0,1-7.46-8.23,22.45,22.45,0,0,1-3.33-6.24,58.72,58.72,0,0,1-1.88-7.58,58.09,58.09,0,0,0-2-8.09,45.56,45.56,0,0,0-3.77-8.12A40.61,40.61,0,0,0,298,91.3a46.66,46.66,0,0,0-4.61-2.54,34.84,34.84,0,0,0-5-1.86,27.32,27.32,0,0,0-10.83-.84,36.19,36.19,0,0,0-10.91,3.21,23.5,23.5,0,0,0-4.79,3.13A22.14,22.14,0,0,0,258,96.71a27.05,27.05,0,0,0-2.64,5.2,36.81,36.81,0,0,0-1.5,5.63,29.75,29.75,0,0,0,.07,11.29,24.09,24.09,0,0,0,4.44,9.82,23.83,23.83,0,0,0,1.71,2c.65.6,1.22,1.26,1.92,1.81a35.87,35.87,0,0,0,4.2,3.11,42.67,42.67,0,0,0,18.62,6,52.1,52.1,0,0,0,9,0c2.91-.22,5.73-.56,8.46-.72a35.92,35.92,0,0,1,7.88.29,27.8,27.8,0,0,1,6.71,2.12,78.08,78.08,0,0,1,9.77,5.25,66.88,66.88,0,0,1,5.73,4,7.63,7.63,0,0,1,1.8,1.65c-.12.16-2.8-1.83-8.05-4.77a88.93,88.93,0,0,0-9.81-4.78,26.56,26.56,0,0,0-6.4-1.82,34.55,34.55,0,0,0-7.5-.09c-2.66.21-5.45.61-8.42.89a53.78,53.78,0,0,1-9.35.1,44.34,44.34,0,0,1-19.7-6.1,36.57,36.57,0,0,1-4.53-3.3c-.75-.58-1.41-1.3-2.11-2s-1.34-1.42-1.9-2.22a26.55,26.55,0,0,1-5-10.82,32.24,32.24,0,0,1-.12-12.27,38.85,38.85,0,0,1,1.61-6.07,30.15,30.15,0,0,1,2.91-5.75,25.44,25.44,0,0,1,4.3-4.84A26.06,26.06,0,0,1,265.45,87a33,33,0,0,1,5.8-2.2,43.3,43.3,0,0,1,5.95-1.22,29.61,29.61,0,0,1,11.82,1,37,37,0,0,1,5.36,2,47.52,47.52,0,0,1,4.86,2.72,54,54,0,0,1,4.4,3.16,40.41,40.41,0,0,1,3.88,3.6,43.26,43.26,0,0,1,6,8.08,46.92,46.92,0,0,1,3.81,8.59,57.35,57.35,0,0,1,1.95,8.37,57.7,57.7,0,0,0,1.64,7.41,21.16,21.16,0,0,0,2.95,5.92,74.86,74.86,0,0,0,7,8.35C335,147.11,337.6,149.24,337.48,149.39Z" style="fill:#263238"></path><path d="M332.84,153.35,356.49,170s4.68-.65,4.94-7.48l-24.71-14.27-3.88,5.1Z" style="fill:#263238"></path><path d="M345.11,148.35a34.52,34.52,0,0,0-5.31,5.28c-.66,1.13-1.29,7.16-1.29,7.16l5.21,10.56s5,.5,5.8-3.77-6.17-9.29-6.17-9.29l-.19-3S347.37,150.92,345.11,148.35Z" style="fill:#ffbf9d"></path><path d="M345.66,151.2a2.82,2.82,0,0,1,3.21-.94s.58.22.76,1.87a2.69,2.69,0,0,1,2.82,1l.57,1.73a2.31,2.31,0,0,1,3.08,1.61s2.45-.76,3.33,2.2a15.08,15.08,0,0,1,.81,3.14s-1.87-1-2.32-.84c-1.63.49-2.45,2.51-4.72,2l-.69-.49s-1,3.55-3,3.19-1.45-1.66-1.45-1.66-1.63,1.47-2.39,0a4.83,4.83,0,0,1,0-3.42s-1.53.7-1.9-.87a23.54,23.54,0,0,1,0-5.17Z" style="fill:#ffbf9d"></path><path d="M356.31,156.72c.1.12-1.08,1.16-2.13,2.76s-1.59,3.07-1.74,3a8.32,8.32,0,0,1,3.87-5.78Z" style="fill:#ff9a6c"></path><path d="M352.87,155a28.45,28.45,0,0,0-3.06,4.22,28.41,28.41,0,0,0-1.75,4.9,11.2,11.2,0,0,1,4.81-9.12Z" style="fill:#ff9a6c"></path><path d="M351.92,164s0,.15-.13.4a3.05,3.05,0,0,1-.71.94,2.19,2.19,0,0,1-1.77.57,1.67,1.67,0,0,1-1.08-.55,1.89,1.89,0,0,1-.41-1.28l.42.15a1.83,1.83,0,0,1-1.05.72,1.88,1.88,0,0,1-1.35-.21,1.67,1.67,0,0,1-.73-1.25,5,5,0,0,1,0-1.39,9.13,9.13,0,0,1,.58-2.1c.23-.65.49-1.27.75-1.85a27.29,27.29,0,0,1,1.56-3,19,19,0,0,1,1.26-1.89c.32-.43.52-.65.55-.63s-.6,1-1.49,2.7a33.29,33.29,0,0,0-1.44,3c-.25.58-.49,1.19-.71,1.83a9.09,9.09,0,0,0-.54,2c-.13.83-.11,1.8.45,2.13a1.37,1.37,0,0,0,1,.18,1.4,1.4,0,0,0,.78-.51l.46-.59,0,.74a1.45,1.45,0,0,0,.28,1,1.3,1.3,0,0,0,.81.45,2,2,0,0,0,1.54-.41A7.52,7.52,0,0,0,351.92,164Z" style="fill:#ff9a6c"></path><path d="M349.59,152.39a6.45,6.45,0,0,0,0-.66,1.74,1.74,0,0,0-1.05-1.29,2.49,2.49,0,0,0-2.41.46,5.73,5.73,0,0,0-1.75,2.7,14.77,14.77,0,0,0-.6,3.29c0,.51-.09,1-.1,1.46a5.3,5.3,0,0,0,.13,1.24c.12.74.84.94,1.21,1a1.94,1.94,0,0,0,.66,0s-.2.24-.68.2a2,2,0,0,1-.82-.23,1.41,1.41,0,0,1-.45-.35,1.81,1.81,0,0,1-.27-.56,5,5,0,0,1-.22-1.33c0-.5,0-1,.06-1.51a13.8,13.8,0,0,1,.59-3.42,6,6,0,0,1,1.95-2.92,2.83,2.83,0,0,1,2.85-.4,1.9,1.9,0,0,1,1.1,1.59C349.78,152.18,349.61,152.41,349.59,152.39Z" style="fill:#ff9a6c"></path><path d="M355.5,173.56a13.86,13.86,0,0,1-11.06-2.65,38.65,38.65,0,0,0,5.37,2A39,39,0,0,0,355.5,173.56Z" style="fill:#ff9a6c"></path><path d="M295.56,63.64a5.84,5.84,0,0,0-4.91-1.78,3.41,3.41,0,0,1-2.15-.08,4.87,4.87,0,0,1-1-1.19,3,3,0,0,0-4.28-.14,3.66,3.66,0,0,1-.85.82c-1.43.74-3-1.94-4.4-1.19a3.38,3.38,0,0,1,1.57,1.26,1.52,1.52,0,0,1-.18,1.88c-1.34,1.16-3.51-1.47-5-.51-.81.52-.92,1.88-1.85,2.09a3.17,3.17,0,0,1-1.1-.08,2.44,2.44,0,0,0-2.61,2.09c-.12,1,.41,2.34-.39,3a2.26,2.26,0,0,1-1.88.26,6.48,6.48,0,0,0,.67,2.8,3.83,3.83,0,0,0-1.31,5.15,8.13,8.13,0,0,0-2.23,2.26,2.84,2.84,0,0,0,0,3,2.62,2.62,0,0,1,.4.6,1.44,1.44,0,0,1,0,.77,12.83,12.83,0,0,0-.62,3c0,1,.76,2.12,1.77,2a1.08,1.08,0,0,1,.69,0,.63.63,0,0,1,.24.45,7.17,7.17,0,0,1-.16,2.16,2.92,2.92,0,0,0,.31,2.1,1.25,1.25,0,0,0,1.87.24c-.3,1.12-.59,2.24-.88,3.36a2,2,0,0,0,.16,2c.64.64,1.79.15,2.27-.61s.63-1.71,1.13-2.46a5,5,0,0,0,.62-.91c.11-.27.15-.6.37-.78.46-.37,1.15.26,1.08.85a3,3,0,0,1-.9,1.47,1.49,1.49,0,0,0-.37,1.61c.14.24.4.4.54.65.47.85-.79,1.68-.94,2.65a2.35,2.35,0,0,0,.91,1.87c.62.63,1.83,1.14,2.23.35a8.79,8.79,0,0,0,.19-.89,2.36,2.36,0,0,1,.7-.81,4.48,4.48,0,0,0,1.37-2.24c-.74.91-1.53,2.12-1,3.18a4.84,4.84,0,0,0,1,1.11c.67.7,1.08,1.62,1.74,2.33a2.25,2.25,0,0,0,2.59.73,2.18,2.18,0,0,0,3.64,2.19,1.88,1.88,0,0,1,.6-.53,1.54,1.54,0,0,1,.85,0,4.72,4.72,0,0,0,4.58-1.81l-.87-.31a11,11,0,0,0,4.9-1.41c1.42-1,2.35-2.88,1.62-4.44-.31-.67-.92-1.36-.64-2a1.82,1.82,0,0,1,1.22-.86l6.08-2.1a5.77,5.77,0,0,0,2.68-1.52,2,2,0,0,0-.14-2.77,5.56,5.56,0,0,1,2.11-2.27c1-.6,2.19-.86,3.23-1.42a3.17,3.17,0,0,0,1.92-2.73c-.06-1.18-1.68-2.09-2.49-1.24.17-1.77,3.32-1.86,3.6-3.62.23-1.42-1.59-2.17-2.52-3.27.19-.5.7-.81.91-1.3.44-1-.62-2.06-1.63-2.54s-2.22-1-2.46-2.07.72-2.37.13-3.34a1.26,1.26,0,0,0-1.66-.43c-.79-2-4.64-.53-5.75-2.42a.8.8,0,0,1-.13-.5.86.86,0,0,1,.2-.39,8.65,8.65,0,0,1,1.7-1.29,1.73,1.73,0,0,0,.79-1.83c-.25-.66-1.51-.65-1.5.06a1.57,1.57,0,0,0-2.4.59,1.7,1.7,0,0,0-2.12-.2A4.89,4.89,0,0,0,295.8,64" style="fill:#263238"></path><path d="M285.77,86.11c.72-2.91,3-5.21,5.38-7a7.58,7.58,0,0,1,3.38-1.56A3.21,3.21,0,0,1,297.78,79l-.24,2.09c.17,3.33-2.48,6.05-3.79,9.12-.58,1.34-1.06,3-2.41,3.48a3.13,3.13,0,0,1-2.23-.09C286.31,92.55,285.05,89,285.77,86.11Z" style="fill:#FF725E"></path><path d="M285,101.48A6.69,6.69,0,0,1,286,93c-1.15-1.59-.61-3.94.7-5.4a13,13,0,0,1,5-3,9,9,0,0,1,10.78-6.11c2.48-3.32,7.47-3.64,11.39-2.31a10.51,10.51,0,0,0,2.93.78A16.52,16.52,0,0,0,319,76.7c4.07-.36,8,2.66,9.37,6.49a7,7,0,0,0,.78,1.79,10.45,10.45,0,0,0,1.93,1.69,6.45,6.45,0,0,1,2.26,4.88c0,1.57-.58,3.22,0,4.67a23.22,23.22,0,0,1,1.1,2.09c.65,2.19-1.83,4.29-1.49,6.55.07.47.26.9.36,1.35A4,4,0,0,1,333,109a5.8,5.8,0,0,0-1,2,6.68,6.68,0,0,0,.26,1.65c.21,1.35-2.9,6.38-4.09,7.06l-34.54-1.22a6.46,6.46,0,0,1-4.75-5.78,2.32,2.32,0,0,0-.27-1.28,2.71,2.71,0,0,0-.91-.65c-2.17-1.3-2.3-4.36-2-6.86a3.15,3.15,0,0,0,0-1.06A3.86,3.86,0,0,0,285,101.48Z" style="fill:#263238"></path><path d="M294.91,102a18.51,18.51,0,0,1,10.51-15.69,23,23,0,0,1,8.92-1.74,14,14,0,0,1,8.07,2.07c1.88.53,8.57,7.22,8.63,14.17.06,7.71-.17,17.14-1.39,22.83-2.47,11.43-11.39,12.41-11.39,12.41v6L320,159.86l-22.53-12.19-3.29-2.1Z" style="fill:#ffbf9d"></path><path d="M313.35,120.89a2.26,2.26,0,0,1,.78-1.39,2.32,2.32,0,0,1,2.81-.16,2.56,2.56,0,0,1,.8,2.7h0c-.48.66-.83,1.31-1.64,1.38h-.38a2.5,2.5,0,0,1-1.7-.67A2.28,2.28,0,0,1,313.35,120.89Z" style="fill:#ff9a6c"></path><path d="M325.65,110a1.48,1.48,0,0,1-1.51,1.41,1.41,1.41,0,0,1-1.45-1.42,1.47,1.47,0,0,1,1.5-1.41A1.42,1.42,0,0,1,325.65,110Z" style="fill:#263238"></path><path d="M328.15,105.06c-.2.18-1.27-.71-2.86-.79s-2.81.65-3,.44.13-.43.66-.77a4,4,0,0,1,2.38-.59,3.93,3.93,0,0,1,2.27.87C328.1,104.62,328.24,105,328.15,105.06Z" style="fill:#263238"></path><path d="M318.14,117.12a11,11,0,0,1,2.61-.32c.41,0,.8-.08.89-.36a2.12,2.12,0,0,0-.21-1.22c-.33-1-.67-2-1-3.16-1.43-4.5-2.44-8.19-2.26-8.24s1.49,3.54,2.92,8l1,3.18a2.36,2.36,0,0,1,.12,1.61,1,1,0,0,1-.7.55,2.55,2.55,0,0,1-.7.06A10.36,10.36,0,0,1,318.14,117.12Z" style="fill:#263238"></path><path d="M318.26,136a29.46,29.46,0,0,1-15.28-5s3.67,8.36,15.28,7.92Z" style="fill:#ff9a6c"></path><path d="M328.57,101.6c-.29.37-1.49,0-2.92.09s-2.63.35-2.93,0c-.13-.18,0-.55.56-.91a4.55,4.55,0,0,1,4.72-.06C328.52,101.05,328.7,101.42,328.57,101.6Z" style="fill:#263238"></path><path d="M308.42,109.86a1.49,1.49,0,0,0,1.4,1.52,1.41,1.41,0,0,0,1.55-1.31,1.48,1.48,0,0,0-1.4-1.52A1.42,1.42,0,0,0,308.42,109.86Z" style="fill:#263238"></path><path d="M306.33,104.49c.18.2,1.32-.61,2.91-.58s2.75.85,2.93.65-.1-.43-.6-.81a4.13,4.13,0,0,0-2.34-.77,3.9,3.9,0,0,0-2.32.71C306.41,104.06,306.24,104.4,306.33,104.49Z" style="fill:#263238"></path><path d="M306.6,98.24c.31.37,1.55,0,3,0s2.73.29,3-.09c.13-.18-.06-.55-.6-.9a4.59,4.59,0,0,0-2.45-.63,4.49,4.49,0,0,0-2.42.68C306.65,97.7,306.47,98.07,306.6,98.24Z" style="fill:#263238"></path><path d="M296.17,113c0-.85-.84-2.93-1.68-3.11-2.25-.48-6.34-.52-6.69,5.23-.49,7.86,7.51,6.73,7.53,6.5S296,116,296.17,113Z" style="fill:#ffbf9d"></path><path d="M293.34,118.61s-.14.09-.38.18a1.35,1.35,0,0,1-1,0c-.82-.35-1.44-1.72-1.39-3.14a4.6,4.6,0,0,1,.51-1.93,1.58,1.58,0,0,1,1.09-1,.71.71,0,0,1,.79.42c.09.23,0,.38.07.4s.18-.12.13-.45a.86.86,0,0,0-.27-.51,1.05,1.05,0,0,0-.75-.25,2,2,0,0,0-1.51,1.13,4.61,4.61,0,0,0-.6,2.17c-.05,1.58.67,3.12,1.78,3.51a1.47,1.47,0,0,0,1.27-.13C293.32,118.8,293.37,118.63,293.34,118.61Z" style="fill:#ff9a6c"></path><path d="M332.78,101a4.57,4.57,0,0,1-2.28-4.35c-1.07.26-2.06-1.16-2.63-2.1s-1.29-1.45-1.19-2.55a1.16,1.16,0,0,0,0-.64c-.14-.31-.51-.43-.83-.55a5.26,5.26,0,0,1-3.27-3.85,11.09,11.09,0,0,1-5.44.6,4.34,4.34,0,0,1-3.79,1.64,4.39,4.39,0,0,1-3.41-2.34,3.81,3.81,0,0,1-2.65,1.74,11.27,11.27,0,0,1-3.28,0,4.51,4.51,0,0,1-3.24,5c-.29.07-.62.14-.76.39a1.12,1.12,0,0,0,.08.89,3.56,3.56,0,0,1-2.63,4.39,2.66,2.66,0,0,1-.46,4.14c-.3.15-.68.34-.66.67a.8.8,0,0,0,.16.35,5.2,5.2,0,0,1,1.1,2.67,1.91,1.91,0,0,1-1.67,2,2.51,2.51,0,0,1,.9,1.77c0,.69-.75,1.35-1.38,1.06a44,44,0,0,1-4.3-1.34c-2.06-3.14.92-6.33,1.34-10.06a24.5,24.5,0,0,1,4-10.45,17.79,17.79,0,0,1,3-3.64,24.25,24.25,0,0,1,4.5-3,21.73,21.73,0,0,1,6.47-2.66c4.3-.77,8.63,1,12.49,3A18.58,18.58,0,0,1,327,86.58a16.86,16.86,0,0,1,3.35,4.9,20.81,20.81,0,0,1,2.41,8.21" style="fill:#263238"></path><path d="M334.47,98.31a2.88,2.88,0,0,0-.38-.86c-.15-.27-.37-.59-.57-1a3.53,3.53,0,0,1-.36-1.5,11.34,11.34,0,0,1,.13-1.94,8.57,8.57,0,0,0,.07-2.34,6.68,6.68,0,0,0-.91-2.53,6.25,6.25,0,0,0-.91-1.17,9.61,9.61,0,0,0-1.19-1,4.72,4.72,0,0,1-1.14-1.09,6.74,6.74,0,0,1-.67-1.52,10,10,0,0,0-1.75-3.14,10.17,10.17,0,0,0-2.92-2.51,9.11,9.11,0,0,0-1.86-.81,8.71,8.71,0,0,0-2.05-.35,9.63,9.63,0,0,0-1.07,0l-1.05.14a5.18,5.18,0,0,1-2.11-.11c-.69-.18-1.37-.47-2.09-.69a14.5,14.5,0,0,0-2.21-.51,13.47,13.47,0,0,0-2.3-.14,11.53,11.53,0,0,0-2.33.3A7.75,7.75,0,0,0,302.7,78l-.31.37.13-.05a9.16,9.16,0,0,0-10.93,6.2l.07-.08a26.3,26.3,0,0,0-2.84,1.32,8.19,8.19,0,0,0-2.35,1.89,5.45,5.45,0,0,0-1.17,2.66,3.74,3.74,0,0,0,.61,2.7l0-.13a6.51,6.51,0,0,0-2,3.94,6.72,6.72,0,0,0,.61,4,7.12,7.12,0,0,0,.49.8,7.91,7.91,0,0,1,.5.73,1.77,1.77,0,0,1,.24.79,5.52,5.52,0,0,1-.06.81,13.35,13.35,0,0,0-.08,3,6.34,6.34,0,0,0,.66,2.31,3.91,3.91,0,0,0,1.15,1.34c.4.29.75.41.94.57a1.31,1.31,0,0,1,.27.25.83.83,0,0,0-.25-.28c-.19-.16-.54-.3-.92-.59a3.92,3.92,0,0,1-1.12-1.33,6.38,6.38,0,0,1-.62-2.29,13.7,13.7,0,0,1,.1-3,4.46,4.46,0,0,0,.07-.84,1.75,1.75,0,0,0-.25-.85,9,9,0,0,0-.51-.75,5.1,5.1,0,0,1-.46-.79,6.44,6.44,0,0,1-.58-3.85,6.33,6.33,0,0,1,2-3.82l.06-.06-.05-.07a3.56,3.56,0,0,1-.57-2.56,5.2,5.2,0,0,1,1.13-2.55,8,8,0,0,1,2.3-1.84,24.88,24.88,0,0,1,2.81-1.3l.06,0v0a8.92,8.92,0,0,1,10.64-6l.08,0,.05-.06.3-.36a7.55,7.55,0,0,1,4-2.33,12.49,12.49,0,0,1,2.28-.3,13.66,13.66,0,0,1,4.43.64c.71.22,1.39.51,2.11.69a5.75,5.75,0,0,0,1.09.17,6.52,6.52,0,0,0,1.09-.06l1.06-.14a8.86,8.86,0,0,1,1,0,8.28,8.28,0,0,1,2,.33,9.54,9.54,0,0,1,1.82.79,10,10,0,0,1,2.87,2.45,10.16,10.16,0,0,1,1.73,3.08,6.26,6.26,0,0,0,.7,1.56,5,5,0,0,0,1.18,1.13,8.71,8.71,0,0,1,1.18,1,5.9,5.9,0,0,1,.89,1.13,6.18,6.18,0,0,1,.9,2.47,8.43,8.43,0,0,1,0,2.31,11.37,11.37,0,0,0-.12,2,3.77,3.77,0,0,0,.4,1.52c.21.4.43.72.59,1a5,5,0,0,1,.33.62Z" style="fill:#455a64"></path><path d="M306.27,76.9s.21-.11.6-.27a5,5,0,0,1,1.74-.41,5,5,0,0,1,2.57.51A5.07,5.07,0,0,1,313.42,79a4.86,4.86,0,0,1,.35.91,1,1,0,0,1-.1.83l-.21.26.32-.08a3.24,3.24,0,0,1,2.42.42,3.13,3.13,0,0,1,1.26,1.52,3.55,3.55,0,0,1,.24,1.32,3.57,3.57,0,0,0,0,.49.64.64,0,0,0,0-.12,2.19,2.19,0,0,0,.06-.37,3.2,3.2,0,0,0-.18-1.37,3.27,3.27,0,0,0-1.29-1.64,3.45,3.45,0,0,0-2.58-.47l.12.18a1.23,1.23,0,0,0,.15-1,4.93,4.93,0,0,0-.36-1,5.33,5.33,0,0,0-2.36-2.34,5,5,0,0,0-2.68-.48,4.93,4.93,0,0,0-1.76.49c-.2.1-.34.19-.44.25Z" style="fill:#455a64"></path><path d="M293,85.27s.08.12.26.29a5.16,5.16,0,0,0,.86.67,3.72,3.72,0,0,0,1.55.55,2.79,2.79,0,0,0,2-.49l-.17,0,.21.33.25.33a4.75,4.75,0,0,0,1.9,1.32,4.8,4.8,0,0,0,1.87.33,4.32,4.32,0,0,0,1.25-.21,1.6,1.6,0,0,0,.42-.2,6.59,6.59,0,0,1-1.67.25A5,5,0,0,1,300,88a4.67,4.67,0,0,1-1.81-1.28l-.24-.3c-.07-.11-.13-.22-.2-.32l-.07-.11-.1.08a2.62,2.62,0,0,1-1.82.46,3.64,3.64,0,0,1-1.49-.48C293.45,85.65,293.06,85.24,293,85.27Z" style="fill:#455a64"></path><path d="M288.49,92.35a.86.86,0,0,0,0,.15,1.42,1.42,0,0,0,.15.39,2.13,2.13,0,0,0,1.23.9,4,4,0,0,0,2.26-.12c.4-.13.83-.25,1.26-.43a2.15,2.15,0,0,0,1.14-.93l.06-.13-.19,0a8.8,8.8,0,0,0,2.26,1.52,4.06,4.06,0,0,0,2.2.35,3,3,0,0,0,1.39-.55,2.17,2.17,0,0,0,.3-.28c.06-.07.09-.11.08-.11s-.15.13-.43.31a3,3,0,0,1-1.36.46,3.91,3.91,0,0,1-2.09-.38,9,9,0,0,1-2.2-1.5l-.12-.1-.07.15,0,.1a2,2,0,0,1-1,.83c-.41.17-.84.3-1.24.43a4,4,0,0,1-2.15.17,2.1,2.1,0,0,1-1.19-.79A5.21,5.21,0,0,1,288.49,92.35Z" style="fill:#455a64"></path><path d="M281.54,63.82s.13,0,.37.08a1.78,1.78,0,0,1,.84.62,2.4,2.4,0,0,1,.52,1.53,7.44,7.44,0,0,1-.41,2.13l0,.12H283a4.48,4.48,0,0,1,2.67,1A3.49,3.49,0,0,1,287,72.11a3.23,3.23,0,0,1-1.28,2.56l-.28.2h.34a4.1,4.1,0,0,1,2.91,1.47,3.86,3.86,0,0,1,.88,2.47,4.2,4.2,0,0,1-.35,1.72c-.17.38-.31.57-.29.58s0,0,.11-.13a4.62,4.62,0,0,0,.25-.42,4.08,4.08,0,0,0,.43-1.75,4,4,0,0,0-.87-2.59,4.29,4.29,0,0,0-3.06-1.58l.06.21a3.45,3.45,0,0,0,1.39-2.74,3.61,3.61,0,0,0-.38-1.72,4.1,4.1,0,0,0-1.06-1.3,4.68,4.68,0,0,0-2.82-1l.09.13a7,7,0,0,0,.38-2.19,2.5,2.5,0,0,0-.59-1.61,1.78,1.78,0,0,0-.92-.6l-.29,0Z" style="fill:#455a64"></path><path d="M266.6,80.13l.13.08a2.48,2.48,0,0,0,.38.2,5.3,5.3,0,0,0,1.57.44,6.18,6.18,0,0,0,5.23-1.76l-.18,0a5,5,0,0,0,3.41,2.61,3.81,3.81,0,0,0,4-1.88l-.2,0a3.12,3.12,0,0,0,.87,1.39,4.39,4.39,0,0,0,1.26.8,5.8,5.8,0,0,0,2.38.37,11,11,0,0,0,1.56-.17,1.87,1.87,0,0,0,.54-.12l-.55,0a15.42,15.42,0,0,1-1.55.11,5.85,5.85,0,0,1-2.31-.41,3.45,3.45,0,0,1-2-2.08l-.08-.27-.12.25a3.62,3.62,0,0,1-3.79,1.75A4.83,4.83,0,0,1,273.93,79l-.08-.13-.1.11a5.89,5.89,0,0,1-2.64,1.57,6.37,6.37,0,0,1-2.42.21A7.5,7.5,0,0,1,266.6,80.13Z" style="fill:#455a64"></path><path d="M274.25,92.07a.35.35,0,0,0,.09.15.78.78,0,0,0,.43.22,3.61,3.61,0,0,0,1.75-.2,4.23,4.23,0,0,0,2.09-1.57,4.36,4.36,0,0,0,.75-3.09v0l-.17.12a5.09,5.09,0,0,0,3.13.6,5.68,5.68,0,0,0,2.44-.9,6,6,0,0,0,1.32-1.16,2.16,2.16,0,0,0,.38-.51,9.17,9.17,0,0,1-1.79,1.52,5.67,5.67,0,0,1-2.38.84,5,5,0,0,1-3-.59l-.21-.12,0,.24v0a4.15,4.15,0,0,1-2.65,4.47,3.82,3.82,0,0,1-1.68.27A.82.82,0,0,1,274.25,92.07Z" style="fill:#455a64"></path><path d="M298.72,65a6.91,6.91,0,0,1,.23,2.44,5.54,5.54,0,0,1-.9,2.46,5.47,5.47,0,0,1-2.5,2,5.19,5.19,0,0,1-1.82.37h-.15l0,.14a6.9,6.9,0,0,1-.39,4.52,4.83,4.83,0,0,1-.36.69.61.61,0,0,1-.44.3.42.42,0,0,1-.31-.11c-.05-.06-.06-.11-.07-.11a.2.2,0,0,0,0,.13.43.43,0,0,0,.35.17.67.67,0,0,0,.52-.31,4.84,4.84,0,0,0,.4-.69,6.91,6.91,0,0,0,.62-2,7,7,0,0,0-.13-2.64l-.11.14a5.36,5.36,0,0,0,1.9-.38,5.39,5.39,0,0,0,3.48-4.64,5.28,5.28,0,0,0-.15-1.82c-.07-.21-.12-.37-.16-.47Z" style="fill:#455a64"></path><path d="M313.47,118.69c.22,0,.45,1.46,1.89,2.33s3,.47,3.07.68-.32.35-1,.47a3.76,3.76,0,0,1-2.54-.49,3.28,3.28,0,0,1-1.49-2C313.26,119.1,313.37,118.7,313.47,118.69Z" style="fill:#263238"></path><polygon points="301.85 432.63 301.73 447.3 313.58 449.06 318.27 444.19 319.39 430.67 301.85 432.63" style="fill:#ffbf9d"></polygon><path d="M319.42,442.91V444s19.26,7.67,19.45,11.27L300.61,455l.61-12.52A22.24,22.24,0,0,0,319.42,442.91Z" style="fill:#455a64"></path><g style="opacity:0.6000000000000001"><path d="M305.07,446.5a1.53,1.53,0,0,0-1.1,1.74,1.51,1.51,0,0,0,1.75,1.09,1.62,1.62,0,0,0,1.15-1.86,1.56,1.56,0,0,0-1.95-.92" style="fill:#fff"></path></g><g style="opacity:0.6000000000000001"><path d="M300.61,455l.14-3,36.64,1.41s1.69.74,1.49,1.92Z" style="fill:#fff"></path></g><path d="M319.56,444.13c0,.19-.94.26-1.87.85s-1.42,1.35-1.59,1.27.12-1.13,1.25-1.82S319.6,444,319.56,444.13Z" style="fill:#263238"></path><path d="M323.56,445.8c0,.18-.77.48-1.41,1.26s-.83,1.59-1,1.58-.3-1.05.51-2S323.56,445.62,323.56,445.8Z" style="fill:#263238"></path><path d="M325.81,450.54c-.17,0-.43-.88.06-1.88s1.37-1.4,1.44-1.25-.46.69-.85,1.52S326,450.53,325.81,450.54Z" style="fill:#263238"></path><polygon points="281.75 424.32 276.81 438.7 287.88 444.16 294.08 440.86 299.62 427.93 281.75 424.32" style="fill:#ffbf9d"></polygon><path d="M295.63,440l-.36,1.1s16.39,13.61,15.41,17.2L273.19,445.9l4.71-12.11A22.8,22.8,0,0,0,295.63,440Z" style="fill:#455a64"></path><g style="opacity:0.6000000000000001"><path d="M280.35,439a1.59,1.59,0,0,0-1.64,1.37,1.53,1.53,0,0,0,1.36,1.61,1.7,1.7,0,0,0,1.74-1.46A1.6,1.6,0,0,0,280.2,439" style="fill:#fff"></path></g><g style="opacity:0.6000000000000001"><path d="M273.19,445.9l1.13-2.91,35.52,12.91s1.42,1.27.84,2.36Z" style="fill:#fff"></path></g><path d="M295.36,441.21c-.06.18-1,0-2.11.24s-1.83.88-2,.75.49-1.08,1.82-1.39S295.46,441.06,295.36,441.21Z" style="fill:#263238"></path><path d="M298.75,444.1c0,.19-.92.24-1.8.79s-1.34,1.31-1.52,1.24.05-1.13,1.17-1.8S298.8,443.93,298.75,444.1Z" style="fill:#263238"></path><path d="M299.4,449.47c-.18,0-.13-1,.68-1.83s1.8-.94,1.82-.77-.68.53-1.34,1.22S299.58,449.51,299.4,449.47Z" style="fill:#263238"></path><path d="M354.27,245.4s13.89,22.47-1,62c-12.09,32.05-18.46,52.8-20,59.46s-5.39,17.42-9.16,39.87c-3.62,21.61-4.95,31.27-4.95,31.27l-18-1s-1.25-45.88,5.77-71.5,11.83-65.66,9.42-80.13,2.8-22.7,2.8-22.7Z" style="fill:#263238"></path><path d="M277.16,281.58C272.5,259,286.87,236,286.87,236l37.4,30.47s7.92,91.17,3.24,103-31.41,65.91-31.41,65.91L279,427.92s9.06-42.31,14.17-52.29c3.68-7.18,9.4-12.89,8.34-19.5C300,346.48,281,300,277.16,281.58Z" style="fill:#263238"></path><path d="M354.47,246c.14-.05-29.86,21.88-29.86,21.88L285,245.4l2.94-9.86s24.08,12.25,34.74,10,26-13.11,26-13.11Z" style="fill:#263238"></path><path d="M328.79,330.46c-.51-11.76-1.19-22.34-1.81-31.21s-1.21-16.06-1.63-21c-.23-2.46-.4-4.38-.52-5.71-.07-.63-.12-1.12-.15-1.48s-.07-.5-.07-.5a4.88,4.88,0,0,0,0,.51c0,.35.06.85.1,1.48.1,1.33.24,3.25.42,5.72.35,5,.85,12.16,1.47,21s1.21,19.46,1.69,31.21c.23,5.88.42,12,.47,18.45,0,3.2,0,6.45-.14,9.75-.08,1.65-.16,3.31-.32,5a29.24,29.24,0,0,1-.8,4.94,16.06,16.06,0,0,1-.85,2.24c-.3.74-.62,1.48-1,2.2q-1,2.19-2,4.34-2,4.29-4.07,8.41c-2.71,5.5-5.37,10.8-7.93,15.84-5.13,10.1-8.95,19.79-13,27.51l.35.18c4.05-7.7,7.9-17.38,13.05-27.46,2.57-5.05,5.25-10.34,8-15.84,1.36-2.75,2.73-5.55,4.08-8.42q1-2.13,2-4.34c.34-.72.66-1.47,1-2.21a17,17,0,0,0,.86-2.3,29.25,29.25,0,0,0,.82-5c.16-1.67.24-3.34.32-5,.13-3.31.13-6.57.13-9.77C329.24,342.52,329,336.34,328.79,330.46Z" style="fill:#455a64"></path><path d="M276,148.25l14.89-8,2.62-6.38,26.36,21L318.73,144l-.26-5a19.06,19.06,0,0,1,2.84,3.4c1.67,2.33,20.46,26.88,23.34,35.34s0,39.3,0,39.3l10.94,26.56c-16.18,11.52-35.94,14-58.07,10.53l-2.62-7.68c-1,0-5.51,6-5.51,6l-10-4.46,12.22-29-2.32-28.86Z" style="fill:#e0e0e0"></path><path d="M316.3,154.21a2.22,2.22,0,0,1-.59-.41l-1.58-1.26c-1.35-1.07-3.24-2.67-5.59-4.37h.24a11.29,11.29,0,0,0-2.66,2.39c-.86,1-1.69,2-2.61,3.09l-.27.3-.18.19-.19-.18a96.79,96.79,0,0,1-8.41-8.82c-1-1.2-1.75-2.2-2.27-2.89a6.74,6.74,0,0,1-.75-1.13,7.19,7.19,0,0,1,.91,1l2.39,2.78c2,2.34,5,5.43,8.48,8.68h-.37l.27-.29c.9-1,1.74-2.11,2.62-3.08a11.29,11.29,0,0,1,2.83-2.46l.13-.07.11.09c2.36,1.76,4.19,3.4,5.5,4.54.65.58,1.15,1,1.49,1.36A3,3,0,0,1,316.3,154.21Z" style="fill:#263238"></path><g style="opacity:0.30000000000000004"><path d="M339.06,169.82a422.62,422.62,0,0,0-45.36,54.89l-7,6c3.93,5.07,11.8,5.53,17.58,2.74s9.93-8,13.8-13.15C329.31,205.41,340.33,188.41,339.06,169.82Z"></path></g><path d="M276,148.25c-.69.22-8.4,3.65-8,17.49.33,10.76,5.06,50.25,8.72,56.89s14.56,14.14,25.32,3.15,28.64-40.64,28.64-40.64l-12-7.85L295.17,201.9l-3.73-36.66S288.63,144.13,276,148.25Z" style="fill:#ffbf9d"></path><circle cx="323.9" cy="154.87" r="8.54" transform="translate(-14.64 274.39) rotate(-45)" style="fill:#FF725E"></circle><path d="M314.56,150.48a69.59,69.59,0,0,0-1.11,7.78c0,2,2.83,9.29,3.23,12a67.19,67.19,0,0,0,1.92,7.58l12.13,7.28s5.55-6,7.37-10.21,3.54-5.76.91-9.8c0,0,1-3.44-2-4.85a3.72,3.72,0,0,0-1-4.14c-2-1.92-4,1.11-4,1.11s4.34-4.75,2.83-6.77-3.14-1.32-5.86,2.93-7.38,9.9-7.38,9.9A4.4,4.4,0,0,1,318.4,160C318,157.35,319.91,150.78,314.56,150.48Z" style="fill:#ffbf9d"></path><path d="M333.1,155.91a10.67,10.67,0,0,1-1.73,2.91,11.07,11.07,0,0,1-2.15,2.6,22.37,22.37,0,0,1,3.88-5.51Z" style="fill:#ff9a6c"></path><path d="M337,160.33a6.74,6.74,0,0,1-1.31,2.27c-.85,1.17-1.63,2.05-1.74,2a6.74,6.74,0,0,1,1.31-2.27C336.06,161.12,336.84,160.24,337,160.33Z" style="fill:#ff9a6c"></path><path d="M338.51,165.24c.13.06-.11.88-.7,1.76s-1.27,1.4-1.37,1.3.38-.76.94-1.6S338.38,165.18,338.51,165.24Z" style="fill:#ff9a6c"></path><path d="M278.36,147s-13.08,1.29-12.2,20.26l.51,19.94,31.55-2.06S298.55,147.51,278.36,147Z" style="fill:#e0e0e0"></path><path d="M266.67,187.2a4.35,4.35,0,0,1,.62-.08l1.78-.16,6.62-.51,22.51-1.57-.24.29c-.34-2.37-.7-4.84-1.06-7.36a149.41,149.41,0,0,0-2.8-14.91,41.52,41.52,0,0,0-2-6.29,16.41,16.41,0,0,0-3-4.81,16,16,0,0,0-7-4.33A17.39,17.39,0,0,0,280,147a4.83,4.83,0,0,1-.78-.14,3.62,3.62,0,0,1,.79,0,13.83,13.83,0,0,1,2.25.43,15.8,15.8,0,0,1,7.17,4.27,16.44,16.44,0,0,1,3.16,4.89,42.09,42.09,0,0,1,2,6.34,142.48,142.48,0,0,1,2.84,15c.39,2.52.74,5,1.06,7.36l0,.28h-.28l-22.52,1.39-6.63.36-1.79.07A2.71,2.71,0,0,1,266.67,187.2Z" style="fill:#263238"></path></g><g id="freepik--character-2--inject-211"><path d="M189.94,74.8a4.88,4.88,0,0,1-2.35-9.42,5.08,5.08,0,0,1,4.17-8.69,6.07,6.07,0,0,1,9-5.25,6.84,6.84,0,0,1,8.41-.43,4.86,4.86,0,0,1,4.53,8.11" style="fill:#263238"></path><path d="M210.36,55.8l-1.07,0a20.7,20.7,0,0,0-20,19.68c-.5,10-.91,21.11-.68,26.47.48,11.1,11.65,12.48,11.65,12.48l-.52,13.38,26.93-1.68.87-48.48C228.14,66.12,221.94,56.11,210.36,55.8Z" style="fill:#ffbf9d"></path><path d="M200.14,114.45a26.93,26.93,0,0,0,14.42-4.71s-3.34,8.51-14.45,7.85Z" style="fill:#ff9a6c"></path><path d="M194.06,85.39A1.6,1.6,0,0,0,195.64,87a1.52,1.52,0,0,0,1.59-1.48,1.59,1.59,0,0,0-1.58-1.56A1.53,1.53,0,0,0,194.06,85.39Z" style="fill:#263238"></path><path d="M191.81,80.87c.21.2,1.38-.73,3.09-.78s3,.77,3.16.56-.12-.47-.68-.85a4.34,4.34,0,0,0-2.54-.69,4.18,4.18,0,0,0-2.45.87C191.88,80.4,191.71,80.78,191.81,80.87Z" style="fill:#263238"></path><path d="M209.14,85a1.58,1.58,0,0,0,1.58,1.55,1.52,1.52,0,0,0,1.59-1.48,1.59,1.59,0,0,0-1.58-1.55A1.51,1.51,0,0,0,209.14,85Z" style="fill:#263238"></path><path d="M208.6,80.66c.21.2,1.38-.72,3.09-.77s3,.76,3.16.55-.12-.46-.68-.84a4.34,4.34,0,0,0-2.54-.7,4.25,4.25,0,0,0-2.45.87C208.67,80.19,208.5,80.57,208.6,80.66Z" style="fill:#263238"></path><path d="M202.8,93.52A11,11,0,0,0,200,93.1c-.44,0-.86-.1-.94-.4a2.29,2.29,0,0,1,.25-1.3L200.52,88c1.64-4.78,2.81-8.71,2.62-8.77s-1.68,3.76-3.32,8.54c-.4,1.18-.78,2.3-1.13,3.38a2.54,2.54,0,0,0-.18,1.72,1.12,1.12,0,0,0,.74.61,3,3,0,0,0,.74.08A11.58,11.58,0,0,0,202.8,93.52Z" style="fill:#263238"></path><path d="M206.92,74.14c.23.43,1.68-.09,3.48-.2s3.33.13,3.48-.32c.06-.22-.27-.6-.93-.92a5.35,5.35,0,0,0-2.72-.49,5.27,5.27,0,0,0-2.58.89C207.06,73.52,206.81,73.94,206.92,74.14Z" style="fill:#263238"></path><path d="M191.51,73.83c.37.38,1.77-.07,3.46-.14s3.14.16,3.46-.25c.13-.2-.1-.58-.74-.93a5.44,5.44,0,0,0-2.84-.55,5.36,5.36,0,0,0-2.73.87C191.53,73.24,191.35,73.65,191.51,73.83Z" style="fill:#263238"></path><path d="M190.16,70.38s2.72-7,6-8.77c4-2.1,5.89,2.31,9.72,1.1s7.66-3.21,11.7-.34c4.44,3.14,2.48,5.5,2.9,10.42,1.71,19.95,5.54,25.49,6.28,16,.08-1,2.92-1.94,3.21-6.31.37-5.67.37-12.54-1-16.51-1.17-3.34-3.17-5.62-6.71-8.08-5.58-3.9-13.07-3.75-18.15-3.08S189.43,61.69,190.16,70.38Z" style="fill:#263238"></path><path d="M226.06,88.55a3,3,0,0,1,3.17-3c2.08.14,4.42,1.24,4.42,5.52,0,7.61-7.64,6-7.65,5.82S226,91.73,226.06,88.55Z" style="fill:#ffbf9d"></path><path d="M227.65,94s.14.09.36.19a1.32,1.32,0,0,0,1,0c.8-.29,1.48-1.57,1.52-2.94a4.4,4.4,0,0,0-.37-1.89,1.51,1.51,0,0,0-1-1,.68.68,0,0,0-.78.36c-.1.22-.05.37-.09.38s-.17-.13-.11-.44a1,1,0,0,1,.3-.48,1.06,1.06,0,0,1,.74-.19,1.87,1.87,0,0,1,1.38,1.18,4.53,4.53,0,0,1,.46,2.12c-.05,1.53-.84,3-1.94,3.28a1.42,1.42,0,0,1-1.21-.2C227.67,94.2,227.63,94,227.65,94Z" style="fill:#ff9a6c"></path><path d="M225.45,73.84a7.16,7.16,0,0,1-3.17,1.59,2.49,2.49,0,0,1-2.8-1.66c-.1-.52,0-1.14-.35-1.54s-1.2-.3-1.83-.21c-2.2.3-4.86-2-5.49-4.19a2,2,0,0,1-2.63.64,7.28,7.28,0,0,1-1.88-1.57,3.13,3.13,0,0,0-2.65-1.23,7.32,7.32,0,0,1-1.64.42c-1-.06-1.52-1.21-1.7-2.19s-.34-2.14-1.2-2.65-1.8-.16-2.72,0-2.1,0-2.37-.91a1.84,1.84,0,0,1,.3-1.39,4.94,4.94,0,0,1,5.75-2,6.68,6.68,0,0,1,12.21-1.68,6.77,6.77,0,0,1,10.89,2.13,4.9,4.9,0,0,1,5.75,7A4.68,4.68,0,0,1,232.6,68c.08,1.57-1.4,3.19-2.93,2.82a2.72,2.72,0,0,1-4.62,2.86" style="fill:#263238"></path><path d="M200.57,59.17s0,0,0,.14a3.34,3.34,0,0,0,.06.41,4.79,4.79,0,0,0,.6,1.44A5.32,5.32,0,0,0,203,62.9a5,5,0,0,0,3.14.79l-.14-.16a2.79,2.79,0,0,0,.22,2.09,7.91,7.91,0,0,0,1.36,1.83,5.45,5.45,0,0,0,.88.84,2.61,2.61,0,0,0,1.21.41,2.76,2.76,0,0,0,2.42-1l-.28-.07a5.68,5.68,0,0,0,2.53,3.86,4.18,4.18,0,0,0,2.52.74,7.6,7.6,0,0,0,2.45-.61l-.21-.09A6,6,0,0,0,221,73.87a3.19,3.19,0,0,0,2.67.64,4.19,4.19,0,0,0,3.12-3.38l-.17.09a3.9,3.9,0,0,0,2.62.3,4.11,4.11,0,0,0,1.79-.87,3.49,3.49,0,0,0,.82-1,1.59,1.59,0,0,0,.18-.4,4.55,4.55,0,0,1-1.08,1.25,4.18,4.18,0,0,1-1.75.79,3.72,3.72,0,0,1-2.47-.33l-.15-.07,0,.16a4,4,0,0,1-3,3.13,2.88,2.88,0,0,1-2.42-.61,5.71,5.71,0,0,1-1.76-2.17l-.06-.14-.14.06a7.31,7.31,0,0,1-2.34.58,3.82,3.82,0,0,1-2.33-.68,5.43,5.43,0,0,1-2.4-3.65l0-.35-.23.28a2.49,2.49,0,0,1-2.14.84A2.38,2.38,0,0,1,208.6,68a6.08,6.08,0,0,1-.82-.79,7.65,7.65,0,0,1-1.33-1.75,2.45,2.45,0,0,1-.22-1.89l.05-.19-.19,0a4.8,4.8,0,0,1-3-.71,5.39,5.39,0,0,1-1.73-1.64A6.16,6.16,0,0,1,200.57,59.17Z" style="fill:#455a64"></path><path d="M203.36,99.35c0-.29,1.91,0,3.53-1.33s1.78-3.41,2-3.37.29.51.16,1.36a4.78,4.78,0,0,1-1.59,2.84,4.15,4.15,0,0,1-2.95,1C203.75,99.77,203.33,99.47,203.36,99.35Z" style="fill:#263238"></path><polygon points="119.79 124.22 108.43 130.78 108.43 143.89 119.79 150.44 131.14 143.89 131.14 130.78 119.79 124.22" style="fill:#455a64"></polygon><polygon points="119.76 127.68 108.4 134.24 108.4 147.35 119.76 153.9 131.11 147.35 131.11 134.24 119.76 127.68" style="fill:#263238"></polygon><path d="M155.89,171.81l11-19.07,15.53,20s-14.13,25-19.56,28.25c-6.91,4.11-11.62,1.61-17.62-5.27-3.67-4.21-22.8-38.66-25-44l11.79-1Z" style="fill:#ffbf9d"></path><path d="M124.41,136.48s.5-3.22,2.66-1.5,3,7,4.26,8.94,4.27,5.84,5.07,12.15-1.06,7.76-1.06,7.76l-5.42-5.78Z" style="fill:#ffbf9d"></path><path d="M111.09,149.36a4.54,4.54,0,0,1-1-6l0-.07a58,58,0,0,1,8.9-8.67c1.27-.73,4.66,1.25,4.66,1.25a4.13,4.13,0,0,1,3.59,1.68,17.08,17.08,0,0,1,2.34,5,3.06,3.06,0,0,1,.68,3.26c-.6,2.23-12.53,11-12.53,11s-4.76-2-4.56-4.06a3.07,3.07,0,0,1-1.4-2.76Z" style="fill:#ffbf9d"></path><polygon points="129.56 142.72 118.21 149.28 118.21 162.39 129.56 168.94 140.92 162.39 140.92 149.28 129.56 142.72" style="fill:#455a64"></polygon><polygon points="129.67 146.18 118.31 152.73 118.31 165.84 129.67 172.4 141.02 165.84 141.02 152.73 129.67 146.18" style="fill:#263238"></polygon><path d="M155,184.32a20.73,20.73,0,0,1-.22-6.3,21.32,21.32,0,0,1,1.14-6.21c.15,0-.38,2.8-.62,6.25S155.12,184.31,155,184.32Z" style="fill:#ff9a6c"></path><path d="M129.48,142.7a11.17,11.17,0,0,0-.25-1.18,2.55,2.55,0,0,0-.71-1,1.57,1.57,0,0,0-1.36-.41l-.33.07,0-.33a3.62,3.62,0,0,0,0-.73,3.67,3.67,0,0,0-1.91-2.66c-.78-.42-1.37-.45-1.36-.53s.61-.17,1.52.2a3.78,3.78,0,0,1,2.26,2.91,3.35,3.35,0,0,1,0,.83l-.31-.26a2,2,0,0,1,1.78.58,2.74,2.74,0,0,1,.73,1.27C129.76,142.24,129.52,142.73,129.48,142.7Z" style="fill:#ff9a6c"></path><path d="M120.57,144.31A9.39,9.39,0,0,1,127.1,140c.05.15-1.66.69-3.45,1.9S120.69,144.41,120.57,144.31Z" style="fill:#ff9a6c"></path><path d="M115.82,141.49a13.2,13.2,0,0,1,7.91-5.51c0,.15-2,.9-4.18,2.43S115.94,141.59,115.82,141.49Z" style="fill:#ff9a6c"></path><path d="M194.79,421.35l1,21.46S174.31,451,174.1,455l41.69-.44-.18-33.51Z" style="fill:#455a64"></path><path d="M208.66,440.87a1.7,1.7,0,0,1,1.2,1.93A1.63,1.63,0,0,1,208,444,1.79,1.79,0,0,1,206.7,442a1.69,1.69,0,0,1,2.12-1" style="fill:#e0e0e0"></path><path d="M215.79,454.58l-.15-3.38-39.91,1.69s-1.85.82-1.63,2.13Z" style="fill:#263238"></path><path d="M195.11,442.61c0,.2,1,.28,2,.92s1.55,1.5,1.73,1.42-.12-1.26-1.36-2S195.06,442.42,195.11,442.61Z" style="fill:#fff"></path><path d="M190.76,444.46c0,.2.84.54,1.54,1.39s.91,1.76,1.11,1.75.32-1.16-.57-2.21S190.76,444.27,190.76,444.46Z" style="fill:#fff"></path><path d="M188.33,449.72c.18,0,.46-1-.08-2.09s-1.49-1.54-1.57-1.37.51.76.93,1.68S188.13,449.7,188.33,449.72Z" style="fill:#fff"></path><path d="M195.43,437.69c.08.18,1-.11,2.17,0s2.05.42,2.15.24-.76-.89-2.12-.95S195.32,437.53,195.43,437.69Z" style="fill:#fff"></path><path d="M242,420.71l2.26,25.9-4.12,21a2.66,2.66,0,0,0,2.28,3.15h0a2.64,2.64,0,0,0,2.29-.83c3.71-4.05,16.91-19.2,16.91-20.59,0-2.21-.44-27.8-.44-27.8Z" style="fill:#455a64"></path><path d="M242.42,470.76l19.21-23.49.07,1.1a4.15,4.15,0,0,1-.78,2.65c-1.52,2.05-5.85,7.59-16.13,18.9a2.65,2.65,0,0,1-2.37.84Z" style="fill:#263238"></path><path d="M255.77,439.24a1.61,1.61,0,0,0-.3,2.13,1.54,1.54,0,0,0,2.1.32,1.7,1.7,0,0,0,.32-2.25,1.6,1.6,0,0,0-2.23-.09" style="fill:#e0e0e0"></path><path d="M247.62,459.05a8.11,8.11,0,0,0-2.41-1.87,7.9,7.9,0,0,0-3-.38c0-.07.29-.29.89-.41a4.25,4.25,0,0,1,4.2,1.74C247.62,458.64,247.68,459,247.62,459.05Z" style="fill:#fff"></path><path d="M246,462.64a21,21,0,0,0-2.37-1,21.14,21.14,0,0,0-2.55-.16,2.94,2.94,0,0,1,2.68-.39C245.31,461.47,246.12,462.56,246,462.64Z" style="fill:#fff"></path><path d="M250.77,454.37c-.11.14-1.47-1.09-3.55-1.74s-3.89-.47-3.91-.65a7.3,7.3,0,0,1,7.46,2.39Z" style="fill:#fff"></path><path d="M250.74,446.44c-.05.16-1.53-.34-3.4-.29s-3.31.6-3.38.44a5.13,5.13,0,0,1,3.37-1A5.19,5.19,0,0,1,250.74,446.44Z" style="fill:#fff"></path><path d="M250.27,438.83a12.79,12.79,0,0,0-3.53-.41,13.22,13.22,0,0,0-3.38,1.09c-.05-.05.22-.4.79-.78a5.69,5.69,0,0,1,2.54-.87,5.51,5.51,0,0,1,2.65.36C250,438.48,250.31,438.77,250.27,438.83Z" style="fill:#fff"></path><path d="M246.7,437a2,2,0,0,1-.1-1,6.77,6.77,0,0,1,.61-2.62,3,3,0,0,1,1.21-1.52,1.05,1.05,0,0,1,1.22.16,1.72,1.72,0,0,1,.48,1.14,3.77,3.77,0,0,1-3.07,3.69,4.37,4.37,0,0,1-4.43-2,1.54,1.54,0,0,1-.15-1.25,1.06,1.06,0,0,1,1.06-.62,3.66,3.66,0,0,1,1.77.77,7.82,7.82,0,0,1,1.9,1.91,2.48,2.48,0,0,1,.46.87,12,12,0,0,0-2.58-2.44,3.5,3.5,0,0,0-1.56-.64.55.55,0,0,0-.58.34,1,1,0,0,0,.15.81,3.88,3.88,0,0,0,3.86,1.7,3.28,3.28,0,0,0,2.65-3.09,1.32,1.32,0,0,0-.31-.82.59.59,0,0,0-.67-.1,2.74,2.74,0,0,0-1,1.28A9.88,9.88,0,0,0,246.7,437Z" style="fill:#fff"></path><path d="M256.26,347.47l-8.94-85.85-3.36-25-71.69,5.76A106.09,106.09,0,0,0,170,271.48v0c.05,1.41,1.48,43.61,3.12,55.31,1.67,11.9,4.6,30.12,6.7,37.41,2.22,7.67,3.1,33.79,3.27,40.63.1,3.72.7,14.15,2.73,20.61a9.48,9.48,0,0,0,8.17,6.61l.86,5.61,21.6-2.78-8.52-154.86c-.05-1,1.25-1.05,2.25-1.25a1.28,1.28,0,0,1,1.07.29c2.72,22.45,9.46,84.15,11.08,88.66,2.22,6.16,6.69,46.59,10.17,55.82,2.68,7.1,10,10.27,10,10.27l.29,4.53,19.38-1.31Z" style="fill:#263238"></path><path d="M170,271.52v0C169.9,270.53,170,271.46,170,271.52Z" style="fill:#263238"></path><path d="M247.41,356.73a64,64,0,0,1-5.36-5.73,65.75,65.75,0,0,1-5-6.05,64,64,0,0,1,5.36,5.73A64.22,64.22,0,0,1,247.41,356.73Z" style="fill:#455a64"></path><path d="M194.63,348.72a49.28,49.28,0,0,1-5.19,8,46.51,46.51,0,0,1,5.19-8Z" style="fill:#455a64"></path><path d="M245.34,239l-1.71-5.12,7-96.63-.13-9.51-23.72-9.88c-11.74,7.9-19.82,13.46-27.54,6.59,0,0-21.35,6.39-22.76,8.74-2.09,3.49-1.91,42.29-1.91,42.29l-2.15,34.6-2.32,35.31-1.54,5.77,76.79-4.66.38-2A11,11,0,0,0,245.34,239Z" style="fill:#FF725E"></path><g style="opacity:0.30000000000000004"><path d="M234.12,157.08a131.14,131.14,0,0,0,1.71,25.8,36.19,36.19,0,0,0,2.74,9.83,14.92,14.92,0,0,0,6.91,7.26l3.15-14.83Z"></path></g><path d="M239.19,133.2s12.62,2.31,16.47,10.79,8.28,33.08,8.3,41.82S266.12,201.37,268,208s.61,45.88.77,46.53S258,253.41,258,253.41s-8.57-26.85-9.21-36.5S247,198.19,247,198.19l-7.57-25.05Z" style="fill:#ffbf9d"></path><path d="M268,248.24s2.17,23,2.14,25.17-5.08,14.27-5.08,14.27L255,293.75s-1.25-.61-.13-3.11a24.44,24.44,0,0,1,3.35-5.07l0-11.15-.73-3.22-1.76,4s.17,7.34-1.64,9.06a1.3,1.3,0,0,1-1.94-1,56.13,56.13,0,0,1-.53-12.22c.44-3.42,1.09-8.62,4.05-11.35s2-7.6,1.31-10.05S268,248.24,268,248.24Z" style="fill:#ffbf9d"></path><path d="M232.51,150.32c.12,1.57,5.52,25.4,5.52,25.4l30.16-9.33s-6.64-22-8-25.7a27.32,27.32,0,0,0-9.73-12.91S230.59,124,232.51,150.32Z" style="fill:#FF725E"></path><path d="M176.42,182.53l-21.23-15.64s11.63-23.45,16.51-30,14.86-8.12,14.86-8.12l.81,16.56Z" style="fill:#FF725E"></path><path d="M176.48,149.26a3.32,3.32,0,0,1,0,.69c0,.51-.05,1.16-.09,2-.11,1.77-.25,4.23-.43,7.25-.42,6.17-1,14.59-1.62,23.9S173,200.81,172.59,207c-.25,3-.45,5.48-.6,7.25-.08.81-.14,1.47-.19,2a2.64,2.64,0,0,1-.1.68,2.92,2.92,0,0,1,0-.68c0-.51.05-1.16.09-2,.1-1.78.25-4.24.43-7.25.42-6.17,1-14.6,1.61-23.92s1.31-17.73,1.77-23.91c.25-3,.45-5.47.6-7.24.07-.81.14-1.46.18-2A4.62,4.62,0,0,1,176.48,149.26Z" style="fill:#263238"></path><path d="M232.74,151.66a1.7,1.7,0,0,1,.15.46c.09.36.21.81.34,1.35.3,1.25.7,2.95,1.19,5,1,4.34,2.3,10.28,3.81,17l-.33-.19,3.59-1.12,19.08-5.85,5.81-1.72,1.58-.44a3.73,3.73,0,0,1,.56-.12,1.69,1.69,0,0,1-.53.22l-1.55.54-5.76,1.87-19,6-3.6,1.11-.27.08-.06-.27c-1.44-6.72-2.71-12.67-3.64-17-.43-2.1-.77-3.81-1-5.07-.1-.55-.18-1-.25-1.37A1.92,1.92,0,0,1,232.74,151.66Z" style="fill:#263238"></path><path d="M240.34,237.92a2.33,2.33,0,0,1-.58.16l-1.68.35c-1.46.3-3.59.69-6.22,1.14-5.27.9-12.57,2-20.68,2.75s-15.49,1.19-20.83,1.34c-2.67.07-4.83.11-6.32.1l-1.72,0a2.58,2.58,0,0,1-.6,0,2.66,2.66,0,0,1,.6-.07l1.72-.08,6.31-.26c5.33-.24,12.68-.69,20.79-1.49s15.4-1.79,20.67-2.59l6.24-1,1.7-.25A2.26,2.26,0,0,1,240.34,237.92Z" style="fill:#263238"></path></g><g id="freepik--character-4--inject-211"><path d="M404.57,217.33a24.1,24.1,0,0,1,9.77,26.21,9.25,9.25,0,0,1-3.07,5.08c-1.63,1.19-4.16,1.32-5.53-.17a6.18,6.18,0,0,1-3.25,4.91,11.34,11.34,0,0,1-5.94,1.25,20,20,0,0,1-16.73-10.39,7,7,0,0,1-12.46.37,6.1,6.1,0,0,1-8.95-8.05c1.38-2.16,3.92-3.23,5.87-4.9,4.94-4.23,5.45-11.55,5.6-18" style="fill:#263238"></path><path d="M409.83,219.44l3.42,5.2a22.18,22.18,0,0,1-10.34,12.06l-1.21-2.58A26.92,26.92,0,0,0,409.83,219.44Z" style="fill:#FF725E"></path><path d="M370.08,221.31c.56-6.29,7.51-12.4,13.76-11.57l20.24,4.41-.15,3.38-3.17,20.94-.67,21.3s-.62,13.15-12,12.07c-10.24-1-9.39-11.78-9.39-11.78l.62-9.12s-8.55-1.31-9.76-9.87C368.8,235.84,369.46,228.29,370.08,221.31Z" style="fill:#ffbf9d"></path><path d="M374.3,230.65a1.35,1.35,0,0,0,1.26,1.39,1.28,1.28,0,0,0,1.42-1.17,1.35,1.35,0,0,0-1.26-1.4A1.29,1.29,0,0,0,374.3,230.65Z" style="fill:#263238"></path><path d="M371.78,226.94c.17.18,1.21-.55,2.65-.51s2.49.8,2.66.62-.09-.39-.54-.74a3.7,3.7,0,0,0-2.12-.72,3.58,3.58,0,0,0-2.11.62C371.86,226.54,371.7,226.86,371.78,226.94Z" style="fill:#263238"></path><path d="M386.3,231a1.35,1.35,0,0,0,1.26,1.39,1.29,1.29,0,0,0,1.42-1.18,1.35,1.35,0,0,0-1.26-1.39A1.29,1.29,0,0,0,386.3,231Z" style="fill:#263238"></path><path d="M385.1,227.51c.17.18,1.21-.54,2.65-.5s2.49.79,2.65.62-.08-.4-.53-.75a3.7,3.7,0,0,0-2.12-.71,3.51,3.51,0,0,0-2.11.62C385.18,227.12,385,227.43,385.1,227.51Z" style="fill:#263238"></path><path d="M379.18,251a26.7,26.7,0,0,0,14.15-3.38s-3.78,7.23-14.26,6Z" style="fill:#ff9a6c"></path><path d="M385.71,222.7c.15.45,1.41.15,2.92.29s2.74.61,2.91.18c.08-.2-.16-.62-.67-1a4.08,4.08,0,0,0-2.21-.86,3.7,3.7,0,0,0-2.24.49C385.89,222.1,385.64,222.48,385.71,222.7Z" style="fill:#263238"></path><path d="M371.87,222c.22.41,1.31.12,2.56.22s2.29.49,2.58.11c.12-.18,0-.59-.43-1a3.4,3.4,0,0,0-4.14-.27C372,221.37,371.77,221.76,371.87,222Z" style="fill:#263238"></path><path d="M371.1,214.86c2-3.54,5.69-5.43,9.62-6.44a25.33,25.33,0,0,1,12,.21,75.83,75.83,0,0,1,11.46,4.07,3,3,0,0,1,2.49,3.69q-.62,8.43-1.24,16.84l-1.58,3.42c-1.82,0-3.33-1.38-4.49-2.78a25.12,25.12,0,0,1-5.64-17.73,8.44,8.44,0,0,0-1,2.42,2.77,2.77,0,0,1-1.7,1.89c-1.43.36-2.6-1.28-2.79-2.74s.08-3-.61-4.35a16.71,16.71,0,0,1-5.68,5c-1.05.57-2.44,1-3.37.23a2.28,2.28,0,0,1-.58-2.33,6.7,6.7,0,0,1,1.25-2.2,13.28,13.28,0,0,1-6.56,3.76,1.8,1.8,0,0,1-1.61-.17C370.46,217.11,370.7,215.57,371.1,214.86Z" style="fill:#263238"></path><path d="M400.82,229.12c.17-.06,6.5-1.69,6.09,4.71s-6.76,4.66-6.76,4.48S400.82,229.12,400.82,229.12Z" style="fill:#ffbf9d"></path><path d="M402.27,236s.1.08.29.18a1.06,1.06,0,0,0,.83.07,2.77,2.77,0,0,0,1.44-2.39,3.73,3.73,0,0,0-.21-1.62,1.33,1.33,0,0,0-.78-.91.57.57,0,0,0-.68.27c-.1.17-.07.3-.1.31s-.13-.12-.06-.38a.68.68,0,0,1,.28-.38.77.77,0,0,1,.62-.12,1.54,1.54,0,0,1,1.1,1.06,3.84,3.84,0,0,1,.27,1.81,2.89,2.89,0,0,1-1.8,2.66,1.17,1.17,0,0,1-1-.24C402.27,236.13,402.25,236,402.27,236Z" style="fill:#ff9a6c"></path><path d="M412.07,226.93s8-6.8,1.16-17l-2.38-1.68.39-2.2s-1.28-5.31-8-7.26c0,0,.54-.86-.79-1.54a19.82,19.82,0,0,0-3.84-1.2l-1.14.35a11.13,11.13,0,0,0-10.68-.84l-.18,2.09-3.5-1.89s-4.86-1-7.41,5c0,0-4,.2-6.62,5.55A12.7,12.7,0,0,0,369.6,219s1.71-13.89,21.39-8.65C405.61,214.23,412.07,226.93,412.07,226.93Z" style="fill:#FF725E"></path><path d="M397.33,237.56c2.33-8.15,1-16.84-.4-25.21l5.4,1.74c.48,6.63.34,14.9-1.12,21.39s-6.09,13.65-11.52,14.05C394,246.21,395.91,242.56,397.33,237.56Z" style="fill:#FF725E"></path><path d="M381.6,235.81a4.74,4.74,0,0,1-1.64.1h-.83a1.25,1.25,0,0,1-1-.38,1.08,1.08,0,0,1-.11-1.26l.59-1a30.62,30.62,0,0,1,3.17-4.63,31.23,31.23,0,0,1-2.72,4.9l-.6,1a.6.6,0,0,0,0,.69c.16.21.36.24.69.26l.83.07A5.16,5.16,0,0,1,381.6,235.81Z" style="fill:#263238"></path><path d="M381,240.51a7.76,7.76,0,0,0,2.38-.56c1.19-.63,1.65-1.74,1.79-1.67s0,.33-.19.77a3.29,3.29,0,0,1-1.35,1.36,3.41,3.41,0,0,1-1.88.38C381.29,240.73,381,240.58,381,240.51Z" style="fill:#263238"></path><path d="M387,235.22a2.2,2.2,0,0,1,1-.61,5.39,5.39,0,0,1,4.24.28,1.06,1.06,0,0,1-.06,1.9,5.84,5.84,0,0,1-1.45.39A7.62,7.62,0,0,1,388,237a1.6,1.6,0,0,1-1.23-.75A1.06,1.06,0,0,1,387,235.22Z" style="fill:#ff9a6c"></path><path d="M370.51,234.37a2.39,2.39,0,0,1,1-.61,5.44,5.44,0,0,1,4.34.33,1,1,0,0,1,0,1.83,5.82,5.82,0,0,1-1.61.42,7.46,7.46,0,0,1-2.7-.15,1.62,1.62,0,0,1-1.23-.75A1.09,1.09,0,0,1,370.51,234.37Z" style="fill:#ff9a6c"></path><path d="M401.79,238.61a1.75,1.75,0,1,0,1.8-1.7A1.75,1.75,0,0,0,401.79,238.61Z" style="fill:#e0e0e0"></path><path d="M367.71,212.79a2.26,2.26,0,0,1,.16-.57,9.06,9.06,0,0,1,.7-1.53,9.6,9.6,0,0,1,4.68-4,27.88,27.88,0,0,1,9-1.88,38.1,38.1,0,0,1,11.17.85A33,33,0,0,1,403.73,210,29.16,29.16,0,0,1,410.6,216a25.58,25.58,0,0,1,3.31,5.21,16.18,16.18,0,0,1,.66,1.54,2.49,2.49,0,0,1,.18.56c-.05,0-.34-.73-1-2a27.52,27.52,0,0,0-3.41-5.06,29.48,29.48,0,0,0-6.85-5.88,32.85,32.85,0,0,0-10.21-4.19,38.5,38.5,0,0,0-11-.88,28.32,28.32,0,0,0-8.84,1.74,9.6,9.6,0,0,0-4.65,3.74A20.34,20.34,0,0,0,367.71,212.79Z" style="fill:#263238"></path><path d="M404.41,206.72a8.34,8.34,0,0,1,4.76.64,9.82,9.82,0,0,1,4.06,2.57c-.09.13-1.82-1.16-4.25-2.08A32.3,32.3,0,0,0,404.41,206.72Z" style="fill:#263238"></path><path d="M397.27,196.44c0,.09-.91.3-2.17,1.11a8.55,8.55,0,0,0-1,.74,3.06,3.06,0,0,0-.85,1,.68.68,0,0,0,.31,1,2.85,2.85,0,0,0,1.52-.06c2.27-.5,4.33-.93,5.83-1.21a11.43,11.43,0,0,1,2.44-.36,11.6,11.6,0,0,1-2.36.72c-1.48.37-3.53.85-5.8,1.36a3.16,3.16,0,0,1-1.83,0,1.13,1.13,0,0,1-.66-.75,1.3,1.3,0,0,1,.12-.92,3.37,3.37,0,0,1,1-1.13,6.8,6.8,0,0,1,1.05-.72A4.89,4.89,0,0,1,397.27,196.44Z" style="fill:#263238"></path><path d="M374.66,201a3.73,3.73,0,0,1,2.14-.24,3.79,3.79,0,0,1,2.09.56c0,.15-1,.05-2.12,0S374.66,201.15,374.66,201Z" style="fill:#263238"></path><polygon points="422.65 288.14 424.66 301.01 436.59 328.54 424.71 332.68 413.68 310.09 409.9 293.42 422.65 288.14" style="fill:#ffbf9d"></polygon><path d="M434.51,320.53a12.58,12.58,0,0,0-8.85,1.15c-4.48,2.43-4.85,5.67-4.85,5.67s6.6,18.43,8.19,19.5l6,4,11.87-7-6.11-8.13Z" style="fill:#FF725E"></path><path d="M446.48,344.08a9.82,9.82,0,0,1,.64,2.39,3.3,3.3,0,0,1-.58,2.35,2,2,0,0,1-2.2.74,2.34,2.34,0,0,1-2.59,1.66,2.94,2.94,0,0,1-.53,1.48,1.62,1.62,0,0,1-1.38.66,1.3,1.3,0,0,0-.65,0,1.28,1.28,0,0,0-.4.37,1.47,1.47,0,0,1-1.21.38,3,3,0,0,1-1.2-.48,3.28,3.28,0,0,1-1.19-1.29,1.8,1.8,0,0,1,.07-1.7,1.26,1.26,0,0,1,1.55-.47,4.26,4.26,0,0,1-.38-1.45,2.46,2.46,0,0,1,.14-1.14,1.32,1.32,0,0,1,.82-.78.91.91,0,0,1,1,.35,1.54,1.54,0,0,1,1.53-1.14,3,3,0,0,1,1.87.79,1.46,1.46,0,0,1,0-1.93c.87-.9,3.12.16,3.12.16Z" style="fill:#ffbf9d"></path><path d="M439.22,336.24a14.8,14.8,0,0,1,2.43.74,4.84,4.84,0,0,1,2,1.52,7.25,7.25,0,0,1,1.05,3.36,14.61,14.61,0,0,1,.21,3.16,2.2,2.2,0,0,1-1,2,1.76,1.76,0,0,1-2-.66,3.66,3.66,0,0,1-.76-2.1,10.73,10.73,0,0,1,.14-2.26,6.42,6.42,0,0,1-2.42-1.32,3.28,3.28,0,0,1-1.1-2.46,2.2,2.2,0,0,1,1.6-2" style="fill:#ffbf9d"></path><path d="M439.37,336.14s-.21.07-.52.29a2.23,2.23,0,0,0-.87,1.33,2.76,2.76,0,0,0,.64,2.3,5.51,5.51,0,0,0,2.74,1.66l.18.06,0,.2a8.3,8.3,0,0,0,0,2.9,3.21,3.21,0,0,0,.65,1.32,1.7,1.7,0,0,0,1.26.61,1.1,1.1,0,0,0,.95-.66,3.14,3.14,0,0,0,.3-1.3,13.9,13.9,0,0,0-.16-2.68,12.8,12.8,0,0,0-.45-2.4A3.82,3.82,0,0,0,443,338a7.19,7.19,0,0,0-2.69-1.42,5.14,5.14,0,0,1-1.08-.38,4.55,4.55,0,0,1,1.14.18,6.83,6.83,0,0,1,2.87,1.34,4.29,4.29,0,0,1,1.23,1.87,13.68,13.68,0,0,1,.52,2.47,14.64,14.64,0,0,1,.19,2.78,3.61,3.61,0,0,1-.35,1.51,1.62,1.62,0,0,1-1.39.94,2.17,2.17,0,0,1-1.66-.79A3.63,3.63,0,0,1,441,345a8.49,8.49,0,0,1,0-3.07l.16.25a5.82,5.82,0,0,1-2.9-1.87,3,3,0,0,1-.6-2.61,2.26,2.26,0,0,1,1.06-1.39C439.13,336.11,439.37,336.12,439.37,336.14Z" style="fill:#ff9a6c"></path><path d="M441.77,346.68c.15,0,.36,1,1.23,1.8s1.85,1,1.83,1.18-.28.11-.71,0a3.2,3.2,0,0,1-2.35-2.29C441.66,347,441.7,346.69,441.77,346.68Z" style="fill:#ff9a6c"></path><path d="M438.63,347.36a17,17,0,0,0,1.4,2.18c1,1.06,2.1,1.43,2.05,1.58a3.07,3.07,0,0,1-2.43-1.23A3.12,3.12,0,0,1,438.63,347.36Z" style="fill:#ff9a6c"></path><path d="M436.75,350.12c.15,0,.4.92,1.19,1.76s1.69,1.2,1.65,1.34-1.14,0-2-1S436.61,350.11,436.75,350.12Z" style="fill:#ff9a6c"></path><path d="M429.6,344.55a7.27,7.27,0,0,1,2.88-3.27,7.17,7.17,0,0,1,4.1-1.51,16.48,16.48,0,0,0-7,4.78Z" style="fill:#263238"></path><path d="M434,321.51a3.44,3.44,0,0,1-1,.51c-.66.28-1.66.6-2.87,1a10.66,10.66,0,0,0-3.86,2,5,5,0,0,0-1.37,2.09,3.16,3.16,0,0,0,.18,2.55,2.69,2.69,0,0,0,2,1.43,3.63,3.63,0,0,0,2.28-.87,10.83,10.83,0,0,1,4.18-1.76,10.29,10.29,0,0,1,3.06-.11,4,4,0,0,1,1.1.25,16,16,0,0,0-4.08.22,10.75,10.75,0,0,0-4,1.8,4.11,4.11,0,0,1-2.59,1,3.21,3.21,0,0,1-2.46-1.68,3.65,3.65,0,0,1-.2-3A5.36,5.36,0,0,1,426,324.7a10.62,10.62,0,0,1,4.07-2c1.24-.36,2.23-.62,2.91-.84A7.94,7.94,0,0,1,434,321.51Z" style="fill:#263238"></path><polygon points="360.15 284.24 357.33 296.96 343.69 323.69 355.28 328.57 367.72 306.72 372.54 290.31 360.15 284.24" style="fill:#ffbf9d"></polygon><path d="M346.27,315.83a12.54,12.54,0,0,1,8.76,1.7c4.32,2.71,4.49,6,4.49,6s-7.75,18-9.41,18.95l-6.21,3.64-11.41-7.72,6.61-7.73Z" style="fill:#FF725E"></path><path d="M332.84,338.57a9.86,9.86,0,0,0-.79,2.35,3.35,3.35,0,0,0,.44,2.38,2,2,0,0,0,2.14.88,2.36,2.36,0,0,0,2.49,1.82,2.82,2.82,0,0,0,.43,1.51,1.65,1.65,0,0,0,1.34.75,1.42,1.42,0,0,1,.65,0,1.82,1.82,0,0,1,.38.4,1.45,1.45,0,0,0,1.17.45,2.84,2.84,0,0,0,1.23-.4,3.22,3.22,0,0,0,1.27-1.21,1.77,1.77,0,0,0,0-1.7,1.25,1.25,0,0,0-1.52-.56,4.3,4.3,0,0,0,.47-1.43,2.36,2.36,0,0,0-.07-1.15,1.39,1.39,0,0,0-.76-.83.93.93,0,0,0-1.05.29,1.54,1.54,0,0,0-1.45-1.24,2.94,2.94,0,0,0-1.91.68,1.46,1.46,0,0,0,.13-1.93c-.81-.95-3.12,0-3.12,0Z" style="fill:#ffbf9d"></path><path d="M340.58,331.21a14.06,14.06,0,0,0-2.47.58,5,5,0,0,0-2.09,1.39,7.18,7.18,0,0,0-1.26,3.3,15.09,15.09,0,0,0-.41,3.13,2.21,2.21,0,0,0,.91,2,1.79,1.79,0,0,0,2-.54,3.81,3.81,0,0,0,.89-2,11.48,11.48,0,0,0,0-2.27,6.37,6.37,0,0,0,2.5-1.16,3.29,3.29,0,0,0,1.25-2.38,2.21,2.21,0,0,0-1.47-2.14" style="fill:#ffbf9d"></path><path d="M340.44,331.09a1,1,0,0,1,.59.21,2.27,2.27,0,0,1,1,1.45,3,3,0,0,1-.77,2.57,5.86,5.86,0,0,1-3,1.68l.17-.24a8.3,8.3,0,0,1-.15,3.07,3.44,3.44,0,0,1-.85,1.5,2.2,2.2,0,0,1-1.71.68,1.62,1.62,0,0,1-1.33-1,3.71,3.71,0,0,1-.25-1.52,13.84,13.84,0,0,1,.37-2.76,13,13,0,0,1,.67-2.44,4.14,4.14,0,0,1,1.34-1.78,6.75,6.75,0,0,1,2.95-1.16,3.84,3.84,0,0,1,1.15-.11,6.58,6.58,0,0,1-1.1.31,7,7,0,0,0-2.77,1.24,3.91,3.91,0,0,0-1.17,1.67,12.7,12.7,0,0,0-.6,2.36,14.44,14.44,0,0,0-.33,2.67,3,3,0,0,0,.22,1.31,1.12,1.12,0,0,0,.9.73A1.74,1.74,0,0,0,337,341a3.08,3.08,0,0,0,.73-1.28,8.31,8.31,0,0,0,.17-2.89l0-.2.19,0a5.56,5.56,0,0,0,2.84-1.49,2.71,2.71,0,0,0,.78-2.26,2.21,2.21,0,0,0-.78-1.38C340.64,331.18,340.43,331.13,340.44,331.09Z" style="fill:#ff9a6c"></path><path d="M337.38,341.47c.07,0,.09.29,0,.71a3.2,3.2,0,0,1-1,1.4,3.16,3.16,0,0,1-1.54.73c-.43.07-.7,0-.7-.06s1-.27,1.9-1.06S337.24,341.44,337.38,341.47Z" style="fill:#ff9a6c"></path><path d="M340.47,342.35a3.87,3.87,0,0,1-3.68,3.53c0-.15,1.13-.45,2.14-1.45S340.32,342.3,340.47,342.35Z" style="fill:#ff9a6c"></path><path d="M342.17,345.21c.14,0,0,1.14-.93,2.06s-2.1,1-2.1.86.91-.42,1.74-1.23S342,345.17,342.17,345.21Z" style="fill:#ff9a6c"></path><path d="M349.66,340.11a33.1,33.1,0,0,0-3-3A30.66,30.66,0,0,0,343,334.9a8.87,8.87,0,0,1,6.66,5.21Z" style="fill:#263238"></path><path d="M346.7,316.84a6,6,0,0,1,1,.38c.67.27,1.65.58,2.86,1a10.5,10.5,0,0,1,3.93,2.29,5.39,5.39,0,0,1,1.39,2.38,3.7,3.7,0,0,1-.39,2.94,3.2,3.2,0,0,1-2.56,1.53,4,4,0,0,1-2.52-1.14,10.9,10.9,0,0,0-3.87-2.05,15,15,0,0,0-4.06-.47,3.36,3.36,0,0,1,1.11-.18,10,10,0,0,1,3,.3,10.74,10.74,0,0,1,4.07,2,3.63,3.63,0,0,0,2.22,1,2.72,2.72,0,0,0,2.13-1.3,3.19,3.19,0,0,0,.33-2.54,4.87,4.87,0,0,0-1.23-2.17,10.71,10.71,0,0,0-3.73-2.28c-1.18-.47-2.15-.85-2.8-1.17A3.45,3.45,0,0,1,346.7,316.84Z" style="fill:#263238"></path><path d="M414.44,353.65c-.8.64-1.51,35.05-1.51,35.05l-1,29.65-.71,8.75-15.81-1.22s-2.48-26.27-3.35-33.61-3.65-33.49-3.65-33.49Z" style="fill:#ffbf9d"></path><polygon points="412.39 404.15 393.27 404.15 390.92 382.48 413.25 382.48 412.39 404.15" style="fill:#FF725E"></polygon><g style="opacity:0.30000000000000004"><path d="M407.52,394.76a5.82,5.82,0,0,1-1.3,4.77,8,8,0,0,1-4.14,2.51,18,18,0,0,1-4.8.47,14,14,0,0,1-3-.25,3.11,3.11,0,0,1-1.33-.58,4.19,4.19,0,0,1-1.06-2.57Z"></path></g><path d="M389.39,393.81a5.73,5.73,0,0,1,3.06-4.35,11.36,11.36,0,0,1,5.47-.77c3.3.08,7.41-.19,9.81.67a5.75,5.75,0,0,1,.59,10.07,10,10,0,0,1-4.34,1.22,36.57,36.57,0,0,1-6.94.06,10,10,0,0,1-5.75-1.93A5.76,5.76,0,0,1,389.39,393.81Z" style="fill:#FF725E"></path><path d="M389.39,393.81a7.77,7.77,0,0,0,.27,2.17,5.76,5.76,0,0,0,1.24,2.2,6.27,6.27,0,0,0,2.84,1.73,16.45,16.45,0,0,0,4.06.64,36.26,36.26,0,0,0,4.77,0,14.53,14.53,0,0,0,5.07-1,5.64,5.64,0,0,0,3.06-4.23,5.57,5.57,0,0,0-3.08-5.7h0a15.11,15.11,0,0,0-4.24-.62c-1.39-.06-2.73-.05-4-.06s-2.47-.08-3.56,0a8.56,8.56,0,0,0-2.95.55,5.73,5.73,0,0,0-3,2.9,10.59,10.59,0,0,0-.49,1.48s0-.14,0-.41a5,5,0,0,1,.32-1.14,5.74,5.74,0,0,1,3-3.13,9,9,0,0,1,3.05-.63c1.13-.06,2.32,0,3.58,0s2.61,0,4,0a15.2,15.2,0,0,1,4.39.62h0a6,6,0,0,1,0,10.83,14.39,14.39,0,0,1-5.26,1,36.83,36.83,0,0,1-4.83,0,17,17,0,0,1-4.15-.72,6.62,6.62,0,0,1-2.94-1.88,5.87,5.87,0,0,1-1.22-2.34,5.44,5.44,0,0,1-.16-1.66,3,3,0,0,1,.05-.43C389.36,393.86,389.38,393.81,389.39,393.81Z" style="fill:#263238"></path><path d="M388.21,353.27c-.8.64-1.51,35.06-1.51,35.06L385.65,418l-.7,8.74-15.81-1.21s-2.28-28.15-2.93-35.51c-.87-9.8-1.53-32.74-1.53-32.74Z" style="fill:#ffbf9d"></path><path d="M369.26,425.13l-1.67-12.41H386.4c-.4,2.16-1.29,14-1.29,14Z" style="fill:#e0e0e0"></path><path d="M384.78,417.15H369.21a3,3,0,0,1-3-3h0a3,3,0,0,1,3-3h15.57a3,3,0,0,1,3,3h0A3,3,0,0,1,384.78,417.15Z" style="fill:#e0e0e0"></path><path d="M386.45,416.79a80.21,80.21,0,0,1-9.22.26,80.32,80.32,0,0,1-9.23-.26,83.15,83.15,0,0,1,9.23-.26A83,83,0,0,1,386.45,416.79Z" style="fill:#263238"></path><polygon points="386.15 403.77 367.03 403.77 365.63 382.1 387.02 382.1 386.15 403.77" style="fill:#FF725E"></polygon><g style="opacity:0.30000000000000004"><path d="M381.28,394.38a5.79,5.79,0,0,1-1.29,4.78,8,8,0,0,1-4.15,2.51,17.92,17.92,0,0,1-4.79.47,14.6,14.6,0,0,1-3-.26,2.89,2.89,0,0,1-1.33-.57,4.15,4.15,0,0,1-1.06-2.57Z"></path></g><path d="M363.15,393.44a5.79,5.79,0,0,1,3.06-4.36,11.48,11.48,0,0,1,5.47-.77c3.3.08,7.41-.18,9.81.68a5.75,5.75,0,0,1,.6,10.06,9.89,9.89,0,0,1-4.34,1.23,36.57,36.57,0,0,1-6.94.05,9.83,9.83,0,0,1-5.75-1.92A5.77,5.77,0,0,1,363.15,393.44Z" style="fill:#FF725E"></path><path d="M363.15,393.44a8.28,8.28,0,0,0,.27,2.17,5.83,5.83,0,0,0,1.24,2.2,6.5,6.5,0,0,0,2.84,1.73,17,17,0,0,0,4.07.64,39.91,39.91,0,0,0,4.76,0,14.28,14.28,0,0,0,5.07-1,5.5,5.5,0,0,0,0-9.92h0a15.21,15.21,0,0,0-4.24-.62c-1.4-.06-2.73-.05-4-.06s-2.47-.09-3.57-.05a8.55,8.55,0,0,0-2.94.56,5.62,5.62,0,0,0-3,2.9,11.86,11.86,0,0,0-.5,1.48,1.59,1.59,0,0,1,0-.41,5.22,5.22,0,0,1,.32-1.14,5.78,5.78,0,0,1,3-3.13,9,9,0,0,1,3.05-.64c1.13-.06,2.32,0,3.59,0s2.6,0,4,0a16,16,0,0,1,4.4.62h0a6,6,0,0,1,0,10.84,14.73,14.73,0,0,1-5.26,1,36.68,36.68,0,0,1-4.82,0,17,17,0,0,1-4.16-.72,6.7,6.7,0,0,1-2.94-1.89,5.84,5.84,0,0,1-1.21-2.34,5.12,5.12,0,0,1-.17-1.65,3,3,0,0,1,.05-.43C363.13,393.49,363.14,393.44,363.15,393.44Z" style="fill:#263238"></path><path d="M414.6,320.63s1.65,9.79,2,16.24.69,24.27.69,24.27-14.17,2.22-21.76,2.27-7.46.41-7.46.41l-1-14.73-6-20.93Z" style="fill:#263238"></path><path d="M363.51,329.19l-2.94,34.63s22.41,2.91,28.09-1.29-5.31-34.89-5.31-34.89Z" style="fill:#263238"></path><path d="M386.74,342.73c.14,0,.55,4.7.91,10.53a104.61,104.61,0,0,1,.39,10.56c-.14,0-.55-4.71-.91-10.53A104.61,104.61,0,0,1,386.74,342.73Z" style="fill:#455a64"></path><path d="M416.52,263.56l-16.2-7.84s-8.79,8.29-16.31,6a7.65,7.65,0,0,1-5-5.36l-11.07,4.2s-2.37,23.54-2.36,33.64-2.23,34.61-2.23,34.61,5.38,8,21.59,6.22,29.77-13.39,29.77-13.39l-5.62-33.4Z" style="fill:#FF725E"></path><path d="M425.8,288.65s-4.7-23.53-9.28-25.09c-2.94-1-12,17.91-12,17.91L408.15,296Z" style="fill:#FF725E"></path><path d="M368.49,260.27a9.21,9.21,0,0,0-6.05,7,89.12,89.12,0,0,1-4.87,15.66l10.85,5.55Z" style="fill:#FF725E"></path><path d="M367.57,268.47a26.78,26.78,0,0,1-.44,3.33c-.3,2-.64,4.88-.83,8s-.17,6-.11,8.07a29.73,29.73,0,0,1,.05,3.35,2.83,2.83,0,0,1-.18-.89c-.08-.58-.16-1.41-.24-2.45a63.75,63.75,0,0,1,.95-16.16c.19-1,.38-1.84.53-2.41A3.19,3.19,0,0,1,367.57,268.47Z" style="fill:#263238"></path><path d="M411.46,301.09a9.39,9.39,0,0,1-.37-1.58c-.19-1-.45-2.51-.75-4.35-.57-3.76-1.34-8.81-2.19-14.38-.21-1.4-.52-2.75-.69-4.1a19.85,19.85,0,0,1-.15-3.9,10.3,10.3,0,0,1,2.33-6.14,8.31,8.31,0,0,1,3.71-2.42,7.1,7.1,0,0,1,1.19-.26c.27,0,.42,0,.42,0s-.57.11-1.54.46a8.51,8.51,0,0,0-3.5,2.47,10,10,0,0,0-2.13,5.93,20.68,20.68,0,0,0,.17,3.81c.17,1.31.49,2.66.7,4.08.89,5.62,1.54,10.72,2,14.41.24,1.78.43,3.25.58,4.37A9.47,9.47,0,0,1,411.46,301.09Z" style="fill:#263238"></path><path d="M367.44,423.66s1,4.31.36,7.24a8.42,8.42,0,0,1-4.41,6.1c-2.33,1.22-7.75,1.62-9.78,3.28-1.73,1.41-2.08,2.85-1.1,4.94,0,0,2.42,4.35,11.08,2.6s11.29-3.25,15.77-3.74c5.5-.6,5.66-2.15,5.66-2.15s2.58-.94.58-8.36c-.85-3.14-.29-7.25,0-8.95a1.06,1.06,0,0,0-.69-1.2c-1.86-.63-7.55-1.25-10.63-1.43C373.47,422,367.37,421.82,367.44,423.66Z" style="fill:#FF725E"></path><path d="M364.86,453.16a4.53,4.53,0,1,1-4.8-4.25A4.53,4.53,0,0,1,364.86,453.16Z" style="fill:#263238"></path><path d="M362.17,453.23a1.81,1.81,0,1,1-1.92-1.7A1.83,1.83,0,0,1,362.17,453.23Z" style="fill:#e0e0e0"></path><path d="M362.17,453.23s-.05-.15-.16-.41a1.78,1.78,0,0,0-.72-.86,1.7,1.7,0,0,0-1.58-.11,1.63,1.63,0,0,0,.19,3,1.67,1.67,0,0,0,1.55-.29,1.83,1.83,0,0,0,.61-.94,2.3,2.3,0,0,1,.11-.44s.08.16.05.46a1.85,1.85,0,0,1-.58,1.14,2,2,0,0,1-1.85.43,2,2,0,0,1-.23-3.75,2,2,0,0,1,1.89.21,1.8,1.8,0,0,1,.71,1C362.23,453.07,362.19,453.23,362.17,453.23Z" style="fill:#455a64"></path><path d="M359.94,454.08c-.1-.05,0-.46.29-.89s.62-.69.71-.62-.1.43-.37.84S360,454.13,359.94,454.08Z" style="fill:#263238"></path><path d="M361.3,454c-.07.09-.51-.13-1-.48s-.81-.72-.74-.81.51.12,1,.48S361.37,453.88,361.3,454Z" style="fill:#263238"></path><path d="M385,449.84l.1-1.59h0l.37-5.45L377.34,444l.45,3.4L352,447.23l.11,2.16-1.93,3.44a4.06,4.06,0,0,0,2.71,2.06c2.39.51,3.12-.11,3.12-.11l.53-5.09c6.24.08,17.15.2,19.65.15C379.75,449.77,385,449.84,385,449.84Z" style="fill:#e0e0e0"></path><path d="M385,449.84a5,5,0,0,1-.52,0l-1.54,0L377,450l-20.48-.08.19-.17c-.17,1.61-.35,3.33-.53,5.09v.09l-.06,0a3,3,0,0,1-1.7.36,9.56,9.56,0,0,1-1.68-.23,4.21,4.21,0,0,1-2.75-2.14l0-.09.05-.1c.62-1.09,1.27-2.26,1.93-3.44l0,.11c0-.38-.05-.79-.07-1.2s0-.64-.05-1V447H352l25.8.2-.16.19c-.16-1.19-.3-2.32-.45-3.41l0-.15.15,0,8.09-1.15.13,0v.13c-.17,2.23-.3,4-.4,5.21l-.12,1.38c0,.3-.05.46-.05.45a3,3,0,0,1,0-.48c0-.34,0-.78.06-1.36.07-1.22.17-3,.3-5.21l.12.11-8.08,1.24.13-.17c.14,1.08.3,2.21.46,3.4l0,.19h-.19L352,447.43l.2-.21c0,.31,0,.63.05.95s0,.83.06,1.2v.07l0,.05-1.93,3.44v-.19a3.81,3.81,0,0,0,2.49,1.93,8.69,8.69,0,0,0,1.59.22,2.88,2.88,0,0,0,1.45-.26l-.07.13c.19-1.76.37-3.47.54-5.09l0-.17h.17l20.46.23,5.82.06,1.57,0,.41,0Z" style="fill:#263238"></path><path d="M361.38,440.55c-.11,0-.4-.55-.82-1.2s-.82-1.17-.74-1.25.63.32,1.08,1S361.48,440.52,361.38,440.55Z" style="fill:#FF725E"></path><circle cx="379.69" cy="453.12" r="4.53" transform="translate(-178.66 258.89) rotate(-30.86)" style="fill:#263238"></circle><path d="M381.53,452.92a1.81,1.81,0,1,1-1.92-1.7A1.81,1.81,0,0,1,381.53,452.92Z" style="fill:#e0e0e0"></path><path d="M381.53,452.92s-.06-.16-.16-.42a1.81,1.81,0,0,0-.73-.86,1.68,1.68,0,0,0-1.57-.1,1.64,1.64,0,0,0-1,1.59,1.67,1.67,0,0,0,1.15,1.46,1.7,1.7,0,0,0,1.55-.3,1.83,1.83,0,0,0,.61-.94c.07-.27.07-.43.11-.43s.07.15.05.46a1.8,1.8,0,0,1-.59,1.13,2,2,0,0,1-1.84.44,2,2,0,0,1-.23-3.76,2,2,0,0,1,1.88.21,1.78,1.78,0,0,1,.72,1.05C381.58,452.75,381.55,452.92,381.53,452.92Z" style="fill:#455a64"></path><path d="M379.3,453.76c-.1-.05,0-.46.29-.89s.62-.69.7-.62-.09.43-.36.84S379.4,453.81,379.3,453.76Z" style="fill:#263238"></path><path d="M380.66,453.65c-.07.09-.51-.13-1-.48s-.81-.72-.74-.81.5.13,1,.48S380.73,453.56,380.66,453.65Z" style="fill:#263238"></path><path d="M382.16,452.54c-.06,0-.12-.24-.29-.57a2.72,2.72,0,0,0-1-1,2.6,2.6,0,0,0-1.38-.31c-.38,0-.62.08-.64,0s.18-.22.6-.32a2.29,2.29,0,0,1,2.66,1.53C382.26,452.27,382.21,452.53,382.16,452.54Z" style="fill:#455a64"></path><path d="M382,450.64c-.08.09-.42-.1-.83-.3s-.75-.37-.73-.48.45-.12.92.12S382,450.56,382,450.64Z" style="fill:#455a64"></path><path d="M385.11,441.86a35.72,35.72,0,0,0-8.07,1.27c-2.61.9-5.15,1.92-7.82,2.62a50.8,50.8,0,0,1-8,1.42c-2.64.25-5.81-.05-8-1.86-1.15-1-2.41,1-1.25,1.95a11.08,11.08,0,0,0,8,2.45,47.41,47.41,0,0,0,8.52-1.29,62.42,62.42,0,0,0,8.17-2.58c2.76-1.07,5.61-1.23,8.49-1.54,1.48-.15,1.44-2.6-.06-2.44Z" style="fill:#e0e0e0"></path><path d="M385.11,441.86a.89.89,0,0,1,.74.14,1.15,1.15,0,0,1,.45.84,1.46,1.46,0,0,1-.44,1.25,1.34,1.34,0,0,1-.73.31l-.81.09-1.85.21a26.19,26.19,0,0,0-4.45.84c-.81.22-1.62.57-2.5.9s-1.78.65-2.73,1a56.78,56.78,0,0,1-6.16,1.62,42.27,42.27,0,0,1-6.95.9,11.37,11.37,0,0,1-7.16-2,6.26,6.26,0,0,1-.77-.63,1.47,1.47,0,0,1-.38-1,1.56,1.56,0,0,1,.46-1,1.12,1.12,0,0,1,1.05-.32,1.38,1.38,0,0,1,.48.25l.36.28a7,7,0,0,0,.76.49,8.44,8.44,0,0,0,1.65.68,16.07,16.07,0,0,0,6.82.21,53.32,53.32,0,0,0,6.2-1.19c1.92-.5,3.67-1.12,5.27-1.69a34.11,34.11,0,0,1,4.37-1.38,26.83,26.83,0,0,1,3.41-.47l2.16-.17.56,0h.19l-.19,0-.56.07-2.15.24a30,30,0,0,0-3.38.54,36.22,36.22,0,0,0-4.33,1.43c-1.6.59-3.35,1.23-5.28,1.74a51.4,51.4,0,0,1-6.24,1.24,16.27,16.27,0,0,1-7-.2,8,8,0,0,1-1.72-.71,5.68,5.68,0,0,1-.8-.51l-.38-.29a1.11,1.11,0,0,0-.34-.18c-.49-.13-1,.4-1,1a1,1,0,0,0,.27.75,4.68,4.68,0,0,0,.72.58,11,11,0,0,0,6.93,1.95,41.84,41.84,0,0,0,6.89-.87,56.36,56.36,0,0,0,6.13-1.58q1.43-.45,2.73-.93c.87-.31,1.7-.66,2.53-.88a25.5,25.5,0,0,1,4.49-.79l1.86-.17c.56-.08,1.11,0,1.46-.33a1.33,1.33,0,0,0,.42-1.12,1.08,1.08,0,0,0-.39-.78A1.36,1.36,0,0,0,385.11,441.86Z" style="fill:#263238"></path><path d="M363.47,440c-.11.05-.49-.57-1-1.31s-1-1.31-.88-1.39.68.4,1.21,1.16S363.57,440,363.47,440Z" style="fill:#263238"></path><path d="M367.43,437.69c-.1.06-.56-.55-1.25-1.16s-1.36-1-1.32-1.08.84.12,1.59.78S367.52,437.65,367.43,437.69Z" style="fill:#263238"></path><path d="M370.71,433.31s0,0,0,0,.05,0,.07,0,0,.11-.07.1a.18.18,0,0,1-.11,0l-.33-.24a6.9,6.9,0,0,0-1.11-.66c-.91-.43-1.76-.48-1.76-.6a2.35,2.35,0,0,1,1.93.23,3.57,3.57,0,0,1,1.14.82,1.79,1.79,0,0,1,.25.34s0,0,0,.05h0v0h0S370.73,433.31,370.71,433.31Z" style="fill:#263238"></path><path d="M372,428.64c0,.11-.88-.12-1.94-.12s-1.89.23-1.93.12a2.72,2.72,0,0,1,1.93-.53A2.82,2.82,0,0,1,372,428.64Z" style="fill:#263238"></path><path d="M368.16,428.16a4.1,4.1,0,0,1-1.91-.15,6.7,6.7,0,0,1-1.92-.85,6.89,6.89,0,0,1-1-.77,1.47,1.47,0,0,1-.43-.6.62.62,0,0,1,0-.48.83.83,0,0,1,.35-.3,1.36,1.36,0,0,1,.77,0l.64.14a7.8,7.8,0,0,1,1.19.36,4.25,4.25,0,0,1,1.75,1.18,2.93,2.93,0,0,1,.65,1.27c.06.34,0,.53,0,.53a3.71,3.71,0,0,0-.86-1.61,4.29,4.29,0,0,0-1.68-1,7.27,7.27,0,0,0-1.14-.32,2.75,2.75,0,0,0-1.16-.13c-.15.07-.2.16-.16.29a1.14,1.14,0,0,0,.32.42,7,7,0,0,0,.91.75,7.24,7.24,0,0,0,1.8.88C367.43,428.09,368.17,428.08,368.16,428.16Z" style="fill:#263238"></path><path d="M368.34,428.23a6.8,6.8,0,0,1-.07-2.05,7.38,7.38,0,0,1,.47-2.21,4.88,4.88,0,0,1,.67-1.19,1.88,1.88,0,0,1,.56-.52.89.89,0,0,1,.88,0,1,1,0,0,1,.47.73,1.77,1.77,0,0,1-.07.77c-.14.45-.28.86-.44,1.25a10.3,10.3,0,0,1-1,2,4.55,4.55,0,0,1-1.39,1.52c-.05-.05.52-.59,1.15-1.67a12.77,12.77,0,0,0,.92-2c.14-.39.28-.81.4-1.23s.1-.86-.21-1-.68.13-.93.46a4.75,4.75,0,0,0-.63,1.08,7.7,7.7,0,0,0-.53,2.1A19.42,19.42,0,0,1,368.34,428.23Z" style="fill:#263238"></path><path d="M384.34,432.74c0,.07-.86.13-2.15.6a9.91,9.91,0,0,0-6.5,7.85c-.23,1.36-.13,2.23-.2,2.23a1.61,1.61,0,0,1-.11-.6,7.86,7.86,0,0,1,0-1.67,9.56,9.56,0,0,1,6.7-8.08,7.5,7.5,0,0,1,1.63-.33C384.12,432.7,384.34,432.71,384.34,432.74Z" style="fill:#263238"></path><path d="M395.34,425.52l-1.68-12.41h18.82c-.4,2.16-1.3,14-1.3,14Z" style="fill:#e0e0e0"></path><path d="M410.86,417.54H395.29a3,3,0,0,1-3-3h0a3,3,0,0,1,3-3h15.57a3,3,0,0,1,3,3h0A3,3,0,0,1,410.86,417.54Z" style="fill:#e0e0e0"></path><path d="M412.53,417.18a80.32,80.32,0,0,1-9.23.26,80.21,80.21,0,0,1-9.22-.26,83,83,0,0,1,9.22-.26A83.15,83.15,0,0,1,412.53,417.18Z" style="fill:#263238"></path><path d="M394.26,424.24s1,4.31.36,7.24a8.43,8.43,0,0,1-4.42,6.1c-2.33,1.22-7.75,1.61-9.78,3.28-1.73,1.41-2.07,2.85-1.09,4.94,0,0,2.41,4.35,11.08,2.6s11.29-3.25,15.76-3.74c5.5-.6,5.67-2.16,5.67-2.16s2.58-.94.57-8.35c-.84-3.14-.29-7.25,0-8.95a1.09,1.09,0,0,0-.7-1.21c-1.85-.62-7.55-1.25-10.62-1.42C400.29,422.52,394.19,422.4,394.26,424.24Z" style="fill:#FF725E"></path><path d="M391.67,453.74a4.53,4.53,0,1,1-4.8-4.25A4.54,4.54,0,0,1,391.67,453.74Z" style="fill:#263238"></path><path d="M389,453.81a1.81,1.81,0,1,1-1.92-1.7A1.81,1.81,0,0,1,389,453.81Z" style="fill:#e0e0e0"></path><path d="M389,453.81s-.05-.15-.15-.41a1.87,1.87,0,0,0-.73-.86,1.68,1.68,0,0,0-1.57-.11,1.64,1.64,0,0,0,.18,3.05,1.67,1.67,0,0,0,1.55-.29,1.78,1.78,0,0,0,.62-.95c.07-.26.07-.43.1-.43s.08.16,0,.46a1.81,1.81,0,0,1-.58,1.13,1.92,1.92,0,0,1-1.84.44,2,2,0,0,1-.23-3.75,1.94,1.94,0,0,1,1.88.21,1.83,1.83,0,0,1,.72,1.05C389,453.65,389,453.81,389,453.81Z" style="fill:#455a64"></path><path d="M386.76,454.66c-.1-.05,0-.47.29-.89s.61-.69.7-.62-.1.43-.36.84S386.86,454.71,386.76,454.66Z" style="fill:#263238"></path><path d="M388.11,454.55c-.06.09-.5-.13-1-.49s-.81-.71-.74-.8.51.12,1,.48S388.18,454.46,388.11,454.55Z" style="fill:#263238"></path><path d="M411.77,450.42l.11-1.59h0l.36-5.46-8.09,1.2.46,3.4-25.8-.16.12,2.16L377,453.41a4,4,0,0,0,2.7,2.06c2.39.51,3.13-.11,3.13-.11l.53-5.09c6.23.08,17.14.2,19.65.15C406.57,450.35,411.77,450.42,411.77,450.42Z" style="fill:#e0e0e0"></path><path d="M411.77,450.42l-.52,0-1.54,0-5.87.07-20.49-.08.19-.17c-.17,1.61-.34,3.33-.52,5.09v.09l-.06,0a3,3,0,0,1-1.71.35,8.59,8.59,0,0,1-1.67-.22,4.19,4.19,0,0,1-2.75-2.15l-.05-.08.06-.1c.61-1.1,1.26-2.26,1.93-3.44l0,.11c0-.38,0-.79-.06-1.2s0-.64-.05-1l0-.22h.22l25.79.2-.16.18c-.15-1.18-.3-2.31-.44-3.4l0-.15.14,0,8.1-1.15.12,0v.13c-.17,2.23-.3,4-.39,5.21-.05.58-.1,1-.13,1.38a3.88,3.88,0,0,1-.05.45,4.56,4.56,0,0,1,0-.49c0-.33,0-.77.06-1.35.07-1.22.17-3,.3-5.21l.11.11-8.08,1.24.13-.17c.15,1.08.3,2.21.47,3.39l0,.19h-.18l-25.8-.12.2-.21c0,.31,0,.63.05.95s0,.82.06,1.2V450l0,.06-1.94,3.44v-.19a3.86,3.86,0,0,0,2.49,1.93,8.79,8.79,0,0,0,1.6.22,2.88,2.88,0,0,0,1.45-.26l-.07.13c.18-1.76.37-3.48.54-5.09v-.17h.17l20.46.23,5.83.06,1.57,0,.4,0Z" style="fill:#263238"></path><path d="M411,453.42a4.53,4.53,0,1,1-4.8-4.25A4.53,4.53,0,0,1,411,453.42Z" style="fill:#263238"></path><path d="M408.34,453.5a1.81,1.81,0,1,1-1.92-1.7A1.81,1.81,0,0,1,408.34,453.5Z" style="fill:#e0e0e0"></path><path d="M408.34,453.5s0-.16-.16-.42a1.78,1.78,0,0,0-.72-.86,1.68,1.68,0,0,0-1.57-.1,1.62,1.62,0,0,0,.18,3,1.67,1.67,0,0,0,1.55-.29,1.77,1.77,0,0,0,.61-.94c.08-.27.08-.43.11-.43s.08.15.05.46a1.85,1.85,0,0,1-.58,1.13,2,2,0,0,1-1.84.43,2,2,0,0,1-1.45-1.79,2,2,0,0,1,1.22-2,1.94,1.94,0,0,1,1.88.21,1.8,1.8,0,0,1,.71,1C408.4,453.33,408.36,453.5,408.34,453.5Z" style="fill:#455a64"></path><path d="M406.12,454.34c-.1,0,0-.46.28-.89s.62-.69.71-.62-.1.43-.37.84S406.22,454.39,406.12,454.34Z" style="fill:#263238"></path><path d="M407.47,454.23c-.07.09-.51-.13-1-.48s-.81-.72-.74-.81.51.12,1,.48S407.54,454.14,407.47,454.23Z" style="fill:#263238"></path><path d="M409,453.11c-.07,0-.12-.23-.3-.56a2.61,2.61,0,0,0-1-1,2.78,2.78,0,0,0-1.39-.32c-.37,0-.61.09-.64,0s.19-.22.6-.32a2.33,2.33,0,0,1,1.63.25,2.35,2.35,0,0,1,1,1.28C409.07,452.85,409,453.11,409,453.11Z" style="fill:#455a64"></path><path d="M408.76,451.22c-.08.08-.41-.1-.82-.3s-.76-.37-.74-.48.46-.12.92.12S408.84,451.14,408.76,451.22Z" style="fill:#455a64"></path><path d="M411.93,442.44a36.09,36.09,0,0,0-8.07,1.26c-2.61.91-5.15,1.93-7.82,2.63a51,51,0,0,1-8,1.42c-2.65.25-5.81-.05-8-1.86-1.14-1-2.4,1-1.25,1.95a11.1,11.1,0,0,0,8,2.45,47.32,47.32,0,0,0,8.51-1.3,59.1,59.1,0,0,0,8.17-2.58c2.77-1.06,5.61-1.22,8.5-1.53,1.48-.15,1.43-2.6-.06-2.44Z" style="fill:#e0e0e0"></path><path d="M411.93,442.44a.86.86,0,0,1,.73.14,1.15,1.15,0,0,1,.46.83,1.47,1.47,0,0,1-.44,1.26,1.49,1.49,0,0,1-.73.31l-.82.09-1.85.2a28.53,28.53,0,0,0-4.45.84c-.8.23-1.62.58-2.5.91s-1.78.65-2.73,1a56.78,56.78,0,0,1-6.16,1.62,42.14,42.14,0,0,1-6.94.9,11.41,11.41,0,0,1-7.16-2,6.33,6.33,0,0,1-.78-.63,1.44,1.44,0,0,1-.37-1.06,1.51,1.51,0,0,1,.46-1,1.09,1.09,0,0,1,1-.32,1.38,1.38,0,0,1,.48.25l.37.28a5.41,5.41,0,0,0,.76.48,8.39,8.39,0,0,0,1.64.69,16.07,16.07,0,0,0,6.82.21,53.27,53.27,0,0,0,6.2-1.2c1.92-.49,3.67-1.11,5.27-1.68a34.38,34.38,0,0,1,4.38-1.39,31.21,31.21,0,0,1,3.4-.47l2.16-.16.56,0h.2l-.19,0-.56.07-2.16.24a29.88,29.88,0,0,0-3.37.54,36.33,36.33,0,0,0-4.34,1.43c-1.59.59-3.35,1.23-5.28,1.74a51.62,51.62,0,0,1-6.23,1.24,16.31,16.31,0,0,1-7-.2,8.55,8.55,0,0,1-1.72-.71,7.68,7.68,0,0,1-.8-.51l-.37-.29a1.29,1.29,0,0,0-.35-.18c-.48-.13-1,.4-1,1a1.07,1.07,0,0,0,.27.75,5.36,5.36,0,0,0,.72.58,11.07,11.07,0,0,0,6.94,2,41.72,41.72,0,0,0,6.88-.87,56.56,56.56,0,0,0,6.14-1.58c.94-.3,1.85-.61,2.72-.93s1.7-.66,2.53-.88a25.6,25.6,0,0,1,4.5-.79l1.85-.17c.57-.08,1.12,0,1.46-.33a1.3,1.3,0,0,0,.42-1.12,1.08,1.08,0,0,0-.38-.78A1.24,1.24,0,0,0,411.93,442.44Z" style="fill:#263238"></path><path d="M390.28,440.57c-.1.05-.49-.58-1-1.31s-1-1.31-.88-1.39.68.39,1.21,1.16S390.38,440.53,390.28,440.57Z" style="fill:#263238"></path><path d="M394.24,438.27c-.1.06-.55-.55-1.25-1.16s-1.36-1-1.31-1.08.83.12,1.58.78S394.34,438.23,394.24,438.27Z" style="fill:#263238"></path><path d="M397.52,433.89s0,0,0,0a0,0,0,0,1,.06,0s0,.12-.07.11a.19.19,0,0,1-.1,0l-.33-.24a7.38,7.38,0,0,0-1.11-.66c-.92-.43-1.76-.48-1.76-.6a2.35,2.35,0,0,1,1.93.23,3.51,3.51,0,0,1,1.13.82,1.79,1.79,0,0,1,.25.34s0,0,0,.05h0v0h0S397.55,433.89,397.52,433.89Z" style="fill:#263238"></path><path d="M398.77,429.22c0,.11-.88-.12-1.93-.12s-1.9.23-1.94.11a2.85,2.85,0,0,1,1.94-.52A2.78,2.78,0,0,1,398.77,429.22Z" style="fill:#263238"></path><path d="M395,428.73a3.85,3.85,0,0,1-1.91-.14,6.7,6.7,0,0,1-1.92-.85,7,7,0,0,1-1-.77,1.47,1.47,0,0,1-.43-.6.62.62,0,0,1,0-.48.73.73,0,0,1,.35-.3,1.36,1.36,0,0,1,.77,0l.63.14a8.27,8.27,0,0,1,1.19.35,4.37,4.37,0,0,1,1.75,1.19,2.78,2.78,0,0,1,.65,1.27c.06.34,0,.52,0,.52a3.87,3.87,0,0,0-.87-1.6,4.24,4.24,0,0,0-1.67-1,7.72,7.72,0,0,0-1.15-.32,2.74,2.74,0,0,0-1.16-.13.23.23,0,0,0-.16.28,1.09,1.09,0,0,0,.32.43,7.86,7.86,0,0,0,.91.75,7.42,7.42,0,0,0,1.8.88C394.24,428.67,395,428.66,395,428.73Z" style="fill:#263238"></path><path d="M395.15,428.81a7.53,7.53,0,0,1-.06-2.05,7.2,7.2,0,0,1,.47-2.22,5,5,0,0,1,.66-1.18,2,2,0,0,1,.57-.52.87.87,0,0,1,.87,0,1,1,0,0,1,.48.73,1.7,1.7,0,0,1-.08.76,12.34,12.34,0,0,1-.44,1.26,11.24,11.24,0,0,1-1,2,4.77,4.77,0,0,1-1.4,1.52c0-.05.53-.59,1.15-1.67a12.77,12.77,0,0,0,.92-2c.15-.39.29-.81.41-1.23a.89.89,0,0,0-.21-1c-.28-.17-.69.13-.93.45a5.09,5.09,0,0,0-.64,1.09,8.12,8.12,0,0,0-.53,2.09A16.52,16.52,0,0,1,395.15,428.81Z" style="fill:#263238"></path><path d="M411.16,433.32c0,.07-.86.13-2.16.6a10.33,10.33,0,0,0-4.33,3,10.16,10.16,0,0,0-2.17,4.82c-.22,1.36-.12,2.23-.2,2.23a1.91,1.91,0,0,1-.11-.6,8,8,0,0,1,0-1.67,9.57,9.57,0,0,1,6.69-8.08,8.46,8.46,0,0,1,1.63-.34C410.94,433.28,411.16,433.29,411.16,433.32Z" style="fill:#263238"></path><path d="M389,438.19a4.38,4.38,0,0,1-2,.75c-1.29.3-3.18.25-5,1a4.8,4.8,0,0,0-2.87,3.7,10.43,10.43,0,0,0,0,2.09,3.22,3.22,0,0,1-.39-2.13,4.86,4.86,0,0,1,.78-2.26,5,5,0,0,1,2.25-1.88,9.3,9.3,0,0,1,2.82-.65c.87-.09,1.65-.14,2.29-.22C388.22,438.43,389,438.11,389,438.19Z" style="fill:#263238"></path><path d="M391.3,281.83A5.17,5.17,0,0,0,390,279a5,5,0,0,0-2.55-1.66,4,4,0,0,0-4.47,2,4,4,0,0,0-4.29-2,4.91,4.91,0,0,0-2.63,1.53,5.1,5.1,0,0,0-1.4,2.78,6.34,6.34,0,0,0,.69,3.9,9,9,0,0,0,3,2.95c2,1.26,4.59,2.84,4.59,2.84s2.27-1.62,4.31-2.78a8.93,8.93,0,0,0,3.14-2.81A6.33,6.33,0,0,0,391.3,281.83Z" style="fill:#fff"></path></g><g id="freepik--character-1--inject-211"><path d="M122.08,202.29a24.43,24.43,0,0,0-12.18-13.21l.44-.38a10.22,10.22,0,0,0-11.73,7.38,33.81,33.81,0,0,0-.37,6.29,8.82,8.82,0,0,1-2,5.84c-.79.8-1.8,1.34-2.63,2.1a3.17,3.17,0,0,0-1.19,3c.38,1.39,2,2,3.48,2s2.94-.3,4.28.22a4.49,4.49,0,1,0,6.53,6.15,5.44,5.44,0,0,0,3.53,6,7.83,7.83,0,0,0,7.15-1.29,14.26,14.26,0,0,0,4.39-6A24.46,24.46,0,0,0,122.08,202.29Z" style="fill:#263238"></path><path d="M152.5,185.9a4.53,4.53,0,0,0-3.95-2.89,13.38,13.38,0,0,0-5.11.74,17.28,17.28,0,0,0,.06-6.87c-.6-2.23-2.34-4.32-4.64-4.57-2-.22-3.84.93-5.32,2.27s-2.75,2.92-4.48,3.9c-4.49,2.56-10.28.29-15.25,1.71s-9,7.75-7.83,12.93c8.76,2.54,17.6,5.1,25.58,9.51,4.31,2.38,9,5.4,13.77,4.22a8.54,8.54,0,0,0,3.8-14.55C151.08,190.64,153.23,188.35,152.5,185.9Z" style="fill:#263238"></path><path d="M145,198.41c-1.08-6.81-9.11-12.94-15.86-11.57l-21.71,6.31.42,3.67,5.7,45.46h0s3.29,14.53,15.62,12.51c11.08-1.81,9.35-13.53,9.35-13.54l-1.16-8.56s9-1.22,9.7-12.8C147.44,214.13,146.22,206,145,198.41Z" style="fill:#ffbf9d"></path><path d="M141.33,208.68a1.47,1.47,0,0,1-1.27,1.61,1.4,1.4,0,0,1-1.63-1.17,1.47,1.47,0,0,1,1.27-1.61A1.4,1.4,0,0,1,141.33,208.68Z" style="fill:#263238"></path><path d="M143.58,204.67c-.16.2-1.35-.51-2.92-.36s-2.65,1.05-2.84.88.06-.44.53-.86a4,4,0,0,1,2.25-.93,3.82,3.82,0,0,1,2.35.52C143.47,204.24,143.66,204.57,143.58,204.67Z" style="fill:#263238"></path><path d="M128.33,209.42a1.47,1.47,0,0,1-1.28,1.61,1.4,1.4,0,0,1-1.63-1.17,1.47,1.47,0,0,1,1.27-1.61A1.41,1.41,0,0,1,128.33,209.42Z" style="fill:#263238"></path><path d="M129.12,206.29c-.16.21-1.35-.51-2.92-.36s-2.66,1-2.85.88.06-.44.53-.86a4,4,0,0,1,2.25-.93,3.81,3.81,0,0,1,2.35.52C129,205.86,129.2,206.19,129.12,206.29Z" style="fill:#263238"></path><path d="M134.8,216.26a14.17,14.17,0,0,1,2.52-.62c.4-.08.78-.18.83-.4s-.12-.55-.34-.89l-1.38-2.23a62.25,62.25,0,0,1-3.17-5.9c.17-.07,1.87,2.46,3.79,5.65.46.79.91,1.54,1.33,2.25a1.46,1.46,0,0,1,.31,1.2,1,1,0,0,1-.63.52,3.29,3.29,0,0,1-.67.15A13.26,13.26,0,0,1,134.8,216.26Z" style="fill:#263238"></path><path d="M137.46,232.75a29.23,29.23,0,0,1-15.67-2.62s4.66,7.59,16,5.44Z" style="fill:#ff9a6c"></path><path d="M128.1,201.08c-.14.51-1.53.27-3.16.54s-2.94.87-3.16.42c-.1-.22.13-.69.66-1.18a4.5,4.5,0,0,1,2.34-1.1,4,4,0,0,1,2.47.37C127.85,200.45,128.16,200.85,128.1,201.08Z" style="fill:#263238"></path><path d="M143.12,199.25c-.22.47-1.42.22-2.78.43s-2.45.71-2.79.32c-.16-.2-.05-.65.39-1.13a3.6,3.6,0,0,1,2.14-1.07,3.64,3.64,0,0,1,2.35.47C143,198.62,143.21,199,143.12,199.25Z" style="fill:#263238"></path><path d="M143.42,192a16.67,16.67,0,0,0-10.95-6.87,27.58,27.58,0,0,0-13.11,1.14,81.48,81.48,0,0,0-12.18,5.28,3.29,3.29,0,0,0-2.44,4.21L107.35,214l2,3.61c2-.15,3.53-1.75,4.69-3.36a27.39,27.39,0,0,0,4.8-19.74,8.76,8.76,0,0,1,1.32,2.56,3.06,3.06,0,0,0,2,1.94c1.59.28,2.73-1.59,2.83-3.2s-.32-3.31.34-4.78a18.37,18.37,0,0,0,6.55,5c1.19.54,2.74.9,3.69,0a2.5,2.5,0,0,0,.46-2.59,7.24,7.24,0,0,0-1.53-2.29,14.61,14.61,0,0,0,7.43,3.6,2,2,0,0,0,1.75-.3C144.29,193.86,143.91,192.78,143.42,192Z" style="fill:#263238"></path><path d="M111.47,209.44c-.18-.06-7.21-1.35-6.28,5.58s7.71,4.57,7.69,4.37S111.47,209.44,111.47,209.44Z" style="fill:#ffbf9d"></path><path d="M110.41,217.05s-.11.1-.3.22a1.19,1.19,0,0,1-.9.14,3,3,0,0,1-1.75-2.49,4,4,0,0,1,.11-1.78,1.38,1.38,0,0,1,.78-1,.62.62,0,0,1,.76.23c.12.19.1.33.13.34s.14-.14,0-.42a.79.79,0,0,0-.33-.4.94.94,0,0,0-.69-.08,1.7,1.7,0,0,0-1.12,1.24,4.24,4.24,0,0,0-.16,2c.24,1.4,1.13,2.61,2.17,2.76a1.33,1.33,0,0,0,1.08-.33C110.42,217.22,110.44,217.06,110.41,217.05Z" style="fill:#ff9a6c"></path><path d="M117.31,193.84a2,2,0,0,1-.1.42c-.08.27-.21.67-.41,1.17a22.45,22.45,0,0,1-2.06,4.09,23.63,23.63,0,0,1-1.88,2.55c-.38.43-.76.87-1.2,1.3a3.4,3.4,0,0,1-1.67,1,2.08,2.08,0,0,1-1.91-.69,3.89,3.89,0,0,1-.92-1.9c-.23-1.46.27-2.88.28-4.3,0-.19,0-.38,0-.55l.33.09-2.52,3.36-1.2,1.59a3.87,3.87,0,0,1-1.46,1.32,1.38,1.38,0,0,1-1,0,1.61,1.61,0,0,1-.75-.63,4.08,4.08,0,0,1-.58-1.66,11.7,11.7,0,0,1-.16-3.08,12.12,12.12,0,0,1,1.12-4.3,9.08,9.08,0,0,1,.57-1.06,1.81,1.81,0,0,1,.24-.34s-.28.5-.69,1.46a12.89,12.89,0,0,0-1,4.25,12.26,12.26,0,0,0,.21,3,3.79,3.79,0,0,0,.54,1.53,1.11,1.11,0,0,0,1.38.48,3.5,3.5,0,0,0,1.32-1.23l1.19-1.59,2.5-3.35.29-.4,0,.48a5.68,5.68,0,0,1,0,.59c0,1.5-.5,2.91-.29,4.23a3.45,3.45,0,0,0,.82,1.73,1.75,1.75,0,0,0,1.6.6,3.12,3.12,0,0,0,1.5-.88c.42-.41.82-.85,1.19-1.26a23.82,23.82,0,0,0,1.89-2.5,24.15,24.15,0,0,0,2.15-4c.21-.49.37-.88.47-1.15A1.79,1.79,0,0,1,117.31,193.84Z" style="fill:#455a64"></path><path d="M130.3,217.94a6.22,6.22,0,0,0-.34,3.22,2.65,2.65,0,0,0,1.72,1.93,2.94,2.94,0,0,0,2.7-.79,8.5,8.5,0,0,0,1.68-2.4C134.29,219.28,132.07,218.57,130.3,217.94Z" style="fill:#ff9a6c"></path><path d="M133.69,223.32a2.58,2.58,0,0,1-2.09-.14,3.47,3.47,0,0,1-1.72-1.57,3.67,3.67,0,0,1-.2-2.85,3.27,3.27,0,0,1,.59-1.07l.09-.12.14,0a25.33,25.33,0,0,1,4,1.43,6,6,0,0,1,1.49.85c-.06.11-2.36-1-5.6-1.85l.23-.07a3,3,0,0,0-.51.94,3.21,3.21,0,0,0,1.62,4A5.2,5.2,0,0,0,133.69,223.32Z" style="fill:#263238"></path><polygon points="101.75 349.96 98.47 414 114.14 436.9 128.59 355.44 101.75 349.96" style="fill:#ffbf9d"></polygon><path d="M156.38,350l-1.6,91.9s-17.65-3.75-17.33-2.69c.57,1.87-3.74-22.37-5.36-40.15-.51-5.59-.72-14.72-.72-14.72L129,346.06Z" style="fill:#ffbf9d"></path><polygon points="154.78 441.58 155.2 417.08 134.21 417.3 137.81 441.2 149.06 444.71 154.78 441.58" style="fill:#e0e0e0"></polygon><path d="M154.94,440.62v1.23S173.43,450,173.64,454l-36.63.21.51-13.78C143,443.22,148.66,443.51,154.94,440.62Z" style="fill:#FF725E"></path><path d="M137,454.18l.12-3.31,35.07,1s1.63.79,1.44,2.09Z" style="fill:#e0e0e0"></path><path d="M154.67,446.81s-.13-.29-.11-.79a4.42,4.42,0,0,1,.53-1.86,3.72,3.72,0,0,1,1.22-1.37c.38-.26.66-.31.68-.26a9.2,9.2,0,0,0-1.57,1.86A11.56,11.56,0,0,0,154.67,446.81Z" style="fill:#263238"></path><path d="M152.74,446.35a4,4,0,0,1,.58-2.6c.71-1.33,1.76-1.88,1.8-1.77a21.25,21.25,0,0,0-1.46,2C153,445.18,152.86,446.37,152.74,446.35Z" style="fill:#263238"></path><path d="M157.5,447.78a3.1,3.1,0,0,1-.12-2.24c.28-1.26,1-2,1.08-1.89s-.45.87-.7,2S157.62,447.76,157.5,447.78Z" style="fill:#263238"></path><path d="M157.06,442.91s-.39-.43-.6-1.38a8.66,8.66,0,0,1-.17-1.66c0-.31,0-.64,0-1a2.19,2.19,0,0,1,0-.55.79.79,0,0,1,.38-.57.51.51,0,0,1,.64.2,1.52,1.52,0,0,1,.24.54,5.89,5.89,0,0,1,.14,1,5.74,5.74,0,0,1-.16,1.69,2.83,2.83,0,0,1-.64,1.36c-.06,0,.21-.54.37-1.43a6.13,6.13,0,0,0,.07-1.58,4.93,4.93,0,0,0-.15-.91c-.07-.3-.25-.54-.35-.45s-.2.38-.2.72,0,.65,0,1a10.94,10.94,0,0,0,.08,1.6C156.86,442.37,157.11,442.88,157.06,442.91Z" style="fill:#263238"></path><path d="M157.31,442.79s-.05.07-.19.15L157,443l0-.15a5.62,5.62,0,0,1,.66-1.58,7,7,0,0,1,.79-1c.16-.17.34-.34.52-.5a1.21,1.21,0,0,1,.37-.22.54.54,0,0,1,.5.08.64.64,0,0,1,.16.7,1.87,1.87,0,0,1-.24.47,5.24,5.24,0,0,1-.55.72,5,5,0,0,1-1.13.93,2.18,2.18,0,0,1-1.23.42c0-.07.45-.23,1.09-.69a5.48,5.48,0,0,0,1-.95,5.12,5.12,0,0,0,.48-.68c.18-.25.26-.53.18-.55s-.63.31-.92.58a7.1,7.1,0,0,0-.78,1,11.6,11.6,0,0,0-.81,1.42l-.07-.09C157.23,442.77,157.3,442.77,157.31,442.79Z" style="fill:#263238"></path><polygon points="134.84 421.52 155.17 421.61 155.07 424.31 135.3 424.52 134.84 421.52" style="fill:#f5f5f5"></polygon><polygon points="135.47 425.78 155.05 425.86 155.01 428.57 135.92 428.77 135.47 425.78" style="fill:#f5f5f5"></polygon><path d="M102.77,321.5s-1.8,4.56-2.7,15.15-3.88,43.72-3.88,43.72l31.24,2,2.47-21v21s19.38.56,28.35.11L157,335.13l-.62-13.58Z" style="fill:#455a64"></path><path d="M139.14,337.59a12.6,12.6,0,0,1-1.11,1.46,36.93,36.93,0,0,0-2.88,4.05,27.9,27.9,0,0,0-2.78,6.79,83.17,83.17,0,0,0-1.85,8.85c-1,6.35-1.66,12.15-2.16,16.34-.24,2-.44,3.71-.58,5-.08.53-.14,1-.19,1.34a1.69,1.69,0,0,1-.1.47,1.48,1.48,0,0,1,0-.48c0-.37.05-.82.08-1.35.09-1.18.23-2.89.42-5,.41-4.2,1-10,2-16.38a75.33,75.33,0,0,1,1.9-8.9,27.38,27.38,0,0,1,2.92-6.85,31.16,31.16,0,0,1,3-4l.92-1A1.83,1.83,0,0,1,139.14,337.59Z" style="fill:#263238"></path><polygon points="113.51 440.38 117.78 416.66 98.5 413.62 97.32 439.19 107.99 444.2 113.51 440.38" style="fill:#e0e0e0"></polygon><polygon points="98.28 418.28 117 420.76 116.55 423.44 98.15 421.13 98.28 418.28" style="fill:#f5f5f5"></polygon><polygon points="98.09 422.45 116.29 424.82 115.81 427.51 97.95 425.46 98.09 422.45" style="fill:#f5f5f5"></polygon><path d="M114,449.05c-.37,1.34-18.07,12.65-23,15.63a3,3,0,0,1-2.6.24h0a2.59,2.59,0,0,1-1.52-3.6l10.16-20.18a24,24,0,0,0,.07-2.91c5.16,2.46,10.73,1.61,16.69.09l0,3.45.79,5.29a9.36,9.36,0,0,1-.57,2" style="fill:#FF725E"></path><path d="M87.83,464.61a2.89,2.89,0,0,0,3.29.08c13.67-8.34,21.82-13.49,23.91-15.82l-.53-2.53Z" style="fill:#e0e0e0"></path><path d="M97.54,452.3c-.14.07-.77-1.06-2.06-1.93A21.09,21.09,0,0,0,93,449.14a4.58,4.58,0,0,1,4.59,3.16Z" style="fill:#263238"></path><path d="M99,449.66c-.14.08-.78-1.06-2.06-1.92a24.33,24.33,0,0,0-2.53-1.24A4.61,4.61,0,0,1,99,449.66Z" style="fill:#263238"></path><path d="M100.48,447a21.5,21.5,0,0,0-2-1.93,22.89,22.89,0,0,0-2.53-1.23,4.58,4.58,0,0,1,4.58,3.16Z" style="fill:#263238"></path><path d="M97.22,444a1.9,1.9,0,0,1,0-.82,7,7,0,0,1,.57-2.14,5.78,5.78,0,0,1,.82-1.36.61.61,0,0,1,.58-.19.55.55,0,0,1,.37.54,3.93,3.93,0,0,1-.16.95,7.83,7.83,0,0,1-.74,1.82,4.79,4.79,0,0,1-.62.89,1.37,1.37,0,0,1-1.16.39,7.75,7.75,0,0,1-3.68-1.74,2.12,2.12,0,0,1-.36-.37.64.64,0,0,1-.1-.64.59.59,0,0,1,.58-.3,1.3,1.3,0,0,1,.47.12,7.91,7.91,0,0,1,1.36.75,7,7,0,0,1,1.6,1.53,2.2,2.2,0,0,1,.41.7,13.55,13.55,0,0,0-2.22-1.92,7.62,7.62,0,0,0-1.31-.66c-.56-.21-.66,0-.12.42a7.52,7.52,0,0,0,3.42,1.59.81.81,0,0,0,.74-.24,4.05,4.05,0,0,0,.54-.77,8.07,8.07,0,0,0,.73-1.7,5,5,0,0,0,.17-.8c0-.11,0-.13,0-.13s-.08,0-.16.08a5.84,5.84,0,0,0-.77,1.2A12,12,0,0,0,97.22,444Z" style="fill:#263238"></path><g style="opacity:0.30000000000000004"><path d="M102.37,322.82c17.28,4.42,48.39,10.08,54.22,4Z"></path></g><path d="M147.14,241.49c.18.11,7.37.73,10.51,5.13s11.41,16.49,11.41,16.49l-16.54,7.8Z" style="fill:#e0e0e0"></path><path d="M97.67,243.41c-.58,0-5.61,2.34-9.09,5.58s-18,18-18,18L89,284.28s8.78-11.46,9.94-12,5.47-2.06,5.47-2.06,3.88-5.87,1.74-12.49S97.67,243.41,97.67,243.41Z" style="fill:#e0e0e0"></path><path d="M71.56,267.9s-7,6.66-9.1,11,.77,8.82,3.29,11.7,26.94,16.9,26.94,16.9L99,299.59,78.91,282.42l3.82-4.05Z" style="fill:#ffbf9d"></path><path d="M200.64,285a11.68,11.68,0,0,0-5.26-7.88L184.56,303.2a1.89,1.89,0,0,0,.91,2.15,3.76,3.76,0,0,0,2.56.39c2.26-.35,4-1.93,5.56-3.52a30.24,30.24,0,0,0,5.64-7.92A15.75,15.75,0,0,0,200.64,285Z" style="fill:#ffbf9d"></path><circle cx="168.3" cy="283.07" r="27.83" transform="translate(-138.24 403.42) rotate(-80.7)" style="fill:#FF725E"></circle><path d="M196.19,283.74a1.38,1.38,0,0,1-.35,1.52,6.07,6.07,0,0,1-1.43,1,5.82,5.82,0,0,0-2,1.63,2.47,2.47,0,0,0-.35,2.35,2.76,2.76,0,0,0,2.51,1.44,5,5,0,0,0,2.86-1,7.11,7.11,0,0,0,2.74-4" style="fill:#ffbf9d"></path><path d="M193.91,271.7a4.85,4.85,0,0,1-1.2.49,15.29,15.29,0,0,1-3.49.68,16.78,16.78,0,0,1-17.74-12.54,15.68,15.68,0,0,1-.53-3.51,6.32,6.32,0,0,1,.06-1.3,28.59,28.59,0,0,0,.82,4.71,16.94,16.94,0,0,0,17.36,12.27A25.9,25.9,0,0,0,193.91,271.7Z" style="fill:#fff"></path><path d="M192.62,294.87a2,2,0,0,1-.58-.07,11.91,11.91,0,0,1-1.59-.47,20.29,20.29,0,0,1-5.24-3.12c-2.05-1.55-4.27-3.71-7.23-5.28a11.86,11.86,0,0,0-5-1.39,7.26,7.26,0,0,0-5.1,1.77,9.17,9.17,0,0,0-2.84,4.68,10.67,10.67,0,0,0,0,5.15,17.37,17.37,0,0,0,4.36,7.65,42.12,42.12,0,0,0,4.49,4l1.29,1a2.17,2.17,0,0,1,.44.39,3,3,0,0,1-.5-.3c-.31-.22-.77-.53-1.35-1a36.66,36.66,0,0,1-4.64-4,17.39,17.39,0,0,1-4.56-7.79,11.14,11.14,0,0,1-.06-5.39,9.64,9.64,0,0,1,3-4.95A7.8,7.8,0,0,1,173,284a12.32,12.32,0,0,1,5.19,1.47c3,1.65,5.23,3.85,7.24,5.42a21.45,21.45,0,0,0,5.08,3.22C191.84,294.69,192.63,294.82,192.62,294.87Z" style="fill:#fff"></path><path d="M156,308a32.37,32.37,0,0,1-1.91-3c-1.16-1.87-2.81-4.42-4.81-7.12s-3.94-5-5.39-6.68a30.3,30.3,0,0,1-2.31-2.71,4.38,4.38,0,0,1,.74.62c.45.42,1.08,1.05,1.85,1.85a72.83,72.83,0,0,1,10.24,13.85c.54,1,1,1.75,1.22,2.31A3.45,3.45,0,0,1,156,308Z" style="fill:#fff"></path><path d="M166.19,255.13a1.69,1.69,0,0,1,.07.4c0,.27.08.67.08,1.19a21.56,21.56,0,0,1-.33,4.35,23.21,23.21,0,0,1-19.3,19,21.71,21.71,0,0,1-4.36.28c-.51,0-.91-.08-1.18-.1a1.42,1.42,0,0,1-.4-.07,37.87,37.87,0,0,0,5.88-.47,23.52,23.52,0,0,0,19-18.75A38.25,38.25,0,0,0,166.19,255.13Z" style="fill:#fff"></path><path d="M200.7,287.18a6.46,6.46,0,0,1-5.8,4.71,17.46,17.46,0,0,0,3.32-1.84A18,18,0,0,0,200.7,287.18Z" style="fill:#ff9a6c"></path><path d="M97.88,243.41l11.8-2.72,3-5.54,17.64,8.74,7.68-6.67,2.21,2.86,6.5,1.15s6.26,3.43,7.55,8.2,3.21,39.42,3.85,50.24,2.12,27.45,2.12,27.45l-59.75-4.47,5.69-23L95.49,271.52Z" style="fill:#e0e0e0"></path><path d="M129.87,244.3a2.08,2.08,0,0,1-.36.61c-.26.38-.66.92-1.2,1.57a38.22,38.22,0,0,1-4.8,4.84l-.15.13-.16-.12c-1-.73-2-1.5-3.12-2.29-3-2.14-5.71-4.1-7.56-5.66-.93-.77-1.65-1.44-2.14-1.91a4.93,4.93,0,0,1-.7-.78c.06-.06,1.16.94,3.07,2.41s4.63,3.38,7.63,5.52c1.11.79,2.17,1.57,3.13,2.31h-.31a48.38,48.38,0,0,0,4.87-4.66C129.2,245,129.82,244.26,129.87,244.3Z" style="fill:#263238"></path><path d="M140.48,241.23a13.71,13.71,0,0,1-.48,2.54c-.36,1.56-.9,3.71-1.52,6.09l-.08.32-.29-.15-.32-.17a37.15,37.15,0,0,1-5.54-3.47,7.62,7.62,0,0,1-1.94-1.89c.06-.06.79.66,2.16,1.59A53.94,53.94,0,0,0,138,249.4l.31.16-.37.17c.63-2.38,1.22-4.51,1.67-6A13.17,13.17,0,0,1,140.48,241.23Z" style="fill:#263238"></path><path d="M101.79,266.76c-.09-.05.68-1.27,1.38-3.46a18.05,18.05,0,0,0,.55-8.81,18.76,18.76,0,0,0-3.73-8c-1.43-1.8-2.57-2.69-2.5-2.77a3.85,3.85,0,0,1,.82.59,15.75,15.75,0,0,1,2,1.94,17.9,17.9,0,0,1,4,8.15,17.17,17.17,0,0,1-.71,9,15.29,15.29,0,0,1-1.15,2.5A3.94,3.94,0,0,1,101.79,266.76Z" style="fill:#263238"></path><g style="opacity:0.30000000000000004"><path d="M115.92,306.89a4.88,4.88,0,0,1,1.48-.16,18.53,18.53,0,0,0,3.23-.33c.76-.16,1.7-.59,1.64-1.37a1.14,1.14,0,0,0-.82-.92,3.15,3.15,0,0,0-1.3-.08,52.74,52.74,0,0,0-10.92,2.06L103,313.56a85.24,85.24,0,0,0,6.11,6.5,3.88,3.88,0,0,0,1.67,1.09,1.35,1.35,0,0,0,1.63-.81,1.78,1.78,0,0,0-.73-1.6,3.1,3.1,0,0,1-1.11-1.44l5.07,1.58a3.34,3.34,0,0,0,1.56.21,1.11,1.11,0,0,0,1-1.09,1.5,1.5,0,0,0-.36-.75l-2.3-3.21a5.11,5.11,0,0,0,4.34,1.47c.92-.18,1.88-.93,1.76-1.87s-1.13-1.4-2-1.79a15.25,15.25,0,0,1-3.79-2.44,1.88,1.88,0,0,1-.84-1.47A1.35,1.35,0,0,1,115.92,306.89Z"></path></g><path d="M98,299.14c.3.07,3.18,1.27,5.16.7s2.35-1.27,2.35-1.27l6.31,3.53s9.79-.49,10.7.71,1.45,2.75-1.14,2.75-6.45-.42-6.91.85,10.09,4.59,8.8,6.49-2.11,1.35-3.71.85-6.91-3-7.06-2.82,6.83,4.23,7.37,5.79-.46,2.33-2.81,1.41-7.83-4-7.83-4,6.38,5.94,5.32,6.92-2.81.57-4.56-1.06-5.62-5.08-5.77-5.29-5.84-2.86-7.9-4.61a33.86,33.86,0,0,0-4.86-3.29Z" style="fill:#ffbf9d"></path><path d="M68.48,280.68a3.58,3.58,0,0,1,1.53-.76,8.72,8.72,0,0,1,7.93,1.36c.85.64,1.24,1.19,1.19,1.23a14.59,14.59,0,0,1-1.4-.93,9.9,9.9,0,0,0-7.62-1.31A11.7,11.7,0,0,1,68.48,280.68Z" style="fill:#ff9a6c"></path><path d="M156.85,278.85a4.29,4.29,0,0,1-.19-1.07c-.08-.69-.19-1.69-.31-2.92-.24-2.47-.54-5.88-.83-9.65s-.54-7.18-.68-9.66c-.08-1.23-.13-2.24-.15-2.93a4.14,4.14,0,0,1,0-1.08,4.5,4.5,0,0,1,.18,1.06c.09.69.19,1.69.31,2.92.25,2.47.54,5.88.84,9.66s.53,7.18.68,9.66c.07,1.23.12,2.24.15,2.93A4.8,4.8,0,0,1,156.85,278.85Z" style="fill:#263238"></path><g style="opacity:0.30000000000000004"><path d="M155.6,258.05l.22,5.13q1.58,22.71,3.13,45.43A81.46,81.46,0,0,0,155.6,258.05Z"></path></g></g></svg>
