<svg xmlns="http://www.w3.org/2000/svg" viewBox="0 0 750 500"><g id="freepik--background-simple--inject-207"><path d="M700.08,450.48c5.23-18.06,17-64.78,9.33-96.78-9.69-40.4-37.81-13.15-67.88-3.76s-19.39-53.55-5.81-124-32-144.7-90.19-157.86-77.64,90.62-103.76,117.45S333.16,54,248.8,84,161.52,264.44,143.1,290.75,54.86,226.86,38.37,279.47c-13.92,44.44,10.88,141.79,18.93,171Z" style="fill:#92E3A9"></path><path d="M700.08,450.48c5.23-18.06,17-64.78,9.33-96.78-9.69-40.4-37.81-13.15-67.88-3.76s-19.39-53.55-5.81-124-32-144.7-90.19-157.86-77.64,90.62-103.76,117.45S333.16,54,248.8,84,161.52,264.44,143.1,290.75,54.86,226.86,38.37,279.47c-13.92,44.44,10.88,141.79,18.93,171Z" style="fill:#fff;opacity:0.7000000000000001"></path></g><g id="freepik--Floor--inject-207"><line x1="24.47" y1="450.48" x2="713.97" y2="450.48" style="fill:none;stroke:#263238;stroke-linecap:round;stroke-linejoin:round"></line></g><g id="freepik--Shelf--inject-207"><path d="M529.45,86.77V450.48H676V86.77ZM664.51,440H540.92V97.24H664.51Z" style="fill:none;stroke:#263238;stroke-linecap:round;stroke-linejoin:round"></path><polygon points="570.68 163.17 566.01 129.92 566.03 129.92 567.46 120.43 555.05 120.43 556.48 129.92 556.5 129.92 551.83 163.17 570.68 163.17" style="fill:none;stroke:#263238;stroke-linecap:round;stroke-linejoin:round"></polygon><circle cx="591.95" cy="148.99" r="15.33" transform="translate(229.66 640.27) rotate(-67.72)" style="fill:none;stroke:#263238;stroke-linecap:round;stroke-linejoin:round"></circle><rect x="609.29" y="212.15" width="49.21" height="50.22" style="fill:none;stroke:#263238;stroke-linecap:round;stroke-linejoin:round"></rect><rect x="617.83" y="220.87" width="32.12" height="32.79" style="fill:none;stroke:#263238;stroke-linecap:round;stroke-linejoin:round"></rect><rect x="542.32" y="216.21" width="12.18" height="45.66" style="fill:none;stroke:#263238;stroke-linecap:round;stroke-linejoin:round"></rect><rect x="555" y="216.21" width="12.18" height="45.66" style="fill:none;stroke:#263238;stroke-linecap:round;stroke-linejoin:round"></rect><rect x="572.25" y="216.21" width="12.18" height="45.66" transform="translate(-34.96 114.61) rotate(-10.99)" style="fill:none;stroke:#263238;stroke-linecap:round;stroke-linejoin:round"></rect><rect x="649.77" y="394.23" width="12.18" height="45.66" transform="translate(1311.72 834.11) rotate(180)" style="fill:none;stroke:#263238;stroke-linecap:round;stroke-linejoin:round"></rect><rect x="637.09" y="394.23" width="12.18" height="45.66" transform="translate(1286.36 834.11) rotate(180)" style="fill:none;stroke:#263238;stroke-linecap:round;stroke-linejoin:round"></rect><rect x="619.84" y="394.23" width="12.18" height="45.66" transform="translate(1160.9 945.76) rotate(-169.01)" style="fill:none;stroke:#263238;stroke-linecap:round;stroke-linejoin:round"></rect><path d="M611.5,317.12a13.68,13.68,0,0,1-1.82-7.79c.46-4.14,4.14-20.24,4.14-20.24H594s3.68,16.1,4.14,20.24a13.68,13.68,0,0,1-1.84,7.82h0c-4.25,4.07-7.08,11.44-7.08,19.87,0,12.82,6.57,23.22,14.67,23.22s14.68-10.4,14.68-23.22C618.62,328.58,615.77,321.19,611.5,317.12Z" style="fill:none;stroke:#263238;stroke-linecap:round;stroke-linejoin:round"></path><rect x="540.92" y="163.83" width="123.59" height="13.35" style="fill:none;stroke:#263238;stroke-linecap:round;stroke-linejoin:round"></rect><rect x="540.92" y="262.39" width="123.59" height="13.35" style="fill:none;stroke:#263238;stroke-linecap:round;stroke-linejoin:round"></rect><rect x="540.92" y="360.95" width="123.59" height="13.35" style="fill:none;stroke:#263238;stroke-linecap:round;stroke-linejoin:round"></rect></g><g id="freepik--Sofa--inject-207"><rect x="68.47" y="356.97" width="163.95" height="21.15" style="fill:none;stroke:#263238;stroke-linecap:round;stroke-linejoin:round"></rect><path d="M390.18,326.59a5.06,5.06,0,0,0-1.93,4V357h-157c.17-10.89-1.64-36.69-3.43-55.34.06-11.83.39-20.78,1-21.25,1.88-1.41,29.13-2.82,80.35-.94s67.19-3.29,73.3-1.88C387.33,278.69,389.51,313,390.18,326.59Z" style="fill:none;stroke:#263238;stroke-linecap:round;stroke-linejoin:round"></path><path d="M231.2,357H68.47V330.58a5.08,5.08,0,0,0-4.94-5.08c.74-14.25,2.93-46.84,7.7-47.94,6.11-1.41,22.08,3.76,73.3,1.88s78.47-.47,80.35.94c.62.47,1.75,9.42,2.89,21.25C229.56,320.28,231.37,346.08,231.2,357Z" style="fill:none;stroke:#263238;stroke-linecap:round;stroke-linejoin:round"></path><path d="M233,357v5.25h-.61V357Z" style="fill:none;stroke:#263238;stroke-linecap:round;stroke-linejoin:round"></path><rect x="68.47" y="378.12" width="319.78" height="57.8" style="fill:none;stroke:#263238;stroke-linecap:round;stroke-linejoin:round"></rect><rect x="232.42" y="356.97" width="0.61" height="21.15" style="fill:none;stroke:#263238;stroke-linecap:round;stroke-linejoin:round"></rect><rect x="233.03" y="356.97" width="155.22" height="21.15" style="fill:none;stroke:#263238;stroke-linecap:round;stroke-linejoin:round"></rect><rect x="232.42" y="356.97" width="0.61" height="21.15" style="fill:none;stroke:#263238;stroke-linecap:round;stroke-linejoin:round"></rect><path d="M411.28,330.58V446.16a4.32,4.32,0,0,1-4.32,4.32H392.57a4.31,4.31,0,0,1-4.32-4.32V330.58a5.09,5.09,0,0,1,5.09-5.09h12.85A5.09,5.09,0,0,1,411.28,330.58Z" style="fill:none;stroke:#263238;stroke-linecap:round;stroke-linejoin:round"></path><path d="M68.47,330.58V446.16a4.32,4.32,0,0,1-4.32,4.32H49.76a4.31,4.31,0,0,1-4.32-4.32V330.58a5.09,5.09,0,0,1,5.09-5.09h13A5.08,5.08,0,0,1,68.47,330.58Z" style="fill:none;stroke:#263238;stroke-linecap:round;stroke-linejoin:round"></path></g><g id="freepik--Pictures--inject-207"><rect x="157.9" y="87.01" width="47.8" height="61.45" style="fill:none;stroke:#263238;stroke-linecap:round;stroke-linejoin:round"></rect><rect x="160.99" y="90.98" width="41.62" height="53.52" style="fill:none;stroke:#263238;stroke-linecap:round;stroke-linejoin:round"></rect><rect x="175.08" y="109.1" width="13.44" height="17.28" style="fill:none;stroke:#263238;stroke-linecap:round;stroke-linejoin:round"></rect><rect x="101.41" y="132.94" width="47.8" height="61.45" style="fill:none;stroke:#263238;stroke-linecap:round;stroke-linejoin:round"></rect><rect x="104.5" y="136.91" width="41.62" height="53.52" style="fill:none;stroke:#263238;stroke-linecap:round;stroke-linejoin:round"></rect><rect x="118.59" y="155.03" width="13.44" height="17.28" style="fill:none;stroke:#263238;stroke-linecap:round;stroke-linejoin:round"></rect><rect x="219.04" y="132.94" width="47.8" height="61.45" style="fill:none;stroke:#263238;stroke-linecap:round;stroke-linejoin:round"></rect><rect x="222.13" y="136.91" width="41.62" height="53.52" style="fill:none;stroke:#263238;stroke-linecap:round;stroke-linejoin:round"></rect><rect x="236.22" y="155.03" width="13.44" height="17.28" style="fill:none;stroke:#263238;stroke-linecap:round;stroke-linejoin:round"></rect><rect x="157.9" y="158.14" width="47.8" height="35.9" style="fill:none;stroke:#263238;stroke-linecap:round;stroke-linejoin:round"></rect><rect x="160.99" y="160.45" width="41.62" height="31.26" style="fill:none;stroke:#263238;stroke-linecap:round;stroke-linejoin:round"></rect><rect x="175.08" y="171.04" width="13.44" height="10.09" style="fill:none;stroke:#263238;stroke-linecap:round;stroke-linejoin:round"></rect><rect x="183.62" y="209.55" width="30.92" height="23.23" transform="translate(420.25 22.08) rotate(90)" style="fill:none;stroke:#263238;stroke-linecap:round;stroke-linejoin:round"></rect><rect x="185.62" y="211.05" width="26.93" height="20.23" transform="translate(420.25 22.08) rotate(90)" style="fill:none;stroke:#263238;stroke-linecap:round;stroke-linejoin:round"></rect><rect x="194.74" y="217.9" width="8.69" height="6.53" transform="translate(420.25 22.08) rotate(90)" style="fill:none;stroke:#263238;stroke-linecap:round;stroke-linejoin:round"></rect><rect x="149.3" y="209.55" width="30.92" height="23.23" transform="translate(385.93 56.4) rotate(90)" style="fill:none;stroke:#263238;stroke-linecap:round;stroke-linejoin:round"></rect><rect x="151.3" y="211.05" width="26.93" height="20.23" transform="translate(385.93 56.4) rotate(90)" style="fill:none;stroke:#263238;stroke-linecap:round;stroke-linejoin:round"></rect><rect x="160.42" y="217.9" width="8.69" height="6.53" transform="translate(385.93 56.4) rotate(90)" style="fill:none;stroke:#263238;stroke-linecap:round;stroke-linejoin:round"></rect></g><g id="freepik--character-3--inject-207"><path d="M465.56,116.81s-7-5.69-8-3.27,3.71,5,3.71,5-11.27-2.8-12.31-.65,2.36,4.29,2.36,4.29-7.4.47-7.28,2.42a3.26,3.26,0,0,0,1.35,2.65s-9.41,1.91-8.74,4.22,3.42,2.39,3.42,2.39-6.67,3.49-6.48,6.81c.12,2.21,3.59,3.95,4.22,4.81,0,0-7.34,5.56-2.24,9.93s8.57,3.37,8.57,3.37-3.33,3-.7,5.39,4.07.4,4.07.4-.35,4.72,1.64,5.24,4.66-2.64,4.66-2.64.39,4,3.26,4.09a5.11,5.11,0,0,0,4.2-1.7s1.2,2.4,2.62,2.18a4.09,4.09,0,0,0,2.27-1.19s4.64,3.1,9,1.91,5.2-2.3,5.2-2.3,4.77,1.14,6.28.26a10.93,10.93,0,0,0,2.48-2,3.49,3.49,0,0,0,4.2.38c2.26-1.44,1.9-4.95,1.9-4.95s2.6,1.8,3.76-.37a4.3,4.3,0,0,0,.56-3.56s4.64,1.14,5.68-1-2.13-4.69-2.13-4.69a2.72,2.72,0,0,0,4-1.3c1.39-2.83-1.7-8.24-1.7-8.24s3.31.7,3.64-2.19a6.28,6.28,0,0,0-2-5s3.64-.24,2.27-3.28-5.24-4.36-5.24-4.36,2-3.52-.17-6.78-10.6-2.45-10.6-2.45,4.86-1.62,2-3.78-10.44-.11-10.44-.11,1.78-2.73-2.14-2.74-5.77,1.54-5.77,1.54,3.19-5.16-1-5-8.14,5.35-8.14,5.35-1-3.33-2-2.23S465.56,116.81,465.56,116.81Z" style="fill:#263238;stroke:#263238;stroke-linecap:round;stroke-linejoin:round"></path><path d="M464,167.65s-.31,11.36-1.31,14.51-7.78,6.17-11.67,6.58-12.62,4.23-12.54,13.2,4.77,30.76,7.75,37.1,3.28,8.06,2.89,12.87-6.67,13.55-9.16,23c-6.05,23-6.94,49.33,4.85,70.94,3.8,7,2.94,14,2.9,21.62a77.83,77.83,0,0,0,4.8,25.76c3.88,10.7,7.39,35.86,7.9,40s-2.06,7.2-2.91,8.57a19,19,0,0,1-7.2,6c-3.43,1.55-5.32,2.75-3.26,3.78s24.43-.43,24.86,0,1.54-1,.51-6.35-.17-15.77-.17-15.77-.16-22.48.4-40-.46-30.69-.85-32.39-1-37.18.62-41.34,2.09-11.89,2.09-11.89A126.65,126.65,0,0,1,492,312c9.4,5.24,38.32,16,45.5,15.26s8.56-13.77-3.12-27.52-32-24.88-32.95-26.74-1.34-11.8-3.89-17.56-2.39-6.28-2.51-10.56,11.91-24.63,11.7-36-2.54-16.54-5-19.15-14.94-4.61-17.09-6S480.24,170,479.6,168,464,167.65,464,167.65Z" style="fill:#d6d6d6;stroke:#263238;stroke-linecap:round;stroke-linejoin:round"></path><polygon points="475.12 172.44 462.88 180.25 464.01 167.65 475.12 172.44" style="fill:#263238;stroke:#263238;stroke-linecap:round;stroke-linejoin:round"></polygon><path d="M504.33,220.83l-14.87-35.05-1.77-.4c.67,3.15,1.28,8-.17,11.53-3.27,8-11.18,9.64-18.73,8.82C462,205,457.42,197,458,186.79a26.66,26.66,0,0,1-2.58,1C453,194,444.8,212.54,443.29,218.41c-.81,3.13-1.36,5.68-1.72,7.55A112.41,112.41,0,0,0,446.24,239a52.52,52.52,0,0,1,2.15,5.07l47.07-1.24C496.81,238.42,501.42,229.36,504.33,220.83Z" style="fill:#92E3A9;stroke:#263238;stroke-linecap:round;stroke-linejoin:round"></path><path d="M501.47,273c-.68-1.41-1.1-7.46-2.37-12.82-26.83,6.71-45,2.83-53.09.13-2.07,4.28-4.65,9.35-6,14.66-6.05,23-6.94,49.33,4.85,70.94,3.8,7,2.94,14,2.9,21.62a77.83,77.83,0,0,0,4.8,25.76,116.22,116.22,0,0,1,3.82,14.9l16-.42c0-5.94.14-12.37.33-18.26.57-17.51-.46-30.69-.85-32.39s-1-37.18.62-41.34,2.09-11.89,2.09-11.89A126.65,126.65,0,0,1,492,312c9.4,5.24,38.32,16,45.5,15.26s8.56-13.77-3.12-27.52S502.38,274.85,501.47,273Z" style="fill:#263238;stroke:#263238;stroke-linecap:round;stroke-linejoin:round"></path><path d="M465.81,132.56a48.24,48.24,0,0,1-3.28,7.14,18.81,18.81,0,0,1-6.13,6.07S458.12,159.66,459,162c1.38,3.79,3.71,8.67,6.74,11.28,2.25,1.95,7.07,4.56,10.37,2.73,6.62-3.67,9.75-10.73,10.49-18,.34-3.35-.11-14.68-.11-14.68s-3.32-2.15-4.25-3.75a21.38,21.38,0,0,1-1.27-2.41s-1.12,1.87-2.27,1.25-6.17-7.64-6.17-7.64-3.16,4.77-4.63,5.7S465.81,132.56,465.81,132.56Z" style="fill:#d6d6d6;stroke:#263238;stroke-linecap:round;stroke-linejoin:round"></path><path d="M457.41,152.91s-3-3.55-4.08-1,.76,5.35,1.81,6.67a6.51,6.51,0,0,0,3.44,1.72Z" style="fill:#d6d6d6;stroke:#263238;stroke-linecap:round;stroke-linejoin:round"></path><path d="M486.84,150.71s2.22-3.56,3.62-1.16-.07,5.41-.95,6.85a6.17,6.17,0,0,1-2.85,2.15Z" style="fill:#d6d6d6;stroke:#263238;stroke-linecap:round;stroke-linejoin:round"></path><path d="M469.12,158.51a5.28,5.28,0,0,0,3.34,1.7,4.2,4.2,0,0,0,3.76-1.83" style="fill:none;stroke:#263238;stroke-linecap:round;stroke-linejoin:round"></path><path d="M467.13,163.09s5.26,5.5,11.83-.76" style="fill:none;stroke:#263238;stroke-linecap:round;stroke-linejoin:round"></path><path d="M467.22,151c.07,1.11-.34,2-.93,2.08s-1.12-.83-1.19-1.95.35-2,.93-2.08S467.15,149.87,467.22,151Z" style="fill:#263238"></path><path d="M479.09,150.23c.08,1.11-.34,2-.93,2.08s-1.11-.83-1.19-1.95.35-2,.94-2.08S479,149.12,479.09,150.23Z" style="fill:#263238"></path><path d="M461.7,147.83s1.39-3.18,6.57-2.13" style="fill:none;stroke:#263238;stroke-linecap:round;stroke-linejoin:round"></path><path d="M474.3,145.21s4.23-2.08,7.17.61" style="fill:none;stroke:#263238;stroke-linecap:round;stroke-linejoin:round"></path><path d="M452.11,189.32s-9.75-1-14.26.83S431.56,199,431.18,202s-16.73,29.1-17,30.55-2.25,5.65,2.61,7.92,10.22-.11,12.06-3.19,12.44-23.06,12.44-23.06" style="fill:#d6d6d6;stroke:#263238;stroke-linecap:round;stroke-linejoin:round"></path><path d="M492.86,188.24s9.68-1.47,14.28.08,6.75,8.48,7.29,11.5S532.66,228,533,229.43s2.54,5.53-2.19,8-10.22.43-12.21-2.55-14.86-21.87-14.86-21.87" style="fill:#d6d6d6;stroke:#263238;stroke-linecap:round;stroke-linejoin:round"></path><path d="M424,231.67s5.15,1.58,16.82,3.08c6.93.89,24.26-1.44,24.26-1.44a15.12,15.12,0,0,0,2.27-4.85c1.18-7.79,2.51-9.51,3-13.51.86-7,1.92-6.13,2.13-4s0,16.63.17,18.38,1,7,.53,8.09-.27,4-4.25,4.31l-3.37.25s-22.2,2.66-29.87,3S418.2,247.17,414,246s-2-10.66-.19-13.42a8.63,8.63,0,0,1,4.38-3.48" style="fill:#d6d6d6;stroke:#263238;stroke-linecap:round;stroke-linejoin:round"></path><path d="M522,229.08s-5.07,1.86-16.64,4c-6.87,1.26-24.3-.16-24.3-.16a15.13,15.13,0,0,1-2.52-4.73c-1.59-7.71-3-9.36-3.71-13.33-1.23-7-2.24-6-2.34-3.93s.91,16.6.79,18.36-.61,7-.1,8.11.49,4,4.48,4.08c1.6,0,3.38.07,3.38.07S503.36,243,511,243s17.62,1.3,21.74-.09,1.47-10.75-.52-13.42a8.64,8.64,0,0,0-4.56-3.23" style="fill:#d6d6d6;stroke:#263238;stroke-linecap:round;stroke-linejoin:round"></path><path d="M531.1,315.42s-39.45,2.66-45.37,2.82-12.79-1.46-15.27-.14-2.92,5.11-1.95,8a15.73,15.73,0,0,1,.8,9.68c-1,4-1.42,7.58-.43,11.14s2.53,7.3,4.68,7.07,1.37-2.37,1.7-3.64a104.12,104.12,0,0,1,3.29-11.58c1.51-3.82,2.84-8.16,5.65-10.39s26.95.18,40.86,3.23,22.32,1.75,25.68-.5,3.92-8-2.58-15.92-13.74-15.42-13.74-15.42" style="fill:#263238;stroke:#263238;stroke-linecap:round;stroke-linejoin:round"></path><path d="M500.71,317.4c-7,.44-12.95.78-15,.84-5.92.15-12.79-1.46-15.27-.14s-2.92,5.11-1.95,8a15.73,15.73,0,0,1,.8,9.68c-1,4-1.42,7.58-.43,11.14s2.53,7.3,4.68,7.07,1.37-2.37,1.7-3.64a104.12,104.12,0,0,1,3.29-11.58c1.51-3.82,2.84-8.16,5.65-10.39,1.45-1.15,8.54-1.07,17-.3A54.65,54.65,0,0,1,500.71,317.4Z" style="fill:#d6d6d6;stroke:#263238;stroke-linecap:round;stroke-linejoin:round"></path></g><g id="freepik--character-1--inject-207"><path d="M266.93,173.45s-5.71,3.24-11,12.92-12.39,21.54-18,28.51-9,10.73-5.84,15.06,25.42,21.66,25.42,21.66.57,3.76,1.51,5.27,2.07,3.2,2.07,3.2-2.64.19-1.13,1.69a17.15,17.15,0,0,0,5.46,3.39c.56,0,5.84-13.55,5.46-14.31s-10-7.91-12.05-12.43-6.59-13.55-6.59-13.55l9-10.93s0-19.2,2.45-27.87S268.06,173.07,266.93,173.45Z" style="fill:#e3e3e3;stroke:#263238;stroke-linecap:round;stroke-linejoin:round"></path><path d="M251.11,223s-4.9-5.65-7.91-6.78" style="fill:none;stroke:#263238;stroke-linecap:round;stroke-linejoin:round"></path><line x1="261.09" y1="260.07" x2="263.16" y2="261.95" style="fill:#fff;stroke:#263238;stroke-linecap:round;stroke-linejoin:round"></line><path d="M314.27,139.9s-3.38,10.14-3.6,18.17,9.93,5.49,16.69,9.92,8.45,8.45,8.66,17.53-16.47,40.55-17.11,44.78,1.9,20.48,2.11,25.55.85,16.69,1.69,19.64,3.38,23.87,2.75,43.3S323.35,341,324.61,346s5.5,16.05,2.33,35.06-7,36.33-7,38.86.84,10.35.84,10.35H306.45s-1.06-4.22-1.06-12.88.43-16.48-.21-24.29-4.22-17.32-5.28-27.67a94.93,94.93,0,0,1,.43-20.48l-6.76-30.42s-4.65,31.47-4.86,33.37-.84,6.76,1.48,15.63.63,19.85-.85,24.29S283,415.94,283,415.94l-.85,15.63s-5.28,4.43-7.81,4-6.76-3.59-7-4.86-1.06-53.64-1.48-59.34-.63-18.59-.63-18.59a172.38,172.38,0,0,1-4-26.85c-.52-8.59-1-21.39,2.34-50.66,1.92-16.71.21-38.86-1.06-47.52s-5.28-15.42-3.59-32.1,8.87-24.71,15.21-27.25,13.09-2.32,15.2-6.12S291,151.1,291,151.1Z" style="fill:#e3e3e3;stroke:#263238;stroke-linecap:round;stroke-linejoin:round"></path><path d="M291.29,155.09c1.76-.45,19.66-.71,19.66-.71l3.32-14.48Z" style="fill:#263238;stroke:#263238;stroke-linecap:round;stroke-linejoin:round"></path><path d="M305.44,420.24H320c.06,2.79.84,10.06.84,10.06H306.45A52.84,52.84,0,0,1,305.44,420.24Z" style="fill:#d6d6d6;stroke:#263238;stroke-linecap:round;stroke-linejoin:round"></path><path d="M282.78,420.24l-.62,11.33s-5.28,4.43-7.81,4-6.76-3.59-7-4.86c-.06-.34-.16-4.5-.29-10.48Z" style="fill:#d6d6d6;stroke:#263238;stroke-linecap:round;stroke-linejoin:round"></path><path d="M288.84,108.58s-5.94,23.26-7.17,26.75-.35,5.07,1.93,11,3.32,8,7.69,8.74,11.36-1.92,15.38-4.54,7.7-7.7,9.27-10.49,5.94-19.94,5.94-19.94a11.87,11.87,0,0,0-5.07-11.36c-6.29-4.2-12.06-6.12-16.43-5.25S288.84,108.58,288.84,108.58Z" style="fill:#e3e3e3;stroke:#263238;stroke-linecap:round;stroke-linejoin:round"></path><path d="M294.09,119.42a21.33,21.33,0,0,1-2.8,9.1c-2.62,4.37-3.53,5.06-2.48,6.64s5.37,4.07,8.87-.3" style="fill:none;stroke:#263238;stroke-linecap:round;stroke-linejoin:round"></path><path d="M300.9,138.13s-3.14,5.6-11.19,4.37" style="fill:none;stroke:#263238;stroke-linecap:round;stroke-linejoin:round"></path><path d="M300.55,119.42a6.55,6.55,0,0,1,6.82,3.68" style="fill:none;stroke:#263238;stroke-linecap:round;stroke-linejoin:round"></path><path d="M293.56,117.5s-2.1-3.67-5.07-1.4" style="fill:none;stroke:#263238;stroke-linecap:round;stroke-linejoin:round"></path><path d="M301.25,127.48c-.31,1-.1,1.92.48,2.11s1.31-.45,1.62-1.43.11-1.93-.48-2.12S301.57,126.5,301.25,127.48Z" style="fill:#263238"></path><path d="M290.1,123.7c-.32,1-.1,1.93.48,2.12s1.31-.46,1.62-1.44.1-1.92-.48-2.11S290.41,122.73,290.1,123.7Z" style="fill:#263238"></path><path d="M319.44,136.38s9.26-17,7.69-21.68-23.25-20.45-34.79-18.35-2.28,4.72-2.28,4.72-9.61,4.72-9.61,8.21,23.6-1,23.6-1-4.72,3.84-2.1,4.72,8.22,2.09,8.75,2.27,6.81,5.24,4.54,5.24-4.89-1-3.67,1.23a29.35,29.35,0,0,0,2.8,4.19s-1.4,9.27-1.23,10.14,3.32-2.27,3.32-2.27Z" style="fill:#263238;stroke:#263238;stroke-linecap:round;stroke-linejoin:round"></path><path d="M313.38,138.36s4.62-6.56,7.34-5-.84,10.14-2.72,11.33-7.13-1-7.13-1" style="fill:#e3e3e3;stroke:#263238;stroke-linecap:round;stroke-linejoin:round"></path><path d="M319.63,242.55c.58,5.29,1.29,10.73,1.39,13.3.21,5.07.85,16.69,1.69,19.64s3.38,23.87,2.75,43.3c-.13,3.88-.29,7.09-.45,9.8H296.68l-3.11-14s-1,6.66-2.07,14H261.43c-.08-.88-.14-1.76-.19-2.65-.52-8.59-1-21.39,2.34-50.66,1.19-10.32,1-22.72.36-32.73Z" style="fill:#263238;stroke:#263238;stroke-linecap:round;stroke-linejoin:round"></path><path d="M259.35,203.26c3.59-11.82,8.45-15.41,12.68-21.12,2.5-3.38,5.6-10.33,7.71-15.43,1.78-.43,3.47-.81,4.95-1.29-1.39,2.22-4.16,7.6-5.69,17.15-2.12,13.09,4,13.09,12.67,9.92s15.84-22,18.16-26.19c1-1.78,1.74-3.11,2.28-4.06a10.59,10.59,0,0,0,5,2.32,50.45,50.45,0,0,0-13.39,23.07c-3.81,15.42,6.33,27.67,13.72,28.73a17.94,17.94,0,0,0,7.79-.93c-3.26,7.18-6.06,13.18-6.31,14.87-.39,2.62.44,9.91,1.17,16.26H264.23c-.4-7.9-1.12-14.8-1.71-18.8-1-6.66-3.57-12.19-3.95-22Q259,204.57,259.35,203.26Z" style="fill:#92E3A9;stroke:#263238;stroke-linecap:round;stroke-linejoin:round"></path><circle cx="247.53" cy="171.37" r="20.28" style="fill:#878787;stroke:#263238;stroke-linecap:round;stroke-linejoin:round"></circle><circle cx="249.64" cy="171.37" r="20.28" style="fill:#263238;stroke:#263238;stroke-linecap:round;stroke-linejoin:round"></circle><circle cx="249.64" cy="171.37" r="4.97" style="fill:#878787;stroke:#263238;stroke-linecap:round;stroke-linejoin:round"></circle><path d="M327.36,168s8.87,3.8,9.71,12.89-1.47,22.8-9.71,30.2-22.18,29.78-26,29.35-36.62-28.12-42.81-34.65-14.63-13.92-17.38-18.15a38.89,38.89,0,0,1-4.65-12.46c-.21-1.69,7.19-8.66,9.51-8.44s5.7,5.91,5.7,5.91,4.44,1.48,4.86,3-.85,3.37-.85,4.85.85,4.44.21,5.92-1.26,3.38-1.26,3.38,5.49,4.43,9.71,6.33,30.63,11.2,30.63,11.2,3.38-8.45,5.28-11.2,6.33-5.49,6.33-5.49.64-5.49,2.54-8.24" style="fill:#e3e3e3;stroke:#263238;stroke-linecap:round;stroke-linejoin:round"></path><path d="M295.05,207.28s.84,4.22,2.74,6.33" style="fill:none;stroke:#263238;stroke-linecap:round;stroke-linejoin:round"></path><path d="M257.29,191.7a44.14,44.14,0,0,0,7.13,4.38c.92.41,2.88,1.17,5.39,2.11l-6.93,11.72c-1.89-1.73-3.4-3.16-4.31-4.13-1.8-1.9-3.79-3.88-5.78-5.82Z" style="fill:#92E3A9;stroke:#263238;stroke-linecap:round;stroke-linejoin:round"></path><circle cx="255.76" cy="171.37" r="20.28" style="fill:#878787;stroke:#263238;stroke-linecap:round;stroke-linejoin:round"></circle><circle cx="257.88" cy="171.37" r="20.28" style="fill:#878787;stroke:#263238;stroke-linecap:round;stroke-linejoin:round"></circle><circle cx="257.88" cy="171.37" r="4.97" style="fill:#878787;stroke:#263238;stroke-linecap:round;stroke-linejoin:round"></circle><path d="M306.76,425.17s3.28-5.58,7.87-5.08,4.92,5.08,4.92,6.56,3.45,6.55,3.77,8.36a16,16,0,0,0,2.63,5.57,11,11,0,0,1,3.44,3.45c1,1.8,2,4.43,1.64,6.23s-2.46,1.64-4.26,1.8-21,0-21,0a10,10,0,0,1-2.13-4.59c-.5-2.79.32-7.38,0-11.15s-1.48-7.54-.33-9.18A5.63,5.63,0,0,1,306.76,425.17Z" style="fill:#fff;stroke:#263238;stroke-linecap:round;stroke-linejoin:round"></path><path d="M303.93,448.62H331a5.3,5.3,0,0,1,0,1.64c-.33,1.8-2.46,1.64-4.26,1.8s-21,0-21,0A10,10,0,0,1,303.93,448.62Z" style="fill:#fff;stroke:#263238;stroke-linecap:round;stroke-linejoin:round"></path><path d="M284.13,427.47s.49,18.53.33,20.33-.82,2.79-2.3,3.28-11.8.16-14.59.82-13.94,1.31-16.4,1-5.58.5-6.07-2.46,1-5.41,1.48-5.57a129.77,129.77,0,0,0,12-6.23,26.75,26.75,0,0,0,6.72-7.05c.82-1.64.66-6.4,2.79-6.24s4.1,3,4.76,4.43l.65,1.48a66.42,66.42,0,0,0,7.54-1.15C282.33,429.6,282.16,426,284.13,427.47Z" style="fill:#fff;stroke:#263238;stroke-linecap:round;stroke-linejoin:round"></path><path d="M251.17,452.88c-2.46-.32-5.58.5-6.07-2.46a4.21,4.21,0,0,1,0-.5,63.73,63.73,0,0,0,17.26-.15c5.85-.89,17.31-2.18,22.17-2.71,0,.34,0,.6,0,.74-.17,1.8-.82,2.79-2.3,3.28s-11.8.16-14.59.82S253.63,453.21,251.17,452.88Z" style="fill:#fff;stroke:#263238;stroke-linecap:round;stroke-linejoin:round"></path></g><g id="freepik--character-2--inject-207"><path d="M416.75,232.19s-.95,9.89-.95,18.26,1.33,22.46,1.33,22.46,1.33,15,1.33,24.54a184.77,184.77,0,0,1-1.33,20s0,9.14-.57,10.85-4.38,5.14-5.9,6.85-3.23,1.71-3.23,1.14a4.89,4.89,0,0,1,1.33-2.85,13.37,13.37,0,0,0,2.66-4c.19-.76,0-6.47,0-6.47a14.21,14.21,0,0,0-2.28,4c-.57,1.9-1.71,5.52-2.67,4.94s-.19-4.37.38-5.7-.38-6.85,1.15-8.76,2.28-1.14,2.85-4.37-3.81-23.79-4.76-28.93-1.52-14.65-1.52-14.65l-2.85-27.21Z" style="fill:#e3e3e3;stroke:#263238;stroke-linecap:round;stroke-linejoin:round"></path><path d="M350.71,369s-.4,7.82-1,11.63-3.61,11.23-1.81,22.87,2.21,30.49,2.21,31.69-.4,5.62-.4,5.62h10.83s2.81-10,2.61-12.84.8-22.27,2-26.28,2.81-16.85,3.21-21.06S369.77,369,369.77,369H350.71Z" style="fill:#e3e3e3;stroke:#263238;stroke-linecap:round;stroke-linejoin:round"></path><path d="M360.35,432.67s-2.33-3.95-5.58-3.61-3.49,3.61-3.49,4.66-2.45,4.65-2.68,5.93a11.42,11.42,0,0,1-1.86,4,7.65,7.65,0,0,0-2.44,2.44,7.91,7.91,0,0,0-1.17,4.42c.24,1.28,1.75,1.17,3,1.28s14.89,0,14.89,0a7.12,7.12,0,0,0,1.51-3.26c.35-2-.23-5.23,0-7.91s1.05-5.35.23-6.51A4,4,0,0,0,360.35,432.67Z" style="fill:#fff;stroke:#263238;stroke-linecap:round;stroke-linejoin:round"></path><path d="M362.36,449.31H343.14a3.77,3.77,0,0,0,0,1.16c.24,1.28,1.75,1.17,3,1.28s14.89,0,14.89,0A7,7,0,0,0,362.36,449.31Z" style="fill:#fff;stroke:#263238;stroke-linecap:round;stroke-linejoin:round"></path><path d="M388.82,371.35l.61,7.83s-.81,11.83,1.2,18.85,9.83,42.13,9.83,42.13l10-.2s-2-34.1-1.41-43.13-2-22.47-2-23.07-1-7.42-1-7.42Z" style="fill:#e3e3e3;stroke:#263238;stroke-linecap:round;stroke-linejoin:round"></path><path d="M409.89,431.93s-2.81-2.61-5.42-.8-2.61,5.42-2.61,5.42-4-.41-4.21,1.2.8,12.84,1.4,13.44,7.83,1.2,9,1.4,10.43,1,13.44-.6.4-3.61-1.2-6-6.42-6-7.63-7.82A41.78,41.78,0,0,1,409.89,431.93Z" style="fill:#fff;stroke:#263238;stroke-linecap:round;stroke-linejoin:round"></path><path d="M406.07,449.38a26.11,26.11,0,0,0-7.59-.79,8.88,8.88,0,0,0,.57,2.6c.61.6,7.83,1.2,9,1.4s10.43,1,13.44-.6c1.63-.87,1.61-1.86,1-3C417.78,450.75,411.05,450.58,406.07,449.38Z" style="fill:#fff;stroke:#263238;stroke-linecap:round;stroke-linejoin:round"></path><path d="M346.5,321.61l-6,45.93a51.6,51.6,0,0,0,16.45,5.62,58,58,0,0,0,16.45.2l3.41-24.87,1,24.87s9.83,2.61,19.26,1.4,18.05-6.21,18.05-6.21l-8.42-47.14H347.1Z" style="fill:#263238;stroke:#263238;stroke-linecap:round;stroke-linejoin:round"></path><path d="M404.57,244l16.37-12.36s-2.1-6.47-6.28-8.76-16.18-5.14-18.27-5.71-5.9-2.66-6.66-4.56-1.33-8.19-1.33-8.19l-16.18-1.9s-1.23,7.71-2.76,9.8-2.28,3.24-11.41,5.71a52,52,0,0,0-10.75,2.76,31.12,31.12,0,0,0-8.57,5.9l4.87,5c-2,5.48-7,12.34-7.53,13.09s-7.23,12.37-7.23,12.37l22.83,19.79s-7,43-7.23,45.29l-.19,2.28s19,4.46,35.55,4.08a126.21,126.21,0,0,0,28.77-3.89s-4.76-53.28-4.76-61.65S404.57,244,404.57,244Z" style="fill:#92E3A9;stroke:#263238;stroke-linecap:round;stroke-linejoin:round"></path><path d="M379.74,233.33c7.78,0,14.33-6.9,16.29-16.28-2.14-.7-5.58-2.66-6.3-4.46s-1.33-8.19-1.33-8.19l-16.18-1.9s-1.23,7.71-2.76,9.8c-1.15,1.59-1.88,2.63-6.14,4.12C365.12,226.12,371.79,233.33,379.74,233.33Z" style="fill:#fff;stroke:#263238;stroke-linecap:round;stroke-linejoin:round"></path><path d="M392.1,215.06a6.43,6.43,0,0,1-2.37-2.47c-.76-1.91-1.33-8.19-1.33-8.19l-16.18-1.9s-1.23,7.71-2.76,9.8a7.81,7.81,0,0,1-2.7,2.62c2.53,5.31,7.48,14,12.88,14.41C385.61,229.77,390,220.43,392.1,215.06Z" style="fill:#e3e3e3;stroke:#263238;stroke-linecap:round;stroke-linejoin:round"></path><path d="M385.49,206.09l-17.43,8.61s4.54-7.8,4.16-12.2S385.49,206.09,385.49,206.09Z" style="fill:#263238;stroke:#263238;stroke-linecap:round;stroke-linejoin:round"></path><path d="M351.67,276.9l-1.33-35.77-6.74-9.48c-2,5.48-7,12.34-7.53,13.09s-7.23,12.37-7.23,12.37Z" style="fill:#e3e3e3;stroke:#263238;stroke-linecap:round;stroke-linejoin:round"></path><circle cx="333.98" cy="268.34" r="19.98" transform="translate(-51.7 81.79) rotate(-12.97)" style="fill:#b2b2b2;stroke:#263238;stroke-linecap:round;stroke-linejoin:round"></circle><path d="M336.57,248.55c-4.81,4.53-7.92,11.71-7.92,19.79s3.11,15.26,7.92,19.79a20,20,0,0,0,0-39.58Z" style="fill:none;stroke:#263238;stroke-linecap:round;stroke-linejoin:round"></path><path d="M314,268.34A19.83,19.83,0,0,0,319.42,282a19.91,19.91,0,0,0,.95-28.25A19.89,19.89,0,0,0,314,268.34Z" style="fill:none;stroke:#263238;stroke-linecap:round;stroke-linejoin:round"></path><path d="M337,269.1A19.94,19.94,0,0,0,345,285a19.94,19.94,0,0,0,1.05-32.6A20,20,0,0,0,337,269.1Z" style="fill:none;stroke:#263238;stroke-linecap:round;stroke-linejoin:round"></path><path d="M315.42,260.5a8.55,8.55,0,0,0-2.91,2c-1,1.23-.15,5.17.67,5.49s4.49,4.15,5.38,2.47-1.57-3.81-1.9-4.49-1.8-3-1.8-3Z" style="fill:#e3e3e3;stroke:#263238;stroke-linecap:round;stroke-linejoin:round"></path><path d="M312.06,266s-2.13,4.49-1.46,5.28,5.38,2.69,6.51,1.79a1.92,1.92,0,0,0,.33-2.35l-4.26-2.7Z" style="fill:#e3e3e3;stroke:#263238;stroke-linecap:round;stroke-linejoin:round"></path><path d="M311.61,272.16s-.45,1.91.56,2.92,4.6.67,5.27.22-.33-2.24-.33-2.24A36.88,36.88,0,0,1,311.61,272.16Z" style="fill:#e3e3e3;stroke:#263238;stroke-linecap:round;stroke-linejoin:round"></path><path d="M313.18,276.09s.34,1.57,1.46,1.91,3.47-.57,3.7-1.24-.9-1.46-.9-1.46S313.85,276.31,313.18,276.09Z" style="fill:#e3e3e3;stroke:#263238;stroke-linecap:round;stroke-linejoin:round"></path><path d="M378.72,166.31a20.54,20.54,0,0,0-14.17,7s-2.62,4.74-2,8,1.41,18.53,3.23,21.76,7.87,9.27,14.33,9.92,13.33-6.68,14.95-10.78,2-19.39,2-19.39-1.43-4.84-2.16-6.78S387.64,165.93,378.72,166.31Z" style="fill:#e3e3e3;stroke:#263238;stroke-linecap:round;stroke-linejoin:round"></path><path d="M376.35,160.49s-4-3.3-7.46-1.94,1.09,3.3,1.09,3.3-7.46-.78-8.73,1.55,2.37,4.08,2.37,4.08-5.28,1.36-5.28,3.69a2.82,2.82,0,0,0,2.36,2.72s-.54,1,0,3.88,2.85,11.07,2.85,11.07.79-.59,1.16-3.11-.18-3.11.18-3.88,2.91-2.72,3.82-4.08a23,23,0,0,1,3.64-3.5s-3.09,3.11-1.09,3.3,9.28-3.3,10.19-4.65-.55,3.1.91,2.71,3.27-4.85,3.27-4.85.91,4.08,2.19,4.08a4.36,4.36,0,0,0,2.18-.59s1.09,3.11,2.55,4.08a11.61,11.61,0,0,1,2.73,3.11l1.55,6.93s2.27-2.86,2.63-4.21-.18-5.25-.18-5.25l.37-3.69a1.85,1.85,0,0,0,1.63-2.32c-.36-2.14-4.36-5-4.36-5s2.18-1.94.18-3.5-9.1-.77-9.1-.77,2.37-4.86-2-5.44-8.37,2.33-8.37,2.33" style="fill:#263238;stroke:#263238;stroke-linecap:round;stroke-linejoin:round"></path><path d="M363.55,188.84s-1.82-4.1-4.25-.22,5.46,11,5.46,11Z" style="fill:#e3e3e3;stroke:#263238;stroke-linecap:round;stroke-linejoin:round"></path><path d="M396.83,188.39s2.86-4.94,4.68-.85-5.25,10.13-5.25,10.13Z" style="fill:#e3e3e3;stroke:#263238;stroke-linecap:round;stroke-linejoin:round"></path><ellipse cx="374.65" cy="188.84" rx="1.21" ry="2.15" style="fill:#263238"></ellipse><path d="M386.77,188.84c0,1.18-.54,2.15-1.21,2.15s-1.21-1-1.21-2.15.54-2.16,1.21-2.16S386.77,187.65,386.77,188.84Z" style="fill:#263238"></path><path d="M378.09,192.28s-1.22,1.73-.61,2.16,3,1.94,4,1.5,2.62-.86,2.62-1.72a5.83,5.83,0,0,0-1.21-2.37" style="fill:none;stroke:#263238;stroke-linecap:round;stroke-linejoin:round"></path><path d="M374.45,197.88s3.64,2.59,7.07,2.37,5.65-3.87,5.65-3.87" style="fill:none;stroke:#263238;stroke-linecap:round;stroke-linejoin:round"></path><path d="M370.41,184.74s1.82-2.37,6.46-1.29" style="fill:none;stroke:#263238;stroke-linecap:round;stroke-linejoin:round"></path><path d="M383.54,183.23a8,8,0,0,1,6.66,1.3" style="fill:none;stroke:#263238;stroke-linecap:round;stroke-linejoin:round"></path><path d="M378.6,251c-3.31,0-5.39,1.8-5.39,6.54v7.1h-9.86v-6.44c0-10.61,5.31-16.67,15.54-16.67s15.53,6.06,15.53,16.67c0,20.84-20.74,28.6-20.74,39.49a7.64,7.64,0,0,0,.09,1.43h19.7v9.47H363.35v-8.15C363.35,281,384,277.73,384,258.6,384,252.63,381.92,251,378.6,251Z" style="fill:#fff;stroke:#263238;stroke-linecap:round;stroke-linejoin:round"></path></g></svg>
