<svg xmlns="http://www.w3.org/2000/svg" viewBox="0 0 500 500"><g id="freepik--background-complete--inject-206"><rect y="382.4" width="500" height="0.25" style="fill:#ebebeb"></rect><rect x="416.78" y="398.49" width="33.12" height="0.25" style="fill:#ebebeb"></rect><rect x="322.53" y="401.21" width="8.69" height="0.25" style="fill:#ebebeb"></rect><rect x="396.59" y="389.21" width="19.19" height="0.25" style="fill:#ebebeb"></rect><rect x="52.46" y="390.89" width="43.19" height="0.25" style="fill:#ebebeb"></rect><rect x="104.56" y="390.89" width="6.33" height="0.25" style="fill:#ebebeb"></rect><rect x="131.47" y="395.11" width="93.68" height="0.25" style="fill:#ebebeb"></rect><path d="M237,337.8H43.91a5.71,5.71,0,0,1-5.7-5.71V60.66A5.71,5.71,0,0,1,43.91,55H237a5.71,5.71,0,0,1,5.71,5.71V332.09A5.71,5.71,0,0,1,237,337.8ZM43.91,55.2a5.46,5.46,0,0,0-5.45,5.46V332.09a5.46,5.46,0,0,0,5.45,5.46H237a5.47,5.47,0,0,0,5.46-5.46V60.66A5.47,5.47,0,0,0,237,55.2Z" style="fill:#ebebeb"></path><path d="M453.31,337.8H260.21a5.72,5.72,0,0,1-5.71-5.71V60.66A5.72,5.72,0,0,1,260.21,55h193.1A5.71,5.71,0,0,1,459,60.66V332.09A5.71,5.71,0,0,1,453.31,337.8ZM260.21,55.2a5.47,5.47,0,0,0-5.46,5.46V332.09a5.47,5.47,0,0,0,5.46,5.46h193.1a5.47,5.47,0,0,0,5.46-5.46V60.66a5.47,5.47,0,0,0-5.46-5.46Z" style="fill:#ebebeb"></path><path d="M217.54,181.68a7.64,7.64,0,0,0-4.32-1.31c-.88-1.19,0-2.87.93-4s2.15-2.39,1.87-3.85c-.41-2.2-3.44-2.42-5.66-2.11-.75-1.35-.65-3-1-4.5s-1.43-3.13-3-3-2.41,1.69-3.85,2c-1.66.31-3-1.21-4.25-2.36a3.88,3.88,0,0,0-.49-.4h0c.48-4.49,4.75-3.57,8.43-4,2.89-.34-4.33-7.93,1.54-10a5.13,5.13,0,0,0,2.88-1.81,3.27,3.27,0,0,0-1.06-4,7.69,7.69,0,0,0-4.32-1.31c-.89-1.19,0-2.87.93-4s2.14-2.39,1.87-3.85c-.42-2.2-3.45-2.42-5.67-2.11-.74-1.35-.65-3-1-4.5s-1.43-3.13-3-3-2.41,1.69-3.84,2c-1.66.31-3-1.21-4.25-2.36s-3.46-1.94-4.42-.55c-.57.83-.31,2.05-.9,2.86-1,1.43-3.26.4-4.62-.7s-3.56-2.16-4.62-.77a6.26,6.26,0,0,0-.62,1.48,3.94,3.94,0,0,1-.61,1c-.23-1-.26-2.1-.48-3.13-.32-1.51-1.43-3.14-3-3s-2.41,1.7-3.85,2c-1.66.31-3-1.21-4.25-2.37s-3.45-1.94-4.41-.55c-.57.84-.31,2-.91,2.87a1.7,1.7,0,0,1-.48.45,14.32,14.32,0,0,0-1.45-.17c-.89-1.19,0-2.87.93-4s2.14-2.4,1.87-3.85c-.42-2.2-3.45-2.43-5.66-2.11-.75-1.35-.66-3-1-4.5s-1.43-3.14-3-3-2.41,1.7-3.84,2c-1.66.31-3-1.21-4.25-2.37s-3.46-1.94-4.42-.55c-.57.84-.31,2.05-.9,2.87-1,1.42-3.26.4-4.62-.71s-3.55-2.16-4.62-.76a6.23,6.23,0,0,0-.61,1.48c-.76,1.89-2.89,2.75-4.57,3.9s-3.08,3.55-1.78,5.12c.64.78,1.81,1.14,2.1,2.1.36,1.2-.9,2.2-1.89,3a5,5,0,0,0-1.2,5.1,4.2,4.2,0,0,1-1.71.89c-1.67.31-3-1.21-4.25-2.36s-3.46-2-4.42-.55c-.57.83-.31,2-.91,2.86-1,1.42-3.25.4-4.61-.7S99,124,97.89,125.4a6.26,6.26,0,0,0-.62,1.48c-.76,1.89-2.88,2.75-4.56,3.91s-3.09,3.54-1.79,5.12c.62.74,1.72,1.11,2.06,2-1.11-.51-2.35-.58-3,.37s-.31,2-.91,2.87c-1,1.42-3.25.4-4.61-.71s-3.56-2.16-4.62-.77a5.87,5.87,0,0,0-.62,1.48c-.76,1.89-2.89,2.75-4.57,3.91s-3.08,3.54-1.78,5.12c.64.77,1.81,1.13,2.1,2.09.37,1.21-.89,2.21-1.89,3-1.66,1.27-2.14,5.31-.09,6.52.86.51,2.15.72,2.32,1.7s-.77,1.52-1.39,2.16a4.19,4.19,0,0,0,1,6.29c.49.27,1.1.5,1.27,1a2,2,0,0,1-.18,1.18,6.08,6.08,0,0,0-.31,2.24,1,1,0,0,0,.24.72,1.06,1.06,0,0,0,.65.22c3,.29,4.56-.72,6.28,2a2.26,2.26,0,0,0,.6.7,2,2,0,0,0,.83.25c2.08.27,3.51-1,5.43-1.12,2.67-.21,3.17,1.19,5.45,2.4,3.59,1.9,5.42.93,6.23-1.54a11.46,11.46,0,0,0,.43-2.16,3.78,3.78,0,0,1,1.42-2.82l.06,0c1.94.25,3.32-.8,5-1.06l1.08-.06c2.07.07,2.68,1.3,4.74,2.4a7.4,7.4,0,0,0,3.1,1c.25,1.15-1,2.11-1.91,2.85-1.66,1.28-2.14,5.32-.09,6.53.86.51,2.15.71,2.32,1.7s-.77,1.51-1.39,2.16a4.19,4.19,0,0,0,1,6.29c.49.26,1.1.49,1.27,1a2,2,0,0,1-.18,1.17,6.13,6.13,0,0,0-.31,2.25,1,1,0,0,0,.24.72,1.06,1.06,0,0,0,.65.22c3,.28,4.56-.72,6.28,2a2.29,2.29,0,0,0,.6.71,2,2,0,0,0,.83.24c2.08.28,3.51-1,5.43-1.11,2.67-.21,3.17,1.18,5.45,2.39,3.59,1.91,5.42.93,6.23-1.54a11.19,11.19,0,0,0,.43-2.15c.49-4.49,4.75-3.57,8.44-4a.71.71,0,0,0,.62-.39l.23,0c2.08.27,3.51-1,5.43-1.12,2.67-.21,3.16,1.19,5.44,2.4,3.59,1.9,5.42.92,6.23-1.54a10.69,10.69,0,0,0,.44-2.16c.38-3.49,3-3.71,5.94-3.84a4,4,0,0,0,2,3.38c.5.27,1.11.5,1.27,1a2,2,0,0,1-.18,1.17,6.16,6.16,0,0,0-.31,2.25,1,1,0,0,0,.24.72,1.07,1.07,0,0,0,.66.22c3,.28,4.55-.72,6.28,2a2.13,2.13,0,0,0,.6.7,2,2,0,0,0,.82.25c2.09.27,3.52-1,5.44-1.12,2.66-.21,3.16,1.19,5.44,2.4,3.59,1.9,5.42.93,6.23-1.54a10.07,10.07,0,0,0,.43-2.16c.49-4.49,4.75-3.57,8.44-4,2.88-.34-4.33-7.93,1.54-10a5.16,5.16,0,0,0,2.88-1.81A3.26,3.26,0,0,0,217.54,181.68Z" style="fill:#ebebeb"></path><path d="M108,221.49a6.11,6.11,0,0,0-3.41-1c-.69-.94,0-2.26.74-3.15s1.69-1.88,1.47-3c-.33-1.73-2.72-1.91-4.46-1.66-.59-1.06-.51-2.36-.76-3.55s-1.13-2.46-2.34-2.37-1.9,1.33-3,1.54c-1.31.24-2.37-1-3.35-1.87s-2.72-1.53-3.47-.43c-.45.66-.25,1.61-.72,2.26-.81,1.12-2.56.31-3.63-.56s-2.8-1.7-3.64-.6a4.58,4.58,0,0,0-.48,1.16c-.6,1.49-2.28,2.17-3.6,3.08s-2.43,2.79-1.4,4c.5.61,1.42.89,1.65,1.65.29.95-.7,1.74-1.49,2.34-1.3,1-1.69,4.19-.07,5.14.68.4,1.69.56,1.83,1.34s-.61,1.19-1.1,1.7a3.3,3.3,0,0,0,.77,5c.39.21.87.39,1,.81a1.6,1.6,0,0,1-.14.93,4.78,4.78,0,0,0-.24,1.76.81.81,0,0,0,.19.57.77.77,0,0,0,.51.17c2.39.23,3.59-.56,5,1.59a1.68,1.68,0,0,0,.47.55,1.5,1.5,0,0,0,.65.2c1.64.22,2.77-.76,4.28-.88,2.1-.16,2.49.94,4.29,1.89,2.82,1.5,4.26.73,4.9-1.21a8.81,8.81,0,0,0,.34-1.7c.39-3.54,3.74-2.81,6.65-3.15,2.27-.27-3.42-6.24,1.21-7.86a4,4,0,0,0,2.26-1.42A2.57,2.57,0,0,0,108,221.49Z" style="fill:#ebebeb"></path><path d="M137.12,378.93h18c1-18,4.62-98.29,1-133.89.24-1.12.49-2.4.75-3.89,2.47-14,16.61-34.57,19.4-37.86s10.92-13.66,10.92-13.66l-1.46-2.44-13,13,5.45-14.72,9.75-11.36-1.51-1.38-9.12,9-.81-15L173,166.6s3.72,17.31.43,23.68c0,0-13.69,27.41-20.54,33a6.07,6.07,0,0,0-1,1.12A68.89,68.89,0,0,0,145,209.77c2.91-6.49,9.17-20.81,11.43-28.47a152.1,152.1,0,0,0,4.22-18.2l-2.51-1.53s-7.11,29.66-17.82,42.26a40,40,0,0,0-9.7-7.2c-.62-4.08-.63-11.13,2.58-22l-1.89-1.93s-4.73,10.42-4.92,21.55a37.4,37.4,0,0,1-4.24-2.8c-9.37-7.29-15.59-19.95-15.59-19.95l-3.68-.18s9,20.59,20.24,27.23,18,21.79,18.4,25.7c.12,1.11-.19,12.82-.7,29-12.24-8.26-42.32-28.59-43.87-30L96.72,227l43.75,35.72C139.31,298.62,137.54,365.68,137.12,378.93Z" style="fill:#f0f0f0"></path><path d="M136,94.71a3.79,3.79,0,0,0-3.79-3.8,3.88,3.88,0,0,0-1.09.16,8.92,8.92,0,0,0,.08-1.16,8,8,0,0,0-9.51-7.9,7,7,0,0,0-13,3.55h-.12a6.48,6.48,0,0,0,0,13H132.3A3.79,3.79,0,0,0,136,94.71Z" style="fill:#fafafa"></path><path d="M350.09,112.13h19.18a12.83,12.83,0,0,1-.09-1.4,12.63,12.63,0,0,1,12.63-12.62l.46,0a11.16,11.16,0,0,1,21.62,3.9v0A10.66,10.66,0,0,1,414,112.13h.51a5.61,5.61,0,1,1,0,11.22H350.09a5.61,5.61,0,1,1,0-11.22Z" style="fill:#fafafa"></path><path d="M240.94,121.73a23.33,23.33,0,0,1,39.8.33,12.5,12.5,0,0,1,15.89,12.05v0h6.6a6.25,6.25,0,0,1,0,12.5H280.45a23.33,23.33,0,0,1-36.4,3.82,11.9,11.9,0,0,1-1.2.06,14.45,14.45,0,0,1-1.91-28.78Z" style="fill:#fafafa"></path><path d="M343,254.57l3.72,10.74,17.74,5.41-10.9,108.21h39.11c-.94-10.66-5.38-61-6.28-75.74l18-34.2h-3.59l-.75,1.19a55.54,55.54,0,0,1-10.07,11.92,24.32,24.32,0,0,1-4.73,3.42c-1.68-4.77-4.67-67.87-4.67-67.87s-3.71,9-15.28,3.6l-1.05,40.3-11.53-2.36L341.46,237H337l4,9.56-9.43-2-8.08-10.39-2.83.69L328,246.09Z" style="fill:#f0f0f0"></path><path d="M430.84,196.39a15,15,0,0,1,9.55,14.28,16.42,16.42,0,0,1-10,14.23A18.14,18.14,0,0,1,413,222.61c-.25,5.87-4.27,12.27-9.88,14a14.85,14.85,0,0,1-15.81-5c-15.11,9.49-68,13-77.32-27.42-1.92-8.35,2.73-17.19,9.55-22.38s15.48-7.31,24-8.35c8.06-12.85,26-19.87,41-17.86a40.77,40.77,0,0,1,32.81,27.92C432.66,183.65,431.06,197.42,430.84,196.39Z" style="fill:#ebebeb"></path><path d="M412.17,275.93a8.1,8.1,0,0,1-14.48-2.27c-3.58,2.52-9.11,1.89-12.74-.56a10.88,10.88,0,0,1,4.69-19.79,13,13,0,0,1,6.09-9.88,14.15,14.15,0,0,1,12.09-1.28,14.8,14.8,0,0,1,12.85,4.13,11.62,11.62,0,0,1,3.76,9.06c-.28,3.37-2.74,6.61-6.06,7.25a9.94,9.94,0,0,1,.35,7.87C417.64,273,414.75,275,412.17,275.93Z" style="fill:#ebebeb"></path><path d="M336,214.8a8.09,8.09,0,0,1,10.2,10.51c4.38.14,8.43,4,9.86,8.1a10.88,10.88,0,0,1-15.63,13,13,13,0,0,1-10.81,4.24,14.11,14.11,0,0,1-10.42-6.23,14.8,14.8,0,0,1-7.81-11,11.65,11.65,0,0,1,2.44-9.5c2.25-2.53,6.16-3.64,9.19-2.16a9.94,9.94,0,0,1,4.46-6.51C329.86,213.86,333.36,214,336,214.8Z" style="fill:#ebebeb"></path><rect x="69.75" y="292.25" width="358.42" height="12.15" style="fill:#ebebeb"></rect><polygon points="78.19 367.7 61.31 367.7 61.31 261.14 69.75 255.14 78.19 261.14 78.19 367.7" style="fill:#e6e6e6"></polygon><polygon points="108.06 367.7 91.18 367.7 91.18 261.14 99.62 255.14 108.06 261.14 108.06 367.7" style="fill:#e6e6e6"></polygon><polygon points="137.93 367.7 121.05 367.7 121.05 261.14 129.49 255.14 137.93 261.14 137.93 367.7" style="fill:#e6e6e6"></polygon><polygon points="167.8 367.7 150.92 367.7 150.92 261.14 159.36 255.14 167.8 261.14 167.8 367.7" style="fill:#e6e6e6"></polygon><polygon points="197.66 367.7 180.78 367.7 180.78 261.14 189.22 255.14 197.66 261.14 197.66 367.7" style="fill:#e6e6e6"></polygon><polygon points="227.53 367.7 210.65 367.7 210.65 261.14 219.09 255.14 227.53 261.14 227.53 367.7" style="fill:#e6e6e6"></polygon><polygon points="257.4 367.7 240.52 367.7 240.52 261.14 248.96 255.14 257.4 261.14 257.4 367.7" style="fill:#e6e6e6"></polygon><polygon points="287.27 367.7 270.39 367.7 270.39 261.14 278.83 255.14 287.27 261.14 287.27 367.7" style="fill:#e6e6e6"></polygon><polygon points="317.14 367.7 300.26 367.7 300.26 261.14 308.7 255.14 317.14 261.14 317.14 367.7" style="fill:#e6e6e6"></polygon><polygon points="347 367.7 330.13 367.7 330.13 261.14 338.56 255.14 347 261.14 347 367.7" style="fill:#e6e6e6"></polygon><polygon points="376.87 367.7 359.99 367.7 359.99 261.14 368.43 255.14 376.87 261.14 376.87 367.7" style="fill:#e6e6e6"></polygon><polygon points="406.74 367.7 389.86 367.7 389.86 261.14 398.3 255.14 406.74 261.14 406.74 367.7" style="fill:#e6e6e6"></polygon><polygon points="436.61 367.7 419.73 367.7 419.73 261.14 428.17 255.14 436.61 261.14 436.61 367.7" style="fill:#e6e6e6"></polygon><path d="M423.77,368.86s2.8-9.36-2.86-11.22-9-6.24-8.81-11.19-5.76-9.77-10.22-5.13-3.87-3.57-9.82-5.56-11,2.84-9.36,7.26-4.25,7.19-11.28,3.43-14.76,3.08-13.27,8.43.27,5.95-4.18,4.17-12.4,3.27-9.62,9.81S423.77,368.86,423.77,368.86Z" style="fill:#e0e0e0"></path><path d="M123.44,367.52s2.17-7.26-2.22-8.71-7-4.85-6.84-8.69-4.47-7.58-7.94-4-3-2.77-7.62-4.32-8.53,2.21-7.26,5.64-3.3,5.58-8.75,2.66-11.47,2.39-10.31,6.55.21,4.62-3.25,3.23-9.62,2.54-7.46,7.62S123.44,367.52,123.44,367.52Z" style="fill:#e0e0e0"></path><path d="M232,368.38c5-5,.5-13.5-4.5-14.5s-10-9.79-10.26-15.4S208,315.66,194,326.29s-9.75,1.57-19.87-1.42-16.52,5.61-12.08,12.06c0,0-10.17-2.55-14.36,6.95s0,15.4,0,15.4-19.13-.56-17.41,11.27S232,368.38,232,368.38Z" style="fill:#e0e0e0"></path><path d="M54.17,368.68v13.7h386v-13.7a4.08,4.08,0,0,0-4-4.3H58.21A4.08,4.08,0,0,0,54.17,368.68Z" style="fill:#ebebeb"></path><rect x="394.17" y="364.38" width="24" height="18" style="fill:#f5f5f5"></rect><rect x="349.17" y="364.38" width="23" height="18" style="fill:#f5f5f5"></rect><rect x="303.17" y="364.38" width="24" height="18" style="fill:#f5f5f5"></rect><rect x="258.17" y="364.38" width="23" height="18" style="fill:#f5f5f5"></rect><rect x="213.17" y="364.38" width="23" height="18" style="fill:#f5f5f5"></rect><rect x="167.17" y="364.38" width="24" height="18" style="fill:#f5f5f5"></rect><rect x="122.17" y="364.38" width="23" height="18" style="fill:#f5f5f5"></rect><rect x="76.17" y="364.38" width="24" height="18" style="fill:#f5f5f5"></rect></g><g id="freepik--Shadow--inject-206"><ellipse id="freepik--path--inject-206" cx="250" cy="416.24" rx="193.89" ry="11.32" style="fill:#f5f5f5"></ellipse></g><g id="freepik--Plant--inject-206"><path d="M392.77,372.81s-7.75-9.23-12.71-4.92-2.45,13.43,3.27,13.72a14.33,14.33,0,0,0,9.44-2.88Z" style="fill:#407BFF"></path><path d="M392.77,372.81s-7.75-9.23-12.71-4.92-2.45,13.43,3.27,13.72a14.33,14.33,0,0,0,9.44-2.88Z" style="fill:#fff;isolation:isolate;opacity:0.2"></path><path d="M424.41,349.41s6.51-6.83,10.54-5.67,3.61,17.46-8.89,10.86Z" style="fill:#407BFF"></path><path d="M424.41,349.41s6.51-6.83,10.54-5.67,3.61,17.46-8.89,10.86Z" style="fill:#fff;isolation:isolate;opacity:0.30000000000000004"></path><path d="M401.15,400.3s-21.4-29.28-4-35.21,20.46,23.56,15.5,31.76S401.15,400.3,401.15,400.3Z" style="fill:#407BFF"></path><path d="M411.07,340.36s13.27-30.82-6.39-31.75-21.8,30.56.82,35.13Z" style="fill:#407BFF"></path><path d="M401.15,400.3s-21.4-29.28-4-35.21,20.46,23.56,15.5,31.76S401.15,400.3,401.15,400.3Z" style="fill:#fff;isolation:isolate;opacity:0.30000000000000004"></path><path d="M411.07,340.36s13.27-30.82-6.39-31.75-21.8,30.56.82,35.13Z" style="fill:#fff;isolation:isolate;opacity:0.30000000000000004"></path><path d="M406.36,365.6s-6.45-27.21,5.95-29.39,24.65,22.42-1,34.78C411.3,371,406.9,368.26,406.36,365.6Z" style="fill:#407BFF"></path><path d="M406.36,365.6s-6.45-27.21,5.95-29.39,24.65,22.42-1,34.78C411.3,371,406.9,368.26,406.36,365.6Z" style="fill:#fff;isolation:isolate;opacity:0.2"></path><polygon points="385.74 396.15 421.67 396.15 418.67 419.13 388.74 419.13 385.74 396.15" style="fill:#263238"></polygon><path d="M404.43,338.16c-7.4-5.41-12.53-15.86-8.17-24.67-.17.82-.39,1.71-.59,2.52-1.46,8.36,3.11,16.32,8.76,22.15Z" style="fill:#407BFF"></path><path d="M399.72,311.71c8.53,1.73,12.3,10.78,11.31,18.76-.19,1.12-.35,2.24-.58,3.34a53.48,53.48,0,0,0-.08-6.7c-.53-6.57-4.15-13-10.65-15.4Z" style="fill:#407BFF"></path><path d="M414.76,338.16c4.78,1.7,7.78,7,7.8,11.94,0,4.33-2.4,8.28-5.08,11.51a38.75,38.75,0,0,1-6.65,6.28,57.84,57.84,0,0,0,6.05-6.76c2.22-3,4.19-6.25,4.68-9.94.41-5.14-2.09-10.63-6.8-13Z" style="fill:#407BFF"></path><path d="M411.07,340.36c1.28,4,2.42,8.75.33,12.67-1.73,2.54-1.91,5.87-1.95,8.9,0,1.05,0,2.1.07,3.16a24,24,0,0,1-.69-6.34,11.43,11.43,0,0,1,1.73-6.25c1.91-3.66,1-8.19.51-12.14Z" style="fill:#407BFF"></path><path d="M402.34,367.89c5,2.57,7,19.82,6.82,25.26-.16-1.1-.33-2.2-.53-3.29-1-5.44-1.94-10.9-3.38-16.23-.68-2-1.11-4.45-2.91-5.74Z" style="fill:#407BFF"></path><path d="M396.26,368.83a24.07,24.07,0,0,0,4.89,22.91,25.62,25.62,0,0,1-2.25-2.17,19,19,0,0,1-2.64-20.74Z" style="fill:#407BFF"></path><path d="M429.46,352.73c2.27-.61,4.21-1.17,5.88-2.84-.41,2.55-3.65,3.74-5.88,2.84Z" style="fill:#407BFF"></path><path d="M428.13,348.23c1.07-2.18,4.72-3.54,6.28-1.16-2.19-.95-4.32.24-6.28,1.16Z" style="fill:#407BFF"></path><path d="M389.23,374.19c-2.49-1.77-5.08-4.76-8.32-3.2,2.63-3.11,7.06.37,8.32,3.2Z" style="fill:#407BFF"></path><path d="M389.23,378.73c-3.26,1.19-9.79,1.29-10.2-3.28,1.88,3.72,6.65,2.9,10.2,3.28Z" style="fill:#407BFF"></path></g><g id="freepik--Bicycle--inject-206"><path d="M150,272.59s8.61-.43,9.77-.55,10.08.1,9.67-8-7.95-8-10.09-8l-13.28.07a2.1,2.1,0,0,1-2.1-1.85h0a2.1,2.1,0,0,1,1.93-2.36l1.13-.08s10.81,0,13.85.22,13.14-.5,13.09,11.85-10.28,12-12.22,12L150.2,276Z" style="fill:#263238"></path><path d="M150,272.59s8.61-.43,9.77-.55,10.08.1,9.67-8-7.95-8-10.09-8l-13.28.07a2.1,2.1,0,0,1-2.1-1.85h0a2.1,2.1,0,0,1,1.93-2.36l1.13-.08s10.81,0,13.85.22,13.14-.5,13.09,11.85-10.28,12-12.22,12L150.2,276Z" style="fill:#fff;opacity:0.30000000000000004"></path><rect x="190.69" y="359.55" width="11.25" height="4.54" transform="translate(392.63 723.65) rotate(180)" style="fill:#263238"></rect><rect x="191.95" y="369.99" width="27.87" height="3.77" transform="translate(114.11 786.91) rotate(-138.56)" style="fill:#263238"></rect><rect x="191.95" y="369.99" width="27.87" height="3.77" transform="translate(114.11 786.91) rotate(-138.56)" style="fill:#fff;opacity:0.05"></rect><path d="M281.55,367.42a5.69,5.69,0,1,0,5.69-5.69A5.68,5.68,0,0,0,281.55,367.42Z" style="fill:#407BFF"></path><path d="M281.55,367.42a5.69,5.69,0,1,0,5.69-5.69A5.68,5.68,0,0,0,281.55,367.42Z" style="fill:#fff;opacity:0.5"></path><path d="M117.79,367.42a5.69,5.69,0,1,0,5.69-5.69A5.68,5.68,0,0,0,117.79,367.42Z" style="fill:#407BFF"></path><path d="M117.79,367.42a5.69,5.69,0,1,0,5.69-5.69A5.68,5.68,0,0,0,117.79,367.42Z" style="fill:#fff;opacity:0.5"></path><path d="M237.52,365.25a50,50,0,1,0,50-50A50,50,0,0,0,237.52,365.25Zm6.06,0a44,44,0,1,1,44,44A44,44,0,0,1,243.58,365.25Z" style="fill:#263238"></path><path d="M237.52,365.25a50,50,0,1,0,50-50A50,50,0,0,0,237.52,365.25Zm6.06,0a44,44,0,1,1,44,44A44,44,0,0,1,243.58,365.25Z" style="fill:#fff;opacity:0.5"></path><path d="M233.67,365.25a53.89,53.89,0,1,0,53.89-53.89A53.88,53.88,0,0,0,233.67,365.25Zm6.53,0a47.36,47.36,0,1,1,47.36,47.35A47.36,47.36,0,0,1,240.2,365.25Z" style="fill:#263238"></path><path d="M73.44,365.25a50,50,0,1,0,50-50A50,50,0,0,0,73.44,365.25Zm6.07,0a44,44,0,1,1,44,44A44,44,0,0,1,79.51,365.25Z" style="fill:#263238"></path><path d="M73.44,365.25a50,50,0,1,0,50-50A50,50,0,0,0,73.44,365.25Zm6.07,0a44,44,0,1,1,44,44A44,44,0,0,1,79.51,365.25Z" style="fill:#fff;opacity:0.5"></path><path d="M69.59,365.25a53.89,53.89,0,1,0,53.89-53.89A53.88,53.88,0,0,0,69.59,365.25Zm6.54,0a47.35,47.35,0,1,1,47.35,47.35A47.36,47.36,0,0,1,76.13,365.25Z" style="fill:#263238"></path><polygon points="169.69 256.33 159.06 290.48 154.65 289.05 164.76 255.21 169.69 256.33" style="fill:#263238"></polygon><path d="M119.68,367.69l2.16,1.62,16.82-22.19,12.2-31.43,2.77-8.53,62.44,75.1v0l68.68-14.68-.43-2,.54-.33-.93-1.52h0l-41.69-67.63,1.17-4L239.64,291l-.7,2.42H158.09l1-3L154.65,289l-8.19,25.21-10.4,32Zm161-3.21-61.93,13.23,22.31-77.51ZM155.07,302.75l1.51-4.66h81L215.39,375.3Z" style="fill:#407BFF"></path><path d="M119.68,367.69l2.16,1.62,16.82-22.19,12.2-31.43,2.77-8.53,62.44,75.1v0l68.68-14.68-.43-2,.54-.33-.93-1.52h0l-41.69-67.63,1.17-4L239.64,291l-.7,2.42H158.09l1-3L154.65,289l-8.19,25.21-10.4,32Zm161-3.21-61.93,13.23,22.31-77.51ZM155.07,302.75l1.51-4.66h81L215.39,375.3Z" style="fill:#fff;opacity:0.5"></path><polygon points="254.65 280.08 248.97 284.36 246.39 283.74 243.41 292.1 239.64 291.02 244.64 280.08 246.39 278.4 254.65 280.08" style="fill:#263238"></polygon><polygon points="254.65 280.08 248.97 284.36 246.39 283.74 243.41 292.1 239.64 291.02 244.64 280.08 246.39 278.4 254.65 280.08" style="fill:#fff;opacity:0.4"></polygon><path d="M226.79,275c7.26-1.7,14.75.2,22.44,5.11H257s9.29-4.95,11.15-7,.61-2.47.61-2.47c-11.78,1.72-35-.78-38.07-.78S225.68,273.28,226.79,275Z" style="fill:#263238"></path><path d="M226.79,275c7.26-1.7,14.75.2,22.44,5.11H257s9.29-4.95,11.15-7,.61-2.47.61-2.47c-11.78,1.72-35-.78-38.07-.78S225.68,273.28,226.79,275Z" style="fill:#fff;opacity:0.1"></path><path d="M202,380.5a13.73,13.73,0,1,0,13.73-13.73A13.73,13.73,0,0,0,202,380.5Zm12.06-9.22V378l-6.22-2A9.06,9.06,0,0,1,214.1,371.28Zm9.61,4.75-6.13,2V371.3A9.08,9.08,0,0,1,223.71,376Zm1.09,4.47a9.57,9.57,0,0,1-2.25,6.2l-3.9-5.37,6.08-2A10.9,10.9,0,0,1,224.8,380.5Zm-9,9.4a8.63,8.63,0,0,1-4-1l4-5.55,4,5.51A8.76,8.76,0,0,1,215.77,389.9Zm-9-9.4a10.19,10.19,0,0,1,.09-1.24l6.23,2-4,5.5A9.63,9.63,0,0,1,206.74,380.5Z" style="fill:#263238"></path><path d="M202,380.5a13.73,13.73,0,1,0,13.73-13.73A13.73,13.73,0,0,0,202,380.5Zm12.06-9.22V378l-6.22-2A9.06,9.06,0,0,1,214.1,371.28Zm9.61,4.75-6.13,2V371.3A9.08,9.08,0,0,1,223.71,376Zm1.09,4.47a9.57,9.57,0,0,1-2.25,6.2l-3.9-5.37,6.08-2A10.9,10.9,0,0,1,224.8,380.5Zm-9,9.4a8.63,8.63,0,0,1-4-1l4-5.55,4,5.51A8.76,8.76,0,0,1,215.77,389.9Zm-9-9.4a10.19,10.19,0,0,1,.09-1.24l6.23,2-4,5.5A9.63,9.63,0,0,1,206.74,380.5Z" style="fill:#fff;opacity:0.4"></path><rect x="209.78" y="385.73" width="27.87" height="3.77" transform="translate(134.89 826.25) rotate(-138.56)" style="fill:#263238"></rect><rect x="209.78" y="385.73" width="27.87" height="3.77" transform="translate(134.89 826.25) rotate(-138.56)" style="fill:#fff;opacity:0.05"></rect><rect x="228.05" y="393.7" width="11.25" height="4.54" transform="translate(467.34 791.95) rotate(180)" style="fill:#263238"></rect><polygon points="153.8 253.38 164.76 255.48 163.15 260.62 159.68 260.1 158.71 261.66 152.63 260.39 153.8 253.38" style="fill:#263238"></polygon><path d="M167.55,274.92s8.61-.43,9.77-.55,10.08.1,9.66-8-7.94-8-10.08-8l-13.28.08a2.12,2.12,0,0,1-2.11-1.86h0a2.11,2.11,0,0,1,1.94-2.35l1.13-.09s10.81,0,13.85.23,13.13-.51,13.09,11.85-10.29,12-12.22,12l-11.59.07Z" style="fill:#263238"></path><path d="M167.55,274.92s8.61-.43,9.77-.55,10.08.1,9.66-8-7.94-8-10.08-8l-13.28.08a2.12,2.12,0,0,1-2.11-1.86h0a2.11,2.11,0,0,1,1.94-2.35l1.13-.09s10.81,0,13.85.23,13.13-.51,13.09,11.85-10.29,12-12.22,12l-11.59.07Z" style="fill:#fff;opacity:0.5"></path></g><g id="freepik--character-3--inject-206"><path d="M328.43,401.12a54.19,54.19,0,0,1-7.75-9.67c-1.43-2.09-1.71-1.58-3.24-3.64a2.46,2.46,0,0,1,1.45-3.68,22.55,22.55,0,0,0,4-1.13l5.27,4c-1,2.5.19,9.6,2.89,12.54C333,401.64,330,402.57,328.43,401.12Z" style="fill:#263238"></path><path d="M327.74,388.18c-.2.15-.53,0-.92-.22-1.45-1-3.8-4.14-4-5.12a162.57,162.57,0,0,0,7.08-15.68c6.14-15.27,11.37-31.13,18.42-35.91-22.31-34-25.19-55.62-25.19-55.62L348,272s14.76,44.05,16.53,60.12C366.29,347.87,327.74,388.18,327.74,388.18Z" style="fill:#407BFF"></path><path d="M337,287.31s1,16.14,1.21,27.11c-2.92-5.39-5.3-10.3-7.22-14.69Z" style="opacity:0.2"></path><path d="M329.94,367.16c-.17,4.95-.81,13.67-3.12,20.8-1.45-1-3.8-4.14-4-5.12A162.57,162.57,0,0,0,329.94,367.16Z" style="opacity:0.2"></path><path d="M333,419.13c-5.34-.07-6-.16-9-.3-2.56-.12-3.18.19-5.25.12-1.72-.06-1.63-1.71-1.08-3.6.28-1,.72-3,1.11-4.5l7.82-.47c1.07,2.12,3.52,5.15,6.52,5.59S335.11,419.16,333,419.13Z" style="fill:#263238"></path><path d="M330.73,338.39c-3.73,22.28-4.63,58.08-4,72.68-.88.5-3.35.37-5.6,0l-1.11-.22c-.56-.13-1.07-.26-1.52-.41,0,0-14.19-48.07-3-70-6.35-51.73,4-64.24,4-64.24l.45-.07,1-.15,19.57-2.83S334.28,317.19,330.73,338.39Z" style="fill:#407BFF"></path><path d="M344.07,236.9a96.23,96.23,0,0,0,13.59,12.54c-.21-.14-1-.19-1.06,0,2.34-1.24,4.13-4.42,5.73-6.71,1.93-3.07,3.78-6.36,5.52-9.62a2.17,2.17,0,0,1,4,1.59c-2,6.86-8,26.38-18,21.66a62.22,62.22,0,0,1-16.63-14,4.36,4.36,0,0,1,6.85-5.4Z" style="fill:#e9b376"></path><path d="M308.92,241.7c7.74,17.33,10,26.34,10.59,34.46L348,272c-.53-9.41-.94-15-1.55-20.74a87.91,87.91,0,0,0-1.72-11.62c-.72-4.06-3.87-8.28-7.78-9.71a7.54,7.54,0,0,0-2.82-.52c-1.42,0-2.9,0-4.33.12a93.56,93.56,0,0,0-12.95,1.87c-1.22.25-2.41.51-3.52.8a4.07,4.07,0,0,0-.7.22A6.71,6.71,0,0,0,308.92,241.7Z" style="fill:#407BFF"></path><path d="M308.92,241.7c.86,1.93,1.66,3.76,2.38,5.49,2.1,5,3.68,9.2,4.87,12.88a65.91,65.91,0,0,1,3.34,16.09L348,272c-.53-9.41-.94-15-1.55-20.74a87.91,87.91,0,0,0-1.72-11.62c-.72-4.06-3.87-8.28-7.78-9.71a7.54,7.54,0,0,0-2.82-.52c-1.42,0-2.9,0-4.33.12a93.56,93.56,0,0,0-12.95,1.87c-1.22.25-2.41.51-3.52.8a4.07,4.07,0,0,0-.7.22A6.71,6.71,0,0,0,308.92,241.7Z" style="fill:#fff;opacity:0.6000000000000001"></path><path d="M311.3,247.19c2.1,5,3.68,9.2,4.87,12.88,10.47-6.29,2-17.22,2-17.22A16.58,16.58,0,0,0,311.3,247.19Z" style="opacity:0.1"></path><path d="M315.67,216.74c1.73,4,4.22,11.43,1.91,14.6,0,0,3.86-1.16,13,2.81,1.92-3.83,0-4.68,0-4.68-4.89-.43-5.52-3.85-5.42-7.17Z" style="fill:#ebb376"></path><path d="M319.52,219l5.58,3.28a12.12,12.12,0,0,0,.11,2.34c-1.83,0-4.7-1.57-5.3-3.39A6.3,6.3,0,0,1,319.52,219Z" style="opacity:0.2"></path><path d="M306.9,205.23s-3-1.69-7.64,0-5.67,6.54-3.16,11.51-.79,8.35-.26,10.61a5.32,5.32,0,0,0,6.19,4.08s-2.11-.17-2.11-2,4.35-2.9,4.09-7.63-2.64-6.87-1.19-10.09a6.51,6.51,0,0,1,4.67-3.67Z" style="fill:#263238"></path><path d="M306.9,208.78s.12,9.63,8.77,8.7S314.4,203,306.9,208.78Z" style="fill:#263238"></path><path d="M333.85,197c2.12.64-8.43,4.49-8.43,4.49l-5.11-2.77A17.73,17.73,0,0,1,333.85,197Z" style="fill:#407BFF"></path><path d="M310.9,208.89c2.24,6.54,3.05,9.35,7.35,12,6.48,4,14,.3,13.8-6.66-.21-6.28-3.83-15.92-11.09-17.14A8.86,8.86,0,0,0,310.9,208.89Z" style="fill:#ebb376"></path><path d="M312.67,205a4.74,4.74,0,0,0,2.52-.07,1.35,1.35,0,0,1,.56-1.72q.28-.13.57-.3a2.57,2.57,0,0,1,2-2.23,12.88,12.88,0,0,1,2.48-2.12,12.28,12.28,0,0,1,5.7-1.42l.16,0c-1.42-1.56-6.58-4.93-9.44-5-5.4-.08-11.54,2.85-12.11,11.39s5.11,8.43,7.51,8.06S314.69,206.06,312.67,205Z" style="fill:#263238"></path><path d="M319.65,208.77c.17.55.59.94,1,.86s.52-.59.36-1.15-.59-.95-.95-.87S319.49,208.21,319.65,208.77Z" style="fill:#263238"></path><path d="M326.63,207c.16.56.59.94.95.87s.52-.6.35-1.16-.59-.94-.95-.86S326.46,206.44,326.63,207Z" style="fill:#263238"></path><path d="M326.83,205.91l1.21-.68S327.67,206.43,326.83,205.91Z" style="fill:#263238"></path><path d="M324.84,208.7a17.23,17.23,0,0,0,3,3.12,2.32,2.32,0,0,1-1.86.81Z" style="fill:#d58745"></path><path d="M323.44,215.39a4.61,4.61,0,0,0,.94-.13.16.16,0,0,0,.12-.2.18.18,0,0,0-.21-.12,4.85,4.85,0,0,1-4.07-.94.16.16,0,0,0-.24,0,.17.17,0,0,0,0,.24A5.13,5.13,0,0,0,323.44,215.39Z" style="fill:#263238"></path><path d="M310.2,214.84a5.55,5.55,0,0,0,3.87,1.74c1.88,0,2.2-1.92,1.17-3.55-.93-1.47-3-3.24-4.68-2.47S308.92,213.49,310.2,214.84Z" style="fill:#ebb376"></path><path d="M317.59,205.5a.29.29,0,0,0,.22-.13,2.47,2.47,0,0,1,2.05-1.15.32.32,0,0,0,.34-.32.38.38,0,0,0-.35-.35,3.14,3.14,0,0,0-2.62,1.42.35.35,0,0,0,.11.47A.39.39,0,0,0,317.59,205.5Z" style="fill:#263238"></path><path d="M328.42,202.7a.29.29,0,0,0,.23-.1.34.34,0,0,0,0-.47,3.53,3.53,0,0,0-3-1.06.31.31,0,0,0-.24.39.37.37,0,0,0,.41.27,2.81,2.81,0,0,1,2.34.86A.38.38,0,0,0,328.42,202.7Z" style="fill:#263238"></path><path d="M319.86,207.68l1.21-.68S320.7,208.2,319.86,207.68Z" style="fill:#263238"></path><path d="M311.74,206.86a14.14,14.14,0,0,0-4.84,3.9l-.67-1.12a34.22,34.22,0,0,1,4.37-4.82C312.4,203.43,311.74,206.86,311.74,206.86Z" style="fill:#407BFF"></path><path d="M324.84,195.77s-2.5-3.51-3.42-3.61-9.53.77-11.05,3.07-3,5.74.93,11.77Z" style="fill:#407BFF"></path><path d="M311.3,207s1.87-10,8.9-11.38A26.63,26.63,0,0,1,333.85,197s-4.71-1.05-8.44,1.62S318.13,204.83,311.3,207Z" style="fill:#407BFF"></path><path d="M311.3,207s1.87-10,8.9-11.38A26.63,26.63,0,0,1,333.85,197s-4.71-1.05-8.44,1.62S318.13,204.83,311.3,207Z" style="fill:#fff;opacity:0.2"></path><path d="M387.17,266.28a16.38,16.38,0,0,0,1.75-.3l.44-.1c.45-.11.88-.24,1.3-.38.23-.08.47-.16.69-.25s.29-.1.42-.16l.37-.17a16,16,0,0,0,2.05-1.08l.34-.21a15.56,15.56,0,0,0,1.75-1.34l.27-.25a12.83,12.83,0,0,0,1.47-1.57c.09-.1.16-.2.23-.29a13.32,13.32,0,0,0,1.19-1.83,3.41,3.41,0,0,0,.17-.33,12.41,12.41,0,0,0,.85-2.11c0-.12.07-.25.11-.38a10.33,10.33,0,0,0,.29-1.47c0-.22.06-.44.08-.67s0-.24,0-.36a3.69,3.69,0,0,0,0-.47,11.23,11.23,0,0,0,0-1.16,11,11,0,0,0-.15-1.15c0-.16-.06-.31-.09-.47s-.06-.24-.08-.35-.12-.43-.19-.64a11.16,11.16,0,0,0-.52-1.4c-.06-.13-.11-.25-.18-.37a12.14,12.14,0,0,0-1.17-2l-.23-.3a12.26,12.26,0,0,0-1.46-1.6,2.26,2.26,0,0,0-.28-.25,12.19,12.19,0,0,0-1.7-1.31l-.32-.21a17.06,17.06,0,0,0-1.94-1l-.36-.14a14.58,14.58,0,0,0-2.2-.74l-.39-.11-.43-.09-.73-.13c-.44-.08-.89-.13-1.34-.17l-.46,0c-.58,0-1.17,0-1.77,0l-.54,0h-.11l-.46.05c-.19,0-.37,0-.55.06-.57.08-1.14.19-1.68.32l-.44.11c-.5.13-1,.29-1.46.46l-.74.29-.17.07-.37.17a17.21,17.21,0,0,0-2,1.11l-.31.21a16.72,16.72,0,0,0-1.73,1.36l-.27.25a14.74,14.74,0,0,0-1.45,1.61,3.15,3.15,0,0,0-.22.29,12.57,12.57,0,0,0-1.15,1.84c-.07.12-.12.23-.18.34a12.52,12.52,0,0,0-.8,2.14,3.34,3.34,0,0,0-.1.4,7,7,0,0,0-.16.74,5.46,5.46,0,0,0-.1.69,8.29,8.29,0,0,0-.08,1.11,4,4,0,0,0,0,.49,7.86,7.86,0,0,0,0,.84,8.15,8.15,0,0,0,.1.83c0,.16,0,.32.08.47a9.45,9.45,0,0,0,.26,1.08c.06.23.13.45.21.67s.18.48.28.71.1.25.16.37a13,13,0,0,0,1.14,2,2.26,2.26,0,0,0,.23.31,13.11,13.11,0,0,0,1.44,1.64l.26.25a12.92,12.92,0,0,0,1.69,1.34l.3.21a14.38,14.38,0,0,0,1.93,1.06l.35.17a16.46,16.46,0,0,0,2.18.76l.39.1.2.06.75.16a15.23,15.23,0,0,0,1.51.21l.45,0c.56,0,1.14.06,1.72,0a5.07,5.07,0,0,0,.55,0,3.55,3.55,0,0,0,.46,0h.12Zm.31-1.53c-.35.05-.71.1-1.08.13a13,13,0,0,1-1.39,0h0l1.12-1.31,1.35,1.14Zm-14.65-6.29a12.55,12.55,0,0,1-.8-1.65l.93-1.08,1.64,1.39-1.4,1.64-.36-.3Zm-1.49-4.73,1.33-1.56,1.64,1.4-1.39,1.64-1.57-1.32Zm.72-4.75h0l.31-.36L374,250l-1.39,1.64-1.09-.92A11.39,11.39,0,0,1,372.06,249Zm8-7.56a14,14,0,0,1,1.7-.53l-1,1.15-.72-.62Zm4.35-1c.36,0,.72,0,1.08,0h0l-1.15,1.35L383,240.63Q383.72,240.51,384.42,240.45Zm13.89,7c.14.27.26.53.37.8l-1.16,1.37-1.64-1.4,1.4-1.64Zm-.5,5.72-1.64-1.39,1.4-1.64,1.64,1.39Zm1.17,2.53-.88,1-1.64-1.39,1.4-1.65,1.36,1.16C399.15,255.15,399.07,255.43,399,255.71Zm-10.33,8.82,1-1.21.81.68A13.91,13.91,0,0,1,388.65,264.53Zm-4.31.38-1.53-1.3L384.2,262l1.64,1.39-1.32,1.56Zm-2-24.16.19,0h0l1.55,1.31-1.4,1.65-1.64-1.4,1.3-1.52Zm3.73-.35h0l1.57,1.34-1.4,1.64-1.64-1.4L386,240.4Zm-1.17,8.45-1.64-1.39,1.39-1.64,1.65,1.39Zm1.67-1.39,1.65,1.39-1.4,1.64-1.64-1.39Zm-1.91,1.68-1.4,1.64-1.64-1.39,1.4-1.64Zm.28.24,1.64,1.39-1.39,1.64L383.58,251Zm1.92,1.63,1.64,1.4-1.39,1.64-1.64-1.39ZM385,252.7l-1.4,1.64-1.64-1.4,1.39-1.64Zm.28.23,1.64,1.4L385.51,256l-1.64-1.39Zm1.92,1.64,1.64,1.4-1.39,1.64-1.64-1.4Zm-1.91,1.69-1.4,1.64-1.64-1.4,1.39-1.64Zm.28.23,1.64,1.4-1.39,1.64-1.64-1.4Zm1.92,1.63,1.64,1.4-1.39,1.65-1.64-1.41Zm.24-.28,1.39-1.64,1.65,1.4-1.4,1.64Zm1.63-1.92,1.4-1.64,1.64,1.4L391,257.32Zm-.28-.24-1.64-1.39,1.4-1.65,1.64,1.4Zm0-3.31,1.39-1.65,1.64,1.4-1.39,1.64Zm-.28-.25-1.65-1.39,1.39-1.64,1.65,1.39Zm0-3.31,1.39-1.64,1.64,1.39-1.39,1.64Zm-.29-.24-1.64-1.4,1.39-1.64,1.65,1.39Zm-1.92-1.63-1.64-1.4,1.39-1.64,1.65,1.39Zm-1.92-1.64L383,243.91l1.39-1.65,1.65,1.4Zm-.24.28-1.4,1.64-1.64-1.39,1.4-1.64Zm-1.63,1.92-1.4,1.64-1.64-1.39,1.4-1.64Zm-1.64,1.93-1.4,1.64-1.64-1.39,1.4-1.65Zm.28.23,1.65,1.4-1.4,1.64L380,251.31Zm0,3.33-1.4,1.64-1.64-1.4,1.4-1.64Zm.28.23,1.65,1.4-1.4,1.64-1.64-1.4Zm0,3.33-1.4,1.64-1.64-1.4,1.4-1.64Zm.28.23,1.64,1.4-1.39,1.64-1.64-1.4Zm1.92,1.63,1.64,1.4-1.39,1.65-1.64-1.41Zm1.93,1.64,1.64,1.39-1.39,1.65-1.65-1.4Zm3.55-.29,1.65,1.39-1.4,1.65L388,261.4Zm.24-.29,1.4-1.64,1.64,1.4-1.39,1.65Zm1.63-1.91,1.4-1.65,1.64,1.4L392.91,259Zm1.64-1.92,1.4-1.65,1.64,1.4-1.4,1.64Zm-.28-.25L391,254l1.4-1.64,1.64,1.39Zm0-3.31,1.4-1.64,1.64,1.39-1.39,1.64Zm-.28-.25-1.64-1.39,1.39-1.64,1.64,1.39Zm0-3.31,1.4-1.64,1.64,1.39L394,249.91Zm-.28-.24-1.64-1.4,1.39-1.64,1.64,1.39Zm-1.92-1.63-1.64-1.4,1.39-1.64,1.64,1.39ZM388.19,245l-1.64-1.4,1.39-1.65,1.65,1.4ZM382.48,244l-1.4,1.64-1.64-1.39,1.4-1.65Zm-1.64,1.92-1.39,1.64-1.65-1.39,1.4-1.64Zm-1.63,1.92-1.4,1.65-1.64-1.4,1.4-1.64Zm-1.63,1.93-1.4,1.64L374.53,250l1.4-1.65Zm.28.23,1.64,1.4L378.1,253l-1.64-1.39Zm0,3.33-1.4,1.64-1.65-1.4,1.4-1.64Zm.28.23,1.64,1.4-1.4,1.64-1.64-1.4Zm0,3.32-1.4,1.65-1.65-1.4,1.4-1.64Zm.28.24,1.64,1.39-1.4,1.65-1.64-1.4Zm1.91,1.63,1.65,1.4-1.4,1.64L379,260.35Zm1.93,1.64,1.64,1.39-1.39,1.65-1.64-1.4Zm5.48,1.34,1.64,1.4-1.34,1.57-.11,0-1.59-1.35Zm3.13,2.17-1-.82,1.4-1.64,1.64,1.4-.13.15A15,15,0,0,1,390.89,263.85Zm.66-2.74,1.4-1.64,1.64,1.4-1.39,1.64Zm1.64-1.92,1.4-1.65,1.64,1.4-1.4,1.65Zm1.63-1.92,1.4-1.65,1.64,1.4-1.4,1.64Zm1.35-2.17-1.64-1.39,1.4-1.64,1.64,1.39Zm-.28-3.55-1.65-1.4,1.4-1.64,1.64,1.39ZM395.6,248l-1.65-1.4,1.4-1.64,1.64,1.4Zm-1.92-1.63L392,245l1.4-1.64,1.64,1.39Zm-1.93-1.63-1.64-1.4,1.39-1.65,1.64,1.4Zm-.53-3.28-1.39,1.64-1.64-1.4.81-1h0a14.36,14.36,0,0,1,2.09.6Zm-3.32,0-1.21-1a13.15,13.15,0,0,1,1.9.23Zm-8.22.11.87.74L379.16,244l-1.57-1.34A15.11,15.11,0,0,1,379.68,241.57Zm-.76,2.67-1.39,1.64-1.65-1.39,1.4-1.65Zm-1.63,1.92-1.4,1.64-1.64-1.39,1.39-1.64Zm-1.64,1.92-1.39,1.65-1.65-1.4,1.4-1.64Zm-1.35,2.16,1.64,1.4-1.39,1.64-1.65-1.39Zm.29,3.56,1.64,1.4-1.4,1.64-1.64-1.4Zm.29,3.56,1.64,1.39-1.4,1.65-1.64-1.4ZM376.8,259l1.65,1.4L377,262l-1.64-1.4Zm1.92,1.64,1.65,1.39-1.4,1.64-1.64-1.39Zm1.92,1.63,1.65,1.39-.75.88h0a15.78,15.78,0,0,1-2.24-.69Zm1.32,2.36.61-.72,1.15,1A12.86,12.86,0,0,1,382,264.62Zm11.89-2.31,1-1.21.27.23A12.63,12.63,0,0,1,393.85,262.31Zm3.06-2.78a12.88,12.88,0,0,1-1.49,1.56l-.31-.27,1.4-1.64.4.35Zm.23-.3-.39-.33,1.39-1.65.15.13A12.35,12.35,0,0,1,397.14,259.23Zm1.24-2.25.22-.26a3.09,3.09,0,0,1-.14.32Zm.92-2.53-1.21-1,1.4-1.64A9.9,9.9,0,0,1,399.3,254.45Zm.14-3.19-1.64-1.4,1-1.21A10.35,10.35,0,0,1,399.44,251.26Zm-1.67-4.74-.26-.22.06-.07A3,3,0,0,1,397.77,246.52Zm-1.85-2.24a13.11,13.11,0,0,1,1.44,1.64l-.13.15-1.64-1.4.33-.39Zm-.27-.25-.34.41-1.64-1.4.26-.31A13.85,13.85,0,0,1,395.65,244Zm-2.26-1.23-1.19-1a11.86,11.86,0,0,1,1.41.75h0Zm-17.26.83-.53.61-.1-.08A5.35,5.35,0,0,1,376.13,243.63ZM373.76,246a14.55,14.55,0,0,1,1.45-1.6l.15.13L374,246.17l-.21-.17Zm-.22.29h0l.19.16-1.09,1.28A10.81,10.81,0,0,1,373.54,246.29Zm-2.08,4.86h0l.92.78-1.07,1.26A11.47,11.47,0,0,1,371.46,251.15Zm0,3.26,1.26,1.08-.78.92A11,11,0,0,1,371.41,254.41Zm2.18,5.16,1.3,1.1-.17.2A11.56,11.56,0,0,1,373.59,259.57Zm3.09,2.89a13.1,13.1,0,0,1-1.69-1.34l.18-.2,1.64,1.39-.13.15Zm.41.09.65.54a6.93,6.93,0,0,1-.75-.43Z" style="fill:#407BFF"></path><path d="M386.64,267.81c9.37-.76,16.45-8.18,15.77-16.53s-8.86-14.53-18.23-13.76a18.85,18.85,0,0,0-5.26,1.19h0l-.11,0a16.15,16.15,0,0,0-1.75.79,21.69,21.69,0,0,0-8.09,7c-2,2.52-3.62,5.42-8.09,6.72l-4.86.39.23,2.84,4.86-.39h0c4.62.55,6.71,3.16,9.07,5.32a21.64,21.64,0,0,0,9.11,5.56,15.87,15.87,0,0,0,1.86.5l.11,0h0A18.78,18.78,0,0,0,386.64,267.81ZM362,254.7l0-.26c3.61-1.17,5.45-3.68,7.08-5.63a13.88,13.88,0,0,0-.6,5.23,13.61,13.61,0,0,0,1.44,5.07C367.92,257.45,365.7,255.27,362,254.7Zm18.91,11.16c-.27-.06-.53-.14-.78-.21-5.58-1.7-9.75-6.17-10.2-11.72s2.94-10.64,8.17-13.22l.73-.34A17.24,17.24,0,0,1,384.3,239c8.56-.69,16,4.88,16.64,12.42s-5.85,14.25-14.42,14.94A17.08,17.08,0,0,1,380.86,265.86Z" style="fill:#263238"></path><rect x="345.36" y="245.82" width="3.8" height="19.9" rx="0.68" transform="translate(574.06 -111.07) rotate(85.35)" style="fill:#407BFF"></rect><path d="M348.37,252.47l-2.09-.5a2.49,2.49,0,0,0-2.22.56L341.21,255a4.7,4.7,0,0,0-1.56,4l.09.93c3.42,1.05,7.89-.32,7.89-.32l1.31-.25a2.08,2.08,0,0,0,1.72-2.41l-.46-2.61A2.39,2.39,0,0,0,348.37,252.47Z" style="fill:#ebb376"></path><path d="M316.93,244.92a86.54,86.54,0,0,0,5.46,15.24,46.43,46.43,0,0,0,2.55,4.55l-.56-.62a1,1,0,0,0-.61-.27c2.35.14,5.23-1.5,7.58-2.59,3.49-1.77,7-3.89,10.34-6a2.18,2.18,0,0,1,2.7,3.37c-5,4.87-18.79,17.85-25.69,10.87a57.12,57.12,0,0,1-9.51-19.64c-.3-1-.53-1.93-.77-3a4.36,4.36,0,0,1,8.51-1.91Z" style="fill:#e9b376"></path><path d="M311.14,233.22c-4.9,3.37-5.2,8.49-2.7,18.36,3.48,1.8,12-.31,12-.31S318,236,311.14,233.22Z" style="fill:#407BFF"></path><path d="M311.14,233.22c-4.9,3.37-5.2,8.49-2.7,18.36,3.48,1.8,12-.31,12-.31S318,236,311.14,233.22Z" style="fill:#fff;opacity:0.6000000000000001"></path><polygon points="377.99 227.35 380.25 233.37 375.69 235.5 372.58 228.37 377.99 227.35" style="fill:#ebb376"></polygon><path d="M368,233.08l4.57-4.71,3.11,7.13s-4.81,3.24-6.81,1.12Z" style="fill:#ebb376"></path><path d="M375.77,239.75a4.79,4.79,0,1,1,6.46-2A4.78,4.78,0,0,1,375.77,239.75Z" style="fill:#407BFF"></path><path d="M375.77,239.75a4.81,4.81,0,0,1-2.56-3.83,4.13,4.13,0,0,1,0-.93,4.88,4.88,0,0,1,.51-1.71,4.74,4.74,0,0,1,2.69-2.3,3,3,0,0,1,.46-.14,4.79,4.79,0,0,1,3.32.42,4.91,4.91,0,0,1,.93.63,3.57,3.57,0,0,1,.43.44,4.8,4.8,0,0,1-1.49,7.48,3,3,0,0,1-.36.15A4.78,4.78,0,0,1,375.77,239.75Z" style="fill:#fff;opacity:0.7000000000000001"></path><g style="opacity:0.2"><path d="M375.74,233.65a3.27,3.27,0,0,1,2.26,1,3.18,3.18,0,0,1,.85,2.42,4.44,4.44,0,0,0,.86,2.9,3,3,0,0,0,.36-.15,4,4,0,0,1-.85-2.74,3.67,3.67,0,0,0-1-2.69,3.75,3.75,0,0,0-2.52-1.1,2.72,2.72,0,0,0-2.53,1.71,4.13,4.13,0,0,0,0,.93C373.79,234.38,374.62,233.63,375.74,233.65Zm4.52-1.43a6.63,6.63,0,0,1,1.3.11,3.57,3.57,0,0,0-.43-.44l-.86,0a7,7,0,0,1-2-.26,6.11,6.11,0,0,1-1.41-.75,3,3,0,0,0-.46.14,6.88,6.88,0,0,0,1.76,1A7.24,7.24,0,0,0,380.26,232.22Z" style="fill:#263238"></path></g><g style="opacity:0.6000000000000001"><path d="M321.16,411.05l-1.11-.22c-2.69-9.17-10-38.75-2.18-67.17-.43-1.93-5.22-25,2.09-67.57l1-.15c-7.65,44.24-2.19,67.38-2.13,67.62l0,.12,0,.13C310.9,372.57,318.63,402.6,321.16,411.05Z" style="fill:#fff"></path></g><path d="M337.49,281.86a.23.23,0,0,1-.14,0,.25.25,0,0,1-.06-.35c.8-1.18,1.31-4.14,1.51-5.53-.78.76-2.15,1.94-2.95,1.75a.76.76,0,0,1-.55-.57,1.34,1.34,0,0,1,.12-1.22c.52-.72,1.86-.84,3.71-.92h0c2.08-.1,4.16-.11,4.74.82a1.33,1.33,0,0,1-.1,1.4,1.26,1.26,0,0,1-1,.71c-1.14.12-2.63-1.24-3.38-2a7,7,0,0,0,2.87,4.65.25.25,0,0,1,.07.35.25.25,0,0,1-.35.06,7.72,7.72,0,0,1-2.87-3.87,14.34,14.34,0,0,1-1.43,4.67A.24.24,0,0,1,337.49,281.86Zm2.2-6.41c.77.81,2.18,2.05,3.05,2a.78.78,0,0,0,.6-.46.91.91,0,0,0,.12-.9C343,275.4,341.07,275.4,339.69,275.45Zm-1.17.06c-1.14.06-2.34.19-2.69.68a.87.87,0,0,0-.05.79c.06.19.15.21.19.22C336.46,277.31,337.63,276.39,338.52,275.51Z" style="fill:#fff"></path></g><g id="freepik--character-2--inject-206"><g id="freepik--group--inject-206"><path d="M259.17,316.7c-4.7-3.89-9.19-8-12.09-13.47-2.07-4.37-1.41-9.28-.61-13.73a55,55,0,0,1,2.78-9.52l3.7,1c-.57,5.73-1.59,12-.25,17.58a8.27,8.27,0,0,0,1.72,2.88,60,60,0,0,0,6.21,6.24c1.1,1,2.31,2,3.4,3l-4.86,6Z" style="fill:#dc897c"></path><path d="M239.31,361.14s-10.61,18.05-10.56,27.62,4.31,29.35,4.31,29.35l5.26.09s-1.3-24.05-1-28.28,11.44-20.73,11.44-20.73Z" style="fill:#e4897b"></path><path d="M260.83,361.14s-1.92,19.64,0,29,9.93,28,9.93,28l5.18-.94s-6-23.33-6.47-27.54,3.62-26.84,3.62-26.84Z" style="fill:#e4897b"></path><path d="M247.16,375.82a47.73,47.73,0,0,1,10.51-10.6,97.28,97.28,0,0,0,.65,13l16.45,1.39A197.35,197.35,0,0,1,280,349.45l-30.36-9.78-2.31,5.16s-7.55,8.22-16.81,25.23Z" style="fill:#263238"></path><path d="M261.57,419.27a15.26,15.26,0,0,0,6.62-3c-.79-3.83-.33-4,.62-3.83,1.15.22,2.65,2.54,2.65,2.54,3.94-1.88,5.51.66,5.51.66,1.82,5.92,1.46,5.37-1.06,5.85-2.17.1-3.22,0-6,.19a51,51,0,0,1-7.33.23C260.28,421.67,260.57,419.38,261.57,419.27Z" style="fill:#407BFF"></path><path d="M224.47,419.27a15.26,15.26,0,0,0,6.62-3c-.79-3.83-.33-4,.62-3.83,1.14.22,2.65,2.54,2.65,2.54,3.94-1.88,5.51.66,5.51.66,1.82,5.92,1.46,5.37-1.06,5.85-2.18.1-3.22,0-6,.19a51,51,0,0,1-7.33.23C223.18,421.67,223.47,419.38,224.47,419.27Z" style="fill:#407BFF"></path><path d="M248.76,341.7,280,349.45s1.84-7.22,3.53-18c.55-3.5,1.1-7.38,1.55-11.51.15-1.37,2-6.83,2.15-8.25,0,0-16.58.71-26.74-4.19C260.5,307.52,254.53,328.68,248.76,341.7Z" style="fill:#407BFF"></path><path d="M269.49,307.29a4.54,4.54,0,0,1-1.22,3.29,5,5,0,0,1-.47.44,5.9,5.9,0,0,1-.82.57s-.62,3,1.85,3.67a11.82,11.82,0,0,0,8.94-1.4,8.46,8.46,0,0,1,.18-6.92,11.29,11.29,0,0,1,2-3l-7.77.18-3.53.09A7.36,7.36,0,0,1,269.49,307.29Z" style="fill:#e4897b"></path><path d="M269.49,307.29a4.54,4.54,0,0,1-1.22,3.29,5,5,0,0,1-.47.44c4.13.65,8-2.17,10.15-4.08a11.29,11.29,0,0,1,2-3l-7.77.18-3.53.09A7.36,7.36,0,0,1,269.49,307.29Z" style="isolation:isolate;opacity:0.2"></path><path d="M273.87,282s-9.94,2.5-5,12.64C274.43,306.09,273.87,282,273.87,282Z" style="fill:#263238"></path><path d="M286.59,300c-3,5.33-9,10-14,8.63-9.12-2.47-11.64-5.64-9.61-12.3,1.8-6,8-14,15.71-12.29S290.77,292.57,286.59,300Z" style="fill:#e4897b"></path><path d="M271.29,285.28s2.17.32,8.87,3.35a5.79,5.79,0,0,1-.39,6.58c-2.52,3.44.9,7.57-1.31,12.66,0,0,5.52,1.85,11.53-8.74,4.38-7.71-1.09-14.1-8.28-17.34C275.69,279.08,269.44,281.38,271.29,285.28Z" style="fill:#263238"></path><path d="M273.23,295.58c-.36.68-1,1.06-1.47.81s-.52-1-.16-1.67,1-1.05,1.47-.82S273.59,294.89,273.23,295.58Z" style="fill:#263238"></path><path d="M267.87,292.42c-.35.66-1,1-1.41.79s-.49-.95-.15-1.61,1-1,1.41-.78S268.21,291.77,267.87,292.42Z" style="fill:#263238"></path><path d="M273.06,291.08a.39.39,0,0,1,0-.21.35.35,0,0,1,.44-.23,3.44,3.44,0,0,1,2.34,2.17.36.36,0,0,1-.24.44h0a.37.37,0,0,1-.43-.24h0a2.77,2.77,0,0,0-1.9-1.7A.38.38,0,0,1,273.06,291.08Z" style="fill:#263238"></path><path d="M267.57,288.57a.36.36,0,0,1-.12-.18.34.34,0,0,1,.27-.41,3.42,3.42,0,0,1,3.09.8.34.34,0,0,1,0,.49h0a.36.36,0,0,1-.49,0h0a2.76,2.76,0,0,0-2.48-.59A.39.39,0,0,1,267.57,288.57Z" style="fill:#263238"></path><path d="M268.53,293.79l-.81,3.29a4.13,4.13,0,0,1-2.13-1.26A10.13,10.13,0,0,0,268.53,293.79Z" style="fill:#de5753"></path><path d="M278.78,300.36s3.12-2.65,4.33-.73-1.92,7.37-4.5,6.09S276.72,301.59,278.78,300.36Z" style="fill:#e4897b"></path><path d="M266.48,299a19.88,19.88,0,0,1,.1,2.82l.49.1c2.21.42,3.38-.12,4-.84a2.92,2.92,0,0,0,.59-1.24,2.86,2.86,0,0,0,.09-.78,10.44,10.44,0,0,1-4.51.07C266.77,299.1,266.48,299,266.48,299Z" style="fill:#263238"></path><path d="M267.24,299.16l.05.83c2.08.39,3.6.39,4.37-.12a2.86,2.86,0,0,0,.09-.78A10.44,10.44,0,0,1,267.24,299.16Z" style="fill:#fff"></path><path d="M267.07,302c2.21.42,3.38-.12,4-.84a7.06,7.06,0,0,0-2.55,0A2.66,2.66,0,0,0,267.07,302Z" style="fill:#de5753"></path><path d="M271,285.2s-1.91-1.33-.1-4.43,5.68-3.9,4.69-1.62c0,0,5.16-.91,5.68.71s-1.49,1.42-1.49,1.42,5.12.49,5.52,2.5-3.42,2.39-3.42,2.39Z" style="fill:#263238"></path><path d="M282.7,312.75c3.79-.92,7.84-1.66,10.95-3.72.83-.79,1.09-2.12,1.4-3.78a50.17,50.17,0,0,0,.2-9.47c-.19-3.26-.53-6.61-.95-9.87L298,285c2.42,7.8,7.09,24.19-.64,30.2-4,3-8.58,4.29-13.34,5.18l-1.35-7.62Z" style="fill:#dc897c"></path><path d="M267.8,310c-6.47-2.46-12.53-7.89-12.53-7.89l-4.64,9.27,7.89,8.3Z" style="fill:#407BFF"></path><path d="M278.86,311.54a92.5,92.5,0,0,0,12.05-1.77l2,8.43-9.56,5.94S276.14,318.33,278.86,311.54Z" style="fill:#407BFF"></path><polygon points="248.22 272.24 254.51 273 254.39 277.55 246.76 276.97 248.22 272.24" style="fill:#e4897b"></polygon><path d="M248.9,282.63,246.76,277l7.63.58s.75,5.21-2,5.89Z" style="fill:#e4897b"></path><polygon points="299.22 276.4 292.93 277.17 293.05 281.71 300.68 281.14 299.22 276.4" style="fill:#e4897b"></polygon><path d="M298.54,286.79l2.14-5.65-7.63.57s-.75,5.21,2,5.9Z" style="fill:#e4897b"></path><path d="M262.38,352.73a.23.23,0,0,1-.2-.1,7.75,7.75,0,0,1-1.5-4.58,14.11,14.11,0,0,1-2.84,4,.25.25,0,1,1-.3-.4c1.14-.86,2.56-3.51,3.19-4.77-1,.48-2.65,1.16-3.35.73a.73.73,0,0,1-.34-.71,1.32,1.32,0,0,1,.5-1.12c.71-.53,2-.21,3.81.3,2,.57,4,1.21,4.24,2.28a1.33,1.33,0,0,1-.54,1.3,1.3,1.3,0,0,1-1.16.36c-1.12-.25-2.1-2-2.56-3a7,7,0,0,0,1.25,5.32.25.25,0,0,1-.05.35A.27.27,0,0,1,262.38,352.73Zm-.65-6.05c.47,1,1.4,2.64,2.27,2.83a.76.76,0,0,0,.71-.24c.32-.3.46-.57.4-.82C264.92,347.69,263.05,347.07,261.73,346.68Zm-3.18-.69a1.26,1.26,0,0,0-.72.17.87.87,0,0,0-.29.73c0,.21.07.26.1.28.43.25,1.84-.25,3-.8A8.55,8.55,0,0,0,258.55,346Z" style="fill:#fff"></path><path d="M277.55,247.34a12.35,12.35,0,0,1-4,9.17,12.13,12.13,0,0,1-2.74,1.91l-.52.26a11.74,11.74,0,0,1-2,.72h0a12.19,12.19,0,0,1-3.1.39,12.41,12.41,0,0,1-8.93-3.78c-.13-.14-.27-.28-.4-.43a12.39,12.39,0,0,1-3.12-8.24,11.32,11.32,0,0,1,.1-1.55c0-.18,0-.36.07-.54a12.45,12.45,0,0,1,8.8-9.87,13.58,13.58,0,0,1,1.56-.36l.89-.1c.29,0,.59,0,.89,0h.14a12.51,12.51,0,0,1,11.61,8l.18.49a12.36,12.36,0,0,1,.65,3.76A2.26,2.26,0,0,1,277.55,247.34Z" style="fill:#407BFF"></path><g style="opacity:0.7000000000000001"><path d="M277.55,247.34a12.35,12.35,0,0,1-4,9.17,12.13,12.13,0,0,1-2.74,1.91l-.52.26a11.74,11.74,0,0,1-2,.72h0a12.19,12.19,0,0,1-3.1.39,12.41,12.41,0,0,1-8.93-3.78c-.13-.14-.27-.28-.4-.43a12.38,12.38,0,0,1-3-6.49s0,0,0,0a12.36,12.36,0,0,1-.12-1.73,11.32,11.32,0,0,1,.1-1.55c0-.18,0-.36.07-.54a12.45,12.45,0,0,1,8.8-9.87,13.58,13.58,0,0,1,1.56-.36l.89-.1c.29,0,.59,0,.89,0h.14a12.15,12.15,0,0,1,2,.17,12.51,12.51,0,0,1,9.59,7.78l.18.49a12.36,12.36,0,0,1,.65,3.76A2.26,2.26,0,0,1,277.55,247.34Z" style="fill:#fff"></path></g><polygon points="260.2 243.33 255.31 246.89 257.18 252.65 263.23 252.65 265.1 246.89 260.2 243.33" style="fill:#263238"></polygon><path d="M277.54,247.08l-1.19.78-4.43-3.56-.29-.23.09-.25,2-5.41a12.28,12.28,0,0,1,2.94,4.42l.18.49A12.36,12.36,0,0,1,277.54,247.08Z" style="fill:#263238"></path><path d="M273.51,256.51a12.13,12.13,0,0,1-2.74,1.91l-.52.26a11.74,11.74,0,0,1-2,.72l.37-1.89.08-.42.15,0Z" style="fill:#263238"></path><path d="M265,234.88l-1.84.92-.73.36-.12-.13-.65-.65a13.58,13.58,0,0,1,1.56-.36l.89-.1C264.36,234.9,264.66,234.88,265,234.88Z" style="fill:#263238"></path><path d="M264.07,234.92a6.65,6.65,0,0,0-.95.88c-1.92,2.14-2.54,5.3-2.7,7.69a22.4,22.4,0,0,0,0,3.33l-.49.06a19.88,19.88,0,0,1-.06-3.33,14,14,0,0,1,2.37-7.52,7.91,7.91,0,0,1,.91-1Z" style="fill:#263238"></path><path d="M276.89,243.32a23.35,23.35,0,0,0-5,1,49.43,49.43,0,0,0-6.86,2.72c-1.4.67-2.3,1.17-2.33,1.19l-.24-.44c.11-.06.95-.53,2.24-1.15a48.34,48.34,0,0,1,7-2.8,24.62,24.62,0,0,1,5-1Z" style="fill:#263238"></path><path d="M270.77,258.42l-.52.26c-.57-.37-1.13-.76-1.67-1.17a55.5,55.5,0,0,1-5.66-4.87c-1.31-1.3-2.13-2.21-2.15-2.23l.38-.33s.85.95,2.18,2.25a53.74,53.74,0,0,0,5.48,4.74C269.45,257.55,270.1,258,270.77,258.42Z" style="fill:#263238"></path><path d="M259.49,249.56a14.08,14.08,0,0,0-2,3.08,18.16,18.16,0,0,0-1.29,3.37c-.13-.14-.27-.28-.4-.43a18.24,18.24,0,0,1,1.3-3.27,14.5,14.5,0,0,1,2.06-3.1Z" style="fill:#263238"></path><path d="M257.75,247.76l-.18.46c-.11-.05-1-.4-2.15-1-.79-.39-1.72-.87-2.67-1.45,0-.18,0-.36.07-.54,1,.58,1.9,1.09,2.71,1.48C256.81,247.37,257.72,247.75,257.75,247.76Z" style="fill:#263238"></path><path d="M273.69,245a10.85,10.85,0,0,1-20.92,4.06s0,0,0,0a12.36,12.36,0,0,1-.12-1.73,11.32,11.32,0,0,1,.1-1.55c0-.18,0-.36.07-.54a12.45,12.45,0,0,1,8.8-9.87,13.58,13.58,0,0,1,1.56-.36l.89-.1c.29,0,.59,0,.89,0h.14a12.15,12.15,0,0,1,2,.17A10.86,10.86,0,0,1,273.69,245Z" style="fill:#fff;opacity:0.2"></path></g></g><g id="freepik--character-1--inject-206"><polygon points="172.49 414.1 173.39 408.67 174.37 402.84 167.38 400.76 166.08 408.57 165.15 414.1 172.49 414.1" style="fill:#b55b52"></polygon><polygon points="213.91 414.1 214.01 409.37 214.14 402.87 206.91 401.82 206.76 409.28 206.67 414.1 213.91 414.1" style="fill:#b55b52"></polygon><polygon points="206.91 401.82 206.76 409.28 214.01 409.37 214.14 402.87 206.91 401.82" style="opacity:0.2"></polygon><polygon points="166.08 408.57 173.39 408.67 174.37 402.84 167.38 400.76 166.08 408.57" style="opacity:0.2"></polygon><path d="M165.57,410.47l8-.11a.64.64,0,0,1,.63.49l1.59,6.44a1,1,0,0,1-1,1.31c-2.88,0-7-.12-10.65-.07-4.23.06-6.91-.18-11.87-.12-3,0-3.9-3-2.65-3.25,5.68-1.32,9.38-1,14.25-4.1A3.45,3.45,0,0,1,165.57,410.47Z" style="fill:#263238"></path><path d="M164.87,411.49h0c-1.17.25-3.26.57-4.08-.13a1,1,0,0,1-.34-.83.56.56,0,0,1,.27-.46c.88-.51,3.85.93,4.19,1.1a.17.17,0,0,1,.09.18A.19.19,0,0,1,164.87,411.49Zm-3.93-1.15-.06,0a.18.18,0,0,0-.1.18.61.61,0,0,0,.22.55c.46.39,1.66.45,3.26.16C163.09,410.72,161.49,410.14,160.94,410.34Z" style="fill:#407BFF"></path><path d="M164.87,411.49a.2.2,0,0,1-.13,0c-.89-.38-2.67-1.93-2.56-2.75,0-.19.16-.43.64-.49a1.25,1.25,0,0,1,1,.28,4.93,4.93,0,0,1,1.2,2.79.15.15,0,0,1-.07.15Zm-2.18-2.87c-.15.05-.16.13-.16.16-.07.49,1.14,1.71,2.06,2.24a4.12,4.12,0,0,0-1-2.23.94.94,0,0,0-.71-.21A.61.61,0,0,0,162.69,408.62Z" style="fill:#407BFF"></path><path d="M206.13,411l8-.11a.65.65,0,0,1,.64.48l1.59,6.45a1.05,1.05,0,0,1-1,1.3c-2.87,0-7-.12-10.65-.07-4.23.06-6.91-.18-11.87-.11-3,0-3.9-3-2.65-3.26,5.68-1.32,9.38-1,14.25-4.09A3.36,3.36,0,0,1,206.13,411Z" style="fill:#263238"></path><path d="M205.43,412h0c-1.17.25-3.26.56-4.07-.13a1,1,0,0,1-.35-.84.55.55,0,0,1,.28-.46c.88-.51,3.84.94,4.18,1.1a.19.19,0,0,1,.09.18A.15.15,0,0,1,205.43,412Zm-3.93-1.15-.06,0a.2.2,0,0,0-.1.19.65.65,0,0,0,.22.55c.46.39,1.66.44,3.27.15C203.66,411.26,202.05,410.67,201.5,410.87Z" style="fill:#407BFF"></path><path d="M205.43,412a.19.19,0,0,1-.13,0c-.89-.38-2.67-1.93-2.55-2.76,0-.19.16-.43.63-.49a1.29,1.29,0,0,1,1,.29c.94.74,1.18,2.7,1.19,2.78a.19.19,0,0,1-.06.16Zm-2.18-2.87c-.15.05-.16.13-.16.16-.07.5,1.15,1.72,2.06,2.24a4.12,4.12,0,0,0-1-2.23.92.92,0,0,0-.71-.2A.65.65,0,0,0,203.25,409.15Z" style="fill:#407BFF"></path><path d="M222.84,253.74c3.19,14.71-2.89,118-4.37,142.27a16.78,16.78,0,0,1-3.38,9.12l-.35.47-7.9-.34-.6-1.85a19.23,19.23,0,0,1-.9-5.1l-3.9-106.43L181.06,395.12a23.07,23.07,0,0,1-4.54,9.83l-.72.91-9-1.48-.31-4.14a8.28,8.28,0,0,1,0-1.65c9.95-83.8,18.41-133.76,18.41-133.76l1-6.37Z" style="fill:#263238"></path><path d="M222.84,253.74c3.19,14.71-2.89,118-4.37,142.27a16.78,16.78,0,0,1-3.38,9.12l-.35.47-7.9-.34-.6-1.85a19.23,19.23,0,0,1-.9-5.1l-3.9-106.43L181.06,395.12a23.07,23.07,0,0,1-4.54,9.83l-.72.91-9-1.48-.31-4.14a8.28,8.28,0,0,1,0-1.65c9.95-83.8,18.41-133.76,18.41-133.76l1-6.37Z" style="fill:#fff;opacity:0.2"></path><path d="M157.78,248.86l-7.21-.94,2.51,7.66s6.48.45,6.57-2.9Z" style="fill:#b55b52"></path><polygon points="143.99 250.84 148.38 256.69 153.08 255.58 150.57 247.92 143.99 250.84" style="fill:#b55b52"></polygon><path d="M195.56,205.79c-1.43,4.81-3,9.58-4.59,14.35-1.79,5.15-3.11,10.66-6.56,15-3.27,4.49-8.21,7.15-12.7,10.2-4.21,2.76-8.47,5.45-12.81,8L156,249.54q5.55-5.14,11.31-10c4.15-3.68,9.23-6.78,11.39-12.12a22.75,22.75,0,0,0,1-2.91c2.08-7.24,4.23-14.46,6.59-21.61l9.23,2.91Z" style="fill:#b55b52"></path><path d="M190.45,197.42c-4.07,1-13.92,18.52-13.92,18.52l13.11,7.81s4.15-14.15,4.08-18.82A11,11,0,0,0,190.45,197.42Z" style="fill:#407BFF"></path><path d="M230.32,200.1a159.34,159.34,0,0,0-4.44,23.42c-.66,5.52-1,10.79-1.28,15.56-.55,11.21-.28,19.75-.6,22.64L186,258.83c-5.32-40.59,4.5-61.42,4.5-61.42a73.62,73.62,0,0,1,8.52-1l.58,0c.65,0,1.3-.06,2-.07a142.05,142.05,0,0,1,16.17,1.23l1.82.26,1.23.2C225.84,198.83,230.32,200.1,230.32,200.1Z" style="fill:#407BFF"></path><path d="M200.37,197.51s1.82,3.56,3.6,4c2.51.67,12.62-3.81,12.62-3.81-2-1.88-2.55-5.5-2.53-9.24a49.15,49.15,0,0,1,1-9l-10,8.35c.76,3.12,1,6.39-1.53,8.32h0A8,8,0,0,1,200.37,197.51Z" style="fill:#b55b52"></path><path d="M203.54,196.14a25.11,25.11,0,0,0,10.52-7.65,49.15,49.15,0,0,1,1-9l-10,8.35C205.83,190.94,206.09,194.21,203.54,196.14Z" style="opacity:0.2"></path><path d="M197.3,168.45c-1.1,2.65-1.12,8.31,2.86,6.82S199.2,163.88,197.3,168.45Z" style="fill:#263238"></path><path d="M216.67,173.87c-.2,7.06.05,11.21-3.4,14.91a9.19,9.19,0,0,1-3.5,2.37h0c-5,1.82-10.89-1.24-12.42-6.82-1.73-6.3-1.12-16.79,5.71-19.76A9.74,9.74,0,0,1,216.67,173.87Z" style="fill:#b55b52"></path><path d="M211.77,186.56s3.59-2.11,4.53-3.82c0,0,.28,2.63-4.86,4.41Z" style="fill:#263238"></path><path d="M212.08,169.62l.7-7.85s6.4,2.55,5.65,6.79c4.42,2.7,3.71,12.1-2.82,15.08-3.16-3-2.29-14.38-2.29-14.38C212.93,169.39,212.52,169.51,212.08,169.62Z" style="fill:#263238"></path><path d="M219.59,179.66a6.62,6.62,0,0,1-3.19,4c-2.06,1.11-3.64-.62-3.51-2.85.11-2,1.33-5,3.62-5.2A3,3,0,0,1,219.59,179.66Z" style="fill:#b55b52"></path><path d="M206,176.1c0,.57-.27,1-.64,1.05s-.7-.45-.72-1,.27-1,.65-1.06S206,175.52,206,176.1Z" style="fill:#263238"></path><path d="M214.43,176.11l-.56-.51c-.6,2.58-6.52,5.15-8.07,5.09a2.77,2.77,0,0,0-2.35,1.51c-2.29-1-6.11,2.13-6.11,2.13,1.53,5.58,7.45,8.64,12.42,6.82h0c.93-.61,1.71-1.22,2.31-1.63C214.47,187.87,214.43,176.11,214.43,176.11Zm-5.18,8.83c-.46,1.14-1.26,1.68-2.27.4l-1.09.39s1.13,1-.09,1.42-2.78-.92-3-2.41.71-2,1.1-2h.72a8,8,0,0,1,3.08-1.4C208.93,181.28,209.72,183.81,209.25,184.94Z" style="fill:#263238"></path><path d="M214.43,176.11l-.56-.51c-.6,2.58-6.52,5.15-8.07,5.09a2.77,2.77,0,0,0-2.35,1.51c-2.29-1-6.11,2.13-6.11,2.13,1.53,5.58,7.45,8.64,12.42,6.82h0c.93-.61,1.71-1.22,2.31-1.63C214.47,187.87,214.43,176.11,214.43,176.11Zm-5.18,8.83c-.46,1.14-1.26,1.68-2.27.4l-1.09.39s1.13,1-.09,1.42-2.78-.92-3-2.41.71-2,1.1-2h.72a8,8,0,0,1,3.08-1.4C208.93,181.28,209.72,183.81,209.25,184.94Z" style="fill:#fff;opacity:0.2"></path><path d="M199.52,176.25c0,.57-.27,1.05-.65,1.05s-.69-.45-.71-1,.27-1.05.65-1.06S199.5,175.67,199.52,176.25Z" style="fill:#263238"></path><path d="M201.6,176.49a19.89,19.89,0,0,1-2.64,4.8,3.43,3.43,0,0,0,2.75.4Z" style="fill:#a02724"></path><path d="M204.87,183.81a6,6,0,0,1-.75.07.18.18,0,0,1-.18-.17.18.18,0,0,1,.17-.17,4.52,4.52,0,0,0,3.65-1.86.18.18,0,0,1,.24-.06.16.16,0,0,1,.05.23A4.62,4.62,0,0,1,204.87,183.81Z" style="fill:#263238"></path><path d="M208,174a.33.33,0,0,1-.32-.12,2.73,2.73,0,0,0-2.2-1.08.33.33,0,0,1-.37-.3.34.34,0,0,1,.3-.37,3.41,3.41,0,0,1,2.79,1.33.32.32,0,0,1,0,.47A.3.3,0,0,1,208,174Z" style="fill:#263238"></path><path d="M196.64,174.08a.41.41,0,0,1-.19,0,.34.34,0,0,1-.17-.45,3.35,3.35,0,0,1,2.36-2,.35.35,0,0,1,.39.29.33.33,0,0,1-.28.38,2.59,2.59,0,0,0-1.85,1.57A.34.34,0,0,1,196.64,174.08Z" style="fill:#263238"></path><path d="M224,173s-2.18,3.07-3.17,2.5-4.24-1.65-5.74-1-4.25-5.15-4.25-5.15-9.71-2.53-13.51-.87a3.8,3.8,0,0,1-1-2.49,1.56,1.56,0,0,1,.38-.89,17.66,17.66,0,0,1,5.1-4.7,14.93,14.93,0,0,1,4-1.57h0a17.31,17.31,0,0,1,2.06-.35c.46-.05.93-.08,1.42-.1s.82,0,1.21,0a15,15,0,0,1,2.28.2,12.24,12.24,0,0,1,1.64.37C219.5,160.41,222.52,164.9,224,173Z" style="fill:#407BFF"></path><path d="M224,173s-2.18,3.07-3.17,2.5-4.24-1.65-5.74-1-4.25-5.15-4.25-5.15-9.71-2.53-13.51-.87a3.8,3.8,0,0,1-1-2.49.74.74,0,0,0,.38.1,24.11,24.11,0,0,1,11,0C214.54,167.43,221.73,173.39,224,173Z" style="fill:#263238"></path><path d="M224,173s-2.18,3.07-3.17,2.5-4.24-1.65-5.74-1-4.25-5.15-4.25-5.15-9.71-2.53-13.51-.87a3.8,3.8,0,0,1-1-2.49.74.74,0,0,0,.38.1,24.11,24.11,0,0,1,11,0C214.54,167.43,221.73,173.39,224,173Z" style="fill:#fff;opacity:0.2"></path><g style="opacity:0.2"><path d="M209.3,158.34c.41,0,.82,0,1.21,0a13.46,13.46,0,0,0-6.15,4.63.52.52,0,0,1-.42.22.46.46,0,0,1-.27-.09.5.5,0,0,1-.14-.69,14.66,14.66,0,0,1,4.35-4C208.34,158.39,208.81,158.36,209.3,158.34Z"></path><path d="M212.79,158.54a12.24,12.24,0,0,1,1.64.37,13.31,13.31,0,0,0-5.77,4.5.52.52,0,0,1-.42.22.49.49,0,0,1-.28-.09.5.5,0,0,1-.14-.69A14.56,14.56,0,0,1,212.79,158.54Z"></path><path d="M205.8,158.79a13.91,13.91,0,0,0-5,4.18.52.52,0,0,1-.42.22.51.51,0,0,1-.28-.09.5.5,0,0,1-.13-.69,14,14,0,0,1,1.81-2A14.93,14.93,0,0,1,205.8,158.79Z"></path></g><path d="M213.68,172.08s.12,11.3-3.17,15.73-7.06,3.25-7.06,3.25.33,1,3.15.61,8.58-5.57,8.46-18Z" style="fill:#263238"></path><path d="M196.87,315l4.56-23.13-.66-12.28S194.65,300.8,196.87,315Z" style="opacity:0.2"></path><path d="M198.91,268.07a.21.21,0,0,1-.15-.05.25.25,0,0,1,0-.35c.86-1.14,1.5-4.08,1.76-5.46-.81.73-2.23,1.84-3,1.62a.75.75,0,0,1-.53-.59,1.38,1.38,0,0,1,.18-1.22c.54-.7,1.9-.75,3.75-.75,2.08,0,4.16.08,4.7,1a1.34,1.34,0,0,1-.16,1.4,1.25,1.25,0,0,1-1,.66c-1.14.09-2.57-1.36-3.29-2.17a7,7,0,0,0,2.66,4.77.25.25,0,0,1-.3.41,7.86,7.86,0,0,1-2.69-4,14.28,14.28,0,0,1-1.64,4.61A.25.25,0,0,1,198.91,268.07Zm2.47-6.3c.72.82,2,2.1,2.9,2.1h.06a.74.74,0,0,0,.62-.42c.23-.38.28-.68.16-.89C204.73,261.86,202.76,261.78,201.38,261.77Zm-1.17,0c-1.31,0-2.37.11-2.72.56a.87.87,0,0,0-.08.78c.05.2.14.23.18.24C198.07,263.49,199.28,262.61,200.21,261.77Z" style="fill:#fff"></path><path d="M230.32,200.1a159.34,159.34,0,0,0-4.44,23.42c-.66,5.52-1,10.79-1.28,15.56-.55,11.21-.28,19.75-.6,22.64L186,258.83c-5.32-40.59,4.5-61.42,4.5-61.42a73.62,73.62,0,0,1,8.52-1l-.13.58s.36,4.8,4,6c2.86.95,12.69-3.34,16.7-5.19l1.23.2C225.84,198.83,230.32,200.1,230.32,200.1Z" style="fill:#fff;opacity:0.7000000000000001"></path><path d="M233.31,204.89c3.32,3.76,6.37,7.58,9.31,11.62,3.13,4.38,5.93,8.22,8.09,13.45,1.93,4.3.17,7.94-2.43,10.86-5.34,5.85-11.79,9.79-18.56,13.48l-2.66-4c3.58-3.12,7.19-6.34,10.45-9.62,2-2.14,4.49-4.54,5.39-7,0-.18-.07-.14,0,.37,0,.2,0,.07,0,0a33.79,33.79,0,0,0-3.68-6.18c-4.07-5.72-8.69-11.26-13.16-16.68l7.31-6.33Z" style="fill:#b55b52"></path><path d="M230.32,200.1c5.22,1.88,15.54,18,15.54,18l-11.21,9.31-9.36-5.63s-4-9.2-1.72-15.08S230.32,200.1,230.32,200.1Z" style="fill:#407BFF"></path><polygon points="215.87 250.5 217.99 257.76 223.33 256.74 221.17 247.85 215.87 250.5" style="fill:#b55b52"></polygon><path d="M228.25,249.28l-7.08-1.43,2.16,8.89s6.29-.13,6.56-3.49Z" style="fill:#b55b52"></path><polygon points="206.5 404.21 206.5 406.98 215.07 406.98 215.39 404.71 206.5 404.21" style="fill:#407BFF"></polygon><polygon points="166.7 403.42 176.52 404.95 175.8 407.96 166.08 406.97 166.7 403.42" style="fill:#407BFF"></polygon></g></svg>
